<svg xmlns="http://www.w3.org/2000/svg" width="819.82" height="944.579" viewBox="0 0 819.82 944.579">
  <g id="pattern" transform="translate(0.447 0.517)" opacity="0.35">
    <path id="Path_70797" data-name="Path 70797" d="M1072.9,306.631,970.872,365.8V483.385L1072.9,542.924l102.7-59.538V365.8Z" transform="translate(-868.847 -70.47)" fill="none" stroke="#006ce5" stroke-width="0.894"/>
    <path id="Path_70798" data-name="Path 70798" d="M1257.79,306.631,1155.76,365.8V483.385l102.029,59.538,102.7-59.538V365.8Z" transform="translate(-849.003 -70.47)" fill="none" stroke="#006ce5" stroke-width="0.894"/>
    <path id="Path_70799" data-name="Path 70799" d="M1442.678,306.631,1340.649,365.8V483.385l102.029,59.538,102.7-59.538V365.8Z" transform="translate(-829.159 -70.47)" fill="none" stroke="#006ce5" stroke-width="0.894"/>
    <path id="Path_70800" data-name="Path 70800" d="M1073.518,625.87,971.489,685.036V802.625l102.029,59.538,102.7-59.538V685.036Z" transform="translate(-868.781 -36.205)" fill="none" stroke="#006ce5" stroke-width="0.894"/>
    <path id="Path_70801" data-name="Path 70801" d="M1257.789,626.206,1155.76,685.372V802.96L1257.789,862.5l102.7-59.538V685.372Z" transform="translate(-849.003 -36.169)" fill="none" stroke="#006ce5" stroke-width="0.894"/>
    <path id="Path_70802" data-name="Path 70802" d="M1442.678,626.206l-102.029,59.166V802.961L1442.678,862.5l102.7-59.538V685.372Z" transform="translate(-829.159 -36.169)" fill="none" stroke="#006ce5" stroke-width="0.894"/>
    <path id="Path_70803" data-name="Path 70803" d="M980.766,466.248,878.737,525.414V643l102.029,59.538L1083.47,643V525.414Z" transform="translate(-878.737 -53.338)" fill="none" stroke="#006ce5" stroke-width="0.894"/>
    <path id="Path_70804" data-name="Path 70804" d="M1073.518,412.955,971.489,472.121V589.709l102.029,59.538,102.7-59.538V472.121Z" transform="translate(-868.781 -59.058)" fill="none" stroke="#006ce5" stroke-width="0.894"/>
    <path id="Path_70805" data-name="Path 70805" d="M980.766,253.338,878.737,312.5V430.093l102.029,59.538,102.7-59.538V312.5Z" transform="translate(-878.737 -76.19)" fill="none" stroke="#006ce5" stroke-width="0.894"/>
    <path id="Path_70806" data-name="Path 70806" d="M1165.654,253.338,1063.625,312.5V430.093l102.029,59.538,102.7-59.538V312.5Z" transform="translate(-858.892 -76.19)" fill="none" stroke="#006ce5" stroke-width="0.894"/>
    <path id="Path_70807" data-name="Path 70807" d="M1258.1,93.361l-102.029,59.166V270.115L1258.1,329.654l102.7-59.538V152.527Z" transform="translate(-848.97 -93.361)" fill="none" stroke="#006ce5" stroke-width="0.894"/>
    <path id="Path_70808" data-name="Path 70808" d="M1442.987,93.361l-102.029,59.166V270.115l102.029,59.538,102.7-59.538V152.527Z" transform="translate(-829.125 -93.361)" fill="none" stroke="#006ce5" stroke-width="0.894"/>
    <path id="Path_70809" data-name="Path 70809" d="M1442.987,306.631,1340.958,365.8V483.385l102.029,59.538,102.7-59.538V365.8Z" transform="translate(-829.125 -70.47)" fill="none" stroke="#006ce5" stroke-width="0.894"/>
    <path id="Path_70810" data-name="Path 70810" d="M1350.234,359.553,1248.2,418.72V536.308l102.029,59.538,102.7-59.538V418.72Z" transform="translate(-839.081 -64.79)" fill="none" stroke="#006ce5" stroke-width="0.894"/>
    <path id="Path_70811" data-name="Path 70811" d="M1535.123,359.553,1433.093,418.72V536.308l102.029,59.538,102.7-59.538V418.72Z" transform="translate(-819.236 -64.79)" fill="none" stroke="#006ce5" stroke-width="0.894"/>
    <path id="Path_70812" data-name="Path 70812" d="M1350.544,572.44l-102.029,59.166V749.194l102.029,59.538,102.7-59.538V631.606Z" transform="translate(-839.047 -41.94)" fill="none" stroke="#006ce5" stroke-width="0.894"/>
    <path id="Path_70813" data-name="Path 70813" d="M1350.546,678.633,1248.516,737.8V855.387l102.029,59.538,102.7-59.538V737.8Z" transform="translate(-839.047 -30.542)" fill="none" stroke="#006ce5" stroke-width="0.894"/>
    <path id="Path_70814" data-name="Path 70814" d="M1443.289,732.06,1341.26,791.226V908.815l102.029,59.538,102.7-59.538V791.226Z" transform="translate(-829.093 -24.808)" fill="none" stroke="#006ce5" stroke-width="0.894"/>
    <path id="Path_70815" data-name="Path 70815" d="M1535.425,679.638,1433.4,738.8V856.392l102.029,59.538,102.7-59.538V738.8Z" transform="translate(-819.204 -30.434)" fill="none" stroke="#006ce5" stroke-width="0.894"/>
    <path id="Path_70816" data-name="Path 70816" d="M1442.678,626.2l-102.029,59.166V802.958L1442.678,862.5l102.7-59.538V685.369Z" transform="translate(-829.159 -36.17)" fill="none" stroke="#006ce5" stroke-width="0.894"/>
    <path id="Path_70817" data-name="Path 70817" d="M1165.655,572.439,1063.626,631.6V749.193l102.029,59.538,102.7-59.538V631.6Z" transform="translate(-858.892 -41.94)" fill="none" stroke="#006ce5" stroke-width="0.894"/>
    <path id="Path_70818" data-name="Path 70818" d="M1165.654,466.248l-102.029,59.166V643l102.029,59.538L1268.358,643V525.414Z" transform="translate(-858.892 -53.338)" fill="none" stroke="#006ce5" stroke-width="0.894"/>
    <path id="Path_70819" data-name="Path 70819" d="M1350.543,466.248l-102.029,59.166V643l102.029,59.538L1453.247,643V525.414Z" transform="translate(-839.048 -53.338)" fill="none" stroke="#006ce5" stroke-width="0.894"/>
    <path id="Path_70820" data-name="Path 70820" d="M980.766,146.643,878.737,205.81V323.4l102.029,59.538,102.7-59.538V205.81Z" transform="translate(-878.737 -87.642)" fill="none" stroke="#006ce5" stroke-width="0.894"/>
    <path id="Path_70821" data-name="Path 70821" d="M1165.654,146.643,1063.625,205.81V323.4l102.029,59.538,102.7-59.538V205.81Z" transform="translate(-858.892 -87.642)" fill="none" stroke="#006ce5" stroke-width="0.894"/>
    <path id="Path_70822" data-name="Path 70822" d="M1350.543,146.643,1248.514,205.81V323.4l102.029,59.538,102.7-59.538V205.81Z" transform="translate(-839.048 -87.642)" fill="none" stroke="#006ce5" stroke-width="0.894"/>
    <line id="Line_295" data-name="Line 295" y2="118.146" transform="translate(511.49 531.057)" fill="none" stroke="#006ce5" stroke-width="0.894"/>
    <line id="Line_296" data-name="Line 296" y2="117.712" transform="translate(511.49 766.793)" fill="none" stroke="#006ce5" stroke-width="0.894"/>
  </g>
</svg>
