<svg xmlns="http://www.w3.org/2000/svg" width="19.028" height="19.028" viewBox="0 0 19.028 19.028"><path d="M178.336,168.81H178.3a9.514,9.514,0,1,0,.031,0Zm2.149,14.271a9.778,9.778,0,0,1-.76,2.056,3.622,3.622,0,0,1-.776,1.057.836.836,0,0,1-1.257,0,3.624,3.624,0,0,1-.776-1.057,9.782,9.782,0,0,1-.76-2.056Zm4.458,0h-3.067a11.022,11.022,0,0,1-1.144,3.035A8.181,8.181,0,0,0,184.943,183.081Zm-10.178,0H171.7a8.18,8.18,0,0,0,4.211,3.035A11.022,11.022,0,0,1,174.765,183.081ZM174.253,179h-4.06a8.093,8.093,0,0,0,.713,2.718H174.5A21.512,21.512,0,0,1,174.253,179Zm6.775,0a20.365,20.365,0,0,1-.258,2.718h-4.9a20.394,20.394,0,0,1-.257-2.718Zm5.419,0h-4.06a21.483,21.483,0,0,1-.247,2.718h3.594A8.092,8.092,0,0,0,186.448,179ZM174.5,174.926h-3.594a8.089,8.089,0,0,0-.713,2.718h4.06A21.507,21.507,0,0,1,174.5,174.926Zm6.271,0a20.364,20.364,0,0,1,.258,2.718h-5.416a20.39,20.39,0,0,1,.257-2.718Zm4.964,0h-3.594a21.478,21.478,0,0,1,.247,2.718h4.06a8.1,8.1,0,0,0-.713-2.718Zm-9.826-4.394a8.18,8.18,0,0,0-4.211,3.035h3.067A11.02,11.02,0,0,1,175.909,170.532Zm4.576,3.035h-4.329a9.784,9.784,0,0,1,.76-2.056,3.627,3.627,0,0,1,.776-1.057.836.836,0,0,1,1.257,0,3.622,3.622,0,0,1,.776,1.057,9.783,9.783,0,0,1,.76,2.056Zm.247-3.035a11.021,11.021,0,0,1,1.144,3.035h3.067A8.181,8.181,0,0,0,180.732,170.532Z" transform="translate(-168.806 -168.81)" fill="#00337f" fill-rule="evenodd"/></svg>