<svg xmlns="http://www.w3.org/2000/svg" width="871.649" height="869.272" viewBox="0 0 871.649 869.272">
  <g id="Group_26064" data-name="Group 26064" transform="translate(-10149.507 -8599.37)">
    <path id="Path_80457" data-name="Path 80457" d="M1965.67,1599.928q0,93.148.1,186.3c.012,4.639-1.353,5.874-5.891,5.871q-186.3-.159-372.592.009c-4.567,0-5.885-1.292-5.88-5.873q.17-186.3.006-372.592c0-4.5,1.175-6.07,5.857-5.988,13.4.237,26.818-.057,40.229-.059q162.87-.02,325.743-.006c12.43,0,12.432.007,12.432,12.66Q1965.691,1510.092,1965.67,1599.928Zm-208.6-12.261c3.589,0,5.792.006,8,0,6.537-.019,7.253-1.05,4.723-6.908a27.887,27.887,0,0,0-1.813-3.391c-10.639-17.5-26.208-24.7-46.447-22.454-21.812,2.417-39.082,21.431-39.166,43.344-.1,25.043,16.908,43.89,42.064,46.619,18.674,2.027,39.2-10.258,45.523-27.242,1.782-4.786,1.066-6-3.977-6.158-4.218-.137-8.46.189-12.663-.1-4.061-.281-6.677,1.152-9.271,4.4-7.437,9.3-19.908,10.906-28.9,3.63-8.378-6.775-10.59-16.151-8.4-26.325,1.76-8.182,6.622-14.3,15.022-16.717,7.352-2.112,14.978-1.615,19.74,4.542C1746.207,1587,1751.448,1588.8,1757.07,1587.667Zm92.525,0H1856c8.783,0,9.634-1.419,5.313-9.391-10.526-19.416-30.719-27.153-50.884-22.846a44.618,44.618,0,0,0-35.415,43.458,45.144,45.144,0,0,0,34.237,44.487c21.932,5.664,45.3-5.5,53.329-25.482,1.994-4.96,1.18-6.288-4.17-6.44-4.224-.119-8.462.113-12.678-.116a9.155,9.155,0,0,0-8.826,4.292,18.2,18.2,0,0,1-14.987,7.982c-15.028.5-26.206-13.726-22.837-29.335,1.856-8.6,6.491-15.315,15.236-17.962,7.5-2.27,15.461-1.491,20.212,4.819C1839.174,1587.3,1844.355,1588.536,1849.595,1587.667Zm-177.425,55.138c2.2,0,4.407.01,6.609,0,6.885-.04,7.089-.3,4.5-6.852-8.955-22.674-17.85-45.372-26.963-67.981-5.919-14.685-1.792-11.353-17.825-12-3.986-.16-5.978,1.287-7.373,4.885-4.965,12.82-10.145,25.557-15.27,38.314-4.987,12.414-10.1,24.78-14.975,37.235-2.267,5.788-1.778,6.332,4.249,6.393,3.855.038,7.747-.324,11.558.091,5.2.567,8.328-1.107,9.36-6.448.855-4.423,3.466-6.256,8.224-5.879a141.321,141.321,0,0,0,17.063.038c3.8-.16,6.066,1.357,6.657,4.972.99,6.063,4.461,8.243,10.337,7.265A23.614,23.614,0,0,1,1672.17,1642.805Zm263.091,0q2.48,0,4.958,0c8.41-.016,8.606-.237,5.42-8.3q-13.031-32.983-26.178-65.921c-5.168-12.956-5.206-12.834-19.144-12.625-3.306.05-5.007,1.281-6.129,4.242-2.271,6-4.782,11.908-7.17,17.865-7.906,19.731-15.75,39.487-23.736,59.186-1.66,4.095-.8,5.8,3.768,5.592a74.98,74.98,0,0,1,12.652.068c5.536.695,8.277-1.694,9.182-6.78.746-4.2,3.129-5.7,7.321-5.52,5.864.255,11.759.294,17.617-.018,4.055-.216,6.273,1.319,7.017,5.181,1.074,5.587,4.152,8.21,10.022,7.075A24.639,24.639,0,0,1,1935.26,1642.805Z" transform="translate(8811.783 7434.111)" fill="#e73b2b"/>
    <path id="Path_80458" data-name="Path 80458" d="M2048.025,1519.831v8.555c0,19.108-.141,38.22.1,57.325.059,4.685-1.5,5.885-5.988,5.867q-56.5-.223-113,0c-4.354.015-6.105-.958-6.044-5.777.265-20.392.172-40.79.056-61.185-.021-3.593.718-5.236,4.841-5.219,38.769.144,77.538.088,116.308.1C2045.214,1519.492,2046.112,1519.654,2048.025,1519.831Z" transform="translate(8973.03 7486.875)" fill="#e73b2b"/>
    <path id="Path_80459" data-name="Path 80459" d="M1415.967,1519.66h124.666c.1,1.678.284,3.419.285,5.159.021,20.214-.1,40.428.1,60.639.043,4.385-.939,6.039-5.745,6.014q-56.5-.3-113.009-.024c-4.626.019-6.47-.979-6.409-6.057C1416.114,1563.729,1415.967,1542.048,1415.967,1519.66Z" transform="translate(8733.655 7487.001)" fill="#e73b2b"/>
    <path id="Path_80460" data-name="Path 80460" d="M1868.225,1800.781c-1.167-8.057-2.352-16.113-3.5-24.173-1.778-12.5-3.633-24.995-5.156-37.528a5.794,5.794,0,0,1,2.483-4.544c7.607-4.4,15.417-8.45,24.12-13.137,14.816,28.027,29.489,55.784,44.473,84.13l-17.523,9.5L1879.565,1752l-1.707.462c.84,5.925,1.6,11.862,2.539,17.771,2.729,17.157,5.352,34.334,8.392,51.438,1.172,6.587-3.515,7.786-7.53,10.188-3.653,2.185-6.217,2.2-9.537-1.074-15.683-15.455-31.661-30.611-47.549-45.86-1.1-1.054-2.314-1.986-3.475-2.975l-1.091.821,33.374,63.669c-5.206,2.81-10.208,5.73-15.454,8.11-.842.381-3.412-1.312-4.115-2.62-9.713-18.091-19.235-36.286-28.811-54.451-4.429-8.4-8.878-16.79-13.649-25.81,8.734-4.586,17.04-9.154,25.591-13.2,1.228-.581,4.034.9,5.438,2.164,13.487,12.168,26.824,24.5,40.222,36.771,1.544,1.413,3.191,2.711,4.791,4.064C1867.416,1801.252,1867.813,1801.017,1868.225,1800.781Z" transform="translate(8910.671 7582.206)" fill="#e73b2b"/>
    <path id="Path_80461" data-name="Path 80461" d="M1938.726,1687.265q8.555,14.366,17.111,28.733c6.389,10.714,12.645,21.512,19.264,32.082,2.159,3.449,1.724,5.771-.776,8.7-6.421,7.523-6.307,7.6-15.591,3.855q-28.047-11.322-56.114-22.6a9.118,9.118,0,0,0-5.983-.478c8.984,7.707,17.934,15.455,26.965,23.108,8.935,7.57,17.95,15.042,27.576,23.1l-12.834,15.432-72.654-61.37c5.982-7.159,11.808-13.967,17.429-20.939,2.429-3.013,4.843-2.147,7.766-1.021,17.089,6.588,34.228,13.047,51.361,19.522,1.5.568,3.078.951,6.01,1.842-1.188-2.591-1.757-4.16-2.58-5.583-9.369-16.191-18.69-32.41-28.249-48.49-1.833-3.082-1.646-5.066.724-7.686,5.752-6.362,11.2-13,17.1-19.911l72.523,61.407-12.966,15.14-54.8-46.1C1939.579,1686.426,1939.152,1686.853,1938.726,1687.265Z" transform="translate(8945.942 7551.135)" fill="#e73b2b"/>
    <path id="Path_80462" data-name="Path 80462" d="M1564.2,1808.318c-27.366-.01-53.863-25.776-53.872-52.387-.01-26.484,23.548-51.031,49.8-51.125,27.712-.1,54.453,25.873,54.21,52.578C1614.1,1783.737,1590.078,1808.333,1564.2,1808.318Zm-2.8-20.165c16.823-.054,32.847-16.262,32.663-33.039-.172-15.769-15.342-30.639-31.106-30.5-16.353.15-32.155,16.323-32.285,33.043C1530.554,1773.61,1545.259,1788.211,1561.406,1788.153Z" transform="translate(8778.241 7574.375)" fill="#e73b2b"/>
    <path id="Path_80463" data-name="Path 80463" d="M1762.482,1244.79c16.493,5.177,33.149,9.116,48.731,15.623,19.6,8.185,28.723,26.8,25.47,46.95-3.584,22.191-17.553,36.256-38.666,40.144-13.013,2.4-25.056-1.264-37.336-4.046-5.531-1.253-11.033-2.632-16.544-3.973-2.763-.673-5.255-1.18-4.221-5.321,7.087-28.4,13.992-56.853,20.975-85.283C1761.1,1248.013,1761.54,1247.189,1762.482,1244.79Zm24.257,85.312c16.671.484,25.747-10.749,28.487-22.325,3.44-14.534-1.709-25.929-15.613-32.459-6.053-2.842-12.816-4.183-19.279-6.129-3.266-.983-4.161,1.322-4.753,3.767-3.875,16.007-7.646,32.039-11.648,48.014-.689,2.747-.255,4.241,2.51,4.832C1773.2,1327.261,1779.968,1328.675,1786.739,1330.1Z" transform="translate(8886.473 7357.286)" fill="#e73b2b"/>
    <path id="Path_80464" data-name="Path 80464" d="M1919.65,1445.714c10.708-3.862,20.99-7.644,31.321-11.281,17.972-6.326,35.983-12.548,53.962-18.854,2.3-.805,4.532-2.115,5.664,1.479,4.336,13.78,10,27.294,12.776,41.379,4.7,23.867-2.676,42.031-24.983,52.215-22.048,10.066-43.944,4.13-58.125-14.947-8.412-11.318-11.506-24.842-16.352-37.649C1922.432,1454.133,1921.181,1450.144,1919.65,1445.714Zm24.3,12.776c2.911,10.094,5.925,19.447,12.467,27.182,7.305,8.636,16.625,10.925,27.283,8.028,10.564-2.872,18.819-8.612,21.128-20.031,2.114-10.448-.784-20.3-4.535-30.023-1.384-3.586-2.935-4.433-6.506-3.037-6.478,2.536-13.121,4.647-19.675,6.993C1964.176,1451.174,1954.225,1454.781,1943.951,1458.49Z" transform="translate(8971.406 7437.454)" fill="#e73b2b"/>
    <path id="Path_80465" data-name="Path 80465" d="M1675.2,1806.15c-6.091,14.966-11.84,29.215-17.757,43.391a4.463,4.463,0,0,1-3.191,2.361c-23.47.4-45.158-4.747-60.877-23.576-16.062-19.238-12.23-45.6,3.191-63.64,16.159-18.9,39.057-21.865,63.485-9.566,8.821,4.441,16.528,10.23,22.217,18.446,1.747,2.524,2.131,4.41-1.49,5.866-4.9,1.969-9.584,4.469-12.9,6.048-6.649-5.378-11.874-11.231-18.386-14.584-23.445-12.073-43.611,5.409-45.089,27.727-1.105,16.691,10.449,29.569,27.626,32.061,12.056,1.75,14.62.034,17.14-11.962.244-1.163-.894-2.675-1.557-3.936-.2-.378-.972-.443-1.468-.68-3.59-1.718-10.128-3.352-10.184-5.183-.14-4.559,2.511-9.276,4.425-13.767.415-.973,2.766-2.089,3.675-1.734C1654.274,1797.407,1664.371,1801.675,1675.2,1806.15Z" transform="translate(8812.546 7594.632)" fill="#e73b2b"/>
    <path id="Path_80466" data-name="Path 80466" d="M1714.892,1824.511c6.264,13.86,12.419,27.473,18.958,41.939-7.975-.857-15.162-1.4-22.239-2.593-1.343-.227-2.592-2.908-3.3-4.69-4.192-10.551-8.446-21.09-12.2-31.8-1.959-5.593-6.307-5.135-10.315-4.747-4.145.4-3.385,4.286-3.711,7.246-.959,8.723-1.877,17.456-3.16,26.133-.21,1.425-2.249,3.731-3.35,3.68-5.575-.265-11.12-1.173-16.865-1.88,2.9-24.565,5.733-48.333,8.493-72.111.612-5.271.889-10.58,1.454-15.858.678-6.341,1.494-6.585,7.668-5.716,10.87,1.531,21.824,2.467,32.708,3.917,8.845,1.179,17.2,3.719,23.579,10.541,10.645,11.382,7.473,40.122-12.965,44.177A36.036,36.036,0,0,0,1714.892,1824.511Zm-29.88-19.385c7.14.877,12.912,1.744,18.712,2.261,7.993.711,12.906-2.917,13.858-9.9.857-6.282-2.782-10.853-10.334-12.436a105.391,105.391,0,0,0-14.581-2.128c-1.649-.109-4.69,1.27-4.913,2.4C1686.5,1791.672,1685.909,1798.164,1685.012,1805.126Z" transform="translate(8848.266 7602.192)" fill="#e73b2b"/>
    <path id="Path_80467" data-name="Path 80467" d="M1497.731,1763.925c-4.473-6.782-8.472-12.439-11.927-18.412-.723-1.25.135-3.887.994-5.5,4.834-9.054,9.913-17.975,14.863-26.967,4.484-8.144,4.457-8.159-2.822-16.16l-31.574,20.524c-3.594-5.408-7.092-10.668-11.051-16.624l79.245-52.159c2.164,3.057,4.245,5.757,6.067,8.62,6.491,10.2,13.615,20.083,19.175,30.773,10.069,19.363-1.206,39.7-23.037,41.679-4.672.424-9.7-2.473-14.47-4.126-1.641-.57-2.981-2.009-5.186-3.566C1511.3,1735.9,1504.752,1749.427,1497.731,1763.925Zm35.149-89.6c-6.278,4.176-11.8,7.72-17.12,11.537-.72.517-1.058,2.775-.552,3.6a144.769,144.769,0,0,0,10.074,15.022c4.214,5.228,10.134,5.923,15.152,2.586,4.807-3.2,6.372-8.456,3.325-14.54C1540.755,1686.531,1536.884,1680.953,1532.88,1674.329Z" transform="translate(8752.703 7547.865)" fill="#e73b2b"/>
    <path id="Path_80468" data-name="Path 80468" d="M1656.114,1308.67l36.431,28.922c-7.752,3-14.559,5.724-21.469,8.16-.748.263-2.217-1.016-3.137-1.824q-12.814-11.26-25.542-22.621c-4.313-3.846-8.845-4.245-13.022-.521-.921.821-1.154,3.3-.679,4.659,2.541,7.264,5.436,14.4,8.144,21.608,1.214,3.231,2.277,6.521,3.6,10.347l-18.375,7.09c-11.317-29.687-22.5-59.009-34.025-89.256,18.265-4.917,34-15.957,53.065-16.518,12.319-.362,20.445,5.727,24.9,17.672,4.578,12.26,2.424,21.428-7.006,29.809C1658.337,1306.8,1657.645,1307.36,1656.114,1308.67Zm-34.885-3c6.981-2.844,13.369-5.047,19.385-8.006,6.233-3.064,8.075-8.293,5.815-14.085-2.167-5.555-7.5-8.243-13.98-6.434a126.1,126.1,0,0,0-15.966,5.711c-1.205.52-2.555,3.269-2.176,4.463C1616.181,1293.2,1618.61,1298.9,1621.229,1305.668Z" transform="translate(8814.916 7363.851)" fill="#e73b2b"/>
    <path id="Path_80469" data-name="Path 80469" d="M1735.644,1261.142c-9.782.72-19.072,1.426-28.365,2.074-3.475.243-6.961.334-10.442.515-3.961.206-5.484,2.184-4.569,6.113a23.677,23.677,0,0,1,.577,4.875c.162,8.2.146,8.413,8.132,8.012,9.322-.468,18.63-1.285,27.93-2.1,3.825-.337,5.824.19,6.393,4.927,2.018,16.8-.259,13.755-11.867,14.132-9.475.308-18.926,1.291-28.165,1.959,0,6.057-.091,11.484.035,16.908.071,3,1.869,3.983,4.816,3.748,12.778-1.023,25.576-1.8,38.342-2.941,3.072-.275,4.024.751,4.061,3.491.031,2.2.046,4.413.252,6.6.813,8.643.824,8.355-8.076,8.814-17.011.877-34.028,1.85-50.993,3.345-5.942.524-7.317-2.1-7.592-6.974-.715-12.626-1.529-25.246-2.274-37.87-.958-16.247-1.888-32.5-2.863-49.274a32.474,32.474,0,0,1,5.044-1.111c17.357-1.142,34.733-2.046,52.075-3.371,5.085-.389,7.62,1.06,7.554,6.3C1735.6,1252.958,1735.644,1256.594,1735.644,1261.142Z" transform="translate(8854.052 7356.418)" fill="#e73b2b"/>
    <path id="Path_80470" data-name="Path 80470" d="M1991.7,1626.532c-4.456,10.86-8.636,21.162-12.91,31.424-2.894,6.947-2.913,7.021,4.035,9.893,12.605,5.212,12.53,5.181,17.617-7.585,3.986-10,8.188-19.921,12.492-30.358l16.962,6.859c-8.013,19.613-15.859,38.75-23.629,57.917-.988,2.436-2.161,3.635-4.937,2.495q-41.157-16.921-82.339-33.779a12.132,12.132,0,0,1-2.106-1.6l23.979-58.818,16.862,7.024c-3.453,8.619-6.752,16.884-10.078,25.139-1.164,2.889-2.376,5.76-3.6,8.624-3.035,7.092-3.044,7.089,3.832,9.891,11.009,4.488,11.033,4.5,15.555-6.468,3.213-7.794,6.45-15.58,9.47-23.449,1.147-2.987,2.5-4.115,5.685-2.633C1982.688,1623.015,1986.957,1624.59,1991.7,1626.532Z" transform="translate(8970.1 7526.32)" fill="#e73b2b"/>
    <path id="Path_80471" data-name="Path 80471" d="M1909.379,1405.7c9.59,12.527,18.707,24.437,28.245,36.9l-14.59,11.272-40.507-52.851c10.468-8.072,20.6-15.907,30.76-23.713,13.393-10.29,26.885-20.452,40.149-30.9,3.309-2.607,5.183-2.82,7.894.8,10.888,14.545,22.017,28.91,33.175,43.249,1.846,2.371,2.121,4-.474,5.894-3.808,2.779-7.477,5.748-11.471,8.84-8.044-10.426-15.839-20.137-23.152-30.2-2.917-4.014-5.193-4.322-8.722-1.082-2.945,2.7-6.259,5.007-10.075,8.013,8.352,10.991,16.518,21.737,24.993,32.889-4.235,3.415-8.044,6.794-12.236,9.6-.838.561-3.729-.578-4.665-1.744q-10.178-12.66-19.864-25.713c-2.324-3.143-4.271-3.3-7.145-.883C1917.931,1399.241,1913.942,1402.156,1909.379,1405.7Z" transform="translate(8953.887 7404.325)" fill="#e73b2b"/>
    <path id="Path_80472" data-name="Path 80472" d="M1827.382,1849.718c-6.479,1.079-11.769,1.666-16.9,2.907-4.132,1-6.233-.467-8.277-3.927-8.366-14.176-8.469-14.142-24.241-11.565-6.139,1-12.308,1.931-18.349,3.375a6.873,6.873,0,0,0-4.129,3.927,63.845,63.845,0,0,0-3.138,13.337c-.381,3.474-1.915,4.773-5.031,5.253-5.412.835-10.8,1.824-17.192,2.919.417-2.594.6-4.659,1.091-6.646,7.314-29.5,14.74-58.974,21.93-88.5.946-3.887,2.445-6.12,6.643-6.37,2.714-.162,5.442-1.487,8.073-1.259a8.416,8.416,0,0,1,5.668,3.124c15.014,22.841,29.821,45.819,44.651,68.78C1821.126,1839.635,1823.982,1844.287,1827.382,1849.718Zm-59.51-57.743-1.862.314c-2.073,9.95-4.145,19.9-6.432,30.889l24.625-4.1C1778.338,1809.344,1773.112,1800.659,1767.872,1791.975Z" transform="translate(8881.966 7601.904)" fill="#e73b2b"/>
    <path id="Path_80473" data-name="Path 80473" d="M1539.258,1432.077c-2.168,6.606-4,12.675-6.242,18.59-.427,1.126-2.4,2.17-3.778,2.339-4.9.6-9.891.529-14.749,1.325-1.85.3-4.4,1.925-4.969,3.535q-5.151,14.477-9.344,29.284a7.3,7.3,0,0,0,1.733,5.935,89.183,89.183,0,0,0,10.165,8.369c2.685,2.037,3.475,4.4,2.33,7.61-1.834,5.14-3.494,10.342-5.549,16.475-3.852-3.384-7.2-6.325-10.546-9.264-20.945-18.387-41.823-36.855-62.908-55.082-3.472-3-4.578-5.8-2.629-9.9a27.68,27.68,0,0,0,1.822-5.178c.966-3.9,3.051-5.3,7.338-5.632,17.316-1.328,34.58-3.307,51.87-4.975q19.948-1.925,39.916-3.658A46.04,46.04,0,0,1,1539.258,1432.077Zm-78.571,25.626-.512,1.729c7.912,6.468,15.822,12.935,24.566,20.083,2.694-8.561,4.944-15.711,7.508-23.864C1480.823,1456.393,1470.755,1457.041,1460.687,1457.7Z" transform="translate(8741.188 7445.542)" fill="#e73b2b"/>
    <path id="Path_80474" data-name="Path 80474" d="M1436.137,1649.933l-6.572-18.821,89.5-31.465c1.3,3.455,2.5,6.45,3.556,9.494,3.427,9.841,7.411,19.547,9.975,29.611a48.163,48.163,0,0,1,1.08,19.447c-1.866,10.92-13.749,19.3-26.012,19.959-12.92.7-21.59-4.659-27.46-17.6-2.713-5.983-4.763-12.277-6.915-18.5-1.123-3.25-2.56-4.21-6.074-2.85-8.014,3.1-16.213,5.724-24.344,8.525C1440.833,1648.431,1438.787,1649.079,1436.137,1649.933Zm68.694,7.065c7.917-.084,12.844-5.863,11.244-13.664a98.278,98.278,0,0,0-4.927-15.68c-.459-1.182-3.082-2.567-4.267-2.243a110.467,110.467,0,0,0-15.526,5.464c-1.31.58-2.76,3.4-2.406,4.723a81.669,81.669,0,0,0,5.1,13.9C1496.177,1653.966,1499.371,1657.513,1504.832,1657Z" transform="translate(8740.126 7524.749)" fill="#e73b2b"/>
    <path id="Path_80475" data-name="Path 80475" d="M1578.889,1292.477c-1.235,5.293-2.279,10.654-3.858,15.851-.355,1.167-2.529,2.407-3.957,2.527-20.518,1.73-32.066,20.909-23.9,39.91,7.117,16.554,23.309,25.1,38.55,20.337,9.467-2.957,15.186-10.465,17.969-23.867h19.475c1.953,14.413-9.436,31.047-27.171,39.466-21.21,10.069-40.757,5.914-55.955-9.573-16.942-17.264-20.418-39.584-10.04-58.576C1538.426,1303.118,1557.929,1287.56,1578.889,1292.477Z" transform="translate(8784.764 7379.354)" fill="#e73b2b"/>
    <path id="Path_80476" data-name="Path 80476" d="M1469.744,1394.988c-.054-22.03,14.956-43.011,34.474-48.684,4.444-1.291,6.185-.35,6.172,4.25a44.192,44.192,0,0,0,.7,6.546c.774,5.237-.522,8-6.356,10.2-16.232,6.111-20.711,28.086-9.111,42.719,8.182,10.321,19.052,15.277,32.4,13.8,13.072-1.441,23.08-14.61,21.659-27.872-.2-1.827.927-4.971,2.289-5.568a66.979,66.979,0,0,1,13.63-4.039c1.111-.224,3.8,1.626,3.793,2.515-.027,6.478.659,13.315-1.142,19.366-6.557,22.038-27.507,36.58-50.186,36.1C1496.209,1443.871,1468.434,1421.659,1469.744,1394.988Z" transform="translate(8759.066 7404.942)" fill="#e73b2b"/>
    <path id="Path_80477" data-name="Path 80477" d="M1873.324,1303.925c3.546-4.6,6.854-8.9,10.635-13.8l59.362,45.388c-3.515,4.675-6.841,9.1-10.521,14-5.709-4.329-11.275-8.156-16.368-12.535-3.887-3.343-6.175-3.484-9.517,1.007-13.137,17.65-26.779,34.923-40.043,52.48-2.467,3.266-4.158,3.8-7.3.861-3.441-3.22-7.441-5.846-11.649-9.079,7.875-10.334,15.493-20.364,23.147-30.367,6.575-8.592,12.969-17.338,19.878-25.652,3.686-4.437,2.841-6.977-1.576-9.987C1883.966,1312.55,1878.947,1308.281,1873.324,1303.925Z" transform="translate(8937.557 7378.68)" fill="#e73b2b"/>
    <path id="Path_80478" data-name="Path 80478" d="M1852.488,1272.51c5.4,2.677,10.112,5.077,14.881,7.357,3.477,1.662,1.656,4.049.721,5.986-4.856,10.052-9.88,20.024-14.846,30.023q-11.58,23.317-23.169,46.63c-.558,1.12-1.27,2.162-2.22,3.759-5.066-2.4-10-4.684-14.874-7.073-3.614-1.771-1.687-4.192-.574-6.429q14.309-28.767,28.649-57.515C1844.79,1287.789,1848.543,1280.355,1852.488,1272.51Z" transform="translate(8920.079 7370.367)" fill="#e73b2b"/>
    <path id="Path_80492" data-name="Path 80492" d="M1617.76,1553.238c2.527-8.493,4.728-15.894,6.93-23.293l1.11.021c2.205,7.541,4.41,15.081,6.806,23.272Z" transform="translate(8828.938 7491.855)" fill="#e73b2b"/>
    <path id="Path_80493" data-name="Path 80493" d="M1804.275,1529.93c2.211,7.479,4.423,14.956,6.85,23.164h-14.788c2.332-7.935,4.564-15.533,6.8-23.131C1803.51,1529.959,1803.892,1529.945,1804.275,1529.93Z" transform="translate(8913.212 7491.848)" fill="#e73b2b"/>
  </g>
</svg>
