<svg xmlns="http://www.w3.org/2000/svg" width="38.246" height="38.246" viewBox="0 0 38.246 38.246">
  <g id="Group_26638" data-name="Group 26638" transform="translate(-54.756 0.002)">
    <g id="Group_26669" data-name="Group 26669" transform="translate(54.756 -0.002)">
      <path id="Path_81869" data-name="Path 81869" d="M16.733,9.96V3.227c-.134-.011-.261-.04-.4-.04H2.789A2.792,2.792,0,0,0,0,5.976V17.928a1.2,1.2,0,0,0,1.857,1l4-2.657a1.951,1.951,0,0,1,1.093-.331h9.386a4.361,4.361,0,0,0,3.2-1.4A5.165,5.165,0,0,1,16.733,9.96Zm20.318,5.976a1.19,1.19,0,0,1-.663-.2L32.41,13.083a1.974,1.974,0,0,0-1.1-.335H21.912A2.792,2.792,0,0,1,19.123,9.96V2.789A2.792,2.792,0,0,1,21.912,0H35.457a2.792,2.792,0,0,1,2.789,2.789V14.741A1.2,1.2,0,0,1,37.051,15.936Z" transform="translate(0)" fill="#006ce5"/>
      <circle id="Ellipse_884" data-name="Ellipse 884" cx="4.781" cy="4.781" r="4.781" transform="translate(3.984 19.123)" fill="#006ce5"/>
      <circle id="Ellipse_885" data-name="Ellipse 885" cx="4.781" cy="4.781" r="4.781" transform="translate(24.701 19.123)" fill="#006ce5"/>
      <path id="Path_81870" data-name="Path 81870" d="M13.147,19H4.382A4.386,4.386,0,0,0,0,23.382v2.39a1.2,1.2,0,0,0,1.2,1.2H16.334a1.2,1.2,0,0,0,1.2-1.2v-2.39A4.386,4.386,0,0,0,13.147,19Zm20.717,0H25.1a4.386,4.386,0,0,0-4.382,4.382v2.39a1.2,1.2,0,0,0,1.2,1.2H37.051a1.2,1.2,0,0,0,1.2-1.2v-2.39A4.386,4.386,0,0,0,33.864,19Z" transform="translate(0 11.278)" fill="#006ce5"/>
    </g>
  </g>
</svg>
