<svg id="Group_23838" data-name="Group 23838" xmlns="http://www.w3.org/2000/svg" width="51.809" height="37.993" viewBox="0 0 51.809 37.993">
  <path id="Path_78167" data-name="Path 78167" d="M81.36,119.279h5.811a2.33,2.33,0,0,0,2.327-2.328V103.889a2.329,2.329,0,0,0-2.327-2.328H81.36a2.331,2.331,0,0,0-2.328,2.328v13.064a2.33,2.33,0,0,0,2.328,2.326Zm47.154-37.993H122.7a2.329,2.329,0,0,0-2.327,2.327v33.34a2.329,2.329,0,0,0,2.327,2.326h5.81a2.33,2.33,0,0,0,2.328-2.326V83.612a2.329,2.329,0,0,0-2.328-2.326Zm-19.591,37.993h5.81a2.329,2.329,0,0,0,2.327-2.328V99.617a2.33,2.33,0,0,0-2.327-2.327h-5.811a2.329,2.329,0,0,0-2.327,2.327v17.336a2.329,2.329,0,0,0,2.327,2.326Zm-13.782,0h5.814a2.329,2.329,0,0,0,2.327-2.328V90.839a2.329,2.329,0,0,0-2.327-2.327H95.141a2.33,2.33,0,0,0-2.327,2.327v26.114a2.329,2.329,0,0,0,2.327,2.327Z" transform="translate(-79.032 -81.286)" fill="#006ce5" fill-rule="evenodd"/>
</svg>
