<svg xmlns="http://www.w3.org/2000/svg" width="40.395" height="40.395" viewBox="0 0 40.395 40.395">
  <g id="Group_26638" data-name="Group 26638" transform="translate(-46 2.152)">
    <g id="Group_26671" data-name="Group 26671" transform="translate(44 -4.152)">
      <path id="Path_81873" data-name="Path 81873" d="M12.772,2A10.771,10.771,0,0,0,2,12.772V31.623A10.771,10.771,0,0,0,12.772,42.395H31.623A10.771,10.771,0,0,0,42.395,31.623V12.772A10.771,10.771,0,0,0,31.623,2ZM19.5,22.2a1.347,1.347,0,0,1-.446,1l-6.732,6.059a1.347,1.347,0,0,1-1.8-2l5.62-5.058-5.62-5.058a1.347,1.347,0,0,1,1.8-2L19.059,21.2A1.346,1.346,0,0,1,19.5,22.2ZM32.969,29.6a1.346,1.346,0,0,0,0-2.693H22.2a1.346,1.346,0,1,0,0,2.693Z" fill="#006ce5" fill-rule="evenodd"/>
    </g>
  </g>
</svg>
