<svg xmlns="http://www.w3.org/2000/svg" width="104.887" height="104.888" viewBox="0 0 104.887 104.888">
  <g id="Group_26677" data-name="Group 26677" transform="translate(-4.986 -4.985)">
    <path id="Pencil_Ruler" data-name="Pencil Ruler" d="M108.263,81.176l-7.09-7.09-10.9-10.9v0h0l-8.46-8.46,22.927-22.929a10.336,10.336,0,0,0,3.032-7.542,10.887,10.887,0,0,0-3.223-7.561L96.229,8.372a10.7,10.7,0,0,0-15.1-.19L58.2,31.109,51.677,24.59v0h0l-17.994-18a5.513,5.513,0,0,0-7.781,0L6.6,25.9a5.508,5.508,0,0,0,0,7.783L31.113,58.2,15.471,73.84a1.951,1.951,0,0,0-.524.967l-5.688,26.55a1.941,1.941,0,0,0,1.9,2.347,1.854,1.854,0,0,0,.408-.043l26.55-5.688a1.928,1.928,0,0,0,.965-.524L54.721,81.809l26.456,26.458a5.513,5.513,0,0,0,7.781,0l19.3-19.306a5.508,5.508,0,0,0,0-7.783ZM73.418,21.381,77.2,17.6l18.12,18.116L91.538,39.5Zm4.943,10.431L30.676,79.5,20.36,74.439,70.673,24.126ZM29.616,83.3l5.556,11.332-7.385,1.582A25.517,25.517,0,0,0,16.706,85.13l1.58-7.385Zm3.8-1.058L81.106,34.557l7.688,7.688L38.48,92.558ZM83.87,10.929a6.469,6.469,0,0,1,4.737-1.9,7.028,7.028,0,0,1,4.877,2.089l8.313,8.313a7.03,7.03,0,0,1,2.089,4.875,6.494,6.494,0,0,1-1.9,4.737l-3.921,3.921L79.951,14.849ZM9.343,30.938a1.623,1.623,0,0,1,0-2.293l19.3-19.3a1.623,1.623,0,0,1,2.293,0l5.719,5.719-7.049,7.047a1.942,1.942,0,0,0,2.745,2.747L39.4,17.805l8.157,8.157-7.047,7.051a1.941,1.941,0,1,0,2.745,2.745L50.3,28.708l5.148,5.15L33.86,55.453Zm6.519,58.143a21.811,21.811,0,0,1,7.979,7.979L13.687,99.234Zm89.658-2.867-19.3,19.3a1.623,1.623,0,0,1-2.293,0L57.466,79.064l21.6-21.6,7.088,7.088L79.1,71.607a1.941,1.941,0,1,0,2.745,2.745L88.894,67.3l8.161,8.159L90,82.51a1.941,1.941,0,1,0,2.745,2.745L99.8,78.208l5.717,5.715a1.623,1.623,0,0,1,0,2.293Z" transform="translate(0 0)" fill="#006ce5"/>
  </g>
</svg>
