<svg xmlns="http://www.w3.org/2000/svg" width="48.599" height="48.612" viewBox="0 0 48.599 48.612">
  <g id="Group_11672" data-name="Group 11672" transform="translate(-2123.3 -2200.9)">
    <g id="Group_11671" data-name="Group 11671" transform="translate(2123.3 2200.9)">
      <path id="Path_66019" data-name="Path 66019" d="M2123.3,2213.3v-12.4h48.6v48.6h-2.455c.076-.025.139-.063.215-.089a2.827,2.827,0,0,0,1.3-4.771c-2.531-2.569-5.087-5.1-7.631-7.631a1.325,1.325,0,0,0-.2-.14,12.673,12.673,0,0,1-3.974,3.974c.151.165.266.292.392.405,2.3,2.3,4.606,4.594,6.9,6.9a4.435,4.435,0,0,0,2.063,1.354h-11.935c.1-.038.2-.063.316-.1a4.252,4.252,0,0,0,3.24-3.063.613.613,0,0,0-.189-.709c-1.076-1.05-2.139-2.1-3.177-3.176a.749.749,0,0,0-.823-.228,12.182,12.182,0,0,1-10.821-2.151,1.328,1.328,0,0,0-.683-.228c-.95-.025-1.9-.013-2.848-.013H2130.6a1.512,1.512,0,0,1-1.405-.708,1.41,1.41,0,0,1,1.316-2.126h11.226c.165,0,.329-.013.468-.025-.367-.8-.759-1.557-1.063-2.354a.628.628,0,0,0-.708-.481c-3.291.013-6.568,0-9.859.013a1.468,1.468,0,0,1-1.442-.8,1.411,1.411,0,0,1,1.379-2.038h9.884v-2.848h-9.771a1.458,1.458,0,0,1-1.658-1.658v-7.1a1.455,1.455,0,0,1,1.645-1.658H2152.6a12.182,12.182,0,0,1,7.265,2.329c.1.075.228.139.38.227v-15.124a4.271,4.271,0,0,0-4.493-4.493H2135.6v10.606c0,1.164-.531,1.7-1.708,1.7Q2128.6,2213.31,2123.3,2213.3Zm19.9,17.06a9.473,9.473,0,1,0,9.492-9.479A9.482,9.482,0,0,0,2143.2,2230.363Zm1.443-9.441h-12.782v4.67a1.2,1.2,0,0,0,.2.025q4.48,0,8.96-.012a.645.645,0,0,0,.431-.3c.417-.684.747-1.431,1.228-2.076C2143.259,2222.416,2143.98,2221.681,2144.638,2220.922Zm-11.909-10.479v-8.391l-8.391,8.391Z" transform="translate(-2123.3 -2200.9)" fill="none"/>
      <path id="Path_66020" data-name="Path 66020" d="M2123.3,2214h10.606c1.177,0,1.708-.531,1.708-1.7V2201.7h20.149a4.264,4.264,0,0,1,4.493,4.493v15.124c-.152-.089-.266-.151-.38-.228a12.183,12.183,0,0,0-7.264-2.329h-21.984a1.455,1.455,0,0,0-1.645,1.658v7.1a1.469,1.469,0,0,0,1.658,1.658h9.77v2.847h-9.884a1.419,1.419,0,0,0-1.379,2.038,1.439,1.439,0,0,0,1.443.8c3.29-.013,6.568,0,9.859-.013a.628.628,0,0,1,.708.48c.3.785.7,1.544,1.063,2.354-.139.013-.3.025-.469.025h-11.226a1.411,1.411,0,0,0-1.316,2.126,1.454,1.454,0,0,0,1.4.708c3.658-.012,7.328,0,10.986,0,.949,0,1.9-.012,2.848.013a1.229,1.229,0,0,1,.684.228,12.179,12.179,0,0,0,10.82,2.152.73.73,0,0,1,.823.228c1.05,1.076,2.113,2.139,3.176,3.177a.612.612,0,0,1,.19.708,4.25,4.25,0,0,1-3.24,3.063,3.292,3.292,0,0,0-.316.1h-29.565a2.283,2.283,0,0,0-.316-.088,4.215,4.215,0,0,1-3.176-2.873c-.089-.24-.14-.481-.2-.721Q2123.288,2230.239,2123.3,2214Zm23.211,1.9h6.531a1.422,1.422,0,1,0-.025-2.835h-13.01a1.424,1.424,0,1,0,.025,2.835Zm-.013-5.683h6.48a1.431,1.431,0,1,0-.013-2.848h-12.922a1.434,1.434,0,1,0,.013,2.848Z" transform="translate(-2123.3 -2201.599)" fill="#006ce5"/>
      <path id="Path_66021" data-name="Path 66021" d="M2415.853,2497.731a4.438,4.438,0,0,1-2.063-1.354c-2.291-2.316-4.594-4.607-6.9-6.9-.126-.126-.24-.253-.392-.4a12.949,12.949,0,0,0,3.974-3.974,1.764,1.764,0,0,1,.2.139c2.544,2.544,5.1,5.075,7.632,7.632a2.827,2.827,0,0,1-1.3,4.771c-.076.025-.139.063-.215.089Z" transform="translate(-2370.658 -2449.132)" fill="#006ce5"/>
      <path id="Path_66022" data-name="Path 66022" d="M2123.3,2555.7c.063.24.126.494.2.721a4.234,4.234,0,0,0,3.177,2.873c.1.025.2.063.316.088h-3.7Z" transform="translate(-2123.3 -2510.796)" fill="none"/>
      <path id="Path_66023" data-name="Path 66023" d="M2280.5,2368.279a9.473,9.473,0,1,1,9.454,9.467A9.477,9.477,0,0,1,2280.5,2368.279Z" transform="translate(-2260.604 -2338.816)" fill="#006ce5"/>
      <path id="Path_66024" data-name="Path 66024" d="M2203.595,2359.1c-.658.76-1.366,1.494-1.974,2.3-.48.646-.81,1.393-1.228,2.076a.671.671,0,0,1-.43.3q-4.48.019-8.96.013a1.518,1.518,0,0,1-.2-.025v-4.67Z" transform="translate(-2182.257 -2339.078)" fill="#006ce5"/>
      <path id="Path_66025" data-name="Path 66025" d="M2139.891,2218.391H2131.5l8.391-8.391Z" transform="translate(-2130.462 -2208.848)" fill="#006ce5"/>
      <path id="Path_66026" data-name="Path 66026" d="M2251.148,2294.335h-6.48a1.424,1.424,0,1,1-.025-2.835h13.01a1.42,1.42,0,0,1,1.43,1.974,1.4,1.4,0,0,1-1.4.861Z" transform="translate(-2227.937 -2280.033)" fill="none"/>
      <path id="Path_66027" data-name="Path 66027" d="M2251.05,2249.348h-6.442a1.434,1.434,0,1,1-.012-2.848h12.922a1.431,1.431,0,1,1,.012,2.848Z" transform="translate(-2227.851 -2240.729)" fill="none"/>
    </g>
  </g>
</svg>
