<svg xmlns="http://www.w3.org/2000/svg" xmlns:xlink="http://www.w3.org/1999/xlink" width="105.677" height="105.677" viewBox="0 0 105.677 105.677">
  <defs>
    <clipPath id="clip-path">
      <path id="Path_81895" data-name="Path 81895" d="M0-682.665H105.677v105.677H0Z" transform="translate(0 682.665)" fill="#006ce5"/>
    </clipPath>
  </defs>
  <g id="Group_26676" data-name="Group 26676" transform="translate(0 -0.002)">
    <g id="Group_26675" data-name="Group 26675" transform="translate(0 0.002)" clip-path="url(#clip-path)">
      <path id="Path_81881" data-name="Path 81881" d="M-8.451-38.123h-.064A1.548,1.548,0,0,1-10-39.734a7.489,7.489,0,0,1,7.5-7.2,7.5,7.5,0,0,1,7.5,7.174,1.548,1.548,0,0,1-1.478,1.615,1.548,1.548,0,0,1-1.615-1.478A4.458,4.458,0,0,0-2.5-43.841a4.455,4.455,0,0,0-4.409,4.233A1.548,1.548,0,0,1-8.451-38.123Z" transform="translate(57.124 53.717)" fill="#006ce5"/>
      <path id="Path_81882" data-name="Path 81882" d="M-36.356-34.819a1.543,1.543,0,0,1-1.095-.454l-5.111-5.113a1.548,1.548,0,0,1,0-2.189,1.548,1.548,0,0,1,2.189,0l5.111,5.113a1.548,1.548,0,0,1,0,2.189A1.543,1.543,0,0,1-36.356-34.819Z" transform="translate(126.795 95.591)" fill="#006ce5"/>
      <path id="Path_81883" data-name="Path 81883" d="M3.942-2.795a1.543,1.543,0,0,1-1.095-.453L1.3-4.8A6.1,6.1,0,0,0-3.159-6.559,30.515,30.515,0,0,1-8.7-6.924,1.548,1.548,0,0,1-9.982-8.7,1.548,1.548,0,0,1-8.211-9.982a27.411,27.411,0,0,0,4.973.329A9.213,9.213,0,0,1,3.488-6.986L5.037-5.437a1.548,1.548,0,0,1,0,2.189A1.543,1.543,0,0,1,3.942-2.795Z" transform="translate(62.446 87.741)" fill="#006ce5"/>
      <path id="Path_81884" data-name="Path 81884" d="M-110.724-47.056a4.375,4.375,0,0,1-3.1-1.284l-6.7-6.7a4.361,4.361,0,0,1-1.286-3.1,4.36,4.36,0,0,1,1.286-3.1l16.476-16.476a1.548,1.548,0,0,1,2.189,0,1.548,1.548,0,0,1,0,2.189l-16.476,16.476a1.285,1.285,0,0,0-.379.915,1.285,1.285,0,0,0,.379.915l6.7,6.7a1.3,1.3,0,0,0,1.83,0l28.13-28.13a1.3,1.3,0,0,0,0-1.83l-6.7-6.7a1.285,1.285,0,0,0-.915-.379,1.285,1.285,0,0,0-.915.379l-7.276,7.276a1.548,1.548,0,0,1-2.189,0,1.548,1.548,0,0,1,0-2.189l7.276-7.276a4.36,4.36,0,0,1,3.1-1.286,4.361,4.361,0,0,1,3.1,1.286l6.7,6.7a4.4,4.4,0,0,1,0,6.208l-28.13,28.13A4.377,4.377,0,0,1-110.724-47.056Z" transform="translate(183.881 145.609)" fill="#006ce5"/>
      <path id="Path_81885" data-name="Path 81885" d="M-8.452-47.765a1.543,1.543,0,0,1-1.095-.453,1.548,1.548,0,0,1,0-2.189l1.414-1.414a6.138,6.138,0,0,0,1.76-4.518l-.01-.431a1.548,1.548,0,0,1,1.522-1.573,1.548,1.548,0,0,1,1.573,1.522l.009.389a9.245,9.245,0,0,1-2.666,6.8l-1.414,1.414A1.543,1.543,0,0,1-8.452-47.765Z" transform="translate(23.678 108.894)" fill="#006ce5"/>
      <path id="Path_81886" data-name="Path 81886" d="M-107.6,3.625a1.543,1.543,0,0,1-1.095-.453,1.548,1.548,0,0,1,0-2.189l1.356-1.356A9.235,9.235,0,0,1-100.6-3.04a27.392,27.392,0,0,0,19.963-7.981L-59.8-31.86a4.1,4.1,0,0,0,1.211-2.981,4.107,4.107,0,0,0-1.295-2.949,4.224,4.224,0,0,0-5.848.166,1.548,1.548,0,0,1-2.189,0,1.548,1.548,0,0,1,0-2.189l5.358-5.358a4.224,4.224,0,0,0,.165-5.848,4.107,4.107,0,0,0-2.949-1.295A4.1,4.1,0,0,0-68.329-51.1h0a1.548,1.548,0,0,1-2.189,0,1.548,1.548,0,0,1,0-2.189l5.358-5.358a4.1,4.1,0,0,0,1.211-2.981,4.107,4.107,0,0,0-1.295-2.949,4.224,4.224,0,0,0-5.848.165l-3.935,3.935h0a1.548,1.548,0,0,1-2.189,0,1.548,1.548,0,0,1,0-2.189h0a4.1,4.1,0,0,0,1.211-2.981A4.107,4.107,0,0,0-77.3-68.6a4.224,4.224,0,0,0-5.848.165l-8.012,8.012a1.548,1.548,0,0,1-2.189,0,1.548,1.548,0,0,1,0-2.189l8.012-8.012a7.341,7.341,0,0,1,10.165-.225,7.174,7.174,0,0,1,2.154,3.992,7.338,7.338,0,0,1,9.9.026,7.178,7.178,0,0,1,2.262,5.155,7.175,7.175,0,0,1-2.117,5.213L-64.133-55.3a7.174,7.174,0,0,1,3.982,2.152,7.341,7.341,0,0,1-.225,10.165l-1.107,1.107a7.067,7.067,0,0,1,3.725,1.837A7.179,7.179,0,0,1-55.5-34.883a7.174,7.174,0,0,1-2.117,5.212L-78.451-8.832A30.512,30.512,0,0,1-99.936.064c-.248,0-.5,0-.744-.009a6.126,6.126,0,0,0-4.473,1.761l-1.356,1.356A1.543,1.543,0,0,1-107.6,3.625Z" transform="translate(147.086 81.47)" fill="#006ce5"/>
      <path id="Path_81887" data-name="Path 81887" d="M-260.2-77.367a7.456,7.456,0,0,1,5.31,2.192l8.69,8.69a7.518,7.518,0,0,1,0,10.619,7.436,7.436,0,0,1-4.139,2.1l1.136,1.136a7.517,7.517,0,0,1,0,10.619,7.456,7.456,0,0,1-5.31,2.192,7.463,7.463,0,0,1-4.446-1.449,7.471,7.471,0,0,1-2.12,4.242,7.456,7.456,0,0,1-5.31,2.192,7.455,7.455,0,0,1-5-1.9,7.436,7.436,0,0,1-2.1,4.153,7.456,7.456,0,0,1-5.31,2.192,7.456,7.456,0,0,1-5.31-2.192l-6.281-6.28a7.456,7.456,0,0,1-2.192-5.31,7.456,7.456,0,0,1,2.192-5.31,7.456,7.456,0,0,1,5.31-2.192q.325,0,.646.027A7.64,7.64,0,0,1-284.562-53a7.456,7.456,0,0,1,2.192-5.31,7.457,7.457,0,0,1,5.31-2.192,7.677,7.677,0,0,1,.992.064,7.675,7.675,0,0,1-.064-.992,7.456,7.456,0,0,1,2.192-5.31,7.456,7.456,0,0,1,5.31-2.192,7.676,7.676,0,0,1,.99.064,7.5,7.5,0,0,1,2.131-6.3A7.456,7.456,0,0,1-260.2-77.367Zm8.69,20.6a4.381,4.381,0,0,0,3.12-1.285,4.418,4.418,0,0,0,0-6.241l-8.69-8.69a4.381,4.381,0,0,0-3.12-1.285,4.38,4.38,0,0,0-3.12,1.285,4.418,4.418,0,0,0,0,6.241,1.543,1.543,0,0,1,.453,1.095,1.543,1.543,0,0,1-.453,1.095,1.548,1.548,0,0,1-2.189,0,4.381,4.381,0,0,0-3.12-1.285,4.381,4.381,0,0,0-3.121,1.285,4.381,4.381,0,0,0-1.285,3.12,4.38,4.38,0,0,0,1.285,3.12,1.543,1.543,0,0,1,.453,1.095,1.543,1.543,0,0,1-.453,1.095,1.548,1.548,0,0,1-2.189,0,4.381,4.381,0,0,0-3.12-1.285,4.381,4.381,0,0,0-3.12,1.285A4.381,4.381,0,0,0-281.466-53a4.381,4.381,0,0,0,1.285,3.121l.4.4.009.009a1.548,1.548,0,0,1,0,2.189,1.548,1.548,0,0,1-2.189,0h0a4.381,4.381,0,0,0-3.121-1.285,4.381,4.381,0,0,0-3.12,1.285,4.381,4.381,0,0,0-1.285,3.12,4.38,4.38,0,0,0,1.285,3.12l6.281,6.28a4.381,4.381,0,0,0,3.12,1.285,4.381,4.381,0,0,0,3.12-1.285,4.38,4.38,0,0,0,1.285-3.12,4.381,4.381,0,0,0-1.285-3.12,1.548,1.548,0,0,1,0-2.189,1.548,1.548,0,0,1,2.189,0l3.987,3.987a4.381,4.381,0,0,0,3.12,1.285,4.38,4.38,0,0,0,3.12-1.285,4.418,4.418,0,0,0,0-6.241,1.548,1.548,0,0,1,0-2.189,1.548,1.548,0,0,1,2.189,0l3.446,3.446a4.381,4.381,0,0,0,3.12,1.285,4.381,4.381,0,0,0,3.12-1.285,4.418,4.418,0,0,0,0-6.241l-5.427-5.428a1.548,1.548,0,0,1,0-2.189,1.548,1.548,0,0,1,2.189,0A4.381,4.381,0,0,0-251.511-56.769Z" transform="translate(302.417 86.041)" fill="#006ce5"/>
      <path id="Path_81888" data-name="Path 81888" d="M-233.8-179.449a4.361,4.361,0,0,1-3.1-1.286l-28.13-28.13a4.361,4.361,0,0,1-1.286-3.1,4.361,4.361,0,0,1,1.286-3.1l6.7-6.7a4.361,4.361,0,0,1,3.1-1.286,4.361,4.361,0,0,1,3.1,1.286L-224-193.64a4.395,4.395,0,0,1,0,6.208l-6.7,6.7A4.361,4.361,0,0,1-233.8-179.449Zm-21.433-40.511a1.285,1.285,0,0,0-.915.379l-6.7,6.7a1.285,1.285,0,0,0-.379.915,1.285,1.285,0,0,0,.379.915l28.131,28.13a1.285,1.285,0,0,0,.915.379,1.285,1.285,0,0,0,.915-.379l6.7-6.7a1.3,1.3,0,0,0,0-1.829l-28.13-28.13A1.285,1.285,0,0,0-255.236-219.96Z" transform="translate(266.323 278.347)" fill="#006ce5"/>
      <path id="Path_81889" data-name="Path 81889" d="M.238,1.786A1.543,1.543,0,0,1-.857,1.332l-8.69-8.69a1.548,1.548,0,0,1,0-2.189,1.548,1.548,0,0,1,2.189,0l8.69,8.69a1.548,1.548,0,0,1,0,2.189A1.543,1.543,0,0,1,.238,1.786Z" transform="translate(46.453 28.843)" fill="#006ce5"/>
      <path id="Path_81890" data-name="Path 81890" d="M-3.514-1.966a1.543,1.543,0,0,1-1.095-.453L-9.547-7.357a1.548,1.548,0,0,1,0-2.189,1.548,1.548,0,0,1,2.189,0l4.938,4.938a1.548,1.548,0,0,1,0,2.189A1.543,1.543,0,0,1-3.514-1.966Z" transform="translate(43.756 43.006)" fill="#006ce5"/>
      <path id="Path_81891" data-name="Path 81891" d="M-7.1-5.549A1.543,1.543,0,0,1-8.192-6L-9.547-7.357a1.548,1.548,0,0,1,0-2.189,1.548,1.548,0,0,1,2.189,0L-6-8.192A1.548,1.548,0,0,1-6-6,1.543,1.543,0,0,1-7.1-5.549Z" transform="translate(38.023 37.273)" fill="#006ce5"/>
      <path id="Path_81892" data-name="Path 81892" d="M-2.172-.624a1.543,1.543,0,0,1-1.095-.453l-6.28-6.28a1.548,1.548,0,0,1,0-2.189,1.548,1.548,0,0,1,2.189,0l6.28,6.28a1.548,1.548,0,0,1,0,2.189A1.543,1.543,0,0,1-2.172-.624Z" transform="translate(29.997 46.107)" fill="#006ce5"/>
      <path id="Path_81893" data-name="Path 81893" d="M-52.257-.123a1.543,1.543,0,0,1-1.095-.453,1.548,1.548,0,0,1,0-2.189l6.781-6.781a1.548,1.548,0,0,1,2.189,0,1.548,1.548,0,0,1,0,2.189L-51.163-.576A1.543,1.543,0,0,1-52.257-.123Z" transform="translate(116.441 28.347)" fill="#006ce5"/>
      <path id="Path_81894" data-name="Path 81894" d="M-43.605-1.462A1.543,1.543,0,0,1-44.7-1.916a1.548,1.548,0,0,1,0-2.189l5.442-5.442a1.548,1.548,0,0,1,2.189,0,1.548,1.548,0,0,1,0,2.189l-5.442,5.442A1.543,1.543,0,0,1-43.605-1.462Z" transform="translate(115.826 37.724)" fill="#006ce5"/>
    </g>
  </g>
</svg>
