<svg xmlns="http://www.w3.org/2000/svg" width="38.246" height="38.246" viewBox="0 0 38.246 38.246">
  <g id="Group_26638" data-name="Group 26638" transform="translate(-46.62 0.002)">
    <g id="Group_26670" data-name="Group 26670" transform="translate(44.63 -1.992)">
      <path id="Path_81871" data-name="Path 81871" d="M22.314,32.239l1.748,5.423a.785.785,0,0,0,1.31.328c2.634-2.634,7-7.07,7.3-9.5a8.8,8.8,0,0,0-.662-3.647,44.868,44.868,0,0,1-9.7,7.4ZM15.371,8.2a8.8,8.8,0,0,0-3.647-.662c-2.43.3-6.866,4.668-9.5,7.3a.785.785,0,0,0,.328,1.31L7.974,17.9A44.891,44.891,0,0,1,15.371,8.2Zm-3.455,26.15a18.641,18.641,0,0,1-8.231,2.18A18.616,18.616,0,0,1,5.865,28.3Zm16.646-25.4a2.7,2.7,0,0,0-1.907,4.607,2.759,2.759,0,0,0,3.815,0,2.7,2.7,0,0,0-1.908-4.607Z" transform="translate(0 2.013)" fill="#006ce5"/>
      <path id="Path_81872" data-name="Path 81872" d="M36.959,1.99c-5.132.1-20.8,2.128-30.564,22.358a1.7,1.7,0,0,0,.333,1.941l7.661,7.661a1.7,1.7,0,0,0,1.941.333C36.562,24.517,38.593,8.853,38.689,3.721A1.693,1.693,0,0,0,36.959,1.99Zm-6.3,15.32a5.156,5.156,0,0,1-7.292-7.292,5.282,5.282,0,0,1,7.292,0A5.164,5.164,0,0,1,30.661,17.31Z" transform="translate(1.546 0)" fill="#006ce5"/>
    </g>
  </g>
</svg>
