<svg xmlns="http://www.w3.org/2000/svg" width="133.132" height="103.674" viewBox="0 0 133.132 103.674">
  <g id="Group_26674" data-name="Group 26674" transform="translate(0.5 0.526)">
    <path id="Path_81879" data-name="Path 81879" d="M147.568,24.69,103.184.319a2.582,2.582,0,0,0-2.484,0L84.01,9.484a2.586,2.586,0,0,0-1.027.564L56.316,24.69a2.581,2.581,0,0,0-1.339,2.262v5.276H25.205a2.58,2.58,0,1,0,0,5.161H54.978v9.29H40.183a2.58,2.58,0,1,0,0,5.161H54.978V65.258H33.3a2.58,2.58,0,1,0,0,5.161H54.978V75.7a2.581,2.581,0,0,0,1.339,2.262L100.7,102.329a2.581,2.581,0,0,0,2.484,0l44.384-24.372a2.581,2.581,0,0,0,1.338-2.262V64.14a2.58,2.58,0,1,0-5.161,0V74.169L104.523,95.707V52.851L117,46v10.87a2.58,2.58,0,0,0,3.824,2.261l9.512-5.234a2.581,2.581,0,0,0,1.335-2.261V37.945l12.078-6.632V43.5a2.58,2.58,0,1,0,5.161,0V26.952a2.581,2.581,0,0,0-1.339-2.262ZM99.362,95.707,60.139,74.169V31.314L99.362,52.851Zm2.58-47.327L62.92,26.952l12.264-6.734,39.023,21.428ZM119.569,38.7,80.545,17.273l4.231-2.322L123.8,36.379Zm6.938,11.41-4.349,2.394V43.168l4.349-2.389Zm2.653-16.677L90.138,12.007l11.8-6.481,39.023,21.427Zm0,0" transform="translate(-16.787 0)" fill="#006ce5" stroke="#fff" stroke-width="1"/>
    <path id="Path_81880" data-name="Path 81880" d="M129.54,185.451a2.581,2.581,0,1,0,1.824.756A2.588,2.588,0,0,0,129.54,185.451ZM6.279,199.47H2.58a2.58,2.58,0,0,0,0,5.161h3.7a2.58,2.58,0,0,0,0-5.161Zm9.377-16A2.583,2.583,0,1,0,14.9,185.3a2.6,2.6,0,0,0,.757-1.825Zm0,0" transform="translate(0 -134.212)" fill="#006ce5" stroke="#fff" stroke-width="1"/>
  </g>
</svg>
