<svg xmlns="http://www.w3.org/2000/svg" width="42.152" height="37.047" viewBox="0 0 42.152 37.047">
  <g id="Group_26940" data-name="Group 26940" transform="translate(0 -31)">
    <path id="Path_82358" data-name="Path 82358" d="M12.349,65.487a15.971,15.971,0,0,0,16.01.776l-1.134-2.195a13.8,13.8,0,0,1-14.877-1.635v-9.2H0V65.578H12.349ZM17.608,38.9l3.468,5.548L29.479,31H12.673l3.576,5.721a16.1,16.1,0,0,0-11,12.6l2.436.408A13.61,13.61,0,0,1,17.608,38.9ZM29.8,59.4a6.175,6.175,0,1,0,7.3-6.061c.038-.45.112-.9.112-1.349A16.148,16.148,0,0,0,29.395,38.21l-1.269,2.12a12.94,12.94,0,0,1,6.5,13.057A6.177,6.177,0,0,0,29.8,59.4Z" fill="#006ce5"/>
  </g>
</svg>
