<svg id="Group_25919" data-name="Group 25919" xmlns="http://www.w3.org/2000/svg" width="48" height="48" viewBox="0 0 48 48">
  <path id="Path_79960" data-name="Path 79960" d="M21,14.106V4.57c-.168-.016-.328-.056-.5-.056H3.5A3.749,3.749,0,0,0,0,8.463V25.39a1.735,1.735,0,0,0,.791,1.492A1.356,1.356,0,0,0,2.33,26.8l5.018-3.762a2.256,2.256,0,0,1,1.372-.469H20.5a5.212,5.212,0,0,0,4.012-1.988A7.473,7.473,0,0,1,21,14.106Zm25.5,8.463a1.376,1.376,0,0,1-.832-.284l-4.992-3.756a2.283,2.283,0,0,0-1.386-.474H27.5a3.749,3.749,0,0,1-3.5-3.95V3.95A3.749,3.749,0,0,1,27.5,0h17A3.749,3.749,0,0,1,48,3.95V20.876A1.605,1.605,0,0,1,46.5,22.569Z" transform="translate(0)" fill="#fff"/>
  <circle id="Ellipse_845" data-name="Ellipse 845" cx="6.771" cy="6.771" r="6.771" transform="translate(5.642 22.972)" fill="#fff"/>
  <circle id="Ellipse_846" data-name="Ellipse 846" cx="6.771" cy="6.771" r="6.771" transform="translate(28.816 22.972)" fill="#fff"/>
  <path id="Path_79961" data-name="Path 79961" d="M16.5,19H5.5C2.463,19,0,21.78,0,25.207v3.385a1.606,1.606,0,0,0,1.5,1.693h19A1.605,1.605,0,0,0,22,28.592V25.207C22,21.78,19.537,19,16.5,19Zm26,0h-11c-3.037,0-5.5,2.78-5.5,6.207v3.385a1.606,1.606,0,0,0,1.5,1.693h19A1.605,1.605,0,0,0,48,28.592V25.207C48,21.78,45.537,19,42.5,19Z" transform="translate(0 17.715)" fill="#fff"/>
</svg>
