<svg xmlns="http://www.w3.org/2000/svg" width="42.761" height="47.443" viewBox="0 0 42.761 47.443">
  <g id="Group_23865" data-name="Group 23865" transform="translate(94.993 -38.826)">
    <path id="Path_78173" data-name="Path 78173" d="M47.141,38.826A14.6,14.6,0,0,1,61.671,51.77a14.284,14.284,0,0,1-3.136,10.9,1.926,1.926,0,0,1-.873.584c-2.054.666-4.122,1.287-6.179,1.942a.647.647,0,0,1-.785-.181,4.554,4.554,0,0,0-3.388-1.443c-3.656-.113-7.31-.255-10.965-.4a.74.74,0,0,1-.449-.278,14.391,14.391,0,0,1-3.309-7.572,14.615,14.615,0,0,1,7.346-14.606A14.373,14.373,0,0,1,47.141,38.826Zm-1.365,6.536A3.918,3.918,0,0,0,42.607,49.8a4.066,4.066,0,0,0,4.12,3.363c.334.01.67-.01,1,.016a1.367,1.367,0,0,1,1.307,1.273A1.3,1.3,0,0,1,47.82,55.8a7.72,7.72,0,0,1-1.63.01.93.93,0,0,1-.66-.428.913.913,0,0,0-1.044-.591c-.332.025-.668-.006-1,.009-.486.022-.7.286-.618.757a3.048,3.048,0,0,0,1.953,2.559c.918.3,1.2.731,1.068,1.617-.059.4.211.622.6.638.439.018.879.01,1.319.006.468,0,.718-.218.7-.714-.015-.4,0-.805,0-1.216.2-.062.367-.11.532-.166a3.908,3.908,0,0,0-.715-7.585c-.573-.072-1.157-.049-1.736-.072a1.359,1.359,0,0,1-1.368-1.2,1.319,1.319,0,0,1,1.241-1.433,7.392,7.392,0,0,1,1.579,0,.912.912,0,0,1,.664.418c.209.581.608.648,1.119.613.333-.023.669.01,1-.01.518-.031.707-.263.605-.757a3.1,3.1,0,0,0-1.992-2.535c-.9-.289-1.18-.708-1.041-1.577.069-.434-.206-.644-.633-.646-.457,0-.914,0-1.371,0a.565.565,0,0,0-.615.631C45.772,44.528,45.776,44.93,45.776,45.362Z" transform="translate(-114.009)" fill="#006ce5"/>
    <path id="Path_78174" data-name="Path 78174" d="M-48.835,300.545c.183-.14.317-.25.458-.35,2.816-2.016,5.644-4.015,8.443-6.055a6.233,6.233,0,0,1,4.1-1.211c3.426.151,6.853.268,10.28.394a1.991,1.991,0,0,1,2.1,1.749,1.971,1.971,0,0,1-1.729,2.161,50.484,50.484,0,0,1-9.322.973,1.716,1.716,0,0,0-.989.366.98.98,0,0,0-.243,1.205,1.174,1.174,0,0,0,1.2.7c1.108-.019,2.224.013,3.321-.114,2.2-.253,4.4-.533,6.57-.925a4.1,4.1,0,0,0,3.533-4.062.51.51,0,0,1,.437-.537c2.1-.646,4.189-1.311,6.286-1.958a2.263,2.263,0,0,1,2.845,1.051,2.305,2.305,0,0,1-.766,2.987c-4.347,3.375-8.709,6.73-13.04,10.126a7.229,7.229,0,0,1-5.583,1.49c-2.705-.32-5.421-.551-8.131-.83a1.1,1.1,0,0,1-.531-.181C-42.665,305.22-45.719,302.9-48.835,300.545Z" transform="translate(-41.286 -227.118)" fill="#006ce5"/>
    <path id="Path_78175" data-name="Path 78175" d="M-91.925,384.48l8.967,6.775a2.862,2.862,0,0,1-.182.321q-1.272,1.681-2.553,3.356a.973.973,0,0,1-1.545.225q-3.649-2.733-7.281-5.487a.97.97,0,0,1-.2-1.511C-93.8,386.943-92.878,385.733-91.925,384.48Z" transform="translate(0 -309.174)" fill="#006ce5"/>
  </g>
</svg>
