<svg id="Group_26776" data-name="Group 26776" xmlns="http://www.w3.org/2000/svg" width="38.55" height="38.549" viewBox="0 0 38.55 38.549">
  <path id="Path_82005" data-name="Path 82005" d="M37.733,19,29.3,16.127a1.184,1.184,0,0,0-.774,0L20.093,19a1.2,1.2,0,0,0-.818,1.14V26.59c0,7.877,8.793,11.706,9.167,11.866a1.226,1.226,0,0,0,.941,0c.374-.159,9.167-3.987,9.167-11.864V20.136A1.2,1.2,0,0,0,37.733,19Zm-3.542,6.091-4.417,5.622a1.606,1.606,0,0,1-2.308.228l-2.811-2.409a1.606,1.606,0,1,1,2.09-2.438l1.539,1.319,3.381-4.3a1.606,1.606,0,1,1,2.527,1.982ZM30.519,0H4.819a4.819,4.819,0,1,0,0,9.638h25.7a4.819,4.819,0,0,0,0-9.638ZM4.819,6.425A1.606,1.606,0,1,1,6.425,4.819,1.606,1.606,0,0,1,4.819,6.425Zm6.425,0A1.606,1.606,0,1,1,12.85,4.819,1.606,1.606,0,0,1,11.244,6.425Z" fill="#006ce5"/>
  <path id="Path_82006" data-name="Path 82006" d="M4.819,8a4.819,4.819,0,0,0,0,9.638H16.063V15.292a4.425,4.425,0,0,1,3-4.192l8.417-2.859A4.38,4.38,0,0,1,28.913,8Zm0,6.425a1.606,1.606,0,1,1,1.606-1.606A1.611,1.611,0,0,1,4.819,14.425Zm6.425,0a1.606,1.606,0,1,1,1.606-1.606A1.611,1.611,0,0,1,11.244,14.425Zm4.819,7.309V20.85H4.819a4.819,4.819,0,0,0,0,9.638H19.227A14.01,14.01,0,0,1,16.063,21.734ZM4.819,27.275a1.606,1.606,0,1,1,1.606-1.606A1.611,1.611,0,0,1,4.819,27.275Zm6.425,0a1.606,1.606,0,1,1,1.606-1.606A1.611,1.611,0,0,1,11.244,27.275Z" transform="translate(0 4.85)" fill="#006ce5"/>
</svg>
