<svg xmlns="http://www.w3.org/2000/svg" width="38.243" height="38.243" viewBox="0 0 38.243 38.243">
  <g id="Group_26773" data-name="Group 26773" transform="translate(0)">
    <path id="Path_82000" data-name="Path 82000" d="M21.362,0h-1.12V18h18v-1.12A16.952,16.952,0,0,0,21.362,0ZM5.832,34a16.783,16.783,0,0,0,11.048,4.248A16.888,16.888,0,0,0,33.687,21.362v-1.12h-14.1ZM18,4.556h-1.12a16.7,16.7,0,0,0-9.8,3.181L18,18.658ZM5.346,9.171A16.811,16.811,0,0,0,0,21.362,16.783,16.783,0,0,0,4.248,32.411L16.417,20.242Z" transform="translate(0)" fill="#006ce5"/>
  </g>
</svg>
