<svg id="Group_26620" data-name="Group 26620" xmlns="http://www.w3.org/2000/svg" width="40.135" height="40.135" viewBox="0 0 40.135 40.135">
  <path id="Path_81768" data-name="Path 81768" d="M40.072.861A1.16,1.16,0,0,0,38.96,0h-4.7a1.176,1.176,0,0,0,0,2.352h2.75l-5.615,6.34a36.034,36.034,0,0,1-30.114,12.1,1.176,1.176,0,1,0-.2,2.342c1.1.1,2.028.142,3.125.142A38.772,38.772,0,0,0,33.153,10.248l4.631-5.227v.858a1.176,1.176,0,0,0,2.352,0V2.336L40.072.861Z" transform="translate(-0.001)" fill="#fff"/>
  <path id="Path_81769" data-name="Path 81769" d="M38.959,157.383H37.7V130.948a1.176,1.176,0,0,0-2.075-.758l-.722.858a40.667,40.667,0,0,1-3.869,4,1.175,1.175,0,0,0-.389.874v21.461H28.3V139.591a1.175,1.175,0,0,0-1.831-.976,41.512,41.512,0,0,1-4.574,2.664,1.175,1.175,0,0,0-.65,1.052v15.053H18.892V144.335a1.175,1.175,0,0,0-1.571-1.107,41.372,41.372,0,0,1-4.574,1.339,1.177,1.177,0,0,0-.911,1.146v11.67H9.485V146.524a1.177,1.177,0,0,0-.393-.877,1.16,1.16,0,0,0-.916-.29,41,41,0,0,1-4.571.263A1.176,1.176,0,0,0,2.43,146.8v10.588H1.176a1.176,1.176,0,0,0,0,2.352H38.959a1.176,1.176,0,0,0,0-2.352Z" transform="translate(0 -119.6)" fill="#fff"/>
</svg>
