<svg xmlns="http://www.w3.org/2000/svg" width="79.385" height="94.651" viewBox="0 0 79.385 94.651">
  <g id="Group_26780" data-name="Group 26780" transform="translate(-6 -1)">
    <g id="Artboard_02" data-name="Artboard 02" transform="translate(6 1)">
      <path id="Path_82013" data-name="Path 82013" d="M9.817,75.805a3.817,3.817,0,0,0,0,7.633h2.29v4.58a7.642,7.642,0,0,0,7.633,7.633H77.752a7.642,7.642,0,0,0,7.633-7.633V8.633A7.642,7.642,0,0,0,77.752,1H19.74a7.642,7.642,0,0,0-7.633,7.633V14.74H9.817a3.817,3.817,0,0,0,0,7.633h2.29v7.633H9.817a3.817,3.817,0,1,0,0,7.633h2.29v7.633H9.817a3.817,3.817,0,0,0,0,7.633h2.29v7.633H9.817a3.817,3.817,0,0,0,0,7.633h2.29v7.633Zm-.763,3.817a.763.763,0,0,1,.763-.763H17.45a.763.763,0,1,1,0,1.527H9.817A.763.763,0,0,1,9.053,79.622ZM82.332,8.633V21.741L64.644,4.053H77.752A4.58,4.58,0,0,1,82.332,8.633ZM62.485,6.212,80.173,23.9H67.065a4.58,4.58,0,0,1-4.58-4.58ZM9.053,18.556a.763.763,0,0,1,.763-.763H17.45a.763.763,0,0,1,0,1.527H9.817A.763.763,0,0,1,9.053,18.556Zm0,15.266a.763.763,0,0,1,.763-.763H17.45a.763.763,0,0,1,0,1.527H9.817A.763.763,0,0,1,9.053,33.823Zm0,15.266a.763.763,0,0,1,.763-.763H17.45a.763.763,0,1,1,0,1.527H9.817A.763.763,0,0,1,9.053,49.089Zm0,15.266a.763.763,0,0,1,.763-.763H17.45a.763.763,0,1,1,0,1.527H9.817A.763.763,0,0,1,9.053,64.355Zm6.107,3.817h2.29a3.817,3.817,0,0,0,0-7.633H15.16V52.906h2.29a3.817,3.817,0,0,0,0-7.633H15.16V37.639h2.29a3.817,3.817,0,1,0,0-7.633H15.16V22.373h2.29a3.817,3.817,0,0,0,0-7.633H15.16V8.633a4.58,4.58,0,0,1,4.58-4.58H59.432V19.32a7.642,7.642,0,0,0,7.633,7.633H82.332V88.018a4.58,4.58,0,0,1-4.58,4.58H19.74a4.58,4.58,0,0,1-4.58-4.58v-4.58h2.29a3.817,3.817,0,0,0,0-7.633H15.16Z" transform="translate(-6 -1)" fill="#006ce5"/>
      <path id="Path_82014" data-name="Path 82014" d="M38.266,53.533A15.283,15.283,0,0,0,53.533,38.266a1.527,1.527,0,0,0-1.527-1.527H39.793V24.527A1.527,1.527,0,0,0,38.266,23a15.266,15.266,0,1,0,0,30.533ZM36.74,26.148V38.266a1.527,1.527,0,0,0,1.527,1.527H50.385A12.213,12.213,0,1,1,36.74,26.148Z" transform="translate(2.953 10.586)" fill="#006ce5"/>
      <path id="Path_82015" data-name="Path 82015" d="M43.675,36.793h13.74a1.527,1.527,0,0,0,1.527-1.527A15.283,15.283,0,0,0,43.675,20a1.527,1.527,0,0,0-1.527,1.527v13.74A1.527,1.527,0,0,0,43.675,36.793ZM45.2,23.148A12.242,12.242,0,0,1,55.794,33.74H45.2ZM37.294,66.327l6.736,8.082a1.527,1.527,0,0,0,2.252.1l12.66-12.66V65.8h3.053V58.166h-.014a1.485,1.485,0,0,0-1.513-1.527H52.835v3.053h3.948L45.3,71.171,38.74,63.3a1.527,1.527,0,0,0-2.047-.273L21.426,73.709l1.75,2.5Z" transform="translate(2.124 9.006)" fill="#006ce5"/>
    </g>
  </g>
</svg>
