<svg xmlns="http://www.w3.org/2000/svg" width="39.43" height="37.047" viewBox="0 0 39.43 37.047">
  <g id="Group_26615" data-name="Group 26615" transform="translate(0 -15.469)">
    <path id="Path_81762" data-name="Path 81762" d="M51.634,24.58a1.164,1.164,0,0,0-.642-.568L42.442,20.9a3.467,3.467,0,0,0-6.2-2.256l-8.537-3.107h0a1.165,1.165,0,0,0-1.425.566L20.87,26.846h2.587l3.861-7.667,3.908,7.667h2.593l-4.146-8.135,5.837,2.125a3.462,3.462,0,0,0,2.313,3.214V46.487a1.155,1.155,0,1,0,2.31,0V24.05a3.443,3.443,0,0,0,1.465-1l7.388,2.689L44.123,35.4H46.71L50.6,27.668,54.5,35.4h2.587ZM39.8,21.6a1.159,1.159,0,1,1,0-1.639A1.16,1.16,0,0,1,39.8,21.6Z" transform="translate(-19.263)" fill="#006ce5"/>
    <path id="Path_81763" data-name="Path 81763" d="M21.075,209.457h-2.72a5.959,5.959,0,0,0-5.952,5.952,1.155,1.155,0,0,0,1.155,1.155H25.872a1.155,1.155,0,0,0,1.155-1.155A5.959,5.959,0,0,0,21.075,209.457Zm17.2-7.7H24.409a1.155,1.155,0,0,0-1.155,1.155,8.088,8.088,0,0,0,16.176,0A1.155,1.155,0,0,0,38.275,201.76ZM15.025,193.2H1.155A1.155,1.155,0,0,0,0,194.36a8.09,8.09,0,1,0,16.18,0A1.155,1.155,0,0,0,15.025,193.2Z" transform="translate(0 -164.049)" fill="#006ce5"/>
  </g>
</svg>
