<svg id="Group_26777" data-name="Group 26777" xmlns="http://www.w3.org/2000/svg" width="47.886" height="39.454" viewBox="0 0 47.886 39.454">
  <path id="Path_82007" data-name="Path 82007" d="M172.012,7.126V25.238a1.408,1.408,0,0,1-1.408,1.408h-2.179V12.361A3.057,3.057,0,0,0,165.368,9.3H146.841a.24.24,0,0,1-.216-.134l-1.912-3.877a3.038,3.038,0,0,0-2.743-1.7h-5.038V1.408A1.408,1.408,0,0,1,138.341,0h10.033a.237.237,0,0,1,.216.134L150.5,4.012a3.04,3.04,0,0,0,2.743,1.7H170.6a1.408,1.408,0,0,1,1.408,1.409Zm0,0" transform="translate(-124.126 0)" fill="#006ce5"/>
  <path id="Path_82008" data-name="Path 82008" d="M103.546,74.433v19.28a1.408,1.408,0,0,1-1.408,1.409H99.96V80.836A3.057,3.057,0,0,0,96.9,77.779H78.376a.239.239,0,0,1-.216-.134l-1.912-3.877a3.038,3.038,0,0,0-2.743-1.7H68.468V69.884a1.408,1.408,0,0,1,1.409-1.408H79.909a.238.238,0,0,1,.216.133l1.912,3.878a3.04,3.04,0,0,0,2.743,1.705h18.527a.241.241,0,0,1,.24.24Zm0,0" transform="translate(-62.064 -62.072)" fill="#006ce5"/>
  <path id="Path_82009" data-name="Path 82009" d="M34.838,142.661H16.311a3.04,3.04,0,0,1-2.743-1.705c-.963-1.955-.539-1.093-1.912-3.877a.237.237,0,0,0-.216-.134H1.408A1.408,1.408,0,0,0,0,138.353v23.829a1.408,1.408,0,0,0,1.408,1.408H33.67a1.408,1.408,0,0,0,1.408-1.408V142.9A.241.241,0,0,0,34.838,142.661Zm-8.266,16.365a1.408,1.408,0,1,1-2.817,0v-.917a1.408,1.408,0,1,1,2.817,0Zm4.618,0a1.409,1.409,0,0,1-2.817,0v-.917a1.409,1.409,0,0,1,2.817,0Zm0,0" transform="translate(0 -124.137)" fill="#006ce5"/>
</svg>
