<svg id="Group_26782" data-name="Group 26782" xmlns="http://www.w3.org/2000/svg" width="104.888" height="104.899" viewBox="0 0 104.888 104.899">
  <path id="Path_82018" data-name="Path 82018" d="M102.368,61.889l-4.815-1.923a30.341,30.341,0,0,0-2.8-6.733l2.033-4.764a3.729,3.729,0,0,0-.559-3.925,36.177,36.177,0,0,0-4.42-4.421,3.724,3.724,0,0,0-3.921-.563l-4.766,2.035a30.516,30.516,0,0,0-6.731-2.8l-1.923-4.811a3.837,3.837,0,0,0-1.049-1.434V13.986C73.42,4.9,54.506,0,36.707,0S0,4.9,0,13.986V76.924C0,86.015,18.914,90.91,36.714,90.91c.962,0,1.89-.033,2.827-.058a3.605,3.605,0,0,0,.584.974,36.425,36.425,0,0,0,4.42,4.421,3.729,3.729,0,0,0,3.921.563l4.766-2.035a30.516,30.516,0,0,0,6.731,2.8l1.923,4.811a3.806,3.806,0,0,0,3.147,2.371c1.089.1,2.18.145,3.241.145a30.629,30.629,0,0,0,3.063-.145,3.809,3.809,0,0,0,3.147-2.374l1.923-4.808a30.516,30.516,0,0,0,6.731-2.8L87.9,96.808a3.736,3.736,0,0,0,3.925-.563,36.289,36.289,0,0,0,4.42-4.42,3.726,3.726,0,0,0,.561-3.92L94.77,83.137A30.341,30.341,0,0,0,97.553,76.4l4.816-1.923a3.8,3.8,0,0,0,2.362-3.129,31.959,31.959,0,0,0,0-6.322A3.809,3.809,0,0,0,102.368,61.889ZM36.714,3.5c19.581,0,33.217,5.528,33.217,10.49s-13.636,10.49-33.217,10.49S3.5,18.948,3.5,13.986,17.133,3.5,36.714,3.5ZM3.5,20.212c6.278,5.075,20.049,7.761,33.217,7.761s26.939-2.685,33.217-7.761V31.551a33.115,33.115,0,0,0-4.9.063,3.809,3.809,0,0,0-3.147,2.374L59.965,38.8a30.516,30.516,0,0,0-6.731,2.8L48.472,39.56a3.72,3.72,0,0,0-3.927.563,36.508,36.508,0,0,0-4.418,4.42,3.6,3.6,0,0,0-.537.846c-.955.028-1.907.066-2.878.066C17.133,45.455,3.5,39.927,3.5,34.965Zm0,20.979c6.278,5.075,20.049,7.761,33.217,7.761,1.021,0,2.024-.04,3.028-.073l1.857,4.35a30.341,30.341,0,0,0-2.787,6.738l-4.816,1.923a3.8,3.8,0,0,0-2.362,3.129c-.042.42-.038.843-.063,1.264C14.71,65.385,3.5,60.331,3.5,55.944ZM39.8,87.345c-1.019.035-2.037.068-3.086.068C17.133,87.413,3.5,81.885,3.5,76.924V62.053c4.566,3.827,13.74,7.021,28.051,7.72.026.524.026,1.049.079,1.573A3.8,3.8,0,0,0,34,74.494L38.8,76.417a30.342,30.342,0,0,0,2.8,6.733Zm61.458-16.329a.313.313,0,0,1-.187.213l-5.626,2.247a1.748,1.748,0,0,0-1.049,1.2,26.88,26.88,0,0,1-3.08,7.425,1.748,1.748,0,0,0-.11,1.589l2.381,5.582a.273.273,0,0,1-.021.292,33.042,33.042,0,0,1-4.021,4.021.276.276,0,0,1-.276,0L83.695,91.21a1.748,1.748,0,0,0-1.587.11,26.862,26.862,0,0,1-7.421,3.086,1.748,1.748,0,0,0-1.2,1.049l-2.245,5.621a.3.3,0,0,1-.233.2,30.922,30.922,0,0,1-5.663,0,.3.3,0,0,1-.212-.191l-2.247-5.626a1.748,1.748,0,0,0-1.2-1.049,26.862,26.862,0,0,1-7.425-3.08,1.748,1.748,0,0,0-1.587-.11L47.09,93.6a.267.267,0,0,1-.3-.026,33.01,33.01,0,0,1-4.012-4.021.274.274,0,0,1,0-.274L45.161,83.7a1.748,1.748,0,0,0-.11-1.589,26.88,26.88,0,0,1-3.08-7.425,1.748,1.748,0,0,0-1.049-1.2L35.3,71.237a.318.318,0,0,1-.2-.217V71a28.507,28.507,0,0,1,0-5.663.313.313,0,0,1,.187-.213l5.626-2.247a1.748,1.748,0,0,0,1.049-1.2,26.879,26.879,0,0,1,3.08-7.425,1.748,1.748,0,0,0,.11-1.589l-2.383-5.579a.273.273,0,0,1,.021-.292,33.294,33.294,0,0,1,4.021-4.021.28.28,0,0,1,.276,0l5.573,2.379a1.734,1.734,0,0,0,1.587-.11,26.862,26.862,0,0,1,7.421-3.079,1.748,1.748,0,0,0,1.2-1.049l2.245-5.621a.3.3,0,0,1,.233-.2,30.612,30.612,0,0,1,5.663,0,.3.3,0,0,1,.212.191l2.247,5.626a1.748,1.748,0,0,0,1.2,1.049,26.862,26.862,0,0,1,7.425,3.08,1.734,1.734,0,0,0,1.587.11l5.577-2.381a.269.269,0,0,1,.3.026,32.884,32.884,0,0,1,4.021,4.021.274.274,0,0,1,0,.274l-2.379,5.577a1.748,1.748,0,0,0,.11,1.589,26.879,26.879,0,0,1,3.08,7.425,1.748,1.748,0,0,0,1.049,1.2l5.617,2.243a.316.316,0,0,1,.2.236,28.508,28.508,0,0,1-.009,5.659Z" fill="#006ce5"/>
  <path id="Path_82019" data-name="Path 82019" d="M48.727,26A22.727,22.727,0,1,0,71.455,48.727,22.727,22.727,0,0,0,48.727,26Zm0,41.958A19.231,19.231,0,1,1,67.958,48.727,19.231,19.231,0,0,1,48.727,67.958Z" transform="translate(19.455 19.455)" fill="#006ce5"/>
  <path id="Path_82020" data-name="Path 82020" d="M65.19,41.326A13.986,13.986,0,1,0,79.176,55.313,13.986,13.986,0,0,0,65.19,41.326Zm0,24.476a10.49,10.49,0,1,1,10.49-10.49A10.49,10.49,0,0,1,65.19,65.8ZM5.007,20.533c.586.274,1.2.538,1.848.794a1.748,1.748,0,1,0,1.283-3.252q-.864-.34-1.649-.709a1.749,1.749,0,0,0-1.483,3.168Zm9.086,3q.883.208,1.8.392a1.67,1.67,0,0,0,.35.033,1.748,1.748,0,0,0,.35-3.462c-.577-.115-1.142-.24-1.7-.367a1.748,1.748,0,1,0-.794,3.4Z" transform="translate(2.993 12.87)" fill="#006ce5"/>
</svg>
