<svg xmlns="http://www.w3.org/2000/svg" width="100.681" height="88.156" viewBox="0 0 100.681 88.156">
  <g id="Group_26781" data-name="Group 26781" transform="translate(0.25 -2.75)">
    <path id="Path_82016" data-name="Path 82016" d="M80.93,26.031A18.788,18.788,0,0,0,62.612,11.348a18.545,18.545,0,0,0-6.061,1.014A21.9,21.9,0,0,0,16.7,24.914c0,.486.019.966.052,1.448a20.869,20.869,0,0,0,1.809,41.2,2.088,2.088,0,0,0,.451-4.151,16.692,16.692,0,0,1,.265-33.2,2.087,2.087,0,0,0,1.855-2.448,15.8,15.8,0,0,1-.259-2.845A17.727,17.727,0,0,1,53.923,15.99a2.087,2.087,0,0,0,2.667.845,14.426,14.426,0,0,1,6.021-1.315A14.6,14.6,0,0,1,77.092,28.3a2.237,2.237,0,0,0,2.216,1.83A16.694,16.694,0,0,1,82.8,63.149a2.088,2.088,0,1,0,.866,4.084,20.863,20.863,0,0,0-2.734-41.2Z" transform="translate(0)" fill="#006ce5" stroke="#fff" stroke-width="0.5"/>
    <path id="Path_82017" data-name="Path 82017" d="M57.915,37.522V35.435a6.269,6.269,0,0,0-6.261-6.261H34.6a2.1,2.1,0,0,1-1.476-.612l-1.728-1.728A6.215,6.215,0,0,0,26.968,25H18.261A6.269,6.269,0,0,0,12,31.261V60.334l.031-.021a6.212,6.212,0,0,0,6.234,6.428H52.347a6.253,6.253,0,0,0,5.94-4.283l5.564-16.7a6.261,6.261,0,0,0-5.936-8.242ZM18.261,29.174h8.707a2.1,2.1,0,0,1,1.476.612l1.728,1.728A6.215,6.215,0,0,0,34.6,33.348H51.654a2.089,2.089,0,0,1,2.087,2.087v2.087H23.829A6.253,6.253,0,0,0,17.89,41.8l-1.716,5.149V31.261A2.089,2.089,0,0,1,18.261,29.174Zm41.63,15.269-5.564,16.7a2.089,2.089,0,0,1-1.981,1.428H18.265a2.09,2.09,0,0,1-1.983-2.749l5.564-16.7a2.089,2.089,0,0,1,1.981-1.428H57.909a2.09,2.09,0,0,1,1.983,2.749Z" transform="translate(13.045 23.915)" fill="#006ce5" stroke="#fff" stroke-width="0.5"/>
  </g>
</svg>
