<svg xmlns="http://www.w3.org/2000/svg" width="34.008" height="37.047" viewBox="0 0 34.008 37.047">
  <g id="Group_26774" data-name="Group 26774" transform="translate(-21)">
    <path id="Path_82001" data-name="Path 82001" d="M39.09,31.471V29.812H36.919v1.659a2.894,2.894,0,1,0,2.171,0Zm11.215-.212a2.887,2.887,0,0,0-2.129.937L45.6,31.23V29.812H43.431v2.171a1.085,1.085,0,0,0,.7,1.016l3.277,1.229a2.894,2.894,0,1,0,2.892-2.969ZM39.09,2.386v-1.3a1.085,1.085,0,1,0-2.171,0v1.3a8.344,8.344,0,0,0-6.948,6.08H46.038A8.344,8.344,0,0,0,39.09,2.386ZM23.533,14.978H52.476a1.085,1.085,0,1,0,0-2.171h-.362V11.722a1.085,1.085,0,0,0-1.085-1.085H24.98a1.085,1.085,0,0,0-1.085,1.085v1.085h-.362a1.085,1.085,0,1,0,0,2.171Zm5.427,2.171h2.894V27.641H28.959Zm10.13,0h2.894V27.641H39.09Zm-5.065,0h2.894V27.641H34.024Zm19.9,8.321H52.114V17.149H49.22V27.641h4.7a1.085,1.085,0,0,0,0-2.171ZM26.789,17.149H23.894V25.47H22.085a1.085,1.085,0,1,0,0,2.171h4.7Zm17.366,0h2.894V27.641H44.155ZM30.407,31.23l-2.574.965a2.893,2.893,0,1,0,.763,2.032L31.873,33a1.085,1.085,0,0,0,.7-1.016V29.812H30.407Z" fill="#006ce5"/>
  </g>
</svg>
