<svg xmlns="http://www.w3.org/2000/svg" width="48.168" height="48.168" viewBox="0 0 48.168 48.168">
  <g id="Group_11654" data-name="Group 11654" transform="translate(-1126.5 -2049.7)">
    <g id="Group_11653" data-name="Group 11653" transform="translate(1126.5 2049.7)">
      <path id="Path_65955" data-name="Path 65955" d="M1126.5,2097.868V2049.7h48.168v48.168Zm39.99-10.989h-36.916a2.831,2.831,0,0,0-3,3v2.07a2.87,2.87,0,0,0,3.186,3.2h36.716c0,.339-.012.627,0,.928a1.572,1.572,0,0,0,1.054,1.518,1.548,1.548,0,0,0,1.781-.339c1.643-1.706,3.261-3.412,4.88-5.143a1.592,1.592,0,0,0,0-2.183q-2.408-2.6-4.88-5.143a1.528,1.528,0,0,0-1.781-.339,1.558,1.558,0,0,0-1.041,1.48C1166.477,2086.228,1166.49,2086.529,1166.49,2086.88Zm-13.6-25.69a.79.79,0,0,1,.176,0,13.119,13.119,0,0,1,10.7,12.306,12.979,12.979,0,0,1-5.218,11.1c-.263.2-.5.414-.376.778s.427.4.765.4c1.882,0,3.763-.012,5.632,0a.836.836,0,0,0,.941-.677,2.8,2.8,0,0,1,3.813-1.656c.728.326.891.263,1.217-.477a21.479,21.479,0,0,0,1.493-12.9,21.945,21.945,0,0,0-16.972-17.273c-.715-.151-1.43-.251-2.17-.389v-.828a1.634,1.634,0,0,0-1.066-1.618,1.6,1.6,0,0,0-1.856.4q-2.521,2.653-5.03,5.319a1.6,1.6,0,0,0-.025,2.258c1.681,1.806,3.387,3.6,5.093,5.394a1.55,1.55,0,0,0,1.819.364,1.624,1.624,0,0,0,1.054-1.581C1152.892,2061.817,1152.892,2061.5,1152.892,2061.19Zm-15.354,24.561h3.236c.564,0,1.129.038,1.693-.013a.822.822,0,0,0,.6-.376c.063-.176-.138-.451-.238-.677-.038-.075-.151-.113-.213-.176-4.1-3.387-5.833-7.715-4.842-12.958a12.659,12.659,0,0,1,7.915-9.609c.753-.326.828-.64.263-1.242-.627-.665-1.254-1.3-1.869-1.982a2.779,2.779,0,0,1,.013-3.763,4.121,4.121,0,0,0,.627-.7.826.826,0,0,0,.063-.7c-.075-.15-.414-.163-.64-.226-.063-.012-.151.038-.226.063a21.791,21.791,0,0,0-11.992,31.874.9.9,0,0,0,.866.5C1134.377,2085.751,1135.958,2085.751,1137.539,2085.751Zm11.214-12.281c-.589-.627-1.141-1.254-1.744-1.819a2.7,2.7,0,0,0-3.8,3.826c1.217,1.254,2.459,2.5,3.713,3.713a2.58,2.58,0,0,0,3.575.05c2.521-2.345,5-4.716,7.489-7.1a2.472,2.472,0,0,0,.753-2.133,2.56,2.56,0,0,0-1.719-2.258,2.589,2.589,0,0,0-2.835.564c-1.317,1.217-2.609,2.471-3.914,3.713C1149.806,2072.479,1149.317,2072.944,1148.753,2073.47Z" transform="translate(-1126.5 -2049.7)" fill="none"/>
      <path id="Path_65956" data-name="Path 65956" d="M1167.015,2328.039c0-.351-.013-.665,0-.966a1.574,1.574,0,0,1,1.041-1.48,1.528,1.528,0,0,1,1.781.339c1.643,1.706,3.261,3.412,4.88,5.143a1.592,1.592,0,0,1,0,2.183q-2.408,2.6-4.88,5.143a1.548,1.548,0,0,1-1.781.339,1.572,1.572,0,0,1-1.054-1.518c-.012-.289,0-.59,0-.928h-36.716a2.865,2.865,0,0,1-3.186-3.2v-2.07a2.812,2.812,0,0,1,3-3h36.3C1166.588,2328.039,1166.776,2328.039,1167.015,2328.039Z" transform="translate(-1127.025 -2290.859)" fill="#006ce5"/>
      <path id="Path_65957" data-name="Path 65957" d="M1278.205,2062.062c0,.313.013.627,0,.928a1.647,1.647,0,0,1-1.054,1.581,1.55,1.55,0,0,1-1.819-.364c-1.706-1.781-3.412-3.575-5.093-5.394a1.6,1.6,0,0,1,.025-2.258q2.5-2.672,5.03-5.319a1.594,1.594,0,0,1,1.856-.4,1.634,1.634,0,0,1,1.066,1.618v.828c.74.125,1.455.238,2.17.389a21.911,21.911,0,0,1,16.972,17.273,21.586,21.586,0,0,1-1.493,12.9c-.326.728-.489.79-1.217.477a2.8,2.8,0,0,0-3.813,1.656.826.826,0,0,1-.941.677c-1.882-.025-3.751-.012-5.632,0-.339,0-.64-.038-.765-.4s.125-.564.376-.778a12.965,12.965,0,0,0,5.218-11.1,13.119,13.119,0,0,0-10.7-12.305A.923.923,0,0,0,1278.205,2062.062Z" transform="translate(-1251.813 -2050.572)" fill="#006ce5"/>
      <path id="Path_65958" data-name="Path 65958" d="M1153.846,2111.012c-1.581,0-3.161-.013-4.742.012a.9.9,0,0,1-.865-.5,21.788,21.788,0,0,1,11.992-31.874c.075-.025.163-.075.226-.063.226.05.552.075.64.226a.826.826,0,0,1-.063.7,4.669,4.669,0,0,1-.627.7,2.779,2.779,0,0,0-.013,3.763c.6.677,1.242,1.317,1.869,1.982.564.6.489.916-.263,1.242a12.679,12.679,0,0,0-7.915,9.608c-1,5.243.728,9.571,4.842,12.958.075.063.188.1.213.176.113.226.3.5.238.677a.822.822,0,0,1-.6.376c-.565.05-1.129.013-1.693.013Z" transform="translate(-1142.807 -2074.961)" fill="#006ce5"/>
      <path id="Path_65959" data-name="Path 65959" d="M1260.148,2198.008c.564-.527,1.054-.978,1.53-1.442,1.3-1.242,2.6-2.484,3.914-3.713a2.634,2.634,0,0,1,2.835-.564,2.542,2.542,0,0,1,1.719,2.258,2.46,2.46,0,0,1-.753,2.132q-3.726,3.575-7.489,7.1a2.58,2.58,0,0,1-3.575-.05c-1.267-1.217-2.5-2.458-3.713-3.713a2.7,2.7,0,0,1,3.8-3.826C1259.007,2196.753,1259.559,2197.381,1260.148,2198.008Z" transform="translate(-1237.896 -2174.238)" fill="#006ce5"/>
    </g>
  </g>
</svg>
