<svg xmlns="http://www.w3.org/2000/svg" width="39.603" height="38.414" viewBox="0 0 39.603 38.414">
  <g id="Group_26619" data-name="Group 26619" transform="translate(-22 -29.02)">
    <path id="Path_81767" data-name="Path 81767" d="M41.8,39.358a9.463,9.463,0,0,1,7.087,15.734,2.248,2.248,0,0,0-.582,1.407l-.14,2.4a1.312,1.312,0,0,1-1.309,1.235h-2.7V51.358h1.292a2.308,2.308,0,1,0-2.308-2.308v1.292H40.459V49.05a2.308,2.308,0,1,0-2.308,2.308h1.292v8.778h-2.7A1.312,1.312,0,0,1,35.437,58.9l-.14-2.4a2.245,2.245,0,0,0-.582-1.407A9.463,9.463,0,0,1,41.8,39.358Zm2.358,9.692v1.292h1.292a1.292,1.292,0,1,0-1.292-1.292Zm-1.015,2.308H40.459v8.778h2.685Zm-3.7-1.015V49.05a1.292,1.292,0,1,0-1.292,1.292Zm6.519,10.808H37.639v2.609a.11.11,0,0,0,.108.109h8.1a.111.111,0,0,0,.109-.109V61.151ZM44,64.884H39.6v.446a2.2,2.2,0,0,0,4.4,0Zm7.36-6.351v4.225l1.945,1.773a.583.583,0,0,0,.806-.019l3.381-3.381a.581.581,0,0,0,.019-.8l-1.923-2.111a.507.507,0,0,1-.052-.615,16.157,16.157,0,0,0,2.185-5.275.508.508,0,0,1,.472-.4l2.853-.133a.582.582,0,0,0,.556-.582V46.43a.583.583,0,0,0-.556-.583l-2.853-.132a.508.508,0,0,1-.472-.4,16.142,16.142,0,0,0-2.185-5.275.508.508,0,0,1,.052-.616l1.923-2.11a.582.582,0,0,0-.019-.806l-3.381-3.381a.582.582,0,0,0-.806-.019L51.2,35.034a.508.508,0,0,1-.616.052A16.157,16.157,0,0,0,45.306,32.9a.509.509,0,0,1-.4-.473l-.133-2.853a.582.582,0,0,0-.582-.556H39.411a.582.582,0,0,0-.583.556L38.7,32.428a.509.509,0,0,1-.4.473,16.138,16.138,0,0,0-5.275,2.185.508.508,0,0,1-.616-.052L30.3,33.11a.581.581,0,0,0-.806.019L26.108,36.51a.582.582,0,0,0-.019.806l1.923,2.11a.508.508,0,0,1,.052.616,16.175,16.175,0,0,0-2.185,5.275.508.508,0,0,1-.472.4l-2.853.132A.582.582,0,0,0,22,46.43v4.781a.582.582,0,0,0,.556.582l2.853.133a.508.508,0,0,1,.472.4A16.157,16.157,0,0,0,28.065,57.6a.507.507,0,0,1-.052.615L26.09,60.326a.581.581,0,0,0,.019.8l3.381,3.381a.583.583,0,0,0,.806.019l1.945-1.773V58.534l-.076-.076a13.63,13.63,0,1,1,19.275,0l-.076.075Z" transform="translate(0)" fill="#006ce5" fill-rule="evenodd"/>
  </g>
</svg>
