<svg xmlns="http://www.w3.org/2000/svg" width="47.114" height="38.243" viewBox="0 0 47.114 38.243">
  <g id="Group_26614" data-name="Group 26614" transform="translate(0 -48.2)">
    <path id="Path_81761" data-name="Path 81761" d="M20.6,51.157H14.686a1.38,1.38,0,0,0-1.38,1.38v5.914a1.38,1.38,0,0,0,1.38,1.38H20.6a1.38,1.38,0,0,0,1.38-1.38V52.537A1.38,1.38,0,0,0,20.6,51.157Zm-.1,19.122V64.365a1.38,1.38,0,0,0-1.38-1.38H13.208a1.38,1.38,0,0,0-1.38,1.38v5.914a1.38,1.38,0,0,0,1.38,1.38h5.914A1.38,1.38,0,0,0,20.5,70.279Zm.1,4.534H14.686a1.38,1.38,0,0,0-1.38,1.38v5.914a1.38,1.38,0,0,0,1.38,1.38H20.6a1.38,1.38,0,0,0,1.38-1.38V76.192A1.38,1.38,0,0,0,20.6,74.812ZM7.294,68.9H1.38A1.38,1.38,0,0,0,0,70.279v5.914a1.38,1.38,0,0,0,1.38,1.38H7.294a1.38,1.38,0,0,0,1.38-1.38V70.279A1.38,1.38,0,0,0,7.294,68.9Zm0-11.828H1.38A1.38,1.38,0,0,0,0,58.451v5.914a1.38,1.38,0,0,0,1.38,1.38H7.294a1.38,1.38,0,0,0,1.38-1.38V58.451A1.38,1.38,0,0,0,7.294,57.071ZM46.632,72.264l-3.381-2.9a14.861,14.861,0,0,0,0-4.084l3.381-2.9a1.38,1.38,0,0,0,.3-1.738L43.6,54.88a1.381,1.381,0,0,0-1.654-.612l-4.205,1.479A14.56,14.56,0,0,0,34.21,53.7l-.821-4.377A1.38,1.38,0,0,0,32.032,48.2H26.514a1.38,1.38,0,0,0-1.38,1.38v10.68a1.38,1.38,0,0,0,1.789,1.318,6.013,6.013,0,1,1,0,11.486,1.38,1.38,0,0,0-1.789,1.318v10.68a1.38,1.38,0,0,0,1.38,1.38h5.518a1.38,1.38,0,0,0,1.357-1.126l.821-4.377A14.564,14.564,0,0,0,37.744,78.9l4.205,1.479a1.381,1.381,0,0,0,1.654-.612L46.929,74A1.38,1.38,0,0,0,46.632,72.264Z" transform="translate(0 0)" fill="#006ce5"/>
  </g>
</svg>
