<svg xmlns="http://www.w3.org/2000/svg" width="36.456" height="38.887" viewBox="0 0 36.456 38.887">
  <g id="Group_26778" data-name="Group 26778" transform="translate(-1)">
    <g id="business_report" data-name="business report" transform="translate(1)">
      <path id="Path_82010" data-name="Path 82010" d="M24.378,36.632a2.418,2.418,0,0,1-1.908.924H13.4a2.418,2.418,0,0,1-1.908-.924,2.394,2.394,0,0,1-.462-2.066l.729-3.087H24.11l.729,3.087a2.385,2.385,0,0,1-.462,2.066ZM11.861,8.391h2.207a3.64,3.64,0,0,0-2.207-2.207Zm-1.215,2.43A1.215,1.215,0,0,1,9.431,9.606V6.184a3.637,3.637,0,1,0,4.637,4.637Z" transform="translate(0.291 1.331)" fill="#006ce5"/>
      <path id="Path_82011" data-name="Path 82011" d="M33.811,0H4.646A3.649,3.649,0,0,0,1,3.646V26.735A3.649,3.649,0,0,0,4.646,30.38H33.811a3.649,3.649,0,0,0,3.646-3.646V3.646A3.649,3.649,0,0,0,33.811,0ZM15.583,25.519H7.076a1.215,1.215,0,0,1,0-2.43h8.506a1.215,1.215,0,0,1,0,2.43Zm0-3.646H7.076a1.215,1.215,0,0,1,0-2.43h8.506a1.215,1.215,0,0,1,0,2.43Zm-3.646-4.861a6.076,6.076,0,1,1,6.076-6.076A6.076,6.076,0,0,1,11.937,17.013Zm20.637,7.3a1.215,1.215,0,0,1-1.215,1.21H20.443A1.215,1.215,0,0,1,19.228,24.3V20.659a1.215,1.215,0,0,1,2.43,0v2.43h1.161V19.443a1.215,1.215,0,0,1,2.43,0v3.646h1.27V21.874a1.215,1.215,0,0,1,2.43,0v1.215h1.2l.017-4.866a1.215,1.215,0,0,1,1.215-1.21h0a1.215,1.215,0,0,1,1.21,1.22ZM31.38,14.583H22.874a1.215,1.215,0,0,1,0-2.43H31.38a1.215,1.215,0,0,1,0,2.43Zm0-3.646H22.874a1.215,1.215,0,0,1,0-2.43H31.38a1.215,1.215,0,0,1,0,2.43Zm0-3.646H22.874a1.215,1.215,0,0,1,0-2.43H31.38a1.215,1.215,0,0,1,0,2.43Z" transform="translate(-1)" fill="#006ce5"/>
    </g>
  </g>
</svg>
