<svg xmlns="http://www.w3.org/2000/svg" width="110.879" height="109.099" viewBox="0 0 110.879 109.099">
  <g id="Group_26624" data-name="Group 26624" transform="translate(-4 -4.454)">
    <path id="Path_81775" data-name="Path 81775" d="M4.659,101.229a1.98,1.98,0,0,0,2.8-.154l9.39-10.487a40.985,40.985,0,0,0,6.541-9.874l1.208-2.572a14.2,14.2,0,0,1,9.238-7.7l1.869-.5a38.061,38.061,0,0,1,9.753-1.271H66.015a4.271,4.271,0,0,1,0,8.543h-15.5a1.98,1.98,0,1,0,0,3.96h15.5a8.212,8.212,0,0,0,6.677-3.454L86.66,77.2a11.452,11.452,0,0,0,7.6-3.271L105.27,63.149a3.333,3.333,0,1,1,4.513,4.9L86.333,88.379a15.321,15.321,0,0,1-7.953,3.61L57.31,94.906a19.43,19.43,0,0,0-12.9,7.668L38.644,110.4a1.981,1.981,0,0,0,3.188,2.353l5.768-7.822a15.46,15.46,0,0,1,10.252-6.1l21.07-2.915a19.268,19.268,0,0,0,10.006-4.539L112.377,71.04a7.277,7.277,0,0,0-9.264-11.22,6.3,6.3,0,0,0-1.553-2.357,6.57,6.57,0,0,0-8.674-.111L92.5,57.7a6.382,6.382,0,0,0-1.578-2.366,6.511,6.511,0,0,0-8.67-.107L70.326,65.965a8.151,8.151,0,0,0-4.311-1.25H45.455a42.069,42.069,0,0,0-10.767,1.4l-1.871.5a18.151,18.151,0,0,0-11.8,9.842L19.8,79.028a37.041,37.041,0,0,1-5.909,8.917L4.5,98.433a1.98,1.98,0,0,0,.154,2.8ZM95.533,60.3a2.529,2.529,0,0,1,3.321.059,2.37,2.37,0,0,1,.747,1.709,2.406,2.406,0,0,1-.7,1.76L91.489,71.1a7.505,7.505,0,0,1-4.978,2.145l-5.578.21ZM84.921,58.154A2.442,2.442,0,0,1,88.7,61.111l-.006.024L74.762,73.686l-.59.02c.024-.251.077-.5.077-.758a8.139,8.139,0,0,0-1.16-4.139Zm-21.775-7.66a2.63,2.63,0,0,0,2.877-.572L73.8,42.15h31.112a6.357,6.357,0,0,0,6.349-6.349v-25a6.357,6.357,0,0,0-6.349-6.349H56.578A6.357,6.357,0,0,0,50.227,10.8v25a6.357,6.357,0,0,0,6.351,6.349h4.941v5.907A2.634,2.634,0,0,0,63.146,50.5ZM56.578,38.19a2.39,2.39,0,0,1-2.39-2.388v-25a2.39,2.39,0,0,1,2.39-2.388h48.33A2.39,2.39,0,0,1,107.3,10.8v25a2.39,2.39,0,0,1-2.388,2.388H73.249a2.642,2.642,0,0,0-1.867.772l-5.9,5.905V40.831a2.642,2.642,0,0,0-2.64-2.64Z" transform="translate(0 0)" fill="#006ce5"/>
    <path id="Path_81776" data-name="Path 81776" d="M37.217,17.237a2.184,2.184,0,1,0-2.186-2.184,2.184,2.184,0,0,0,2.186,2.184Zm13.107,0a2.184,2.184,0,1,0-2.184-2.184A2.184,2.184,0,0,0,50.324,17.237Zm13.107,0a2.184,2.184,0,1,0-2.184-2.184A2.184,2.184,0,0,0,63.432,17.237Z" transform="translate(30.418 8.249)" fill="#006ce5"/>
  </g>
</svg>
