<svg xmlns="http://www.w3.org/2000/svg" width="117.695" height="117.695" viewBox="0 0 117.695 117.695">
  <g id="Group_26623" data-name="Group 26623" transform="translate(-1 -1)">
    <path id="Path_81773" data-name="Path 81773" d="M103.509,84.537v-7.6a9.5,9.5,0,0,0-9.492-9.492H78.037a53.508,53.508,0,0,0,4.229-10.188L89.48,51.48a7.012,7.012,0,0,0-4.154-12.489l4.229-11.629A19.648,19.648,0,0,0,71.093,1H54.977a64.286,64.286,0,0,0-34.1,9.78,1.9,1.9,0,0,0,.406,3.417l4.577,1.519a4.875,4.875,0,0,1,2.984,6.433,8.671,8.671,0,0,0,.294,7.1l4.894,9.778A7,7,0,0,0,30.219,51.48l7.214,5.773a53.508,53.508,0,0,0,4.226,10.188H25.678a9.5,9.5,0,0,0-9.492,9.492v7.6A24.712,24.712,0,0,0,1,107.305V116.8a1.9,1.9,0,0,0,1.9,1.9H116.8a1.9,1.9,0,0,0,1.9-1.9v-9.492a24.712,24.712,0,0,0-15.186-22.768ZM75.034,38.966H63.644a1.9,1.9,0,0,0-1.9,1.9v1.9h-3.8v-1.9a1.9,1.9,0,0,0-1.9-1.9H38.966V36.185l11.849-7.9a15.481,15.481,0,0,1,8.615-2.608A19.386,19.386,0,0,0,71.5,21.443l3.1-2.481,3.256,4.886a17.026,17.026,0,0,1,2.87,9.476v5.642Zm-1.9,3.8v5.695a1.9,1.9,0,0,1-1.9,1.9h-3.8a1.9,1.9,0,0,1-1.9-1.9V42.763Zm-18.983,0v5.695a1.9,1.9,0,0,1-1.9,1.9h-3.8a1.9,1.9,0,0,1-1.9-1.9V42.763Zm34.17,3.227a3.216,3.216,0,0,1-1.211,2.521L83.67,51.263a53.42,53.42,0,0,0,.826-8.5h.6A3.227,3.227,0,0,1,88.322,45.99ZM32.366,23.56A8.671,8.671,0,0,0,27.06,12.115l-.581-.19A60.486,60.486,0,0,1,54.977,4.8H71.093a15.851,15.851,0,0,1,14.9,21.261l-1.65,4.537a20.817,20.817,0,0,0-3.322-8.861l-4.4-6.608a1.9,1.9,0,0,0-2.766-.429L69.13,18.48a15.6,15.6,0,0,1-9.7,3.4,19.272,19.272,0,0,0-10.722,3.246L36.014,33.59a1.883,1.883,0,0,0-.323.277l-3.159-6.319A4.873,4.873,0,0,1,32.366,23.56Zm.22,24.955A3.227,3.227,0,0,1,34.6,42.763h.6a53.421,53.421,0,0,0,.826,8.5ZM39,42.763h3.766v5.695a5.7,5.7,0,0,0,5.695,5.695h3.8a5.7,5.7,0,0,0,5.695-5.695v-1.9h3.8v1.9a5.7,5.7,0,0,0,5.695,5.695h3.8a5.7,5.7,0,0,0,5.695-5.695V42.763H80.7a49.7,49.7,0,0,1-7.045,24.678H46.041A49.7,49.7,0,0,1,39,42.763ZM25.678,71.238H94.017a5.7,5.7,0,0,1,5.695,5.695V114.9H19.983V76.932a5.7,5.7,0,0,1,5.695-5.695ZM4.8,107.305a20.912,20.912,0,0,1,11.39-18.59V114.9H4.8ZM114.9,114.9h-11.39V88.715a20.914,20.914,0,0,1,11.39,18.59Z" fill="#006ce5"/>
    <path id="Path_81774" data-name="Path 81774" d="M41.881,74.8a7.593,7.593,0,1,0-7.593-7.593A7.593,7.593,0,0,0,41.881,74.8Zm0-11.39a3.8,3.8,0,1,1-3.8,3.8A3.8,3.8,0,0,1,41.881,63.415ZM29.149,57.164l2.684-2.684-6.251-6.251,6.251-6.251-2.684-2.684-7.593,7.593a1.9,1.9,0,0,0,0,2.684Zm25.464,0,7.593-7.593a1.9,1.9,0,0,0,0-2.684l-7.593-7.593-2.684,2.684,6.251,6.251-6.251,6.251ZM34.668,54.681,46.058,39.5l3.037,2.278L37.7,56.961Z" transform="translate(17.966 34.399)" fill="#006ce5"/>
  </g>
</svg>
