<svg id="Group_26775" data-name="Group 26775" xmlns="http://www.w3.org/2000/svg" width="39.742" height="39.742" viewBox="0 0 39.742 39.742">
  <path id="Path_82002" data-name="Path 82002" d="M1.164,7.317H6.153A1.164,1.164,0,0,0,7.317,6.153V4.823h4.589l3.059,3.059V4.906A1.161,1.161,0,0,1,15,4.625L13.212,2.835a1.164,1.164,0,0,0-.823-.341H7.317V1.164A1.164,1.164,0,0,0,6.153,0H1.164A1.164,1.164,0,0,0,0,1.164V6.153A1.164,1.164,0,0,0,1.164,7.317ZM38.578,0H33.589a1.164,1.164,0,0,0-1.164,1.164v1.33H27.354a1.164,1.164,0,0,0-.823.341L24.741,4.625a1.161,1.161,0,0,1,.036.281V7.882l3.059-3.059h4.589v1.33a1.164,1.164,0,0,0,1.164,1.164h4.988a1.164,1.164,0,0,0,1.164-1.164V1.164A1.164,1.164,0,0,0,38.578,0ZM7.317,16.13V14.8h3.342l-.341-.341a1.167,1.167,0,0,1,.823-1.988H7.317v-1.33A1.164,1.164,0,0,0,6.153,9.977H1.164A1.164,1.164,0,0,0,0,11.141V16.13a1.164,1.164,0,0,0,1.164,1.164H6.153A1.164,1.164,0,0,0,7.317,16.13ZM38.578,9.977H33.589a1.164,1.164,0,0,0-1.164,1.164v1.33H28.6a1.167,1.167,0,0,1,.823,1.988l-.341.341h3.342v1.33a1.164,1.164,0,0,0,1.164,1.164h4.989a1.164,1.164,0,0,0,1.164-1.164V11.141A1.164,1.164,0,0,0,38.578,9.977ZM19.871,20.719,25.79,14.8H23.612a1.164,1.164,0,0,1-1.164-1.164V4.906a1.164,1.164,0,0,0-1.164-1.164H18.458a1.164,1.164,0,0,0-1.164,1.164v8.73A1.164,1.164,0,0,1,16.13,14.8H13.952Z" fill="#006ce5"/>
  <path id="Path_82003" data-name="Path 82003" d="M112.9,219.54l-2.338-4.051a1.164,1.164,0,0,0-1.395-.516l-2.857,1-.074-.055-3.6,3.6a5.528,5.528,0,1,1-5.435,0l-3.6-3.6-.074.055-2.857-1a1.164,1.164,0,0,0-1.395.516l-2.338,4.051a1.164,1.164,0,0,0,.25,1.466l2.3,1.97a10.622,10.622,0,0,0,0,2.713l-2.3,1.97a1.164,1.164,0,0,0-.25,1.466l2.338,4.051a1.164,1.164,0,0,0,1.395.516l2.857-1a10.434,10.434,0,0,0,2.348,1.358l.557,2.973a1.164,1.164,0,0,0,1.144.95h4.677a1.164,1.164,0,0,0,1.144-.95l.557-2.973a10.437,10.437,0,0,0,2.348-1.358l2.857,1a1.164,1.164,0,0,0,1.395-.516l2.338-4.051a1.164,1.164,0,0,0-.25-1.466l-2.3-1.97a10.621,10.621,0,0,0,0-2.713l2.3-1.97A1.164,1.164,0,0,0,112.9,219.54Z" transform="translate(-80.054 -198.225)" fill="#006ce5"/>
  <path id="Path_82004" data-name="Path 82004" d="M214.767,298.3a3.2,3.2,0,1,0,3.2-3.2A3.2,3.2,0,0,0,214.767,298.3Z" transform="translate(-198.096 -272.193)" fill="#006ce5"/>
</svg>
