<svg id="Group_26621" data-name="Group 26621" xmlns="http://www.w3.org/2000/svg" width="40" height="40" viewBox="0 0 40 40">
  <path id="Path_81770" data-name="Path 81770" d="M15.312,30.547c.414,0,.817-.072,1.226-.1-.029-.353-.054-.707-.054-1.067A12.905,12.905,0,0,1,29.375,16.484c.36,0,.714.025,1.067.054.033-.409.1-.812.1-1.226A15.319,15.319,0,0,0,15.312,0,15.386,15.386,0,0,0,0,15.312,15.319,15.319,0,0,0,15.312,30.547ZM14.141,4.766h2.344v9.375h9.375v2.344H14.141Zm0,0" fill="#fff"/>
  <path id="Path_81771" data-name="Path 81771" d="M251.547,241a10.586,10.586,0,0,0,0,21.172,10.586,10.586,0,1,0,0-21.172Zm-1.172,15.72-4.344-4.344,1.657-1.657,2.687,2.687,5.031-5.031,1.657,1.657Zm0,0" transform="translate(-222.172 -222.172)" fill="#fff"/>
</svg>
