<svg xmlns="http://www.w3.org/2000/svg" width="40" height="47.33" viewBox="0 0 40 47.33">
  <g id="Group_26622" data-name="Group 26622" transform="translate(-39.62)">
    <path id="Path_81772" data-name="Path 81772" d="M51.568,27.905,56.749,47.33,39.62,27.905Zm.1-2.775H39.62l7.919-7.919a1.39,1.39,0,0,1,.981-.406h7.9Zm12.71,0H54.863l4.757-8.325Zm.423,2.775L59.62,47.33,54.44,27.905Zm2.773-2.775-4.757-8.325h7.9a1.39,1.39,0,0,1,.981.406L79.62,25.13Zm.1,2.775H79.62L62.491,47.33ZM59.62,7.912a1.388,1.388,0,0,1-1.387-1.387V1.387a1.387,1.387,0,0,1,2.775,0V6.524A1.387,1.387,0,0,1,59.62,7.912ZM45.828,10.776,43.26,6.328a1.387,1.387,0,0,1,2.4-1.387l2.568,4.448a1.387,1.387,0,1,1-2.4,1.387Zm25.689.508a1.387,1.387,0,0,1-.508-1.9l2.568-4.448a1.387,1.387,0,1,1,2.4,1.387l-2.568,4.448A1.387,1.387,0,0,1,71.517,11.284Z" fill="#fff"/>
  </g>
</svg>
