<svg xmlns="http://www.w3.org/2000/svg" width="95.924" height="95.433" viewBox="0 0 95.924 95.433">
  <path id="Path_82012" data-name="Path 82012" d="M94.149,46.866a5.872,5.872,0,0,0-7.855-.707L67.613,60.191a5.7,5.7,0,0,0-1.432-.534L40.7,53.864a14.492,14.492,0,0,0-11.817,2.32L16.541,64.835l-.94-1.416A1.5,1.5,0,0,0,13.523,63L.669,71.537A1.5,1.5,0,0,0,.25,73.615L15.155,96.056a1.5,1.5,0,0,0,2.078.419l12.853-8.538A1.5,1.5,0,0,0,30.5,85.86l-.951-1.432,6.163-4.7L61.378,83.3A8.009,8.009,0,0,0,68.27,81L94.178,55.256a5.865,5.865,0,0,0,.17-8.175ZM16.822,93.149,3.576,73.2l10.357-6.879L27.18,86.27ZM92.066,53.13,66.158,78.878a5.008,5.008,0,0,1-4.365,1.456l-26.28-3.66a1.5,1.5,0,0,0-1.115.292l-6.505,4.959L18.2,67.332l12.408-8.694a11.42,11.42,0,0,1,9.432-1.851l25.478,5.793a2.707,2.707,0,0,1,2.033,3.23l-.03.131a2.709,2.709,0,0,1-3.191,2.042L46.18,64.133a1.5,1.5,0,1,0-.622,2.932l18.149,3.849a5.719,5.719,0,0,0,6.736-4.309l.03-.131a5.654,5.654,0,0,0-.666-4.181L88.095,48.556a2.882,2.882,0,0,1,3.855.347l.2.215a2.879,2.879,0,0,1-.083,4.012ZM49,21.989q-.337.718-.608,1.466l-4.253,1.084a1.5,1.5,0,0,0-1.129,1.452V32.63a1.5,1.5,0,0,0,1.128,1.452l4.249,1.084q.267.738.6,1.451L46.739,40.4a1.5,1.5,0,0,0,.229,1.825l4.694,4.695a1.5,1.5,0,0,0,1.825.229l3.77-2.238q.712.337,1.452.606L59.8,49.782a1.5,1.5,0,0,0,1.452,1.129h6.64a1.5,1.5,0,0,0,1.452-1.128l1.078-4.229q.752-.269,1.477-.607l3.765,2.235a1.5,1.5,0,0,0,1.825-.229l4.694-4.694a1.5,1.5,0,0,0,.229-1.825L80.193,36.7q.348-.734.627-1.5l4.22-1.076a1.5,1.5,0,0,0,1.128-1.452v-6.64A1.5,1.5,0,0,0,85.04,24.58l-4.191-1.068q-.277-.773-.627-1.519l2.216-3.733a1.5,1.5,0,0,0-.229-1.825l-4.694-4.7a1.5,1.5,0,0,0-1.825-.229l-3.722,2.211q-.741-.35-1.513-.629L69.382,8.881A1.5,1.5,0,0,0,67.93,7.753H61.291a1.5,1.5,0,0,0-1.452,1.128l-1.074,4.211q-.759.274-1.492.618l-3.755-2.229a1.5,1.5,0,0,0-1.825.229L47,16.405a1.5,1.5,0,0,0-.229,1.825Zm3-.826L49.941,17.7l3.048-3.048,3.458,2.053a1.5,1.5,0,0,0,1.47.034,14.183,14.183,0,0,1,2.534-1.051,1.5,1.5,0,0,0,1.015-1.063l.988-3.876h4.311l.988,3.876a1.5,1.5,0,0,0,1.015,1.063,14.17,14.17,0,0,1,2.552,1.061,1.5,1.5,0,0,0,1.472-.033l3.426-2.034,3.048,3.048-2.039,3.435a1.5,1.5,0,0,0-.034,1.469,14.189,14.189,0,0,1,1.055,2.559,1.5,1.5,0,0,0,1.064,1.019l3.858.984v4.31l-3.882.99a1.5,1.5,0,0,0-1.062,1.012,14.184,14.184,0,0,1-1.062,2.539,1.5,1.5,0,0,0,.031,1.475l2.042,3.439-3.048,3.048-3.466-2.057a1.5,1.5,0,0,0-1.466-.036,14.193,14.193,0,0,1-2.523,1.037,1.5,1.5,0,0,0-1.019,1.064l-.993,3.9H62.414l-1-3.924a1.5,1.5,0,0,0-1.01-1.062,14.175,14.175,0,0,1-2.5-1.043,1.5,1.5,0,0,0-1.472.033L52.959,43.98l-3.048-3.048,2.07-3.487a1.5,1.5,0,0,0,.035-1.467,14.208,14.208,0,0,1-1.033-2.5,1.5,1.5,0,0,0-1.063-1.015l-3.913-1v-4.31l3.917-1a1.5,1.5,0,0,0,1.063-1.014,14.172,14.172,0,0,1,1.042-2.51A1.5,1.5,0,0,0,52,21.163ZM64.59,38.411a9.079,9.079,0,1,0-9.079-9.079,9.079,9.079,0,0,0,9.079,9.079Zm0-15.161a6.082,6.082,0,1,1-6.082,6.082A6.082,6.082,0,0,1,64.59,23.25ZM12.345,42.088l2.55.65q.1.253.206.5l-1.349,2.273a1.5,1.5,0,0,0,.229,1.825l3.1,3.1a1.5,1.5,0,0,0,1.825.229l2.261-1.343q.249.11.5.209l.653,2.56a1.5,1.5,0,0,0,1.452,1.129h4.386a1.5,1.5,0,0,0,1.452-1.128l.646-2.536q.261-.1.517-.213l2.26,1.342a1.5,1.5,0,0,0,1.825-.229l3.1-3.1a1.5,1.5,0,0,0,.229-1.825l-1.328-2.237q.118-.264.223-.533l2.531-.646a1.5,1.5,0,0,0,1.128-1.452V36.276a1.5,1.5,0,0,0-1.128-1.452l-2.51-.64q-.106-.275-.225-.546L38.213,31.4a1.5,1.5,0,0,0-.229-1.825l-3.1-3.1a1.5,1.5,0,0,0-1.825-.229l-2.229,1.324q-.269-.119-.542-.225l-.644-2.525a1.5,1.5,0,0,0-1.452-1.129H23.8a1.5,1.5,0,0,0-1.452,1.128l-.644,2.525q-.266.1-.528.219l-2.252-1.337a1.5,1.5,0,0,0-1.825.228l-3.1,3.1a1.5,1.5,0,0,0-.229,1.825l1.339,2.255q-.112.253-.212.51l-2.552.651a1.5,1.5,0,0,0-1.128,1.452v4.386A1.5,1.5,0,0,0,12.345,42.088Zm1.868-4.675,2.205-.562a1.5,1.5,0,0,0,1.063-1.014,8.865,8.865,0,0,1,.651-1.569A1.5,1.5,0,0,0,18.1,32.8l-1.156-1.947L18.4,29.4l1.945,1.155a1.5,1.5,0,0,0,1.47.034,8.859,8.859,0,0,1,1.584-.657,1.5,1.5,0,0,0,1.016-1.063l.555-2.178h2.058l.555,2.178A1.5,1.5,0,0,0,28.6,29.928a8.859,8.859,0,0,1,1.594.663,1.5,1.5,0,0,0,1.472-.033l1.924-1.143,1.455,1.455L33.895,32.8a1.5,1.5,0,0,0-.034,1.469,8.868,8.868,0,0,1,.659,1.6,1.5,1.5,0,0,0,1.064,1.019l2.166.552V39.5l-2.182.557a1.5,1.5,0,0,0-1.062,1.012,8.865,8.865,0,0,1-.664,1.587,1.5,1.5,0,0,0,.031,1.474l1.147,1.933-1.455,1.455-1.95-1.158a1.5,1.5,0,0,0-1.466-.036,8.875,8.875,0,0,1-1.576.648,1.5,1.5,0,0,0-1.019,1.064L27,50.225H24.94l-.563-2.21a1.5,1.5,0,0,0-1.01-1.062,8.853,8.853,0,0,1-1.561-.652,1.5,1.5,0,0,0-1.472.033L18.378,47.5l-1.455-1.455,1.166-1.964a1.5,1.5,0,0,0,.035-1.467,8.871,8.871,0,0,1-.645-1.561,1.5,1.5,0,0,0-1.063-1.015l-2.2-.562Zm11.768,7.55a6.507,6.507,0,1,0-6.507-6.507,6.507,6.507,0,0,0,6.507,6.507Zm0-10.017a3.51,3.51,0,1,1-3.51,3.51,3.51,3.51,0,0,1,3.51-3.51ZM24.958,15.262l1.574.4L25.7,17.068a1.5,1.5,0,0,0,.229,1.825l2.212,2.212a1.5,1.5,0,0,0,1.825.229l1.4-.83.4,1.584a1.5,1.5,0,0,0,1.452,1.128h3.129A1.5,1.5,0,0,0,37.8,22.089l.4-1.575,1.405.834a1.5,1.5,0,0,0,1.825-.229l2.213-2.212a1.5,1.5,0,0,0,.229-1.825l-.83-1.4,1.584-.4a1.5,1.5,0,0,0,1.128-1.452V10.7a1.5,1.5,0,0,0-1.128-1.452l-1.575-.4.834-1.405a1.5,1.5,0,0,0-.229-1.825L41.443,3.4a1.5,1.5,0,0,0-1.825-.229L38.221,4l-.4-1.584a1.5,1.5,0,0,0-1.452-1.128H33.236a1.5,1.5,0,0,0-1.452,1.128L31.383,4l-1.405-.834a1.5,1.5,0,0,0-1.825.229L25.941,5.6a1.5,1.5,0,0,0-.229,1.825l.83,1.4-1.584.4a1.5,1.5,0,0,0-1.129,1.452V13.81a1.5,1.5,0,0,0,1.128,1.452Zm1.869-3.417,1.25-.318a1.5,1.5,0,0,0,1.063-1.014,5.9,5.9,0,0,1,.433-1.043A1.5,1.5,0,0,0,29.538,8l-.654-1.1.566-.566,1.1.653a1.5,1.5,0,0,0,1.47.034,5.9,5.9,0,0,1,1.053-.437A1.5,1.5,0,0,0,34.088,5.52L34.4,4.29h.8l.314,1.23A1.5,1.5,0,0,0,36.53,6.583a5.9,5.9,0,0,1,1.06.441,1.5,1.5,0,0,0,1.472-.033l1.085-.644.566.566L40.067,8a1.5,1.5,0,0,0-.034,1.469,5.889,5.889,0,0,1,.438,1.063,1.5,1.5,0,0,0,1.064,1.019l1.221.312v.8l-1.233.314a1.5,1.5,0,0,0-1.062,1.012,5.89,5.89,0,0,1-.441,1.054,1.5,1.5,0,0,0,.031,1.475l.648,1.091-.566.566-1.1-.656a1.5,1.5,0,0,0-1.466-.036,5.892,5.892,0,0,1-1.048.431A1.5,1.5,0,0,0,35.5,18.981l-.316,1.24h-.8l-.319-1.253a1.5,1.5,0,0,0-1.01-1.062,5.91,5.91,0,0,1-1.037-.433,1.5,1.5,0,0,0-1.472.033l-1.108.658L28.87,17.6l.661-1.114a1.5,1.5,0,0,0,.035-1.467,5.884,5.884,0,0,1-.429-1.038,1.5,1.5,0,0,0-1.063-1.015l-1.248-.318Zm7.965,5.481a5.071,5.071,0,1,0-5.072-5.071A5.071,5.071,0,0,0,34.792,17.326Zm0-7.145a2.074,2.074,0,1,1-2.074,2.074A2.074,2.074,0,0,1,34.792,10.181Z" transform="translate(0.001 -1.293)" fill="#006ce5"/>
</svg>
