<svg xmlns="http://www.w3.org/2000/svg" width="70.378" height="61.594" viewBox="0 0 70.378 61.594">
  <g id="android" transform="translate(-884.6 -373.595)">
    <path id="Path_65150" data-name="Path 65150" d="M890.015,1875.938a3.271,3.271,0,1,0,3.042,3.263,3.053,3.053,0,0,0-3.042-3.263m-.406-2.024a4.089,4.089,0,0,1,3.264,1.563v-1.36h2.242v10.178h-1.732a.513.513,0,0,1-.511-.51v-.849a4.06,4.06,0,0,1-3.264,1.563,5.307,5.307,0,0,1,0-10.584m8.053.2H899.9v1.375a3.494,3.494,0,0,1,3.091-1.581c2.362,0,3.891,1.665,3.891,4.248v6.133H905.17a.513.513,0,0,1-.511-.511v-5.25c0-1.615-.815-2.583-2.126-2.583-1.479,0-2.633,1.157-2.633,3.331v5.014h-1.716a.513.513,0,0,1-.51-.511Zm16.3,1.821A3.271,3.271,0,1,0,917,1879.2a3.053,3.053,0,0,0-3.042-3.263m-.409-2.024a4.089,4.089,0,0,1,3.263,1.563v-6.456h2.242v15.275h-1.716a.514.514,0,0,1-.511-.51v-.849a4.059,4.059,0,0,1-3.263,1.563,5.308,5.308,0,0,1-.015-10.584m8.056.2h2.242v1.818a2.878,2.878,0,0,1,2.685-1.919,3.743,3.743,0,0,1,.868.086v2.295a3.663,3.663,0,0,0-1.123-.187c-1.273,0-2.446,1.089-2.446,3.11v4.961h-1.719a.513.513,0,0,1-.511-.51v-9.652Zm11.824,8.293a3.214,3.214,0,1,0-3.076-3.211,3.062,3.062,0,0,0,3.076,3.211m0,2.091a5.284,5.284,0,1,1,.1,0h-.1m7.154-10.384h2.242v10.178h-1.716a.513.513,0,0,1-.51-.51Zm1.123-2.224a1.53,1.53,0,0,1-1.513-1.513,1.5,1.5,0,1,1,1.513,1.513m8.274,4.045a3.271,3.271,0,1,0,3.042,3.263,3.053,3.053,0,0,0-3.042-3.263m-.409-2.024a4.089,4.089,0,0,1,3.263,1.563v-6.456h2.242v15.275h-1.716a.513.513,0,0,1-.511-.51v-.849a4.06,4.06,0,0,1-3.264,1.563,5.308,5.308,0,0,1-.015-10.584" transform="translate(-0.097 -1449.312)" fill="#fff"/>
    <path id="Path_65151" data-name="Path 65151" d="M937.037,385.557l5.863-10.144a1.218,1.218,0,0,0-2.107-1.221l-5.93,10.264a36.728,36.728,0,0,0-30.11,0l-5.93-10.267a1.218,1.218,0,0,0-2.107,1.221l5.863,10.144A34.488,34.488,0,0,0,884.6,413.215h70.345a34.6,34.6,0,0,0-17.908-27.658ZM903.6,403.194a2.922,2.922,0,1,1,2.922-2.922h0A2.923,2.923,0,0,1,903.6,403.194Zm32.385,0a2.922,2.922,0,1,1,2.922-2.922,2.921,2.921,0,0,1-2.922,2.922Z" transform="translate(0 0)" fill="#fff"/>
  </g>
</svg>
