<svg xmlns="http://www.w3.org/2000/svg" width="99.482" height="87.064" viewBox="0 0 99.482 87.064">
  <g id="android" transform="translate(-884.6 -373.595)">
    <path id="Path_65150" data-name="Path 65150" d="M892.213,1878.848a4.624,4.624,0,1,0,4.3,4.613,4.316,4.316,0,0,0-4.3-4.613m-.574-2.861a5.781,5.781,0,0,1,4.613,2.208v-1.922h3.17v14.387h-2.448a.725.725,0,0,1-.722-.721v-1.2a5.739,5.739,0,0,1-4.613,2.209c-3.939,0-6.939-3.361-6.939-7.469s2.974-7.491,6.939-7.491m11.383.287h3.17v1.944a4.939,4.939,0,0,1,4.369-2.235c3.339,0,5.5,2.353,5.5,6v8.669h-2.426a.726.726,0,0,1-.722-.722v-7.422c0-2.282-1.152-3.652-3-3.652-2.091,0-3.721,1.635-3.721,4.708v7.087H903.76a.726.726,0,0,1-.722-.722Zm23.035,2.574a4.624,4.624,0,1,0,4.3,4.613,4.316,4.316,0,0,0-4.3-4.613m-.578-2.861a5.78,5.78,0,0,1,4.613,2.208v-9.125h3.17v21.591h-2.426a.726.726,0,0,1-.722-.721v-1.2a5.738,5.738,0,0,1-4.613,2.209c-3.939,0-6.939-3.361-6.939-7.469s2.979-7.491,6.918-7.491m11.387.287h3.17v2.57a4.069,4.069,0,0,1,3.8-2.713,5.283,5.283,0,0,1,1.226.122v3.244a5.18,5.18,0,0,0-1.587-.265c-1.8,0-3.457,1.539-3.457,4.4v7.013h-2.43a.725.725,0,0,1-.722-.721v-13.644ZM953.578,1888a4.544,4.544,0,1,0-4.348-4.539,4.328,4.328,0,0,0,4.348,4.539m0,2.956a7.47,7.47,0,1,1,.148,0h-.148m10.113-14.678h3.17v14.387h-2.426a.725.725,0,0,1-.722-.721Zm1.587-3.143a2.163,2.163,0,0,1-2.139-2.139,2.126,2.126,0,1,1,2.139,2.139m11.7,5.717a4.624,4.624,0,1,0,4.3,4.613c-.048-2.6-1.73-4.613-4.3-4.613m-.578-2.861a5.78,5.78,0,0,1,4.613,2.208v-9.125h3.17v21.591h-2.426a.725.725,0,0,1-.722-.721v-1.2a5.739,5.739,0,0,1-4.613,2.209c-3.939,0-6.939-3.361-6.939-7.469s2.978-7.491,6.917-7.491" transform="translate(-0.096 -1430.293)" fill="#3ddc84"/>
    <path id="Path_65151" data-name="Path 65151" d="M958.721,390.5l8.287-14.339a1.721,1.721,0,0,0-2.978-1.726l-8.383,14.509a51.916,51.916,0,0,0-42.561,0L904.7,374.434a1.721,1.721,0,0,0-2.979,1.726l8.287,14.339A48.75,48.75,0,0,0,884.6,429.6h99.434a48.908,48.908,0,0,0-25.313-39.1Zm-47.269,24.93a4.13,4.13,0,1,1,4.13-4.13h0A4.131,4.131,0,0,1,911.452,415.434Zm45.777,0a4.13,4.13,0,1,1,4.131-4.13,4.128,4.128,0,0,1-4.131,4.13Z" transform="translate(0)" fill="#3ddc84"/>
  </g>
</svg>
