<svg xmlns="http://www.w3.org/2000/svg" width="65.066" height="68.612" viewBox="0 0 65.066 68.612">
  <g id="_3alRW6.tif" data-name="3alRW6.tif" transform="translate(0 -0.006)">
    <path id="Path_64898" data-name="Path 64898" d="M1152.26,350.12a3,3,0,0,1,1-.83q15.33-5.44,30.7-10.79a2.94,2.94,0,0,1,1.77.07c10.12,3.45,20.22,6.95,30.35,10.38a1.46,1.46,0,0,1,1.17,1.91q-2.42,19.79-4.74,39.59a2.79,2.79,0,0,1-1.62,2.38q-12.5,6.84-24.93,13.81a2.14,2.14,0,0,1-2.4,0c-8.3-4.62-16.65-9.16-24.95-13.78a2.73,2.73,0,0,1-1.34-1.64c-1.67-13.44-3.27-26.9-4.88-40.35Zm61.87,2.22a5.081,5.081,0,0,0-1.29-.9q-13.54-4.67-27.11-9.25a3.919,3.919,0,0,0-2.37,0c-8.28,2.9-16.53,5.86-24.79,8.81-2.74,1-2.79,1-2.45,3.95q1.93,16.94,4,33.87a2.87,2.87,0,0,0,1.22,1.9q11.11,6.29,22.33,12.4a2.37,2.37,0,0,0,1.94,0c7.57-4.12,15.09-8.33,22.65-12.47a2.34,2.34,0,0,0,1.38-2c.28-2.79.68-5.56,1-8.34Z" transform="translate(-1152.26 -338.39)" fill="#fff"/>
    <path id="Path_64899" data-name="Path 64899" d="M1204.08,387.75c-2.07,0-3.88.06-5.68,0a1.75,1.75,0,0,1-1.16-.94q-1.7-3.67-3.23-7.42a1.61,1.61,0,0,0-1.73-1.18q-7.24.06-14.48,0a1.65,1.65,0,0,0-1.8,1.28c-.88,2.38-1.9,4.72-2.78,7.1a1.52,1.52,0,0,1-1.71,1.17c-1.81-.07-3.63,0-5.69,0l18.79-41.82Zm-25-15.28H1191l-6.35-13.25Z" transform="translate(-1152.26 -338.39)" fill="#fff"/>
  </g>
</svg>
