<svg xmlns="http://www.w3.org/2000/svg" width="230.961" height="59.904" viewBox="0 0 230.961 59.904">
  <g id="Group_26653" data-name="Group 26653" transform="translate(3573.518 19422)">
    <g id="Group_26650" data-name="Group 26650" transform="translate(-3500.821 -19401.537)">
      <path id="Path_81801" data-name="Path 81801" d="M41.939,302.022a1.108,1.108,0,0,1-.949-.425L30.217,287.429V301.88H27.76V284.086a1.278,1.278,0,0,1,1.257-1.275,1.12,1.12,0,0,1,.976.453L40.738,297.4V283.009h2.456v17.765a1.236,1.236,0,0,1-1.255,1.247m20.319.17a21.314,21.314,0,0,1-7.424-1.417l.586-2.041a23.009,23.009,0,0,0,6.838,1.219c3.1,0,4.717-1.105,4.717-2.663,0-1.417-1.257-2.126-5.582-4.166s-6.028-3.342-6.028-5.893c0-3.2,2.455-4.505,7.088-4.505a27.576,27.576,0,0,1,6.587.907l-.39,2.1a28.061,28.061,0,0,0-6.141-.765c-3.264,0-4.6.623-4.6,2.181,0,1.53.976,2.181,5.554,4.307,4.829,2.238,6.056,3.372,6.056,5.695,0,3.372-3.182,5.044-7.256,5.044m18.9-19.182h2.539v18.869H81.153ZM105.3,293.323H98.988v6.4H105.3a3.212,3.212,0,1,0,0-6.4m-1.229-8.161h-5.08V291.2h5.08a3.221,3.221,0,0,0,3.517-3.117c0-1.785-1.284-2.919-3.517-2.919m1.257,16.717H97.733a1.267,1.267,0,0,1-1.285-1.275V284.284a1.284,1.284,0,0,1,1.285-1.275h6.279c3.851,0,6.14,1.9,6.14,4.873a4.763,4.763,0,0,1-2.4,4,4.822,4.822,0,0,1,3.6,4.59c0,3-2.484,5.412-6.028,5.412m18.224,0a1.278,1.278,0,0,1-1.255-1.275v-17.6h2.539v16.575h10.1v2.295H123.548Zm28.7.312c-5.191,0-8.317-1.927-8.317-5.808a4.71,4.71,0,0,1,3.043-4.42,4.761,4.761,0,0,1-2.456-4.051c0-3.514,2.708-5.185,7.787-5.185a30.123,30.123,0,0,1,6.113.652l-.279,2.1a38,38,0,0,0-6.029-.538c-3.293,0-5.052.907-5.052,3.089,0,1.729,1.619,3.088,3.768,3.088h4.353a1.091,1.091,0,0,1,0,2.181H150.49c-2.456,0-4.019,1.218-4.019,3.088,0,2.748,2.539,3.569,5.721,3.569a27.944,27.944,0,0,0,5.972-.679l.364,2.068a24.727,24.727,0,0,1-6.28.85M8.861,286.549l4.448,11.144L6.592,292.32Zm7.9,13.712L9.922,283.545a1.1,1.1,0,0,0-1.06-.737,1.14,1.14,0,0,0-1.088.737L.264,301.88H2.832l2.973-7.559,8.87,7.275a1.43,1.43,0,0,0,.949.425,1.235,1.235,0,0,0,1.256-1.246,1.668,1.668,0,0,0-.118-.514Z" transform="translate(-0.264 -282.726)" fill="#fff"/>
    </g>
    <g id="Group_26652" data-name="Group 26652" transform="translate(-3573.518 -19422)">
      <path id="Path_81802" data-name="Path 81802" d="M60.651,30.254A29.952,29.952,0,1,1,30.7.3,29.951,29.951,0,0,1,60.651,30.254" transform="translate(-0.746 -0.302)" fill="#fff"/>
      <path id="Path_81803" data-name="Path 81803" d="M81.628,57.3l7.751,19.13L77.671,67.211,81.628,57.3ZM95.4,80.84,83.475,52.148a1.925,1.925,0,0,0-1.847-1.266,1.989,1.989,0,0,0-1.9,1.266L66.644,83.62H71.12L76.3,70.644,91.76,83.133a2.512,2.512,0,0,0,1.653.73A2.138,2.138,0,0,0,95.6,81.724,2.834,2.834,0,0,0,95.4,80.84Z" transform="translate(-51.171 -39.006)" fill="#003483"/>
    </g>
  </g>
</svg>
