<svg xmlns="http://www.w3.org/2000/svg" width="133" height="133" viewBox="0 0 133 133">
  <g id="Group_23889" data-name="Group 23889" transform="translate(-51.396 -44)">
    <circle id="Ellipse_641" data-name="Ellipse 641" cx="66.5" cy="66.5" r="66.5" transform="translate(51.396 44)" fill="#006ce5"/>
    <g id="Group_10668" data-name="Group 10668" transform="translate(-323.851 -530.187)">
      <path id="Path_65212" data-name="Path 65212" d="M491.182,626.59c2.839,0,5.678,0,8.517,0,1,0,1.576-.438,1.674-1.22.123-.98-.539-1.619-1.722-1.62q-8.384-.009-16.769,0c-1.182,0-1.836.529-1.821,1.448s.656,1.394,1.869,1.4Q487.056,626.594,491.182,626.59Zm-.01,75.267v.006h2.035c.059,0,.118,0,.177,0a1.409,1.409,0,0,0,1.4-1.326,1.365,1.365,0,0,0-1.25-1.464c-1.53-.065-3.067-.066-4.6,0a1.326,1.326,0,0,0-1.251,1.45,1.354,1.354,0,0,0,1.367,1.335C489.755,701.883,490.464,701.858,491.172,701.858Z" transform="translate(-48.173 -21.741)" fill="#fff"/>
      <path id="Path_65213" data-name="Path 65213" d="M424.965,686.126a21.129,21.129,0,0,1-2.389-.865,7.943,7.943,0,0,1-4.57-6.519,12.7,12.7,0,0,1-.076-1.505q-.005-36.555-.01-73.111c0-3.337,1.181-6.057,4.144-7.7A8.663,8.663,0,0,1,426,595.314c11.358-.086,22.717-.077,34.076-.036a8.031,8.031,0,0,1,8.024,7.859c.1,5.973.041,69.948.037,75.922,0,1.04-.587,1.675-1.442,1.647s-1.389-.671-1.393-1.724c-.011-3.786,0-65.571-.005-69.357,0-2.011.022-4.023-.007-6.033a5.328,5.328,0,0,0-5.5-5.484q-16.728-.026-33.455,0a5.36,5.36,0,0,0-5.546,5.281c-.018.295-.013.591-.013.887q0,36.423.014,72.845a8.593,8.593,0,0,0,.348,2.616,5.2,5.2,0,0,0,4.94,3.536q16.949.033,33.9,0a5.274,5.274,0,0,0,5.306-5.22c.051-1.832,2.881-3.558,2.862-2.656a27.107,27.107,0,0,1-.152,3.981,8.068,8.068,0,0,1-6.576,6.6,2.8,2.8,0,0,0-.419.151Z" transform="translate(0)" fill="#fff"/>
      <path id="Path_65214" data-name="Path 65214" d="M491.182,626.591q-4.126,0-8.251,0c-1.213,0-1.854-.485-1.869-1.4s.639-1.448,1.821-1.448q8.385,0,16.769,0c1.184,0,1.846.64,1.722,1.62-.1.782-.676,1.218-1.674,1.22C496.86,626.6,494.021,626.59,491.182,626.591Z" transform="translate(-48.173 -21.741)" fill="#fff"/>
      <path id="Path_65215" data-name="Path 65215" d="M512.477,944.129c-.708,0-1.417.026-2.123-.007a1.354,1.354,0,0,1-1.367-1.335,1.326,1.326,0,0,1,1.251-1.45c1.53-.063,3.067-.062,4.6,0a1.365,1.365,0,0,1,1.25,1.464,1.408,1.408,0,0,1-1.4,1.326c-.059,0-.118,0-.177,0h-2.035Z" transform="translate(-69.478 -264.012)" fill="#fff"/>
    </g>
  </g>
</svg>
