<svg xmlns="http://www.w3.org/2000/svg" width="38.526" height="38.244" viewBox="0 0 38.526 38.244">
  <g id="Group_26638" data-name="Group 26638" transform="translate(-3.5 -3.7)">
    <path id="Path_81792" data-name="Path 81792" d="M37.015,12.56l-1.862-.77a7.652,7.652,0,0,0-.514-1.284l.835-1.862a.586.586,0,0,0-.128-.706L33.291,5.883a.586.586,0,0,0-.706-.128l-1.862.77a7.652,7.652,0,0,0-1.284-.514l-.77-1.862a.973.973,0,0,0-.706-.449H25.009a.65.65,0,0,0-.578.385l-.77,1.862a7.652,7.652,0,0,0-1.284.514l-1.862-.706a.586.586,0,0,0-.706.128L17.754,7.938a.586.586,0,0,0-.128.706l.835,1.862a7.652,7.652,0,0,0-.514,1.284l-1.926.77a.562.562,0,0,0-.385.578v2.953a.65.65,0,0,0,.385.578l1.862.77a7.652,7.652,0,0,0,.514,1.284l-.77,1.862a.586.586,0,0,0,.128.706l2.055,2.119a.586.586,0,0,0,.706.128l1.862-.835a10.706,10.706,0,0,0,1.284.514l.77,1.862a.562.562,0,0,0,.578.385h2.953a.562.562,0,0,0,.578-.385l.77-1.862a7.653,7.653,0,0,0,1.284-.514l1.862.77a.586.586,0,0,0,.706-.128l2.055-2.119a.586.586,0,0,0,.128-.706l-.835-1.862a7.653,7.653,0,0,0,.514-1.284l1.862-.77a.562.562,0,0,0,.385-.578V13.074c.128-.193,0-.385-.257-.514Zm-10.53,7a4.944,4.944,0,1,1,4.944-4.944A4.946,4.946,0,0,1,26.486,19.559ZM9.664,25.209V37.922a.643.643,0,0,1-.642.642H4.142a.643.643,0,0,1-.642-.642V25.209a.643.643,0,0,1,.642-.642h4.88A.607.607,0,0,1,9.664,25.209Zm31.653,6.228-15.474,9.7a5.245,5.245,0,0,1-5.393.128l-9.5-5.329V26.878H12.3c4.045-.064,7.255-.128,8.347,2.247a2.1,2.1,0,0,0,1.926,1.156h4.238a1.317,1.317,0,0,1,1.348,1.348,1.356,1.356,0,0,1-1.348,1.348H19.295a.642.642,0,0,0,0,1.284h7.512a2.641,2.641,0,0,0,2.376-1.477L40.1,28.933a1.345,1.345,0,0,1,1.734.578,1.392,1.392,0,0,1-.514,1.926Z" fill="#006ce5"/>
  </g>
</svg>
