<svg xmlns="http://www.w3.org/2000/svg" width="56.041" height="56.04" viewBox="0 0 56.041 56.04">
  <g id="Group_25932" data-name="Group 25932" transform="translate(-6665.111 -72.997)">
    <path id="Path_79973" data-name="Path 79973" d="M6737.313,91.011h-1.975V73h13.7a2.024,2.024,0,0,1,2.287,2.176,4,4,0,0,0,8,0A2.014,2.014,0,0,1,6761.559,73q6.6,0,13.206,0h.54V91.013h-1.965v.836q0,17.264,0,34.529c0,.248.007.5-.012.743a1.972,1.972,0,0,1-2.024,1.909c-1.41.014-2.82,0-4.23,0h-27.383a2.061,2.061,0,0,1-2.375-2.373q0-17.379,0-34.758Z" transform="translate(-62.196 0)" fill="#fff"/>
    <path id="Path_79974" data-name="Path 79974" d="M6671.081,73V90.959a3.251,3.251,0,0,1-.421.054c-1.105,0-2.21.014-3.315,0a2.031,2.031,0,0,1-2.232-2.289q0-6.717,0-13.433a2.033,2.033,0,0,1,2.28-2.293C6668.61,73,6669.828,73,6671.081,73Z" transform="translate(0)" fill="#fff"/>
    <path id="Path_79975" data-name="Path 79975" d="M7102.881,91.034V73.065c1.457,0,2.9-.067,4.333.024A1.86,1.86,0,0,1,7108.849,75q.018,7.031,0,14.061A1.9,1.9,0,0,1,7107,91.02C7105.656,91.078,7104.3,91.034,7102.881,91.034Z" transform="translate(-387.706 -0.04)" fill="#fff"/>
  </g>
</svg>
