<svg xmlns="http://www.w3.org/2000/svg" width="24.813" height="40.981" viewBox="0 0 24.813 40.981">
  <g id="Group_26642" data-name="Group 26642" transform="translate(-101)">
    <path id="Path_81799" data-name="Path 81799" d="M227.3,120.152a3.152,3.152,0,1,0-3.152,3.152A3.155,3.155,0,0,0,227.3,120.152Z" transform="translate(-110.746 -107.821)" fill="#006ce5"/>
    <path id="Path_81800" data-name="Path 81800" d="M125.812,30.575V4.4a4.407,4.407,0,0,0-4.4-4.4H105.4A4.407,4.407,0,0,0,101,4.4V30.575Zm-9.2-4.8h-6.4a1.2,1.2,0,1,1,0-2.4h6.4a1.2,1.2,0,1,1,0,2.4ZM107,10.966h1.342a5.172,5.172,0,0,1,.634-1.528l-.95-.95a1.2,1.2,0,0,1,1.7-1.7l.95.95a5.173,5.173,0,0,1,1.528-.634V5.763a1.2,1.2,0,1,1,2.4,0V7.1a5.173,5.173,0,0,1,1.528.634l.95-.95a1.2,1.2,0,0,1,1.7,1.7l-.95.95a5.172,5.172,0,0,1,.634,1.528h1.342a1.2,1.2,0,0,1,0,2.4h-1.342a5.172,5.172,0,0,1-.634,1.528l.95.95a1.2,1.2,0,1,1-1.7,1.7l-.95-.95a5.173,5.173,0,0,1-1.528.634v1.342a1.2,1.2,0,0,1-2.4,0V17.227a5.173,5.173,0,0,1-1.528-.634l-.95.95a1.2,1.2,0,0,1-1.7-1.7l.95-.95a5.172,5.172,0,0,1-.634-1.528H107a1.2,1.2,0,1,1,0-2.4Zm-6,22.011v3.6a4.407,4.407,0,0,0,4.4,4.4H121.41a4.407,4.407,0,0,0,4.4-4.4v-3.6Zm14.007,5.2h-3.2a1.2,1.2,0,1,1,0-2.4h3.2a1.2,1.2,0,1,1,0,2.4Z" transform="translate(0)" fill="#006ce5"/>
  </g>
</svg>
