<svg xmlns="http://www.w3.org/2000/svg" width="37.458" height="38.75" viewBox="0 0 37.458 38.75">
  <g id="Group_26641" data-name="Group 26641" transform="translate(-1.5 -1)">
    <path id="Path_81796" data-name="Path 81796" d="M7.5,1h7.75V3.583H7.5Z" transform="translate(1.75)" fill="#006ce5"/>
    <path id="Path_81797" data-name="Path 81797" d="M18.55,10.688h6.2V3.454A2.454,2.454,0,0,0,22.3,1H19.583V3.583A2.591,2.591,0,0,1,17,6.167H9.25A2.591,2.591,0,0,1,6.667,3.583V1H3.954A2.454,2.454,0,0,0,1.5,3.454V37.3A2.453,2.453,0,0,0,3.954,39.75H22.3A2.454,2.454,0,0,0,24.75,37.3V30.063h-6.2a3.489,3.489,0,0,1-3.488-3.488v-12.4a3.489,3.489,0,0,1,3.488-3.488Zm-2.842,22.6a1.292,1.292,0,0,1,0,2.583H10.542a1.292,1.292,0,0,1,0-2.583Z" transform="translate(0)" fill="#006ce5"/>
    <path id="Path_81798" data-name="Path 81798" d="M35.458,12.57V22.93a.65.65,0,0,1-.93.581L29,20.85v3.1a1.555,1.555,0,0,1-1.55,1.55H15.05a1.555,1.555,0,0,1-1.55-1.55V11.55A1.555,1.555,0,0,1,15.05,10h12.4A1.555,1.555,0,0,1,29,11.55v3.1l5.528-2.661a.65.65,0,0,1,.93.581Z" transform="translate(3.5 2.625)" fill="#006ce5"/>
  </g>
</svg>
