<svg xmlns="http://www.w3.org/2000/svg" width="36.045" height="39.742" viewBox="0 0 36.045 39.742">
  <g id="Group_26640" data-name="Group 26640" transform="translate(-2.25 -1.25)">
    <path id="Path_81794" data-name="Path 81794" d="M21.579,8.925l-4.032,12.1a1.386,1.386,0,1,0,2.63.876L24.209,9.8a1.386,1.386,0,1,0-2.63-.876Zm3.529,3.436,3.052,3.052-3.052,3.052a1.387,1.387,0,0,0,1.961,1.961L31.1,16.393a1.385,1.385,0,0,0,0-1.959L27.069,10.4a1.387,1.387,0,1,0-1.961,1.961ZM14.688,10.4l-4.032,4.033a1.385,1.385,0,0,0,0,1.959l4.032,4.033a1.387,1.387,0,1,0,1.961-1.961L13.6,15.414l3.052-3.052A1.387,1.387,0,0,0,14.688,10.4Z" transform="translate(6.788 5.708)" fill="#006ce5" fill-rule="evenodd"/>
    <path id="Path_81795" data-name="Path 81795" d="M29.053,27.191l-.335,1a3.235,3.235,0,0,1-6.067.189,3.231,3.231,0,0,1-2.483-.941l-4.032-4.033a3.231,3.231,0,0,1,0-4.573L20.169,14.8a3.235,3.235,0,0,1,5.514,2.043l.932-2.795a3.233,3.233,0,0,1,2.438-2.15V6.333A5.08,5.08,0,0,0,23.97,1.25H7.333A5.08,5.08,0,0,0,2.25,6.333V35.909a5.08,5.08,0,0,0,5.083,5.083H23.97a5.08,5.08,0,0,0,5.083-5.083Zm-17.1,9.18h7.394a1.386,1.386,0,1,0,0-2.773H11.954a1.386,1.386,0,1,0,0,2.773ZM23.045,4.023H8.258L9.409,6.9a2.773,2.773,0,0,0,2.575,1.743h7.335A2.773,2.773,0,0,0,21.894,6.9Z" transform="translate(0)" fill="#006ce5" fill-rule="evenodd"/>
  </g>
</svg>
