<svg xmlns="http://www.w3.org/2000/svg" width="58.988" height="58.988" viewBox="0 0 58.988 58.988">
  <g id="Group_26667" data-name="Group 26667" transform="translate(0 0)">
    <path id="Path_81864" data-name="Path 81864" d="M58.215,315.656,56.48,314.5,32.361,330.517a5.185,5.185,0,0,1-5.735,0L2.507,314.5.772,315.656a1.728,1.728,0,0,0,0,2.879l27.766,18.434a1.728,1.728,0,0,0,1.912,0l27.766-18.434A1.728,1.728,0,0,0,58.215,315.656Z" transform="translate(0 -278.269)" fill="#006ce5"/>
    <path id="Path_81865" data-name="Path 81865" d="M58.216,234.656,56.481,233.5,32.362,249.517a5.184,5.184,0,0,1-5.735,0L2.508,233.5.773,234.656a1.728,1.728,0,0,0,0,2.879l27.766,18.434a1.728,1.728,0,0,0,1.912,0l27.766-18.434A1.728,1.728,0,0,0,58.216,234.656Z" transform="translate(-0.001 -206.601)" fill="#006ce5"/>
    <path id="Path_81866" data-name="Path 81866" d="M.773,21.6,28.539,40.036a1.728,1.728,0,0,0,1.912,0L58.216,21.6a1.728,1.728,0,0,0,0-2.879L30.45.289a1.728,1.728,0,0,0-1.912,0L.773,18.723a1.728,1.728,0,0,0,0,2.879Zm37.622,4.7a1.728,1.728,0,0,1-2.4.484l-6.5-4.318-6.5,4.318a1.728,1.728,0,1,1-1.912-2.879l7.461-4.953a1.728,1.728,0,0,1,1.912,0l7.46,4.953a1.728,1.728,0,0,1,.484,2.4ZM14.05,19.24,28.538,9.621a1.728,1.728,0,0,1,1.912,0L44.939,19.24a1.728,1.728,0,0,1-1.912,2.879L29.494,13.135,15.962,22.119A1.728,1.728,0,0,1,14.05,19.24Z" transform="translate(-0.001 0)" fill="#006ce5"/>
  </g>
</svg>
