<svg xmlns="http://www.w3.org/2000/svg" width="117.7" height="117.418" viewBox="0 0 117.7 117.418">
  <g id="Group_26665" data-name="Group 26665" transform="translate(-776.392 -2364.598)">
    <g id="Group_26662" data-name="Group 26662" transform="translate(784.112 2372.098)">
      <path id="Path_81853" data-name="Path 81853" d="M49.069,85.179a6.405,6.405,0,0,0-6.4,6.4v17.08h4.27V91.584a2.135,2.135,0,0,1,2.135-2.135h51.24v-4.27Zm0,64.05a2.135,2.135,0,0,1-2.135-2.135v-21.35h-4.27v21.35a6.405,6.405,0,0,0,6.4,6.4h21.35v-4.27Z" transform="translate(-34.125 -68.161)" fill="#8d55ff"/>
      <path id="Path_81854" data-name="Path 81854" d="M67.694,222.99,15.843,171.139a2.135,2.135,0,0,0-3.019,0l-12.2,12.2a2.135,2.135,0,0,0,0,3.019l51.851,51.85a2.134,2.134,0,0,0,3.019,0l12.2-12.2A2.135,2.135,0,0,0,67.694,222.99ZM53.985,233.68,5.153,184.848l9.181-9.181L63.166,224.5Z" transform="translate(0 -136.415)" fill="#8d55ff"/>
      <path id="Path_81855" data-name="Path 81855" d="M341.356,405.179H309.331v4.27h23.485v10.675a2.135,2.135,0,0,0,2.135,2.135h6.4a8.54,8.54,0,1,0,0-17.08Zm0,12.81h-4.27v-8.54h4.27a4.27,4.27,0,0,1,0,8.54Z" transform="translate(-247.417 -324.111)" fill="#8d55ff"/>
      <path id="Path_81856" data-name="Path 81856" d="M156.138,85.179H145.463v4.27h10.675a4.27,4.27,0,0,1,4.27,4.27v64.05h4.27V93.719A8.54,8.54,0,0,0,156.138,85.179ZM94.848,134.91l6.406-6.406,3.019,3.019-6.405,6.405Zm-8.54-8.54,6.405-6.405,3.019,3.019-6.406,6.406Zm17.075,17.08,6.405-6.406,3.019,3.019-6.406,6.405Zm8.544,8.544,6.405-6.406,3.019,3.019-6.406,6.405ZM77.763,117.829l6.405-6.405,3.019,3.019-6.406,6.406Z" transform="translate(-62.198 -68.161)" fill="#8d55ff"/>
      <path id="Path_81857" data-name="Path 81857" d="M280.419,4.891l-2.951-2.95a6.461,6.461,0,0,0-8.922,0L236.081,34.4a2.135,2.135,0,0,0,0,3.019l8.854,8.854a2.134,2.134,0,0,0,3.019,0l32.465-32.465,0,0A6.307,6.307,0,0,0,280.419,4.891Zm-3.017,5.9L246.444,41.749l-5.835-5.835L271.567,4.959a2.086,2.086,0,0,1,2.882,0L277.4,7.907h0A2.039,2.039,0,0,1,277.4,10.792Z" transform="translate(-188.328 -0.153)" fill="#8d55ff"/>
      <path id="Path_81858" data-name="Path 81858" d="M228.06,73.468l-9.215,3.077,3.077-9.23-4.057-1.351-4.428,13.282a2.135,2.135,0,0,0,2.026,2.81,2.168,2.168,0,0,0,.666-.1l13.282-4.428-1.351-4.056Zm16.883-31.884,3.019-3.019,8.854,8.854L253.8,50.438Z" transform="translate(-170.629 -30.877)" fill="#8d55ff"/>
      <path id="Path_81859" data-name="Path 81859" d="M224,234.512h32.025v4.27H224Zm36.295,0h4.27v4.27h-4.27Zm8.54,0h4.27v4.27h-4.27Z" transform="translate(-179.163 -187.604)" fill="#8d55ff"/>
    </g>
    <g id="Group_26664" data-name="Group 26664" transform="translate(784.112 2372.098)">
      <g id="Group_26663" data-name="Group 26663" transform="translate(0 0)" opacity="0.3">
        <path id="Path_81853-2" data-name="Path 81853" d="M49.069,85.179a6.405,6.405,0,0,0-6.4,6.4v17.08h4.27V91.584a2.135,2.135,0,0,1,2.135-2.135h51.24v-4.27Zm0,64.05a2.135,2.135,0,0,1-2.135-2.135v-21.35h-4.27v21.35a6.405,6.405,0,0,0,6.4,6.4h21.35v-4.27Z" transform="translate(-34.125 -68.161)" fill="none" stroke="#031342" stroke-linecap="round" stroke-linejoin="round" stroke-width="3"/>
        <path id="Path_81854-2" data-name="Path 81854" d="M67.694,222.99,15.843,171.139a2.135,2.135,0,0,0-3.019,0l-12.2,12.2a2.135,2.135,0,0,0,0,3.019l51.851,51.85a2.134,2.134,0,0,0,3.019,0l12.2-12.2A2.135,2.135,0,0,0,67.694,222.99ZM53.985,233.68,5.153,184.848l9.181-9.181L63.166,224.5Z" transform="translate(0 -136.415)" fill="none" stroke="#031342" stroke-linecap="round" stroke-linejoin="round" stroke-width="3"/>
        <path id="Path_81855-2" data-name="Path 81855" d="M341.356,405.179H309.331v4.27h23.485v10.675a2.135,2.135,0,0,0,2.135,2.135h6.4a8.54,8.54,0,1,0,0-17.08Zm0,12.81h-4.27v-8.54h4.27a4.27,4.27,0,0,1,0,8.54Z" transform="translate(-247.417 -324.111)" fill="none" stroke="#031342" stroke-linecap="round" stroke-linejoin="round" stroke-width="3"/>
        <path id="Path_81856-2" data-name="Path 81856" d="M156.138,85.179H145.463v4.27h10.675a4.27,4.27,0,0,1,4.27,4.27v64.05h4.27V93.719A8.54,8.54,0,0,0,156.138,85.179ZM94.848,134.91l6.406-6.406,3.019,3.019-6.405,6.405Zm-8.54-8.54,6.405-6.405,3.019,3.019-6.406,6.406Zm17.075,17.08,6.405-6.406,3.019,3.019-6.406,6.405Zm8.544,8.544,6.405-6.406,3.019,3.019-6.406,6.405ZM77.763,117.829l6.405-6.405,3.019,3.019-6.406,6.406Z" transform="translate(-62.198 -68.161)" fill="none" stroke="#031342" stroke-linecap="round" stroke-linejoin="round" stroke-width="3"/>
        <path id="Path_81857-2" data-name="Path 81857" d="M280.419,4.891l-2.951-2.95a6.461,6.461,0,0,0-8.922,0L236.081,34.4a2.135,2.135,0,0,0,0,3.019l8.854,8.854a2.134,2.134,0,0,0,3.019,0l32.465-32.465,0,0A6.307,6.307,0,0,0,280.419,4.891Zm-3.017,5.9L246.444,41.749l-5.835-5.835L271.567,4.959a2.086,2.086,0,0,1,2.882,0L277.4,7.907h0A2.039,2.039,0,0,1,277.4,10.792Z" transform="translate(-188.328 -0.153)" fill="none" stroke="#031342" stroke-linecap="round" stroke-linejoin="round" stroke-width="3"/>
        <path id="Path_81858-2" data-name="Path 81858" d="M228.06,73.468l-9.215,3.077,3.077-9.23-4.057-1.351-4.428,13.282a2.135,2.135,0,0,0,2.026,2.81,2.168,2.168,0,0,0,.666-.1l13.282-4.428-1.351-4.056Zm16.883-31.884,3.019-3.019,8.854,8.854L253.8,50.438Z" transform="translate(-170.629 -30.877)" fill="none" stroke="#031342" stroke-linecap="round" stroke-linejoin="round" stroke-width="3"/>
        <path id="Path_81859-2" data-name="Path 81859" d="M224,234.512h32.025v4.27H224Zm36.295,0h4.27v4.27h-4.27Zm8.54,0h4.27v4.27h-4.27Z" transform="translate(-179.163 -187.604)" fill="none" stroke="#031342" stroke-linecap="round" stroke-linejoin="round" stroke-width="3"/>
      </g>
    </g>
  </g>
</svg>
