<svg xmlns="http://www.w3.org/2000/svg" width="93.585" height="113.231" viewBox="0 0 93.585 113.231">
  <g id="Group_26661" data-name="Group 26661" transform="translate(-368.746 -2332.273)">
    <g id="Group_26659" data-name="Group 26659" transform="translate(376.246 2336.676)">
      <path id="Path_81850" data-name="Path 81850" d="M589.958,363.484,587.75,365.9l10.04,9.2a11.487,11.487,0,0,1,3.712,8.45v40.078h3.274V383.551A14.773,14.773,0,0,0,600,372.688Zm0,0" transform="translate(-526.192 -325.398)" fill="#ffd300"/>
      <path id="Path_81851" data-name="Path 81851" d="M51,0H8.436A8.2,8.2,0,0,0,.25,8.186V90.045a8.2,8.2,0,0,0,8.186,8.186h40.93V95.3a37.221,37.221,0,0,1,6.274-20.72,1.637,1.637,0,0,0-.2-2.066l-11.46-11.46a5.31,5.31,0,0,1,.39-7.858,5.515,5.515,0,0,1,7.33.564L67.854,69.922l2.315-2.315L59.189,56.624V8.186A8.2,8.2,0,0,0,51,0Zm4.912,53.349-1.906-1.906a8.812,8.812,0,0,0-11.729-.775,8.585,8.585,0,0,0-.621,12.7L52.186,73.9A40.479,40.479,0,0,0,46.1,94.957H8.436a4.912,4.912,0,0,1-4.912-4.912V85.134h40.93V81.859H3.524V13.1h52.39Zm0-43.526H3.524V8.186A4.912,4.912,0,0,1,8.436,3.274H51a4.912,4.912,0,0,1,4.912,4.912Zm0,0" transform="translate(-0.25)" fill="#ffd300"/>
      <path id="Path_81852" data-name="Path 81852" d="M66.024,169.347h6.549a3.274,3.274,0,0,0,3.274-3.274v-6.549a3.274,3.274,0,0,0-3.274-3.274H66.024a3.274,3.274,0,0,0-3.274,3.274v6.549A3.274,3.274,0,0,0,66.024,169.347Zm0-9.823h6.549v6.549H66.024ZM82.4,169.347h6.549a3.274,3.274,0,0,0,3.274-3.274v-6.549a3.274,3.274,0,0,0-3.274-3.274H82.4a3.274,3.274,0,0,0-3.274,3.274v6.549A3.274,3.274,0,0,0,82.4,169.347Zm0-9.823h6.549v6.549H82.4Zm16.372,9.823h6.549a3.274,3.274,0,0,0,3.274-3.274v-6.549a3.274,3.274,0,0,0-3.274-3.274H98.768a3.274,3.274,0,0,0-3.274,3.274v6.549A3.274,3.274,0,0,0,98.768,169.347Zm0-9.823h6.549v6.549H98.768ZM66.024,185.719h6.549a3.274,3.274,0,0,0,3.274-3.274V175.9a3.274,3.274,0,0,0-3.274-3.274H66.024A3.274,3.274,0,0,0,62.75,175.9v6.549A3.274,3.274,0,0,0,66.024,185.719Zm0-9.823h6.549v6.549H66.024Zm0,26.195h6.549a3.274,3.274,0,0,0,3.274-3.274v-6.549a3.274,3.274,0,0,0-3.274-3.274H66.024a3.274,3.274,0,0,0-3.274,3.274v6.549A3.274,3.274,0,0,0,66.024,202.091Zm0-9.823h6.549v6.549H66.024ZM82.4,185.719h6.549a3.274,3.274,0,0,0,3.274-3.274V175.9a3.274,3.274,0,0,0-3.274-3.274H82.4a3.274,3.274,0,0,0-3.274,3.274v6.549A3.274,3.274,0,0,0,82.4,185.719Zm0-9.823h6.549v6.549H82.4Zm16.372,9.823h6.549a3.274,3.274,0,0,0,3.274-3.274V175.9a3.274,3.274,0,0,0-3.274-3.274H98.768a3.274,3.274,0,0,0-3.274,3.274v6.549A3.274,3.274,0,0,0,98.768,185.719Zm0-9.823h6.549v6.549H98.768ZM82.4,202.091h6.549a3.274,3.274,0,0,0,3.274-3.274v-6.549a3.274,3.274,0,0,0-3.274-3.274H82.4a3.274,3.274,0,0,0-3.274,3.274v6.549A3.274,3.274,0,0,0,82.4,202.091Zm0-9.823h6.549v6.549H82.4ZM66.024,218.463h6.549a3.274,3.274,0,0,0,3.274-3.274V208.64a3.274,3.274,0,0,0-3.274-3.274H66.024a3.274,3.274,0,0,0-3.274,3.274v6.549A3.274,3.274,0,0,0,66.024,218.463Zm0-9.823h6.549v6.549H66.024ZM82.4,218.463h6.549a3.274,3.274,0,0,0,3.274-3.274V208.64a3.274,3.274,0,0,0-3.274-3.274H82.4a3.274,3.274,0,0,0-3.274,3.274v6.549A3.274,3.274,0,0,0,82.4,218.463Zm0-9.823h6.549v6.549H82.4Zm1.637,19.646h3.274v3.274H84.033Zm0,0" transform="translate(-56.201 -139.878)" fill="#ffd300"/>
    </g>
    <g id="Group_26660" data-name="Group 26660" transform="translate(376.246 2339.772)" opacity="0.3">
      <path id="Path_81850-2" data-name="Path 81850" d="M589.958,363.484,587.75,365.9l10.04,9.2a11.487,11.487,0,0,1,3.712,8.45v40.078h3.274V383.551A14.773,14.773,0,0,0,600,372.688Zm0,0" transform="translate(-526.192 -325.398)" fill="none" stroke="#031342" stroke-linecap="round" stroke-linejoin="round" stroke-width="3"/>
      <path id="Path_81851-2" data-name="Path 81851" d="M51,0H8.436A8.2,8.2,0,0,0,.25,8.186V90.045a8.2,8.2,0,0,0,8.186,8.186h40.93V95.3a37.221,37.221,0,0,1,6.274-20.72,1.637,1.637,0,0,0-.2-2.066l-11.46-11.46a5.31,5.31,0,0,1,.39-7.858,5.515,5.515,0,0,1,7.33.564L67.854,69.922l2.315-2.315L59.189,56.624V8.186A8.2,8.2,0,0,0,51,0Zm4.912,53.349-1.906-1.906a8.812,8.812,0,0,0-11.729-.775,8.585,8.585,0,0,0-.621,12.7L52.186,73.9A40.479,40.479,0,0,0,46.1,94.957H8.436a4.912,4.912,0,0,1-4.912-4.912V85.134h40.93V81.859H3.524V13.1h52.39Zm0-43.526H3.524V8.186A4.912,4.912,0,0,1,8.436,3.274H51a4.912,4.912,0,0,1,4.912,4.912Zm0,0" transform="translate(-0.25)" fill="none" stroke="#031342" stroke-linecap="round" stroke-linejoin="round" stroke-width="3"/>
    </g>
  </g>
</svg>
