<svg id="Group_26666" data-name="Group 26666" xmlns="http://www.w3.org/2000/svg" width="64.231" height="60.217" viewBox="0 0 64.231 60.217">
  <path id="Path_81860" data-name="Path 81860" d="M130.517,135.163h-6.172l-1.255-3.764H100.308l-1.255,3.764H92.882a1.882,1.882,0,0,0,0,3.764h37.636a1.882,1.882,0,1,0,0-3.764Zm0-45.163a1.882,1.882,0,1,0,1.882,1.882A1.883,1.883,0,0,0,130.517,90Zm0,0" transform="translate(-79.584 -78.709)" fill="#006ce5"/>
  <path id="Path_81861" data-name="Path 81861" d="M58.461,0H5.645A5.652,5.652,0,0,0,0,5.645v31.99H11.416V31.99A1.881,1.881,0,0,1,13.3,30.108h2.907a16.747,16.747,0,0,1,.669-1.612l-2.057-2.058a1.881,1.881,0,0,1,0-2.661l5.322-5.322a1.881,1.881,0,0,1,2.661,0l2.058,2.058a16.836,16.836,0,0,1,1.612-.671V16.936a1.881,1.881,0,0,1,1.882-1.882h7.527a1.881,1.881,0,0,1,1.882,1.882v2.907a16.884,16.884,0,0,1,1.612.67l2.058-2.058a1.882,1.882,0,0,1,2.661,0l5.322,5.322a1.881,1.881,0,0,1,0,2.661L47.357,28.5a16.8,16.8,0,0,1,.669,1.612h2.907a1.881,1.881,0,0,1,1.882,1.882v5.645H64.231V5.645A5.76,5.76,0,0,0,58.461,0ZM50.934,18.818a5.645,5.645,0,1,1,5.645-5.645A5.652,5.652,0,0,1,50.934,18.818Zm0,0" fill="#006ce5"/>
  <path id="Path_81862" data-name="Path 81862" d="M211,245.645a5.609,5.609,0,0,0,.365,1.882h10.561A5.628,5.628,0,1,0,211,245.645Zm0,0" transform="translate(-184.53 -209.892)" fill="#006ce5"/>
  <path id="Path_81863" data-name="Path 81863" d="M19.417,163.643a1.883,1.883,0,0,1-1.823,1.411H15.18v3.764h7.775a9.413,9.413,0,1,1,18.323,0h7.775v-3.764H46.637a1.883,1.883,0,0,1-1.823-1.411,12.934,12.934,0,0,0-1.393-3.354,1.882,1.882,0,0,1,.29-2.286l1.711-1.713-2.661-2.661-1.713,1.713a1.874,1.874,0,0,1-2.288.289,12.94,12.94,0,0,0-3.352-1.393A1.883,1.883,0,0,1,34,152.415V150H30.234v2.414a1.883,1.883,0,0,1-1.411,1.823,12.935,12.935,0,0,0-3.352,1.393,1.875,1.875,0,0,1-2.288-.289l-1.713-1.713-2.661,2.661L20.52,158a1.882,1.882,0,0,1,.29,2.286,12.936,12.936,0,0,0-1.393,3.354ZM0,174.463a5.652,5.652,0,0,0,5.645,5.645H58.461a5.76,5.76,0,0,0,5.771-5.645v-1.882H0Zm0,0" transform="translate(0 -131.182)" fill="#006ce5"/>
</svg>
