<svg xmlns="http://www.w3.org/2000/svg" width="96.141" height="96.167" viewBox="0 0 96.141 96.167">
  <g id="Group_26687" data-name="Group 26687" transform="translate(-398.647 -2351.984)">
    <g id="Group_26686" data-name="Group 26686" transform="translate(404.647 2357.984)">
      <g id="Path_81911" data-name="Path 81911" transform="translate(-2 -2)" fill="none" stroke-linecap="round" stroke-linejoin="round">
        <path d="M39.285,79.7a2.813,2.813,0,0,1-.815-1.972v-3.97a2.813,2.813,0,0,0-2.051-2.629,27.846,27.846,0,0,1-6.021-2.5,2.813,2.813,0,0,0-3.366.473l-2.813,2.813a2.813,2.813,0,0,1-3.97,0L16.3,67.866a2.813,2.813,0,0,1,0-3.97l2.813-2.813a2.813,2.813,0,0,0,.473-3.339,27.714,27.714,0,0,1-2.5-6.021,2.813,2.813,0,0,0-2.629-2.051H10.414A2.84,2.84,0,0,1,7.6,46.857v-5.6a2.84,2.84,0,0,1,2.813-2.787h3.97a2.813,2.813,0,0,0,2.629-2.051,27.608,27.608,0,0,1,2.5-6.021,2.813,2.813,0,0,0-.473-3.366L16.3,24.245a2.84,2.84,0,0,1,0-3.97l3.97-3.97a2.813,2.813,0,0,1,3.97,0l2.813,2.813a2.813,2.813,0,0,0,3.366.473,27.74,27.74,0,0,1,6.021-2.5A2.813,2.813,0,0,0,38.5,14.463V10.414A2.813,2.813,0,0,1,41.309,7.6h5.6V2H41.257a8.414,8.414,0,0,0-8.414,8.414v1.919A34.023,34.023,0,0,0,29.556,13.7l-1.262-1.367a8.414,8.414,0,0,0-11.885,0L12.333,16.3a8.493,8.493,0,0,0,0,11.885L13.7,29.556a33.525,33.525,0,0,0-1.367,3.287H10.414A8.493,8.493,0,0,0,2,41.257v5.6a8.493,8.493,0,0,0,8.414,8.414h1.919A34.022,34.022,0,0,0,13.7,58.558l-1.367,1.288a8.414,8.414,0,0,0,0,11.885L16.3,75.7a8.44,8.44,0,0,0,11.885,0l1.367-1.367A34.023,34.023,0,0,0,32.843,75.7v1.919a8.467,8.467,0,0,0,2.472,5.942,8.361,8.361,0,0,0,5.942,2.472h5.6v-5.5h-5.6a2.84,2.84,0,0,1-1.972-.841Z" stroke="none"/>
        <path d="M 16.58956909179688 59.36736297607422 L 16.89259147644043 59.0643424987793 C 16.82665634155273 58.94525527954102 16.76152420043945 58.82573699951172 16.69718170166016 58.70578002929688 C 16.68607521057129 58.92971420288086 16.64994621276855 59.15169143676758 16.58956909179688 59.36736297607422 M 14.35752773284912 53.05696487426758 C 14.3187370300293 52.92844009399414 14.28082084655762 52.79977798461914 14.24371337890625 52.67073822021484 L 13.82912921905518 52.67073822021484 C 14.01868438720703 52.77981185913086 14.19594573974609 52.90933227539062 14.35752773284912 53.05696487426758 M 14.16476631164551 35.46957397460938 C 14.19619560241699 35.36006927490234 14.22821521759033 35.25081634521484 14.2608699798584 35.14167022705078 C 14.1124095916748 35.26609039306641 13.95219993591309 35.37592697143555 13.78251361846924 35.46957397460938 L 14.16476631164551 35.46957397460938 M 16.68996238708496 29.30137062072754 C 16.7341423034668 29.22003936767578 16.77869033813477 29.13891410827637 16.8236083984375 29.0579891204834 L 16.61554336547852 28.84592247009277 C 16.65198707580566 28.99561882019043 16.6768627166748 29.14782333374023 16.68996238708496 29.30137062072754 M 29.08536148071289 16.90197944641113 C 29.20878410339355 16.83355903625488 29.33279800415039 16.76592826843262 29.45715522766113 16.69921875 C 29.22915458679199 16.69162559509277 29.0028076171875 16.65807723999023 28.78282737731934 16.59944534301758 L 29.08536148071289 16.90197944641113 M 35.03656387329102 14.37975883483887 C 35.18925476074219 14.33324527740479 35.34243392944336 14.28787994384766 35.49586486816406 14.24374294281006 L 35.49586486816406 13.73382759094238 C 35.37197113037109 13.96843814849854 35.21752166748047 14.18565845489502 35.03656387329102 14.37975883483887 M 41.24926376342773 86.03514099121094 C 39.02082443237305 86.03514099121094 36.88417434692383 85.14540863037109 35.31430435180664 83.56352233886719 C 33.7403450012207 81.98528289794922 32.85223770141602 79.85002899169922 32.84268951416016 77.62110900878906 L 32.84268951416016 75.70165252685547 C 31.72399711608887 75.30356597900391 30.62693214416504 74.84719085693359 29.55594444274902 74.33438873291016 L 28.18867874145508 75.70165252685547 C 24.89850234985352 78.96356964111328 19.59400939941406 78.96356964111328 16.30385208129883 75.70165252685547 L 12.33347797393799 71.73128509521484 C 9.057197570800781 68.44705200195312 9.057197570800781 63.13069534301758 12.33347797393799 59.84648132324219 L 13.70075798034668 58.55808258056641 C 13.18795776367188 57.48711013793945 12.7315845489502 56.39004135131836 12.33347797393799 55.2713508605957 L 10.41403770446777 55.2713508605957 C 5.784931182861328 55.22854995727539 2.042798042297363 51.48640060424805 1.999997973442078 46.85730743408203 L 1.999997973442078 41.25672149658203 C 2.042798042297363 36.62762832641602 5.784931182861328 32.88549423217773 10.41403770446777 32.84268188476562 L 12.33349132537842 32.84268188476562 C 12.73071765899658 31.72365570068359 13.18711757659912 30.62653541564941 13.70075798034668 29.55594825744629 L 12.33347797393799 28.18866920471191 C 9.099905014038086 24.88689613342285 9.099905014038086 19.60561561584473 12.33347797393799 16.30385589599609 L 16.40903854370117 12.33348274230957 C 19.69326400756836 9.057201385498047 25.00962257385254 9.057201385498047 28.29385185241699 12.33348274230957 L 29.55594444274902 13.70076274871826 C 30.62691879272461 13.18796253204346 31.72399711608887 12.73157596588135 32.84268951416016 12.33348274230957 L 32.84268951416016 10.41402912139893 C 32.84267807006836 5.767095565795898 36.60977172851562 2.000002384185791 41.25671768188477 2.000002384185791 L 46.90989303588867 2.000002384185791 L 46.90989303588867 7.600588798522949 L 41.30930328369141 7.600588798522949 C 39.75547790527344 7.600588798522949 38.49586486816406 8.860215187072754 38.49586486816406 10.41402912139893 L 38.49586486816406 14.46328258514404 C 38.46126556396484 15.6941089630127 37.63030624389648 16.75942993164062 36.4449462890625 17.0926685333252 C 34.34665298461914 17.68576240539551 32.32559967041016 18.52418899536133 30.42365074157715 19.59058952331543 C 29.32246398925781 20.20482635498047 27.94709014892578 20.01141548156738 27.05803871154785 19.11729621887207 L 24.24459838867188 16.30385589599609 C 23.1468505859375 15.21074867248535 21.37196922302246 15.21074867248535 20.27422523498535 16.30385589599609 L 16.30385208129883 20.27422904968262 C 15.22493171691895 21.37778854370117 15.22493171691895 23.14102935791016 16.30385208129883 24.24460220336914 L 19.03841209411621 27.0317497253418 C 19.93253135681152 27.92080307006836 20.12594413757324 29.29617500305176 19.51170539855957 30.39734840393066 C 18.44419860839844 32.29876327514648 17.6057186126709 34.31995010375977 17.01378440856934 36.41865539550781 C 16.68055725097656 37.6040153503418 15.61522483825684 38.43497467041016 14.38439750671387 38.46957397460938 L 10.41403770446777 38.46957397460938 C 8.876237869262695 38.48354721069336 7.629011154174805 39.71912384033203 7.600584506988525 41.25672149658203 L 7.600584506988525 46.85730743408203 C 7.614864826202393 48.40517425537109 8.866157531738281 49.65646743774414 10.41403770446777 49.67074966430664 L 14.46329116821289 49.67073440551758 C 15.69411754608154 49.70534896850586 16.75943756103516 50.53630828857422 17.09266471862793 51.72168350219727 C 17.68553161621094 53.8200569152832 18.52397155761719 55.84112167358398 19.59058380126953 57.74295043945312 C 20.19142532348633 58.83774948120117 19.99870491027832 60.19757461547852 19.11729049682617 61.08228302001953 L 16.30385208129883 63.89570999145508 C 15.21074485778809 64.99345397949219 15.21074485778809 66.76833343505859 16.30385208129883 67.86609649658203 L 20.2479305267334 71.91533660888672 C 21.34567832946777 73.00844573974609 23.12055969238281 73.00844573974609 24.21830368041992 71.91533660888672 L 27.0317440032959 69.10189819335938 C 27.92079544067383 68.207763671875 29.29618644714355 68.01435089111328 30.39735794067383 68.62860107421875 C 32.29974365234375 69.69410705566406 34.3206787109375 70.53249359130859 36.41865158081055 71.12652587890625 C 37.60401153564453 71.45976257324219 38.43495941162109 72.52508544921875 38.46957015991211 73.75591278076172 L 38.46957015991211 77.72627258300781 C 38.47177124023438 78.46516418457031 38.76457214355469 79.17349243164062 39.2846794128418 79.69831085205078 L 39.28466415405273 79.69831085205078 C 39.80681228637695 80.22569274902344 40.51466369628906 80.52772521972656 41.25670623779297 80.53971862792969 L 46.85730361938477 80.53971862792969 L 46.85730361938477 86.03513336181641 L 41.25671768188477 86.03513336181641 C 41.25413131713867 86.03514099121094 41.25185012817383 86.03514099121094 41.24926376342773 86.03514099121094 Z" stroke="none" fill="#031342"/>
      </g>
      <g id="Path_81912" data-name="Path 81912" transform="translate(15.386 -1.977)" fill="none" stroke-linecap="round" stroke-linejoin="round">
        <path d="M60.341,69.29a8.361,8.361,0,0,0-4.654,1.42L39.595,58.641a2.787,2.787,0,0,0-1.683-.552H26.685a8.414,8.414,0,0,1-8.414-8.414V38.447a8.414,8.414,0,0,1,8.414-8.414H37.912a2.787,2.787,0,0,0,1.683-.552l16.013-12.1a8.414,8.414,0,1,0-3.681-6.994,8.309,8.309,0,0,0,.421,2.5L36.966,24.432H26.685A14.015,14.015,0,0,0,12.67,38.447V49.674A14.015,14.015,0,0,0,26.685,63.689H36.966L52.347,75.232a8.309,8.309,0,0,0-.421,2.5,8.414,8.414,0,1,0,8.414-8.414Zm0-61.712a2.813,2.813,0,1,1-2.813,2.813,2.813,2.813,0,0,1,2.813-2.813Zm0,72.913a1.168,1.168,0,1,1,0,.026Z" stroke="none"/>
        <path d="M 55.31088256835938 74.76471710205078 C 55.53998565673828 74.37062072753906 55.81404495239258 74.00572967529297 56.12602996826172 73.67718505859375 C 55.70413970947266 73.73950958251953 55.27231979370117 73.71139526367188 54.86076736450195 73.5936279296875 C 55.09215927124023 73.94879913330078 55.24514007568359 74.34848022460938 55.31088256835938 74.76471710205078 M 54.89683151245117 14.47084617614746 C 55.3143310546875 14.36914348602295 55.74944305419922 14.35818672180176 56.1714973449707 14.43881225585938 C 55.84347534179688 14.10101127624512 55.55611038208008 13.72378349304199 55.31717681884766 13.31473541259766 C 55.2584228515625 13.72394466400146 55.11558151245117 14.11805152893066 54.89683151245117 14.47084617614746 M 60.34074020385742 86.1439208984375 C 55.69380569458008 86.1439208984375 51.92672729492188 82.37681579589844 51.92672729492188 77.72989654541016 C 51.93845748901367 76.88063812255859 52.08033752441406 76.03821563720703 52.34741973876953 75.23196411132812 L 36.96552658081055 63.68897247314453 L 26.68461799621582 63.68897247314453 C 18.94455146789551 63.68897247314453 12.67000579833984 57.41441345214844 12.67000579833984 49.67434692382812 L 12.67000579833984 38.44688034057617 C 12.67000579833984 30.70681381225586 18.94455146789551 24.43225479125977 26.68461799621582 24.43225479125977 L 36.96552658081055 24.43225479125977 L 52.34741973876953 12.88925457000732 C 52.08033752441406 12.08301448822021 51.93845748901367 11.24058723449707 51.92672729492188 10.39134788513184 C 51.94388580322266 6.528827667236328 54.58867263793945 3.174107551574707 58.34049987792969 2.255920886993408 C 62.0922966003418 1.337724089622498 65.9874267578125 3.091904878616333 67.78640747070312 6.509947776794434 C 69.58536529541016 9.927987098693848 68.82608795166016 14.13185405731201 65.94507598876953 16.70461463928223 C 63.06406784057617 19.27737426757812 58.80143356323242 19.55814933776855 55.60784530639648 17.38550758361816 L 39.59489822387695 29.48068046569824 C 39.10890960693359 29.84280204772949 38.51845169067383 30.03675651550293 37.9120979309082 30.0328540802002 L 26.68461799621582 30.0328540802002 C 22.03767204284668 30.0328540802002 18.27059173583984 33.79994583129883 18.27059173583984 38.44688034057617 L 18.27059173583984 49.67436218261719 C 18.27059173583984 54.32129287719727 22.03767204284668 58.08840179443359 26.68461799621582 58.08838653564453 L 37.9120979309082 58.08840179443359 C 38.51826858520508 58.0845947265625 39.10891342163086 58.2784423828125 39.59489822387695 58.64056015014648 L 55.68672561645508 70.70942687988281 C 57.06300735473633 69.78524017333984 58.68295288085938 69.291015625 60.34074020385742 69.28955841064453 L 60.34075164794922 69.31584167480469 C 64.98770141601562 69.31585693359375 68.75477600097656 73.08293151855469 68.75477600097656 77.72988128662109 C 68.75477600097656 82.37681579589844 64.98768615722656 86.1439208984375 60.34074020385742 86.1439208984375 Z M 60.34074020385742 74.86385345458984 C 58.78692626953125 74.86385345458984 57.52729797363281 76.12348175048828 57.52729797363281 77.67730712890625 C 57.52729797363281 79.23111724853516 58.78692626953125 80.49073791503906 60.34074020385742 80.49073791503906 L 60.34074020385742 80.51702880859375 C 61.09146881103516 80.51686859130859 61.81112670898438 80.21704864501953 62.33950042724609 79.68372344970703 C 62.86788558959961 79.15039825439453 63.16120529174805 78.42801666259766 63.15417861938477 77.67730712890625 C 63.15417861938477 76.12348175048828 61.89456558227539 74.86385345458984 60.34074020385742 74.86385345458984 Z M 60.34074020385742 7.577907562255859 C 58.78692626953125 7.577907562255859 57.52729797363281 8.837520599365234 57.52729797363281 10.39134788513184 C 57.52729797363281 11.94516086578369 58.78692626953125 13.2047872543335 60.34074020385742 13.2047872543335 C 61.89456558227539 13.2047872543335 63.15417861938477 11.94516086578369 63.15417861938477 10.39134788513184 C 63.15417861938477 8.837520599365234 61.89456558227539 7.577907562255859 60.34074020385742 7.577907562255859 Z" stroke="none" fill="#031342"/>
      </g>
      <g id="Path_81913" data-name="Path 81913" transform="translate(24.07 18.84)" fill="none" stroke-linecap="round" stroke-linejoin="round">
        <path d="M51.656,14.816a8.388,8.388,0,0,0-7.888,5.6H18v5.6H43.768A8.388,8.388,0,1,0,51.656,14.79Zm0,11.227A2.813,2.813,0,1,1,54.47,23.23a2.813,2.813,0,0,1-2.813,2.813Z" stroke="none"/>
        <path d="M 45.88288497924805 22.54470634460449 C 45.58791732788086 22.83770751953125 45.23413848876953 23.06729888916016 44.84464263916016 23.21717643737793 C 45.23258209228516 23.36644744873047 45.58513259887695 23.59481811523438 45.87945556640625 23.88624382019043 C 45.85517883300781 23.67095184326172 45.84268951416016 23.45199203491211 45.84268951416016 23.23031997680664 C 45.84268951416016 22.99847221374512 45.85635757446289 22.76953887939453 45.88288497924805 22.54470634460449 M 51.66045379638672 14.78999710083008 C 55.9185791015625 14.79017639160156 59.50163269042969 17.98111915588379 59.99226379394531 22.21138954162598 C 60.48307037353516 26.44320869445801 57.72364044189453 30.37078857421875 53.5760612487793 31.34377861022949 C 49.42848587036133 32.31678009033203 45.21029281616211 30.02607727050781 43.76797103881836 26.01746940612793 L 17.99999237060547 26.01746940612793 L 17.99999237060547 20.41687965393066 L 43.76797103881836 20.41687965393066 C 44.94744110107422 17.06899833679199 48.10657119750977 14.82601928710938 51.65612030029297 14.81628799438477 L 51.65613174438477 14.79000091552734 C 51.65769195556641 14.78999710083008 51.65889358520508 14.78999710083008 51.66045379638672 14.78999710083008 Z M 51.65613174438477 26.04375839233398 C 53.20995330810547 26.04375839233398 54.46955871582031 24.78413963317871 54.46955871582031 23.23031997680664 C 54.46955871582031 21.67649841308594 53.20995330810547 20.41687965393066 51.65613174438477 20.41687965393066 C 50.10231018066406 20.41687965393066 48.84268951416016 21.67649841308594 48.84268951416016 23.23031997680664 C 48.84268951416016 24.78413963317871 50.10231018066406 26.04375839233398 51.65612030029297 26.04375839233398 L 51.65613174438477 26.04375839233398 Z" stroke="none" fill="#031342"/>
      </g>
    </g>
    <g id="Group_26685" data-name="Group 26685" transform="translate(401.458 2357.984)">
      <path id="Path_81911-2" data-name="Path 81911" d="M39.285,79.7a2.813,2.813,0,0,1-.815-1.972v-3.97a2.813,2.813,0,0,0-2.051-2.629,27.846,27.846,0,0,1-6.021-2.5,2.813,2.813,0,0,0-3.366.473l-2.813,2.813a2.813,2.813,0,0,1-3.97,0L16.3,67.866a2.813,2.813,0,0,1,0-3.97l2.813-2.813a2.813,2.813,0,0,0,.473-3.339,27.714,27.714,0,0,1-2.5-6.021,2.813,2.813,0,0,0-2.629-2.051H10.414A2.84,2.84,0,0,1,7.6,46.857v-5.6a2.84,2.84,0,0,1,2.813-2.787h3.97a2.813,2.813,0,0,0,2.629-2.051,27.608,27.608,0,0,1,2.5-6.021,2.813,2.813,0,0,0-.473-3.366L16.3,24.245a2.84,2.84,0,0,1,0-3.97l3.97-3.97a2.813,2.813,0,0,1,3.97,0l2.813,2.813a2.813,2.813,0,0,0,3.366.473,27.74,27.74,0,0,1,6.021-2.5A2.813,2.813,0,0,0,38.5,14.463V10.414A2.813,2.813,0,0,1,41.309,7.6h5.6V2H41.257a8.414,8.414,0,0,0-8.414,8.414v1.919A34.023,34.023,0,0,0,29.556,13.7l-1.262-1.367a8.414,8.414,0,0,0-11.885,0L12.333,16.3a8.493,8.493,0,0,0,0,11.885L13.7,29.556a33.525,33.525,0,0,0-1.367,3.287H10.414A8.493,8.493,0,0,0,2,41.257v5.6a8.493,8.493,0,0,0,8.414,8.414h1.919A34.022,34.022,0,0,0,13.7,58.558l-1.367,1.288a8.414,8.414,0,0,0,0,11.885L16.3,75.7a8.44,8.44,0,0,0,11.885,0l1.367-1.367A34.023,34.023,0,0,0,32.843,75.7v1.919a8.467,8.467,0,0,0,2.472,5.942,8.361,8.361,0,0,0,5.942,2.472h5.6v-5.5h-5.6a2.84,2.84,0,0,1-1.972-.841Z" transform="translate(-2 -2)" fill="#f68f00"/>
      <path id="Path_81912-2" data-name="Path 81912" d="M60.341,69.29a8.361,8.361,0,0,0-4.654,1.42L39.595,58.641a2.787,2.787,0,0,0-1.683-.552H26.685a8.414,8.414,0,0,1-8.414-8.414V38.447a8.414,8.414,0,0,1,8.414-8.414H37.912a2.787,2.787,0,0,0,1.683-.552l16.013-12.1a8.414,8.414,0,1,0-3.681-6.994,8.309,8.309,0,0,0,.421,2.5L36.966,24.432H26.685A14.015,14.015,0,0,0,12.67,38.447V49.674A14.015,14.015,0,0,0,26.685,63.689H36.966L52.347,75.232a8.309,8.309,0,0,0-.421,2.5,8.414,8.414,0,1,0,8.414-8.414Zm0-61.712a2.813,2.813,0,1,1-2.813,2.813,2.813,2.813,0,0,1,2.813-2.813Zm0,72.913a1.168,1.168,0,1,1,0,.026Z" transform="translate(15.386 -1.977)" fill="#f68f00"/>
      <path id="Path_81913-2" data-name="Path 81913" d="M51.656,14.816a8.388,8.388,0,0,0-7.888,5.6H18v5.6H43.768A8.388,8.388,0,1,0,51.656,14.79Zm0,11.227A2.813,2.813,0,1,1,54.47,23.23a2.813,2.813,0,0,1-2.813,2.813Z" transform="translate(24.07 18.84)" fill="#f68f00"/>
    </g>
  </g>
</svg>
