<svg xmlns="http://www.w3.org/2000/svg" xmlns:xlink="http://www.w3.org/1999/xlink" width="102.804" height="100.004" viewBox="0 0 102.804 100.004">
  <defs>
    <clipPath id="clip-path">
      <path id="Path_81915" data-name="Path 81915" d="M0,0H100V100H0Z" fill="#00cb82"/>
    </clipPath>
  </defs>
  <g id="Group_26689" data-name="Group 26689" transform="translate(-1457.194 -2377.699)">
    <g id="Group_26688" data-name="Group 26688" transform="translate(1459.994 2377.699)" clip-path="url(#clip-path)">
      <g id="Path_81914" data-name="Path 81914" transform="translate(12.667)" fill="none" stroke-linecap="round" stroke-linejoin="round">
        <path d="M54,41.781A18.751,18.751,0,0,1,70.669,60.419v37.5a2.083,2.083,0,0,1-4.167,0v-37.5A14.584,14.584,0,0,0,54,45.981V70.836a8.334,8.334,0,0,1-8.334,8.334,16.432,16.432,0,0,1-9.8-3A6.25,6.25,0,0,0,32.23,75a2.288,2.288,0,0,0-2.242,1.542,3.7,3.7,0,0,0,.675,3.7l14.48,16.288A2.084,2.084,0,1,1,42.027,99.3L31.5,87.462a2.108,2.108,0,0,1-.417.042H14.417A10.417,10.417,0,0,1,4,77.087V10.417A10.417,10.417,0,0,1,14.417,0H43.585A10.417,10.417,0,0,1,54,10.417ZM27.551,83.016a7.779,7.779,0,0,1-1.567-7.629,6.467,6.467,0,0,1,6.142-4.55,10.5,10.5,0,0,1,6.167,1.95A12.311,12.311,0,0,0,45.668,75a4.167,4.167,0,0,0,4.167-4.167V10.417a6.25,6.25,0,0,0-6.25-6.25H14.417a6.25,6.25,0,0,0-6.25,6.25V77.087a6.25,6.25,0,0,0,6.25,6.25H27.834ZM22.751,12.5a2.083,2.083,0,1,1,0-4.167h12.5a2.083,2.083,0,0,1,0,4.167Zm12.5,16.667c6.075,0,10.417,3.617,10.417,10.417,0,6.5-5.329,12.584-15.634,18.476a2.083,2.083,0,0,1-2.067,0c-10.3-5.888-15.634-11.975-15.634-18.476,0-6.8,4.342-10.417,10.417-10.417A8.343,8.343,0,0,1,29,31.785,8.343,8.343,0,0,1,35.251,29.168ZM41.5,39.585c0-4.313-2.325-6.25-6.25-6.25-1.958,0-3.338.917-4.388,3.017a2.083,2.083,0,0,1-3.725,0c-1.054-2.1-2.429-3.017-4.388-3.017-3.925,0-6.25,1.938-6.25,6.25,0,4.438,4.063,9.25,12.5,14.255C37.439,48.835,41.5,44.023,41.5,39.585Z" stroke="none"/>
        <path d="M 14.4171028137207 0 L 43.5849609375 0 C 49.33816528320312 0 54.00205612182617 4.663894653320312 54.00205612182617 10.41709136962891 L 54.00205612182617 41.7808952331543 C 63.49385452270508 42.84210968017578 70.67124176025391 50.86824798583984 70.66941070556641 60.41915512084961 L 70.66941070556641 97.92070770263672 C 70.66941070556641 99.07134246826172 69.73662567138672 100.0041275024414 68.58599090576172 100.0041275024414 C 67.43534851074219 100.0041275024414 66.50257873535156 99.07134246826172 66.50257873535156 97.92070770263672 L 66.50257873535156 60.41915512084961 C 66.50444030761719 53.1680793762207 61.17879486083984 47.01692581176758 54.00205612182617 45.98106384277344 L 54.00205612182617 70.83626556396484 C 54.00205612182617 75.43881225585938 50.27095031738281 79.16993713378906 45.66838073730469 79.16993713378906 C 41.94739532470703 79.16993713378906 38.65976333618164 78.16989135742188 35.86797714233398 76.16981506347656 C 34.80690002441406 75.41080474853516 33.53255462646484 75.00368499755859 32.23033142089844 75.00309753417969 C 31.22550201416016 74.96849060058594 30.3157958984375 75.59409332275391 29.98856353759766 76.54481506347656 C 29.53022384643555 77.92821502685547 29.80522537231445 79.28243255615234 30.66359329223633 80.24913787841797 L 45.14336395263672 96.53730773925781 C 45.90739440917969 97.39798736572266 45.82904052734375 98.71508026123047 44.96834564208984 99.47911071777344 C 44.10766983032227 100.2431411743164 42.79057693481445 100.1647720336914 42.02656173706055 99.30409240722656 L 31.50113296508789 87.46193695068359 C 31.36396408081055 87.48963165283203 31.2243766784668 87.50357055664062 31.08443832397461 87.50361633300781 L 14.4171028137207 87.50360107421875 C 8.663887023925781 87.50361633300781 3.999992370605469 82.8397216796875 3.999992370605469 77.08650970458984 L 3.999992370605469 10.41709136962891 C 3.999992370605469 4.663894653320312 8.663887023925781 0 14.4171028137207 0 Z M 45.66838073730469 75.00309753417969 C 47.96967315673828 75.00309753417969 49.83522415161133 73.13754272460938 49.83522415161133 70.83626556396484 L 49.83522415161133 10.41709136962891 C 49.83522415161133 6.965171813964844 47.03688812255859 4.166831970214844 43.5849609375 4.166831970214844 L 14.4171028137207 4.166831970214844 C 10.96517944335938 4.166831970214844 8.166839599609375 6.965171813964844 8.166839599609375 10.41709136962891 L 8.166839599609375 77.08650970458984 C 8.166839599609375 80.53843688964844 10.96517944335938 83.33676910400391 14.4171028137207 83.33676910400391 L 27.83431625366211 83.33676910400391 L 27.55097961425781 83.01592254638672 C 25.70159530639648 80.93611145019531 25.10414886474609 78.02677154541016 25.9842414855957 75.38644409179688 C 26.90927124023438 72.60299682617188 29.35937881469727 70.83626556396484 32.12616348266602 70.83626556396484 C 34.33563232421875 70.82115936279297 36.49382781982422 71.50363159179688 38.29308700561523 72.78632354736328 C 40.35984039306641 74.26138305664062 42.79327011108398 75.00309753417969 45.66838073730469 75.00309753417969 Z M 22.75077819824219 8.33367919921875 L 35.25128555297852 8.33367919921875 C 36.40193176269531 8.33367919921875 37.33470153808594 9.266448974609375 37.33470153808594 10.41709136962891 C 37.33470153808594 11.56772613525391 36.40193176269531 12.50051116943359 35.25128555297852 12.50051116943359 L 22.75077819824219 12.50051116943359 C 21.60013198852539 12.50051116943359 20.66736221313477 11.56772613525391 20.66736221313477 10.41709136962891 C 20.66736221313477 9.266448974609375 21.60013198852539 8.33367919921875 22.75077819824219 8.33367919921875 Z M 22.75077819824219 29.16786193847656 C 25.25086975097656 29.16786193847656 27.36347198486328 30.06790924072266 29.00102615356445 31.78464508056641 C 30.63859558105469 30.06790924072266 32.75117874145508 29.16786193847656 35.25128555297852 29.16786193847656 C 41.3265495300293 29.16786193847656 45.66838073730469 32.78467559814453 45.66838073730469 39.5849723815918 C 45.66838073730469 46.08523178100586 40.33899307250977 52.16881561279297 30.03440856933594 58.06072616577148 C 29.39404296875 58.4265251159668 28.60801315307617 58.4265251159668 27.96765518188477 58.06072616577148 C 17.66305541992188 52.1729850769043 12.33367156982422 46.08523178100586 12.33367156982422 39.5849723815918 C 12.33367156982422 32.78467559814453 16.67553329467773 29.16786193847656 22.75077819824219 29.16786193847656 Z M 29.00102615356445 37.50139999389648 C 28.21260833740234 37.50139999389648 27.49171829223633 37.05635452270508 27.13845443725586 36.35149383544922 C 26.0842399597168 34.25141906738281 24.70919418334961 33.33470916748047 22.75077819824219 33.33470916748047 C 18.82561111450195 33.33470916748047 16.50051879882812 35.27227783203125 16.50051879882812 39.5849723815918 C 16.50051879882812 44.02264785766602 20.56317901611328 48.83535385131836 29.00102615356445 53.83972549438477 C 37.43886947631836 48.8353385925293 41.50154876708984 44.02264785766602 41.50154876708984 39.5849723815918 C 41.50154876708984 35.27227783203125 39.17645645141602 33.33470916748047 35.25128555297852 33.33470916748047 C 33.29286956787109 33.33470916748047 31.91365432739258 34.25141906738281 30.86360931396484 36.35149383544922 C 30.51033401489258 37.05635452270508 29.78945541381836 37.50139999389648 29.00102615356445 37.50139999389648 Z" stroke="none" fill="#031342"/>
      </g>
    </g>
    <g id="Group_26688-2" data-name="Group 26688" transform="translate(1457.194 2377.699)" clip-path="url(#clip-path)">
      <path id="Path_81914-2" data-name="Path 81914" d="M54,41.781A18.751,18.751,0,0,1,70.669,60.419v37.5a2.083,2.083,0,0,1-4.167,0v-37.5A14.584,14.584,0,0,0,54,45.981V70.836a8.334,8.334,0,0,1-8.334,8.334,16.432,16.432,0,0,1-9.8-3A6.25,6.25,0,0,0,32.23,75a2.288,2.288,0,0,0-2.242,1.542,3.7,3.7,0,0,0,.675,3.7l14.48,16.288A2.084,2.084,0,1,1,42.027,99.3L31.5,87.462a2.108,2.108,0,0,1-.417.042H14.417A10.417,10.417,0,0,1,4,77.087V10.417A10.417,10.417,0,0,1,14.417,0H43.585A10.417,10.417,0,0,1,54,10.417ZM27.551,83.016a7.779,7.779,0,0,1-1.567-7.629,6.467,6.467,0,0,1,6.142-4.55,10.5,10.5,0,0,1,6.167,1.95A12.311,12.311,0,0,0,45.668,75a4.167,4.167,0,0,0,4.167-4.167V10.417a6.25,6.25,0,0,0-6.25-6.25H14.417a6.25,6.25,0,0,0-6.25,6.25V77.087a6.25,6.25,0,0,0,6.25,6.25H27.834ZM22.751,12.5a2.083,2.083,0,1,1,0-4.167h12.5a2.083,2.083,0,0,1,0,4.167Zm12.5,16.667c6.075,0,10.417,3.617,10.417,10.417,0,6.5-5.329,12.584-15.634,18.476a2.083,2.083,0,0,1-2.067,0c-10.3-5.888-15.634-11.975-15.634-18.476,0-6.8,4.342-10.417,10.417-10.417A8.343,8.343,0,0,1,29,31.785,8.343,8.343,0,0,1,35.251,29.168ZM41.5,39.585c0-4.313-2.325-6.25-6.25-6.25-1.958,0-3.338.917-4.388,3.017a2.083,2.083,0,0,1-3.725,0c-1.054-2.1-2.429-3.017-4.388-3.017-3.925,0-6.25,1.938-6.25,6.25,0,4.438,4.063,9.25,12.5,14.255C37.439,48.835,41.5,44.023,41.5,39.585Z" transform="translate(12.667)" fill="#00cb82"/>
    </g>
  </g>
</svg>
