<svg xmlns="http://www.w3.org/2000/svg" width="73.46" height="73.46" viewBox="0 0 73.46 73.46">
  <g id="Group_10394" data-name="Group 10394" transform="translate(0.01)">
    <path id="Path_64927" data-name="Path 64927" d="M284.69,1865.46a36.73,36.73,0,1,1,36.76-36.69A36.73,36.73,0,0,1,284.69,1865.46Z" transform="translate(-248 -1792)" fill="#fff"/>
    <path id="Path_64928" data-name="Path 64928" d="M298.93,1828.48l-.06-.12-4.64-8L286.46,1807a1.81,1.81,0,0,0-2.57-.71q-.69.39-1.36.8a1.79,1.79,0,0,0-.65,2.6l5.14,8.86,6.93,11.94.39.65Z" transform="translate(-248 -1792)" fill="#fff"/>
    <path id="Path_64929" data-name="Path 64929" d="M270.66,1839.16l11.07-18.94-4.72-2.76-11.07,18.94Z" transform="translate(-248 -1792)" fill="#fff"/>
    <path id="Path_64930" data-name="Path 64930" d="M293.23,1831.32a.527.527,0,0,0,0-.08l-2.77-5a.31.31,0,0,0-.32-.18H279.23a.33.33,0,0,0-.33.2l-2.69,4.85c0,.06-.06.13-.1.21h17.12Z" transform="translate(-248 -1792)" fill="#fff"/>
    <path id="Path_64931" data-name="Path 64931" d="M305.74,1841.91a10.269,10.269,0,0,0-.48-3.17,6.63,6.63,0,0,0-2-3.08,1.58,1.58,0,0,0-2.07-.21c-.68.43-1.39.84-2.1,1.23a1.49,1.49,0,0,0-.8,1.66,5.22,5.22,0,0,0,1.83,3.34,16.342,16.342,0,0,0,1.82,1.29,4.26,4.26,0,0,1,2,2.85.509.509,0,0,0,.06.24.86.86,0,0,0,.33.26.519.519,0,0,0,.26-.18.739.739,0,0,0,.11-.17,7.66,7.66,0,0,0,1.04-4.06Z" transform="translate(-248 -1792)" fill="#fff"/>
    <path id="Path_64932" data-name="Path 64932" d="M261.32,1826.06v5.25h6.48a.3.3,0,0,0,.29-.18l2.87-4.86c0-.07.07-.14.11-.23h-9.76Z" transform="translate(-248 -1792)" fill="#fff"/>
    <path id="Path_64933" data-name="Path 64933" d="M298.65,1826.07l.08.17q1.34,2.46,2.67,4.92a.32.32,0,0,0,.34.18h6.32v-5.25h-9.41Z" transform="translate(-248 -1792)" fill="#fff"/>
    <path id="Path_64934" data-name="Path 64934" d="M297.51,1836.6l4.59-2.67-2.66-4.57-4.59,2.67Z" transform="translate(-248 -1792)" fill="#fff"/>
    <path id="Path_64935" data-name="Path 64935" d="M270,1840.16l-4.67-2.73-.06.2-1.77,6.71c-.15.55-.3,1.1-.43,1.65a.54.54,0,0,0,.08.41.45.45,0,0,0,.36.08.579.579,0,0,0,.26-.19l5.37-5.22C269.45,1840.77,269.73,1840.46,270,1840.16Z" transform="translate(-248 -1792)" fill="#fff"/>
    <path id="Path_64936" data-name="Path 64936" d="M282.12,1819.57c.57-1,1.15-1.91,1.65-2.88a1.74,1.74,0,0,0-.67-2.29q-.84-.53-1.71-1a1.78,1.78,0,0,0-2.42.68l-.73,1.26-.85,1.46Z" transform="translate(-248 -1792)" fill="#fff"/>
    <path id="Path_64937" data-name="Path 64937" d="M298.93,1827.83l-4.58,2.66-.39-.65L287,1817.9l-5.14-8.86a1.79,1.79,0,0,1,.65-2.6q.67-.41,1.36-.8a1.81,1.81,0,0,1,2.57.71l7.77,13.37,4.64,8Z" transform="translate(-248 -1792)" fill="#00337f"/>
    <path id="Path_64938" data-name="Path 64938" d="M270.66,1838.51l-4.72-2.76L277,1816.81l4.72,2.76Z" transform="translate(-248 -1792)" fill="#00337f"/>
    <path id="Path_64939" data-name="Path 64939" d="M293.23,1830.66H276.11a.377.377,0,0,1,.1-.21l2.69-4.85a.33.33,0,0,1,.33-.2h10.89a.31.31,0,0,1,.32.18l2.77,5A.527.527,0,0,1,293.23,1830.66Z" transform="translate(-248 -1792)" fill="#00337f"/>
    <path id="Path_64940" data-name="Path 64940" d="M305.74,1841.25a7.66,7.66,0,0,1-1,4.06.737.737,0,0,1-.11.17.52.52,0,0,1-.26.18.86.86,0,0,1-.33-.26.511.511,0,0,1-.06-.24,4.26,4.26,0,0,0-2-2.85,16.361,16.361,0,0,1-1.82-1.29,5.219,5.219,0,0,1-1.83-3.34,1.49,1.49,0,0,1,.8-1.66c.71-.38,1.42-.79,2.1-1.23a1.58,1.58,0,0,1,2.07.21,6.63,6.63,0,0,1,2,3.08A10.269,10.269,0,0,1,305.74,1841.25Z" transform="translate(-248 -1792)" fill="#00337f"/>
    <path id="Path_64941" data-name="Path 64941" d="M261.32,1825.41h9.76c0,.09-.07.16-.11.23l-2.87,4.86a.3.3,0,0,1-.29.18h-6.48v-5.25Z" transform="translate(-248 -1792)" fill="#00337f"/>
    <path id="Path_64942" data-name="Path 64942" d="M298.65,1825.42h9.41v5.25h-6.32a.32.32,0,0,1-.34-.18q-1.33-2.46-2.67-4.92Z" transform="translate(-248 -1792)" fill="#00337f"/>
    <path id="Path_64943" data-name="Path 64943" d="M297.51,1835.94l-2.66-4.57,4.59-2.67,2.66,4.57Z" transform="translate(-248 -1792)" fill="#00337f"/>
    <path id="Path_64944" data-name="Path 64944" d="M270,1839.5c-.29.31-.57.62-.87.91l-5.37,5.22a.579.579,0,0,1-.26.19.45.45,0,0,1-.36-.08.54.54,0,0,1-.08-.41c.13-.55.28-1.1.43-1.65l1.77-6.71.06-.2Z" transform="translate(-248 -1792)" fill="#00337f"/>
    <path id="Path_64945" data-name="Path 64945" d="M282.12,1818.91l-4.73-2.77.85-1.46.73-1.26a1.78,1.78,0,0,1,2.42-.68q.87.47,1.71,1a1.74,1.74,0,0,1,.67,2.29C283.27,1817,282.69,1817.94,282.12,1818.91Z" transform="translate(-248 -1792)" fill="#00337f"/>
  </g>
</svg>
