<svg xmlns="http://www.w3.org/2000/svg" width="82.779" height="82.779" viewBox="0 0 82.779 82.779">
  <g id="Group_25876" data-name="Group 25876" transform="translate(0.25 0.25)">
    <path id="Path_79893" data-name="Path 79893" d="M161.029,41.084l-14.623-9.209V7.232A7.24,7.24,0,0,0,139.175,0H101.732A7.24,7.24,0,0,0,94.5,7.232v3.7a1.205,1.205,0,1,0,2.41,0v-3.7a4.826,4.826,0,0,1,4.821-4.821h37.443A4.826,4.826,0,0,1,144,7.232V30.356l-2.912-1.834a1.205,1.205,0,1,0-1.285,2.04l4.2,2.643V51l-4.2,2.643a1.205,1.205,0,1,0,1.285,2.04L144,53.851v21.2a4.826,4.826,0,0,1-4.821,4.821H126.238a1.205,1.205,0,1,0,0,2.411h12.936a7.24,7.24,0,0,0,7.232-7.232V52.333l14.623-9.209a1.205,1.205,0,0,0,0-2.04Zm-14.623,8.4V34.723l11.719,7.38Z" transform="translate(-79.314)" fill="#fff" stroke="#fff" stroke-width="0.5"/>
    <path id="Path_79894" data-name="Path 79894" d="M41.3,105.047H22.417a4.826,4.826,0,0,1-4.821-4.821V79.03l2.912,1.834a1.205,1.205,0,1,0,1.285-2.04l-4.2-2.643v-17.8l4.2-2.643a1.205,1.205,0,1,0-1.285-2.04L17.6,55.535v-13.8a1.205,1.205,0,0,0-2.411,0V57.053L.563,66.263a1.205,1.205,0,0,0,0,2.04l14.623,9.209v22.714a7.24,7.24,0,0,0,7.232,7.232H41.3a1.205,1.205,0,1,0,0-2.411ZM3.467,67.283,15.186,59.9V74.663ZM43.148,30H35.113a1.205,1.205,0,0,0,0,2.411h8.035a1.205,1.205,0,1,0,0-2.411Zm3.015,1.874a1.2,1.2,0,1,0,.151-1.52,1.214,1.214,0,0,0-.151,1.52Z" transform="translate(0 -25.179)" fill="#fff" stroke="#fff" stroke-width="0.5"/>
    <path id="Path_79895" data-name="Path 79895" d="M157.37,114.269a1.212,1.212,0,0,0-.544,1.006v18.159a1.205,1.205,0,0,0,.557,1.016l13.74,8.766a1.206,1.206,0,0,0,1.291,0l13.9-8.766a1.205,1.205,0,0,0,.562-1.02V130.14a1.205,1.205,0,1,0-2.411,0v2.63l-11.49,7.246V124.706l11.49-7.246v7.055a1.205,1.205,0,0,0,2.411,0v-9.24a1.217,1.217,0,0,0-.562-1.019l-13.9-8.766a1.205,1.205,0,0,0-1.291,0l-13.74,8.766Zm14.405-6.332,11.637,7.338-11.637,7.338-3.735-2.383a1.205,1.205,0,1,0-1.3,2.032l3.822,2.439V140l-11.329-7.228v-15.3l2.756,1.759a1.205,1.205,0,1,0,1.3-2.032l-3.017-1.925Zm-10.491-3.567-5.069,3.209a1.205,1.205,0,0,0,1.289,2.037l5.069-3.209a1.205,1.205,0,0,0-1.289-2.037Zm9.845-6.185-4.759,3a1.205,1.205,0,1,0,1.285,2.04l4.117-2.593,4.117,2.593a1.205,1.205,0,0,0,1.285-2.04l-4.759-3a1.206,1.206,0,0,0-1.285,0Zm16.143,9.317-5.029-3.126a1.205,1.205,0,1,0-1.273,2.047L186,109.55a1.205,1.205,0,1,0,1.273-2.047Zm-1.22,31.584-5.113,3.139a1.205,1.205,0,1,0,1.261,2.054l5.113-3.139a1.205,1.205,0,0,0-1.261-2.054Zm-10.165,6.4-4.117,2.593-4.117-2.593a1.205,1.205,0,1,0-1.285,2.04l4.759,3a1.206,1.206,0,0,0,1.285,0l4.759-3a1.205,1.205,0,1,0-1.285-2.04Zm-19.678-4.337,5.086,3.182a1.205,1.205,0,1,0,1.278-2.044l-5.086-3.182a1.205,1.205,0,0,0-1.278,2.044Z" transform="translate(-130.633 -82.252)" fill="#fff" stroke="#fff" stroke-width="0.5"/>
  </g>
</svg>
