<svg id="Artboard" xmlns="http://www.w3.org/2000/svg" width="93.344" height="55.728" viewBox="0 0 93.344 55.728">
  <g id="Amazon_Web_Services_Logo" transform="translate(0 0)">
    <path id="Shape" d="M24.644,20.324a9.36,9.36,0,0,0,.345,2.77,16.6,16.6,0,0,0,1,2.241,1.348,1.348,0,0,1,.219.716,1.231,1.231,0,0,1-.6.934l-1.973,1.307a1.507,1.507,0,0,1-.814.28,1.445,1.445,0,0,1-.94-.436,9.632,9.632,0,0,1-1.127-1.463c-.313-.529-.626-1.12-.971-1.836a11.6,11.6,0,0,1-9.208,4.3,8.612,8.612,0,0,1-6.264-2.241A7.969,7.969,0,0,1,2,20.916,7.991,7.991,0,0,1,4.85,14.5a11.441,11.441,0,0,1,7.673-2.428,24.951,24.951,0,0,1,3.32.249c1.159.156,2.349.4,3.6.685V10.738c0-2.365-.5-4.015-1.472-4.98-1-.965-2.693-1.432-5.1-1.432a14.335,14.335,0,0,0-3.382.4A25.069,25.069,0,0,0,6.1,5.789a9.023,9.023,0,0,1-1.1.4,1.931,1.931,0,0,1-.5.093c-.438,0-.658-.311-.658-.965V3.8a1.959,1.959,0,0,1,.219-1.089,2.343,2.343,0,0,1,.877-.654A18.1,18.1,0,0,1,8.89.654,19.1,19.1,0,0,1,13.776.062c3.727,0,6.452.84,8.206,2.521,1.723,1.681,2.6,4.233,2.6,7.657V20.324ZM11.928,25.055a10.206,10.206,0,0,0,3.226-.56A6.981,6.981,0,0,0,18.129,22.5a4.93,4.93,0,0,0,1.065-1.992,11.112,11.112,0,0,0,.313-2.708V16.5a26.319,26.319,0,0,0-2.881-.529,23.763,23.763,0,0,0-2.944-.187,7.253,7.253,0,0,0-4.667,1.245A4.326,4.326,0,0,0,7.481,20.6,4.328,4.328,0,0,0,8.64,23.9,4.358,4.358,0,0,0,11.928,25.055Zm25.149,3.362a1.756,1.756,0,0,1-1.19-.311,2.533,2.533,0,0,1-.658-1.214L27.87,2.832a5.421,5.421,0,0,1-.282-1.245.685.685,0,0,1,.752-.778h3.069a1.744,1.744,0,0,1,1.221.311,2.542,2.542,0,0,1,.626,1.214l5.262,20.6L43.4,2.334A2.178,2.178,0,0,1,44,1.12,2.164,2.164,0,0,1,45.252.809h2.506a1.894,1.894,0,0,1,1.253.311,2.093,2.093,0,0,1,.6,1.214l4.948,20.853L59.972,2.334A2.664,2.664,0,0,1,60.6,1.12,2.053,2.053,0,0,1,61.82.809h2.913a.694.694,0,0,1,.783.778,3.082,3.082,0,0,1-.063.5,4.4,4.4,0,0,1-.219.778L57.685,26.923a2.382,2.382,0,0,1-.658,1.214,2.013,2.013,0,0,1-1.19.311H53.144a1.894,1.894,0,0,1-1.253-.311,2.2,2.2,0,0,1-.6-1.245L46.442,6.816,41.619,26.861a2.424,2.424,0,0,1-.6,1.245,1.95,1.95,0,0,1-1.253.311Zm40.245.84A20.848,20.848,0,0,1,72.5,28.7a14.308,14.308,0,0,1-3.6-1.245,2.251,2.251,0,0,1-.971-.872,2.185,2.185,0,0,1-.188-.871V24.122c0-.654.251-.965.72-.965a1.782,1.782,0,0,1,.564.093c.188.062.47.187.783.311a17.11,17.11,0,0,0,3.445,1.089,18.925,18.925,0,0,0,3.727.374A8.492,8.492,0,0,0,81.551,24a3.347,3.347,0,0,0,1.629-2.957,3.021,3.021,0,0,0-.846-2.179,7.874,7.874,0,0,0-3.163-1.618l-4.541-1.4a9.559,9.559,0,0,1-5.011-3.175,7.386,7.386,0,0,1-1.566-4.513A6.893,6.893,0,0,1,68.9,4.7a8.018,8.018,0,0,1,2.255-2.552A9.964,9.964,0,0,1,74.41.529,13.73,13.73,0,0,1,78.356,0a15.818,15.818,0,0,1,2.1.124c.72.093,1.378.218,2.036.342.626.156,1.221.311,1.785.5a6.856,6.856,0,0,1,1.315.56,2.7,2.7,0,0,1,.94.778,1.669,1.669,0,0,1,.282,1.027V4.793c0,.654-.25,1-.72,1a3.273,3.273,0,0,1-1.19-.374A14.4,14.4,0,0,0,78.888,4.2a8.126,8.126,0,0,0-4.165.871,3,3,0,0,0-1.472,2.77,2.93,2.93,0,0,0,.94,2.21,9.377,9.377,0,0,0,3.445,1.712l4.447,1.4a9.532,9.532,0,0,1,4.854,2.988,7.014,7.014,0,0,1,1.441,4.357,7.959,7.959,0,0,1-.814,3.61,8.382,8.382,0,0,1-2.286,2.739A10.123,10.123,0,0,1,81.8,28.6,14.982,14.982,0,0,1,77.322,29.257Z" transform="translate(0.786)" fill="#fff"/>
    <g id="Group" transform="translate(0 34.83)">
      <path id="Path" d="M84.391,8.9C74.177,16.4,59.337,20.38,46.578,20.38A68.634,68.634,0,0,1,.414,2.879C-.549,2.015.32.842,1.469,1.521a93.52,93.52,0,0,0,46.2,12.192A92.65,92.65,0,0,0,82.9,6.552C84.608,5.78,86.067,7.663,84.391,8.9Z" transform="translate(0 0.518)" fill="#fff" fill-rule="evenodd"/>
      <path id="Path-2" data-name="Path" d="M67.238,4.6c-1.3-1.667-8.631-.8-11.952-.4-.993.123-1.149-.741-.248-1.389,5.837-4.074,15.43-2.9,16.547-1.543,1.118,1.389-.31,10.926-5.774,15.494-.838.71-1.646.34-1.273-.587C65.778,13.12,68.541,6.237,67.238,4.6Z" transform="translate(21.407 0)" fill="#fff" fill-rule="evenodd"/>
    </g>
  </g>
</svg>
