<svg xmlns="http://www.w3.org/2000/svg" width="108.993" height="65.177" viewBox="0 0 108.993 65.177">
  <g id="aws" transform="translate(-49.665 -110.1)">
    <path id="Path_65456" data-name="Path 65456" d="M88.3,133.771A10.968,10.968,0,0,0,88.7,137a19.4,19.4,0,0,0,1.16,2.61,1.577,1.577,0,0,1,.254.834,1.435,1.435,0,0,1-.689,1.088l-2.284,1.522a1.738,1.738,0,0,1-.943.326,1.668,1.668,0,0,1-1.088-.507,11.217,11.217,0,0,1-1.305-1.7c-.363-.616-.725-1.3-1.124-2.139a13.391,13.391,0,0,1-10.657,5,9.931,9.931,0,0,1-7.25-2.61,10.226,10.226,0,0,1,.616-14.428c2.211-1.885,5.147-2.828,8.881-2.828a28.7,28.7,0,0,1,3.842.29c1.341.181,2.719.471,4.169.8v-2.646c0-2.755-.58-4.676-1.7-5.8-1.16-1.124-3.118-1.668-5.908-1.668a16.493,16.493,0,0,0-3.915.471,28.884,28.884,0,0,0-3.915,1.232,10.446,10.446,0,0,1-1.269.471,2.223,2.223,0,0,1-.58.109c-.507,0-.761-.362-.761-1.124v-1.776a2.294,2.294,0,0,1,.254-1.269,2.711,2.711,0,0,1,1.015-.761,20.873,20.873,0,0,1,4.567-1.631,21.983,21.983,0,0,1,5.655-.689c4.313,0,7.467.979,9.5,2.936,1.994,1.958,3.009,4.93,3.009,8.918v11.745Zm-14.717,5.51a11.748,11.748,0,0,0,3.733-.653,8.078,8.078,0,0,0,3.444-2.32A5.754,5.754,0,0,0,82,133.989a13.014,13.014,0,0,0,.362-3.154v-1.522a30.273,30.273,0,0,0-3.335-.616,27.314,27.314,0,0,0-3.408-.217c-2.428,0-4.2.471-5.4,1.45a5.179,5.179,0,0,0,3.371,9.353ZM102.7,143.2a2.024,2.024,0,0,1-1.377-.362,2.955,2.955,0,0,1-.761-1.414L92.039,113.4a6.35,6.35,0,0,1-.326-1.45.8.8,0,0,1,.87-.906h3.553a2.01,2.01,0,0,1,1.414.362,2.966,2.966,0,0,1,.725,1.414l6.09,24,5.655-24a2.543,2.543,0,0,1,.689-1.414,2.494,2.494,0,0,1,1.45-.362h2.9a2.182,2.182,0,0,1,1.45.362,2.443,2.443,0,0,1,.689,1.414l5.728,24.288,6.271-24.288a3.108,3.108,0,0,1,.725-1.414,2.365,2.365,0,0,1,1.414-.362H134.7a.806.806,0,0,1,.906.906,3.616,3.616,0,0,1-.072.58,5.157,5.157,0,0,1-.254.906l-8.736,28.021a2.78,2.78,0,0,1-.761,1.414,2.319,2.319,0,0,1-1.378.362h-3.118a2.182,2.182,0,0,1-1.45-.362,2.57,2.57,0,0,1-.689-1.45l-5.619-23.381-5.583,23.345a2.829,2.829,0,0,1-.689,1.45,2.247,2.247,0,0,1-1.45.362Zm46.581.979a23.989,23.989,0,0,1-5.583-.652,16.49,16.49,0,0,1-4.169-1.45,2.612,2.612,0,0,1-1.124-1.015,2.559,2.559,0,0,1-.218-1.015v-1.849c0-.761.29-1.124.834-1.124a2.053,2.053,0,0,1,.653.109c.217.072.544.218.906.363a19.718,19.718,0,0,0,3.988,1.269,21.77,21.77,0,0,0,4.314.435,9.781,9.781,0,0,0,5.293-1.2,3.9,3.9,0,0,0,1.885-3.444,3.529,3.529,0,0,0-.979-2.538,9.1,9.1,0,0,0-3.661-1.885l-5.256-1.631a11.056,11.056,0,0,1-5.8-3.7,8.637,8.637,0,0,1-1.812-5.256,8.068,8.068,0,0,1,.979-4.024,9.321,9.321,0,0,1,2.61-2.973,11.505,11.505,0,0,1,3.77-1.885,15.8,15.8,0,0,1,4.567-.616,18.2,18.2,0,0,1,2.429.145c.834.109,1.6.254,2.356.4.725.181,1.414.363,2.066.58a7.917,7.917,0,0,1,1.523.653,3.135,3.135,0,0,1,1.088.906,1.954,1.954,0,0,1,.326,1.2v1.7c0,.761-.29,1.16-.834,1.16a3.771,3.771,0,0,1-1.378-.435,16.584,16.584,0,0,0-6.96-1.414,9.356,9.356,0,0,0-4.821,1.015,3.5,3.5,0,0,0-1.7,3.226,3.423,3.423,0,0,0,1.087,2.574,10.828,10.828,0,0,0,3.988,1.994l5.148,1.631a11.025,11.025,0,0,1,5.619,3.48,8.2,8.2,0,0,1,1.668,5.075,9.319,9.319,0,0,1-.943,4.205,9.749,9.749,0,0,1-2.646,3.19,11.685,11.685,0,0,1-4.024,2.03A17.241,17.241,0,0,1,149.277,144.175Z" transform="translate(-7.925)" fill="#252f3e"/>
    <path id="Path_65457" data-name="Path 65457" d="M148.2,233.251c-11.926,8.809-29.254,13.485-44.153,13.485a79.876,79.876,0,0,1-53.9-20.554c-1.124-1.015-.109-2.392,1.232-1.6a107.058,107.058,0,0,0,95.084,5.909C148.457,229.59,150.161,231.8,148.2,233.251Zm4.966-5.655c-1.523-1.958-10.077-.943-13.956-.471-1.16.145-1.341-.87-.29-1.631,6.815-4.785,18.016-3.408,19.321-1.813,1.305,1.631-.362,12.833-6.742,18.2-.979.834-1.921.4-1.486-.689C151.466,237.6,154.692,229.518,153.17,227.6Z" transform="translate(0 -71.459)" fill="#f90"/>
  </g>
</svg>
