<svg xmlns="http://www.w3.org/2000/svg" width="38.242" height="38.243" viewBox="0 0 38.242 38.243">
  <g id="Group_26949" data-name="Group 26949" transform="translate(-0.001 0.001)">
    <path id="Path_82376" data-name="Path 82376" d="M38.123,17a1.245,1.245,0,0,0-1.229-.942A4.222,4.222,0,0,1,34,8.708a1.063,1.063,0,0,0,.117-1.442,18.93,18.93,0,0,0-3.029-3.059,1.065,1.065,0,0,0-1.453.118A4.407,4.407,0,0,1,24.869,5.4a4.247,4.247,0,0,1-2.582-4.151A1.061,1.061,0,0,0,21.348.126a19.082,19.082,0,0,0-4.3-.011A1.065,1.065,0,0,0,16.1,1.21a4.255,4.255,0,0,1-2.618,4.08A4.419,4.419,0,0,1,8.747,4.211,1.066,1.066,0,0,0,7.3,4.09,19.008,19.008,0,0,0,4.211,7.148,1.064,1.064,0,0,0,4.325,8.6a4.237,4.237,0,0,1,1.069,4.771,4.42,4.42,0,0,1-4.16,2.585,1.04,1.04,0,0,0-1.1.939,19.168,19.168,0,0,0-.008,4.348,1.266,1.266,0,0,0,1.254.941A4.194,4.194,0,0,1,5.31,24.8a4.254,4.254,0,0,1-1.07,4.729,1.062,1.062,0,0,0-.116,1.44,19,19,0,0,0,3.024,3.06A1.063,1.063,0,0,0,8.6,33.919a4.4,4.4,0,0,1,4.767-1.072A4.241,4.241,0,0,1,15.958,37a1.061,1.061,0,0,0,.938,1.117,19.039,19.039,0,0,0,4.3.012,1.064,1.064,0,0,0,.946-1.1,4.25,4.25,0,0,1,2.617-4.078A4.413,4.413,0,0,1,29.5,34.03a1.068,1.068,0,0,0,1.443.121,19.033,19.033,0,0,0,3.093-3.058,1.062,1.062,0,0,0-.114-1.453,4.236,4.236,0,0,1-1.071-4.77,4.28,4.28,0,0,1,3.911-2.592l.236.006a1.064,1.064,0,0,0,1.119-.938A19.084,19.084,0,0,0,38.123,17Zm-19,13.146a11.023,11.023,0,1,1,9.464-5.371L23.76,19.946a6.762,6.762,0,0,0-8.006-9.159.765.765,0,0,0-.529.533.747.747,0,0,0,.212.731s2.383,2.4,3.18,3.2a.494.494,0,0,1,.072.355l-.007.052a15.24,15.24,0,0,1-.363,2.333l-.051.049-.053.054a15.022,15.022,0,0,1-2.368.368v0l-.04.01-.038,0a.509.509,0,0,1-.366-.155c-.83-.83-3.119-3.1-3.119-3.1a.778.778,0,0,0-.557-.248.757.757,0,0,0-.713.576,6.763,6.763,0,0,0,9.162,7.993l4.879,4.879a10.968,10.968,0,0,1-5.932,1.734Z" transform="translate(0 0)" fill="#006ce5"/>
  </g>
</svg>
