<svg id="Artboard" xmlns="http://www.w3.org/2000/svg" width="193.436" height="55.728" viewBox="0 0 193.436 55.728">
  <g id="Microsoft_Azure_Logo" transform="translate(0 0)">
    <path id="path21" d="M33.285,52.752c9.244-1.633,16.878-2.984,16.966-3l.16-.034-8.727-10.38c-4.8-5.709-8.727-10.4-8.727-10.43,0-.051,9.011-24.866,9.062-24.955.017-.029,6.149,10.558,14.865,25.665l14.95,25.914.114.2-27.735,0-27.735,0,16.807-2.969Zm106.359-2.511c-4.222-.271-6.677-2.675-7.328-7.174-.173-1.2-.174-1.228-.192-9l-.017-7.521h3.737l.015,7.275c.013,6.557.022,7.325.084,7.786a6.9,6.9,0,0,0,1.623,4.034,4.657,4.657,0,0,0,2.617,1.371,9.948,9.948,0,0,0,2.509,0,5.542,5.542,0,0,0,2.844-1.544,7.518,7.518,0,0,0,1.917-3.674l.11-.494.013-7.336.013-7.336H151.4V49.695h-3.776v-1.83a13.662,13.662,0,0,0-.043-1.816,1.541,1.541,0,0,0-.215.33,7.673,7.673,0,0,1-2.923,2.925,8.2,8.2,0,0,1-4.8.937Zm42.852-.019a9.9,9.9,0,0,1-4.343-1.418c-2.7-1.672-4.3-4.428-4.77-8.221a19.821,19.821,0,0,1-.047-4.191,13.618,13.618,0,0,1,2.676-6.685,13.736,13.736,0,0,1,1.616-1.616,10.07,10.07,0,0,1,4.125-1.969,13.4,13.4,0,0,1,3.345-.2,8.8,8.8,0,0,1,5.928,3.046,11.644,11.644,0,0,1,2.395,7.239c.015.474.02,1.305.008,1.847l-.021.985-8.178.01-8.177.01v.365a9.047,9.047,0,0,0,.737,3.453,7.6,7.6,0,0,0,1.662,2.433,7.317,7.317,0,0,0,4.146,1.753,16.192,16.192,0,0,0,2.71-.1,11.479,11.479,0,0,0,5.106-2.107c.17-.127.333-.246.361-.264a6.863,6.863,0,0,1,.052,1.7v1.736l-.386.239a13.542,13.542,0,0,1-5.481,1.9,31.441,31.441,0,0,1-3.464.051Zm7.116-14.642a7.434,7.434,0,0,0-1.893-4.992,5.207,5.207,0,0,0-2.888-1.4,8.526,8.526,0,0,0-2.24.063,5.86,5.86,0,0,0-3.059,1.626,8.326,8.326,0,0,0-2.023,3.24,10.347,10.347,0,0,0-.391,1.593l-.026.2h12.522ZM78.685,49.643c.01-.028,2.787-7.323,6.171-16.211l6.153-16.16h3.954l.164.421c.5,1.286,12.319,31.967,12.319,31.983s-.947.019-2.1.019h-2.1l-1.7-4.535-1.7-4.535H86.118l-.06.154c-.033.085-.76,2.125-1.617,4.534l-1.557,4.38H80.776a11.381,11.381,0,0,1-2.09-.051Zm19.9-12.48c0-.007-1.146-3.114-2.547-6.905-2.621-7.092-2.767-7.519-2.974-8.657-.1-.534-.146-.549-.2-.062A11.3,11.3,0,0,1,92.5,23.1c-.068.214-1.249,3.454-2.623,7.2s-2.5,6.824-2.5,6.844,2.521.035,5.6.035,5.6-.006,5.6-.013ZM108.719,49.1v-.591l6.833-9.393,6.833-9.393-6.186-.02-6.186-.02L110,28.117l-.011-1.57h17.9v1.061l-6.833,9.444c-3.758,5.194-6.833,9.453-6.833,9.463s3.038.02,6.751.02h6.751v3.16h-19Zm50.14.563c-.015-.015-.028-5.223-.028-11.574V26.547h3.735v2.38c0,1.309.015,2.38.035,2.38a2.132,2.132,0,0,0,.2-.476,8.224,8.224,0,0,1,2.086-3.213,5.41,5.41,0,0,1,2.951-1.467,6.119,6.119,0,0,1,1.232-.045,5.456,5.456,0,0,1,1.714.239l.153.05v3.877l-.44-.221a4.716,4.716,0,0,0-2.473-.5,4.479,4.479,0,0,0-1.478.289,4.679,4.679,0,0,0-2.353,1.922,11.17,11.17,0,0,0-1.562,4.491c-.031.275-.049,2.512-.056,6.921l-.011,6.515h-1.839c-1.011,0-1.853-.012-1.867-.027ZM0,49.586c0-.015,4.112-7.153,9.138-15.863l9.138-15.836L28.925,8.951C34.782,4.035,39.59.008,39.609,0a1.873,1.873,0,0,1-.171.431c-.113.244-5.317,11.406-11.564,24.8L16.517,49.592l-8.259.01C3.716,49.608,0,49.6,0,49.586Z" transform="translate(0 0)" fill="#fff"/>
  </g>
</svg>
