<svg xmlns="http://www.w3.org/2000/svg" width="95.095" height="79.252" viewBox="0 0 95.095 79.252">
  <g id="Group_26971" data-name="Group 26971" transform="translate(-1 -3)">
    <path id="Path_82391" data-name="Path 82391" d="M94.51,18.849H2.585A1.585,1.585,0,0,1,1,17.264V7.755A4.761,4.761,0,0,1,5.755,3H91.34a4.761,4.761,0,0,1,4.755,4.755v9.509A1.585,1.585,0,0,1,94.51,18.849ZM4.17,15.679H92.925V7.755A1.59,1.59,0,0,0,91.34,6.17H5.755A1.59,1.59,0,0,0,4.17,7.755ZM18.434,37.868H8.925a1.585,1.585,0,1,1,0-3.17h9.509a1.585,1.585,0,1,1,0,3.17Zm9.509-6.34H8.925a1.585,1.585,0,0,1,0-3.17H27.944a1.585,1.585,0,0,1,0,3.17Z" transform="translate(0 0)" fill="#006ce5"/>
    <ellipse id="Ellipse_905" data-name="Ellipse 905" cx="1.488" cy="0.992" rx="1.488" ry="0.992" transform="translate(19.985 9.565)" fill="#006ce5"/>
    <circle id="Ellipse_906" data-name="Ellipse 906" cx="0.992" cy="0.992" r="0.992" transform="translate(14.033 9.565)" fill="#006ce5"/>
    <ellipse id="Ellipse_907" data-name="Ellipse 907" cx="1.488" cy="0.992" rx="1.488" ry="0.992" transform="translate(7.089 9.565)" fill="#006ce5"/>
    <path id="Path_82392" data-name="Path 82392" d="M91.34,82.246H81.831a1.585,1.585,0,0,1,0-3.17H91.34a1.585,1.585,0,0,0,1.585-1.585V7.755A1.585,1.585,0,0,0,91.34,6.17H5.755A1.585,1.585,0,0,0,4.17,7.755V77.491a1.585,1.585,0,0,0,1.585,1.585H40.623a1.585,1.585,0,1,1,0,3.17H5.755A4.761,4.761,0,0,1,1,77.491V7.755A4.761,4.761,0,0,1,5.755,3H91.34a4.761,4.761,0,0,1,4.755,4.755V77.491A4.761,4.761,0,0,1,91.34,82.246Z" transform="translate(0 0)" fill="#006ce5"/>
    <path id="Path_82393" data-name="Path 82393" d="M63.123,60.218a1.569,1.569,0,0,1-1.163-.51l-3.9-4.229a1.579,1.579,0,0,1-.273-1.743,22.153,22.153,0,0,0,1.683-5.145,1.585,1.585,0,0,1,1.249-1.255l5.506-1.1v-3.74l-5.506-1.1a1.594,1.594,0,0,1-1.249-1.255,22.078,22.078,0,0,0-1.683-5.148,1.579,1.579,0,0,1,.273-1.743l3.816-4.14-2.2-3.027-5.119,2.355a1.585,1.585,0,0,1-1.743-.279,22.278,22.278,0,0,0-4.374-3.2,1.585,1.585,0,0,1-.805-1.569l.656-5.576-3.56-1.157-2.755,4.907a1.617,1.617,0,0,1-1.575.8,22.391,22.391,0,0,0-5.411,0,1.591,1.591,0,0,1-1.579-.8l-2.751-4.907L27.1,17.809l.656,5.576a1.585,1.585,0,0,1-.805,1.569,22.278,22.278,0,0,0-4.374,3.2,1.585,1.585,0,0,1-1.743.279l-5.119-2.355-2.2,3.03,3.816,4.14a1.579,1.579,0,0,1,.273,1.743,22.154,22.154,0,0,0-1.683,5.145,1.585,1.585,0,0,1-1.249,1.255l-5.509,1.1v3.74l5.506,1.1a1.6,1.6,0,0,1,1.249,1.255,21.538,21.538,0,0,0,.815,3.008,1.587,1.587,0,0,1-3,1.04q-.41-1.18-.7-2.4L7.274,49.085A1.585,1.585,0,0,1,6,47.532v-6.34a1.585,1.585,0,0,1,1.274-1.553l5.763-1.154A25.458,25.458,0,0,1,14.3,34.631L10.3,30.3a1.579,1.579,0,0,1-.117-2.006l3.728-5.132a1.582,1.582,0,0,1,1.943-.507l5.354,2.463a25.422,25.422,0,0,1,3.271-2.4L23.8,16.886a1.591,1.591,0,0,1,1.087-1.693l6.029-1.962a1.591,1.591,0,0,1,1.873.732l2.875,5.129a23.476,23.476,0,0,1,4.061,0L42.6,13.964a1.588,1.588,0,0,1,1.87-.732L50.5,15.191a1.59,1.59,0,0,1,1.087,1.693L50.9,22.722a25.421,25.421,0,0,1,3.271,2.4l5.354-2.463a1.579,1.579,0,0,1,1.943.507l3.728,5.129a1.579,1.579,0,0,1-.117,2.006l-3.994,4.33a25,25,0,0,1,1.262,3.855l5.763,1.154a1.588,1.588,0,0,1,1.29,1.556v6.34a1.585,1.585,0,0,1-1.274,1.553l-5.763,1.154A25.458,25.458,0,0,1,61.1,54.094l3.2,3.465a1.585,1.585,0,0,1-1.17,2.659ZM37.7,60.212a1.585,1.585,0,1,1,0-3.17,12.665,12.665,0,1,0-10.5-5.56,1.585,1.585,0,0,1-2.618,1.785A15.85,15.85,0,1,1,37.7,60.212Z" transform="translate(10.849 22.034)" fill="#006ce5"/>
  </g>
</svg>
