<svg xmlns="http://www.w3.org/2000/svg" width="94.57" height="94.564" viewBox="0 0 94.57 94.564">
  <path id="Path_82394" data-name="Path 82394" d="M45.985,33.3A13.982,13.982,0,1,1,32,47.286,13.982,13.982,0,0,1,45.985,33.3ZM22.322,76.016a37.29,37.29,0,0,1,14.2-64.78,1.856,1.856,0,1,0-.946-3.59,40.993,40.993,0,0,0-15.62,71.234,1.858,1.858,0,1,0,2.369-2.863ZM51.074,6.593l4.2-3.277A1.854,1.854,0,0,0,52.988.392L44.957,6.664a1.855,1.855,0,0,0-.023,2.941l8.055,6.29a1.854,1.854,0,1,0,2.283-2.923l-3.194-2.494a37.283,37.283,0,0,1-6,74.08H1.844a1.86,1.86,0,0,0,0,3.72H46.075a41,41,0,0,0,5-81.687ZM87.3,88.279H72.345a1.86,1.86,0,0,1,0-3.72H87.3L83.5,81.59a1.854,1.854,0,1,1,2.283-2.923l8.027,6.269a1.855,1.855,0,0,1,.028,2.944l-8.055,6.29A1.854,1.854,0,1,1,83.5,91.248ZM50.681,23.505l-1.842-4.786H43.13l-1.842,4.786a24.1,24.1,0,0,0-8.794,3.646L27.8,25.068,23.767,29.1l2.083,4.689A24.093,24.093,0,0,0,22.2,42.589l-4.785,1.842V50.14L22.2,51.982a24.1,24.1,0,0,0,3.646,8.8l-2.082,4.688L27.8,69.5l4.69-2.083a24.1,24.1,0,0,0,8.794,3.646l1.842,4.786H48.84l1.842-4.785a24.1,24.1,0,0,0,8.8-3.646L64.166,69.5,68.2,65.466l-2.083-4.69a24.1,24.1,0,0,0,3.646-8.794l4.786-1.842V44.431l-4.784-1.842a24.1,24.1,0,0,0-3.646-8.8L68.2,29.1l-4.037-4.037-4.69,2.083A24.108,24.108,0,0,0,50.681,23.505Z" transform="translate(0.016 0)" fill="#006ce5" fill-rule="evenodd"/>
</svg>
