<svg xmlns="http://www.w3.org/2000/svg" width="37.331" height="37.331" viewBox="0 0 37.331 37.331">
  <g id="Group_26953" data-name="Group 26953" transform="translate(0.038 0.038)">
    <path id="Path_82380" data-name="Path 82380" d="M14.632,11.628h7.989a3,3,0,0,1,3,3v7.989a3,3,0,0,1-3,3H14.632a3,3,0,0,1-3-3V14.632A3,3,0,0,1,14.632,11.628ZM8.1,19.771H3.858l1.764,1.662a1.2,1.2,0,0,1,.051,1.706l-.036.036-.015.015a1.206,1.206,0,0,1-1.7,0C2.968,22.242,1.43,20.725.57,19.858A1.573,1.573,0,0,1,.563,17.38c1.115-1.115,2.223-2.231,3.324-3.331a1.166,1.166,0,0,1,1.655,0l.015.015.022.029a1.186,1.186,0,0,1-.022,1.677H5.549L3.814,17.445H8.093A1.163,1.163,0,0,1,8.1,19.771Zm21.052,0h4.242L31.63,21.433a1.2,1.2,0,0,0-.051,1.706l.036.036.015.015a1.206,1.206,0,0,0,1.7,0c.955-.948,2.493-2.464,3.353-3.331A1.573,1.573,0,0,0,36.7,17.38c-1.108-1.115-2.223-2.231-3.324-3.331a1.166,1.166,0,0,0-1.655,0l-.015.015-.029.029a1.186,1.186,0,0,0,.022,1.677H31.7l1.735,1.684H29.159a1.159,1.159,0,0,0-.007,2.318ZM17.482,8.1V3.858L15.82,5.622a1.2,1.2,0,0,1-1.706.051l-.036-.036-.015-.015a1.206,1.206,0,0,1,0-1.7c.948-.955,2.464-2.493,3.331-3.353A1.573,1.573,0,0,1,19.873.563C20.988,1.678,22.1,2.786,23.2,3.887a1.166,1.166,0,0,1,0,1.655l-.015.015-.029.022a1.186,1.186,0,0,1-1.677-.022V5.549L19.807,3.814V8.093a1.163,1.163,0,0,1-2.325.007Zm0,21.052v4.242L15.82,31.63a1.2,1.2,0,0,0-1.706-.051l-.036.036-.015.015a1.206,1.206,0,0,0,0,1.7c.948.955,2.464,2.493,3.331,3.353a1.573,1.573,0,0,0,2.478.015c1.115-1.108,2.231-2.223,3.331-3.324a1.166,1.166,0,0,0,0-1.655l-.015-.015-.029-.029a1.186,1.186,0,0,0-1.677.022V31.7l-1.677,1.735V29.159a1.163,1.163,0,0,0-2.325-.007Z" transform="translate(0 0)" fill="#006ce5"/>
  </g>
</svg>
