<svg xmlns="http://www.w3.org/2000/svg" width="106.747" height="110.888" viewBox="0 0 106.747 110.888">
  <g id="Group_26985" data-name="Group 26985" transform="translate(-1125 -2312)">
    <g id="Group_26984" data-name="Group 26984" transform="translate(1131 2318)">
      <g id="Path_82402" data-name="Path 82402" transform="translate(-5.08 0.017)" fill="none" stroke-linecap="round" stroke-linejoin="round">
        <path d="M82.125,68.625l-5.949-3.513A26.585,26.585,0,0,0,54.053,26.67V19.708a9.928,9.928,0,1,0-3.216,0V26.67A26.585,26.585,0,0,0,28.715,65.112l-5.949,3.529a10.027,10.027,0,1,0,1.543,2.79l6-3.553a26.529,26.529,0,0,0,44.214,0l6.061,3.553a9.907,9.907,0,1,0,1.543-2.806ZM15.008,81.488a2.783,2.783,0,1,1,0,.032ZM45.733,9.925a6.713,6.713,0,1,1,6.713,6.713,6.713,6.713,0,0,1-6.713-6.713Zm6.713,66.6A23.313,23.313,0,1,1,75.758,53.215,23.313,23.313,0,0,1,52.446,76.528ZM89.883,81.52A6.713,6.713,0,1,1,96.6,74.807,6.713,6.713,0,0,1,89.883,81.52Z" stroke="none"/>
        <path d="M 14.99790000915527 84.778564453125 C 13.66865921020508 84.778564453125 12.32894515991211 84.51138305664062 11.06070613861084 83.962646484375 C 7.418505668640137 82.38672637939453 5.065998077392578 78.79178619384766 5.079982757568359 74.82327270507812 C 5.079982757568359 65.50614166259766 16.89726066589355 61.30177688598633 22.76568984985352 68.64131927490234 L 28.71452140808105 65.11222839355469 C 24.71656799316406 57.13255310058594 24.98958206176758 47.67918395996094 29.44138336181641 39.94353866577148 C 33.89318084716797 32.20787811279297 41.92966079711914 27.22232246398926 50.83773803710938 26.66993713378906 L 50.83773803710938 19.70820045471191 C 45.73556900024414 18.87087631225586 42.13018417358398 14.2578763961792 42.55022811889648 9.104568481445312 C 42.97027587890625 3.951261043548584 47.27511978149414 -0.01696969754993916 52.44552230834961 -0.01696969754993916 C 57.61593627929688 -0.01696969754993916 61.92076873779297 3.951261043548584 62.34081268310547 9.104568481445312 C 62.76086044311523 14.25789165496826 59.15547561645508 18.87087631225586 54.05332183837891 19.70820045471191 L 54.05332183837891 26.66993713378906 C 62.96139907836914 27.22232246398926 70.99785614013672 32.20787811279297 75.44966125488281 39.94352340698242 C 79.90145874023438 47.67918395996094 80.17447662353516 57.13255310058594 76.17653656005859 65.11222839355469 L 82.12535095214844 68.625244140625 C 87.9937744140625 61.28568649291992 99.80301666259766 65.48201751708984 99.82713317871094 74.80719757080078 C 99.83000183105469 78.76670837402344 97.47804260253906 82.34872436523438 93.84364318847656 83.91996765136719 C 90.20925903320312 85.49124908447266 85.98855590820312 84.75076293945312 83.10604095458984 82.03618621826172 C 80.22353363037109 79.32161712646484 79.23133850097656 75.15290832519531 80.58185577392578 71.43084716796875 L 74.5205078125 67.87763214111328 C 69.60544586181641 75.28736877441406 61.30506134033203 79.74196624755859 52.41338348388672 79.74196624755859 C 43.52169036865234 79.74198150634766 35.22130584716797 75.28736877441406 30.30622863769531 67.87763214111328 L 24.30916786193848 71.43084716796875 C 25.68030548095703 75.15498352050781 24.69998359680176 79.33792114257812 21.81692123413086 82.06501770019531 C 19.93775749206543 83.84253692626953 17.48606109619141 84.778564453125 14.99790000915527 84.778564453125 Z M 89.88294982910156 68.09468841552734 C 86.17572021484375 68.09468841552734 83.17041015625 71.09998321533203 83.17041015625 74.80719757080078 C 83.17041015625 78.51442718505859 86.17572021484375 81.51973724365234 89.88294982910156 81.51973724365234 C 93.58833312988281 81.51530456542969 96.59104156494141 78.51259613037109 96.59547424316406 74.80719757080078 C 96.59547424316406 71.09998321533203 93.59016418457031 68.09468841552734 89.88294982910156 68.09468841552734 Z M 15.00810527801514 68.06253814697266 C 11.30087471008301 68.06253814697266 8.295567512512207 71.06783294677734 8.295567512512207 74.77504730224609 C 8.295567512512207 78.48229217529297 11.30087471008301 81.48758697509766 15.00810527801514 81.48758697509766 L 15.00809001922607 81.51973724365234 C 16.79330635070801 81.51763153076172 18.5042896270752 80.80530548095703 19.76359748840332 79.53997039794922 C 21.02290534973145 78.27462768554688 21.7270450592041 76.56024932861328 21.72062873840332 74.77504730224609 C 21.72062873840332 71.06783294677734 18.7153205871582 68.06253814697266 15.00810527801514 68.06253814697266 Z M 52.44552230834961 29.9015998840332 C 39.57012176513672 29.9015998840332 29.1325511932373 40.33916854858398 29.1325511932373 53.21456909179688 C 29.1325511932373 66.0899658203125 39.57012176513672 76.52753448486328 52.44552230834961 76.52753448486328 C 65.30625915527344 76.49220275878906 75.72316741943359 66.07530975341797 75.75849151611328 53.21456909179688 C 75.75849151611328 40.33916854858398 65.3209228515625 29.9015998840332 52.44552230834961 29.9015998840332 Z M 52.44552230834961 3.212260961532593 C 48.73830413818359 3.212260961532593 45.73299789428711 6.217553615570068 45.73299789428711 9.924783706665039 C 45.73743057250977 13.63016891479492 48.74013519287109 16.63287734985352 52.44552230834961 16.63730812072754 C 56.15275192260742 16.63730812072754 59.15804290771484 13.63201522827148 59.15804290771484 9.924783706665039 C 59.15804290771484 6.217553615570068 56.15275192260742 3.212260961532593 52.44552230834961 3.212260961532593 Z" stroke="none" fill="#031342"/>
      </g>
      <g id="Path_82403" data-name="Path 82403" transform="translate(-13.947 -12.331)" fill="none" stroke-linecap="round" stroke-linejoin="round">
        <path d="M50.765,67.315A1.609,1.609,0,1,0,53.04,69.59a11.713,11.713,0,0,1,16.552,0,1.609,1.609,0,0,0,2.275-2.275,14.936,14.936,0,0,0-21.1,0Z" stroke="none"/>
        <path d="M 70.72981262207031 70.06156158447266 C 70.318115234375 70.06156158447266 69.90641021728516 69.90451049804688 69.59229278564453 69.59040069580078 C 65.01959228515625 65.02435302734375 57.61281204223633 65.02435302734375 53.04008102416992 69.59040069580078 C 52.41184997558594 70.2186279296875 51.39329147338867 70.21861267089844 50.76505279541016 69.59040069580078 C 50.13683319091797 68.962158203125 50.13683319091797 67.94358825683594 50.76507186889648 67.31536865234375 C 56.59568405151367 61.49630737304688 66.03672790527344 61.49630737304688 71.86732482910156 67.31536865234375 C 72.49555206298828 67.94361114501953 72.49555206298828 68.962158203125 71.86732482910156 69.59040069580078 C 71.55320739746094 69.90451049804688 71.14151000976562 70.06156158447266 70.72981262207031 70.06156158447266 Z" stroke="none" fill="#031342"/>
      </g>
      <g id="Path_82404" data-name="Path 82404" transform="translate(-5.487 -2.438)" fill="none" stroke-linecap="round" stroke-linejoin="round">
        <path d="M52.853,59.705a8.208,8.208,0,0,0-5.844,2.412,1.609,1.609,0,1,0,2.275,2.275,5.048,5.048,0,0,1,7.139,0A1.609,1.609,0,1,0,58.7,62.117a8.208,8.208,0,0,0-5.844-2.412Zm0-13.3a21.432,21.432,0,0,0-15.274,6.319,1.609,1.609,0,0,0,2.275,2.275,18.353,18.353,0,0,1,25.958,0,1.623,1.623,0,0,0,2.315-2.275A21.432,21.432,0,0,0,52.853,46.4ZM67.186,15.636a42.607,42.607,0,0,1,27.469,47.6,1.618,1.618,0,0,0,3.191.539A45.822,45.822,0,0,0,68.271,12.6a1.61,1.61,0,1,0-1.085,3.031ZM9.442,65.156a1.605,1.605,0,0,0,.289,0,1.608,1.608,0,0,0,1.318-1.921A42.606,42.606,0,0,1,38.519,15.628,1.61,1.61,0,1,0,37.434,12.6,45.822,45.822,0,0,0,7.883,63.805,1.608,1.608,0,0,0,9.442,65.156ZM80.314,88.051a42.494,42.494,0,0,1-54.914,0A1.608,1.608,0,0,0,23.317,90.5a45.71,45.71,0,0,0,59.07,0,1.608,1.608,0,0,0-2.082-2.452Z" stroke="none"/>
        <path d="M 52.85258865356445 101.325927734375 C 42.34776306152344 101.325927734375 31.83934593200684 97.71723175048828 23.31746292114258 90.50245666503906 C 22.6403865814209 89.92748260498047 22.55760192871094 88.91252899169922 23.13255500793457 88.23545837402344 C 23.7075252532959 87.55839538574219 24.72247695922852 87.47560119628906 25.39955520629883 88.05054473876953 C 41.24612045288086 101.4662704467773 64.46710205078125 101.4662704467773 80.31365966796875 88.05054473876953 L 80.30564880371094 88.05054473876953 C 80.98270416259766 87.47560882568359 81.99766540527344 87.55837249755859 82.5726318359375 88.23545837402344 C 83.1475830078125 88.91251373291016 83.06480407714844 89.92748260498047 82.38774108886719 90.50244140625 C 73.86378479003906 97.71897125244141 63.35998153686523 101.325927734375 52.85258865356445 101.325927734375 Z M 9.586916923522949 65.16213989257812 C 9.538636207580566 65.16213989257812 9.490355491638184 65.15996551513672 9.442216873168945 65.15560913085938 C 8.663986206054688 65.14227294921875 8.007078170776367 64.57339477539062 7.882662773132324 63.80506896972656 C 3.930693626403809 41.81380844116211 16.41596984863281 20.17853164672852 37.43386459350586 12.59690189361572 C 38.27074813842773 12.29722595214844 39.19215393066406 12.73271465301514 39.49184799194336 13.56960964202881 C 39.79152297973633 14.40651702880859 39.35603332519531 15.32790184020996 38.51912307739258 15.62759399414062 C 18.9828929901123 22.67979431152344 7.378555297851562 42.79125595092773 11.05000114440918 63.23430252075195 C 11.14143180847168 63.66513061523438 11.0521240234375 64.11459350585938 10.80293941497803 64.47774505615234 C 10.55375480651855 64.84090423583984 10.16649341583252 65.08592987060547 9.731616973876953 65.15560913085938 C 9.683478355407715 65.15996551513672 9.635197639465332 65.16213989257812 9.586916923522949 65.16213989257812 Z M 96.09414672851562 65.10586547851562 C 96.04586029052734 65.10586547851562 95.99758148193359 65.10368347167969 95.94943237304688 65.09933471679688 C 95.07785034179688 64.94043731689453 94.49906158447266 64.10639190673828 94.65517425537109 63.23431777954102 C 98.32231140136719 42.79397964477539 86.71880340576172 22.68733215332031 67.18605041503906 15.63564014434814 C 66.34913635253906 15.33594799041748 65.91365051269531 14.41456317901611 66.21332550048828 13.57765579223633 C 66.51302337646484 12.74074363708496 67.43443298339844 12.30525875091553 68.27130889892578 12.60494804382324 C 89.28141784667969 20.17502403259277 101.7742462158203 41.78871536254883 97.84663391113281 63.77291870117188 C 97.70867919921875 64.54961395263672 97.02777099609375 65.11155700683594 96.23884582519531 65.09933471679688 C 96.19071197509766 65.10368347167969 96.14242553710938 65.10586547851562 96.09414672851562 65.10586547851562 Z M 57.55939102172852 64.86308288574219 C 57.1476936340332 64.86308288574219 56.73599243164062 64.70602416992188 56.42187881469727 64.39189910888672 C 54.4504508972168 62.42105484008789 51.25471496582031 62.42104339599609 49.28327941894531 64.39189910888672 C 48.65504837036133 65.02014923095703 47.63647842407227 65.02015686035156 47.00826263427734 64.39189910888672 C 46.3800163269043 63.763671875 46.3800163269043 62.74510192871094 47.00826263427734 62.11688613891602 C 48.55617141723633 60.56483840942383 50.66081619262695 59.69681167602539 52.85258483886719 59.70519256591797 C 55.04417037963867 59.69691848754883 57.14898681640625 60.56484222412109 58.69689178466797 62.11688613891602 C 59.32513809204102 62.7451171875 59.32513809204102 63.763671875 58.69689178466797 64.39189910888672 C 58.38278579711914 64.70602416992188 57.97108840942383 64.86308288574219 57.55939102172852 64.86308288574219 Z M 66.96909332275391 55.47981643676758 C 66.54897308349609 55.47981643676758 66.12911224365234 55.31769943237305 65.81138610839844 54.99436187744141 C 58.6438102722168 47.82523345947266 47.02119064331055 47.82522583007812 39.85359954833984 54.99436187744141 C 39.22535705566406 55.62259674072266 38.2067985534668 55.62259674072266 37.57857131958008 54.99436187744141 C 36.95034027099609 54.36613082885742 36.95034027099609 53.34757995605469 37.57857131958008 52.7193489074707 C 41.62022018432617 48.6555290222168 47.12179946899414 46.37945175170898 52.85258483886719 46.40071868896484 L 52.85258483886719 46.40073394775391 C 58.58364486694336 46.37923812866211 64.08496856689453 48.6555290222168 68.12661743164062 52.7193489074707 C 68.75482940673828 53.35866928100586 68.74583435058594 54.38623809814453 68.10650634765625 55.01445388793945 C 67.79051208496094 55.32497406005859 67.37967681884766 55.47981643676758 66.96909332275391 55.47981643676758 Z" stroke="none" fill="#031342"/>
      </g>
    </g>
    <g id="Group_26983" data-name="Group 26983" transform="translate(1131 2318)">
      <path id="Path_82402-2" data-name="Path 82402" d="M82.125,68.625l-5.949-3.513A26.585,26.585,0,0,0,54.053,26.67V19.708a9.928,9.928,0,1,0-3.216,0V26.67A26.585,26.585,0,0,0,28.715,65.112l-5.949,3.529a10.027,10.027,0,1,0,1.543,2.79l6-3.553a26.529,26.529,0,0,0,44.214,0l6.061,3.553a9.907,9.907,0,1,0,1.543-2.806ZM15.008,81.488a2.783,2.783,0,1,1,0,.032ZM45.733,9.925a6.713,6.713,0,1,1,6.713,6.713,6.713,6.713,0,0,1-6.713-6.713Zm6.713,66.6A23.313,23.313,0,1,1,75.758,53.215,23.313,23.313,0,0,1,52.446,76.528ZM89.883,81.52A6.713,6.713,0,1,1,96.6,74.807,6.713,6.713,0,0,1,89.883,81.52Z" transform="translate(-5.08 0.017)" fill="#f68f00"/>
      <path id="Path_82403-2" data-name="Path 82403" d="M50.765,67.315A1.609,1.609,0,1,0,53.04,69.59a11.713,11.713,0,0,1,16.552,0,1.609,1.609,0,0,0,2.275-2.275,14.936,14.936,0,0,0-21.1,0Z" transform="translate(-13.947 -12.331)" fill="#f68f00"/>
      <path id="Path_82404-2" data-name="Path 82404" d="M52.853,59.705a8.208,8.208,0,0,0-5.844,2.412,1.609,1.609,0,1,0,2.275,2.275,5.048,5.048,0,0,1,7.139,0A1.609,1.609,0,1,0,58.7,62.117a8.208,8.208,0,0,0-5.844-2.412Zm0-13.3a21.432,21.432,0,0,0-15.274,6.319,1.609,1.609,0,0,0,2.275,2.275,18.353,18.353,0,0,1,25.958,0,1.623,1.623,0,0,0,2.315-2.275A21.432,21.432,0,0,0,52.853,46.4ZM67.186,15.636a42.607,42.607,0,0,1,27.469,47.6,1.618,1.618,0,0,0,3.191.539A45.822,45.822,0,0,0,68.271,12.6a1.61,1.61,0,1,0-1.085,3.031ZM9.442,65.156a1.605,1.605,0,0,0,.289,0,1.608,1.608,0,0,0,1.318-1.921A42.606,42.606,0,0,1,38.519,15.628,1.61,1.61,0,1,0,37.434,12.6,45.822,45.822,0,0,0,7.883,63.805,1.608,1.608,0,0,0,9.442,65.156ZM80.314,88.051a42.494,42.494,0,0,1-54.914,0A1.608,1.608,0,0,0,23.317,90.5a45.71,45.71,0,0,0,59.07,0,1.608,1.608,0,0,0-2.082-2.452Z" transform="translate(-5.487 -2.438)" fill="#f68f00"/>
    </g>
  </g>
</svg>
