<svg xmlns="http://www.w3.org/2000/svg" width="113.231" height="113.231" viewBox="0 0 113.231 113.231">
  <g id="Group_26980" data-name="Group 26980" transform="translate(-243.5 -2292.954)">
    <g id="Group_26979" data-name="Group 26979" transform="translate(245.757 2295.21)">
      <path id="Path_82396" data-name="Path 82396" d="M96.99,64.431a6.484,6.484,0,0,0-6.305,5.015H83.407V61.339h8.568a1.463,1.463,0,1,0,0-2.926H83.407V50.3h8.568a1.463,1.463,0,1,0,0-2.926H83.407V39.27h7.278a6.478,6.478,0,1,0,0-2.926H83.407V30.117A4.812,4.812,0,0,0,78.6,25.311H72.373V18.032a6.478,6.478,0,1,0-2.926,0v7.278H61.339V16.743a1.463,1.463,0,1,0-2.926,0v8.568H50.3V16.743a1.463,1.463,0,1,0-2.926,0v8.568H39.27V18.032a6.478,6.478,0,1,0-2.926,0v7.278H30.117a4.812,4.812,0,0,0-4.806,4.806v6.228H18.032a6.478,6.478,0,1,0,0,2.926h7.278v8.108H16.743a1.463,1.463,0,0,0,0,2.926h8.568v8.108H16.743a1.463,1.463,0,1,0,0,2.926h8.568v8.108H18.032a6.478,6.478,0,1,0,0,2.926h7.278V78.6a4.812,4.812,0,0,0,4.806,4.806h6.228v7.278a6.478,6.478,0,1,0,2.926,0V83.407h8.108v8.568a1.463,1.463,0,1,0,2.926,0V83.407h8.108v8.568a1.463,1.463,0,1,0,2.926,0V83.407h8.108v7.278a6.478,6.478,0,1,0,2.926,0V83.407H78.6A4.812,4.812,0,0,0,83.407,78.6V72.373h7.278a6.476,6.476,0,1,0,6.305-7.941Zm0-30.176a3.553,3.553,0,1,1-3.553,3.553A3.553,3.553,0,0,1,96.99,34.255ZM67.357,11.727A3.553,3.553,0,1,1,70.91,15.28a3.553,3.553,0,0,1-3.553-3.553Zm-33.1,0a3.553,3.553,0,1,1,3.553,3.553,3.553,3.553,0,0,1-3.553-3.553ZM11.727,41.36a3.553,3.553,0,1,1,3.553-3.553,3.553,3.553,0,0,1-3.553,3.553Zm0,33.1A3.553,3.553,0,1,1,15.28,70.91a3.553,3.553,0,0,1-3.553,3.553ZM41.36,96.99a3.553,3.553,0,1,1-3.553-3.553A3.553,3.553,0,0,1,41.36,96.99Zm33.1,0a3.553,3.553,0,1,1-3.553-3.553A3.553,3.553,0,0,1,74.462,96.99ZM80.481,78.6A1.883,1.883,0,0,1,78.6,80.481H30.117A1.883,1.883,0,0,1,28.236,78.6V30.117a1.883,1.883,0,0,1,1.881-1.881H78.6a1.883,1.883,0,0,1,1.881,1.881ZM96.99,74.462a3.553,3.553,0,1,1,3.553-3.553,3.553,3.553,0,0,1-3.553,3.553Z" transform="translate(0)" fill="none" stroke="#031342" stroke-linecap="round" stroke-linejoin="round" stroke-width="3"/>
      <path id="Path_82397" data-name="Path 82397" d="M79.165,39.25H40.713a1.463,1.463,0,0,0-1.463,1.463V79.165a1.463,1.463,0,0,0,1.463,1.463H79.165a1.463,1.463,0,0,0,1.463-1.463V40.713A1.463,1.463,0,0,0,79.165,39.25ZM77.7,77.7H42.176V42.176H77.7Z" transform="translate(-5.58 -5.58)" fill="none" stroke="#031342" stroke-linecap="round" stroke-linejoin="round" stroke-width="3"/>
      <path id="Path_82398" data-name="Path 82398" d="M53.713,70.55a1.463,1.463,0,0,0,1.463-1.463V63.863h7.105v5.224a1.463,1.463,0,0,0,2.926,0V59.056A4.812,4.812,0,0,0,60.4,54.25H57.056a4.812,4.812,0,0,0-4.806,4.806V69.087a1.463,1.463,0,0,0,1.463,1.463Zm3.344-13.375H60.4a1.883,1.883,0,0,1,1.881,1.881v1.881H55.176V59.056a1.883,1.883,0,0,1,1.881-1.881ZM70.431,70.55a1.463,1.463,0,0,0,1.463-1.463V55.713a1.463,1.463,0,1,0-2.926,0V69.087a1.463,1.463,0,0,0,1.463,1.463Z" transform="translate(-7.713 -8.041)" fill="none" stroke="#031342" stroke-linecap="round" stroke-linejoin="round" stroke-width="3"/>
    </g>
    <g id="Group_26974" data-name="Group 26974" transform="translate(245.757 2295.21)">
      <path id="Path_82396-2" data-name="Path 82396" d="M96.99,64.431a6.484,6.484,0,0,0-6.305,5.015H83.407V61.339h8.568a1.463,1.463,0,1,0,0-2.926H83.407V50.3h8.568a1.463,1.463,0,1,0,0-2.926H83.407V39.27h7.278a6.478,6.478,0,1,0,0-2.926H83.407V30.117A4.812,4.812,0,0,0,78.6,25.311H72.373V18.032a6.478,6.478,0,1,0-2.926,0v7.278H61.339V16.743a1.463,1.463,0,1,0-2.926,0v8.568H50.3V16.743a1.463,1.463,0,1,0-2.926,0v8.568H39.27V18.032a6.478,6.478,0,1,0-2.926,0v7.278H30.117a4.812,4.812,0,0,0-4.806,4.806v6.228H18.032a6.478,6.478,0,1,0,0,2.926h7.278v8.108H16.743a1.463,1.463,0,0,0,0,2.926h8.568v8.108H16.743a1.463,1.463,0,1,0,0,2.926h8.568v8.108H18.032a6.478,6.478,0,1,0,0,2.926h7.278V78.6a4.812,4.812,0,0,0,4.806,4.806h6.228v7.278a6.478,6.478,0,1,0,2.926,0V83.407h8.108v8.568a1.463,1.463,0,1,0,2.926,0V83.407h8.108v8.568a1.463,1.463,0,1,0,2.926,0V83.407h8.108v7.278a6.478,6.478,0,1,0,2.926,0V83.407H78.6A4.812,4.812,0,0,0,83.407,78.6V72.373h7.278a6.476,6.476,0,1,0,6.305-7.941Zm0-30.176a3.553,3.553,0,1,1-3.553,3.553A3.553,3.553,0,0,1,96.99,34.255ZM67.357,11.727A3.553,3.553,0,1,1,70.91,15.28a3.553,3.553,0,0,1-3.553-3.553Zm-33.1,0a3.553,3.553,0,1,1,3.553,3.553,3.553,3.553,0,0,1-3.553-3.553ZM11.727,41.36a3.553,3.553,0,1,1,3.553-3.553,3.553,3.553,0,0,1-3.553,3.553Zm0,33.1A3.553,3.553,0,1,1,15.28,70.91a3.553,3.553,0,0,1-3.553,3.553ZM41.36,96.99a3.553,3.553,0,1,1-3.553-3.553A3.553,3.553,0,0,1,41.36,96.99Zm33.1,0a3.553,3.553,0,1,1-3.553-3.553A3.553,3.553,0,0,1,74.462,96.99ZM80.481,78.6A1.883,1.883,0,0,1,78.6,80.481H30.117A1.883,1.883,0,0,1,28.236,78.6V30.117a1.883,1.883,0,0,1,1.881-1.881H78.6a1.883,1.883,0,0,1,1.881,1.881ZM96.99,74.462a3.553,3.553,0,1,1,3.553-3.553,3.553,3.553,0,0,1-3.553,3.553Z" transform="translate(0)" fill="#ffd300"/>
      <path id="Path_82397-2" data-name="Path 82397" d="M79.165,39.25H40.713a1.463,1.463,0,0,0-1.463,1.463V79.165a1.463,1.463,0,0,0,1.463,1.463H79.165a1.463,1.463,0,0,0,1.463-1.463V40.713A1.463,1.463,0,0,0,79.165,39.25ZM77.7,77.7H42.176V42.176H77.7Z" transform="translate(-5.58 -5.58)" fill="#ffd300"/>
      <path id="Path_82398-2" data-name="Path 82398" d="M53.713,70.55a1.463,1.463,0,0,0,1.463-1.463V63.863h7.105v5.224a1.463,1.463,0,0,0,2.926,0V59.056A4.812,4.812,0,0,0,60.4,54.25H57.056a4.812,4.812,0,0,0-4.806,4.806V69.087a1.463,1.463,0,0,0,1.463,1.463Zm3.344-13.375H60.4a1.883,1.883,0,0,1,1.881,1.881v1.881H55.176V59.056a1.883,1.883,0,0,1,1.881-1.881ZM70.431,70.55a1.463,1.463,0,0,0,1.463-1.463V55.713a1.463,1.463,0,1,0-2.926,0V69.087a1.463,1.463,0,0,0,1.463,1.463Z" transform="translate(-7.713 -8.041)" fill="#ffd300"/>
    </g>
  </g>
</svg>
