<svg xmlns="http://www.w3.org/2000/svg" width="116.787" height="116.787" viewBox="0 0 116.787 116.787">
  <g id="Group_26982" data-name="Group 26982" transform="translate(-759.5 -2290.5)">
    <g id="Group_26981" data-name="Group 26981" transform="translate(767 2298.003)">
      <path id="Path_82407" data-name="Path 82407" d="M66.5,19a2.127,2.127,0,0,1,2.121,2.121A2.1,2.1,0,0,1,66.5,23.238H64.375V19ZM5,19H64.375v4.241H5Z" transform="translate(16.206 61.581)" fill="none" stroke="#031342" stroke-linecap="round" stroke-linejoin="round" stroke-width="3"/>
      <path id="Path_82408" data-name="Path 82408" d="M42.688,26.4V56.089a2.127,2.127,0,0,0-2.121-2.121H38.447V26.4a2.155,2.155,0,0,0-2.121-2.121H27.844a2.1,2.1,0,0,1-2.121-2.121,2.127,2.127,0,0,1,2.121-2.121h8.482A6.38,6.38,0,0,1,42.688,26.4ZM36.326,66.692H19.319A17.272,17.272,0,0,1,18,63.85a2.146,2.146,0,0,0-1.993-1.4H36.326a2.127,2.127,0,0,0,2.121-2.121V58.21h2.121a2.1,2.1,0,0,0,2.121-2.121V60.33A6.353,6.353,0,0,1,36.326,66.692ZM17.241,10.328V26.4A2.121,2.121,0,1,1,13,26.4V10.328l2.121-2.121Z" transform="translate(42.135 26.609)" fill="none" stroke="#031342" stroke-linecap="round" stroke-linejoin="round" stroke-width="3"/>
      <path id="Path_82409" data-name="Path 82409" d="M18,66.962A17.272,17.272,0,0,0,19.319,69.8h-4.75c-.212-.467-.382-.933-.551-1.4A2.12,2.12,0,1,1,18,66.962ZM17.241,9.368v4.071l-2.121-2.121L13,13.439V9.368a2.121,2.121,0,0,1,4.241,0Z" transform="translate(42.135 23.498)" fill="none" stroke="#031342" stroke-linecap="round" stroke-linejoin="round" stroke-width="3"/>
      <path id="Path_82410" data-name="Path 82410" d="M11.188,66.372H25.735a2.142,2.142,0,0,0-1.993,2.842c.17.467.339.933.551,1.4H12.629c.212-.467.382-.975.551-1.442A2.1,2.1,0,0,0,11.866,66.5,1.921,1.921,0,0,0,11.188,66.372ZM17,13.995l6.362-6.362a2.05,2.05,0,0,1,2.969,0l6.362,6.362a2.1,2.1,0,0,1-1.484,3.6,2.121,2.121,0,0,1-1.484-.594l-2.757-2.757V10.178a2.121,2.121,0,1,0-4.241,0v4.071l-2.757,2.757a2.125,2.125,0,0,1-2.969,0A2.1,2.1,0,0,1,17,13.995ZM14.241,37.957v4.029a2.121,2.121,0,0,1-4.241,0V37.957l2.121,2.121Z" transform="translate(32.412 22.688)" fill="none" stroke="#031342" stroke-linecap="round" stroke-linejoin="round" stroke-width="3"/>
      <path id="Path_82411" data-name="Path 82411" d="M15.829,12.118V28.234l-2.121,2.121-2.121-2.121V12.118a2.121,2.121,0,0,1,4.241,0ZM13.454,56.776a2.1,2.1,0,0,1,1.315,2.672c-.17.467-.339.975-.551,1.442H9.51a13.855,13.855,0,0,0,1.272-2.8,2.087,2.087,0,0,1,2.672-1.315Z" transform="translate(30.824 32.411)" fill="none" stroke="#031342" stroke-linecap="round" stroke-linejoin="round" stroke-width="3"/>
      <path id="Path_82412" data-name="Path 82412" d="M39.413,17.12l-6.362,6.362a2.152,2.152,0,0,1-2.969,0L23.721,17.12a2.1,2.1,0,0,1,0-3.011,2.125,2.125,0,0,1,2.969,0l2.757,2.757v4.029a2.121,2.121,0,0,0,4.241,0V16.866L36.4,14.109a2.177,2.177,0,0,1,3.011,0,2.1,2.1,0,0,1,0,3.011Zm-9.67,36.643H46.114a23.1,23.1,0,0,1-2.375-4.241h4.75A20.923,20.923,0,0,0,52.137,54.4a2.025,2.025,0,0,1,.467,2.29A2.115,2.115,0,0,1,50.652,58H25.206a2.073,2.073,0,0,1-1.951-1.315,2.025,2.025,0,0,1,.467-2.29,21.845,21.845,0,0,0,3.647-4.877h4.708a19.8,19.8,0,0,1-2.333,4.241ZM8.241,36.8V41.04H6.121A2.1,2.1,0,0,1,4,38.919,2.127,2.127,0,0,1,6.121,36.8Z" transform="translate(12.965 43.779)" fill="none" stroke="#031342" stroke-linecap="round" stroke-linejoin="round" stroke-width="3"/>
      <path id="Path_82413" data-name="Path 82413" d="M10.362,15.238a2.127,2.127,0,0,0-2.121,2.121V44.926H6.121A2.127,2.127,0,0,0,4,47.046V17.359A6.38,6.38,0,0,1,10.362,11h8.482a2.127,2.127,0,0,1,2.121,2.121,2.1,2.1,0,0,1-2.121,2.121Zm0,38.17H30.634a2.087,2.087,0,0,0-1.993,1.442,13.855,13.855,0,0,1-1.272,2.8H10.362A6.353,6.353,0,0,1,4,51.288V47.046a2.1,2.1,0,0,0,2.121,2.121H8.241v2.121A2.1,2.1,0,0,0,10.362,53.408Z" transform="translate(12.965 35.652)" fill="none" stroke="#031342" stroke-linecap="round" stroke-linejoin="round" stroke-width="3"/>
      <path id="Path_82414" data-name="Path 82414" d="M19.764,25.528A31.743,31.743,0,0,1,79.1,17.173,25.4,25.4,0,0,1,97.164,57.04,2.116,2.116,0,0,1,93.3,55.81a2.21,2.21,0,0,1,.382-1.23,20.673,20.673,0,0,0,3.859-12.172A21.152,21.152,0,0,0,77.613,21.287a2.053,2.053,0,0,1-1.781-1.23,27.558,27.558,0,0,0-52.208,7.8,2.069,2.069,0,0,1-2.078,1.824,17.063,17.063,0,0,0-17.3,16.964A16.66,16.66,0,0,0,8.016,57.294a2.163,2.163,0,0,1,.467,1.315,2.111,2.111,0,0,1-.763,1.654,2.171,2.171,0,0,1-3.011-.3A20.684,20.684,0,0,1,0,46.649,21.189,21.189,0,0,1,19.764,25.528Z" transform="translate(0 0)" fill="none" stroke="#031342" stroke-linecap="round" stroke-linejoin="round" stroke-width="3"/>
    </g>
    <g id="Group_26978" data-name="Group 26978" transform="translate(767 2298.003)">
      <path id="Path_82407-2" data-name="Path 82407" d="M66.5,19a2.127,2.127,0,0,1,2.121,2.121A2.1,2.1,0,0,1,66.5,23.238H64.375V19ZM5,19H64.375v4.241H5Z" transform="translate(16.206 61.581)" fill="#8d55ff"/>
      <path id="Path_82408-2" data-name="Path 82408" d="M42.688,26.4V56.089a2.127,2.127,0,0,0-2.121-2.121H38.447V26.4a2.155,2.155,0,0,0-2.121-2.121H27.844a2.1,2.1,0,0,1-2.121-2.121,2.127,2.127,0,0,1,2.121-2.121h8.482A6.38,6.38,0,0,1,42.688,26.4ZM36.326,66.692H19.319A17.272,17.272,0,0,1,18,63.85a2.146,2.146,0,0,0-1.993-1.4H36.326a2.127,2.127,0,0,0,2.121-2.121V58.21h2.121a2.1,2.1,0,0,0,2.121-2.121V60.33A6.353,6.353,0,0,1,36.326,66.692ZM17.241,10.328V26.4A2.121,2.121,0,1,1,13,26.4V10.328l2.121-2.121Z" transform="translate(42.135 26.609)" fill="#8d55ff"/>
      <path id="Path_82409-2" data-name="Path 82409" d="M18,66.962A17.272,17.272,0,0,0,19.319,69.8h-4.75c-.212-.467-.382-.933-.551-1.4A2.12,2.12,0,1,1,18,66.962ZM17.241,9.368v4.071l-2.121-2.121L13,13.439V9.368a2.121,2.121,0,0,1,4.241,0Z" transform="translate(42.135 23.498)" fill="#8d55ff"/>
      <path id="Path_82410-2" data-name="Path 82410" d="M11.188,66.372H25.735a2.142,2.142,0,0,0-1.993,2.842c.17.467.339.933.551,1.4H12.629c.212-.467.382-.975.551-1.442A2.1,2.1,0,0,0,11.866,66.5,1.921,1.921,0,0,0,11.188,66.372ZM17,13.995l6.362-6.362a2.05,2.05,0,0,1,2.969,0l6.362,6.362a2.1,2.1,0,0,1-1.484,3.6,2.121,2.121,0,0,1-1.484-.594l-2.757-2.757V10.178a2.121,2.121,0,1,0-4.241,0v4.071l-2.757,2.757a2.125,2.125,0,0,1-2.969,0A2.1,2.1,0,0,1,17,13.995ZM14.241,37.957v4.029a2.121,2.121,0,0,1-4.241,0V37.957l2.121,2.121Z" transform="translate(32.412 22.688)" fill="#8d55ff"/>
      <path id="Path_82411-2" data-name="Path 82411" d="M15.829,12.118V28.234l-2.121,2.121-2.121-2.121V12.118a2.121,2.121,0,0,1,4.241,0ZM13.454,56.776a2.1,2.1,0,0,1,1.315,2.672c-.17.467-.339.975-.551,1.442H9.51a13.855,13.855,0,0,0,1.272-2.8,2.087,2.087,0,0,1,2.672-1.315Z" transform="translate(30.824 32.411)" fill="#8d55ff"/>
      <path id="Path_82412-2" data-name="Path 82412" d="M39.413,17.12l-6.362,6.362a2.152,2.152,0,0,1-2.969,0L23.721,17.12a2.1,2.1,0,0,1,0-3.011,2.125,2.125,0,0,1,2.969,0l2.757,2.757v4.029a2.121,2.121,0,0,0,4.241,0V16.866L36.4,14.109a2.177,2.177,0,0,1,3.011,0,2.1,2.1,0,0,1,0,3.011Zm-9.67,36.643H46.114a23.1,23.1,0,0,1-2.375-4.241h4.75A20.923,20.923,0,0,0,52.137,54.4a2.025,2.025,0,0,1,.467,2.29A2.115,2.115,0,0,1,50.652,58H25.206a2.073,2.073,0,0,1-1.951-1.315,2.025,2.025,0,0,1,.467-2.29,21.845,21.845,0,0,0,3.647-4.877h4.708a19.8,19.8,0,0,1-2.333,4.241ZM8.241,36.8V41.04H6.121A2.1,2.1,0,0,1,4,38.919,2.127,2.127,0,0,1,6.121,36.8Z" transform="translate(12.965 43.779)" fill="#8d55ff"/>
      <path id="Path_82413-2" data-name="Path 82413" d="M10.362,15.238a2.127,2.127,0,0,0-2.121,2.121V44.926H6.121A2.127,2.127,0,0,0,4,47.046V17.359A6.38,6.38,0,0,1,10.362,11h8.482a2.127,2.127,0,0,1,2.121,2.121,2.1,2.1,0,0,1-2.121,2.121Zm0,38.17H30.634a2.087,2.087,0,0,0-1.993,1.442,13.855,13.855,0,0,1-1.272,2.8H10.362A6.353,6.353,0,0,1,4,51.288V47.046a2.1,2.1,0,0,0,2.121,2.121H8.241v2.121A2.1,2.1,0,0,0,10.362,53.408Z" transform="translate(12.965 35.652)" fill="#8d55ff"/>
      <path id="Path_82414-2" data-name="Path 82414" d="M19.764,25.528A31.743,31.743,0,0,1,79.1,17.173,25.4,25.4,0,0,1,97.164,57.04,2.116,2.116,0,0,1,93.3,55.81a2.21,2.21,0,0,1,.382-1.23,20.673,20.673,0,0,0,3.859-12.172A21.152,21.152,0,0,0,77.613,21.287a2.053,2.053,0,0,1-1.781-1.23,27.558,27.558,0,0,0-52.208,7.8,2.069,2.069,0,0,1-2.078,1.824,17.063,17.063,0,0,0-17.3,16.964A16.66,16.66,0,0,0,8.016,57.294a2.163,2.163,0,0,1,.467,1.315,2.111,2.111,0,0,1-.763,1.654,2.171,2.171,0,0,1-3.011-.3A20.684,20.684,0,0,1,0,46.649,21.189,21.189,0,0,1,19.764,25.528Z" transform="translate(0 0)" fill="#8d55ff"/>
    </g>
  </g>
</svg>
