<svg xmlns="http://www.w3.org/2000/svg" width="37.047" height="37.047" viewBox="0 0 37.047 37.047">
  <g id="Group_26950" data-name="Group 26950" transform="translate(-16 -16)">
    <path id="Path_82377" data-name="Path 82377" d="M38.846,43.286a13.454,13.454,0,0,1-3.941,1.634L33.9,47.532H29.632L28.627,44.92a13.455,13.455,0,0,1-3.94-1.633l-2.56,1.137-3.018-3.017,1.137-2.559a13.455,13.455,0,0,1-1.634-3.941L16,33.9V29.632l2.612-1.006a13.454,13.454,0,0,1,1.634-3.94l-1.137-2.56,3.017-3.018,2.56,1.137a13.457,13.457,0,0,1,3.94-1.633L29.632,16H33.9l1.006,2.613a13.457,13.457,0,0,1,3.94,1.633l2.56-1.137,3.018,3.017-1.137,2.559a13.451,13.451,0,0,1,1.634,3.941l2.612,1.005v3.283a4.9,4.9,0,0,0-4.6-3.254,1.8,1.8,0,0,0-1.8,1.8v2.067L40.052,34a8.574,8.574,0,1,0-5.622,5.924v.5a1.638,1.638,0,0,0,1.637,1.636h2.6a4.461,4.461,0,0,0,2.342,1.166v.677l-.24.231Zm7.733-8.74A3.662,3.662,0,0,0,42.928,30.9a.563.563,0,0,0-.562.562v2.872l-5.132,2.263a2.659,2.659,0,0,0-1.57,2.459v1.378a.4.4,0,0,0,.4.4H39.26A3.416,3.416,0,0,0,42.242,42.1v2.334L38.97,47.582a.388.388,0,0,0-.123.289v.287H51.791V43.321c0-3.839-2.508-7.85-5.212-8.622v-.153ZM36.608,28.3a1.27,1.27,0,0,0-1.8.006l-4.172,4.214-1.917-1.917a1.273,1.273,0,0,0-1.8,1.8l2.82,2.82a1.273,1.273,0,0,0,1.8,0c1.7-1.7,3.38-3.419,5.072-5.126A1.271,1.271,0,0,0,36.608,28.3ZM52.661,49.394H37.977a.387.387,0,0,0-.386.386v2.881a.387.387,0,0,0,.386.386H52.661a.387.387,0,0,0,.386-.386V49.78A.387.387,0,0,0,52.661,49.394Z" fill="#006ce5"/>
  </g>
</svg>
