<svg xmlns="http://www.w3.org/2000/svg" width="220.894" height="63.638" viewBox="0 0 220.894 63.638">
  <path id="path21" d="M18.594,56.732C29.15,54.867,37.868,53.324,37.968,53.3l.182-.039L28.185,41.411c-5.481-6.52-9.966-11.879-9.966-11.91,0-.058,10.29-28.4,10.348-28.5C28.587.97,35.59,13.061,45.543,30.312c9.318,16.151,17,29.467,17.072,29.592l.13.227-31.671,0-31.671,0,19.192-3.39Zm121.457-2.867c-4.821-.309-7.625-3.054-8.368-8.193-.2-1.367-.2-1.4-.219-10.276l-.02-8.588h4.267l.017,8.307c.015,7.487.025,8.365.1,8.892a7.877,7.877,0,0,0,1.853,4.607,5.317,5.317,0,0,0,2.988,1.566,11.363,11.363,0,0,0,2.866,0,6.333,6.333,0,0,0,3.248-1.763,8.584,8.584,0,0,0,2.189-4.2l.126-.564.014-8.378.014-8.378h4.357V53.241h-4.312V51.152a15.836,15.836,0,0,0-.049-2.073,1.716,1.716,0,0,0-.246.376,8.764,8.764,0,0,1-3.337,3.34,9.368,9.368,0,0,1-5.484,1.07Zm48.934-.021a11.3,11.3,0,0,1-4.958-1.619c-3.087-1.91-4.913-5.057-5.448-9.389a22.693,22.693,0,0,1-.053-4.786,15.55,15.55,0,0,1,3.056-7.634,15.606,15.606,0,0,1,1.846-1.846,11.5,11.5,0,0,1,4.71-2.248,15.308,15.308,0,0,1,3.82-.223,10.045,10.045,0,0,1,6.771,3.478,13.293,13.293,0,0,1,2.733,8.267c.019.541.023,1.49.01,2.109l-.024,1.125-9.338.012-9.338.012v.417a10.327,10.327,0,0,0,.842,3.943,8.67,8.67,0,0,0,1.9,2.778,8.349,8.349,0,0,0,4.734,2,18.463,18.463,0,0,0,3.093-.119,13.111,13.111,0,0,0,5.832-2.406c.194-.145.379-.281.412-.3a7.88,7.88,0,0,1,.058,1.945v1.982l-.441.273a15.456,15.456,0,0,1-6.258,2.169,35.931,35.931,0,0,1-3.956.059Zm8.127-16.72a8.485,8.485,0,0,0-2.163-5.7,5.943,5.943,0,0,0-3.3-1.6,9.742,9.742,0,0,0-2.559.072,6.69,6.69,0,0,0-3.493,1.856,9.517,9.517,0,0,0-2.311,3.7,11.873,11.873,0,0,0-.447,1.819l-.031.223h14.3ZM70.439,53.182c.011-.032,3.182-8.363,7.047-18.512l7.027-18.454h4.516l.187.48c.572,1.468,14.067,36.5,14.067,36.523s-1.081.022-2.4.021h-2.4l-1.945-5.178-1.945-5.178H78.927l-.068.176c-.037.1-.868,2.427-1.847,5.178l-1.779,5H72.826a12.978,12.978,0,0,1-2.387-.058ZM93.16,38.932c0-.008-1.309-3.557-2.909-7.885-2.993-8.1-3.16-8.586-3.4-9.886-.111-.61-.167-.627-.233-.07a12.926,12.926,0,0,1-.408,1.781c-.078.245-1.426,3.944-3,8.22s-2.853,7.793-2.853,7.815,2.879.04,6.4.04S93.16,38.94,93.16,38.932Zm11.576,13.635v-.674l7.8-10.726,7.8-10.726-7.064-.023-7.064-.023L106.2,28.6l-.012-1.793h20.435v1.211L118.82,38.8c-4.292,5.931-7.8,10.795-7.8,10.807s3.469.022,7.71.022h7.71v3.609h-21.7Zm57.256.643c-.017-.017-.031-5.965-.031-13.217V26.808h4.265v2.718c0,1.5.018,2.718.04,2.718a2.42,2.42,0,0,0,.231-.544,9.4,9.4,0,0,1,2.382-3.669,6.175,6.175,0,0,1,3.369-1.675,6.981,6.981,0,0,1,1.406-.051,6.228,6.228,0,0,1,1.957.274l.176.057v4.427l-.5-.252a5.381,5.381,0,0,0-2.824-.567,5.113,5.113,0,0,0-1.687.33,5.338,5.338,0,0,0-2.687,2.195A12.751,12.751,0,0,0,166.3,37.9c-.035.314-.056,2.868-.064,7.9l-.012,7.44h-2.1c-1.155,0-2.115-.014-2.132-.031Zm-181.408-.093c0-.017,4.7-8.168,10.435-18.114L1.455,16.919,13.615,6.713C20.3,1.1,25.794-3.5,25.816-3.507a2.138,2.138,0,0,1-.2.492c-.13.279-6.072,13.024-13.2,28.323L-.554,53.124l-9.431.012c-5.187.007-9.431,0-9.431-.018Z" transform="translate(19.415 3.507)" fill="#0089d6"/>
</svg>
