<svg xmlns="http://www.w3.org/2000/svg" xmlns:xlink="http://www.w3.org/1999/xlink" width="106.599" height="106.599" viewBox="0 0 106.599 106.599">
  <defs>
    <clipPath id="clip-path">
      <path id="Path_82390" data-name="Path 82390" d="M0-682.665H106.6v106.6H0Z" transform="translate(0 682.665)" fill="#006ce5"/>
    </clipPath>
  </defs>
  <g id="Group_26970" data-name="Group 26970" transform="translate(0 -0.002)">
    <g id="Group_26969" data-name="Group 26969" transform="translate(0 0.002)" clip-path="url(#clip-path)">
      <path id="Path_82383" data-name="Path 82383" d="M-203.814-228.324a2.075,2.075,0,0,1-1.472-.61L-220.953-244.6a2.082,2.082,0,0,1,0-2.944l2.159-2.16h-.869a2.082,2.082,0,0,1-2.082-2.082v-10.54a3.444,3.444,0,0,0-1.013-2.448l-7.719-7.714a7.588,7.588,0,0,1-2.232-5.392v-13.2a2.082,2.082,0,0,1,.625-1.487,2.082,2.082,0,0,1,1.5-.594,49.377,49.377,0,0,1,34.508,14.984,2.082,2.082,0,0,1-.018,2.926l-6.916,6.916a3.473,3.473,0,0,0-1.016,2.446v4.18a3.43,3.43,0,0,0,1.015,2.444l6.488,6.49a7.579,7.579,0,0,1,2.234,5.391v7.245a7.58,7.58,0,0,1-2.234,5.389l-5.819,5.817A2.076,2.076,0,0,1-203.814-228.324Zm-12.722-17.749,12.722,12.723,4.347-4.345a3.441,3.441,0,0,0,1.014-2.446v-7.243a3.441,3.441,0,0,0-1.014-2.448l-6.486-6.489a7.564,7.564,0,0,1-2.236-5.389v-4.179a7.662,7.662,0,0,1,2.238-5.394l5.427-5.427a45.181,45.181,0,0,0-28.021-12.195v11.024a3.449,3.449,0,0,0,1.014,2.449l7.718,7.714a7.583,7.583,0,0,1,2.231,5.392v8.458h3.812a2.082,2.082,0,0,1,1.923,1.285,2.082,2.082,0,0,1-.451,2.269Z" transform="translate(284.953 293.176)" fill="#006ce5"/>
      <path id="Path_82384" data-name="Path 82384" d="M-189.678-98.179a2.079,2.079,0,0,1,1.473.61l9.549,9.549a7.264,7.264,0,0,1,2.142,5.172v15.09a7.265,7.265,0,0,1-2.143,5.173l-3.613,3.613a7.265,7.265,0,0,1-5.171,2.143,7.259,7.259,0,0,1-5.171-2.144l-4.109-4.109A3.139,3.139,0,0,0-198.951-64h-10.612a2.082,2.082,0,0,1-1.609-.761,2.082,2.082,0,0,1-.433-1.727,49.405,49.405,0,0,1,20.754-31.324A2.077,2.077,0,0,1-189.678-98.179Zm2.236,37.186a3.129,3.129,0,0,0,2.227-.923l3.614-3.614a3.129,3.129,0,0,0,.923-2.228v-15.09a3.128,3.128,0,0,0-.922-2.227l-8.306-8.306a45.217,45.217,0,0,0-17.048,25.213h8a7.279,7.279,0,0,1,5.171,2.141l4.112,4.112A3.123,3.123,0,0,0-187.442-60.993Z" transform="translate(216.162 106.443)" fill="#006ce5"/>
      <path id="Path_82385" data-name="Path 82385" d="M-176.246-107.437a49.644,49.644,0,0,1-15.428-2.441,49.436,49.436,0,0,1-15.313-8.2,2.083,2.083,0,0,1-.413-.435q-.355-.5-.686-1.023a2.082,2.082,0,0,1,.293-2.6l10.2-10.062a7.063,7.063,0,0,1,4.977-2.037l4.76.046a7.114,7.114,0,0,1,7.035,7.176l-.025,2.363a2.933,2.933,0,0,0,.843,2.088l4.181,4.265a7.064,7.064,0,0,1,2.032,5.043l-.037,3.759a2.082,2.082,0,0,1-2.043,2.061ZM-203.427-120.6a45.245,45.245,0,0,0,13.045,6.763,45.386,45.386,0,0,0,12.415,2.2l.017-1.667a2.926,2.926,0,0,0-.842-2.088l-4.182-4.266a7.073,7.073,0,0,1-2.032-5.042l.025-2.365a2.945,2.945,0,0,0-2.912-2.97l-4.689-.046a2.935,2.935,0,0,0-2.088.841Z" transform="translate(229.545 206.836)" fill="#006ce5"/>
      <path id="Path_82386" data-name="Path 82386" d="M-341.108-325.387a49.7,49.7,0,0,1-15.428-2.44,49.946,49.946,0,0,1-26.2-20.1,49.5,49.5,0,0,1-8.071-27.161,49.974,49.974,0,0,1,.957-9.749A49.414,49.414,0,0,1-369.1-416.159a49.427,49.427,0,0,1,27.989-8.626c.367,0,.731,0,1.1.015a49.358,49.358,0,0,1,34.481,14.983,49.418,49.418,0,0,1,14.122,34.7,49.553,49.553,0,0,1-7.7,26.593,2.082,2.082,0,0,1-1.53.954,2.082,2.082,0,0,1-1.7-.6l-12.4-12.407-15.666-15.666a2.082,2.082,0,0,1,0-2.944l2.159-2.16h-14.54v14.541l2.344-2.344a2.082,2.082,0,0,1,2.944,0l9.19,9.19a2.082,2.082,0,0,1,0,2.944,2.082,2.082,0,0,1-2.944,0l-7.718-7.718-4.426,4.426a2.082,2.082,0,0,1-2.269.451,2.082,2.082,0,0,1-1.285-1.924V-383.4a2.082,2.082,0,0,1,2.082-2.082h21.647a2.082,2.082,0,0,1,1.923,1.285,2.082,2.082,0,0,1-.451,2.269l-4.24,4.242,14.194,14.195,10.506,10.514a45.422,45.422,0,0,0,5.718-22.112A45.277,45.277,0,0,0-308.51-406.88a45.235,45.235,0,0,0-31.614-13.728c-.347-.012-.664-.014-.983-.014a45.279,45.279,0,0,0-25.641,7.9,45.274,45.274,0,0,0-19.018,28.7,45.8,45.8,0,0,0-.877,8.936,45.347,45.347,0,0,0,7.393,24.882,45.767,45.767,0,0,0,24.006,18.418,45.54,45.54,0,0,0,14.137,2.235,45.538,45.538,0,0,0,27.806-9.475l-5-5a2.082,2.082,0,0,1,0-2.944,2.082,2.082,0,0,1,2.944,0l6.631,6.633a2.082,2.082,0,0,1,.608,1.553,2.082,2.082,0,0,1-.728,1.5A49.689,49.689,0,0,1-341.108-325.387Z" transform="translate(394.407 424.786)" fill="#006ce5"/>
      <path id="Path_82387" data-name="Path 82387" d="M-151.14-190.4a2.08,2.08,0,0,1-1.473-.61,2.082,2.082,0,0,1-.29-2.581,8.706,8.706,0,0,0-1.228-10.848l-3.951-3.961-6.175-6.176a2.082,2.082,0,0,1,0-2.944,2.082,2.082,0,0,1,2.944,0l6.177,6.178,3.95,3.961a12.879,12.879,0,0,1,3.794,8.59l3.3-3.3a8.7,8.7,0,0,0,2.566-6.2,8.7,8.7,0,0,0-2.566-6.2l-32.268-32.281a2.082,2.082,0,0,1,0-2.944l2.159-2.16h-14.54v14.541l2.344-2.344a2.082,2.082,0,0,1,1.472-.61h0a2.082,2.082,0,0,1,1.472.61l9.189,9.19a2.082,2.082,0,0,1,0,2.944,2.082,2.082,0,0,1-2.944,0l-7.716-7.718-4.426,4.426a2.082,2.082,0,0,1-2.269.451,2.082,2.082,0,0,1-1.285-1.924v-21.649a2.082,2.082,0,0,1,2.082-2.082h21.647a2.082,2.082,0,0,1,1.923,1.285,2.082,2.082,0,0,1-.451,2.269l-4.24,4.242,30.8,30.809a12.841,12.841,0,0,1,3.786,9.14,12.842,12.842,0,0,1-3.786,9.14l-6.624,6.622a12.922,12.922,0,0,1-2.258,1.8A2.077,2.077,0,0,1-151.14-190.4Z" transform="translate(240.363 295.337)" fill="#006ce5"/>
      <path id="Path_82388" data-name="Path 82388" d="M-125.83-99.016a12.838,12.838,0,0,1-9.137-3.785l-6.7-6.706a2.082,2.082,0,0,1-.557-1.934,2.082,2.082,0,0,1,1.34-1.5,45.252,45.252,0,0,0,14.458-8.335,2.082,2.082,0,0,1,2.827.113l3.494,3.5a12.848,12.848,0,0,1,1.807,16.008,2.082,2.082,0,0,1-.652.653A12.886,12.886,0,0,1-125.83-99.016Zm-10.634-11.177,4.442,4.449a8.7,8.7,0,0,0,6.192,2.565,8.735,8.735,0,0,0,4.255-1.1,8.7,8.7,0,0,0-1.471-10.438l-2.161-2.167A49.334,49.334,0,0,1-136.464-110.193Z" transform="translate(209.278 205.615)" fill="#006ce5"/>
      <path id="Path_82389" data-name="Path 82389" d="M0,0H0" transform="translate(71.101 72.807)" fill="#006ce5" stroke="#006ce5" stroke-linecap="round" stroke-linejoin="round" stroke-width="4.67"/>
    </g>
  </g>
</svg>
