<svg id="Group_26951" data-name="Group 26951" xmlns="http://www.w3.org/2000/svg" width="39.743" height="39.743" viewBox="0 0 39.743 39.743">
  <path id="Path_82378" data-name="Path 82378" d="M28.022,16.378H23.364v6.868l-2.329-1.474V11.721h4.657V0H14.05V11.721h4.657V21.773l-2.329,1.474V16.378H11.721V11.721H0V23.364H11.721V18.707H14.05v6.014l-1.164.737,6.986,4.657,6.986-4.657-1.164-.737V18.707h2.329v4.657H39.743V11.721H28.022ZM18.707,4.735h2.329V7.064H18.707ZM7.064,18.707H4.735V16.378H7.064Zm25.615-2.329h2.329v2.329H32.679ZM21.036,32.138v7.6l6.986-4.658v-7.6ZM11.721,27.48v7.6l6.986,4.658v-7.6Z" fill="#006ce5"/>
</svg>
