<svg id="Group_26973" data-name="Group 26973" xmlns="http://www.w3.org/2000/svg" width="94.729" height="94.174" viewBox="0 0 94.729 94.174">
  <path id="Path_82395" data-name="Path 82395" d="M78.479,66.707a7.848,7.848,0,1,1,7.848-7.848A7.871,7.871,0,0,1,78.479,66.707Zm0-11.772A3.924,3.924,0,1,0,82.4,58.859,3.707,3.707,0,0,0,78.479,54.935ZM92.212,86.327a1.854,1.854,0,0,1-1.962-1.962V80.441a6.035,6.035,0,0,0-5.886-5.886H72.593a1.962,1.962,0,0,1,0-3.924H84.365a9.715,9.715,0,0,1,9.81,9.81v3.924A1.854,1.854,0,0,1,92.212,86.327ZM15.7,66.707a7.848,7.848,0,1,1,7.848-7.848A7.871,7.871,0,0,1,15.7,66.707Zm0-11.772a3.924,3.924,0,1,0,0,7.848,3.924,3.924,0,1,0,0-7.848ZM1.962,86.327A1.854,1.854,0,0,1,0,84.365V80.441a9.715,9.715,0,0,1,9.81-9.81H21.582a1.962,1.962,0,0,1,0,3.924H9.81a6.035,6.035,0,0,0-5.886,5.886v3.924A1.854,1.854,0,0,1,1.962,86.327ZM47.087,68.669A11.772,11.772,0,1,1,58.859,56.9,11.562,11.562,0,0,1,47.087,68.669Zm0-19.62A7.848,7.848,0,1,0,54.935,56.9,7.871,7.871,0,0,0,47.087,49.049Zm19.62,45.125a1.854,1.854,0,0,1-1.962-1.962V84.365a6.035,6.035,0,0,0-5.886-5.886H35.315a6.035,6.035,0,0,0-5.886,5.886v7.848a1.962,1.962,0,1,1-3.924,0V84.365a9.715,9.715,0,0,1,9.81-9.81H58.859a9.715,9.715,0,0,1,9.81,9.81v7.848A1.854,1.854,0,0,1,66.707,94.174ZM36.1,39.239c-.392,0-.785,0-.785-.392a2.158,2.158,0,0,1-1.177-1.962L36.1,25.113l-8.24-8.24a2.94,2.94,0,0,1-.392-1.962c.392-.785.785-1.177,1.57-1.177l11.379-1.962,5.1-10.595C45.518.392,46.3,0,47.087,0a2.158,2.158,0,0,1,1.962,1.177l4.709,10.595,10.987,1.57c.785,0,1.177.785,1.57,1.177s0,1.57-.392,1.962l-8.24,8.24,1.962,11.772c0,.785,0,1.57-.785,1.962a1.752,1.752,0,0,1-1.962,0l-9.81-5.1-9.81,5.493A1.442,1.442,0,0,1,36.1,39.239ZM33.353,16.873l6.278,6.278c.392.392.785,1.177.392,1.57l-1.177,9.025L46.3,29.822a1.752,1.752,0,0,1,1.962,0l7.455,3.924-1.57-8.633c0-.785,0-1.177.392-1.57l6.278-6.278-8.24-1.177c-.785,0-1.177-.392-1.57-1.177L47.48,7.063l-3.532,7.848a3,3,0,0,0-1.962.785ZM70.238,35.315a1.442,1.442,0,0,1-1.177-.392c-.785-.392-.785-1.177-.785-1.962l1.57-9.81a2,2,0,1,1,3.924.785l-.785,5.886,5.1-2.747a1.782,1.782,0,0,1,1.962,0l5.1,2.747-1.57-6.278c0-.785,0-1.177.392-1.57l4.316-4.316L82.4,16.873c-.785,0-1.177-.392-1.57-1.177l-2.354-5.1-2.354,5.1a1.686,1.686,0,0,1-2.747.785,1.686,1.686,0,0,1-.785-2.747l4.316-9.025c0-.392.785-.785,1.57-.785A2.158,2.158,0,0,1,80.441,5.1l3.924,8.24L93,14.519c.785,0,1.177.785,1.57,1.177a1.725,1.725,0,0,1-.392,1.962L87.9,23.936l1.57,9.025c0,.785,0,1.57-.785,1.962a1.752,1.752,0,0,1-1.962,0L78.479,31l-7.455,4.316Zm-46.3,0a1.215,1.215,0,0,1-.785-.392L15.7,31,8.24,34.923a2.5,2.5,0,0,1-2.354,0A3,3,0,0,1,5.1,32.961l1.57-9.025L.392,17.658A2.94,2.94,0,0,1,0,15.7c.392-.785.785-1.177,1.57-1.177L10.2,13.341,14.126,5.1c0-.785.785-1.177,1.57-1.177A2.158,2.158,0,0,1,17.658,5.1l4.316,9.025a2.6,2.6,0,0,1-.785,2.747c-1.57.392-2.747,0-3.139-1.177l-2.354-5.1-2.354,5.1c-.392.785-.785,1.177-1.57,1.177l-5.886.785L10.2,21.974c.392.392.785,1.177.392,1.57L9.81,29.822l5.1-2.747a1.782,1.782,0,0,1,1.962,0l5.1,2.747L20.4,23.544a2.152,2.152,0,0,1,1.57-2.354,2.152,2.152,0,0,1,2.354,1.57l1.57,9.81a3,3,0,0,1-.785,1.962C24.721,35.315,24.328,35.315,23.936,35.315Z" fill="#006ce5"/>
</svg>
