<svg id="Group_26952" data-name="Group 26952" xmlns="http://www.w3.org/2000/svg" width="34.388" height="34.388" viewBox="0 0 34.388 34.388">
  <path id="Path_82379" data-name="Path 82379" d="M31.522,0H2.866A2.875,2.875,0,0,0,0,2.866V25.791a2.875,2.875,0,0,0,2.866,2.866h12.9v2.865h-4.3A2.865,2.865,0,0,0,8.6,34.388l17.194,0a2.867,2.867,0,0,0-2.866-2.865h-4.3V28.657h12.9a2.875,2.875,0,0,0,2.866-2.866V2.866A2.875,2.875,0,0,0,31.522,0ZM11.673,17.824l-1.52,1.519-4-4a1.433,1.433,0,0,1,0-2.026l4-4,1.519,1.519-3.5,3.5Zm5.19,2.952h-2.2l2.867-12.9h2.2Zm11.374-5.435-4,4-1.519-1.519,3.5-3.5-3.5-3.5,1.519-1.519,4,4A1.433,1.433,0,0,1,28.237,15.341Z" fill="#006ce5"/>
</svg>
