<svg xmlns="http://www.w3.org/2000/svg" width="121.366" height="109.78" viewBox="0 0 121.366 109.78">
  <g id="Group_26988" data-name="Group 26988" transform="translate(-1516 -2296)">
    <g id="Group_26987" data-name="Group 26987" transform="translate(1521 2297.61)">
      <g id="Path_82405" data-name="Path 82405" transform="translate(0)" fill="none" stroke-linecap="round" stroke-linejoin="round">
        <path d="M92.081,30.945A16.632,16.632,0,0,0,75.557,15.976a16.421,16.421,0,0,0-8.373,2.273A26.829,26.829,0,0,0,44.1,4.39,26.782,26.782,0,0,0,17.559,31.168,19.914,19.914,0,0,0,20.925,70.71h2.136a1.709,1.709,0,1,0,0-3.418H20.925A16.489,16.489,0,0,1,19.438,34.38a1.773,1.773,0,0,0,1.555-1.828c-.017-.393-.034-.786-.034-1.179A23.362,23.362,0,0,1,44.08,7.825a23.508,23.508,0,0,1,20.9,13.654,1.729,1.729,0,0,0,1.145.923,1.673,1.673,0,0,0,1.435-.308,12.953,12.953,0,0,1,7.963-2.7A13.2,13.2,0,0,1,88.715,32.586a1.714,1.714,0,0,0,1.709,1.709,16.507,16.507,0,1,1,0,33.015H88.356a1.709,1.709,0,0,0,0,3.418h2.068a19.925,19.925,0,0,0,1.658-39.782Z" stroke="none"/>
        <path d="M 44.09693145751953 4.389991760253906 C 53.52973175048828 4.389991760253906 62.39859771728516 9.772842407226562 67.183349609375 18.24869155883789 C 69.71243286132812 16.76200866699219 72.56620025634766 15.97592544555664 75.55666351318359 15.97592544555664 C 84.15213012695312 15.97592544555664 91.26091766357422 22.55495834350586 92.08114624023438 30.94535827636719 C 102.3000183105469 31.78269195556641 110.3657302856445 40.36107635498047 110.3657302856445 50.80209350585938 C 110.3657302856445 61.77284240722656 101.4284973144531 70.71007537841797 90.42356872558594 70.72714233398438 L 88.35586547851562 70.72714233398438 C 87.416015625 70.72714233398438 86.64703369140625 69.95817565917969 86.64703369140625 69.018310546875 C 86.64703369140625 68.07843780517578 87.416015625 67.30947113037109 88.35586547851562 67.30947113037109 L 90.42356872558594 67.30947113037109 C 99.53168487548828 67.30947113037109 106.9309616088867 59.91019058227539 106.9309616088867 50.80207443237305 C 106.9309616088867 41.69397354125977 99.51460266113281 34.29469299316406 90.42356872558594 34.29469299316406 C 89.48369598388672 34.29469299316406 88.71472930908203 33.52570724487305 88.71472930908203 32.58584213256836 C 88.71472930908203 25.30619049072266 82.80214691162109 19.39360809326172 75.52247619628906 19.39360809326172 C 72.64198303222656 19.38325500488281 69.839599609375 20.33311080932617 67.55929565429688 22.09357452392578 C 67.14916229248047 22.41825485229492 66.61940765380859 22.52078247070312 66.12387084960938 22.40115737915039 C 65.62831115722656 22.28153991699219 65.20109558105469 21.93977355957031 64.97894287109375 21.47838973999023 C 61.03153228759766 13.19052505493164 52.82909774780273 7.824760437011719 44.07984924316406 7.824760437011719 C 31.33190155029297 7.824760437011719 20.95925140380859 18.38539123535156 20.95925140380859 31.37257385253906 C 20.95925140380859 31.76560974121094 20.97633361816406 32.15864181518555 20.99341583251953 32.55167388916016 C 21.02759552001953 33.45735931396484 20.34406280517578 34.29469299316406 19.43838500976562 34.38012313842773 C 11.01380157470703 35.11494064331055 4.417678833007812 42.32624053955078 4.417678833007812 50.80209350585938 C 4.417678833007812 59.89310836791992 11.81694793701172 67.29238891601562 20.92506408691406 67.29238891601562 L 23.06111145019531 67.29238891601562 C 24.00098419189453 67.29238891601562 24.76996612548828 68.06135559082031 24.76996612548828 69.001220703125 C 24.76996612548828 69.94109344482422 24.00098419189453 70.71007537841797 23.06111145019531 70.71007537841797 L 20.92506408691406 70.71007537841797 C 9.937232971191406 70.71007537841797 1 61.77284240722656 1 50.80209350585938 C 1 41.11295700073242 8.1600341796875 32.77382278442383 17.55864715576172 31.16752624511719 C 17.66117858886719 16.38605880737305 29.52051544189453 4.389991760253906 44.09693145751953 4.389991760253906 Z" stroke="none" fill="#031342"/>
      </g>
      <g id="Path_82406" data-name="Path 82406" transform="translate(9.615 18.543)" fill="none" stroke-linecap="round" stroke-linejoin="round">
        <path d="M42.769,53.722H37.848V32.259a1.714,1.714,0,0,0-1.709-1.709H22.9a1.714,1.714,0,0,0-1.709,1.709V53.722H16.265a1.681,1.681,0,0,0-1.5.906,1.753,1.753,0,0,0,.085,1.76L28.09,76.244a1.723,1.723,0,0,0,1.418.769,1.7,1.7,0,0,0,1.418-.769L44.171,56.388a1.753,1.753,0,0,0,.085-1.76,1.656,1.656,0,0,0-1.487-.906ZM29.526,72.212,19.478,57.14h3.435a1.714,1.714,0,0,0,1.709-1.709V33.968h9.826V55.431a1.714,1.714,0,0,0,1.709,1.709h3.435ZM64.044,37.932a1.76,1.76,0,0,0-2.837,0L47.964,57.789a1.753,1.753,0,0,0-.085,1.76,1.681,1.681,0,0,0,1.5.906H54.3V81.918a1.714,1.714,0,0,0,1.709,1.709H69.256a1.714,1.714,0,0,0,1.709-1.709V60.455h4.921a1.681,1.681,0,0,0,1.5-.906,1.753,1.753,0,0,0-.085-1.76Zm5.195,19.1a1.714,1.714,0,0,0-1.709,1.709V80.209H57.7V58.746A1.714,1.714,0,0,0,56,57.037H52.561L62.609,41.965,72.657,57.037Z" stroke="none"/>
        <path d="M 22.89557647705078 30.55000305175781 L 36.13909912109375 30.55000305175781 C 37.07895660400391 30.55000305175781 37.84793472290039 31.31897735595703 37.84793472290039 32.25883483886719 L 37.84793472290039 53.72185897827148 L 42.76940155029297 53.72185897827148 L 42.76939010620117 53.72185897827148 C 43.40165710449219 53.72185897827148 43.965576171875 54.06363677978516 44.25608825683594 54.62754821777344 C 44.54658889770508 55.19146728515625 44.51241302490234 55.85790252685547 44.1706428527832 56.38765716552734 L 30.92713165283203 76.244384765625 C 30.61954498291016 76.72285461425781 30.07271194458008 77.01335144042969 29.5088005065918 77.01335144042969 C 28.94487762451172 77.01335144042969 28.41514587402344 76.72283935546875 28.0904541015625 76.244384765625 L 14.84695434570312 56.38765716552734 C 14.50518035888672 55.85791397094727 14.47100830078125 55.19146728515625 14.76149749755859 54.62754821777344 C 15.05200958251953 54.06363677978516 15.63302612304688 53.72185897827148 16.26528930664062 53.72185897827148 L 21.18674468994141 53.72185897827148 L 21.18674468994141 32.25883483886719 C 21.18674468994141 31.31897735595703 21.95571899414062 30.55000305175781 22.89557647705078 30.55000305175781 Z M 29.5258903503418 72.21151733398438 L 39.59095764160156 57.13954544067383 L 36.15618896484375 57.13954544067383 C 35.21632385253906 57.13954544067383 34.44734573364258 56.37056732177734 34.44734573364258 55.43070220947266 L 34.44734573364258 33.96768188476562 L 24.62151336669922 33.96768188476562 L 24.62151336669922 55.43070220947266 C 24.62151336669922 56.37056732177734 23.85253143310547 57.13954544067383 22.91268157958984 57.13954544067383 L 19.47789764404297 57.13954544067383 L 29.5258903503418 72.21151733398438 Z M 62.62610626220703 37.21446990966797 C 63.17720794677734 37.21446990966797 63.72830963134766 37.45370483398438 64.04444885253906 37.93218231201172 L 77.30504608154297 57.78891372680664 C 77.64681243896484 58.31864547729492 77.68099212646484 58.98510360717773 77.39048767089844 59.54901123046875 C 77.0999755859375 60.11292266845703 76.51898193359375 60.45468902587891 75.88671112060547 60.45468902587891 L 70.96524047851562 60.45468902587891 L 70.96524047851562 81.91770935058594 C 70.96524047851562 82.85756683349609 70.19626617431641 83.62655639648438 69.25640869140625 83.62655639648438 L 56.01291275024414 83.62655639648438 C 55.07304382324219 83.62655639648438 54.3040657043457 82.85756683349609 54.3040657043457 81.91770935058594 L 54.3040657043457 60.45468902587891 L 49.38261032104492 60.45468902587891 C 48.75033187866211 60.45468902587891 48.16933441162109 60.11291122436523 47.87883377075195 59.54900360107422 C 47.58832168579102 58.98509216308594 47.62250137329102 58.31864547729492 47.96426773071289 57.78890228271484 L 61.20776748657227 37.93218231201172 C 61.52390289306641 37.45370483398438 62.07500457763672 37.21446990966797 62.62610626220703 37.21446990966797 Z M 72.65699005126953 57.03701400756836 L 62.60902404785156 41.96504974365234 L 52.56104278564453 57.03701400756836 L 55.99581146240234 57.03701400756836 C 56.93566513061523 57.03701400756836 57.70464324951172 57.80599212646484 57.70464324951172 58.74585723876953 L 57.70464324951172 80.20887756347656 L 67.53046417236328 80.20887756347656 L 67.53046417236328 58.74585723876953 C 67.53046417236328 57.80599212646484 68.29945373535156 57.03701400756836 69.23931121826172 57.03701400756836 L 72.65699005126953 57.03701400756836 Z M 42.76939010620117 53.72185897827148 L 42.76940155029297 53.72185897827148 L 42.76939010620117 53.72185897827148 Z M 42.76940155029297 53.72185897827148 L 42.76939010620117 53.72185897827148 Z" stroke="none" fill="#031342"/>
      </g>
    </g>
    <g id="Group_26986" data-name="Group 26986" transform="translate(1521 2297.61)">
      <path id="Path_82405-2" data-name="Path 82405" d="M92.081,30.945A16.632,16.632,0,0,0,75.557,15.976a16.421,16.421,0,0,0-8.373,2.273A26.829,26.829,0,0,0,44.1,4.39,26.782,26.782,0,0,0,17.559,31.168,19.914,19.914,0,0,0,20.925,70.71h2.136a1.709,1.709,0,1,0,0-3.418H20.925A16.489,16.489,0,0,1,19.438,34.38a1.773,1.773,0,0,0,1.555-1.828c-.017-.393-.034-.786-.034-1.179A23.362,23.362,0,0,1,44.08,7.825a23.508,23.508,0,0,1,20.9,13.654,1.729,1.729,0,0,0,1.145.923,1.673,1.673,0,0,0,1.435-.308,12.953,12.953,0,0,1,7.963-2.7A13.2,13.2,0,0,1,88.715,32.586a1.714,1.714,0,0,0,1.709,1.709,16.507,16.507,0,1,1,0,33.015H88.356a1.709,1.709,0,0,0,0,3.418h2.068a19.925,19.925,0,0,0,1.658-39.782Z" transform="translate(0)" fill="#00cb82"/>
      <path id="Path_82406-2" data-name="Path 82406" d="M42.769,53.722H37.848V32.259a1.714,1.714,0,0,0-1.709-1.709H22.9a1.714,1.714,0,0,0-1.709,1.709V53.722H16.265a1.681,1.681,0,0,0-1.5.906,1.753,1.753,0,0,0,.085,1.76L28.09,76.244a1.723,1.723,0,0,0,1.418.769,1.7,1.7,0,0,0,1.418-.769L44.171,56.388a1.753,1.753,0,0,0,.085-1.76,1.656,1.656,0,0,0-1.487-.906ZM29.526,72.212,19.478,57.14h3.435a1.714,1.714,0,0,0,1.709-1.709V33.968h9.826V55.431a1.714,1.714,0,0,0,1.709,1.709h3.435ZM64.044,37.932a1.76,1.76,0,0,0-2.837,0L47.964,57.789a1.753,1.753,0,0,0-.085,1.76,1.681,1.681,0,0,0,1.5.906H54.3V81.918a1.714,1.714,0,0,0,1.709,1.709H69.256a1.714,1.714,0,0,0,1.709-1.709V60.455h4.921a1.681,1.681,0,0,0,1.5-.906,1.753,1.753,0,0,0-.085-1.76Zm5.195,19.1a1.714,1.714,0,0,0-1.709,1.709V80.209H57.7V58.746A1.714,1.714,0,0,0,56,57.037H52.561L62.609,41.965,72.657,57.037Z" transform="translate(9.615 18.543)" fill="#00cb82"/>
    </g>
  </g>
</svg>
