<svg id="Group_25918" data-name="Group 25918" xmlns="http://www.w3.org/2000/svg" width="49.655" height="48" viewBox="0 0 49.655 48">
  <g id="Group_25917" data-name="Group 25917">
    <circle id="Ellipse_837" data-name="Ellipse 837" cx="4.138" cy="4.138" r="4.138" transform="translate(20.69)" fill="#fff"/>
    <circle id="Ellipse_838" data-name="Ellipse 838" cx="4.138" cy="4.138" r="4.138" transform="translate(20.69)" fill="#fff"/>
    <path id="Path_79952" data-name="Path 79952" d="M15.088,14.088A4.126,4.126,0,1,1,16.3,11.163,4.138,4.138,0,0,1,15.088,14.088Z" transform="translate(-1.383 -1.211)" fill="#fff"/>
    <path id="Path_79953" data-name="Path 79953" d="M15.088,14.088A4.126,4.126,0,1,1,16.3,11.163,4.138,4.138,0,0,1,15.088,14.088Z" transform="translate(-1.383 -1.211)" fill="#fff"/>
    <circle id="Ellipse_839" data-name="Ellipse 839" cx="4.138" cy="4.138" r="4.138" transform="translate(0 19.862)" fill="#fff"/>
    <circle id="Ellipse_840" data-name="Ellipse 840" cx="4.138" cy="4.138" r="4.138" transform="translate(0 19.862)" fill="#fff"/>
    <path id="Path_79954" data-name="Path 79954" d="M15.088,48.038a4.138,4.138,0,1,1,0-5.852,4.138,4.138,0,0,1,0,5.852Z" transform="translate(-1.383 -7.065)" fill="#fff"/>
    <path id="Path_79955" data-name="Path 79955" d="M15.088,48.038a4.138,4.138,0,1,1,0-5.852,4.138,4.138,0,0,1,0,5.852Z" transform="translate(-1.383 -7.065)" fill="#fff"/>
    <circle id="Ellipse_841" data-name="Ellipse 841" cx="4.138" cy="4.138" r="4.138" transform="translate(20.69 39.724)" fill="#fff"/>
    <circle id="Ellipse_842" data-name="Ellipse 842" cx="4.138" cy="4.138" r="4.138" transform="translate(20.69 39.724)" fill="#fff"/>
    <path id="Path_79956" data-name="Path 79956" d="M49.038,48.038a4.138,4.138,0,1,1,0-5.852,4.138,4.138,0,0,1,0,5.852Z" transform="translate(-7.237 -7.065)" fill="#fff"/>
    <path id="Path_79957" data-name="Path 79957" d="M49.038,48.038a4.138,4.138,0,1,1,0-5.852,4.138,4.138,0,0,1,0,5.852Z" transform="translate(-7.237 -7.065)" fill="#fff"/>
    <circle id="Ellipse_843" data-name="Ellipse 843" cx="4.138" cy="4.138" r="4.138" transform="translate(41.379 19.862)" fill="#fff"/>
    <circle id="Ellipse_844" data-name="Ellipse 844" cx="4.138" cy="4.138" r="4.138" transform="translate(41.379 19.862)" fill="#fff"/>
    <path id="Path_79958" data-name="Path 79958" d="M49.038,14.088a4.126,4.126,0,1,1,1.217-2.926,4.138,4.138,0,0,1-1.217,2.926Z" transform="translate(-7.237 -1.211)" fill="#fff"/>
    <path id="Path_79959" data-name="Path 79959" d="M43.857,14.088a4.126,4.126,0,1,1,1.217-2.926,4.138,4.138,0,0,1-1.217,2.926ZM27.71,11.076v4.345a7.433,7.433,0,0,0-1.432-.141,2.017,2.017,0,0,0-.223.008V11.076a5.206,5.206,0,0,0,1.655,0Zm-7.034,6.753A7.655,7.655,0,0,0,19.7,19.2L16.306,15.81a5.929,5.929,0,0,0,1.175-1.175ZM14.3,24.384a6.19,6.19,0,0,0-.554,1.655H11.92a5.205,5.205,0,0,0,0-1.655Zm5.479,9.1-2.3,2.3a5.929,5.929,0,0,0-1.175-1.175l1.473-1.473a5.892,5.892,0,0,0,1.994.348Zm7.928,0v5.859a5.206,5.206,0,0,0-1.655,0V33.487Zm9.749,1.126a5.929,5.929,0,0,0-1.175,1.175L33.95,33.454a6.732,6.732,0,0,0,1.879-.472Zm4.32-9.4a4.545,4.545,0,0,0,.066.828H40.108a7.3,7.3,0,0,0-.29-1.655h2.028a4.545,4.545,0,0,0-.066.828Zm-3.327.828a5.379,5.379,0,0,0-5.181-4.932,5.056,5.056,0,0,0-1.324.174,5.285,5.285,0,0,0-.306-.811,5.379,5.379,0,0,0-.414-.778,5.884,5.884,0,0,0-4.312-2.714,4.055,4.055,0,0,0-.637-.041,1.017,1.017,0,0,0-.223.017A5.742,5.742,0,0,0,21.851,19a4.679,4.679,0,0,0-.513.7,6.041,6.041,0,0,0-.968,2.93,4.592,4.592,0,0,0-.6-.041A4.452,4.452,0,0,0,15.752,25.2a4.647,4.647,0,0,0,3.385,6.579,4.108,4.108,0,0,0,.637.05h13.5a2.017,2.017,0,0,0,.223-.008,4.235,4.235,0,0,0,1.018-.157,5.319,5.319,0,0,0,3.956-5.2C38.469,26.32,38.461,26.179,38.452,26.039ZM37.459,15.81l-3.666,3.666q-.261-.025-.521-.025c-.091,0-.182,0-.273.008a7,7,0,0,0-.588-.952l3.873-3.873a5.929,5.929,0,0,0,1.175,1.175Z" transform="translate(-2.055 -1.211)" fill="#fff"/>
  </g>
</svg>
