<svg xmlns="http://www.w3.org/2000/svg" width="74.326" height="73.802" viewBox="0 0 74.326 73.802">
  <g id="Group_10396" data-name="Group 10396" transform="translate(0.02 0.05)">
    <path id="Path_64952" data-name="Path 64952" d="M712.62,1796.72" transform="translate(-696.72 -1791.31)" fill="none" stroke="#fff" stroke-miterlimit="10" stroke-width="1.39"/>
    <path id="Path_64953" data-name="Path 64953" d="M709.17,1797.24" transform="translate(-696.72 -1791.31)" fill="none" stroke="#fff" stroke-miterlimit="10" stroke-width="1.39"/>
    <path id="Path_64954" data-name="Path 64954" d="M698.52,1810.69c.46-.38,29.44-5.28,29.44-5.28" transform="translate(-696.72 -1791.31)" fill="none" stroke="#fff" stroke-miterlimit="10" stroke-width="1.39"/>
    <line id="Line_240" data-name="Line 240" y1="5.1" x2="26.87" transform="translate(3.09 18.66)" fill="none" stroke="#fff" stroke-miterlimit="10" stroke-width="1.39"/>
    <path id="Path_64955" data-name="Path 64955" d="M762.2,1863.27" transform="translate(-696.72 -1791.31)" fill="none" stroke="#fff" stroke-miterlimit="10" stroke-width="0.69" opacity="0.74"/>
    <path id="Path_64956" data-name="Path 64956" d="M769.5,1861.54c-13,.24-19.4,0-27-1.39-6.51-1.25-13.85-6-18.76-10.5-15.88-14.43-15.23-35.38-15.23-35.38l-8.66,1.89,1.09,4.5,4.16,14.55,8.31,14.55,13.16,10.39,20.78,4.85,11.78-.69Z" transform="translate(-696.72 -1791.31)" fill="#dfdfdf"/>
    <line id="Line_241" data-name="Line 241" y1="1.65" x2="9.52" transform="translate(9.87 7.84)" fill="#fff" stroke="#fff" stroke-miterlimit="10" stroke-width="1.22"/>
    <path id="Path_64957" data-name="Path 64957" d="M706.37,1814" transform="translate(-696.72 -1791.31)" fill="none" stroke="#fff" stroke-miterlimit="10" stroke-width="1.39"/>
    <path id="Path_64958" data-name="Path 64958" d="M700,1815.59" transform="translate(-696.72 -1791.31)" fill="none" stroke="#fff" stroke-miterlimit="10" stroke-width="1.39"/>
    <path id="Path_64959" data-name="Path 64959" d="M712.11,1792.78c0,.76-1.39,1.63-2.16,1.59s-2.06-.31-2-1.08,1.37-1.33,2.14-1.29S712.14,1792,712.11,1792.78Z" transform="translate(-696.72 -1791.31)" fill="#fff"/>
    <path id="Path_64960" data-name="Path 64960" d="M712.19,1793.78l.22,2.85,3.51.82.24,2.44,5.56,1.74.72,1.35,5.7,2.67s-.36,3.8-1.29,4.56-3.86,28.11,12.45,40.08c0,0,9.31,8.37,30.65,10,0,0-1.61,3.28-19.75,4.07-19.18.3-33.79-9-39.63-18.16s-9.83-21.08-10.63-30.49c0,0-2.12-4.85-2.49-5.41s1.39-2.08,1.39-2.08l3.8-2.86s-.34-1.3,1.46-2a13.856,13.856,0,0,0,2.66-1.45l-.14-2.5,2.73-1.87-.46-2-.64-1.15a1.37,1.37,0,0,1,.18-1.6,2.22,2.22,0,0,1,2.6-.58A1.85,1.85,0,0,1,712.19,1793.78Z" transform="translate(-696.72 -1791.31)" fill="none" stroke="#fff" stroke-miterlimit="10" stroke-width="1.39"/>
    <path id="Path_64961" data-name="Path 64961" d="M723.45,1838.92" transform="translate(-696.72 -1791.31)" fill="none" stroke="#101038" stroke-miterlimit="10" stroke-width="0.9"/>
    <path id="Path_64962" data-name="Path 64962" d="M731.53,1850.43" transform="translate(-696.72 -1791.31)" fill="none" stroke="#101038" stroke-miterlimit="10" stroke-width="0.9"/>
    <path id="Path_64963" data-name="Path 64963" d="M741.8,1859.16" transform="translate(-696.72 -1791.31)" fill="none" stroke="#101038" stroke-miterlimit="10" stroke-width="0.9"/>
    <path id="Path_64964" data-name="Path 64964" d="M708.64,1814.54l-7.54,1.35s1.9,29.71,22,40.8c0,0,18.44,12.44,43.28,4.38" transform="translate(-696.72 -1791.31)" fill="none" stroke="#101038" stroke-miterlimit="10" stroke-width="0.9"/>
    <line id="Line_242" data-name="Line 242" y1="3.31" x2="19.33" transform="translate(5.94 10.8)" fill="none" stroke="#fff" stroke-miterlimit="10" stroke-width="0.8"/>
  </g>
</svg>
