<svg xmlns="http://www.w3.org/2000/svg" width="104.862" height="104.862" viewBox="0 0 104.862 104.862">
  <g id="Group_25877" data-name="Group 25877" transform="translate(-6.25 -6.25)">
    <path id="Path_79896" data-name="Path 79896" d="M69.259,211.228H60.788a6.179,6.179,0,0,0-4.369,1.81L53.6,215.853m15.655-23.786H60.788a6.179,6.179,0,0,1-4.369-1.81l-3-3m13.889,14.389h-18.4" transform="translate(-32.88 -142.736)" fill="none" stroke="#fff" stroke-linecap="round" stroke-linejoin="round" stroke-width="2.5"/>
    <circle id="Ellipse_821" data-name="Ellipse 821" cx="3.213" cy="3.213" r="3.213" transform="translate(14.812 72.603)" fill="none" stroke="#fff" stroke-linecap="round" stroke-linejoin="round" stroke-width="2.5"/>
    <circle id="Ellipse_822" data-name="Ellipse 822" cx="4.119" cy="4.119" r="4.119" transform="translate(7.5 54.793)" fill="none" stroke="#fff" stroke-linecap="round" stroke-linejoin="round" stroke-width="2.5"/>
    <circle id="Ellipse_823" data-name="Ellipse 823" cx="3.213" cy="3.213" r="3.213" transform="translate(14.812 38.795)" fill="none" stroke="#fff" stroke-linecap="round" stroke-linejoin="round" stroke-width="2.5"/>
    <path id="Path_79897" data-name="Path 79897" d="M363.873,191.681h8.556a6.179,6.179,0,0,0,4.369-1.81l3.1-3.1m-16.024,24.07h8.556a6.179,6.179,0,0,1,4.369,1.81l3.034,3.034m-13.815-14.424H383.93" transform="translate(-282.974 -142.349)" fill="none" stroke="#fff" stroke-linecap="round" stroke-linejoin="round" stroke-width="2.5"/>
    <circle id="Ellipse_824" data-name="Ellipse 824" cx="3.213" cy="3.213" r="3.213" transform="translate(96.124 38.795)" fill="none" stroke="#fff" stroke-linecap="round" stroke-linejoin="round" stroke-width="2.5"/>
    <circle id="Ellipse_825" data-name="Ellipse 825" cx="4.119" cy="4.119" r="4.119" transform="translate(101.624 54.793)" fill="none" stroke="#fff" stroke-linecap="round" stroke-linejoin="round" stroke-width="2.5"/>
    <circle id="Ellipse_826" data-name="Ellipse 826" cx="3.213" cy="3.213" r="3.213" transform="translate(96.124 72.603)" fill="none" stroke="#fff" stroke-linecap="round" stroke-linejoin="round" stroke-width="2.5"/>
    <path id="Path_79898" data-name="Path 79898" d="M209.708,366.046v8.339a6.179,6.179,0,0,0,1.81,4.369l3.1,3.1m-24.072-15.81v8.339a6.178,6.178,0,0,1-1.81,4.369l-3.1,3.1m14.492,4.189v-5.382m0-7.209v-5.687" transform="translate(-141.447 -284.7)" fill="none" stroke="#fff" stroke-linecap="round" stroke-linejoin="round" stroke-width="2.5"/>
    <circle id="Ellipse_827" data-name="Ellipse 827" cx="3.213" cy="3.213" r="3.213" transform="translate(72.372 96.355)" fill="none" stroke="#fff" stroke-linecap="round" stroke-linejoin="round" stroke-width="2.5"/>
    <circle id="Ellipse_828" data-name="Ellipse 828" cx="4.119" cy="4.119" r="4.119" transform="translate(54.562 101.624)" fill="none" stroke="#fff" stroke-linecap="round" stroke-linejoin="round" stroke-width="2.5"/>
    <circle id="Ellipse_829" data-name="Ellipse 829" cx="3.213" cy="3.213" r="3.213" transform="translate(38.564 96.355)" fill="none" stroke="#fff" stroke-linecap="round" stroke-linejoin="round" stroke-width="2.5"/>
    <path id="Path_79899" data-name="Path 79899" d="M191.209,69.849V61.338a6.179,6.179,0,0,0-1.81-4.369l-2.931-2.931m23.9,15.811V61.338a6.179,6.179,0,0,1,1.81-4.369l2.931-2.931m-14.321.794V49.31m0,18.254V62.04" transform="translate(-142.108 -33.199)" fill="none" stroke="#fff" stroke-linecap="round" stroke-linejoin="round" stroke-width="2.5"/>
    <circle id="Ellipse_830" data-name="Ellipse 830" cx="3.213" cy="3.213" r="3.213" transform="translate(38.564 15.043)" fill="none" stroke="#fff" stroke-linecap="round" stroke-linejoin="round" stroke-width="2.5"/>
    <circle id="Ellipse_831" data-name="Ellipse 831" cx="4.119" cy="4.119" r="4.119" transform="translate(54.562 7.5)" fill="none" stroke="#fff" stroke-linecap="round" stroke-linejoin="round" stroke-width="2.5"/>
    <circle id="Ellipse_832" data-name="Ellipse 832" cx="3.213" cy="3.213" r="3.213" transform="translate(72.372 15.043)" fill="none" stroke="#fff" stroke-linecap="round" stroke-linejoin="round" stroke-width="2.5"/>
    <path id="Path_79900" data-name="Path 79900" d="M163.939,141.19a23.878,23.878,0,1,0,23.879,23.877A23.878,23.878,0,0,0,163.939,141.19Z" transform="translate(-105.258 -106.155)" fill="none" stroke="#fff" stroke-linecap="round" stroke-linejoin="round" stroke-width="2.5"/>
    <path id="Path_79901" data-name="Path 79901" d="M182.69,186.613v-5.338a1.027,1.027,0,0,1,.515-.892l14.069-8.123a1.033,1.033,0,0,1,1.03,0l2.991,1.726m6.243,3.6,4.836,2.793a1.027,1.027,0,0,1,.515.892v16.246a1.027,1.027,0,0,1-.515.892L198.3,206.536a1.033,1.033,0,0,1-1.03,0L183.2,198.413a1.027,1.027,0,0,1-.515-.892v-3.7" transform="translate(-139.108 -130.717)" fill="none" stroke="#fff" stroke-linecap="round" stroke-linejoin="round" stroke-width="2.5"/>
    <path id="Path_79902" data-name="Path 79902" d="M185.243,163.616l14.573,8.414,14.5-8.373m-14.5,25.357V172.03m17.012-16.781,5-5" transform="translate(-141.135 -113.348)" fill="none" stroke="#fff" stroke-linecap="round" stroke-linejoin="round" stroke-width="2.5"/>
    <circle id="Ellipse_833" data-name="Ellipse 833" cx="4.119" cy="4.119" r="4.119" transform="translate(79.769 29.585)" fill="none" stroke="#fff" stroke-linecap="round" stroke-linejoin="round" stroke-width="2.5"/>
    <path id="Path_79903" data-name="Path 79903" d="M155.176,154.054l-5.019-5.019" transform="translate(-113.275 -112.384)" fill="none" stroke="#fff" stroke-linecap="round" stroke-linejoin="round" stroke-width="2.5"/>
    <circle id="Ellipse_834" data-name="Ellipse 834" cx="4.119" cy="4.119" r="4.119" transform="translate(29.585 29.354)" fill="none" stroke="#fff" stroke-linecap="round" stroke-linejoin="round" stroke-width="2.5"/>
    <path id="Path_79904" data-name="Path 79904" d="M153.967,339.881l-4.418,4.417" transform="translate(-112.793 -263.924)" fill="none" stroke="#fff" stroke-linecap="round" stroke-linejoin="round" stroke-width="2.5"/>
    <circle id="Ellipse_835" data-name="Ellipse 835" cx="4.119" cy="4.119" r="4.119" transform="translate(29.354 79.539)" fill="none" stroke="#fff" stroke-linecap="round" stroke-linejoin="round" stroke-width="2.5"/>
    <path id="Path_79905" data-name="Path 79905" d="M339.532,340.654l4.674,4.674" transform="translate(-263.647 -264.537)" fill="none" stroke="#fff" stroke-linecap="round" stroke-linejoin="round" stroke-width="2.5"/>
    <circle id="Ellipse_836" data-name="Ellipse 836" cx="4.119" cy="4.119" r="4.119" transform="translate(79.539 79.769)" fill="none" stroke="#fff" stroke-linecap="round" stroke-linejoin="round" stroke-width="2.5"/>
  </g>
</svg>
