<svg id="icon-build_and_iterate" data-name="icon-build and iterate" xmlns="http://www.w3.org/2000/svg" width="52.193" height="52.163" viewBox="0 0 52.193 52.163">
  <path id="Path_65623" data-name="Path 65623" d="M1667.614,226.138a15.337,15.337,0,0,1,4.4-1.905c.135-.035.284-.319.291-.493.031-.8.008-1.592.016-2.389.008-.78.293-1.071,1.059-1.074q1.905-.009,3.811,0c.761,0,1.065.308,1.073,1.073.009.8.012,1.593,0,2.389-.005.3.078.43.4.553,1.337.514,2.656,1.079,3.966,1.661.273.121.423.128.63-.09.547-.578,1.113-1.139,1.679-1.7a.918.918,0,0,1,1.516-.018q1.371,1.364,2.725,2.745a.878.878,0,0,1-.011,1.468c-.656.657-1.334,1.292-1.911,1.848l2.042,4.936c.717,0,1.6,0,2.485,0,.974,0,1.2.229,1.2,1.206,0,1.232.005,2.465,0,3.7,0,.776-.289,1.056-1.067,1.06-.909.005-1.818,0-2.632,0l-2.027,4.951c.5.478,1.169,1.091,1.814,1.726.667.658.662,1.011.008,1.673q-1.259,1.275-2.525,2.543c-.661.663-1.024.664-1.676.016-.631-.627-1.264-1.253-1.815-1.8l-4.792,2.01c0,.745,0,1.652,0,2.559,0,.885-.282,1.18-1.143,1.186q-1.849.012-3.7,0c-.819-.006-1.1-.287-1.1-1.1-.007-.926,0-1.853,0-2.647l-4.8-2.009c-.538.531-1.185,1.168-1.83,1.807s-1.009.638-1.633.011q-1.325-1.33-2.642-2.668a.894.894,0,0,1,.014-1.505c.659-.651,1.337-1.283,2.014-1.931a15.561,15.561,0,0,1-1.946-4.564c-.028-.118-.3-.247-.462-.252-.814-.026-1.63-.005-2.446-.014-.7-.008-1.008-.311-1.013-1.008q-.014-1.991,0-3.982c.006-.664.314-.96.988-.97.815-.011,1.632.014,2.446-.017.174-.007.463-.158.5-.292a15.474,15.474,0,0,1,1.925-4.511c-.652-.63-1.31-1.254-1.953-1.892-.624-.619-.618-1,0-1.632q1.3-1.315,2.6-2.625a.931.931,0,0,1,1.557-.007C1666.282,224.808,1666.923,225.45,1667.614,226.138Zm7.669,19.1a7.122,7.122,0,1,0-7.069-7.1A7.117,7.117,0,0,0,1675.283,245.234Z" transform="translate(-1648.986 -212.066)" fill="#006ce5"/>
  <path id="Path_65624" data-name="Path 65624" d="M1584.726,282.313c-.484.24-.864.44-1.253.617a.846.846,0,1,1-.765-1.5q1.581-.837,3.179-1.64a.837.837,0,0,1,1.253.462q.749,1.655,1.47,3.323a.871.871,0,0,1-.369,1.258c-.472.2-.914-.008-1.181-.572-.2-.427-.392-.861-.59-1.29-.014-.031-.055-.05-.1-.089a20.542,20.542,0,0,0-1.68,10.8,24.046,24.046,0,0,0,8.059,15.041,23.516,23.516,0,0,0,16.475,5.983,3.558,3.558,0,0,1,.4,0,.835.835,0,0,1,.837.887.788.788,0,0,1-.858.793,37.655,37.655,0,0,1-4.141-.168,25.364,25.364,0,0,1-17.351-9.982,25.922,25.922,0,0,1-5.123-12.461,21.4,21.4,0,0,1,1.454-10.628C1584.529,282.9,1584.608,282.656,1584.726,282.313Z" transform="translate(-1582.181 -264.696)" fill="#006ce5"/>
  <path id="Path_65625" data-name="Path 65625" d="M1674.146,159.748c-.9-.942-1.748-1.934-2.7-2.816a25.376,25.376,0,0,0-14.366-6.888c-8.215-.993-15.181,1.658-20.844,7.7-.388.414-.737.866-1.1,1.3-.434.52-.9.619-1.321.278a.867.867,0,0,1-.028-1.308,24.688,24.688,0,0,1,15.187-9.37c10.133-1.857,18.5,1.6,25.469,8.91.14.147.274.3.535.589,0-.439-.015-.728,0-1.015a.845.845,0,1,1,1.685.032q.048,1.762.07,3.524a.9.9,0,0,1-.951.971q-1.848-.005-3.695-.028c-.681-.008-1.045-.316-1.033-.857.011-.516.363-.816,1.013-.83s1.319,0,1.979,0Z" transform="translate(-1627.664 -148.151)" fill="#006ce5"/>
  <path id="Path_65626" data-name="Path 65626" d="M1866.406,322.8c.477.219.905.405,1.323.611a.857.857,0,0,1,.491,1.166.845.845,0,0,1-1.164.385q-1.67-.713-3.321-1.471a.848.848,0,0,1-.359-1.291q.956-1.513,1.944-3.005a.844.844,0,0,1,1.221-.323.862.862,0,0,1,.2,1.251c-.143.243-.3.479-.525.833a5.343,5.343,0,0,0,.53-.18c7.366-3.563,12.366-9.141,14.4-17.152a22.374,22.374,0,0,0-.744-12.866c-.067-.2-.145-.39-.209-.588a.875.875,0,0,1,.476-1.215.853.853,0,0,1,1.124.674,39.578,39.578,0,0,1,1.128,3.981c1.636,8.427-.733,15.729-6.37,22.054a27.044,27.044,0,0,1-9.686,6.906C1866.73,322.632,1866.6,322.707,1866.406,322.8Z" transform="translate(-1831.238 -272.894)" fill="#006ce5"/>
  <path id="Path_65627" data-name="Path 65627" d="M1776.523,334.7a5.4,5.4,0,1,1-5.382-5.462A5.447,5.447,0,0,1,1776.523,334.7Z" transform="translate(-1744.834 -308.63)" fill="#006ce5"/>
</svg>
