<svg xmlns="http://www.w3.org/2000/svg" width="74.257" height="51.12" viewBox="0 0 74.257 51.12">
  <g id="Group_23896" data-name="Group 23896" transform="translate(-5276.444 -143.519)">
    <path id="Path_78256" data-name="Path 78256" d="M5287.437,237.462c2.144,3.124,2.057,6.259-.185,8.591a6.343,6.343,0,0,1-7.988.895,6.128,6.128,0,0,1-2.389-7.41,6.256,6.256,0,0,1,7.157-3.77.983.983,0,0,0,1.2-.421q3.768-5.059,7.589-10.077a.821.821,0,0,0,.063-1.106,6.1,6.1,0,0,1,.943-7.722,6.228,6.228,0,0,1,10.251,6.431.753.753,0,0,0,.278.991c1.371,1.046,2.706,2.139,4.081,3.179a.958.958,0,0,0,.828.16,6.284,6.284,0,0,1,6.649-.376q3.669-4.065,7.308-8.1c1.115-1.236,2.208-2.492,3.351-3.7a1.152,1.152,0,0,0,.26-1.42,6.443,6.443,0,1,1,12.313-3.646,6.094,6.094,0,0,1-2.318,6.379,6.442,6.442,0,0,1-6.922.8c-.249-.105-.479-.255-.784-.42q-2,2.275-4,4.558-3.14,3.586-6.279,7.172c-.289.329-.477.565-.225,1.081a6.145,6.145,0,0,1-1.43,7.514,6.224,6.224,0,0,1-7.346.6,6.325,6.325,0,0,1-2.814-7.07,1.061,1.061,0,0,0-.447-1.346c-1.33-1-2.628-2.042-3.911-3.1a.875.875,0,0,0-1.247-.092,5.8,5.8,0,0,1-5.132.614,1,1,0,0,0-.883.2C5292.735,230.359,5290.1,233.9,5287.437,237.462Z" transform="translate(0 -53.326)" fill="#006ce5"/>
    <path id="Path_78257" data-name="Path 78257" d="M5614.088,171.5l1.867-2.012a41.935,41.935,0,0,0,5.6,1.669,12.466,12.466,0,0,0,13.775-10.028,12.474,12.474,0,1,0-24.733-3.073,2.618,2.618,0,0,0-.011.993c.731,2.242-.967,3.3-2.17,4.645-1.938-4.347-1.065-12.828,6-17.625a15.866,15.866,0,0,1,20.448,2.755,15.477,15.477,0,0,1-20.781,22.676Z" transform="translate(-287.989)" fill="#006ce5"/>
    <path id="Path_78258" data-name="Path 78258" d="M5738.918,374.821a19.084,19.084,0,0,0,10.556-4.347c1.035,2.612,2.149,5.089,3,7.655a5.494,5.494,0,0,1-3.139,6.44c-2.491,1.146-5.647.444-6.95-1.923C5741.026,380.184,5740.08,377.5,5738.918,374.821Z" transform="translate(-402.284 -197.417)" fill="#006ce5"/>
  </g>
</svg>
