<svg xmlns="http://www.w3.org/2000/svg" width="48.001" height="59.828" viewBox="0 0 48.001 59.828">
  <g id="Group_23868" data-name="Group 23868" transform="translate(85.574 -78.143)">
    <path id="Path_78177" data-name="Path 78177" d="M-64.1,84.124c-.972.165-1.715.261-2.444.418a24.016,24.016,0,0,0-15.089,36.637,23.616,23.616,0,0,0,7.973,7.574,2.287,2.287,0,0,0,3.28-.789c.752-1.248.326-2.538-1.087-3.41A18.783,18.783,0,0,1-80.8,109.727a19.176,19.176,0,0,1,12.05-19.578c1.277-.506,2.629-.822,3.946-1.226l.113.225c-.486.476-.982.942-1.457,1.43a2.348,2.348,0,0,0-.1,3.339,2.288,2.288,0,0,0,3.375-.054q2.882-2.852,5.735-5.733a2.334,2.334,0,0,0,.019-3.487q-2.852-2.882-5.735-5.734a2.335,2.335,0,0,0-3.388-.077,2.349,2.349,0,0,0,.134,3.385C-65.5,82.828-64.86,83.407-64.1,84.124Zm5.793,43.077-.2-.323c.536-.482,1.1-.934,1.6-1.453a2.321,2.321,0,0,0-.007-3.288,2.317,2.317,0,0,0-3.29.041q-2.959,2.916-5.875,5.876a2.286,2.286,0,0,0-.022,3.289c1.954,1.994,3.934,3.962,5.92,5.924a2.168,2.168,0,0,0,2.13.636,2.316,2.316,0,0,0,1.177-3.872c-.658-.709-1.4-1.342-2.224-2.126.857-.141,1.506-.23,2.147-.356A23.948,23.948,0,0,0-41.106,95.554a23.991,23.991,0,0,0-8.271-8.2,2.376,2.376,0,0,0-3.646,1.5A2.513,2.513,0,0,0-51.6,91.531a18.885,18.885,0,0,1,9.269,14.8,19.163,19.163,0,0,1-11.546,19.381C-55.3,126.326-56.83,126.711-58.311,127.2Zm-5.68-17.019-.289-.015a3.41,3.41,0,0,0-.365-.557c-1.111-1.144-2.222-2.288-3.356-3.408a2.35,2.35,0,0,0-3.341-.039,2.342,2.342,0,0,0,.04,3.292q2.749,2.794,5.543,5.544a2.213,2.213,0,0,0,3.318.025q5.381-5.33,10.713-10.709a2.191,2.191,0,0,0,.621-2.015,2.144,2.144,0,0,0-1.5-1.782,2.323,2.323,0,0,0-2.5.614q-4.24,4.216-8.478,8.435A3.506,3.506,0,0,0-63.991,110.182Z" transform="translate(0 0)" fill="#006ce5"/>
    <path id="Path_78178" data-name="Path 78178" d="M-64.1,84.124c-.756-.717-1.394-1.3-2-1.906a2.349,2.349,0,0,1-.134-3.385,2.335,2.335,0,0,1,3.388.077q2.882,2.852,5.735,5.734a2.334,2.334,0,0,1-.019,3.487q-2.854,2.88-5.735,5.733a2.288,2.288,0,0,1-3.375.054,2.348,2.348,0,0,1,.1-3.339c.475-.488.971-.954,1.457-1.43l-.113-.225c-1.317.4-2.67.72-3.946,1.226A19.176,19.176,0,0,0-80.8,109.727a18.783,18.783,0,0,0,9.329,14.826c1.413.872,1.839,2.162,1.087,3.41a2.287,2.287,0,0,1-3.28.789,23.616,23.616,0,0,1-7.973-7.574A24.016,24.016,0,0,1-66.548,84.542C-65.819,84.385-65.076,84.288-64.1,84.124Z" transform="translate(0)" fill="#006ce5"/>
    <path id="Path_78179" data-name="Path 78179" d="M64.136,184.742c1.481-.49,3.006-.875,4.434-1.487a19.163,19.163,0,0,0,11.546-19.381,18.885,18.885,0,0,0-9.269-14.8,2.513,2.513,0,0,1-1.423-2.676,2.376,2.376,0,0,1,3.646-1.5,24.014,24.014,0,0,1-7.578,44.195c-.641.126-1.29.215-2.147.356.826.784,1.566,1.417,2.224,2.126a2.316,2.316,0,0,1-1.177,3.872,2.168,2.168,0,0,1-2.13-.636c-1.986-1.962-3.967-3.93-5.92-5.924a2.285,2.285,0,0,1,.022-3.289q2.915-2.96,5.875-5.876a2.314,2.314,0,1,1,3.3,3.247c-.5.519-1.066.971-1.6,1.453Z" transform="translate(-122.447 -57.541)" fill="#006ce5"/>
    <path id="Path_78180" data-name="Path 78180" d="M24.521,255.18a3.505,3.505,0,0,1,.4-.616q4.231-4.225,8.478-8.435a2.323,2.323,0,0,1,2.5-.614,2.144,2.144,0,0,1,1.5,1.782,2.191,2.191,0,0,1-.621,2.015q-5.345,5.366-10.713,10.709A2.213,2.213,0,0,1,22.754,260q-2.793-2.75-5.543-5.544a2.318,2.318,0,1,1,3.3-3.253c1.134,1.12,2.245,2.264,3.356,3.408a3.411,3.411,0,0,1,.365.557Z" transform="translate(-88.512 -144.998)" fill="#006ce5"/>
  </g>
</svg>
