<svg id="Group_26966" data-name="Group 26966" xmlns="http://www.w3.org/2000/svg" xmlns:xlink="http://www.w3.org/1999/xlink" width="51.173" height="92.631" viewBox="0 0 51.173 92.631">
  <defs>
    <clipPath id="clip-path">
      <rect id="Rectangle_9245" data-name="Rectangle 9245" width="51.173" height="92.63" fill="none"/>
    </clipPath>
  </defs>
  <g id="Mask_Group_26699" data-name="Mask Group 26699" clip-path="url(#clip-path)">
    <path id="Path_82089" data-name="Path 82089" d="M1.332,2.835h0a.869.869,0,0,0,.109.017q2.779,0,5.559.007c.162,0,.184-.057.183-.187-.007-.62-.01-1.24,0-1.859C7.187.24,7.46,0,8.08,0L31.968,0h11.8c.55,0,.841.258.844.759,0,.633.01,1.266,0,1.9,0,.169.057.194.219.194,1.374,0,2.747,0,4.121,0h2.218V92.63H.043C.028,92.447,0,92.264,0,92.081c0-1.154,0-2.308,0-3.462V2.828ZM16.326,4.207H9.2q-3.67,0-7.341-.006c-.183,0-.243.056-.23.217.011.138,0,.277,0,.415q0,31.346,0,62.692,0,11.761,0,23.522c0,.15.03.208.211.2.629-.011,1.259,0,1.889,0l12.364,0c.271,0,.263,0,.244-.257-.017-.23-.021-.461-.021-.692q0-42.118,0-84.236c0-.475.008-.949.012-1.424,0-.136,0-.272,0-.428M49.734,47.723q0-17.785,0-35.57,0-3.9.009-7.794c0-.151-.072-.152-.2-.152q-2.3,0-4.593,0-4.636,0-9.273-.007c-.156,0-.214.039-.21.191.011.376,0,.752,0,1.127q0,26.816,0,53.632,0,15.9,0,31.791c0,.317-.064.3.332.3q6.836,0,13.673,0c.187,0,.267-.029.258-.223-.017-.369-.005-.738-.005-1.108q0-21.1,0-42.2M34,91.246V3.686c0-.066,0-.132,0-.2a.7.7,0,0,1,.689-.638c.107-.005.215,0,.322,0q3.96,0,7.92.007c.162,0,.229-.029.221-.2-.016-.322-.006-.646-.007-.969q0-.162,0-.324c-.072-.005-.1-.009-.128-.009H10.373c-.5,0-1,0-1.5-.008-.169,0-.222.043-.215.2.014.356.016.712,0,1.068-.009.181.038.235.244.234q4-.011,8.006-.005.911,0,.91.839,0,17.9,0,35.8,0,25.765,0,51.531c0,.169.039.227.235.227q7.727-.008,15.454-.005H34" transform="translate(0.001 0)" fill="#006ce5" stroke="#fff" stroke-width="0.2"/>
    <path id="Path_82090" data-name="Path 82090" d="M41.05,85c0,.652,0,4.316,0,4.968,0,.61-.263.853-.918.854H36.1c-.608,0-.886-.246-.887-.8,0-1.344,0-5.7,0-7.044,0-.578.281-.822.915-.822h4.032c.6,0,.88.253.885.809.006.678,0,1.357,0,2.036ZM39.576,89.46c0-.83,0-4.644,0-5.447,0-.486,0-.486-.516-.487H36.714V89.46Z" transform="translate(-29.144 -69.133)" fill="#006ce5" stroke="#fff" stroke-width="0.4"/>
    <path id="Path_82091" data-name="Path 82091" d="M41.05,155.257c0,.652,0,4.316,0,4.968,0,.61-.263.853-.918.854H36.1c-.608,0-.886-.246-.887-.8,0-1.344,0-5.7,0-7.044,0-.578.281-.822.915-.822h4.032c.6,0,.88.253.885.809.006.678,0,1.357,0,2.036Zm-1.474,4.459c0-.83,0-4.644,0-5.447,0-.486,0-.486-.516-.487H36.714v5.934Z" transform="translate(-29.144 -128.253)" fill="#006ce5" stroke="#fff" stroke-width="0.4"/>
    <path id="Path_82092" data-name="Path 82092" d="M41.05,225.514c0,.652,0,4.316,0,4.968,0,.61-.263.853-.918.854H36.1c-.608,0-.886-.246-.887-.8,0-1.344,0-5.7,0-7.044,0-.578.281-.822.915-.822h4.032c.6,0,.88.252.885.809.006.679,0,1.357,0,2.036Zm-1.474,4.459c0-.83,0-4.644,0-5.447,0-.486,0-.486-.516-.487H36.714v5.934Z" transform="translate(-29.144 -187.374)" fill="#006ce5" stroke="#fff" stroke-width="0.4"/>
    <path id="Path_82093" data-name="Path 82093" d="M41.05,295.771c0,.652,0,4.316,0,4.968,0,.61-.263.853-.918.854H36.1c-.608,0-.886-.246-.887-.8,0-1.344,0-5.7,0-7.044,0-.578.281-.822.915-.822h4.032c.6,0,.88.253.885.809.006.679,0,1.357,0,2.036Zm-1.474,4.459c0-.83,0-4.644,0-5.447,0-.486,0-.486-.516-.487H36.714v5.934Z" transform="translate(-29.144 -246.494)" fill="#006ce5" stroke="#fff" stroke-width="0.4"/>
    <path id="Path_82094" data-name="Path 82094" d="M41.05,366.028c0,.652,0,4.316,0,4.968,0,.61-.263.853-.918.854H36.1c-.608,0-.886-.246-.887-.8,0-1.344,0-5.7,0-7.044,0-.578.281-.822.915-.822h4.032c.6,0,.88.253.885.809.006.679,0,1.357,0,2.036Zm-1.474,4.459c0-.83,0-4.644,0-5.447,0-.486,0-.486-.516-.487H36.714v5.934Z" transform="translate(-29.144 -305.615)" fill="#006ce5" stroke="#fff" stroke-width="0.4"/>
    <path id="Path_82095" data-name="Path 82095" d="M41.05,506.541c0,.652,0,4.316,0,4.968,0,.61-.263.853-.918.854H36.1c-.608,0-.886-.246-.887-.8,0-1.344,0-5.7,0-7.044,0-.578.281-.822.915-.822h4.032c.6,0,.88.253.885.809.006.678,0,1.357,0,2.036ZM39.576,511c0-.83,0-4.644,0-5.447,0-.486,0-.487-.516-.487H36.714V511Z" transform="translate(-29.144 -423.855)" fill="#006ce5" stroke="#fff" stroke-width="0.4"/>
    <path id="Path_82096" data-name="Path 82096" d="M41.05,436.284c0,.652,0,4.316,0,4.968,0,.61-.263.853-.918.854H36.1c-.608,0-.886-.246-.887-.8,0-1.344,0-5.7,0-7.044,0-.578.281-.822.915-.822h4.032c.6,0,.88.253.885.809.006.678,0,1.357,0,2.036Zm-1.474,4.459c0-.83,0-4.645,0-5.447,0-.486,0-.486-.516-.487H36.714v5.934Z" transform="translate(-29.144 -364.735)" fill="#006ce5" stroke="#fff" stroke-width="0.4"/>
    <path id="Path_82097" data-name="Path 82097" d="M236.194,85c0,.652,0,4.316,0,4.968,0,.61-.263.853-.918.854h-4.032c-.608,0-.886-.246-.887-.8,0-1.344,0-5.7,0-7.044,0-.578.281-.822.915-.822h4.032c.6,0,.88.253.885.809.006.678,0,1.357,0,2.036ZM234.72,89.46c0-.83,0-4.644,0-5.447,0-.486,0-.486-.516-.487h-2.346V89.46Z" transform="translate(-190.665 -69.133)" fill="#006ce5" stroke="#fff" stroke-width="0.4"/>
    <path id="Path_82098" data-name="Path 82098" d="M236.194,155.257c0,.652,0,4.316,0,4.968,0,.61-.263.853-.918.854h-4.032c-.608,0-.886-.246-.887-.8,0-1.344,0-5.7,0-7.044,0-.578.281-.822.915-.822h4.032c.6,0,.88.253.885.809.006.678,0,1.357,0,2.036Zm-1.474,4.459c0-.83,0-4.644,0-5.447,0-.486,0-.486-.516-.487h-2.346v5.934Z" transform="translate(-190.665 -128.253)" fill="#006ce5" stroke="#fff" stroke-width="0.4"/>
    <path id="Path_82099" data-name="Path 82099" d="M236.194,225.514c0,.652,0,4.316,0,4.968,0,.61-.263.853-.918.854h-4.032c-.608,0-.886-.246-.887-.8,0-1.344,0-5.7,0-7.044,0-.578.281-.822.915-.822h4.032c.6,0,.88.252.885.809.006.679,0,1.357,0,2.036Zm-1.474,4.459c0-.83,0-4.644,0-5.447,0-.486,0-.486-.516-.487h-2.346v5.934Z" transform="translate(-190.665 -187.374)" fill="#006ce5" stroke="#fff" stroke-width="0.4"/>
    <path id="Path_82100" data-name="Path 82100" d="M236.194,295.771c0,.652,0,4.316,0,4.968,0,.61-.263.853-.918.854h-4.032c-.608,0-.886-.246-.887-.8,0-1.344,0-5.7,0-7.044,0-.578.281-.822.915-.822h4.032c.6,0,.88.253.885.809.006.679,0,1.357,0,2.036Zm-1.474,4.459c0-.83,0-4.644,0-5.447,0-.486,0-.486-.516-.487h-2.346v5.934Z" transform="translate(-190.665 -246.494)" fill="#006ce5" stroke="#fff" stroke-width="0.4"/>
    <path id="Path_82101" data-name="Path 82101" d="M236.194,366.028c0,.652,0,4.316,0,4.968,0,.61-.263.853-.918.854h-4.032c-.608,0-.886-.246-.887-.8,0-1.344,0-5.7,0-7.044,0-.578.281-.822.915-.822h4.032c.6,0,.88.253.885.809.006.679,0,1.357,0,2.036Zm-1.474,4.459c0-.83,0-4.644,0-5.447,0-.486,0-.486-.516-.487h-2.346v5.934Z" transform="translate(-190.665 -305.615)" fill="#006ce5" stroke="#fff" stroke-width="0.4"/>
    <path id="Path_82102" data-name="Path 82102" d="M236.194,506.541c0,.652,0,4.316,0,4.968,0,.61-.263.853-.918.854h-4.032c-.608,0-.886-.246-.887-.8,0-1.344,0-5.7,0-7.044,0-.578.281-.822.915-.822h4.032c.6,0,.88.253.885.809.006.678,0,1.357,0,2.036ZM234.72,511c0-.83,0-4.644,0-5.447,0-.486,0-.487-.516-.487h-2.346V511Z" transform="translate(-190.665 -423.855)" fill="#006ce5" stroke="#fff" stroke-width="0.4"/>
    <path id="Path_82103" data-name="Path 82103" d="M236.194,436.284c0,.652,0,4.316,0,4.968,0,.61-.263.853-.918.854h-4.032c-.608,0-.886-.246-.887-.8,0-1.344,0-5.7,0-7.044,0-.578.281-.822.915-.822h4.032c.6,0,.88.253.885.809.006.678,0,1.357,0,2.036Zm-1.474,4.459c0-.83,0-4.645,0-5.447,0-.486,0-.486-.516-.487h-2.346v5.934Z" transform="translate(-190.665 -364.735)" fill="#006ce5" stroke="#fff" stroke-width="0.4"/>
    <path id="Path_82104" data-name="Path 82104" d="M158.913,132.6q0,2.8,0,5.6a.635.635,0,0,1-.639.69q-1.8,0-3.609,0a.643.643,0,0,1-.641-.694c-.006-.257,0-.514,0-.771q0-5.131,0-10.262a1.535,1.535,0,0,1,.054-.466.566.566,0,0,1,.551-.429c.631-.009,1.263-.011,1.894-.011.6,0,1.2-.005,1.8.014a.616.616,0,0,1,.591.7q0,2.818,0,5.635Zm-3.64-4.992c0,.069-.01.113-.01.158q0,4.507,0,9.015c0,.2.008.4,0,.593,0,.122.047.158.153.157q1.055-.005,2.11,0c.1,0,.149-.033.142-.148,0-.059,0-.119,0-.178q0-3.36,0-6.721,0-1.334,0-2.669c0-.1.017-.206-.126-.205-.751,0-1.5,0-2.273,0" transform="translate(-127.582 -106.241)" fill="#006ce5" stroke="#fff" stroke-width="0.4"/>
    <path id="Path_82105" data-name="Path 82105" d="M117.795,132.536q0,2.779,0,5.558c0,.521-.233.778-.708.779H113.6c-.46,0-.689-.241-.689-.752q-.006-4.925,0-9.85c0-.422,0-.844,0-1.266.007-.508.223-.761.686-.765q1.76-.013,3.519,0a.643.643,0,0,1,.673.737v5.558h0m-1.242,4.977v-.224q0-4.755,0-9.51c0-.15-.043-.19-.175-.189-.661.007-1.323,0-1.984,0h-.241c-.006.075-.013.132-.013.19q0,4.765-.006,9.53c0,.156.047.2.188.2.559-.008,1.119,0,1.678,0h.553" transform="translate(-92.429 -106.225)" fill="#006ce5" stroke="#fff" stroke-width="0.4"/>
    <path id="Path_82106" data-name="Path 82106" d="M158.919,305.428c0,.679,0,1.357,0,2.036,0,.485-.215.748-.654.752q-1.813.016-3.625,0a.606.606,0,0,1-.605-.6,2.116,2.116,0,0,1-.014-.276q0-1.967,0-3.933c0-.046,0-.092,0-.138.026-.43.251-.687.645-.689q1.8-.012,3.607,0c.415,0,.639.278.642.752,0,.7,0,1.4,0,2.1m-3.649,1.431c.75,0,1.476-.006,2.2,0,.159,0,.207-.043.206-.218q-.012-1.283,0-2.567c0-.136-.05-.146-.151-.146-.607,0-1.213,0-1.82,0h-.435Z" transform="translate(-127.583 -254.613)" fill="#006ce5" stroke="#fff" stroke-width="0.4"/>
    <path id="Path_82107" data-name="Path 82107" d="M158.912,393.533c0,.692,0,1.384,0,2.076a.638.638,0,0,1-.642.727c-.872.008-1.744,0-2.615,0-.319,0-.637,0-.956,0a.639.639,0,0,1-.684-.726q-.01-2.105,0-4.21a.639.639,0,0,1,.634-.707c1.184-.011,2.369-.015,3.553,0,.516.007.711.27.708.839,0,.665,0,1.331,0,2Zm-1.252-1.453h-2.4v2.882h2.4Z" transform="translate(-127.574 -328.759)" fill="#006ce5" stroke="#fff" stroke-width="0.4"/>
    <path id="Path_82108" data-name="Path 82108" d="M158.916,525.843q0,1.009,0,2.017c0,.518-.208.764-.693.77-.908.011-1.816,0-2.724,0-.265,0-.529.011-.794.007-.444-.008-.683-.264-.684-.75q-.007-2.057,0-4.113c0-.529.245-.782.729-.782h3.392c.558,0,.774.239.773.853q0,1,0,2Zm-3.652-1.486v2.9a.357.357,0,0,0,.083.019c.727,0,1.455,0,2.182,0,.116,0,.139-.051.139-.166,0-.744,0-1.489,0-2.233,0-.163.048-.4-.029-.472s-.291-.047-.444-.048c-.636,0-1.272,0-1.933,0" transform="translate(-127.58 -440.094)" fill="#006ce5" stroke="#fff" stroke-width="0.4"/>
    <path id="Path_82109" data-name="Path 82109" d="M158.914,481.689q0,1.019,0,2.037c0,.5-.245.765-.7.765h-3.5a.642.642,0,0,1-.692-.733q-.007-2.067,0-4.133c0-.525.252-.779.757-.782,1,0,2.009,0,3.014,0a4.782,4.782,0,0,1,.487.007c.436.045.639.3.638.782q0,1.029,0,2.057Zm-3.644-1.459v2.914c.77,0,1.521,0,2.271,0,.128,0,.125-.076.125-.177q0-1.185,0-2.37v-.368Z" transform="translate(-127.576 -402.939)" fill="#006ce5" stroke="#fff" stroke-width="0.4"/>
    <path id="Path_82110" data-name="Path 82110" d="M158.915,85q0,1.028,0,2.056c0,.468-.233.745-.664.748q-1.8.014-3.607,0c-.385,0-.621-.286-.626-.731-.006-.58,0-1.16,0-1.739,0-.791,0-1.581,0-2.372,0-.545.249-.809.746-.809h3.409c.508,0,.739.251.741.809,0,.679,0,1.357,0,2.036Zm-1.242,0h-.007c0-.408,0-.817,0-1.225,0-.256,0-.256-.237-.256-.655,0-1.31.007-1.965,0-.147,0-.2.027-.2.2,0,.823,0,1.646,0,2.469,0,.271,0,.272.256.273.655,0,1.31,0,1.965.006.153,0,.2-.051.2-.214-.008-.415,0-.83,0-1.245" transform="translate(-127.578 -69.131)" fill="#006ce5" stroke="#fff" stroke-width="0.4"/>
    <path id="Path_82111" data-name="Path 82111" d="M158.913,217.246c0,.666-.016,1.332,0,2a.718.718,0,0,1-.745.843c-.288.007-.577-.008-.866-.008-.86,0-1.719.008-2.579.007-.466,0-.7-.248-.707-.764q-.012-2.065,0-4.131c0-.5.249-.751.7-.752,1.136,0,2.273-.006,3.409,0a1.077,1.077,0,0,1,.455.085.654.654,0,0,1,.331.649q0,1.038,0,2.075Zm-3.651-1.464c0,.934.005,1.842,0,2.749,0,.166.042.2.18.2q1.036-.007,2.072.006c.135,0,.16-.053.159-.184,0-.763,0-1.527,0-2.29,0-.477,0-.477-.428-.477h-1.978" transform="translate(-127.578 -180.444)" fill="#006ce5" stroke="#fff" stroke-width="0.4"/>
    <path id="Path_82112" data-name="Path 82112" d="M158.919,349.469q0,1.018,0,2.036c0,.5-.184.735-.631.778-.238.023-.48.01-.72.01-.95,0-1.9.008-2.849-.007-.484-.008-.7-.265-.7-.794q0-2.046,0-4.091c0-.469.235-.747.662-.752,1.07-.011,2.14-.008,3.21-.009a4.028,4.028,0,0,1,.414.008.641.641,0,0,1,.61.727c0,.7,0,1.4,0,2.095m-1.256,1.449a.17.17,0,0,0,.018-.046c0-.91-.012-1.819-.012-2.729,0-.13-.049-.149-.152-.148-.656,0-1.312,0-1.968,0h-.281v2.919Z" transform="translate(-127.583 -291.693)" fill="#006ce5" stroke="#fff" stroke-width="0.4"/>
    <path id="Path_82113" data-name="Path 82113" d="M158.917,261.4q0,1.018,0,2.036c0,.488-.226.758-.668.761q-1.8.011-3.607,0a.627.627,0,0,1-.62-.673q-.009-2.135,0-4.269a.615.615,0,0,1,.637-.688q1.777-.008,3.553,0c.483,0,.7.251.7.781q0,1.028,0,2.056Zm-3.668-1.495c0,.1,0,.2,0,.308,0,.831.008,1.661,0,2.492,0,.151.073.136.16.136.692,0,1.384,0,2.076.007.139,0,.186-.034.185-.2-.005-.87,0-1.74.006-2.61,0-.116-.04-.129-.127-.128-.349,0-.7,0-1.047-.006-.408,0-.816,0-1.256,0" transform="translate(-127.58 -217.578)" fill="#006ce5" stroke="#fff" stroke-width="0.4"/>
    <path id="Path_82114" data-name="Path 82114" d="M117.776,305.406c0,.686,0,1.371,0,2.057,0,.5-.235.774-.695.775q-1.714,0-3.428,0c-.519,0-.75-.245-.754-.818-.007-.916,0-1.832-.006-2.749,0-.428,0-.857,0-1.285.008-.547.242-.792.739-.792,1.131,0,2.262,0,3.392,0a1,1,0,0,1,.4.078.613.613,0,0,1,.342.616c0,.705,0,1.411,0,2.116Zm-1.239.01h0c0-.409-.01-.818,0-1.226.007-.2-.058-.243-.226-.24-.667.01-1.335.012-2,0-.16,0-.192.053-.191.211q.008,1.256,0,2.511c0,.158.039.2.183.2.673-.008,1.347-.016,2.02,0,.191.006.22-.055.215-.235-.01-.408,0-.817,0-1.226" transform="translate(-92.415 -254.628)" fill="#006ce5" stroke="#fff" stroke-width="0.4"/>
    <path id="Path_82115" data-name="Path 82115" d="M158.924,437.674q0,1.048,0,2.1a.634.634,0,0,1-.624.7q-1.822.012-3.644.009a.609.609,0,0,1-.626-.681q-.012-2.126,0-4.251a.632.632,0,0,1,.656-.7q1.768-.006,3.536,0c.476,0,.7.261.7.785q0,1.018,0,2.036Zm-3.66,1.447c.08.005.128.011.175.011l1.984,0c.257,0,.257,0,.257-.278,0-.823-.006-1.647,0-2.47,0-.145-.044-.182-.165-.182q-1.055,0-2.11,0c-.109,0-.144.039-.143.161.006.606,0,1.212,0,1.818v.945" transform="translate(-127.586 -365.923)" fill="#006ce5" stroke="#fff" stroke-width="0.4"/>
    <path id="Path_82116" data-name="Path 82116" d="M117.8,393.535v2.075c0,.488-.231.747-.678.747q-1.731,0-3.463,0c-.508,0-.736-.239-.738-.79q-.008-2.026,0-4.052c0-.541.221-.8.714-.8,1.184-.009,2.368-.005,3.553,0,.376,0,.606.287.608.722,0,.7,0,1.4,0,2.1h0M116.546,395v-2.907h-2.381a.359.359,0,0,0-.016.068c0,.9,0,1.8-.007,2.707,0,.145.08.134.167.134l1.641,0h.6" transform="translate(-92.437 -328.779)" fill="#006ce5" stroke="#fff" stroke-width="0.4"/>
    <path id="Path_82117" data-name="Path 82117" d="M117.785,481.664c0,.692,0,1.384,0,2.076,0,.484-.234.752-.673.752H113.63c-.5,0-.724-.236-.727-.774-.005-.91,0-1.819,0-2.729,0-.448,0-.9.006-1.345.01-.544.244-.8.739-.8,1.131,0,2.262-.006,3.393,0a.978.978,0,0,1,.464.119.7.7,0,0,1,.284.678c-.006.672,0,1.345,0,2.017h0m-1.244-1.445c-.782,0-1.539,0-2.3,0-.1,0-.119.058-.119.149q0,1.314,0,2.629c0,.11.038.151.138.15.709,0,1.419-.006,2.128,0,.141,0,.152-.074.151-.2,0-.679,0-1.357,0-2.036,0-.223,0-.445,0-.694" transform="translate(-92.42 -402.942)" fill="#006ce5" stroke="#fff" stroke-width="0.4"/>
    <path id="Path_82118" data-name="Path 82118" d="M117.78,525.826q0,.979,0,1.958c0,.613-.239.856-.795.852-1.125-.007-2.249,0-3.374,0-.482,0-.712-.243-.712-.77q0-1.978,0-3.955c0-.059,0-.119,0-.178.028-.487.257-.73.7-.734.6,0,1.191,0,1.787,0l1.7,0a.647.647,0,0,1,.684.729c.009.7,0,1.4,0,2.1Zm-1.256,1.454a.365.365,0,0,0,.018-.065c0-.9,0-1.805,0-2.707,0-.145-.068-.155-.171-.155-.7,0-1.394.006-2.092,0-.114,0-.152.04-.152.155q0,1.314,0,2.629c0,.116.044.147.141.145.174-.005.349,0,.523,0h1.733" transform="translate(-92.421 -440.101)" fill="#006ce5" stroke="#fff" stroke-width="0.4"/>
    <path id="Path_82119" data-name="Path 82119" d="M117.784,349.457q0,1.048,0,2.1a.633.633,0,0,1-.609.723c-.372.021-.745.01-1.117.011-.782,0-1.563,0-2.345,0-.595,0-.807-.236-.81-.881q0-.919,0-1.838,0-1.048,0-2.1c0-.59.246-.844.789-.843,1.088,0,2.176,0,3.264,0a1.985,1.985,0,0,1,.287.017.61.61,0,0,1,.531.637c.008.725,0,1.449,0,2.174Zm-1.254,1.458a1.032,1.032,0,0,0,.011-.105c0-.889,0-1.777,0-2.666,0-.146-.065-.155-.168-.155-.691,0-1.382.007-2.072,0-.149,0-.179.05-.178.2,0,.862,0,1.725,0,2.587a1.306,1.306,0,0,0,.015.139Z" transform="translate(-92.42 -291.685)" fill="#006ce5" stroke="#fff" stroke-width="0.4"/>
    <path id="Path_82120" data-name="Path 82120" d="M117.775,84.967q0,1.009,0,2.017c0,.53-.243.807-.73.81q-1.705.009-3.41,0c-.5,0-.73-.249-.733-.8q-.01-2.046-.007-4.093c0-.468.24-.752.665-.756q1.8-.016,3.608,0c.385,0,.608.291.609.745q0,1.038,0,2.076Zm-1.245-1.446a.443.443,0,0,0-.073-.016c-.733,0-1.467,0-2.2,0-.108,0-.133.044-.133.15q0,1.315,0,2.63c0,.129.039.171.157.17.7-.006,1.407,0,2.111-.006.046,0,.092-.009.141-.015Z" transform="translate(-92.416 -69.12)" fill="#006ce5" stroke="#fff" stroke-width="0.4"/>
    <path id="Path_82121" data-name="Path 82121" d="M117.8,217.247q0,1.038,0,2.075c0,.454-.193.718-.6.747s-.841.016-1.262.015c-.775,0-1.551,0-2.326-.014-.467-.009-.689-.268-.691-.783q-.005-2.026,0-4.052c0-.539.251-.8.738-.8h3.409a1.072,1.072,0,0,1,.233.015.632.632,0,0,1,.492.679c.006.7,0,1.41,0,2.115h.008m-3.657.022c0,.409.008.818,0,1.226-.005.179.035.237.208.235.68-.01,1.36-.008,2.039,0,.141,0,.172-.044.172-.187q-.007-1.276,0-2.552c0-.165-.042-.214-.193-.212q-1.019.012-2.04,0c-.145,0-.188.049-.186.2.007.428,0,.857,0,1.286" transform="translate(-92.431 -180.447)" fill="#006ce5" stroke="#fff" stroke-width="0.4"/>
    <path id="Path_82122" data-name="Path 82122" d="M112.879,261.424c0-.672,0-1.344,0-2.016a1.654,1.654,0,0,1,.047-.429.577.577,0,0,1,.613-.413q1.65,0,3.3,0c.12,0,.241-.006.361,0a.609.609,0,0,1,.548.577,2.564,2.564,0,0,1,.009.257c0,1.324,0,2.649.01,3.973,0,.551-.244.827-.746.826-1.142,0-2.285,0-3.427,0a.625.625,0,0,1-.7-.527,1.167,1.167,0,0,1-.017-.235q0-1.008,0-2.016Zm1.231-.06H114.1c0,.429.007.857,0,1.286,0,.163.046.2.187.2.686-.007,1.372-.007,2.058,0,.152,0,.18-.053.179-.2-.006-.844-.008-1.688,0-2.532,0-.174-.053-.2-.2-.2-.68.009-1.36.011-2.039,0-.152,0-.183.052-.181.2.007.415,0,.831,0,1.246" transform="translate(-92.399 -217.58)" fill="#006ce5" stroke="#fff" stroke-width="0.4"/>
    <path id="Path_82123" data-name="Path 82123" d="M117.8,437.649q0,1.048,0,2.1c0,.47-.237.738-.667.739-1.161,0-2.322-.011-3.483.005-.567.008-.736-.351-.735-.811,0-1.358,0-2.716,0-4.074,0-.5.232-.752.691-.753q1.769,0,3.537,0c.406,0,.645.27.645.72q0,1.038,0,2.077h.005m-1.259,1.48a.71.71,0,0,0,.016-.1c0-.9,0-1.792,0-2.689,0-.139-.068-.141-.161-.141-.7,0-1.395,0-2.093,0a1.415,1.415,0,0,0-.143.014.7.7,0,0,0-.017.106c0,.89,0,1.779,0,2.669,0,.115.044.147.141.144.21-.006.421,0,.631,0h1.627" transform="translate(-92.437 -365.922)" fill="#006ce5" stroke="#fff" stroke-width="0.4"/>
  </g>
</svg>
