<svg xmlns="http://www.w3.org/2000/svg" width="163.883" height="81.961" viewBox="0 0 163.883 81.961">
  <g id="ISO_9001-2015_Logo__2017.06.26_" data-name="ISO_9001-2015_Logo_(2017.06.26)" transform="translate(0.02 0.02)">
    <path id="Path_65085" data-name="Path 65085" d="M0,6.4A6.4,6.4,0,0,1,6.4,0H157.442a6.4,6.4,0,0,1,6.4,6.4v69.12a6.4,6.4,0,0,1-6.4,6.4H6.4a6.4,6.4,0,0,1-6.4-6.4Z" fill="#fff" fill-rule="evenodd"/>
    <path id="Path_65086" data-name="Path 65086" d="M32,32h76.8l.1,20.464A156.349,156.349,0,0,0,89.9,73.991Q73.658,95.639,67.361,109.13L32,108.8Z" transform="translate(-29.44 -29.44)" fill="#186adf" fill-rule="evenodd"/>
    <path id="Path_65087" data-name="Path 65087" d="M16,21.12v69.12a5.121,5.121,0,0,0,5.121,5.12H172.162a5.12,5.12,0,0,0,5.121-5.12V21.12A5.121,5.121,0,0,0,172.162,16H21.121A5.12,5.12,0,0,0,16,21.12Z" transform="translate(-14.72 -14.72)" fill="none" stroke="#186adf" stroke-width="2.6" fill-rule="evenodd"/>
    <path id="Path_65088" data-name="Path 65088" d="M81.921,32H71.758A294.582,294.582,0,0,0,47.4,59.962C35.126,75.692,25.91,89.6,25.91,89.6,14.486,73.709,2.94,67.837,0,66.485v25.6c9.664,5.709,17.144,14.6,21.874,19.278h7.749c20.548-31,39.717-50.759,52.3-61Z" transform="translate(0 -29.44)" fill="#fff" fill-rule="evenodd"/>
    <path id="Path_65089" data-name="Path 65089" d="M893.519,185.151H887.04v-32.7h6.479v32.7Zm19-8.58a4.145,4.145,0,0,0-1-3.021,11.494,11.494,0,0,0-3.647-2.123,16.956,16.956,0,0,1-6.941-4.369,8.88,8.88,0,0,1-2.115-5.918,8.368,8.368,0,0,1,2.876-6.637,11.766,11.766,0,0,1,12.572-1.235,8.719,8.719,0,0,1,3.559,3.582,10.913,10.913,0,0,1,1.245,5.256H912.6a5.5,5.5,0,0,0-.959-3.493,3.33,3.33,0,0,0-2.766-1.2,3.428,3.428,0,0,0-2.644,1.022,3.887,3.887,0,0,0-.948,2.751,3.419,3.419,0,0,0,1.058,2.437,12.122,12.122,0,0,0,3.746,2.257,16.009,16.009,0,0,1,6.82,4.245,9.573,9.573,0,0,1,2.127,6.4,8.522,8.522,0,0,1-2.666,6.671,10.428,10.428,0,0,1-7.25,2.4,12.29,12.29,0,0,1-5.663-1.3,9.657,9.657,0,0,1-4-3.728,10.993,10.993,0,0,1-1.443-5.727h6.5a6.336,6.336,0,0,0,1.08,4.11,4.373,4.373,0,0,0,3.526,1.28q3.394,0,3.394-3.661Zm33.407-4.829q0,6.581-3.052,10.219A10.458,10.458,0,0,1,934.4,185.6a10.576,10.576,0,0,1-8.484-3.6q-3.085-3.6-3.129-10.1v-5.593q0-6.738,3.063-10.523a11.446,11.446,0,0,1,16.946-.067q3.085,3.717,3.129,10.433v5.593Zm-6.5-5.48q0-4.425-1.234-6.581a4.511,4.511,0,0,0-7.647-.079,12.965,12.965,0,0,0-1.278,6.323v5.817q0,4.29,1.256,6.322A4.239,4.239,0,0,0,934.4,180.1a4.131,4.131,0,0,0,3.768-1.988q1.234-1.988,1.256-6.165Z" transform="translate(-794.879 -139.84)" fill="#0c3c5b" fill-rule="evenodd"/>
    <text id="_9001:27001" data-name="9001:27001" transform="translate(56 69.101)" fill="#0c3c5b" font-size="20" font-family="Heebo-Medium, Heebo" font-weight="500" letter-spacing="-0.05em"><tspan x="0" y="0">9001:27001</tspan></text>
  </g>
</svg>
