<svg xmlns="http://www.w3.org/2000/svg" width="232.003" height="232.035" viewBox="0 0 232.003 232.035">
  <g id="clock" transform="translate(70.612 -54.577)">
    <path id="Path_65090" data-name="Path 65090" d="M-19.8,56.339c-.579-.7-1.082-1.785-1.526-1.761a4.861,4.861,0,0,0-2.987,1.061Q-46.86,78.026-69.282,100.533c-1.072,1.073-2.051,2.257-.593,3.668,1.512,1.464,2.621.214,3.636-.8q22.384-22.356,44.732-44.747A20.3,20.3,0,0,0-19.8,56.339Z" transform="translate(0 0)" fill="#fff"/>
    <path id="Path_65091" data-name="Path 65091" d="M314.878,100.121Q292.908,78.112,270.9,56.139c-.443-.443-.863-1.1-1.393-1.222-.841-.192-2.1-.354-2.565.1a3.122,3.122,0,0,0-.278,2.58c.193.692,1,1.226,1.57,1.8q21.7,21.711,43.406,43.409a10.71,10.71,0,0,0,2.02,1.754c1.349.789,3.049-.3,2.985-2.239A22.783,22.783,0,0,0,314.878,100.121Z" transform="translate(-155.257 -0.067)" fill="#fff"/>
    <path id="Path_65092" data-name="Path 65092" d="M31.1,80.5C-25.365,94.112-59.913,151.914-45.017,208a102.639,102.639,0,0,0,37.58,56.337c1.634,1.258,2.426,2.333,1.95,4.676-1.658,8.163-2.956,16.4-4.37,24.612-.254,1.474-.364,3.112,1.508,3.506,1.906.4,2.433-1.169,2.695-2.632.789-4.41,1.478-8.837,2.256-13.248.695-3.937,1.458-7.861,2.283-12.288,17.7,10.887,36.349,16.633,56.744,16.611s39.032-5.807,56.454-16.521a20.765,20.765,0,0,1,.843,2.582q1.97,11.254,3.877,22.518c.268,1.566.637,3.321,2.662,2.981s1.816-2.122,1.544-3.694c-1.409-8.122-2.675-16.273-4.315-24.348-.491-2.42.316-3.546,2.007-4.918,32.806-26.62,46.409-61.044,38.864-102.483C146.962,103.471,88.687,66.608,31.1,80.5ZM55.381,281.559c-55.753-.846-99.649-44.48-99.57-100.073.079-55.8,44.366-99.718,99.84-99.644,55.931.074,99.9,44.588,99.721,100.071C155.189,237.711,110.943,280.971,55.381,281.559Z" transform="translate(-10.191 -10.587)" fill="#fff"/>
    <path id="Path_65093" data-name="Path 65093" d="M184.669,243.145q-18.534-10.177-37.14-20.222a4.8,4.8,0,0,1-2.882-4.863c.094-18.51.053-37.02.047-55.53a8.374,8.374,0,0,0-.168-2.932,2.588,2.588,0,0,0-1.836-1.485c-.628.007-1.472.853-1.806,1.534a5.809,5.809,0,0,0-.148,2.392q-.009,14.556,0,29.113c0,9.884.061,19.769-.046,29.652a4.567,4.567,0,0,0,2.742,4.656c13.122,7.06,26.173,14.25,39.275,21.35,1.469.8,3.367,2.578,4.682.323C188.823,244.665,186.2,243.987,184.669,243.145Z" transform="translate(-97.306 -47.68)" fill="#fff"/>
  </g>
</svg>
