<svg xmlns="http://www.w3.org/2000/svg" width="44.043" height="37.848" viewBox="0 0 44.043 37.848">
  <g id="Group_26829" data-name="Group 26829" transform="translate(-39.739 -3.5)">
    <g id="Layer_2" data-name="Layer 2" transform="translate(39.739 3.5)">
      <path id="Path_82146" data-name="Path 82146" d="M23.913,24.279a1.545,1.545,0,0,0,0-2.194l-4.634-4.634a1.545,1.545,0,0,0-2.194,0L12.45,22.086a1.551,1.551,0,0,0,2.194,2.194l1.993-2.008v10.18a1.545,1.545,0,0,0,3.09,0V22.271l1.993,2.008a1.545,1.545,0,0,0,2.194,0Z" transform="translate(3.848 3.852)" fill="#006ce5"/>
      <path id="Path_82147" data-name="Path 82147" d="M36.885,16.631a13.131,13.131,0,1,0-26.262,0,9.277,9.277,0,0,0,.788,18.538h7.724a4.634,4.634,0,0,1-3.275-7.909l4.634-4.634a4.634,4.634,0,0,1,6.55,0l4.634,4.634A4.634,4.634,0,0,1,28.4,35.168h7.724a9.277,9.277,0,0,0,.757-18.538Z" transform="translate(-1.739 -3.5)" fill="#006ce5"/>
    </g>
  </g>
</svg>
