<svg id="file_sharing" data-name="file sharing" xmlns="http://www.w3.org/2000/svg" width="39.138" height="39.138" viewBox="0 0 39.138 39.138">
  <path id="Path_82171" data-name="Path 82171" d="M31.948,17.546H29v-3Z" transform="translate(6.469 3.245)" fill="#006ce5"/>
  <path id="Path_82172" data-name="Path 82172" d="M31.792,23.115a1.227,1.227,0,0,1-1.223-1.223V17H23.231a3.68,3.68,0,0,0-3.669,3.669V35.346a3.68,3.68,0,0,0,3.669,3.669h9.784a3.68,3.68,0,0,0,3.669-3.669V23.115ZM30.569,34.123H25.677a1.223,1.223,0,0,1,0-2.446h4.892a1.223,1.223,0,0,1,0,2.446Zm0-4.892H25.677a1.223,1.223,0,0,1,0-2.446h4.892a1.223,1.223,0,0,1,0,2.446ZM13.948,3.546H11v-3Z" transform="translate(2.454 0.123)" fill="#006ce5"/>
  <path id="Path_82173" data-name="Path 82173" d="M12.231,6.115a1.227,1.227,0,0,1-1.223-1.223V0H3.669A3.68,3.68,0,0,0,0,3.669V18.346a3.68,3.68,0,0,0,3.669,3.669h9.784a3.68,3.68,0,0,0,3.669-3.669V6.115ZM11.007,17.123H6.115a1.223,1.223,0,0,1,0-2.446h4.892a1.223,1.223,0,1,1,0,2.446Zm0-4.892H6.115a1.223,1.223,0,1,1,0-2.446h4.892a1.223,1.223,0,1,1,0,2.446Zm19.569,1.223a1.223,1.223,0,0,1-1.223-1.223V7.338A1.223,1.223,0,0,0,28.13,6.115H20.792a1.223,1.223,0,0,1,0-2.446H28.13A3.673,3.673,0,0,1,31.8,7.338v4.892A1.223,1.223,0,0,1,30.576,13.454Z" fill="#006ce5"/>
  <path id="Path_82174" data-name="Path 82174" d="M29.238,12.892a1.219,1.219,0,0,1-.865-.358l-2.446-2.446a1.223,1.223,0,1,1,1.73-1.73L29.238,9.94l1.581-1.581a1.223,1.223,0,1,1,1.73,1.73L30.1,12.534a1.219,1.219,0,0,1-.865.358ZM17.007,33.684H9.669A3.673,3.673,0,0,1,6,30.015V25.123a1.223,1.223,0,0,1,2.446,0v4.892a1.223,1.223,0,0,0,1.223,1.223h7.338a1.223,1.223,0,1,1,0,2.446Z" transform="translate(1.338 1.784)" fill="#006ce5"/>
  <path id="Path_82175" data-name="Path 82175" d="M10.115,24.892a1.219,1.219,0,0,1-.865-.358L7.669,22.952,6.088,24.534a1.223,1.223,0,1,1-1.73-1.73L6.8,20.358a1.223,1.223,0,0,1,1.729,0L10.98,22.8a1.223,1.223,0,0,1-.865,2.088Z" transform="translate(0.892 4.461)" fill="#006ce5"/>
</svg>
