<svg xmlns="http://www.w3.org/2000/svg" width="94.586" height="94.652" viewBox="0 0 94.586 94.652">
  <g id="Group_26866" data-name="Group 26866" transform="translate(-2 -2)">
    <path id="Path_82242" data-name="Path 82242" d="M58.609,24.715l-2.1-.355a28.847,28.847,0,0,1-3.99-.946,31.51,31.51,0,0,1-2.956-1.094,2.41,2.41,0,0,0-1.892,4.434A36.265,36.265,0,0,0,51.1,28.026a33.608,33.608,0,0,0,4.67,1.123V46.2A13.656,13.656,0,0,1,47.79,58.619L40.549,61.9l-7.242-3.281A13.656,13.656,0,0,1,25.326,46.2V29.12a34.642,34.642,0,0,0,14.779-6.207l1.862-1.36a2.436,2.436,0,1,0-2.956-3.872l-1.862,1.36A29.8,29.8,0,0,1,24.5,24.39l-2.1.355a2.394,2.394,0,0,0-2.01,2.365V46.2A18.474,18.474,0,0,0,31.208,62.993l8.247,3.754a2.394,2.394,0,0,0,1.98,0l8.247-3.754A18.474,18.474,0,0,0,60.619,46.2V27.08a2.394,2.394,0,0,0-2.01-2.365Z" transform="translate(35.967 29.691)" fill="#006ce5"/>
    <circle id="Ellipse_892" data-name="Ellipse 892" cx="2.394" cy="2.394" r="2.394" transform="translate(17.252 17.252)" fill="#006ce5"/>
    <circle id="Ellipse_893" data-name="Ellipse 893" cx="2.394" cy="2.394" r="2.394" transform="translate(30.051 17.252)" fill="#006ce5"/>
    <circle id="Ellipse_894" data-name="Ellipse 894" cx="2.394" cy="2.394" r="2.394" transform="translate(17.252 46.899)" fill="#006ce5"/>
    <circle id="Ellipse_895" data-name="Ellipse 895" cx="2.394" cy="2.394" r="2.394" transform="translate(30.051 46.899)" fill="#006ce5"/>
    <circle id="Ellipse_896" data-name="Ellipse 896" cx="2.394" cy="2.394" r="2.394" transform="translate(17.252 76.545)" fill="#006ce5"/>
    <circle id="Ellipse_897" data-name="Ellipse 897" cx="2.394" cy="2.394" r="2.394" transform="translate(30.051 76.545)" fill="#006ce5"/>
    <path id="Path_82243" data-name="Path 82243" d="M92.122,6.463A15.1,15.1,0,0,0,81.363,2H17.222A15.222,15.222,0,0,0,2,17.222V81.363A15.222,15.222,0,0,0,17.222,96.586H55.648a2.409,2.409,0,1,0,0-4.818H17.222A10.434,10.434,0,0,1,6.788,81.334V66.555H46.1a2.409,2.409,0,1,0,0-4.818H6.818V36.612h84.95v6.148a2.409,2.409,0,0,0,4.818,0V17.222A15.1,15.1,0,0,0,92.122,6.463ZM6.818,31.913V17.134a10.434,10.434,0,0,1,10.4-10.316H81.363A10.434,10.434,0,0,1,91.8,17.252V32.031Z" transform="translate(0 0)" fill="#006ce5"/>
    <path id="Path_82244" data-name="Path 82244" d="M40.136,7.15H24.2a2.409,2.409,0,1,0,0,4.818H40.136a2.409,2.409,0,1,0,0-4.818Z" transform="translate(38.715 10.072)" fill="#006ce5"/>
  </g>
</svg>
