<svg id="Group_26856" data-name="Group 26856" xmlns="http://www.w3.org/2000/svg" width="40.482" height="40.482" viewBox="0 0 40.482 40.482">
  <path id="Path_82210" data-name="Path 82210" d="M36.066,0a4.416,4.416,0,0,0-3.882,6.521L24.95,13.756a5.846,5.846,0,0,0-7.21,0L12.1,8.11a2.905,2.905,0,0,0,.417-1.486A2.944,2.944,0,1,0,9.569,9.569a2.905,2.905,0,0,0,1.486-.417L16.7,14.8a5.854,5.854,0,0,0,0,7.21L7.378,31.328a4.371,4.371,0,1,0,.92,1.161l9.443-9.443a5.854,5.854,0,0,0,2.869,1.192v7.478a4.416,4.416,0,1,0,1.472,0V24.238a5.854,5.854,0,0,0,2.869-1.192L30.6,28.691a2.9,2.9,0,0,0-.418,1.487,2.944,2.944,0,1,0,2.944-2.944,2.905,2.905,0,0,0-1.486.417l-5.645-5.645a5.854,5.854,0,0,0,0-7.21l7.114-7.114A4.413,4.413,0,1,0,36.066,0Z" fill="#006ce5"/>
</svg>
