<svg xmlns="http://www.w3.org/2000/svg" width="119.879" height="104.898" viewBox="0 0 119.879 104.898">
  <g id="Group_26841" data-name="Group 26841" transform="translate(0.001 -2.998)">
    <g id="Cloud_Setting" data-name="Cloud Setting" transform="translate(-0.001 2.998)">
      <path id="Path_82166" data-name="Path 82166" d="M65.894,43.672,61.131,42.8q-.284-.773-.627-1.523l2.752-3.976a2.5,2.5,0,0,0-.287-3.187l-6.144-6.144a2.492,2.492,0,0,0-3.187-.285l-3.976,2.747q-.747-.34-1.523-.624l-.867-4.763A2.5,2.5,0,0,0,44.815,23H36.129a2.5,2.5,0,0,0-2.458,2.051l-.864,4.76q-.779.287-1.526.627L27.3,27.688a2.5,2.5,0,0,0-3.184.287l-6.144,6.144a2.5,2.5,0,0,0-.287,3.184l2.752,3.976c-.225.5-.437,1.009-.627,1.523l-4.763.869A2.5,2.5,0,0,0,13,46.129v8.686a2.5,2.5,0,0,0,2.051,2.458l4.762.867c.19.517.4,1.026.627,1.523l-2.752,3.973a2.5,2.5,0,0,0,.287,3.189l6.144,6.144a2.5,2.5,0,0,0,3.184.287l3.978-2.75q.747.34,1.523.624l.867,4.763a2.5,2.5,0,0,0,2.458,2.05h8.686a2.5,2.5,0,0,0,2.458-2.051l.864-4.762q.779-.285,1.526-.624l3.976,2.75a2.5,2.5,0,0,0,3.187-.287l6.144-6.144a2.5,2.5,0,0,0,.287-3.189l-2.75-3.971c.225-.5.435-1.009.624-1.523l4.763-.869a2.5,2.5,0,0,0,2.05-2.458V46.129a2.5,2.5,0,0,0-2.051-2.458ZM62.949,52.73l-4.171.762a2.5,2.5,0,0,0-1.953,1.758,16.92,16.92,0,0,1-1.406,3.417,2.5,2.5,0,0,0,.137,2.625l2.408,3.476-3.2,3.2-3.479-2.408a2.5,2.5,0,0,0-2.622-.137,16.868,16.868,0,0,1-3.419,1.409,2.5,2.5,0,0,0-1.758,1.951l-.757,4.171h-4.52l-.757-4.171a2.5,2.5,0,0,0-1.761-1.951,16.868,16.868,0,0,1-3.422-1.409,2.5,2.5,0,0,0-2.622.137l-3.476,2.408-3.194-3.2,2.408-3.476a2.5,2.5,0,0,0,.135-2.622,16.921,16.921,0,0,1-1.406-3.419,2.5,2.5,0,0,0-1.951-1.758l-4.171-.762V48.214l4.171-.762a2.5,2.5,0,0,0,1.953-1.758,16.913,16.913,0,0,1,1.406-3.417,2.5,2.5,0,0,0-.137-2.625L22.98,36.174l3.2-3.194,3.476,2.408a2.507,2.507,0,0,0,2.622.137A16.883,16.883,0,0,1,35.7,34.116a2.5,2.5,0,0,0,1.758-1.951l.757-4.171h4.52l.757,4.171a2.5,2.5,0,0,0,1.761,1.951,16.883,16.883,0,0,1,3.422,1.409,2.507,2.507,0,0,0,2.622-.137L54.77,32.98l3.194,3.2-2.408,3.476a2.5,2.5,0,0,0-.135,2.622,16.913,16.913,0,0,1,1.406,3.419,2.5,2.5,0,0,0,1.951,1.758l4.171.762Z" transform="translate(19.47 26.954)" fill="#006ce5"/>
      <path id="Path_82167" data-name="Path 82167" d="M31.487,29A12.487,12.487,0,1,0,43.975,41.487,12.487,12.487,0,0,0,31.487,29Zm0,19.98a7.492,7.492,0,1,1,7.492-7.492,7.492,7.492,0,0,1-7.492,7.492Z" transform="translate(28.455 35.939)" fill="#006ce5"/>
      <path id="Path_82168" data-name="Path 82168" d="M102.353,34.119A20,20,0,0,0,82.418,15.49a19.722,19.722,0,0,0-4.59.544,22.455,22.455,0,0,0-42.7,6.948h-.16A22.5,22.5,0,0,0,12.514,44.418a19.975,19.975,0,0,0,7.467,38.5h4.995a2.5,2.5,0,0,0,0-4.995H19.981a14.982,14.982,0,0,1-4.251-29.348A2.5,2.5,0,0,0,17.519,46.1l-.035-.637a17.372,17.372,0,0,1,19.68-17.33,2.555,2.555,0,0,0,1.958-.692,2.68,2.68,0,0,0,.839-1.958,17.475,17.475,0,0,1,34.033-5.594,2.5,2.5,0,0,0,1.291,1.456,2.467,2.467,0,0,0,1.941.087A14.942,14.942,0,0,1,97.393,35.64l-.018.3a2.5,2.5,0,0,0,1.948,2.532,19.972,19.972,0,0,1-4.418,39.453,2.5,2.5,0,0,0,0,4.995,24.97,24.97,0,0,0,7.447-48.8Z" transform="translate(0.001 -2.998)" fill="#006ce5"/>
    </g>
  </g>
</svg>
