<svg xmlns="http://www.w3.org/2000/svg" width="38.013" height="41.445" viewBox="0 0 38.013 41.445">
  <g id="Group_26846" data-name="Group 26846" transform="translate(0)">
    <path id="Path_82179" data-name="Path 82179" d="M38.013,17.311A9.542,9.542,0,0,0,28.571,7.78,10.255,10.255,0,0,0,8.364,10.254q0,.073,0,.146H8.222a8.221,8.221,0,1,0,0,16.443h.922v3.336a3.735,3.735,0,1,0,2.437,0V26.842h6.207v7.339a3.734,3.734,0,1,0,2.437,0V26.842h6.206v3.336a3.735,3.735,0,1,0,2.437,0V26.834a9.542,9.542,0,0,0,9.144-9.523ZM10.363,35.006a1.3,1.3,0,1,1,1.3-1.3A1.3,1.3,0,0,1,10.363,35.006Zm8.644,4a1.3,1.3,0,1,1,1.3-1.3,1.3,1.3,0,0,1-1.3,1.3Zm8.644-4a1.3,1.3,0,1,1,1.3-1.3A1.3,1.3,0,0,1,27.651,35.006Zm0,0" transform="translate(0)" fill="#006ce5"/>
  </g>
</svg>
