<svg xmlns="http://www.w3.org/2000/svg" width="73.015" height="62.989" viewBox="0 0 73.015 62.989">
  <g id="Group_26834" data-name="Group 26834" transform="translate(0 -35.154)">
    <path id="Path_82155" data-name="Path 82155" d="M34.368,35.154a36.257,36.257,0,0,0-22.151,9.178l9.546,9.546a22.879,22.879,0,0,1,12.605-5.223ZM18.737,56.9,9.192,47.357A36.254,36.254,0,0,0,0,69.508H13.5A22.882,22.882,0,0,1,18.737,56.9ZM59.512,69.508h13.5a36.253,36.253,0,0,0-9.19-22.152L54.278,56.9A22.881,22.881,0,0,1,59.512,69.508Zm0,4.278a22.784,22.784,0,0,1-2.352,8.247q1.3,2.007,2.587,4.026a6.425,6.425,0,0,1-2.635,9.232l2.223,2.223a2.143,2.143,0,0,0,3.03,0A36.3,36.3,0,0,0,73.015,73.786Zm-46,0H0A36.3,36.3,0,0,0,10.653,97.515a2.143,2.143,0,0,0,3.03,0l6.49-6.491a2.143,2.143,0,0,0,0-3.03,22.962,22.962,0,0,1-6.667-14.207ZM60.8,44.332a36.256,36.256,0,0,0-22.151-9.178v13.5a22.879,22.879,0,0,1,12.605,5.223ZM41.261,66.93a6.721,6.721,0,0,0-9.506,9.506c3.311,3.311,19.582,13.7,21.426,14.873a2.139,2.139,0,0,0,2.953-2.953C54.96,86.512,44.571,70.241,41.261,66.93Z" fill="#006ce5"/>
  </g>
</svg>
