<svg xmlns="http://www.w3.org/2000/svg" width="38.415" height="38.415" viewBox="0 0 38.415 38.415">
  <g id="Group_26847" data-name="Group 26847" transform="translate(0 0.001)">
    <path id="Path_82180" data-name="Path 82180" d="M4.5,16.956a1.125,1.125,0,0,0-1.125-1.125H1.125a1.125,1.125,0,1,0,0,2.251H3.376A1.125,1.125,0,0,0,4.5,16.956Zm32.787-1.125H35.038a1.125,1.125,0,1,0,0,2.251h2.251a1.125,1.125,0,1,0,0-2.251ZM6.125,8.1,4.175,6.978A1.126,1.126,0,0,0,3.05,8.927L5,10.053A1.126,1.126,0,0,0,6.125,8.1ZM35.364,24.985l-1.95-1.125a1.126,1.126,0,1,0-1.125,1.95l1.95,1.125a1.126,1.126,0,1,0,1.125-1.95ZM10.355,3.637A1.126,1.126,0,1,0,12.3,2.512L11.179.562a1.126,1.126,0,0,0-1.95,1.125ZM5,23.859,3.05,24.985a1.126,1.126,0,1,0,1.125,1.95l1.95-1.125A1.126,1.126,0,1,0,5,23.859ZM33.415,10.053l1.95-1.125a1.126,1.126,0,1,0-1.125-1.95L32.289,8.1a1.126,1.126,0,1,0,1.125,1.95Zm-6.892-6a1.126,1.126,0,0,0,1.537-.412l1.125-1.95A1.126,1.126,0,1,0,27.236.562L26.11,2.512A1.125,1.125,0,0,0,26.523,4.049Zm.489,3.3A12.455,12.455,0,0,0,16.555,4.853a12.318,12.318,0,0,0-9.539,9.911A12.458,12.458,0,0,0,10.647,25.9a9.478,9.478,0,0,1,2.817,5.686h4.619V26.3l-4.251-6.377-2.172-2.172A1.125,1.125,0,1,1,13.25,16.16l1.455,1.455,1.455-1.455a1.125,1.125,0,0,1,1.591,0l1.455,1.455,1.455-1.455a1.125,1.125,0,0,1,1.591,0l1.455,1.455,1.455-1.455a1.125,1.125,0,0,1,1.591,1.591l-2.172,2.172L20.333,26.3v5.286h4.554a8.5,8.5,0,0,1,2.805-5.615,12.381,12.381,0,0,0-.68-18.626Zm0,0" transform="translate(0 0)" fill="#006ce5"/>
    <path id="Path_82181" data-name="Path 82181" d="M188.878,247.21l-1.455,1.455a1.125,1.125,0,0,1-1.591,0l-1.455-1.455-.8.8,3.054,4.58,3.054-4.58ZM181,263.7a3.38,3.38,0,0,0,3.376,3.376h4.5a3.38,3.38,0,0,0,3.376-3.376v-1.2H181Zm0,0" transform="translate(-167.42 -228.663)" fill="#006ce5"/>
  </g>
</svg>
