<svg xmlns="http://www.w3.org/2000/svg" width="69.745" height="106.116" viewBox="0 0 69.745 106.116">
  <g id="Group_26867" data-name="Group 26867" transform="translate(-43.871 0.001)">
    <path id="Path_82245" data-name="Path 82245" d="M125.073,180.758A2.073,2.073,0,0,1,123,178.685V129.56a2.073,2.073,0,1,1,4.145,0v49.125A2.073,2.073,0,0,1,125.073,180.758Z" transform="translate(-46.329 -74.642)" fill="#006ce5"/>
    <path id="Path_82246" data-name="Path 82246" d="M87.751,56.99a28.5,28.5,0,1,1,28.495-28.5,28.5,28.5,0,0,1-28.495,28.5Zm0-52.845a24.35,24.35,0,1,0,24.35,24.35,24.35,24.35,0,0,0-24.35-24.35Zm0,94.887a2.073,2.073,0,0,1-2.073-2.105c.01-.625.351-15.406,9.892-24.947s24.323-9.882,24.948-9.892a2.018,2.018,0,0,1,1.5.607,2.073,2.073,0,0,1,.607,1.5c-.01.625-.351,15.406-9.892,24.947s-24.323,9.882-24.948,9.892ZM118.3,66.409c-4.251.479-13.524,2.221-19.8,8.5-6.3,6.3-8.031,15.551-8.5,19.8,4.251-.478,13.523-2.221,19.8-8.5,6.3-6.3,8.031-15.549,8.5-19.8Z" transform="translate(-9.007)" fill="#006ce5"/>
    <path id="Path_82247" data-name="Path 82247" d="M78.744,120.727h-.033c-.624-.01-15.406-.35-24.948-9.892s-9.88-24.323-9.892-24.948a2.073,2.073,0,0,1,.607-1.5,2.014,2.014,0,0,1,1.5-.607c.625.01,15.406.351,24.948,9.892S80.807,118,80.817,118.622a2.073,2.073,0,0,1-2.073,2.105ZM48.194,88.1c.479,4.253,2.223,13.521,8.5,19.8,6.3,6.3,15.551,8.031,19.8,8.5-.479-4.251-2.221-13.523-8.5-19.8s-15.54-8.018-19.8-8.5ZM78.656,52.263a8.28,8.28,0,0,1-5.559-2.1A7.305,7.305,0,0,1,72.957,39.3a8.4,8.4,0,0,1,12.129.734,2.073,2.073,0,0,1-3.217,2.614A4.1,4.1,0,0,0,78.685,41.2h-.057a4.151,4.151,0,0,0-2.821,1.108,3.163,3.163,0,0,0,.062,4.776,4.057,4.057,0,0,0,2.849,1.034h.027a2.073,2.073,0,0,1,.027,4.145Z" transform="translate(0 -21.696)" fill="#006ce5"/>
    <path id="Path_82248" data-name="Path 82248" d="M118.447,55.653a8.278,8.278,0,0,1-6.4-2.977,2.073,2.073,0,0,1,3.217-2.614,4.1,4.1,0,0,0,3.183,1.446h.057A3.718,3.718,0,0,0,122.381,48a3.71,3.71,0,0,0-3.91-3.408h-.086a2.073,2.073,0,1,1-.026-4.145h.112a7.85,7.85,0,0,1,8.055,7.5,7.859,7.859,0,0,1-7.97,7.71Zm-.061-22.126a2.073,2.073,0,0,1-2.073-2.073V26.023a2.073,2.073,0,0,1,4.145,0v5.433A2.073,2.073,0,0,1,118.386,33.528Z" transform="translate(-39.642 -14.023)" fill="#006ce5"/>
    <path id="Path_82249" data-name="Path 82249" d="M125.073,100.009A2.073,2.073,0,0,1,123,97.937V92.5a2.073,2.073,0,0,1,4.145,0v5.432A2.073,2.073,0,0,1,125.073,100.009Z" transform="translate(-46.329 -52.947)" fill="#006ce5"/>
  </g>
</svg>
