<svg xmlns="http://www.w3.org/2000/svg" width="35.638" height="38.244" viewBox="0 0 35.638 38.244">
  <g id="Group_26854" data-name="Group 26854" transform="translate(-17.446)">
    <path id="Path_82206" data-name="Path 82206" d="M87.842,130.479l-3.084,6.381H75.478v8.056H87.842Zm14.6,6.381H93.167l-3.084-6.381v14.438h12.364ZM86.91,117.336a2.053,2.053,0,1,0,2.053-2.053A2.055,2.055,0,0,0,86.91,117.336Z" transform="translate(-53.697 -106.672)" fill="#006ce5"/>
    <path id="Path_82207" data-name="Path 82207" d="M42.068,17.793l.367-4.348a14.118,14.118,0,0,0,.042-1.661H39.409a4.293,4.293,0,0,1-8.289,0H28.053a14.149,14.149,0,0,0,.042,1.661l.367,4.348ZM28.31,9.543h2.811a4.293,4.293,0,0,1,8.289,0H42.22A14.047,14.047,0,0,0,35.265,0,14.047,14.047,0,0,0,28.31,9.543Zm1.344,18.4,3.825-7.913H21.356l-3.91,7.913Zm19.519-7.913H37.051l3.825,7.913H53.084Z" fill="#006ce5"/>
  </g>
</svg>
