<svg id="Group_26840" data-name="Group 26840" xmlns="http://www.w3.org/2000/svg" width="87.656" height="87.656" viewBox="0 0 87.656 87.656">
  <path id="Path_82165" data-name="Path 82165" d="M51.7,20.544H63.48L47.32,36.705l3.631,3.631,16.161-16.16V35.953h5.136V15.408H51.7ZM77.384,0V5.136H82.52v5.136h5.136V0ZM82.52,66.769H77.384v5.136H87.656V61.633H82.52Zm0-51.361h5.136V25.681H82.52Zm0,15.408h5.136V41.089H82.52Zm0,15.408h5.136V56.5H82.52ZM20.887,5.136h5.136V0H15.751V10.272h5.136ZM15.751,15.408h5.136V25.681H15.751Zm0,15.408h5.136V41.089H15.751ZM31.159,0H41.431V5.136H31.159ZM46.567,0H56.84V5.136H46.567ZM61.976,0H72.248V5.136H61.976ZM46.567,66.769H56.84v5.136H46.567Zm15.408,0H72.248v5.136H61.976ZM0,87.656H41.089V46.567H0ZM5.136,51.7H35.953V82.52H5.136Zm0,0" fill="#006ce5"/>
</svg>
