<svg xmlns="http://www.w3.org/2000/svg" width="39.744" height="39.743" viewBox="0 0 39.744 39.743">
  <g id="Group_26831" data-name="Group 26831" transform="translate(-0.001 -0.007)">
    <path id="Path_82149" data-name="Path 82149" d="M184.209,186.36c0-.009,0-.019,0-.028v-15.1a1.164,1.164,0,0,1,.5-.955,6.3,6.3,0,0,0,.182-10.216V161.4a1.164,1.164,0,0,1-.347.829l-2.615,2.579a1.164,1.164,0,0,1-1.635,0l-2.615-2.579a1.164,1.164,0,0,1-.347-.829v-1.343a6.3,6.3,0,0,0,.182,10.216,1.164,1.164,0,0,1,.5.955v15.13a.894.894,0,0,0,.8.886,20.242,20.242,0,0,0,4.6,0A.894.894,0,0,0,184.209,186.36Z" transform="translate(-161.239 -147.626)" fill="#006ce5"/>
    <path id="Path_82150" data-name="Path 82150" d="M38.728,16.781a3.207,3.207,0,0,1-3.05-2.189,16.614,16.614,0,0,0-.889-2.147,3.209,3.209,0,0,1,.606-3.706.9.9,0,0,0,.061-1.189A20.016,20.016,0,0,0,32.2,4.3a.9.9,0,0,0-1.189.061,3.209,3.209,0,0,1-3.706.606,16.63,16.63,0,0,0-2.147-.889,3.207,3.207,0,0,1-2.189-3.048.894.894,0,0,0-.8-.886,20.234,20.234,0,0,0-4.6,0,.894.894,0,0,0-.8.884,3.207,3.207,0,0,1-2.189,3.05,16.622,16.622,0,0,0-2.147.889,3.209,3.209,0,0,1-3.706-.606A.9.9,0,0,0,7.543,4.3,20.012,20.012,0,0,0,4.289,7.549a.9.9,0,0,0,.061,1.189,3.209,3.209,0,0,1,.606,3.706,16.63,16.63,0,0,0-.889,2.147,3.207,3.207,0,0,1-3.048,2.189.894.894,0,0,0-.886.8,20.146,20.146,0,0,0,0,4.6.894.894,0,0,0,.884.8,3.207,3.207,0,0,1,3.05,2.189,16.622,16.622,0,0,0,.889,2.147,3.209,3.209,0,0,1-.606,3.706.9.9,0,0,0-.061,1.189,20.016,20.016,0,0,0,3.253,3.253A.9.9,0,0,0,8.732,35.4a3.208,3.208,0,0,1,3.706-.606,16.624,16.624,0,0,0,2.007.841V24.183a8.632,8.632,0,0,1,2.4-14.8,1.165,1.165,0,0,1,1.572,1.091v2.81l1.451,1.431,1.451-1.431v-2.81A1.164,1.164,0,0,1,22.9,9.386a8.631,8.631,0,0,1,2.4,14.8V35.636a16.618,16.618,0,0,0,2.007-.841,3.209,3.209,0,0,1,3.706.606.9.9,0,0,0,1.189.061,20.015,20.015,0,0,0,3.253-3.253.9.9,0,0,0-.061-1.189,3.209,3.209,0,0,1-.606-3.706,16.623,16.623,0,0,0,.889-2.147,3.207,3.207,0,0,1,3.048-2.189h0a.894.894,0,0,0,.884-.8,20.148,20.148,0,0,0,0-4.6.894.894,0,0,0-.884-.8Z" transform="translate(0 0)" fill="#006ce5"/>
  </g>
</svg>
