<svg xmlns="http://www.w3.org/2000/svg" xmlns:xlink="http://www.w3.org/1999/xlink" width="95.297" height="96.297" viewBox="0 0 95.297 96.297">
  <defs>
    <clipPath id="clip-path">
      <path id="Path_82241" data-name="Path 82241" d="M0-682.665H95.3v96.3H0Z" transform="translate(0 682.665)" fill="#006ce5"/>
    </clipPath>
  </defs>
  <g id="Group_26865" data-name="Group 26865" transform="translate(0 -0.002)">
    <g id="Group_26864" data-name="Group 26864" transform="translate(0 0.002)" clip-path="url(#clip-path)">
      <path id="Path_82223" data-name="Path 82223" d="M-371.173-408.091a37.472,37.472,0,0,1-26.659-11.092,37.945,37.945,0,0,1-11.012-26.865,37.945,37.945,0,0,1,11.012-26.864,37.156,37.156,0,0,1,26.586-11.128,37.156,37.156,0,0,1,26.586,11.128,38.46,38.46,0,0,1,4.973,47.529,1.85,1.85,0,0,1-2.575.553,1.893,1.893,0,0,1-.547-2.6,34.65,34.65,0,0,0-4.483-42.82,33.477,33.477,0,0,0-23.953-10.026A33.477,33.477,0,0,0-395.2-470.252a34.188,34.188,0,0,0-9.922,24.2,34.188,34.188,0,0,0,9.922,24.2,33.749,33.749,0,0,0,42.413,4.506,1.85,1.85,0,0,1,2.575.55,1.893,1.893,0,0,1-.544,2.6A37.076,37.076,0,0,1-371.173-408.091Z" transform="translate(428.946 502.422)" fill="#006ce5"/>
      <path id="Path_82224" data-name="Path 82224" transform="translate(82.969 81.909)" fill="#006ce5"/>
      <path id="Path_82225" data-name="Path 82225" d="M-177.965-341.99a29.059,29.059,0,0,1-28.874-29.177,29.059,29.059,0,0,1,28.874-29.177,29.059,29.059,0,0,1,28.874,29.177A29.059,29.059,0,0,1-177.965-341.99Zm0-54.592a25.313,25.313,0,0,0-25.151,25.415,25.313,25.313,0,0,0,25.151,25.415,25.313,25.313,0,0,0,25.151-25.415A25.313,25.313,0,0,0-177.965-396.581Z" transform="translate(235.664 427.541)" fill="#006ce5"/>
      <path id="Path_82226" data-name="Path 82226" d="M-25.6-64.544H-39a6.369,6.369,0,0,1-6.328-6.395A6.369,6.369,0,0,1-39-77.333h13.4a6.369,6.369,0,0,1,6.328,6.395A6.369,6.369,0,0,1-25.6-64.544ZM-39-73.572a2.622,2.622,0,0,0-2.606,2.633A2.623,2.623,0,0,0-39-68.305h13.4A2.623,2.623,0,0,0-23-70.938,2.622,2.622,0,0,0-25.6-73.572Z" transform="translate(89.975 79.263)" fill="#006ce5"/>
      <path id="Path_82227" data-name="Path 82227" d="M-89.957-54.782a1.871,1.871,0,0,1-1.861-1.881v-5.544h-9.011v5.544a1.871,1.871,0,0,1-1.861,1.881,1.871,1.871,0,0,1-1.861-1.881v-7.425a1.871,1.871,0,0,1,1.861-1.881h12.734A1.871,1.871,0,0,1-88.1-64.087v7.425A1.871,1.871,0,0,1-89.957-54.782Z" transform="translate(153.995 76.926)" fill="#006ce5"/>
      <path id="Path_82228" data-name="Path 82228" d="M-11.472-68.407a1.846,1.846,0,0,1-1.316-.551,1.9,1.9,0,0,1,0-2.66l9.562-9.662a1.848,1.848,0,0,1,2.632,0,1.9,1.9,0,0,1,0,2.66l-9.562,9.662A1.846,1.846,0,0,1-11.472-68.407Z" transform="translate(72.699 123.097)" fill="#006ce5"/>
      <path id="Path_82229" data-name="Path 82229" d="M-7.55-41.432a5.821,5.821,0,0,1,5.784,5.844A5.821,5.821,0,0,1-7.55-29.743a5.821,5.821,0,0,1-5.784-5.844A5.821,5.821,0,0,1-7.55-41.432Zm0,7.927a2.074,2.074,0,0,0,2.061-2.083A2.074,2.074,0,0,0-7.55-37.67a2.074,2.074,0,0,0-2.061,2.083A2.074,2.074,0,0,0-7.55-33.5Z" transform="translate(65.249 91.962)" fill="#006ce5"/>
      <path id="Path_82230" data-name="Path 82230" d="M-22.1-9.572h-1.724a1.871,1.871,0,0,1-1.861-1.881,1.871,1.871,0,0,1,1.861-1.881H-22.1a1.871,1.871,0,0,1,1.861,1.881A1.871,1.871,0,0,1-22.1-9.572Z" transform="translate(99.7 67.85)" fill="#006ce5"/>
      <path id="Path_82231" data-name="Path 82231" d="M-9.748-9.572h-1.724a1.871,1.871,0,0,1-1.861-1.881,1.871,1.871,0,0,1,1.861-1.881h1.724a1.871,1.871,0,0,1,1.861,1.881A1.871,1.871,0,0,1-9.748-9.572Z" transform="translate(49.271 67.804)" fill="#006ce5"/>
      <path id="Path_82232" data-name="Path 82232" d="M-11.472-7.829A1.871,1.871,0,0,1-13.333-9.71v-1.742a1.871,1.871,0,0,1,1.861-1.881,1.871,1.871,0,0,1,1.861,1.881V-9.71A1.871,1.871,0,0,1-11.472-7.829Z" transform="translate(69.194 47.718)" fill="#006ce5"/>
      <path id="Path_82233" data-name="Path 82233" d="M-11.472-20.181a1.871,1.871,0,0,1-1.861-1.881V-23.8a1.871,1.871,0,0,1,1.861-1.881A1.871,1.871,0,0,1-9.611-23.8v1.742A1.871,1.871,0,0,1-11.472-20.181Z" transform="translate(69.149 98.546)" fill="#006ce5"/>
      <path id="Path_82234" data-name="Path 82234" d="M-42.617-40.664a1.846,1.846,0,0,1-1.316-.551l-5.053-5.106a1.9,1.9,0,0,1,0-2.66,1.848,1.848,0,0,1,2.632,0l5.053,5.106a1.9,1.9,0,0,1,0,2.66A1.846,1.846,0,0,1-42.617-40.664Z" transform="translate(97.373 95.945)" fill="#006ce5"/>
      <path id="Path_82236" data-name="Path 82236" d="M-99.533-9.572H-113.82a1.871,1.871,0,0,1-1.861-1.881,1.871,1.871,0,0,1,1.861-1.881h14.287a1.871,1.871,0,0,1,1.861,1.881A1.871,1.871,0,0,1-99.533-9.572Z" transform="translate(123.126 79.432)" fill="#006ce5"/>
      <path id="Path_82237" data-name="Path 82237" d="M-73.422-9.572H-83.473a1.871,1.871,0,0,1-1.861-1.881,1.871,1.871,0,0,1,1.861-1.881h10.051a1.871,1.871,0,0,1,1.861,1.881A1.871,1.871,0,0,1-73.422-9.572Z" transform="translate(95.385 68.442)" fill="#006ce5"/>
      <path id="Path_82238" data-name="Path 82238" d="M-142.361-9.572H-163.6a1.871,1.871,0,0,1-1.861-1.881,1.871,1.871,0,0,1,1.861-1.881h21.236a1.871,1.871,0,0,1,1.861,1.881A1.871,1.871,0,0,1-142.361-9.572Z" transform="translate(165.458 57.451)" fill="#006ce5"/>
      <path id="Path_82239" data-name="Path 82239" d="M-93.223-9.572h-13.264a1.871,1.871,0,0,1-1.861-1.881,1.871,1.871,0,0,1,1.861-1.881h13.264a1.871,1.871,0,0,1,1.861,1.881A1.871,1.871,0,0,1-93.223-9.572Z" transform="translate(121.035 46.46)" fill="#006ce5"/>
      <path id="Path_82240" data-name="Path 82240" transform="translate(1.861 67.98)" fill="#006ce5"/>
    </g>
  </g>
</svg>
