<svg xmlns="http://www.w3.org/2000/svg" width="95.924" height="87.203" viewBox="0 0 95.924 87.203">
  <g id="Group_26848" data-name="Group 26848" transform="translate(-2.325 -4.038)">
    <circle id="Ellipse_890" data-name="Ellipse 890" cx="2.179" cy="2.179" r="2.179" transform="translate(3.628 63.115)" fill="#006ce5"/>
    <path id="Path_82182" data-name="Path 82182" d="M16.615,53.355a21.8,21.8,0,0,0-7.862,5.114,2.181,2.181,0,0,0,3.105,3.061A17.181,17.181,0,0,1,24.126,56.36,17.666,17.666,0,0,1,41.566,74.223c0,1.475-1.244,2.5-2.92,3.384-3.517,1.859-9.025,2.735-14.521,2.735s-11-.876-14.521-2.735c-1.676-.885-2.92-1.909-2.92-3.384A18.639,18.639,0,0,1,6.831,71.9a2.18,2.18,0,1,0-4.325-.551,22.839,22.839,0,0,0-.181,2.878c0,2.953,1.889,5.465,5.243,7.239,4.016,2.122,10.283,3.24,16.558,3.24s12.542-1.118,16.558-3.24c3.353-1.774,5.243-4.286,5.243-7.239a22.226,22.226,0,0,0-14.29-20.868,10.9,10.9,0,1,0-15.022,0Zm7.511-14.436a6.544,6.544,0,0,1,0,13.08,6.544,6.544,0,0,1,0-13.08ZM68.937,59.9a22.227,22.227,0,0,0-14.29,20.868c0,2.95,1.889,5.465,5.243,7.236,4.016,2.125,10.283,3.24,16.558,3.24S88.99,90.126,93.006,88c3.353-1.772,5.243-4.286,5.243-7.236A22.224,22.224,0,0,0,83.959,59.9a10.9,10.9,0,1,0-15.022,0Zm7.511,3A17.666,17.666,0,0,1,93.888,80.765c0,1.475-1.244,2.5-2.92,3.382-3.517,1.861-9.025,2.735-14.521,2.735s-11-.874-14.521-2.735c-1.676-.885-2.92-1.907-2.92-3.382A17.663,17.663,0,0,1,76.448,62.9Zm0-17.441A6.544,6.544,0,1,1,70.111,52a6.544,6.544,0,0,1,6.337-6.54ZM42.656,25.839v3.268a5.45,5.45,0,0,0,5.452,5.452H63.8l5.992,3.994a2.179,2.179,0,0,0,3.388-1.813V26.928a2.179,2.179,0,0,0-4.358,0v5.737l-3.151-2.1a2.179,2.179,0,0,0-1.212-.366H48.108a1.086,1.086,0,0,1-1.092-1.089V25.839h5.452a5.45,5.45,0,0,0,5.447-5.45V17.116h9.812a1.086,1.086,0,0,1,1.089,1.089v2.179a2.18,2.18,0,0,0,4.36,0V18.206a5.45,5.45,0,0,0-5.45-5.447h-9.81V9.49a5.45,5.45,0,0,0-5.45-5.452H32.846a5.45,5.45,0,0,0-5.45,5.45V28.02a2.179,2.179,0,0,0,3.391,1.813l5.99-3.994Zm10.9-16.351v10.9a1.086,1.086,0,0,1-1.089,1.089H36.117a2.179,2.179,0,0,0-1.212.366l-3.149,2.1V9.488A1.086,1.086,0,0,1,32.846,8.4H52.468a1.086,1.086,0,0,1,1.089,1.089Z" transform="translate(0)" fill="#006ce5" fill-rule="evenodd"/>
  </g>
</svg>
