<svg xmlns="http://www.w3.org/2000/svg" width="36.588" height="38.748" viewBox="0 0 36.588 38.748">
  <g id="Group_26845" data-name="Group 26845" transform="translate(-58.242 -46.922)">
    <path id="Path_82178" data-name="Path 82178" d="M81.666,77.922a.639.639,0,0,1,.037.122.622.622,0,0,1,.013.129.614.614,0,0,1-.013.128.664.664,0,0,1-.037.123.678.678,0,0,1-.061.113.634.634,0,0,1-.081.1.667.667,0,0,1-.337.18.629.629,0,0,1-.256,0,.654.654,0,0,1-.123-.038.642.642,0,0,1-.213-.142.6.6,0,0,1-.081-.1.677.677,0,0,1-.061-.113.663.663,0,0,1-.037-.123.614.614,0,0,1-.013-.128.628.628,0,0,1,.013-.129.636.636,0,0,1,.037-.122.616.616,0,0,1,.061-.113.642.642,0,0,1,.081-.1.689.689,0,0,1,.1-.082.679.679,0,0,1,.236-.1.64.64,0,0,1,.256,0,.715.715,0,0,1,.123.038.7.7,0,0,1,.113.06.64.64,0,0,1,.181.182.628.628,0,0,1,.061.113ZM94.8,74.244a1.068,1.068,0,0,0-.223-.461,1.369,1.369,0,0,0-.775-.439.835.835,0,0,0-.269-.019.826.826,0,0,0-.256.072L81.625,78.637a.079.079,0,0,0-.043.045,3.257,3.257,0,0,1-1.411,1.639l-.043.023a3.249,3.249,0,0,1-2.431.307l-8.53-2.286a.656.656,0,1,1,.339-1.267l8.531,2.286a1.947,1.947,0,0,0,1.448-.177l.031-.019A1.946,1.946,0,0,0,80.426,78h0a1.947,1.947,0,0,0-.178-1.447l0,0-.016-.027a1.946,1.946,0,0,0-1.183-.911l-8.339-2.234a.079.079,0,0,0-.043,0l-4.578,1.267a.081.081,0,0,0-.06.079V83.77a.082.082,0,0,0,.1.079L69.252,83a2.091,2.091,0,0,1,1.139,0h0L79.1,85.438a.836.836,0,0,0,.354.024.822.822,0,0,0,.325-.128l14.1-9.191.039-.028.012-.009.005,0,.018-.016h0a2.34,2.34,0,0,0,.835-1.251,1.384,1.384,0,0,0,.008-.59ZM64.49,73.533a.756.756,0,0,0-.535-.223H59a.763.763,0,0,0-.759.759V84.911A.763.763,0,0,0,59,85.67h4.954a.756.756,0,0,0,.535-.223.767.767,0,0,0,.157-.227.749.749,0,0,0,.066-.308V74.068a.749.749,0,0,0-.1-.373A.771.771,0,0,0,64.49,73.533Zm2.4-13.476v-9.09a4.057,4.057,0,0,1,4.045-4.045H85.9a4.057,4.057,0,0,1,4.045,4.045v9.09A4.057,4.057,0,0,1,85.9,64.1H76.481a.079.079,0,0,0-.058.024l-5.459,5.459a.082.082,0,0,1-.14-.058V64.18a.082.082,0,0,0-.078-.082,4.058,4.058,0,0,1-3.859-4.041Zm15.372-4.545a1.88,1.88,0,1,0,.551-1.329A1.874,1.874,0,0,0,82.258,55.512Zm-5.725,0a1.88,1.88,0,1,0,.551-1.329A1.874,1.874,0,0,0,76.533,55.512Zm-5.725,0a1.88,1.88,0,1,0,.551-1.329A1.874,1.874,0,0,0,70.808,55.512Z" transform="translate(0 0)" fill="#006ce5" fill-rule="evenodd"/>
  </g>
</svg>
