<svg xmlns="http://www.w3.org/2000/svg" width="95.442" height="95.434" viewBox="0 0 95.442 95.434">
  <g id="Group_26838" data-name="Group 26838" transform="translate(0.1)">
    <path id="Path_82159" data-name="Path 82159" d="M16.433,44.866a11.333,11.333,0,0,0,0-22.666,11.333,11.333,0,0,0,0,22.666Zm0-18.689a7.356,7.356,0,0,1,0,14.713,7.356,7.356,0,0,1,0-14.713Z" transform="translate(5.139 21.938)" fill="#006ce5"/>
    <path id="Path_82160" data-name="Path 82160" d="M32.706,44.856a2.154,2.154,0,0,0-2.187,0,15.859,15.859,0,0,1-18.093,0,1.79,1.79,0,0,0-2.187,0A21.528,21.528,0,0,0-.1,63.148c0,13.321,42.945,13.52,42.945,0A20.722,20.722,0,0,0,32.706,44.856ZM4.075,63.148a17.708,17.708,0,0,1,7.356-14.315,19.561,19.561,0,0,0,20.28,0,17.708,17.708,0,0,1,7.356,14.315C39.068,71.3,4.075,71.3,4.075,63.148ZM85.195,22.787a2.154,2.154,0,0,0-2.187,0,15.859,15.859,0,0,1-18.093,0,1.79,1.79,0,0,0-2.187,0A21.528,21.528,0,0,0,52.389,41.079c0,13.719,42.945,13.321,42.945,0a20.5,20.5,0,0,0-10.14-18.292ZM56.564,41.079a17.708,17.708,0,0,1,7.356-14.315,19.561,19.561,0,0,0,20.28,0,17.708,17.708,0,0,1,7.356,14.315C91.557,49.23,56.564,49.23,56.564,41.079Z" transform="translate(0 22.147)" fill="#006ce5"/>
    <path id="Path_82161" data-name="Path 82161" d="M62.629,33.4A11.333,11.333,0,1,0,73.962,22.069,11.457,11.457,0,0,0,62.629,33.4Zm11.333-7.356A7.356,7.356,0,1,1,66.605,33.4,7.47,7.47,0,0,1,73.962,26.046Zm-34-7.356A15.568,15.568,0,0,0,24.853,0,15.445,15.445,0,0,0,9.543,15.309v.4a10.149,10.149,0,0,0,.6,20.28H40.957a8.826,8.826,0,0,0,8.748-8.748,8.575,8.575,0,0,0-9.742-8.549Zm.994,13.321H10.14a6.163,6.163,0,1,1,0-12.327c1.193,0,1.988.6,2.982-.4s.4-1.988.4-3.976a11.415,11.415,0,1,1,21.075,6.163,1.885,1.885,0,0,0,.4,2.585,1.859,1.859,0,0,0,2.585-.2,4.664,4.664,0,0,1,7.953,3.38,4.546,4.546,0,0,1-4.573,4.772ZM54.676,17.7a1.922,1.922,0,0,0,0-2.784L51.1,11.333c10.538.2,13.122,1.392,13.918,6.163a1.912,1.912,0,1,0,3.778-.6C67.4,8.351,61.038,7.555,50.9,7.356l3.778-3.778a1.922,1.922,0,0,0,0-2.784,1.922,1.922,0,0,0-2.784,0L44.934,7.953a1.922,1.922,0,0,0,0,2.784L51.892,17.7A2.389,2.389,0,0,0,54.676,17.7ZM73.962,80.523H64.021a1.988,1.988,0,1,0,0,3.976H69.19c-7.555,7.356-10.14,8.351-14.116,5.368a1.988,1.988,0,1,0-2.386,3.181,10.507,10.507,0,0,0,6.163,2.386c4.175,0,8.152-3.38,13.122-8.152v5.368a2.138,2.138,0,0,0,1.988,1.988,1.992,1.992,0,0,0,1.988-1.988V82.511a1.992,1.992,0,0,0-1.988-1.988Z" transform="translate(0.099)" fill="#006ce5"/>
  </g>
</svg>
