<svg xmlns="http://www.w3.org/2000/svg" width="38.75" height="38.75" viewBox="0 0 38.75 38.75">
  <g id="Group_26832" data-name="Group 26832" transform="translate(-7.174 -7.174)">
    <path id="Path_82151" data-name="Path 82151" d="M30.3,28.8a2.6,2.6,0,0,0-2.121,2.665c0,1.233.642,2.073,1.727,2.073.148,0,.3-.049.395-.049A2.394,2.394,0,0,0,31.88,32.2a5.231,5.231,0,0,0,.542-3.009V28.6a9.788,9.788,0,0,0-2.122.2Z" transform="translate(-4.612 -4.704)" fill="#006ce5"/>
    <path id="Path_82152" data-name="Path 82152" d="M26.549,7.174A19.375,19.375,0,1,0,45.924,26.549,19.4,19.4,0,0,0,26.549,7.174ZM27.81,21.625v-.4a3.712,3.712,0,0,0-.345-2.074,1.942,1.942,0,0,0-1.578-.741h-.2a2.256,2.256,0,0,0-2.121,1.729.624.624,0,0,1-.494.541l-2.763-.344a.462.462,0,0,1-.4-.592c.592-3.109,3.258-4.2,5.773-4.342h.593a6.635,6.635,0,0,1,4.293,1.431c1.381,1.282,1.233,3.009,1.233,4.885v4.441a3.7,3.7,0,0,0,1.086,2.618.533.533,0,0,1-.048.739c-.543.492-1.58,1.381-2.173,1.875a.691.691,0,0,1-.69.049,7.674,7.674,0,0,1-1.628-1.876A6.158,6.158,0,0,1,25.687,31.4a8.147,8.147,0,0,1-2.022.246A4.029,4.029,0,0,1,19.42,27.25a4.741,4.741,0,0,1,3.06-4.638,10.945,10.945,0,0,1,3.207-.791c.741-.1,1.481-.148,2.123-.2ZM34.939,34.7a7.922,7.922,0,0,1-.9.62l-.014.01a16.425,16.425,0,0,1-7.994,2.422c-.084,0-.166,0-.247,0-4.176,0-7.282-2.288-10.117-4.748a.6.6,0,0,1-.236-.46.521.521,0,0,1,.162-.375.557.557,0,0,1,.376-.144.693.693,0,0,1,.319.084c3.02,1.676,6.012,3.378,9.679,3.376.084,0,.171,0,.256,0a20.861,20.861,0,0,0,7.252-1.594v0L33.7,33.8l.17-.07c.115-.049.237-.1.358-.152a.771.771,0,0,1,.332-.076.664.664,0,0,1,.682.642A.71.71,0,0,1,34.939,34.7Zm1.372,1.014a.667.667,0,0,1-.409.155H35.9a.465.465,0,0,1-.472-.474.59.59,0,0,1,.042-.217c.109-.286.272-.716.407-1.145a4.319,4.319,0,0,0,.236-1.1.443.443,0,0,0-.012-.123.617.617,0,0,0-.152-.052,2.474,2.474,0,0,0-.5-.041,9.046,9.046,0,0,0-.917.059c-.358.052-.665.081-.875.126l-.016,0-.02,0a.519.519,0,0,1-.4-.107.453.453,0,0,1-.164-.35.619.619,0,0,1,.28-.488,3.868,3.868,0,0,1,.785-.439V31.51l.243-.079.008,0,.431-.144v.029a5.874,5.874,0,0,1,1.238-.13,3.791,3.791,0,0,1,1.288.182.778.778,0,0,1,.3.194l.012.014.01.014a1.054,1.054,0,0,1,.155.56l0,.14a5.052,5.052,0,0,1-1.487,3.43Z" fill="#006ce5"/>
  </g>
</svg>
