<svg xmlns="http://www.w3.org/2000/svg" width="33.569" height="39.743" viewBox="0 0 33.569 39.743">
  <g id="Group_26843" data-name="Group 26843" transform="translate(0.67 -1)">
    <g id="Group_26844" data-name="Group 26844" transform="translate(-4)">
      <path id="Path_82176" data-name="Path 82176" d="M3.33,7.6V31.323a6.614,6.614,0,0,0,6.6,6.6h8.929a9.294,9.294,0,0,1,.782-2.649,10.11,10.11,0,0,1,5.4-5.193,6.486,6.486,0,0,1-2.8-5.352A6.564,6.564,0,0,1,28.8,18.169a6.25,6.25,0,0,1,1.868.278,6.5,6.5,0,0,1,2.649,1.537V7.6a6.6,6.6,0,0,0-6.6-6.6H9.927a6.606,6.606,0,0,0-6.6,6.6Zm8-.026H25.321a1.325,1.325,0,1,1,0,2.649H11.331a1.325,1.325,0,1,1,0-2.649Zm0,7.048H25.321a1.325,1.325,0,0,1,0,2.649H11.331a1.325,1.325,0,1,1,0-2.649Zm0,7.034H17.69a1.325,1.325,0,0,1,0,2.649H11.331a1.325,1.325,0,1,1,0-2.649Z" fill="#006ce5"/>
      <circle id="Ellipse_889" data-name="Ellipse 889" cx="4.57" cy="4.57" r="4.57" transform="translate(24.234 20.156)" fill="#006ce5"/>
      <path id="Path_82177" data-name="Path 82177" d="M17.785,33.307H31.31a1.329,1.329,0,0,0,1.325-1.325,8.088,8.088,0,0,0-16.175,0A1.329,1.329,0,0,0,17.785,33.307Z" transform="translate(4.264 7.436)" fill="#006ce5"/>
    </g>
  </g>
</svg>
