<svg xmlns="http://www.w3.org/2000/svg" width="38.887" height="38.887" viewBox="0 0 38.887 38.887">
  <g id="Group_26860" data-name="Group 26860" transform="translate(-2 -2)">
    <path id="Path_82215" data-name="Path 82215" d="M17.224,36.291a.694.694,0,0,1-.642.429H13.11V39.5a1.389,1.389,0,0,1-1.389,1.389H10.333A1.389,1.389,0,0,1,8.944,39.5V36.72H5.472a.694.694,0,0,1-.492-1.186l5.555-5.555a.692.692,0,0,1,.982,0l5.555,5.555a.7.7,0,0,1,.151.757Zm20.832,0a.694.694,0,0,1-.642.429H33.943V39.5a1.389,1.389,0,0,1-1.389,1.389H31.165A1.389,1.389,0,0,1,29.776,39.5V36.72H26.3a.694.694,0,0,1-.492-1.186l5.555-5.555a.692.692,0,0,1,.982,0L37.9,35.534a.7.7,0,0,1,.151.757Zm-5.5-24.569-.1,0a11.1,11.1,0,0,0-22.029,0l-.1,0a8.333,8.333,0,1,0,5.557,14.53,8.291,8.291,0,0,0,11.109,0,8.329,8.329,0,1,0,5.555-14.531Z" fill="#006ce5"/>
  </g>
</svg>
