<svg xmlns="http://www.w3.org/2000/svg" width="60.82" height="60.754" viewBox="0 0 60.82 60.754">
  <g id="Group_26835" data-name="Group 26835" transform="translate(0 -0.277)">
    <path id="Path_82156" data-name="Path 82156" d="M51.82,12.62A14.5,14.5,0,0,0,37.772,1.645a14.345,14.345,0,0,0-7.261,1.944A12.691,12.691,0,0,0,9.278,12.54a12.686,12.686,0,0,0,3.407,24.9h35.45A12.686,12.686,0,0,0,51.82,12.62ZM19.125,41.009V44.4H12.818a6.533,6.533,0,1,0,0,3.564h8.089a1.782,1.782,0,0,0,1.782-1.782V41.009Zm13.067,7.2v-7.2H28.628v7.2a6.533,6.533,0,1,0,3.564,0Zm22.095-8.564A6.544,6.544,0,0,0,48,44.4H41.695V41.009H38.131v5.173a1.782,1.782,0,0,0,1.782,1.782H48a6.533,6.533,0,1,0,6.285-8.315Z" fill="#006ce5"/>
  </g>
</svg>
