<svg id="Group_26839" data-name="Group 26839" xmlns="http://www.w3.org/2000/svg" width="88.193" height="88.193" viewBox="0 0 88.193 88.193">
  <path id="Path_82162" data-name="Path 82162" d="M257.837,281.008h29.4a1.837,1.837,0,1,0,0-3.675h-29.4a1.837,1.837,0,0,0,0,3.675Z" transform="translate(-211.903 -229.562)" fill="#006ce5"/>
  <path id="Path_82163" data-name="Path 82163" d="M88.193,34.91V27.56a9.106,9.106,0,0,0-1.4-4.825,1.443,1.443,0,0,0-.051-.136L75.376,4.336A9.136,9.136,0,0,0,67.575,0H20.623a9.132,9.132,0,0,0-7.8,4.336L1.459,22.6c-.022.037-.022.077-.044.118A9.093,9.093,0,0,0,0,27.56v7.35a9.153,9.153,0,0,0,3.734,7.35A9.147,9.147,0,0,0,0,49.609v7.35a9.153,9.153,0,0,0,3.734,7.35A9.147,9.147,0,0,0,0,71.657v7.35a9.2,9.2,0,0,0,9.187,9.187H33.278a1.837,1.837,0,1,0,0-3.675H9.187a5.519,5.519,0,0,1-5.512-5.512V71.657a5.516,5.516,0,0,1,5.512-5.512H39.922a1.837,1.837,0,0,0,0-3.675H9.187a5.519,5.519,0,0,1-5.512-5.512V49.609A5.516,5.516,0,0,1,9.187,44.1h69.82a5.519,5.519,0,0,1,5.512,5.512v7.35a5.465,5.465,0,0,1-.581,2.4,1.837,1.837,0,0,0,3.3,1.617,9.038,9.038,0,0,0,.955-4.02v-7.35a9.153,9.153,0,0,0-3.734-7.35A9.158,9.158,0,0,0,88.193,34.91ZM15.941,6.276a5.473,5.473,0,0,1,4.678-2.6H67.571a5.484,5.484,0,0,1,4.682,2.6l7.581,12.182a7.666,7.666,0,0,0-.827-.085H9.187c-.283,0-.551.055-.827.081L15.941,6.276ZM84.519,34.91a5.519,5.519,0,0,1-5.512,5.512H9.187A5.519,5.519,0,0,1,3.675,34.91V27.56a5.516,5.516,0,0,1,5.512-5.512h69.82a5.516,5.516,0,0,1,5.512,5.512v7.35Z" fill="#006ce5"/>
  <path id="Path_82164" data-name="Path 82164" d="M42.667,198.942a5.512,5.512,0,1,0,5.512-5.512A5.519,5.519,0,0,0,42.667,198.942Zm7.349,0a1.837,1.837,0,1,1-1.837-1.837A1.838,1.838,0,0,1,50.016,198.942Zm60.633-12.861c-.334,0-.669.018-1,.048A16.482,16.482,0,0,0,79.5,193.6a9.187,9.187,0,0,0,1.753,18.2h29.4a12.862,12.862,0,1,0,0-25.723Zm0,22.048h-29.4a5.512,5.512,0,1,1,0-11.024,1.838,1.838,0,0,0,1.837-1.837,12.815,12.815,0,0,1,24.025-6.255,1.835,1.835,0,0,0,1.926.908,9.305,9.305,0,0,1,1.61-.165,9.187,9.187,0,0,1,0,18.374Zm0-58.8h-29.4a1.837,1.837,0,0,0,0,3.675h29.4a1.837,1.837,0,1,0,0-3.675Zm0,7.35h-29.4a1.837,1.837,0,0,0,0,3.675h29.4a1.837,1.837,0,1,0,0-3.675Zm-62.47-7.35a5.512,5.512,0,1,0,5.512,5.512A5.516,5.516,0,0,0,48.179,149.333Zm0,7.35a1.837,1.837,0,1,1,1.837-1.837A1.838,1.838,0,0,1,48.179,156.682Zm-5.512,20.211a5.512,5.512,0,1,0,5.512-5.512A5.519,5.519,0,0,0,42.667,176.893Zm7.349,0a1.837,1.837,0,1,1-1.837-1.837A1.838,1.838,0,0,1,50.016,176.893Z" transform="translate(-35.317 -123.61)" fill="#006ce5"/>
</svg>
