<svg xmlns="http://www.w3.org/2000/svg" width="37.104" height="30.92" viewBox="0 0 37.104 30.92">
  <g id="Group_26858" data-name="Group 26858" transform="translate(0 -42.666)">
    <path id="Path_82213" data-name="Path 82213" d="M34.012,47.3h-7.73V45.758a3.1,3.1,0,0,0-3.092-3.092H13.914a3.1,3.1,0,0,0-3.092,3.092V47.3H3.092A3.1,3.1,0,0,0,0,50.4v4.638a3.1,3.1,0,0,0,3.092,3.092H15.46v-.773a.773.773,0,0,1,.773-.773h4.638a.773.773,0,0,1,.773.773v.773H34.012A3.1,3.1,0,0,0,37.1,55.034V50.4A3.1,3.1,0,0,0,34.012,47.3Zm-10.822,0H13.914V45.758H23.19ZM36.675,58.96a.774.774,0,0,0-.811.076,3.052,3.052,0,0,1-1.853.636H21.644v2.319a.773.773,0,0,1-.773.773H16.233a.773.773,0,0,1-.773-.773V59.672H3.092a3.053,3.053,0,0,1-1.853-.636A.773.773,0,0,0,0,59.652V70.494a3.1,3.1,0,0,0,3.092,3.092h30.92A3.1,3.1,0,0,0,37.1,70.494V59.652a.773.773,0,0,0-.429-.692Z" fill="#006ce5"/>
  </g>
</svg>
