<svg xmlns="http://www.w3.org/2000/svg" width="118.245" height="108.391" viewBox="0 0 118.245 108.391">
  <g id="Group_26868" data-name="Group 26868" transform="translate(0 -2)">
    <path id="Path_82250" data-name="Path 82250" d="M94.842,75.9a23.4,23.4,0,0,0,.668-46.8A22.142,22.142,0,0,0,65.236,13.625,24.619,24.619,0,0,0,19.707,26.634a24.185,24.185,0,0,0,.16,2.749A23.393,23.393,0,0,0,23.4,75.9H36.951v8.834l-4.225,4.225a7.312,7.312,0,0,0-3.165-.741,7.39,7.39,0,1,0,7.39,7.39,7.267,7.267,0,0,0-.741-3.166L41.157,87.5a2.456,2.456,0,0,0,.722-1.742V75.9H56.659V96.063a7.39,7.39,0,1,0,4.927,0V75.9H76.366v9.854a2.453,2.453,0,0,0,.722,1.742l4.947,4.947a7.312,7.312,0,0,0-.741,3.165,7.39,7.39,0,1,0,7.39-7.39,7.267,7.267,0,0,0-3.165.741l-4.225-4.225V75.9ZM29.561,98.074a2.463,2.463,0,1,1,2.463-2.463A2.463,2.463,0,0,1,29.561,98.074Zm29.561,7.39A2.463,2.463,0,1,1,61.586,103,2.463,2.463,0,0,1,59.122,105.464ZM91.147,95.61a2.463,2.463,0,1,1-2.463-2.463A2.463,2.463,0,0,1,91.147,95.61ZM23.4,70.976a18.464,18.464,0,0,1-.576-36.919,2.464,2.464,0,0,0,2.325-3.013A19.686,19.686,0,0,1,62.014,17.956a2.468,2.468,0,0,0,3.424,1.057A17.212,17.212,0,0,1,91,31.864a2.463,2.463,0,0,0,2.444,2.158h1.4a18.476,18.476,0,1,1,0,36.951H23.4Z" transform="translate(0 0)" fill="#006ce5"/>
  </g>
</svg>
