<svg xmlns="http://www.w3.org/2000/svg" width="31.548" height="37.048" viewBox="0 0 31.548 37.048">
  <g id="Group_26855" data-name="Group 26855" transform="translate(0 0.001)">
    <path id="Path_82208" data-name="Path 82208" d="M127.5,158.457a7.059,7.059,0,1,0,7.059,7.059,7.067,7.067,0,0,0-7.059-7.059Zm4.191,5.729-5.057,5.057a1.086,1.086,0,0,1-1.537,0l-1.933-1.932a1.087,1.087,0,0,1,1.537-1.537l1.164,1.164,4.289-4.288a1.087,1.087,0,0,1,1.537,1.537Zm0,0" transform="translate(-111.726 -146.992)" fill="#006ce5"/>
    <path id="Path_82209" data-name="Path 82209" d="M31.511,10.051v-.029q-.025-.575-.033-1.151a3.926,3.926,0,0,0-3.7-3.847A15.237,15.237,0,0,1,17.41.654L17.386.631a2.371,2.371,0,0,0-3.222,0l-.024.023A15.238,15.238,0,0,1,3.769,5.025a3.926,3.926,0,0,0-3.7,3.847q-.008.576-.033,1.151l0,.067c-.083,4.344-.186,9.749,1.623,14.656a18.656,18.656,0,0,0,4.476,6.972A23.413,23.413,0,0,0,14.894,36.9a2.707,2.707,0,0,0,.359.1A2.652,2.652,0,0,0,16.3,37a2.711,2.711,0,0,0,.36-.1,23.428,23.428,0,0,0,8.749-5.183,18.682,18.682,0,0,0,4.476-6.973c1.815-4.921,1.713-10.337,1.63-14.689ZM15.774,27.756a9.233,9.233,0,1,1,9.233-9.233,9.243,9.243,0,0,1-9.233,9.233Zm0,0" transform="translate(0)" fill="#006ce5"/>
  </g>
</svg>
