<svg id="Group_26836" data-name="Group 26836" xmlns="http://www.w3.org/2000/svg" width="62.988" height="62.988" viewBox="0 0 62.988 62.988">
  <path id="Path_82157" data-name="Path 82157" d="M2,8.749A6.749,6.749,0,0,1,8.749,2h18a6.749,6.749,0,0,1,6.749,6.749V37.993a6.749,6.749,0,0,1-6.749,6.749H20v13.5a2.25,2.25,0,0,0,2.25,2.25H46.992a2.25,2.25,0,0,0,2.25-2.25V56.921l-.659.659A2.249,2.249,0,1,1,45.4,54.4l4.5-4.5a2.25,2.25,0,0,1,3.181,0l4.5,4.5A2.249,2.249,0,1,1,54.4,57.581l-.659-.659V58.24a6.749,6.749,0,0,1-6.749,6.749H22.246A6.749,6.749,0,0,1,15.5,58.24v-13.5H8.749A6.749,6.749,0,0,1,2,37.993Zm6.749,4.5A2.25,2.25,0,0,1,11,11h4.5a2.25,2.25,0,1,1,0,4.5H11A2.25,2.25,0,0,1,8.749,13.248Zm2.25,4.5a2.25,2.25,0,1,0,0,4.5H24.5a2.25,2.25,0,1,0,0-4.5Zm-2.25,9A2.25,2.25,0,0,1,11,24.5H24.5a2.25,2.25,0,1,1,0,4.5H11A2.25,2.25,0,0,1,8.749,26.745Zm2.25,4.5a2.25,2.25,0,1,0,0,4.5H24.5a2.25,2.25,0,1,0,0-4.5Z" transform="translate(-2 -2)" fill="#006ce5" fill-rule="evenodd"/>
  <path id="Path_82158" data-name="Path 82158" d="M23.749,2A6.749,6.749,0,0,0,17,8.749V37.993a6.749,6.749,0,0,0,6.749,6.749H39.5a6.749,6.749,0,0,0,6.749-6.749V8.749A6.749,6.749,0,0,0,39.5,2Z" transform="translate(16.744 -2)" fill="#006ce5"/>
</svg>
