<svg id="Group_26842" data-name="Group 26842" xmlns="http://www.w3.org/2000/svg" width="38.244" height="38.244" viewBox="0 0 38.244 38.244">
  <path id="Path_82169" data-name="Path 82169" d="M16.732,9.959V3.227c-.134-.011-.261-.04-.4-.04H2.789A2.792,2.792,0,0,0,0,5.976V17.927a1.2,1.2,0,0,0,1.856,1l4-2.656a1.951,1.951,0,0,1,1.093-.331h9.386a4.36,4.36,0,0,0,3.2-1.4,5.165,5.165,0,0,1-2.8-4.572Zm20.317,5.976a1.19,1.19,0,0,1-.663-.2l-3.977-2.652a1.974,1.974,0,0,0-1.1-.335H21.911a2.792,2.792,0,0,1-2.789-2.789V2.789A2.792,2.792,0,0,1,21.911,0H35.456a2.792,2.792,0,0,1,2.789,2.789V14.74A1.2,1.2,0,0,1,37.049,15.935Z" transform="translate(0)" fill="#006ce5"/>
  <circle id="Ellipse_887" data-name="Ellipse 887" cx="4.781" cy="4.781" r="4.781" transform="translate(3.984 19.122)" fill="#006ce5"/>
  <circle id="Ellipse_888" data-name="Ellipse 888" cx="4.781" cy="4.781" r="4.781" transform="translate(24.699 19.122)" fill="#006ce5"/>
  <path id="Path_82170" data-name="Path 82170" d="M13.146,19H4.382A4.385,4.385,0,0,0,0,23.382v2.39a1.2,1.2,0,0,0,1.2,1.2H16.333a1.2,1.2,0,0,0,1.2-1.2v-2.39A4.385,4.385,0,0,0,13.146,19Zm20.716,0H25.1a4.385,4.385,0,0,0-4.382,4.382v2.39a1.2,1.2,0,0,0,1.2,1.2H37.049a1.2,1.2,0,0,0,1.2-1.2v-2.39A4.385,4.385,0,0,0,33.862,19Z" transform="translate(0 11.277)" fill="#006ce5"/>
</svg>
