<svg xmlns="http://www.w3.org/2000/svg" xmlns:xlink="http://www.w3.org/1999/xlink" width="99.312" height="99.312" viewBox="0 0 99.312 99.312">
  <defs>
    <clipPath id="clip-path">
      <path id="Path_82204" data-name="Path 82204" d="M0-682.665H99.312v99.312H0Z" transform="translate(0 682.665)" fill="#006ce5"/>
    </clipPath>
  </defs>
  <g id="Group_26851" data-name="Group 26851" clip-path="url(#clip-path)">
    <path id="Path_82193" data-name="Path 82193" d="M35.677-267.2H-7.343a6,6,0,0,1-5.99-5.99v-28.862a1.94,1.94,0,0,1,1.94-1.94,1.94,1.94,0,0,1,1.94,1.94v28.862a2.113,2.113,0,0,0,2.111,2.111H34.863l.518-.527a7.941,7.941,0,0,1-.141-1.659,15.94,15.94,0,0,1,.1-1.785l-1.106-1.04a4.514,4.514,0,0,1-.691-5.4l1.528-2.644a4.519,4.519,0,0,1,5.023-2.107l1.588.412a12.7,12.7,0,0,1,2.962-1.761l.347-1.475a4.517,4.517,0,0,1,3.921-3.281v-55.131a2.113,2.113,0,0,0-2.111-2.111H-7.343a2.113,2.113,0,0,0-2.111,2.111v28.371a1.94,1.94,0,0,1-1.94,1.94,1.94,1.94,0,0,1-1.94-1.94v-28.371a6,6,0,0,1,5.99-5.99H46.8a6,6,0,0,1,5.99,5.99v57.051a1.94,1.94,0,0,1-1.94,1.94H49.33a.625.625,0,0,0-.6.457l-.437,1.575a3.7,3.7,0,0,1-2.107,2.425,11.841,11.841,0,0,0-2.322,1.345,3.7,3.7,0,0,1-3.158.611l-1.583-.411a.626.626,0,0,0-.693.293l-1.526,2.64a.623.623,0,0,0,.1.745l1.147,1.166A3.7,3.7,0,0,1,39.2-274.6a11.98,11.98,0,0,0-.076,1.344,11.967,11.967,0,0,0,.077,1.347,3.7,3.7,0,0,1-1.049,3.031l-1.087,1.107A1.94,1.94,0,0,1,35.677-267.2Z" transform="translate(21.941 353.468)" fill="#006ce5"/>
    <path id="Path_82194" data-name="Path 82194" d="M-200.5-113.868h-3.049a4.513,4.513,0,0,1-4.338-3.3l-.436-1.573a12.594,12.594,0,0,1-3.005-1.691l-1.452.44a4.509,4.509,0,0,1-1.129.144,4.515,4.515,0,0,1-3.9-2.25l-1.525-2.64a4.512,4.512,0,0,1,.692-5.409l1.145-1.164a12.7,12.7,0,0,1-.04-3.446l-1.106-1.038a4.511,4.511,0,0,1-.69-5.407l1.525-2.64a4.515,4.515,0,0,1,3.9-2.25,4.506,4.506,0,0,1,1.127.144l1.585.411a12.6,12.6,0,0,1,2.965-1.762l.344-1.474a4.513,4.513,0,0,1,4.338-3.3h3.048a4.516,4.516,0,0,1,4.338,3.3l.435,1.575a12.6,12.6,0,0,1,3,1.691l1.452-.44a4.513,4.513,0,0,1,1.13-.144,4.518,4.518,0,0,1,3.9,2.249l1.524,2.642a4.516,4.516,0,0,1-.688,5.406l-1.148,1.167a7.771,7.771,0,0,1,.142,1.659,15.788,15.788,0,0,1-.1,1.786l1.107,1.039a4.516,4.516,0,0,1,.689,5.407l-1.523,2.64a4.509,4.509,0,0,1-3.9,2.251,4.51,4.51,0,0,1-1.127-.143l-1.586-.412a12.6,12.6,0,0,1-2.965,1.762l-.342,1.474A4.517,4.517,0,0,1-200.5-113.868Zm-10.732-10.412a3.7,3.7,0,0,1,2.214.729,11.745,11.745,0,0,0,2.331,1.349,3.7,3.7,0,0,1,2.1,2.424l.436,1.574a.623.623,0,0,0,.6.457h3.048a.625.625,0,0,0,.6-.457l.434-1.572a3.705,3.705,0,0,1,2.1-2.426,11.731,11.731,0,0,0,2.325-1.345,3.754,3.754,0,0,1,2.219-.733,3.728,3.728,0,0,1,.942.121l1.58.41a.569.569,0,0,0,.155.02.628.628,0,0,0,.541-.313l1.522-2.638a.625.625,0,0,0-.1-.748l-1.147-1.165a3.707,3.707,0,0,1-1.049-3.029,11.859,11.859,0,0,0,.077-1.35,11.838,11.838,0,0,0-.076-1.346,3.712,3.712,0,0,1,1.051-3.036l1.145-1.164a.625.625,0,0,0,.094-.747l-1.523-2.64a.632.632,0,0,0-.7-.29l-1.582.411a3.719,3.719,0,0,1-.939.12,3.75,3.75,0,0,1-2.215-.73,11.755,11.755,0,0,0-2.33-1.348,3.7,3.7,0,0,1-2.1-2.425l-.435-1.574a.625.625,0,0,0-.6-.455h-3.047a.623.623,0,0,0-.6.456l-.436,1.575a3.7,3.7,0,0,1-2.1,2.424,11.739,11.739,0,0,0-2.326,1.345,3.754,3.754,0,0,1-2.218.733,3.728,3.728,0,0,1-.943-.121l-1.58-.41a.622.622,0,0,0-.155-.02.625.625,0,0,0-.539.312l-1.525,2.64a.622.622,0,0,0,.1.745l1.148,1.168a3.707,3.707,0,0,1,1.048,3.028,11.884,11.884,0,0,0,0,2.7,3.712,3.712,0,0,1-1.05,3.035l-1.144,1.163a.623.623,0,0,0-.1.747l1.525,2.64a.629.629,0,0,0,.7.291l1.582-.411A3.719,3.719,0,0,1-211.233-124.28Z" transform="translate(274.821 213.179)" fill="#006ce5"/>
    <path id="Path_82195" data-name="Path 82195" d="M-83.15-52.025a7.577,7.577,0,0,1,7.569,7.568,7.577,7.577,0,0,1-7.569,7.569,7.577,7.577,0,0,1-7.568-7.569A7.577,7.577,0,0,1-83.15-52.025Zm0,11.258a3.693,3.693,0,0,0,3.689-3.689,3.693,3.693,0,0,0-3.689-3.689,3.693,3.693,0,0,0-3.689,3.689A3.693,3.693,0,0,0-83.15-40.768Z" transform="translate(155.944 124.664)" fill="#006ce5"/>
    <path id="Path_82196" data-name="Path 82196" d="M146.162-587.488h10.87a1.94,1.94,0,0,1,1.94,1.94v10.87a1.94,1.94,0,0,1-1.94,1.94h-10.87a1.94,1.94,0,0,1-1.94-1.94v-10.87A1.94,1.94,0,0,1,146.162-587.488Zm8.93,3.879H148.1v6.99h6.99Zm-8.93,18.037h10.87a1.94,1.94,0,0,1,1.94,1.94v10.87a1.94,1.94,0,0,1-1.94,1.94h-10.87a1.94,1.94,0,0,1-1.94-1.94v-10.87A1.94,1.94,0,0,1,146.162-565.572Zm8.93,3.88H148.1v6.99h6.99Zm-8.93,18.037h10.87a1.94,1.94,0,0,1,1.94,1.94v10.87a1.94,1.94,0,0,1-1.94,1.94h-10.87a1.94,1.94,0,0,1-1.94-1.94v-10.87A1.94,1.94,0,0,1,146.162-543.656Zm8.93,3.879H148.1v6.99h6.99Z" transform="translate(-123.241 601.334)" fill="#006ce5"/>
    <path id="Path_82197" data-name="Path 82197" d="M4.134-9.454H-11.394a1.94,1.94,0,0,1-1.94-1.94,1.94,1.94,0,0,1,1.94-1.94H4.134a1.94,1.94,0,0,1,1.94,1.94A1.94,1.94,0,0,1,4.134-9.454Z" transform="translate(56.118 27.179)" fill="#006ce5"/>
    <path id="Path_82198" data-name="Path 82198" d="M-67.614-9.454h-9.571a1.94,1.94,0,0,1-1.94-1.94,1.94,1.94,0,0,1,1.94-1.94h9.571a1.94,1.94,0,0,1,1.94,1.94A1.94,1.94,0,0,1-67.614-9.454Z" transform="translate(121.91 35.443)" fill="#006ce5"/>
    <path id="Path_82199" data-name="Path 82199" d="M4.134-9.454H-11.394a1.94,1.94,0,0,1-1.94-1.94,1.94,1.94,0,0,1,1.94-1.94H4.134a1.94,1.94,0,0,1,1.94,1.94A1.94,1.94,0,0,1,4.134-9.454Z" transform="translate(56.118 49.172)" fill="#006ce5"/>
    <path id="Path_82200" data-name="Path 82200" d="M-1.822-9.454h-9.571a1.94,1.94,0,0,1-1.94-1.94,1.94,1.94,0,0,1,1.94-1.94h9.571a1.94,1.94,0,0,1,1.94,1.94A1.94,1.94,0,0,1-1.822-9.454Z" transform="translate(56.118 57.436)" fill="#006ce5"/>
    <path id="Path_82201" data-name="Path 82201" d="M4.134-9.454H-11.394a1.94,1.94,0,0,1-1.94-1.94,1.94,1.94,0,0,1,1.94-1.94H4.134a1.94,1.94,0,0,1,1.94,1.94A1.94,1.94,0,0,1,4.134-9.454Z" transform="translate(56.118 71.012)" fill="#006ce5"/>
    <path id="Path_82202" data-name="Path 82202" d="M-5.25-9.454h-6.143a1.94,1.94,0,0,1-1.94-1.94,1.94,1.94,0,0,1,1.94-1.94H-5.25a1.94,1.94,0,0,1,1.94,1.94A1.94,1.94,0,0,1-5.25-9.454Z" transform="translate(56.118 79.276)" fill="#006ce5"/>
    <circle id="Ellipse_891" data-name="Ellipse 891" cx="2" cy="2" r="2" transform="translate(8.051 41.05)" fill="#006ce5"/>
  </g>
</svg>
