<svg xmlns="http://www.w3.org/2000/svg" width="39" height="38.715" viewBox="0 0 39 38.715">
  <g id="Group_26830" data-name="Group 26830" transform="translate(-3.5 -3.7)">
    <path id="Path_82148" data-name="Path 82148" d="M37.428,12.669l-1.885-.78a7.747,7.747,0,0,0-.52-1.3L35.868,8.7a.593.593,0,0,0-.13-.715l-2.08-2.08a.593.593,0,0,0-.715-.13l-1.885.78a7.747,7.747,0,0,0-1.3-.52l-.78-1.885a.984.984,0,0,0-.715-.455h-2.99a.658.658,0,0,0-.585.39l-.78,1.885a7.747,7.747,0,0,0-1.3.52L20.724,5.78a.593.593,0,0,0-.715.13l-2.08,2.08a.593.593,0,0,0-.13.715l.845,1.885a7.747,7.747,0,0,0-.52,1.3l-1.95.78a.568.568,0,0,0-.39.585v2.99a.658.658,0,0,0,.39.585l1.885.78a7.747,7.747,0,0,0,.52,1.3l-.78,1.885a.593.593,0,0,0,.13.715l2.08,2.145a.593.593,0,0,0,.715.13l1.885-.845a10.837,10.837,0,0,0,1.3.52l.78,1.885a.568.568,0,0,0,.585.39h2.99a.568.568,0,0,0,.585-.39l.78-1.885a7.747,7.747,0,0,0,1.3-.52l1.885.78a.593.593,0,0,0,.715-.13l2.08-2.145a.593.593,0,0,0,.13-.715l-.845-1.885a7.746,7.746,0,0,0,.52-1.3l1.885-.78a.568.568,0,0,0,.39-.585v-2.99C37.818,12.994,37.688,12.8,37.428,12.669ZM26.769,19.754a5,5,0,1,1,5-5A5.007,5.007,0,0,1,26.769,19.754ZM9.74,25.474V38.343a.651.651,0,0,1-.65.65H4.15a.651.651,0,0,1-.65-.65V25.474a.651.651,0,0,1,.65-.65H9.09A.614.614,0,0,1,9.74,25.474Zm32.043,6.3L26.119,41.593a5.31,5.31,0,0,1-5.46.13L11.04,36.328V27.164H12.4c4.095-.065,7.345-.13,8.449,2.275a2.121,2.121,0,0,0,1.95,1.17h4.29a1.333,1.333,0,0,1,1.365,1.365,1.373,1.373,0,0,1-1.365,1.365h-7.6a.65.65,0,1,0,0,1.3h7.6a2.674,2.674,0,0,0,2.4-1.495l11.049-3.9a1.362,1.362,0,0,1,1.755.585A1.409,1.409,0,0,1,41.783,31.778Z" fill="#006ce5"/>
  </g>
</svg>
