<svg xmlns="http://www.w3.org/2000/svg" width="89.939" height="95.314" viewBox="0 0 89.939 95.314">
  <g id="Group_26853" data-name="Group 26853" transform="translate(-31.893 -18.5)">
    <path id="Path_82205" data-name="Path 82205" d="M65.79,43.009H55.829V23.517H97.9v7.991L94.33,27.942a2.508,2.508,0,0,0-3.547,3.547l7.847,7.847,0,0a2.5,2.5,0,0,0,3.542,0l7.847-7.847a2.508,2.508,0,1,0-3.547-3.547l-3.566,3.566v-10.5A2.508,2.508,0,0,0,100.4,18.5H53.321a2.508,2.508,0,0,0-2.508,2.508v22H40.851a8.968,8.968,0,0,0-8.958,8.958v52.888a8.968,8.968,0,0,0,8.958,8.958H65.79a8.968,8.968,0,0,0,8.958-8.958V51.967a8.968,8.968,0,0,0-8.958-8.958Zm3.942,61.846A3.946,3.946,0,0,1,65.79,108.8H40.851a3.946,3.946,0,0,1-3.942-3.942V51.967a3.946,3.946,0,0,1,3.942-3.942H65.79a3.946,3.946,0,0,1,3.942,3.942v52.888Zm43.142-61.846H87.935a8.968,8.968,0,0,0-8.958,8.958v52.888a8.968,8.968,0,0,0,8.958,8.958h24.939a8.968,8.968,0,0,0,8.958-8.958V51.967a8.968,8.968,0,0,0-8.958-8.958Zm3.942,61.846a3.946,3.946,0,0,1-3.942,3.942H87.935a3.946,3.946,0,0,1-3.942-3.942V51.967a3.946,3.946,0,0,1,3.942-3.942h24.939a3.946,3.946,0,0,1,3.942,3.942v52.888ZM65.074,59.062a2.508,2.508,0,0,1-2.508,2.508H44.076a2.508,2.508,0,0,1,0-5.017H62.565A2.508,2.508,0,0,1,65.074,59.062Zm0,12.9a2.508,2.508,0,0,1-2.508,2.508H44.076a2.508,2.508,0,0,1,0-5.017H62.565A2.508,2.508,0,0,1,65.074,71.962Zm0,12.9a2.508,2.508,0,0,1-2.508,2.508H44.076a2.508,2.508,0,1,1,0-5.017H62.565A2.508,2.508,0,0,1,65.074,84.861Zm0,12.9a2.508,2.508,0,0,1-2.508,2.508H44.076a2.508,2.508,0,1,1,0-5.017H62.565A2.508,2.508,0,0,1,65.074,97.761Z" fill="#006ce5"/>
  </g>
</svg>
