<svg xmlns="http://www.w3.org/2000/svg" width="77.562" height="63.623" viewBox="0 0 77.562 63.623">
  <g id="Group_26861" data-name="Group 26861" transform="translate(0 -46.007)">
    <path id="Path_82216" data-name="Path 82216" d="M63.776,93.723H54.545a29.728,29.728,0,0,1-9.183,9.091H63.776v6.815L77.562,98.27,63.776,86.909Zm-33.912,9.083a24.985,24.985,0,0,0,2.1-49.868V46.007L18.33,57.369,31.964,68.728V62.143a15.871,15.871,0,0,1-2.272,31.583H0v9.089H29.874s-.006-.006-.01-.008Z" transform="translate(0 0)" fill="#006ce5"/>
    <path id="Path_82217" data-name="Path 82217" d="M44.9,162.171a15.8,15.8,0,0,1,1.781-24.193l-7.141-5.95a24.734,24.734,0,0,0-5.73,30.143Z" transform="translate(-26.304 -72.99)" fill="#006ce5"/>
  </g>
</svg>
