<svg xmlns="http://www.w3.org/2000/svg" width="33.528" height="38.75" viewBox="0 0 33.528 38.75">
  <g id="Group_26859" data-name="Group 26859" transform="translate(-4.617 -3)">
    <path id="Path_82214" data-name="Path 82214" d="M36.461,31.883H34.438V29.876a3.938,3.938,0,0,0-3.933-3.933H23.131V23.179h7.082a6.1,6.1,0,0,0,2.667-11.6,5.393,5.393,0,0,0,.263-1.644,5.557,5.557,0,0,0-5.575-5.527,5.457,5.457,0,0,0-3.336,1.119,6.184,6.184,0,0,0-5-2.525,6.248,6.248,0,0,0-6.242,6.242v.071a6.949,6.949,0,0,0,.643,13.866H19.9v2.764H12.525a3.938,3.938,0,0,0-3.932,3.933v2.007H6.3a1.688,1.688,0,0,0-1.684,1.684v6.5A1.689,1.689,0,0,0,6.3,41.75h7.274a1.689,1.689,0,0,0,1.684-1.684v-6.5a1.689,1.689,0,0,0-1.684-1.684H11.823V29.876a.7.7,0,0,1,.7-.7h17.98a.706.706,0,0,1,.7.7v2.007H29.188A1.688,1.688,0,0,0,27.5,33.567v6.5a1.689,1.689,0,0,0,1.684,1.684h7.274a1.689,1.689,0,0,0,1.684-1.684v-6.5A1.689,1.689,0,0,0,36.461,31.883Z" fill="#006ce5"/>
  </g>
</svg>
