<svg xmlns="http://www.w3.org/2000/svg" width="63.469" height="63.467" viewBox="0 0 63.469 63.467">
  <g id="Group_26862" data-name="Group 26862" transform="translate(-0.001 -0.007)">
    <path id="Path_82218" data-name="Path 82218" d="M189.821,202.062c0-.015,0-.03,0-.045V177.9a1.859,1.859,0,0,1,.8-1.526,10.061,10.061,0,0,0,.291-16.314V162.2a1.859,1.859,0,0,1-.554,1.324l-4.176,4.118a1.859,1.859,0,0,1-2.611,0l-4.176-4.118a1.86,1.86,0,0,1-.554-1.324v-2.145a10.06,10.06,0,0,0,.291,16.314,1.859,1.859,0,0,1,.8,1.526v24.162a1.428,1.428,0,0,0,1.271,1.416,32.326,32.326,0,0,0,7.353,0A1.428,1.428,0,0,0,189.821,202.062Z" transform="translate(-153.138 -140.21)" fill="#006ce5"/>
    <path id="Path_82219" data-name="Path 82219" d="M61.847,26.794a5.122,5.122,0,0,1-4.871-3.5,26.531,26.531,0,0,0-1.42-3.429,5.125,5.125,0,0,1,.967-5.919,1.429,1.429,0,0,0,.1-1.9,31.963,31.963,0,0,0-5.2-5.2,1.429,1.429,0,0,0-1.9.1,5.124,5.124,0,0,1-5.919.967A26.557,26.557,0,0,0,40.178,6.5a5.121,5.121,0,0,1-3.5-4.867A1.428,1.428,0,0,0,35.412.217a32.312,32.312,0,0,0-7.353,0,1.427,1.427,0,0,0-1.271,1.412,5.122,5.122,0,0,1-3.5,4.871,26.544,26.544,0,0,0-3.429,1.42,5.125,5.125,0,0,1-5.918-.967,1.429,1.429,0,0,0-1.9-.1,31.958,31.958,0,0,0-5.2,5.2,1.429,1.429,0,0,0,.1,1.9,5.125,5.125,0,0,1,.967,5.919A26.558,26.558,0,0,0,6.494,23.3a5.121,5.121,0,0,1-4.867,3.5A1.428,1.428,0,0,0,.212,28.064a32.172,32.172,0,0,0,0,7.353,1.427,1.427,0,0,0,1.412,1.271,5.122,5.122,0,0,1,4.871,3.5,26.544,26.544,0,0,0,1.42,3.429,5.125,5.125,0,0,1-.967,5.918,1.429,1.429,0,0,0-.1,1.9,31.964,31.964,0,0,0,5.2,5.2,1.429,1.429,0,0,0,1.9-.1,5.123,5.123,0,0,1,5.918-.967A26.548,26.548,0,0,0,23.068,56.9V38.614a13.784,13.784,0,0,1,3.839-23.629,1.86,1.86,0,0,1,2.511,1.742v4.487L31.735,23.5l2.317-2.285V16.727a1.859,1.859,0,0,1,2.511-1.742A13.784,13.784,0,0,1,40.4,38.614V56.9a26.537,26.537,0,0,0,3.205-1.343,5.125,5.125,0,0,1,5.918.967,1.429,1.429,0,0,0,1.9.1,31.964,31.964,0,0,0,5.2-5.2,1.429,1.429,0,0,0-.1-1.9,5.125,5.125,0,0,1-.967-5.919,26.545,26.545,0,0,0,1.42-3.429,5.121,5.121,0,0,1,4.867-3.5h0a1.427,1.427,0,0,0,1.412-1.271,32.176,32.176,0,0,0,0-7.353,1.427,1.427,0,0,0-1.412-1.271Z" transform="translate(0 0)" fill="#006ce5"/>
  </g>
</svg>
