<svg id="Group_10635" data-name="Group 10635" xmlns="http://www.w3.org/2000/svg" xmlns:xlink="http://www.w3.org/1999/xlink" width="81.05" height="53.57" viewBox="0 0 81.05 53.57">
  <defs>
    <clipPath id="clip-path">
      <rect id="Rectangle_8010" data-name="Rectangle 8010" width="11.175" height="12.572" fill="#ef4335"/>
    </clipPath>
    <clipPath id="clip-path-5">
      <rect id="Rectangle_8010-5" data-name="Rectangle 8010" width="12.572" height="12.572" fill="#f68f00"/>
    </clipPath>
  </defs>
  <g id="Group_10402" data-name="Group 10402" transform="translate(0.001 0)">
    <path id="Path_64980" data-name="Path 64980" d="M21.312,0h3.139V19.38H21.312Z" transform="translate(-3.569)" fill="#fff"/>
    <path id="Path_64981" data-name="Path 64981" d="M36.468,14.5a3.044,3.044,0,0,1-3.276,3.276c-1.911,0-2.184-1.774-2.184-2.73V7.541H27.87v7.37a5.763,5.763,0,0,0,1.638,4.367,4.94,4.94,0,0,0,3.685,1.365,4.766,4.766,0,0,0,3.276-1.092v1.092h3.139V7.541H36.468Z" transform="translate(-4.668 -1.263)" fill="#fff"/>
    <path id="Path_64982" data-name="Path 64982" d="M48.247,1.8H45.108V6.581h-2.32v3h2.32v10.1h3.139V9.583h2.32v-3h-2.32Z" transform="translate(-7.166 -0.302)" fill="#fff"/>
    <path id="Path_64983" data-name="Path 64983" d="M62.069,16.631a4.309,4.309,0,0,1-2.593.955,3.621,3.621,0,0,1-3.685-3.822,3.51,3.51,0,0,1,3.685-3.685,3.6,3.6,0,0,1,2.593.955l.409.41L64.662,9.4l-.546-.409a7,7,0,0,0-4.64-1.774A6.53,6.53,0,0,0,52.788,13.9a6.53,6.53,0,0,0,6.688,6.688,7,7,0,0,0,4.64-1.774l.546-.409-2.184-2.184Z" transform="translate(-8.841 -1.208)" fill="#fff"/>
    <path id="Path_64984" data-name="Path 64984" d="M78.408,7.37A4.332,4.332,0,0,0,75,6.005a4.1,4.1,0,0,0-3,1.092V0H68.854V19.38h3.139V12.147c0-3,2.047-3.276,2.866-3.276,1.911,0,1.774,1.774,1.774,2.73v7.643h3.139V11.737A6.216,6.216,0,0,0,78.408,7.37Z" transform="translate(-11.532)" fill="#fff"/>
    <path id="Path_64985" data-name="Path 64985" d="M60.455,16.835a2.184,2.184,0,1,0-2.184-2.184A2.184,2.184,0,0,0,60.455,16.835Z" transform="translate(-9.759 -2.088)" fill="#ef4335"/>
    <path id="Path_64986" data-name="Path 64986" d="M13.375,14.74a6.4,6.4,0,0,1-4.5,1.774C5.459,16.514,3,13.784,3,10.1S5.459,3.685,9.008,3.685a6.422,6.422,0,0,1,4.5,1.911l.409.409,2.047-2.047-.409-.409A9.192,9.192,0,0,0,9.008.819C3.821.682,0,4.777,0,10.1s3.821,9.417,8.871,9.417a8.963,8.963,0,0,0,6.551-2.73l.409-.409L13.785,14.33Z" transform="translate(0 -0.137)" fill="#fff"/>
  </g>
  <g id="Group_10410" data-name="Group 10410" transform="translate(0 30.73)">
    <g id="Group_10405" data-name="Group 10405" transform="translate(0 0)">
      <path id="Path_65003" data-name="Path 65003" d="M6.426.959l1.4,4.285h4.519L8.686,7.892l1.4,4.285L6.426,9.529,2.769,12.177l1.4-4.285L.51,5.244H5.029Z" transform="translate(-0.39 -0.546)" fill="#c4c4c4"/>
      <g id="Group_10404" data-name="Group 10404" transform="translate(0 0)" clip-path="url(#clip-path)">
        <path id="Path_65004" data-name="Path 65004" d="M6.431.959l1.4,4.285h4.52L8.691,7.892l1.4,4.285L6.431,9.529,2.775,12.177l1.4-4.285L.515,5.244H5.034Z" transform="translate(-0.391 -0.546)" fill="#ef4335"/>
      </g>
    </g>
    <g id="Group_10406" data-name="Group 10406" transform="translate(17.602 0)">
      <path id="Path_65003-2" data-name="Path 65003" d="M6.426.959l1.4,4.285h4.519L8.686,7.892l1.4,4.285L6.426,9.529,2.769,12.177l1.4-4.285L.51,5.244H5.029Z" transform="translate(-0.51 -0.546)" fill="#c4c4c4"/>
      <g id="Group_10404-2" data-name="Group 10404" transform="translate(0.557 0)" clip-path="url(#clip-path)">
        <path id="Path_65004-2" data-name="Path 65004" d="M6.431.959l1.4,4.285h4.52L8.691,7.892l1.4,4.285L6.431,9.529,2.775,12.177l1.4-4.285L.515,5.244H5.034Z" transform="translate(-1.068 -0.546)" fill="#ef4335"/>
      </g>
    </g>
    <g id="Group_10407" data-name="Group 10407" transform="translate(34.922 0)">
      <path id="Path_65003-3" data-name="Path 65003" d="M6.426.959l1.4,4.285h4.519L8.686,7.892l1.4,4.285L6.426,9.529,2.769,12.177l1.4-4.285L.51,5.244H5.029Z" transform="translate(-0.347 -0.546)" fill="#c4c4c4"/>
      <g id="Group_10404-3" data-name="Group 10404" transform="translate(0 0)" clip-path="url(#clip-path)">
        <path id="Path_65004-3" data-name="Path 65004" d="M6.431.959l1.4,4.285h4.52L8.691,7.892l1.4,4.285L6.431,9.529,2.775,12.177l1.4-4.285L.515,5.244H5.034Z" transform="translate(-0.348 -0.546)" fill="#ef4335"/>
      </g>
    </g>
    <g id="Group_10408" data-name="Group 10408" transform="translate(51.684 0)">
      <path id="Path_65003-4" data-name="Path 65003" d="M6.426.959l1.4,4.285h4.519L8.686,7.892l1.4,4.285L6.426,9.529,2.769,12.177l1.4-4.285L.51,5.244H5.029Z" transform="translate(-0.459 -0.546)" fill="#c4c4c4"/>
      <g id="Group_10404-4" data-name="Group 10404" transform="translate(0 0)" clip-path="url(#clip-path)">
        <path id="Path_65004-4" data-name="Path 65004" d="M6.431.959l1.4,4.285h4.52L8.691,7.892l1.4,4.285L6.431,9.529,2.775,12.177l1.4-4.285L.515,5.244H5.034Z" transform="translate(-0.459 -0.546)" fill="#ef4335"/>
      </g>
    </g>
    <g id="Group_10409" data-name="Group 10409" transform="translate(68.445 0)">
      <path id="Path_65003-5" data-name="Path 65003" d="M6.426.959l1.4,4.285h4.519L8.686,7.892l1.4,4.285L6.426,9.529,2.769,12.177l1.4-4.285L.51,5.244H5.029Z" transform="translate(0.263 -0.546)" fill="#c4c4c4"/>
      <g id="Group_10404-5" data-name="Group 10404" transform="translate(0 0)" clip-path="url(#clip-path-5)">
        <path id="Path_65004-5" data-name="Path 65004" d="M6.431.959l1.4,4.285h4.52L8.691,7.892l1.4,4.285L6.431,9.529,2.775,12.177l1.4-4.285L.515,5.244H5.034Z" transform="translate(0.262 -0.546)" fill="#ef4335"/>
      </g>
    </g>
  </g>
  <text id="REVIEWED_ON_CLUTCH" data-name="REVIEWED ON CLUTCH" transform="translate(0.001 51.57)" fill="#fff" font-size="7" font-family="SegoeUI, Segoe UI"><tspan x="0" y="0">REVIEWED ON CLUTCH</tspan></text>
</svg>
