<svg id="Group_26863" data-name="Group 26863" xmlns="http://www.w3.org/2000/svg" width="62.986" height="62.986" viewBox="0 0 62.986 62.986">
  <path id="Path_82220" data-name="Path 82220" d="M25.652,5.249H22.765a7.232,7.232,0,0,0-13.909,0H5.968A1.983,1.983,0,0,0,4,7.217v3.937a4.615,4.615,0,0,0,4.593,4.593H23.027a4.615,4.615,0,0,0,4.593-4.593V7.217A1.983,1.983,0,0,0,25.652,5.249Z" transform="translate(6.498)" fill="#006ce5"/>
  <path id="Path_82221" data-name="Path 82221" d="M37.4,3h-.656V6.281A7.213,7.213,0,0,1,29.525,13.5H15.09A7.213,7.213,0,0,1,7.873,6.281V3H7.217A7.213,7.213,0,0,0,0,10.217V43.023A7.213,7.213,0,0,0,7.217,50.24H24.512a22.931,22.931,0,0,1-2.178-9.186H9.842a1.968,1.968,0,0,1,0-3.937h12.7A24.019,24.019,0,0,1,23.7,32.525H9.842a1.968,1.968,0,1,1,0-3.937H25.588A22.841,22.841,0,0,1,29.236,24H9.842a1.968,1.968,0,0,1,0-3.937H34.616a22.628,22.628,0,0,1,10-2.6V10.217A7.213,7.213,0,0,0,37.4,3Z" transform="translate(0 4.873)" fill="#006ce5"/>
  <path id="Path_82222" data-name="Path 82222" d="M28.215,10.5A17.715,17.715,0,1,0,45.93,28.215,17.735,17.735,0,0,0,28.215,10.5Zm2.624,24.932a2.624,2.624,0,0,1-5.249,0V26.247a2.624,2.624,0,1,1,5.249,0ZM28.215,22.31a2.624,2.624,0,1,1,2.624-2.624A2.624,2.624,0,0,1,28.215,22.31Z" transform="translate(17.057 17.057)" fill="#006ce5"/>
</svg>
