<svg xmlns="http://www.w3.org/2000/svg" width="47.773" height="47.773" viewBox="0 0 47.773 47.773">
  <g id="Group_11667" data-name="Group 11667" transform="translate(-697.6 -1124.4)">
    <g id="Group_11666" data-name="Group 11666" transform="translate(697.6 1124.4)">
      <path id="Path_66004" data-name="Path 66004" d="M731.6,1172.173h-34V1124.4h47.773v47.773H733.554l1.045-.187a11.115,11.115,0,1,0-5.088-.261C730.195,1171.924,730.9,1172.036,731.6,1172.173Zm2.339-24.944a1.448,1.448,0,0,0,.025-.2c0-3.272.012-6.544-.012-9.828a6.784,6.784,0,0,0-2.028-4.8c-1.841-1.891-3.67-3.794-5.5-5.685a7.068,7.068,0,0,0-5.287-2.227H703.584a4.684,4.684,0,0,0-.834.05,4.168,4.168,0,0,0-3.608,4.329c-.012,2.463,0,4.939,0,7.4,0,9.405.037,18.811-.025,28.216a4.44,4.44,0,0,0,4.616,4.641c5.648-.075,11.3-.025,16.957-.025h.51c-3.06-4.927-3.5-9.965-.572-14.966S728.142,1146.98,733.94,1147.229Z" transform="translate(-697.6 -1124.4)" fill="none"/>
      <path id="Path_66005" data-name="Path 66005" d="M899.866,1352.435c-.7-.149-1.406-.261-2.078-.448a11.072,11.072,0,0,1,1.145-21.547,11.081,11.081,0,1,1,3.944,21.809l-1.045.187Zm-.124-11.383c-.2-.386-.348-.709-.522-1.02a1.4,1.4,0,1,0-2.5,1.256c.473.97.958,1.953,1.456,2.911a1.383,1.383,0,0,0,2.351.274c.336-.373.634-.759.958-1.145.9-1.07,1.792-2.14,2.675-3.222a1.4,1.4,0,1,0-2.152-1.779c-.1.112-.2.236-.3.361C901.073,1339.447,900.426,1340.218,899.742,1341.052Z" transform="translate(-865.866 -1304.662)" fill="#006ce5"/>
      <path id="Path_66006" data-name="Path 66006" d="M744.446,1147.842c-5.8-.249-10.4,1.879-13.337,6.9-2.924,5-2.5,10.04.572,14.966h-.51c-5.648,0-11.3-.05-16.957.025a4.425,4.425,0,0,1-4.615-4.64c.05-9.405.025-18.811.025-28.216,0-2.463-.012-4.939,0-7.4a4.159,4.159,0,0,1,3.608-4.329,4.684,4.684,0,0,1,.834-.05H731.62a7.068,7.068,0,0,1,5.287,2.227c1.829,1.9,3.67,3.794,5.5,5.685a6.805,6.805,0,0,1,2.028,4.8c.025,3.272.012,6.544.012,9.828A.36.36,0,0,1,744.446,1147.842ZM720.7,1141.4h3.583a1.407,1.407,0,1,0,0-2.8h-7.129a1.407,1.407,0,1,0,0,2.8C718.346,1141.41,719.515,1141.4,720.7,1141.4Zm.075,4.665h-3.633a1.4,1.4,0,1,0,0,2.787h7.178a1.4,1.4,0,1,0,0-2.787C723.123,1146.05,721.941,1146.063,720.772,1146.063Zm-.087,10.239h3.633a1.406,1.406,0,1,0-.012-2.8h-7.178a1.406,1.406,0,1,0,.012,2.8C718.321,1156.314,719.5,1156.3,720.684,1156.3Zm11.918-14.9c.274,0,.56.012.834,0a1.388,1.388,0,0,0,0-2.774c-.523-.025-1.057-.025-1.58,0a1.394,1.394,0,0,0,0,2.787C732.105,1141.41,732.354,1141.4,732.6,1141.4Zm.075,4.665c-.274,0-.56-.013-.834,0a1.4,1.4,0,0,0,0,2.787c.547.025,1.082.025,1.63,0a1.389,1.389,0,0,0,0-2.774C733.2,1146.05,732.939,1146.063,732.677,1146.063Z" transform="translate(-708.107 -1125.013)" fill="#006ce5"/>
      <path id="Path_66007" data-name="Path 66007" d="M947.591,1393.425c.7-.834,1.331-1.6,1.978-2.376.1-.125.2-.236.3-.361a1.4,1.4,0,0,1,2.053-.261,1.422,1.422,0,0,1,.1,2.04c-.883,1.082-1.779,2.152-2.675,3.222-.323.386-.622.771-.958,1.145a1.377,1.377,0,0,1-2.351-.274q-.746-1.437-1.456-2.911a1.4,1.4,0,1,1,2.5-1.257C947.23,1392.716,947.392,1393.039,947.591,1393.425Z" transform="translate(-913.715 -1357.035)" fill="none"/>
      <path id="Path_66008" data-name="Path 66008" d="M762.9,1236.4h-3.546a1.407,1.407,0,1,1,0-2.8h7.129a1.407,1.407,0,1,1,0,2.8C765.288,1236.412,764.094,1236.4,762.9,1236.4Z" transform="translate(-750.309 -1220.015)" fill="none"/>
      <path id="Path_66009" data-name="Path 66009" d="M763.063,1293.561h3.546a1.4,1.4,0,1,1,0,2.787H759.43a1.4,1.4,0,1,1,0-2.787C760.637,1293.549,761.844,1293.561,763.063,1293.561Z" transform="translate(-750.398 -1272.511)" fill="none"/>
      <path id="Path_66010" data-name="Path 66010" d="M762.888,1356.2h-3.546a1.406,1.406,0,1,1-.012-2.8h7.178a1.406,1.406,0,1,1,.012,2.8C765.3,1356.212,764.1,1356.2,762.888,1356.2Z" transform="translate(-750.311 -1324.911)" fill="none"/>
      <path id="Path_66011" data-name="Path 66011" d="M879.79,1236.355c-.249,0-.5.012-.746,0a1.394,1.394,0,0,1,0-2.787c.523-.025,1.057-.025,1.58,0a1.37,1.37,0,0,1,1.344,1.381,1.389,1.389,0,0,1-1.344,1.393C880.35,1236.368,880.076,1236.355,879.79,1236.355Z" transform="translate(-855.294 -1219.971)" fill="none"/>
      <path id="Path_66012" data-name="Path 66012" d="M879.951,1293.512c.261,0,.522-.012.8,0a1.389,1.389,0,0,1,0,2.774c-.547.025-1.082.025-1.63,0a1.4,1.4,0,0,1,0-2.787C879.391,1293.5,879.665,1293.512,879.951,1293.512Z" transform="translate(-855.38 -1272.463)" fill="none"/>
    </g>
  </g>
</svg>
