<svg xmlns="http://www.w3.org/2000/svg" width="115.911" height="103.485" viewBox="0 0 115.911 103.485">
  <g id="Group_23869" data-name="Group 23869" transform="translate(-534.584 -17.344)">
    <path id="Path_78182" data-name="Path 78182" d="M795.529,41.625c-7.88-6.97-5.646-16.034-1.286-20.307a13.466,13.466,0,0,1,18.716-.3c5.93,5.581,5.61,13.148-.768,20.463a61.775,61.775,0,0,1,5.77,3.89,19.963,19.963,0,0,1,7.359,15.1c.073,2-.649,2.742-2.692,2.743q-18.808.01-37.616,0c-2.233,0-2.974-.818-2.8-3.094.64-8.428,4.956-14.325,12.444-18.03.219-.108.444-.2.665-.306A1.913,1.913,0,0,0,795.529,41.625ZM820.81,58.907c-.232-6.053-6.544-14.518-16.951-14.557-10.791-.04-17.023,8.761-17.138,14.557Zm-7.824-28.084a9.24,9.24,0,0,0-9.24-9.248,9.351,9.351,0,0,0-9.25,9.288,9.251,9.251,0,0,0,9.29,9.2A9.152,9.152,0,0,0,812.986,30.823Z" transform="translate(-174.831 -0.026)" fill="#006ce5"/>
    <path id="Path_78183" data-name="Path 78183" d="M688.163,237.8a21.878,21.878,0,0,1,10.058,8.264,20.154,20.154,0,0,1,3.313,10.8c.029,1.636-.719,2.466-2.382,2.468q-19.171.024-38.343,0c-1.707,0-2.48-.843-2.4-2.6.4-8.453,4.6-14.436,12.009-18.3.424-.221.858-.423,1.307-.643-6.576-7.292-6.957-14.908-1.077-20.516a13.443,13.443,0,0,1,18.812.162C694,221.879,695.9,230.987,688.163,237.8Zm8.787,17.249c.4-7.212-8.326-14.6-17.088-14.559-8.7.042-17.327,7.452-16.886,14.559Zm-7.758-28.011a9.244,9.244,0,1,0-9.29,9.175A9.243,9.243,0,0,0,689.192,227.038Z" transform="translate(-87.43 -138.512)" fill="#006ce5"/>
    <path id="Path_78184" data-name="Path 78184" d="M564.24,41.6a21.915,21.915,0,0,1,10.789,9.364,20.724,20.724,0,0,1,2.7,9.8,2.137,2.137,0,0,1-2.173,2.415c-.292.024-.588.009-.881.009q-18.515,0-37.029,0c-2.524,0-3.2-.636-3.037-3.129.547-8.2,4.726-14,11.914-17.755.431-.225.877-.424,1.466-.708-3.663-3.107-5.624-6.94-5.286-11.729a13.161,13.161,0,0,1,4.607-9.209,13.4,13.4,0,0,1,18.161.479A13.074,13.074,0,0,1,569.578,31.6,13.506,13.506,0,0,1,564.24,41.6Zm8.945,17.308c-.343-8.59-9.646-15.506-19.259-14.472-7.671.824-15.74,8.735-14.7,14.472ZM556.169,40.039a9.234,9.234,0,0,0,9.226-9.259,9.245,9.245,0,1,0-18.489.076A9.166,9.166,0,0,0,556.169,40.039Z" fill="#006ce5"/>
    <path id="Path_78185" data-name="Path 78185" d="M798.419,225c-.978-1.184-1.818-2.2-2.651-3.217-.054-.067-.049-.183-.081-.316,12.693-7.71,19.428-18.979,19.965-33.913h4.407a41.765,41.765,0,0,1-3.905,17.977A43.291,43.291,0,0,1,798.419,225Z" transform="translate(-184.363 -120.187)" fill="#006ce5"/>
    <path id="Path_78186" data-name="Path 78186" d="M609.395,221.641l-2.686,3.306c-10.748-3.166-22.945-24.022-21.692-37.2h4.313Q590.155,210.007,609.395,221.641Z" transform="translate(-35.548 -120.321)" fill="#006ce5"/>
    <path id="Path_78187" data-name="Path 78187" d="M705.251,50.243a38.865,38.865,0,0,0-37.686.017c0-1.551-.076-2.916.044-4.264a1.8,1.8,0,0,1,.926-1.2,41.589,41.589,0,0,1,18.05-3.936,42.852,42.852,0,0,1,17.647,3.828,1.418,1.418,0,0,1,1.045,1.629C705.168,47.528,705.251,48.754,705.251,50.243Z" transform="translate(-93.88 -16.606)" fill="#006ce5"/>
  </g>
</svg>
