<svg xmlns="http://www.w3.org/2000/svg" width="107.577" height="107.538" viewBox="0 0 107.577 107.538">
  <g id="Group_23870" data-name="Group 23870" transform="translate(-576.541 -59.024)">
    <path id="Path_78188" data-name="Path 78188" d="M636.995,187.841c0,2.383-.026,4.677.036,6.969.007.26.469.631.791.738a9.7,9.7,0,0,1,5.727,4.7,9.048,9.048,0,0,1-1.612,10.672,14.355,14.355,0,0,1-1.185.947c.93.186,1.534.28,2.123.428a10.411,10.411,0,0,1,7.933,9.808c.048,1.479.033,2.962.011,4.442-.02,1.354-.577,1.916-1.942,1.917q-13.738.016-27.476.007c-1.035,0-1.829-.42-1.862-1.5a37.286,37.286,0,0,1,.088-5.952c.685-5.212,4.29-8.483,10.159-9.492a3.684,3.684,0,0,1-.793-.437,9.09,9.09,0,0,1,3.372-15.373c.887-.291,1.218-.63,1.177-1.59-.087-2.057-.027-4.12-.027-6.268H600.329c0,2.361-.026,4.69.038,7.015.007.244.507.575.839.693,3.83,1.362,6.2,3.96,6.7,8.045a8.842,8.842,0,0,1-2.711,7.42c-.241.251-.493.492-.736.742-.017.018,0,.067,0,.169.621.125,1.265.223,1.892.386a10.352,10.352,0,0,1,7.783,9.791c.036,1.48.029,2.962.011,4.442-.016,1.33-.53,1.9-1.816,1.9q-13.8.022-27.593.009c-1.037,0-1.83-.427-1.836-1.521a39.274,39.274,0,0,1,.223-6.758,10.3,10.3,0,0,1,9.333-8.327c.139-.013.278-.034.619-.334a4.384,4.384,0,0,1-.769-.481,9.076,9.076,0,0,1,3.36-15.307,1.449,1.449,0,0,0,1.2-1.7c-.058-2.454-.027-4.91-.016-7.365.008-1.736.479-2.2,2.238-2.2q16.427,0,32.854,0h1.48V168.533h-1.365q-6.431,0-12.861,0c-2.261,0-2.607-.337-2.608-2.539q0-11.867,0-23.734c0-2.092.348-2.432,2.459-2.432q16.135,0,32.269,0c2.033,0,2.413.366,2.414,2.361q.006,11.984,0,23.968c0,1.982-.4,2.373-2.42,2.375q-6.489.008-12.978,0H636.88v15.936h34.048c2.191,0,2.543.359,2.544,2.6,0,2.684,0,5.369,0,8.015,8.462,3.366,10.145,10.4,3.985,16.657.782.161,1.529.268,2.25.469a10.828,10.828,0,0,1,7.869,9.942c.054,1.362.029,2.728.024,4.092-.007,1.757-.464,2.22-2.207,2.221q-8.652.007-17.3,0c-3.2,0-6.391,0-9.587,0-1.677,0-2.2-.478-2.174-2.144a36.243,36.243,0,0,1,.264-6.173c.879-4.69,4.6-7.76,9.853-8.37-.285-.3-.5-.542-.732-.766a9.093,9.093,0,0,1,3.464-15.3,1.383,1.383,0,0,0,1.153-1.625c-.072-2.055-.022-4.114-.022-6.247Zm-17.051-22.687h30.435V143.191H619.944Zm39.422,59.937H684.29c0-1.09.036-2.1-.007-3.106a7.112,7.112,0,0,0-6.954-6.836c-3.622-.063-7.247-.056-10.87,0a6.948,6.948,0,0,0-6.735,5.45A32.491,32.491,0,0,0,659.366,225.09Zm-48.508.023c0-.939.01-1.823,0-2.707a7.111,7.111,0,0,0-7.331-7.278q-4.907-.031-9.814,0a7.64,7.64,0,0,0-7.37,9.985Zm36.674.008c0-.937.013-1.786,0-2.634a7.217,7.217,0,0,0-7.42-7.36q-4.91-.026-9.82,0a8.184,8.184,0,0,0-1.739.152c-4.258.952-6.594,5.045-5.6,9.838Zm24.416-26.606a5.839,5.839,0,1,0-.112,11.677,5.843,5.843,0,1,0,.112-11.677Zm-30.767,5.764a6.023,6.023,0,0,0-12.039.094,6.026,6.026,0,0,0,6.083,5.817A5.924,5.924,0,0,0,641.181,204.28Zm-36.483.071a5.947,5.947,0,0,0-6.051-5.833,5.836,5.836,0,0,0-5.988,5.743,6.025,6.025,0,0,0,5.99,5.93A5.931,5.931,0,0,0,604.7,204.351Z" transform="translate(-4.846 -61.905)" fill="#006ce5"/>
    <path id="Path_78189" data-name="Path 78189" d="M591.823,86.666a22,22,0,0,1,13.462-26.229,21.964,21.964,0,0,1,25.7,7.94c7.508-4.8,15.414-5.719,23.465-1.637,8.01,4.061,11.985,10.922,12.613,19.99.771,0,1.532-.014,2.293,0,7.7.166,13.658,5.67,14.66,13.527a14.93,14.93,0,0,1-10.989,15.9,16.492,16.492,0,0,1-4.151.554c-10.482.045-20.965.027-31.448.023-1.472,0-2.136-.471-2.213-1.518a1.509,1.509,0,0,1,1.451-1.753c.386-.039.779-.019,1.168-.019q15.374,0,30.747-.006c5.959-.011,10.5-3.468,11.87-8.973a11.62,11.62,0,0,0-10.632-14.4c-1.166-.062-2.337-.036-3.506-.041-2.212-.011-2.591-.383-2.6-2.58-.05-8.568-5-15.885-12.833-18.693-6.7-2.4-12.952-1.312-18.671,2.889-1.673,1.229-2.268,1.145-3.361-.577a18.656,18.656,0,0,0-19.122-8.456,19.074,19.074,0,0,0-15.191,15.266,18.532,18.532,0,0,0,.726,9.553c.67,1.928.1,2.751-1.936,2.709a13.894,13.894,0,0,0-8.065,1.852,11.715,11.715,0,0,0-4.995,12.925,11.308,11.308,0,0,0,10.579,8.581c6.543.149,13.092.063,19.639.072,4.092.006,8.184,0,12.275,0a7.019,7.019,0,0,1,1.278.09,1.615,1.615,0,0,1-.068,3.147,6.967,6.967,0,0,1-1.049.051c-10.366,0-20.732.025-31.1-.005a15.059,15.059,0,0,1-1.384-30.071C590.845,86.755,591.26,86.714,591.823,86.666Z" transform="translate(0)" fill="#006ce5"/>
  </g>
</svg>
