<svg id="Group_10437" data-name="Group 10437" xmlns="http://www.w3.org/2000/svg" width="167.951" height="47.726" viewBox="0 0 167.951 47.726">
  <path id="Path_65032" data-name="Path 65032" d="M972.574,288.009l-20.658,11.925,20.658,11.952,20.686-11.952" transform="translate(-951.916 -288.009)" fill="#e41e1b"/>
  <path id="Path_65033" data-name="Path 65033" d="M951.916,316.752l20.658,11.925V304.828" transform="translate(-951.916 -280.95)" fill="#73685f"/>
  <path id="Path_65034" data-name="Path 65034" d="M966.467,304.828v23.849l20.686-11.925" transform="translate(-945.809 -280.95)" fill="#a8a096"/>
  <path id="Path_65035" data-name="Path 65035" d="M972.574,308.361l-20.658-11.953v23.877" transform="translate(-951.916 -284.484)" fill="#a8a096"/>
  <path id="Path_65036" data-name="Path 65036" d="M986.2,313.645v-.055a8.046,8.046,0,0,1,8.2-8.23,8.343,8.343,0,0,1,6.242,2.492l-1.792,2.071a6.327,6.327,0,0,0-4.451-1.988,5.363,5.363,0,0,0-5.263,5.626v.055a5.363,5.363,0,0,0,5.263,5.628,6.21,6.21,0,0,0,4.563-2.044l1.792,1.82a8.177,8.177,0,0,1-6.467,2.827,8.047,8.047,0,0,1-8.089-8.2" transform="translate(-937.526 -280.727)" fill="#e41e1b"/>
  <path id="Path_65037" data-name="Path 65037" d="M997.6,314.466v-.055a6.4,6.4,0,0,1,12.793-.028v.055a6.4,6.4,0,0,1-12.793.028m10.05,0v-.055a3.7,3.7,0,0,0-3.7-3.863,3.6,3.6,0,0,0-3.61,3.806v.057a3.683,3.683,0,0,0,3.667,3.835,3.6,3.6,0,0,0,3.639-3.779" transform="translate(-932.743 -279.56)" fill="#e41e1b"/>
  <path id="Path_65038" data-name="Path 65038" d="M1008.425,308.384h2.743V311.1a4.274,4.274,0,0,1,4.255-2.939v2.91h-.168c-2.408,0-4.087,1.567-4.087,4.759v4.563h-2.743" transform="translate(-928.2 -279.553)" fill="#e41e1b"/>
  <path id="Path_65039" data-name="Path 65039" d="M1014.695,314.438v-.055a5.942,5.942,0,0,1,5.85-6.242c3.806,0,5.767,3,5.767,6.467a7.819,7.819,0,0,1-.057.784h-8.818a3.355,3.355,0,0,0,3.444,3.051,4.369,4.369,0,0,0,3.247-1.428l1.623,1.428a6.259,6.259,0,0,1-11.056-4m8.873-.9c-.167-1.763-1.231-3.163-3.051-3.163-1.679,0-2.855,1.288-3.106,3.163Z" transform="translate(-925.569 -279.56)" fill="#e41e1b"/>
  <path id="Path_65040" data-name="Path 65040" d="M1025.046,305.557h2.8v13.38h8.37v2.547h-11.169" transform="translate(-921.224 -280.644)" fill="#a8a096"/>
  <path id="Path_65041" data-name="Path 65041" d="M1033.525,314.466v-.055a6.4,6.4,0,0,1,12.791-.028v.055a6.4,6.4,0,0,1-12.791.028m10.048,0v-.055a3.7,3.7,0,0,0-3.694-3.863,3.6,3.6,0,0,0-3.612,3.806v.057a3.684,3.684,0,0,0,3.667,3.835,3.612,3.612,0,0,0,3.639-3.779" transform="translate(-917.666 -279.56)" fill="#a8a096"/>
  <path id="Path_65042" data-name="Path 65042" d="M1044.358,322.639l1.035-2.071a7.934,7.934,0,0,0,4.283,1.261c2.463,0,3.806-1.261,3.806-3.7v-.924a5.045,5.045,0,0,1-4.226,2.212,5.4,5.4,0,0,1-5.459-5.626v-.028a5.4,5.4,0,0,1,5.459-5.626,5.15,5.15,0,0,1,4.2,2.043v-1.792h2.743v9.546a6.278,6.278,0,0,1-1.512,4.534,6.748,6.748,0,0,1-4.926,1.624,10.805,10.805,0,0,1-5.4-1.457m9.124-8.845v-.057a3.361,3.361,0,0,0-3.527-3.3,3.25,3.25,0,0,0-3.414,3.3v.057a3.265,3.265,0,0,0,3.414,3.3,3.361,3.361,0,0,0,3.527-3.3" transform="translate(-913.355 -279.56)" fill="#a8a096"/>
  <path id="Path_65043" data-name="Path 65043" d="M1054.847,305.163h2.939v2.6h-2.967m.141,1.875h2.743V321.65h-2.743Z" transform="translate(-908.73 -280.81)" fill="#a8a096"/>
  <path id="Path_65044" data-name="Path 65044" d="M1058.841,314.466v-.055a6.184,6.184,0,0,1,6.243-6.271,6.023,6.023,0,0,1,4.787,2.071l-1.736,1.847a4.01,4.01,0,0,0-3.078-1.511,3.623,3.623,0,0,0-3.471,3.806v.057a3.634,3.634,0,0,0,3.582,3.835,4.18,4.18,0,0,0,3.108-1.484l1.651,1.651a6.278,6.278,0,0,1-11.085-3.947" transform="translate(-907.042 -279.56)" fill="#a8a096"/>
  <path id="Path_65045" data-name="Path 65045" d="M1067.616,308.773h0a1.869,1.869,0,0,1,1.847-1.875,1.845,1.845,0,0,1,1.847,1.847h0a1.847,1.847,0,0,1-3.694.028m3.47-.028h0a1.624,1.624,0,1,0-3.247,0h0a1.608,1.608,0,0,0,1.624,1.624,1.59,1.59,0,0,0,1.623-1.624m-2.351-.98h.84c.419,0,.727.2.727.588a.527.527,0,0,1-.419.559l.5.7h-.419l-.449-.643h-.392v.643h-.364v-1.847Zm.812.951c.251,0,.392-.139.392-.307,0-.2-.141-.308-.392-.308h-.447v.615Z" transform="translate(-903.359 -280.082)" fill="#a8a096"/>
</svg>
