<svg id="noun-cost-reduction-4269727" xmlns="http://www.w3.org/2000/svg" width="36.727" height="29.382" viewBox="0 0 36.727 29.382">
  <path id="Path_78150" data-name="Path 78150" d="M376.985,112.345a.735.735,0,0,1-.735-.735v-5.876a.735.735,0,1,1,1.469,0v5.876a.734.734,0,0,1-.735.735Z" transform="translate(-355.683 -105)" fill="#006ce5"/>
  <path id="Path_78151" data-name="Path 78151" d="M481.985,120.361a.735.735,0,0,1-.735-.735v-5.142a.735.735,0,0,1,1.469,0v5.142a.734.734,0,0,1-.735.735Z" transform="translate(-451.868 -113.015)" fill="#006ce5"/>
  <path id="Path_78152" data-name="Path 78152" d="M412.719,105.735a.735.735,0,1,1-.735-.735.735.735,0,0,1,.735.735" transform="translate(-387.745 -105)" fill="#006ce5"/>
  <path id="Path_78153" data-name="Path 78153" d="M447.719,149.485a.735.735,0,1,1-.735-.735.735.735,0,0,1,.735.735" transform="translate(-419.806 -145.077)" fill="#006ce5"/>
  <path id="Path_78154" data-name="Path 78154" d="M517.719,140.735a.735.735,0,1,1-.734-.735.735.735,0,0,1,.734.735" transform="translate(-483.93 -137.062)" fill="#006ce5"/>
  <path id="Path_78155" data-name="Path 78155" d="M517.719,105.735a.735.735,0,1,1-.734-.735.735.735,0,0,1,.734.735" transform="translate(-483.93 -105)" fill="#006ce5"/>
  <path id="Path_78156" data-name="Path 78156" d="M402.725,152.487h-2.2v-8.08a.735.735,0,1,0-1.469,0v1.469h-4.407v-1.469a.735.735,0,1,0-1.469,0v1.469h-1.469v-5.142a.735.735,0,1,0-1.469,0v5.142h-1.926a13.162,13.162,0,0,1,1.107,16.237l3.963,4.106h0a.733.733,0,0,0,.522.225h.007a.735.735,0,0,0,.519-.215l8.815-8.815a.735.735,0,0,0,.215-.519v-3.673a.734.734,0,0,0-.735-.735Z" transform="translate(-366.732 -137.062)" fill="#006ce5"/>
  <path id="Path_78157" data-name="Path 78157" d="M143,175a11.766,11.766,0,1,0,8.307,3.446A11.754,11.754,0,0,0,143,175Zm0,11.018a2.932,2.932,0,0,1,.735,5.772v.839a.735.735,0,1,1-1.469,0v-.839a2.935,2.935,0,0,1-2.2-2.834.735.735,0,0,1,1.469,0A1.469,1.469,0,1,0,143,187.487a2.932,2.932,0,0,1-.735-5.772v-.839a.735.735,0,1,1,1.469,0v.839a2.935,2.935,0,0,1,2.2,2.834.735.735,0,1,1-1.469,0A1.469,1.469,0,1,0,143,186.018Z" transform="translate(-131.25 -169.124)" fill="#006ce5"/>
</svg>
