<svg xmlns="http://www.w3.org/2000/svg" width="39.172" height="39.326" viewBox="0 0 39.172 39.326">
  <g id="Group_26586" data-name="Group 26586" transform="translate(-0.999)">
    <path id="Path_81753" data-name="Path 81753" d="M39.534,359.141l-.739-.37L22.13,367.1a3.469,3.469,0,0,1-3.091,0L2.375,358.771l-.739.37a1.152,1.152,0,0,0,0,2.061l18.434,9.217a1.152,1.152,0,0,0,1.03,0L39.534,361.2a1.152,1.152,0,0,0,0-2.061Z" transform="translate(0 -331.214)" fill="#006ce5"/>
    <path id="Path_81754" data-name="Path 81754" d="M39.534,22.55l-.739-.37L22.13,30.512a3.469,3.469,0,0,1-3.091,0L2.375,22.18l-.739.37a1.152,1.152,0,0,0,0,2.061l18.434,9.217a1.152,1.152,0,0,0,1.03,0l18.434-9.217a1.152,1.152,0,0,0,0-2.061ZM10.453,13.558l2.3,3.991a1.152,1.152,0,0,0,1.574.422l.949-.548A8.713,8.713,0,0,0,17.128,18.5v1.088a1.152,1.152,0,0,0,1.152,1.152h4.608a1.152,1.152,0,0,0,1.152-1.152V18.5a8.713,8.713,0,0,0,1.849-1.075l.949.548a1.152,1.152,0,0,0,1.574-.422l2.3-3.991a1.152,1.152,0,0,0-.422-1.574l-.945-.545a8.522,8.522,0,0,0,0-2.139l.945-.545a1.152,1.152,0,0,0,.422-1.574l-2.3-3.991a1.152,1.152,0,0,0-1.574-.422l-.949.548A8.712,8.712,0,0,0,24.041,2.24V1.152A1.152,1.152,0,0,0,22.889,0H18.28a1.152,1.152,0,0,0-1.152,1.152V2.24A8.712,8.712,0,0,0,15.28,3.315l-.949-.548a1.152,1.152,0,0,0-1.574.422l-2.3,3.991a1.152,1.152,0,0,0,.422,1.574l.945.545a8.523,8.523,0,0,0,0,2.139l-.945.545a1.152,1.152,0,0,0-.422,1.574ZM20.585,6.913a3.456,3.456,0,1,1-3.456,3.456A3.46,3.46,0,0,1,20.585,6.913Z" transform="translate(0)" fill="#006ce5"/>
    <path id="Path_81755" data-name="Path 81755" d="M1.636,186.636l18.434,9.217a1.152,1.152,0,0,0,1.03,0l18.434-9.217a1.152,1.152,0,0,0,0-2.061l-6.491-3.245a3.449,3.449,0,0,1-.331.782l-2.3,3.991a3.467,3.467,0,0,1-2.994,1.728h0a3.456,3.456,0,0,1-1.13-.191,3.462,3.462,0,0,1-3.395,2.8H18.28a3.462,3.462,0,0,1-3.394-2.8,3.455,3.455,0,0,1-4.125-1.538l-2.3-3.991a3.478,3.478,0,0,1-.332-.782l-6.489,3.245a1.152,1.152,0,0,0,0,2.061Z" transform="translate(0 -167.402)" fill="#006ce5"/>
  </g>
</svg>
