<svg xmlns="http://www.w3.org/2000/svg" width="194.441" height="194.924" viewBox="0 0 194.441 194.924">
  <g id="Group_10476" data-name="Group 10476" transform="translate(-871 -5257.488)">
    <g id="Group_10463" data-name="Group 10463" transform="translate(-535 -264.588)" opacity="0.3">
      <g id="Group_10462" data-name="Group 10462">
        <g id="Ellipse_634" data-name="Ellipse 634" transform="translate(1452 5575)" fill="none" stroke="#031342" stroke-width="3.5">
          <circle cx="50" cy="50" r="50" stroke="none"/>
          <circle cx="50" cy="50" r="48.25" fill="none"/>
        </g>
        <g id="Ellipse_636" data-name="Ellipse 636" transform="translate(1416 5539)" fill="none" stroke="#031342" stroke-width="3.5">
          <circle cx="86" cy="86" r="86" stroke="none"/>
          <circle cx="86" cy="86" r="84.25" fill="none"/>
        </g>
        <g id="Ellipse_637" data-name="Ellipse 637" transform="translate(1487 5610)" fill="none" stroke="#031342" stroke-width="3.5">
          <circle cx="15" cy="15" r="15" stroke="none"/>
          <circle cx="15" cy="15" r="13.25" fill="none"/>
        </g>
      </g>
      <path id="Path_65114" data-name="Path 65114" d="M474.779-879.833c-4.283,4.042-2.126,8.9-1.372,13.369.545,3.234-.422,5.256-2.694,7.263L446.319-834.82c-5.016,4.905-21.951,21.838-23.167,23.138-.813.869-2.11,1.786-.746,3.075,1.342,1.268,2.217-.079,3.081-.879,1.294-1.2,29.1-29.084,29.1-29.084,3.978-3.841,19.115-19.565,20.949-20.792a4.893,4.893,0,0,1,3.032-.477c3.024.333,6.016,1.042,9.042,1.213,1.3.073,2.691-.727,3.962-1.306a9.154,9.154,0,0,0,1.859-1.524l4.258-4.587c5.674-5.533,11.254-11.162,16.81-16.814.62-.631,1.411-2,1.154-2.393a4.081,4.081,0,0,0-2.579-1.453c-3-.5-6.039-.768-9.061-1.133a2.419,2.419,0,0,1-2.469-2.5c-.249-3.031-.66-6.056-1.192-9.051-.167-.941-.785-2.31-1.475-2.507s-1.921.626-2.615,1.307C490.777-895.208,474.779-879.833,474.779-879.833Zm3.285,1.959c5.744-5.45,11.248-11.152,16.858-16.743.614-.612,1.3-1.148,2.464-2.163.458,3.252,1.008,5.756,1.112,8.278.11,2.682,1.558,3.522,3.892,3.76,2.509.257,5.005.644,8.121,1.055-1.029,1.2-1.6,1.954-2.257,2.617-5.706,5.729-11.5,11.375-17.1,17.2a5.536,5.536,0,0,1-5.265,1.826c-2.358-.352-4.756-.518-7.067-1.062a3.2,3.2,0,0,1-1.94-1.97c-.537-2.056-.6-4.233-1.045-6.32C475.263-874.06,476.043-875.958,478.064-877.875Z" transform="translate(1078.189 6434.51)" fill="#031342" stroke="#031342" stroke-width="1"/>
      <path id="Path_65115" data-name="Path 65115" d="M478.064-877.875c5.744-5.45,11.248-11.152,16.858-16.743.614-.612,1.3-1.148,2.464-2.163.458,3.252,1.008,5.756,1.112,8.278.11,2.682,1.558,3.522,3.892,3.76,2.509.257,5.005.644,8.121,1.055-1.029,1.2-1.6,1.954-2.257,2.617-5.706,5.729-11.5,11.375-17.1,17.2a5.536,5.536,0,0,1-5.265,1.826c-2.358-.352-4.756-.518-7.067-1.062a3.2,3.2,0,0,1-1.94-1.97c-.537-2.056-.6-4.233-1.045-6.32C475.263-874.06,476.043-875.958,478.064-877.875Z" transform="translate(1078.189 6434.51)" fill="#003484" stroke="#031342" stroke-width="1"/>
    </g>
    <g id="Group_10467" data-name="Group 10467" transform="translate(-545 -274.588)">
      <g id="Group_10462-2" data-name="Group 10462">
        <g id="Ellipse_634-2" data-name="Ellipse 634" transform="translate(1452 5575)" fill="none" stroke="#8d55ff" stroke-width="3.5">
          <circle cx="50" cy="50" r="50" stroke="none"/>
          <circle cx="50" cy="50" r="48.25" fill="none"/>
        </g>
        <g id="Ellipse_636-2" data-name="Ellipse 636" transform="translate(1416 5539)" fill="none" stroke="#8d55ff" stroke-width="3.5">
          <circle cx="86" cy="86" r="86" stroke="none"/>
          <circle cx="86" cy="86" r="84.25" fill="none"/>
        </g>
        <g id="Ellipse_637-2" data-name="Ellipse 637" transform="translate(1487 5610)" fill="none" stroke="#8d55ff" stroke-width="3.5">
          <circle cx="15" cy="15" r="15" stroke="none"/>
          <circle cx="15" cy="15" r="13.25" fill="none"/>
        </g>
      </g>
      <path id="Path_65114-2" data-name="Path 65114" d="M474.779-879.833c-4.283,4.042-2.126,8.9-1.372,13.369.545,3.234-.422,5.256-2.694,7.263L446.319-834.82c-5.016,4.905-21.951,21.838-23.167,23.138-.813.869-2.11,1.786-.746,3.075,1.342,1.268,2.217-.079,3.081-.879,1.294-1.2,29.1-29.084,29.1-29.084,3.978-3.841,19.115-19.565,20.949-20.792a4.893,4.893,0,0,1,3.032-.477c3.024.333,6.016,1.042,9.042,1.213,1.3.073,2.691-.727,3.962-1.306a9.154,9.154,0,0,0,1.859-1.524l4.258-4.587c5.674-5.533,11.254-11.162,16.81-16.814.62-.631,1.411-2,1.154-2.393a4.081,4.081,0,0,0-2.579-1.453c-3-.5-6.039-.768-9.061-1.133a2.419,2.419,0,0,1-2.469-2.5c-.249-3.031-.66-6.056-1.192-9.051-.167-.941-.785-2.31-1.475-2.507s-1.921.626-2.615,1.307C490.777-895.208,474.779-879.833,474.779-879.833Zm3.285,1.959c5.744-5.45,11.248-11.152,16.858-16.743.614-.612,1.3-1.148,2.464-2.163.458,3.252,1.008,5.756,1.112,8.278.11,2.682,1.558,3.522,3.892,3.76,2.509.257,5.005.644,8.121,1.055-1.029,1.2-1.6,1.954-2.257,2.617-5.706,5.729-11.5,11.375-17.1,17.2a5.536,5.536,0,0,1-5.265,1.826c-2.358-.352-4.756-.518-7.067-1.062a3.2,3.2,0,0,1-1.94-1.97c-.537-2.056-.6-4.233-1.045-6.32C475.263-874.06,476.043-875.958,478.064-877.875Z" transform="translate(1078.189 6434.51)" fill="#8d55ff" stroke="#8d55ff" stroke-width="1"/>
      <path id="Path_65115-2" data-name="Path 65115" d="M478.064-877.875c5.744-5.45,11.248-11.152,16.858-16.743.614-.612,1.3-1.148,2.464-2.163.458,3.252,1.008,5.756,1.112,8.278.11,2.682,1.558,3.522,3.892,3.76,2.509.257,5.005.644,8.121,1.055-1.029,1.2-1.6,1.954-2.257,2.617-5.706,5.729-11.5,11.375-17.1,17.2a5.536,5.536,0,0,1-5.265,1.826c-2.358-.352-4.756-.518-7.067-1.062a3.2,3.2,0,0,1-1.94-1.97c-.537-2.056-.6-4.233-1.045-6.32C475.263-874.06,476.043-875.958,478.064-877.875Z" transform="translate(1078.189 6434.51)" fill="#003484" stroke="#8d55ff" stroke-width="1"/>
    </g>
  </g>
</svg>
