<svg xmlns="http://www.w3.org/2000/svg" width="83.027" height="56.832" viewBox="0 0 83.027 56.832">
  <path id="Path_64920" data-name="Path 64920" d="M936,1076a2.92,2.92,0,0,1,2,1.78l8.79,14.71,10.73,17.95c.34.57.34.57,1,.41l22.61-5.41,1.94-.48c-.12-.18-.19-.32-.28-.45l-8-11.36c-.5-.7-.35-1.21.49-1.42s1.9-.37,2.86-.54l8.09-1.36,1.64-.26a1.82,1.82,0,0,1,1.63.54c.45.46.89.95,1.29,1.45l8.91,11c.47.59.35,1-.43,1.25-1.22.35-2.45.66-3.67,1l-7.54,2-.31.11.61.84,9.55,12.86c.06.09.13.18.18.27.42.69.33,1.11-.42,1.42-1.41.58-2.84,1.11-4.27,1.63q-7.15,2.59-14.31,5.16-4.635,1.65-9.28,3.25a11.346,11.346,0,0,1-1.57.4,2.05,2.05,0,0,1-1.86-.56,10.847,10.847,0,0,1-1.91-2.75q-4-7.09-8-14.2a.52.52,0,0,0-.7-.31q-8.41,2.2-16.83,4.35a5.6,5.6,0,0,1-1.76.14,3,3,0,0,1-2.54-1.88q-2.79-6-5.56-12-3.22-7-6.44-13.93-2.64-5.74-5.25-11.49c-.18-.4-.29-.83-.44-1.25v-.57a1.4,1.4,0,0,1,1-.91c.29,0,.59-.09.88-.11l4.52-.35,5.61-.46,4.64-.35a10.342,10.342,0,0,0,1.23-.16H936Zm-1.24,2.31-1.62.12-5.84.54-6,.5c-.38,0-.47.17-.35.54a2.4,2.4,0,0,0,.13.34l7.6,15.66,9.24,19.1c.31.63.31.64,1,.48l14.7-3.51c1-.24,1-.36.53-1.23l-5.06-8.73q-6.74-11.64-13.47-23.28a.74.74,0,0,0-.88-.53ZM959.67,1114c.14.27.25.48.37.69q2.93,5,5.86,10.09c.63,1.08,1.27,2.17,1.95,3.23a1,1,0,0,0,1.48.48l7.35-2.52,16.55-5.61c.9-.31,1-.45.39-1.22l-4.49-6.16-3.71-5.12a.72.72,0,0,0-.86-.35l-11.85,3.1-11.19,2.92Zm28.53-22.3-.07.08-.36.06-5,.92-4.26.74c-.35.06-.43.24-.25.55a4.59,4.59,0,0,0,.42.6l6.85,9.4a.45.45,0,0,0,.56.22c3-.76,6-1.49,9.07-2.24a4.625,4.625,0,0,0,.66-.19c.37-.15.41-.33.18-.65l-.55-.7q-3.24-4.13-6.49-8.25a3.567,3.567,0,0,0-.76-.54Z" transform="translate(-916.95 -1075.96)" fill="#fff"/>
</svg>
