<svg xmlns="http://www.w3.org/2000/svg" width="57.074" height="70.642" viewBox="0 0 57.074 70.642">
  <g id="Group_10399" data-name="Group 10399" transform="translate(0.028 0.012)">
    <path id="Path_64975" data-name="Path 64975" d="M1634.16,1794a60.2,60.2,0,0,1,19.6,2.94,27.775,27.775,0,0,1,4.5,2.06,11.766,11.766,0,0,1,2.77,2.22,4.24,4.24,0,0,1-.06,6.21,14.742,14.742,0,0,1-5.49,3.53,49.994,49.994,0,0,1-16,3.37c-8.38.54-16.69.13-24.78-2.44a18.43,18.43,0,0,1-7.66-4.1c-2.34-2.3-2.32-4.88.08-7.14a19.2,19.2,0,0,1,7.59-4,63.487,63.487,0,0,1,19.45-2.65Z" transform="translate(-1605.33 -1794)" fill="#fff"/>
    <path id="Path_64976" data-name="Path 64976" d="M1662.35,1846.48c0,2.84.06,5.49,0,8.14a5.19,5.19,0,0,1-2.23,3.76,20.611,20.611,0,0,1-7.27,3.65c-8,2.49-16.17,2.92-24.43,2.41a48.273,48.273,0,0,1-15-3,31.73,31.73,0,0,1-5.91-3.28,5,5,0,0,1-2.13-4.61c.09-2.3,0-4.61,0-7.09,8.87,5.3,18.59,6.48,28.5,6.48S1653.44,1851.8,1662.35,1846.48Z" transform="translate(-1605.33 -1794)" fill="#fff"/>
    <path id="Path_64977" data-name="Path 64977" d="M1662.35,1813.14c0,2.79.05,5.4,0,8a5.17,5.17,0,0,1-2.18,3.78,21.133,21.133,0,0,1-7.81,3.85,68,68,0,0,1-25,2.19,47.049,47.049,0,0,1-15.13-3.35,25.376,25.376,0,0,1-4.65-2.73,5.22,5.22,0,0,1-2.21-4.69c.09-2.3,0-4.6,0-7,8.89,5.28,18.59,6.46,28.51,6.46S1653.44,1818.42,1662.35,1813.14Z" transform="translate(-1605.33 -1794)" fill="#fff"/>
    <path id="Path_64978" data-name="Path 64978" d="M1605.37,1829.81c11.86,8,37.54,8.13,50.53,3.13,2.17-.84,4.24-1.93,6.39-2.92,0,2.72.11,5.51,0,8.29-.08,1.58-1.26,2.68-2.47,3.61a23.727,23.727,0,0,1-9,4,69.331,69.331,0,0,1-35.48-.48,21.208,21.208,0,0,1-7.35-3.52,5.86,5.86,0,0,1-2.58-5.24C1605.46,1834.43,1605.37,1832.2,1605.37,1829.81Z" transform="translate(-1605.33 -1794)" fill="#fff"/>
  </g>
</svg>
