<svg xmlns="http://www.w3.org/2000/svg" width="38.242" height="38.242" viewBox="0 0 38.242 38.242">
  <g id="Group_26732" data-name="Group 26732" transform="translate(-16 -16)">
    <path id="Path_81940" data-name="Path 81940" d="M54.242,32.533v5.175l-3.169,1.22a16.319,16.319,0,0,1-1.981,4.778l1.379,3.105-3.66,3.66-3.1-1.379a16.319,16.319,0,0,1-4.78,1.981l-1.219,3.168H32.533l-1.22-3.169a16.291,16.291,0,0,1-1.583-.463,7.754,7.754,0,0,0,.408-4.349l1.419-1.419A10.341,10.341,0,1,0,25.4,38.684L23.982,40.1a7.768,7.768,0,0,0-4.35.41,16.282,16.282,0,0,1-.463-1.584L16,37.709V32.533l3.168-1.22a16.318,16.318,0,0,1,1.981-4.779l-1.379-3.1,3.66-3.66,3.105,1.379a16.322,16.322,0,0,1,4.778-1.981L32.533,16h5.175l1.22,3.169a16.319,16.319,0,0,1,4.778,1.981l3.105-1.379,3.66,3.66-1.379,3.1a16.317,16.317,0,0,1,1.981,4.78ZM28.792,46.085a6.5,6.5,0,1,1-4.635-4.636.389.389,0,0,0,.383-.1L36,29.884a.384.384,0,0,1,.267-.116l3.933-.141a.4.4,0,0,1,.412.412l-.141,3.933a.384.384,0,0,1-.116.267l-.574.574a.385.385,0,0,1-.3.116L37.6,34.835a.4.4,0,0,0-.418.418l.08,1.626a.4.4,0,0,1-.418.417l-1.626-.08a.4.4,0,0,0-.418.417l.093,1.889a.385.385,0,0,1-.116.3L28.9,45.7A.389.389,0,0,0,28.792,46.085Zm-6.034,1.4a1.933,1.933,0,1,0,0,2.734A1.933,1.933,0,0,0,22.758,47.484Z" fill="#006ce5" fill-rule="evenodd"/>
  </g>
</svg>
