<svg id="Group_26747" data-name="Group 26747" xmlns="http://www.w3.org/2000/svg" width="41.029" height="38.75" viewBox="0 0 41.029 38.75">
  <path id="Path_81959" data-name="Path 81959" d="M1.14,139.4H5.7a1.14,1.14,0,0,1,1.14,1.139v11.4a1.14,1.14,0,0,1-1.14,1.14H1.14A1.14,1.14,0,0,1,0,151.934v-11.4A1.14,1.14,0,0,1,1.14,139.4Zm11.4-9.118H17.1a1.14,1.14,0,0,1,1.14,1.14v20.515a1.14,1.14,0,0,1-1.14,1.14H12.537a1.14,1.14,0,0,1-1.139-1.14V131.419A1.14,1.14,0,0,1,12.537,130.279Zm11.4,4.559h4.559a1.14,1.14,0,0,1,1.139,1.14v15.956a1.14,1.14,0,0,1-1.139,1.14H23.934a1.14,1.14,0,0,1-1.14-1.14V135.978A1.14,1.14,0,0,1,23.934,134.838ZM35.331,128h4.559a1.14,1.14,0,0,1,1.14,1.14v22.794a1.14,1.14,0,0,1-1.14,1.14H35.331a1.14,1.14,0,0,1-1.14-1.14V129.14A1.14,1.14,0,0,1,35.331,128Zm0,0" transform="translate(0 -114.324)" fill="#006ce5"/>
  <path id="Path_81960" data-name="Path 81960" d="M37.61,0a3.423,3.423,0,0,0-3.419,3.419,3.381,3.381,0,0,0,.2,1.092L28.681,7.9a3.39,3.39,0,0,0-5.458.731L18.191,6.141a3.437,3.437,0,0,0,.045-.442A3.419,3.419,0,1,0,11.658,7L5.13,11.873A3.38,3.38,0,0,0,3.419,11.4a3.455,3.455,0,1,0,3.19,2.217L13.2,8.694a3.347,3.347,0,0,0,3.959-.519l5.723,2.834a3.416,3.416,0,0,0,6.749-.752c0-.087-.019-.169-.025-.254l6.205-3.689a3.385,3.385,0,0,0,1.8.524A3.419,3.419,0,1,0,37.61,0Zm0,0" fill="#006ce5"/>
</svg>
