<svg xmlns="http://www.w3.org/2000/svg" width="33.979" height="37.047" viewBox="0 0 33.979 37.047">
  <g id="Group_26733" data-name="Group 26733" transform="translate(0)">
    <path id="Path_81941" data-name="Path 81941" d="M33.979,15.474a8.53,8.53,0,0,0-8.44-8.519A9.167,9.167,0,0,0,7.476,9.166q0,.065,0,.131H7.349a7.349,7.349,0,1,0,0,14.7h.825v2.982a3.338,3.338,0,1,0,2.179,0V23.994H15.9v6.56a3.338,3.338,0,1,0,2.179,0v-6.56h5.548v2.982a3.338,3.338,0,1,0,2.179,0v-2.99a8.53,8.53,0,0,0,8.174-8.512ZM9.263,31.291a1.16,1.16,0,1,1,1.159-1.16A1.161,1.161,0,0,1,9.263,31.291Zm7.726,3.578a1.16,1.16,0,1,1,1.16-1.159,1.161,1.161,0,0,1-1.16,1.159Zm7.727-3.578a1.16,1.16,0,1,1,1.16-1.16A1.161,1.161,0,0,1,24.716,31.291Zm0,0" transform="translate(0)" fill="#006ce5"/>
  </g>
</svg>
