<svg xmlns="http://www.w3.org/2000/svg" width="91.223" height="91.223" viewBox="0 0 91.223 91.223">
  <g id="Group_26755" data-name="Group 26755" transform="translate(0.75 0.75)">
    <path id="Path_81978" data-name="Path 81978" d="M10.556,0H79.167A10.556,10.556,0,0,1,89.723,10.556V79.167A10.556,10.556,0,0,1,79.167,89.723H10.556A10.556,10.556,0,0,1,0,79.167V10.556A10.556,10.556,0,0,1,10.556,0Zm0,5.278a5.278,5.278,0,0,0-5.278,5.278V79.167a5.278,5.278,0,0,0,5.278,5.278H79.167a5.278,5.278,0,0,0,5.278-5.278V10.556a5.278,5.278,0,0,0-5.278-5.278H10.556ZM40.207,61.527l-20.4,12a2.639,2.639,0,1,1-2.676-4.549L39.565,55.781a2.639,2.639,0,0,1,3.449.691l6.439,8.586L69.817,51.882a2.639,2.639,0,1,1,2.867,4.431L50.253,70.827a2.639,2.639,0,0,1-3.545-.632ZM73.889,21.111a2.639,2.639,0,0,1,0,5.278H50.139a2.639,2.639,0,0,1,0-5.278h23.75ZM26.389,47.5A15.833,15.833,0,1,1,42.222,31.667,15.833,15.833,0,0,1,26.389,47.5ZM16.627,35.69l7.123-5.342v-8.9A10.566,10.566,0,0,0,16.627,35.69ZM19.8,39.91a10.558,10.558,0,0,0,13.187,0l-6.593-4.945Zm9.232-18.467v8.9l7.123,5.342a10.566,10.566,0,0,0-7.123-14.246ZM73.889,34.306a2.639,2.639,0,0,1,0,5.278H50.139a2.639,2.639,0,0,1,0-5.278h23.75Z" fill="#006ce5" stroke="#fff" stroke-width="1.5"/>
  </g>
</svg>
