<svg xmlns="http://www.w3.org/2000/svg" width="32.686" height="39.742" viewBox="0 0 32.686 39.742">
  <g id="Group_26734" data-name="Group 26734" transform="translate(-45.451 0)">
    <path id="Path_81942" data-name="Path 81942" d="M77.489,9.121,62.471.187a1.325,1.325,0,0,0-1.355,0L46.1,9.121a1.325,1.325,0,0,0-.647,1.139v5.1c0,10.742,6.207,20.554,15.865,24.293a1.325,1.325,0,0,0,.957,0c9.635-3.73,15.865-13.52,15.865-24.293v-5.1a1.325,1.325,0,0,0-.648-1.139Zm-9.151,7.773-8.3,8.3a1.325,1.325,0,0,1-1.873,0l-2.914-2.914a1.325,1.325,0,1,1,1.873-1.873L59.1,22.387l7.366-7.366a1.325,1.325,0,0,1,1.873,1.873Z" fill="#006ce5"/>
  </g>
</svg>
