<svg id="Group_26735" data-name="Group 26735" xmlns="http://www.w3.org/2000/svg" width="40.135" height="40.135" viewBox="0 0 40.135 40.135">
  <path id="Path_81943" data-name="Path 81943" d="M34.257,5.878a20.067,20.067,0,0,0-28.38,28.38,20.067,20.067,0,0,0,28.38-28.38ZM20.067,36.2A16.147,16.147,0,0,1,3.939,20.067c0-.015,0-.029,0-.043s0-.007,0-.011,0-.012,0-.018A16.146,16.146,0,0,1,19.848,3.942l.055,0,.033,0,.131,0a16.128,16.128,0,1,1,0,32.257Z" transform="translate(0 0)" fill="#fff"/>
  <path id="Path_81944" data-name="Path 81944" d="M107.1,95.714a1.187,1.187,0,0,1,0-2.375h1.431a13.777,13.777,0,0,0-12.659-12.31v1.246a1.187,1.187,0,1,1-2.375,0V81.057A13.777,13.777,0,0,0,81.152,93.5h1.282a1.187,1.187,0,0,1,0,2.375H81.142a13.776,13.776,0,0,0,12.519,12.569v-1.505a1.187,1.187,0,1,1,2.375,0v1.505a13.775,13.775,0,0,0,12.532-12.733Zm-7.444-4.1-3.967,3.967a1.187,1.187,0,0,1-1.679,0L87.1,88.679A1.187,1.187,0,0,1,88.783,87l6.066,6.066,3.128-3.128a1.187,1.187,0,1,1,1.679,1.679Z" transform="translate(-74.781 -74.677)" fill="#fff"/>
</svg>
