<svg xmlns="http://www.w3.org/2000/svg" width="38.243" height="38.243" viewBox="0 0 38.243 38.243">
  <g id="Group_26744" data-name="Group 26744" transform="translate(0 0)">
    <path id="Path_81955" data-name="Path 81955" d="M37.741,12.969,19.815.221a1.2,1.2,0,0,0-1.385,0L.5,12.969a1.194,1.194,0,0,0-.5.974V19.52a1.2,1.2,0,0,0,1.887.975l1.3-.926V36.65A1.593,1.593,0,0,0,4.78,38.243H7.967V19.121H30.276V38.243h3.187a1.593,1.593,0,0,0,1.593-1.593V19.569l1.3.924a1.195,1.195,0,0,0,1.888-.974V13.943a1.2,1.2,0,0,0-.5-.974Z" fill="#006ce5"/>
    <path id="Path_81956" data-name="Path 81956" d="M6.5,26.248H24.028v3.984H6.5Zm0-6.374H24.028v3.984H6.5Zm0-6.374H24.028v3.984H6.5Z" transform="translate(3.858 8.012)" fill="#006ce5"/>
  </g>
</svg>
