<svg xmlns="http://www.w3.org/2000/svg" width="63.233" height="62.986" viewBox="0 0 63.233 62.986">
  <g id="Group_26765" data-name="Group 26765" transform="translate(0 -1)">
    <path id="Path_81998" data-name="Path 81998" d="M181.123,57.871a4.947,4.947,0,0,0-4.578,3.088H172.23v3.705h4.314a4.94,4.94,0,1,0,4.578-6.793Zm8.645-10.5a4.908,4.908,0,0,0-2.255.547L182.926,44.1a1.853,1.853,0,0,0-1.186-.429h-9.51v3.705h8.839l4.022,3.352a4.939,4.939,0,1,0,4.677-3.352Zm0-15.438a4.947,4.947,0,0,0-4.578,3.088H172.23v3.705h12.959a4.94,4.94,0,1,0,4.578-6.793Zm-6.842-2.282,4.587-3.823a4.943,4.943,0,1,0-2.422-2.8l-4.022,3.352H172.23v3.705h9.51A1.852,1.852,0,0,0,182.926,29.654Zm-1.8-13.773a4.94,4.94,0,1,0-4.578-6.793H172.23v3.705h4.314A4.947,4.947,0,0,0,181.123,15.88ZM150,36.876A12.965,12.965,0,0,0,168.525,48.59V25.161A12.965,12.965,0,0,0,150,36.876Z" transform="translate(-131.475 -4.382)" fill="#006ce5"/>
    <path id="Path_81999" data-name="Path 81999" d="M35.2,1h-7.41a1.853,1.853,0,0,0-1.853,1.853V5.264A27.8,27.8,0,0,0,16.169,9.31L14.464,7.6a1.852,1.852,0,0,0-2.62,0L6.6,12.844a1.852,1.852,0,0,0,0,2.62L8.31,17.169a27.8,27.8,0,0,0-4.046,9.766H1.853A1.853,1.853,0,0,0,0,28.788V36.2a1.853,1.853,0,0,0,1.853,1.853H4.264A27.8,27.8,0,0,0,8.31,47.817L6.6,49.523a1.852,1.852,0,0,0,0,2.62l5.24,5.24a1.852,1.852,0,0,0,2.62,0l1.706-1.705a27.8,27.8,0,0,0,9.766,4.046v2.411a1.853,1.853,0,0,0,1.853,1.853H35.2a1.853,1.853,0,0,0,1.853-1.853V48.212a16.673,16.673,0,1,1,0-31.438V2.853A1.853,1.853,0,0,0,35.2,1Z" fill="#006ce5"/>
  </g>
</svg>
