<svg xmlns="http://www.w3.org/2000/svg" width="34.973" height="38.414" viewBox="0 0 34.973 38.414">
  <g id="Group_26749" data-name="Group 26749" transform="translate(-2.2)">
    <path id="Path_81963" data-name="Path 81963" d="M10.763,29.211,8.122,31.852a3.018,3.018,0,0,1-.48,3.841,3.16,3.16,0,0,1-2.241.96,2.906,2.906,0,0,1-2.241-.96A3.194,3.194,0,0,1,7,30.651L9.723,28.01ZM8.122,6.562,10.763,9.2l-1.12,1.12L7,7.683a2.886,2.886,0,0,1-1.6.48A2.906,2.906,0,0,1,3.16,7.2a3.189,3.189,0,0,1,0-4.562,3.339,3.339,0,0,1,4.562,0,3.4,3.4,0,0,1,.4,3.921ZM22.848,3.2a3.264,3.264,0,0,1-2.4,3.121V7.843h-1.6V6.322a3.264,3.264,0,0,1-2.4-3.121,3.2,3.2,0,0,1,6.4,0Zm0,32.012a3.2,3.2,0,0,1-6.4,0,3.264,3.264,0,0,1,2.4-3.121V30.571h1.6v1.521A3.264,3.264,0,0,1,22.848,35.213ZM28.53,9.2l2.641-2.641a3.2,3.2,0,0,1,2.721-4.8,2.906,2.906,0,0,1,2.241.96,3.189,3.189,0,0,1,0,4.562,3.16,3.16,0,0,1-2.241.96,2.886,2.886,0,0,1-1.6-.48L29.65,10.4Zm7.683,22.008a3.242,3.242,0,0,1-2.241,5.522,2.906,2.906,0,0,1-2.241-.96,3.158,3.158,0,0,1-.48-3.841L28.61,29.291l1.12-1.12,2.641,2.641a2.886,2.886,0,0,1,1.6-.48,3.073,3.073,0,0,1,2.241.88Z" fill="#006ce5"/>
    <path id="Path_81964" data-name="Path 81964" d="M4.3,21.768c8.723,11.924,22.808,11.924,31.532,0C27.108,9.844,13.023,9.844,4.3,21.768Zm15.766,6.082a6.082,6.082,0,1,1,6.082-6.082A6.08,6.08,0,0,1,20.066,27.851Z" transform="translate(-0.419 -2.561)" fill="#006ce5"/>
    <path id="Path_81965" data-name="Path 81965" d="M26.162,23.281a2.869,2.869,0,0,1-2.881,2.881A2.931,2.931,0,0,1,20.4,23.6a2.843,2.843,0,0,0,.8.16,2.323,2.323,0,0,0,2.321-2.321,2.215,2.215,0,0,0-.24-1.04A2.921,2.921,0,0,1,26.162,23.281Z" transform="translate(-3.635 -4.074)" fill="#006ce5"/>
  </g>
</svg>
