<svg xmlns="http://www.w3.org/2000/svg" width="31.428" height="40" viewBox="0 0 31.428 40">
  <g id="Group_26739" data-name="Group 26739" transform="translate(-5 -2)">
    <g id="Group_26736" data-name="Group 26736" transform="translate(5 2)">
      <path id="Path_81945" data-name="Path 81945" d="M16.429,10.9a1.432,1.432,0,0,1,1.429,1.436V15.2A1.429,1.429,0,1,1,15,15.2V12.332a1.433,1.433,0,0,1,1.429-1.437Zm0,10.056A1.436,1.436,0,1,0,15,19.513,1.433,1.433,0,0,0,16.429,20.951Z" transform="translate(-0.714 1.812)" fill="#fff"/>
      <path id="Path_81946" data-name="Path 81946" d="M19.123,2.308a4.264,4.264,0,0,1,3.183,0L33.734,6.9a4.31,4.31,0,0,1,2.694,4V25.438a12.943,12.943,0,0,1-6.243,11.086L21.448,41.8a1.421,1.421,0,0,1-1.47,0l-8.736-5.271A12.943,12.943,0,0,1,5,25.438V10.905a4.308,4.308,0,0,1,2.694-4ZM10.714,20.453a10,10,0,1,1,10,10.056A10.028,10.028,0,0,1,10.714,20.453Z" transform="translate(-5 -2)" fill="#fff" fill-rule="evenodd"/>
    </g>
  </g>
</svg>
