<svg id="Group_26763" data-name="Group 26763" xmlns="http://www.w3.org/2000/svg" width="62.987" height="62.987" viewBox="0 0 62.987 62.987">
  <path id="Path_81994" data-name="Path 81994" d="M24.276,0H4.593A4.6,4.6,0,0,0,0,4.593V16.4A4.6,4.6,0,0,0,4.593,21H24.276A4.6,4.6,0,0,0,28.869,16.4V4.593A4.6,4.6,0,0,0,24.276,0Zm0,26.245H4.593A4.6,4.6,0,0,0,0,30.838V58.395a4.6,4.6,0,0,0,4.593,4.593H24.276a4.6,4.6,0,0,0,4.593-4.593V30.838A4.6,4.6,0,0,0,24.276,26.245ZM58.395,41.991H38.711a4.6,4.6,0,0,0-4.593,4.593v11.81a4.6,4.6,0,0,0,4.593,4.593H58.395a4.6,4.6,0,0,0,4.593-4.593V46.585A4.6,4.6,0,0,0,58.395,41.991ZM58.395,0H38.711a4.6,4.6,0,0,0-4.593,4.593V32.15a4.6,4.6,0,0,0,4.593,4.593H58.395a4.6,4.6,0,0,0,4.593-4.593V4.593A4.6,4.6,0,0,0,58.395,0Zm0,0" fill="#006ce5"/>
</svg>
