<svg xmlns="http://www.w3.org/2000/svg" width="62.136" height="107.012" viewBox="0 0 62.136 107.012">
  <g id="Group_26623" data-name="Group 26623" transform="translate(-28.78 -5.676)">
    <g id="Group_26761" data-name="Group 26761" transform="translate(14.78 4.676)">
      <path id="Path_81989" data-name="Path 81989" d="M62.328,1H27.808A13.823,13.823,0,0,0,14,14.808V94.2a13.824,13.824,0,0,0,13.808,13.808h34.52A13.823,13.823,0,0,0,76.136,94.2v-79.4A13.823,13.823,0,0,0,62.328,1ZM17.452,18.26H72.684V83.848H17.452ZM27.808,4.452h34.52A10.366,10.366,0,0,1,72.684,14.808H17.452A10.366,10.366,0,0,1,27.808,4.452ZM62.328,104.56H27.808A10.366,10.366,0,0,1,17.452,94.2V87.3H72.684v6.9A10.366,10.366,0,0,1,62.328,104.56Z" transform="translate(0 0)" fill="#006ce5"/>
      <path id="Path_81990" data-name="Path 81990" d="M34.9,87.848a5.178,5.178,0,1,0,5.178,5.178A5.178,5.178,0,0,0,34.9,87.848Zm0,6.9a1.726,1.726,0,1,1,1.726-1.726A1.726,1.726,0,0,1,34.9,94.752ZM40.082,5H29.726a1.726,1.726,0,0,0,0,3.452H40.082a1.726,1.726,0,0,0,0-3.452Z" transform="translate(10.164 2.904)" fill="#006ce5"/>
    </g>
  </g>
</svg>
