<svg xmlns="http://www.w3.org/2000/svg" width="71.019" height="62.988" viewBox="0 0 71.019 62.988">
  <g id="Group_26902" data-name="Group 26902" transform="translate(0 -28.951)">
    <path id="Path_81971" data-name="Path 81971" d="M18.666,68.006V67.92a28.085,28.085,0,0,1,7.65-19.332H0V79.293a1.592,1.592,0,0,0,1.592,1.592H21.785a31.721,31.721,0,0,1-3.116-12.792ZM46.944,39.614H47a28.225,28.225,0,0,1,5.377.517V30.543a1.592,1.592,0,0,0-1.592-1.592H1.592A1.592,1.592,0,0,0,0,30.543V44.426H31.19A28.014,28.014,0,0,1,46.944,39.614ZM12.55,36.744a2.081,2.081,0,1,1-4.161,0V36.62a2.081,2.081,0,1,1,4.161,0Zm8.323,0a2.081,2.081,0,1,1-4.161,0V36.62a2.081,2.081,0,1,1,4.161,0Zm8.323,0a2.081,2.081,0,1,1-4.161,0V36.62a2.081,2.081,0,1,1,4.161,0Zm4.6,10.959L46.9,64.47,60.058,47.641a24.08,24.08,0,0,0-26.267.061ZM71.019,65.767a24.082,24.082,0,0,0-7.675-15.572L51.169,65.767Z" fill="#006ce5"/>
    <path id="Path_81972" data-name="Path 81972" d="M188.642,202.309h0a2.077,2.077,0,0,1-1.639-.8l-14.745-18.859a24.067,24.067,0,0,0-7.69,17.649c1.3,31.366,45.055,31.987,48.141,2.009H188.642Z" transform="translate(-141.74 -132.38)" fill="#006ce5"/>
  </g>
</svg>
