<svg xmlns="http://www.w3.org/2000/svg" width="116.64" height="95.432" viewBox="0 0 116.64 95.432">
  <g id="Group_26673" data-name="Group 26673" transform="translate(-3 -9)">
    <path id="Path_81875" data-name="Path 81875" d="M110.8,9H11.836A8.846,8.846,0,0,0,3,17.836V95.6a8.846,8.846,0,0,0,8.836,8.836H110.8A8.846,8.846,0,0,0,119.64,95.6V17.836A8.846,8.846,0,0,0,110.8,9Zm5.3,86.6a5.308,5.308,0,0,1-5.3,5.3H11.836a5.308,5.308,0,0,1-5.3-5.3V33.742H66.622a1.767,1.767,0,0,0,0-3.535H6.535V17.836a5.308,5.308,0,0,1,5.3-5.3H110.8a5.308,5.308,0,0,1,5.3,5.3Z" transform="translate(0 0)" fill="#006ce5"/>
    <path id="Path_81876" data-name="Path 81876" d="M97.131,27.138H70.622a1.767,1.767,0,0,0,0,3.535H97.131a1.767,1.767,0,0,0,0-3.535Zm10.6,0h-5.3a1.767,1.767,0,0,0,0,3.535h5.3a1.767,1.767,0,0,0,0-3.535ZM12.3,13a5.3,5.3,0,1,0,5.3,5.3A5.308,5.308,0,0,0,12.3,13Zm0,7.069a1.769,1.769,0,0,1,0-3.535,1.769,1.769,0,0,1,0,3.535ZM26.44,13a5.3,5.3,0,1,0,5.3,5.3A5.308,5.308,0,0,0,26.44,13Zm0,7.069A1.769,1.769,0,1,1,28.13,18.3a1.769,1.769,0,0,1-1.69,1.767ZM40.578,13a5.3,5.3,0,1,0,5.3,5.3A5.308,5.308,0,0,0,40.578,13Zm0,7.069a1.769,1.769,0,1,1,1.69-1.767,1.769,1.769,0,0,1-1.69,1.767ZM72.292,50.41,51.084,64.548a1.769,1.769,0,0,0-.786,1.47v7.069a1.767,1.767,0,0,0,1.767,1.767h7.069a1.77,1.77,0,0,0,1.47-.786L74.743,52.861a1.767,1.767,0,0,0-2.451-2.451Zm-14.1,20.91H53.833V66.964L66.9,58.251ZM76.823,57.912a19.46,19.46,0,0,1,1.751,8.106,19.031,19.031,0,0,1-1.115,6.47,1.768,1.768,0,1,0,3.326,1.2,22.593,22.593,0,0,0,1.324-7.668,23.01,23.01,0,0,0-2.066-9.566,1.768,1.768,0,1,0-3.22,1.46Z" transform="translate(3.069 3.069)" fill="#006ce5"/>
    <path id="Path_81877" data-name="Path 81877" d="M46.474,33.535a19.472,19.472,0,0,1,8.1,1.75,1.767,1.767,0,1,0,1.462-3.216A23.008,23.008,0,0,0,23.5,52.974a22.593,22.593,0,0,0,1.324,7.668,1.769,1.769,0,0,0,3.326-1.2,19.031,19.031,0,0,1-1.115-6.47A19.463,19.463,0,0,1,46.474,33.535Z" transform="translate(15.729 16.113)" fill="#006ce5"/>
    <path id="Path_81878" data-name="Path 81878" d="M49.427,26a30.924,30.924,0,0,0-26.5,46.864,1.769,1.769,0,0,0,1.513.852H74.416a1.764,1.764,0,0,0,1.511-.852A30.921,30.921,0,0,0,49.427,26ZM73.4,70.182H25.456a27.393,27.393,0,1,1,47.942,0Zm-4.531,7.069H29.987a1.767,1.767,0,1,0,0,3.535h38.88a1.767,1.767,0,0,0,0-3.535Z" transform="translate(11.893 13.044)" fill="#006ce5"/>
  </g>
</svg>
