<svg xmlns="http://www.w3.org/2000/svg" width="62.85" height="62.85" viewBox="0 0 62.85 62.85">
  <g id="Group_26743" data-name="Group 26743" transform="translate(0 0)">
    <path id="Path_81953" data-name="Path 81953" d="M.015,27.382A1.841,1.841,0,0,0,1.842,29.45H9.333a1.841,1.841,0,0,0,1.816-1.536A20.44,20.44,0,0,1,27.914,11.149,1.841,1.841,0,0,0,29.45,9.333V1.842A1.841,1.841,0,0,0,27.382.015h0A31.545,31.545,0,0,0,.015,27.382ZM43.158,47.958A20.4,20.4,0,0,1,11.149,34.7a1.841,1.841,0,0,0-1.816-1.536H1.842A1.841,1.841,0,0,0,.015,35.232h0A31.566,31.566,0,0,0,31.307,62.851a31.233,31.233,0,0,0,19.351-6.642,1.841,1.841,0,0,0,.171-2.755l-5.3-5.3A1.841,1.841,0,0,0,43.158,47.958ZM34.7,11.149A20.4,20.4,0,0,1,47.958,43.158a1.841,1.841,0,0,0,.2,2.372l5.3,5.3a1.841,1.841,0,0,0,2.755-.171h0a31.233,31.233,0,0,0,6.641-19.351A31.566,31.566,0,0,0,35.232.015h0a1.841,1.841,0,0,0-2.068,1.827V9.333A1.841,1.841,0,0,0,34.7,11.149Z" transform="translate(0 0)" fill="#006ce5"/>
    <path id="Path_81954" data-name="Path 81954" d="M164.153,151.964H161.7a1.841,1.841,0,0,0-1.841,1.841v21.482h6.139V153.805A1.841,1.841,0,0,0,164.153,151.964Zm5.524,23.323h4.3a1.841,1.841,0,0,0,1.841-1.841v-14.73a1.841,1.841,0,0,0-1.841-1.841h-4.3Zm-13.5-13.5h-4.293a1.841,1.841,0,0,0-1.841,1.841v9.82a1.841,1.841,0,0,0,1.841,1.841h4.293Z" transform="translate(-131.62 -133.309)" fill="#006ce5"/>
  </g>
</svg>
