<svg xmlns="http://www.w3.org/2000/svg" width="63.067" height="63.066" viewBox="0 0 63.067 63.066">
  <g id="Group_26901" data-name="Group 26901" transform="translate(0 0)">
    <path id="Path_82308" data-name="Path 82308" d="M3.816,19.782H1.836a1.848,1.848,0,0,0,0,3.7H3.816A1.848,1.848,0,0,0,3.816,19.782Zm47.506,3.7H53.3a1.848,1.848,0,0,0,0-3.7H51.322A1.848,1.848,0,0,0,51.322,23.478ZM27.569,5.664a1.848,1.848,0,0,0,1.848-1.848V1.836a1.848,1.848,0,0,0-3.7,0V3.816A1.848,1.848,0,0,0,27.569,5.664Zm-16.508.8L9.081,4.488A1.848,1.848,0,0,0,6.468,7.1L8.447,9.081a1.848,1.848,0,0,0,2.613-2.613ZM46.69,9.081,48.669,7.1a1.848,1.848,0,0,0-2.613-2.613L44.077,6.468A1.848,1.848,0,0,0,46.69,9.081ZM27.7,48.352V44.572a5.357,5.357,0,0,1,2.377-4.447A5.358,5.358,0,0,1,31.541,35.3l3.76-3.76a5.341,5.341,0,0,1,4.825-1.464A5.357,5.357,0,0,1,44.572,27.7h.677A17.7,17.7,0,0,0,27.569,9.885C10.3,10.46,4.337,30.24,15.922,41.077c2.157,2.43,3.862,4.35,3.86,7.274H27.7Zm19.531-4.221a3.1,3.1,0,1,0,3.1,3.1,3.1,3.1,0,0,0-3.1-3.1Z" transform="translate(0 0)" fill="#006ce5"/>
    <path id="Path_82309" data-name="Path 82309" d="M202.406,266.371l-2.019-.252q-.182-.494-.4-.971l1.249-1.607a1.655,1.655,0,0,0-.136-2.186l-3.761-3.76a1.655,1.655,0,0,0-2.186-.136l-1.607,1.249q-.477-.221-.971-.4l-.252-2.019a1.655,1.655,0,0,0-1.642-1.45h-5.318a1.655,1.655,0,0,0-1.642,1.45l-.252,2.018q-.494.182-.971.4l-1.607-1.249a1.655,1.655,0,0,0-2.186.136l-3.76,3.76a1.655,1.655,0,0,0-.136,2.186l1.249,1.607q-.221.477-.4.971l-2.019.252a1.655,1.655,0,0,0-1.45,1.642v5.318a1.655,1.655,0,0,0,1.45,1.642l2.019.252q.182.494.4.971l-1.249,1.606a1.655,1.655,0,0,0,.136,2.186l3.76,3.76a1.655,1.655,0,0,0,2.186.136l1.607-1.249q.477.221.971.4l.252,2.018a1.655,1.655,0,0,0,1.642,1.45h5.318a1.655,1.655,0,0,0,1.642-1.45l.252-2.019q.494-.182.971-.4l1.606,1.249a1.655,1.655,0,0,0,2.186-.136l3.761-3.761a1.655,1.655,0,0,0,.136-2.186l-1.249-1.607q.221-.477.4-.971l2.018-.252a1.655,1.655,0,0,0,1.45-1.642v-5.317a1.655,1.655,0,0,0-1.45-1.642Zm-14.386,11.1a6.8,6.8,0,0,1-6.8-6.8c.342-9,13.253-9,13.593,0A6.8,6.8,0,0,1,188.02,277.469Zm-17.154.309a5.384,5.384,0,0,1-1.919-2.289h-8.376v2.243a6.805,6.805,0,0,0,5.938,6.74v.188a1.848,1.848,0,0,0,3.7,0v-.187a6.759,6.759,0,0,0,2.906-1.087l-.782-.782A5.358,5.358,0,0,1,170.866,277.778Z" transform="translate(-140.789 -223.441)" fill="#006ce5"/>
  </g>
</svg>
