<svg xmlns="http://www.w3.org/2000/svg" width="39.977" height="39.743" viewBox="0 0 39.977 39.743">
  <g id="Group_26746" data-name="Group 26746" transform="translate(-6.33 -6.48)">
    <path id="Path_81958" data-name="Path 81958" d="M6.33,32.6a3.386,3.386,0,0,0,3.379,3.379H42.928A3.386,3.386,0,0,0,46.307,32.6V31.468H6.33Zm18.844.218h2.461a.779.779,0,1,1,0,1.557H25.174a.779.779,0,1,1,0-1.557ZM42.928,6.48H9.709A3.386,3.386,0,0,0,6.33,9.859V29.91H46.307V9.859A3.386,3.386,0,0,0,42.928,6.48ZM29.682,23.8a6.626,6.626,0,0,1-10.076-6.027l-.825.537A.78.78,0,1,1,17.932,17c.156-.09,2.489-1.664,2.577-1.666a.773.773,0,0,1,.888.257l1.581,2.095a.779.779,0,0,1-1.238.942l-.584-.771a5.045,5.045,0,0,0,7.7,4.625.777.777,0,0,1,.825,1.316Zm4.945-4.072L32.034,21.01a.811.811,0,0,1-.576.117.789.789,0,0,1-.506-.335L29.3,18.806a.777.777,0,0,1,1.2-.989l.709.857c.016-.156.023-.319.023-.475a5.07,5.07,0,0,0-7.981-4.1.783.783,0,0,1-1.09-.179c-.88-1.526,2.994-2.391,4.026-2.328a6.613,6.613,0,0,1,6.6,6.611,5.651,5.651,0,0,1-.047.723l1.191-.591a.779.779,0,0,1,.693,1.394ZM22.472,37.542l-.755,3.963h9.2l-.755-3.963H22.472Zm13.765,5.521H16.4c-1.029.05-.663,2.428-.726,3.16H36.963C36.9,45.486,37.271,43.117,36.237,43.063Z" transform="translate(0)" fill="#006ce5"/>
  </g>
</svg>
