<svg xmlns="http://www.w3.org/2000/svg" width="63.883" height="62.988" viewBox="0 0 63.883 62.988">
  <g id="Group_26903" data-name="Group 26903" transform="translate(-1 -1.3)">
    <path id="Path_82310" data-name="Path 82310" d="M42.793,31.351l-3.682-1.294a12.923,12.923,0,0,0-1.294-2.985l1.692-3.483a.881.881,0,0,0-.2-1.095l-4.279-4.279a.932.932,0,0,0-1.095-.2l-3.483,1.692c-1-.5-1.99-.9-2.985-1.294l-1.294-3.682a.956.956,0,0,0-.9-.7H19.21a1.2,1.2,0,0,0-1,.7l-1.294,3.682a12.923,12.923,0,0,0-2.985,1.294l-3.383-1.791a1.085,1.085,0,0,0-1.194.2L5.08,22.4a.932.932,0,0,0-.2,1.095l1.692,3.483a18.677,18.677,0,0,0-1.194,2.985L1.7,31.251a1.2,1.2,0,0,0-.7,1v6.07a1.2,1.2,0,0,0,.7,1l3.682,1.294A12.923,12.923,0,0,0,6.672,43.59L4.98,47.073a1.058,1.058,0,0,0,.2,1.194l4.279,4.279a1.058,1.058,0,0,0,1.194.2l3.483-1.692c1,.5,1.99.9,2.985,1.294l1.294,3.682a.956.956,0,0,0,.9.7h6.07a.956.956,0,0,0,.9-.7l1.294-3.682a12.923,12.923,0,0,0,2.985-1.294l3.483,1.692a.908.908,0,0,0,1.095-.2l4.279-4.279a1.058,1.058,0,0,0,.2-1.194l-1.791-3.582c.5-1,.9-1.99,1.294-2.985l3.682-1.294a.989.989,0,0,0,.7-1v-6.07a.942.942,0,0,0-.7-.8Zm-20.6,12.438a8.458,8.458,0,1,1,8.458-8.458A8.451,8.451,0,0,1,22.195,43.789Zm41.793-32.24-1.99-.7c-.2-.5-.4-1-.6-1.393l.9-1.891a1.085,1.085,0,0,0-.2-1.194L59.709,3.887a.932.932,0,0,0-1.095-.2l-1.891.9c-.5-.2-.9-.4-1.393-.6L54.634,2a.956.956,0,0,0-.9-.7H50.156a1.2,1.2,0,0,0-1,.7l-.7,1.99c-.5.2-1,.4-1.393.6l-1.891-.9a1.058,1.058,0,0,0-1.194.2L41.5,6.375a1.058,1.058,0,0,0-.2,1.194l.9,1.891c-.2.5-.4.9-.6,1.393l-1.99.7a.956.956,0,0,0-.7.9v3.582a.956.956,0,0,0,.7.9l1.99.7.6,1.493L41.3,20.9a1.058,1.058,0,0,0,.2,1.194l2.488,2.488a1.058,1.058,0,0,0,1.194.2l1.891-.9c.5.2,1,.4,1.393.6l.7,1.99a.989.989,0,0,0,1,.7h3.582a.956.956,0,0,0,.9-.7l.7-1.99c.5-.2,1-.4,1.393-.6l1.891.9a1.085,1.085,0,0,0,1.194-.2L62.3,22.1a1.058,1.058,0,0,0,.2-1.194l-.9-1.891.6-1.493,1.99-.7a.956.956,0,0,0,.7-.9V12.345a1.756,1.756,0,0,0-.9-.8Zm-12.14,7.662a4.927,4.927,0,0,1-4.975-4.975,4.975,4.975,0,1,1,4.975,4.975Z" fill="#006ce5"/>
    <path id="Path_82311" data-name="Path 82311" d="M64.15,44.133l-2.786-1a8.446,8.446,0,0,0-.9-2.189l1.294-2.687a.908.908,0,0,0-.2-1.095L58.18,33.784a1.058,1.058,0,0,0-1.194-.2L54.4,34.978a10.153,10.153,0,0,0-2.189-.9l-.9-2.786a.989.989,0,0,0-1-.7H45.542a.9.9,0,0,0-.5.1,3.355,3.355,0,0,1,.5,1.692v6.07a2.9,2.9,0,0,1-1.99,2.786l-2.786,1c-.2.5-.4,1-.6,1.393l1.294,2.587a2.9,2.9,0,0,1-.6,3.483l-4.279,4.279a3.136,3.136,0,0,1-1.692.9L34,56.671a.908.908,0,0,0,.2,1.095l3.383,3.383a1.058,1.058,0,0,0,1.194.2l2.687-1.294a10.153,10.153,0,0,0,2.189.9l1,2.786a.989.989,0,0,0,1,.7h4.776a1.2,1.2,0,0,0,1-.7l.9-2.786c.8-.3,1.493-.6,2.189-.9l2.687,1.294a1.085,1.085,0,0,0,1.194-.2l3.383-3.383a.932.932,0,0,0,.2-1.095l-1.294-2.687a10.153,10.153,0,0,0,.9-2.189l2.786-1a.989.989,0,0,0,.7-1V45.028a1.953,1.953,0,0,0-.9-.9ZM48.925,54.183a6.667,6.667,0,1,1,6.667-6.667,6.667,6.667,0,0,1-6.667,6.667Z" transform="translate(-0.162 -0.145)" fill="#006ce5"/>
  </g>
</svg>
