<svg xmlns="http://www.w3.org/2000/svg" width="104.889" height="104.889" viewBox="0 0 104.889 104.889">
  <g id="Group_26677" data-name="Group 26677" transform="translate(-10.437 -4.985)">
    <g id="Group_26762" data-name="Group 26762" transform="translate(10.437 4.985)">
      <path id="Path_81991" data-name="Path 81991" d="M206.667,326.556A6.563,6.563,0,0,0,200.111,320H134.556A6.563,6.563,0,0,0,128,326.556V335.3a6.507,6.507,0,0,0,1.7,4.37,6.507,6.507,0,0,0-1.7,4.37v8.741a6.563,6.563,0,0,0,6.556,6.556h65.555a6.563,6.563,0,0,0,6.556-6.556v-8.741a6.507,6.507,0,0,0-1.7-4.37,6.507,6.507,0,0,0,1.7-4.37Zm-4.37,26.222a2.186,2.186,0,0,1-2.185,2.185H134.556a2.186,2.186,0,0,1-2.185-2.185v-8.741a2.186,2.186,0,0,1,2.185-2.185h65.555a2.186,2.186,0,0,1,2.185,2.185Zm0-17.481a2.186,2.186,0,0,1-2.185,2.185H134.556a2.186,2.186,0,0,1-2.185-2.185v-8.741a2.186,2.186,0,0,1,2.185-2.185h65.555a2.186,2.186,0,0,1,2.185,2.185Z" transform="translate(-101.778 -254.445)" fill="#006ce5"/>
      <path id="Path_81992" data-name="Path 81992" d="M20.405,97.4C10.515,94.457,4.37,89.789,4.37,85.222V72.089c3.247,3.042,8.186,5.664,14.667,7.609a2.258,2.258,0,0,0,.629.092,2.186,2.186,0,0,0,.629-4.279C10.471,72.565,4.37,67.915,4.37,63.37V50.18c7.006,6.564,21.786,11,39.333,11s32.328-4.44,39.333-11V59a2.185,2.185,0,0,0,4.37,0V19.667C87.407,8.64,68.208,0,43.7,0S0,8.64,0,19.667V85.222C0,92,6.984,97.962,19.16,101.589a2.229,2.229,0,0,0,.625.092,2.185,2.185,0,0,0,.621-4.279ZM43.7,4.37c23.18,0,39.333,8.063,39.333,15.3s-16.153,15.3-39.333,15.3S4.37,26.9,4.37,19.667,20.523,4.37,43.7,4.37ZM4.37,28.329c7.006,6.564,21.786,11,39.333,11s32.328-4.44,39.333-11v13.19c0,7.233-16.153,15.3-39.333,15.3S4.37,48.752,4.37,41.519V28.329ZM93.963,91.778H76.481a2.185,2.185,0,0,0,0,4.37H93.963a2.185,2.185,0,0,0,0-4.37Z" fill="#006ce5"/>
      <path id="Path_81993" data-name="Path 81993" d="M172.851,362.667a2.185,2.185,0,1,0,2.185,2.185A2.186,2.186,0,0,0,172.851,362.667Zm0,17.481a2.185,2.185,0,1,0,2.185,2.185A2.186,2.186,0,0,0,172.851,380.148Zm56.815-17.481H212.185a2.185,2.185,0,0,0,0,4.37h17.481a2.185,2.185,0,0,0,0-4.37Z" transform="translate(-135.703 -288.371)" fill="#006ce5"/>
    </g>
  </g>
</svg>
