<svg xmlns="http://www.w3.org/2000/svg" width="95.425" height="95.433" viewBox="0 0 95.425 95.433">
  <g id="Group_26753" data-name="Group 26753" transform="translate(-0.019)">
    <path id="Path_81973" data-name="Path 81973" d="M93.581,254.4H60.22a1.864,1.864,0,0,0,0,3.727H93.581a1.864,1.864,0,0,0,0-3.727Zm-58.523,0H1.884a1.864,1.864,0,0,0,0,3.727H35.059a1.864,1.864,0,0,0,0-3.727Zm13.411-49.85H34.026a1.864,1.864,0,1,0,0,3.727H48.469a1.864,1.864,0,1,0,0-3.727Zm14.507.546a1.862,1.862,0,1,0,.546,1.318A1.878,1.878,0,0,0,62.976,205.1Zm-6.51,0a1.867,1.867,0,1,0,.544,1.318A1.882,1.882,0,0,0,56.466,205.1Zm-8,14.364H34.026a1.864,1.864,0,0,0,0,3.727H48.469a1.864,1.864,0,0,0,0-3.727Zm14.507.546a1.862,1.862,0,1,0,.546,1.318A1.878,1.878,0,0,0,62.976,220.009Zm-6.51,0a1.867,1.867,0,1,0,.544,1.318A1.882,1.882,0,0,0,56.466,220.009Zm-8,14.364H34.026a1.864,1.864,0,1,0,0,3.727H48.469a1.864,1.864,0,1,0,0-3.727Zm14.507.546a1.863,1.863,0,1,0,.546,1.318A1.881,1.881,0,0,0,62.976,234.92Zm-6.512,0a1.863,1.863,0,1,0,.546,1.318A1.875,1.875,0,0,0,56.464,234.92Z" transform="translate(-0.001 -166.426)" fill="#006ce5"/>
    <path id="Path_81974" data-name="Path 81974" d="M174.6,190.216a9.31,9.31,0,0,0-3.734-7.455,9.316,9.316,0,0,0-5.585-16.774h-29.82a9.316,9.316,0,0,0-5.585,16.774,9.309,9.309,0,0,0,0,14.91,9.316,9.316,0,0,0,5.585,16.774h13.023v5.174a5.591,5.591,0,1,0,3.728,0v-5.174h13.07a9.316,9.316,0,0,0,5.585-16.774,9.311,9.311,0,0,0,3.734-7.455Zm-44.731-14.91a5.6,5.6,0,0,1,5.591-5.591h29.82a5.591,5.591,0,0,1,0,11.183h-29.82A5.6,5.6,0,0,1,129.864,175.306Zm20.478,51.448a1.864,1.864,0,1,1,1.864-1.864A1.866,1.866,0,0,1,150.342,226.754Zm20.525-21.627a5.6,5.6,0,0,1-5.591,5.591h-29.82a5.591,5.591,0,1,1,0-11.183h29.82A5.6,5.6,0,0,1,170.867,205.126Zm-5.591-9.319h-29.82a5.591,5.591,0,1,1,0-11.183h29.82a5.591,5.591,0,0,1,0,11.183Z" transform="translate(-102.611 -135.048)" fill="#006ce5"/>
    <path id="Path_81975" data-name="Path 81975" d="M91.443,28.86a22.719,22.719,0,0,0-9.489-7.892,32.251,32.251,0,0,0-61.873,5.141q-.433-.02-.866-.02a19.2,19.2,0,0,0-2.978,38.164,1.886,1.886,0,0,0,.289.023,1.864,1.864,0,0,0,.285-3.705,15.471,15.471,0,0,1,2.4-30.753,15.653,15.653,0,0,1,2.165.152,1.864,1.864,0,0,0,2.1-1.6,28.521,28.521,0,0,1,55.227-5.4A1.864,1.864,0,0,0,79.781,24.1a19.017,19.017,0,0,1-3.242,36.274,1.864,1.864,0,1,0,.747,3.652A22.744,22.744,0,0,0,91.443,28.86Z" fill="#006ce5"/>
  </g>
</svg>
