<svg id="Group_26562" data-name="Group 26562" xmlns="http://www.w3.org/2000/svg" width="31.063" height="38.815" viewBox="0 0 31.063 38.815">
  <path id="Path_81739" data-name="Path 81739" d="M18.449,17.192c-7.288,0-13.4-2.141-15.063-5.028a3.158,3.158,0,0,0-.464,1.584v4.724c0,3.649,6.954,6.61,15.527,6.61s15.535-2.961,15.535-6.61V13.748a3.139,3.139,0,0,0-.47-1.584c-1.667,2.885-7.77,5.028-15.066,5.028Z" transform="translate(-2.922 3.972)" fill="#006ce5"/>
  <path id="Path_81740" data-name="Path 81740" d="M18.449,29.276c-7.288,0-13.4-2.144-15.063-5.025a3.14,3.14,0,0,0-.464,1.58v4.728c0,3.651,6.954,6.61,15.527,6.61s15.535-2.958,15.535-6.61V25.831a3.113,3.113,0,0,0-.47-1.579C31.848,27.132,25.745,29.276,18.449,29.276ZM33.56,5.042c-.305,2.674-6.941,4.814-15.111,4.814S3.648,7.716,3.344,5.043a3.138,3.138,0,0,0-.422,1.514v4.724c0,3.651,6.954,6.61,15.527,6.61s15.535-2.958,15.535-6.61V6.557A3.15,3.15,0,0,0,33.56,5.042Z" transform="translate(-2.922 1.647)" fill="#006ce5"/>
  <path id="Path_81741" data-name="Path 81741" d="M18.352,10c8.361,0,15.136-2.238,15.136-5S26.714,0,18.352,0,3.219,2.241,3.219,5,10,10,18.352,10Z" transform="translate(-2.825)" fill="#006ce5"/>
</svg>
