<svg xmlns="http://www.w3.org/2000/svg" width="38.219" height="38.243" viewBox="0 0 38.219 38.243">
  <g id="Group_26757" data-name="Group 26757" transform="translate(-20 -20)">
    <path id="Path_81981" data-name="Path 81981" d="M58.219,36.842a3.888,3.888,0,0,0-3.887-3.887H40.4l2.316-7.725a4.083,4.083,0,0,0-2.777-5.069A4,4,0,0,0,38.834,20a3.691,3.691,0,0,0-3.312,2.089L30.6,32.381A4.459,4.459,0,0,1,26.607,34.9H20.972a.976.976,0,0,0-.818.445,1,1,0,0,0-.154.526V53.36a.975.975,0,0,0,.972.972h2.648a4.452,4.452,0,0,1,3.409,1.619,6.325,6.325,0,0,0,4.9,2.292H48.5a3.888,3.888,0,0,0,3.239-6.049,3.889,3.889,0,0,0,2.381-4.955,3.841,3.841,0,0,0-.437-.874,3.889,3.889,0,0,0,2.381-4.955,3.841,3.841,0,0,0-.437-.874A3.887,3.887,0,0,0,58.219,36.842Z" fill="#006ce5"/>
  </g>
</svg>
