<svg id="Group_26754" data-name="Group 26754" xmlns="http://www.w3.org/2000/svg" width="102.646" height="102.646" viewBox="0 0 102.646 102.646">
  <path id="Path_81976" data-name="Path 81976" d="M94.093,61.588H78.7V47.9a3.422,3.422,0,0,1,6.843,0v5.132a5.132,5.132,0,1,0,10.265,0V47.9A13.633,13.633,0,0,0,78.7,34.665V6.843A6.843,6.843,0,0,0,71.853,0H6.843A6.843,6.843,0,0,0,0,6.843V75.274a6.843,6.843,0,0,0,6.843,6.843H61.588V94.093a8.564,8.564,0,0,0,8.554,8.554H94.093a8.564,8.564,0,0,0,8.554-8.554V70.142a8.564,8.564,0,0,0-8.554-8.554ZM92.382,47.9v5.132a1.711,1.711,0,1,1-3.422,0V47.9a6.843,6.843,0,0,0-13.686,0V61.588H71.853V47.9a10.265,10.265,0,0,1,20.529,0ZM61.588,70.142v1.711H10.265V17.108H68.431V61.759A8.569,8.569,0,0,0,61.588,70.142ZM6.843,78.7a3.422,3.422,0,0,1-3.422-3.422V6.843A3.422,3.422,0,0,1,6.843,3.422H71.853a3.422,3.422,0,0,1,3.422,3.422V36.067a13.8,13.8,0,0,0-3.422,2.813V17.108a3.422,3.422,0,0,0-3.422-3.422H10.265a3.422,3.422,0,0,0-3.422,3.422V71.853a3.422,3.422,0,0,0,3.422,3.422H61.588V78.7Zm92.382,15.4a5.132,5.132,0,0,1-5.132,5.132H70.142a5.132,5.132,0,0,1-5.132-5.132V70.142a5.132,5.132,0,0,1,5.132-5.132H94.093a5.132,5.132,0,0,1,5.132,5.132Z" fill="#006ce5"/>
  <path id="Path_81977" data-name="Path 81977" d="M83.011,70.64a6.843,6.843,0,0,0-11.156,3.878,6.771,6.771,0,0,0,1.393,5.62l-1.071,5.3a3.422,3.422,0,0,0,3.346,4.1H81.6a3.422,3.422,0,0,0,3.355-4.106l-1.066-5.279-.067.06A6.843,6.843,0,0,0,83,70.633Zm-2.465,10.2L81.6,86.117h-6.08l1.071-5.3a3.314,3.314,0,0,0-.684-2.8,3.421,3.421,0,0,1-.707-2.852,3.457,3.457,0,0,1,2.768-2.684,3.821,3.821,0,0,1,.592-.046,3.384,3.384,0,0,1,2.224.814,3.422,3.422,0,0,1,1.2,2.607,3.379,3.379,0,0,1-.778,2.168,3.317,3.317,0,0,0-.669,2.818ZM6.711,7.422H8.422A1.711,1.711,0,1,0,8.422,4H6.711a1.711,1.711,0,1,0,0,3.422Zm8.554,0h1.711a1.711,1.711,0,1,0,0-3.422H15.265a1.711,1.711,0,1,0,0,3.422Zm8.554,0h1.711a1.711,1.711,0,1,0,0-3.422H23.819a1.711,1.711,0,1,0,0,3.422Zm30.794,0H64.877a1.711,1.711,0,1,0,0-3.422H54.612a1.711,1.711,0,1,0,0,3.422ZM25.069,30.206a1.711,1.711,0,0,0-2.417-.084l-9.726,9.055a3.336,3.336,0,0,0,0,4.92l9.726,9.055a1.711,1.711,0,0,0,2.333-2.5l-9.721-8.973,9.727-9.055a1.711,1.711,0,0,0,.077-2.417Zm23.867-.084a1.711,1.711,0,0,0-2.333,2.5L56.323,41.6,46.6,50.651a1.711,1.711,0,1,0,2.333,2.5L58.655,44.1a3.336,3.336,0,0,0,0-4.92Zm-7.245-.281a1.711,1.711,0,0,0-2.3.766L29.13,51.137a1.711,1.711,0,1,0,3.062,1.529L42.457,32.137A1.711,1.711,0,0,0,41.691,29.841Z" transform="translate(3.554 2.843)" fill="#006ce5"/>
</svg>
