<svg xmlns="http://www.w3.org/2000/svg" width="48.62" height="60.754" viewBox="0 0 48.62 60.754">
  <g id="Group_26764" data-name="Group 26764" transform="translate(-2.922)">
    <path id="Path_81995" data-name="Path 81995" d="M27.226,20.033c-11.407,0-20.967-3.351-23.577-7.869a4.943,4.943,0,0,0-.727,2.479v7.394c0,5.712,10.884,10.346,24.3,10.346s24.316-4.634,24.316-10.346V14.643a4.913,4.913,0,0,0-.735-2.479c-2.61,4.516-12.161,7.869-23.581,7.869Z" transform="translate(0 13.093)" fill="#006ce5"/>
    <path id="Path_81996" data-name="Path 81996" d="M27.226,42.973c-11.407,0-20.967-3.355-23.577-7.865a4.915,4.915,0,0,0-.727,2.473v7.4c0,5.714,10.884,10.346,24.3,10.346S51.542,50.7,51.542,44.981v-7.4a4.872,4.872,0,0,0-.735-2.471c-2.61,4.508-12.161,7.863-23.581,7.863ZM50.877,5.042c-.478,4.186-10.863,7.535-23.652,7.535S4.058,9.228,3.582,5.044a4.911,4.911,0,0,0-.66,2.369v7.394c0,5.714,10.884,10.346,24.3,10.346s24.316-4.63,24.316-10.346V7.413a4.93,4.93,0,0,0-.664-2.371Z" transform="translate(0 5.427)" fill="#006ce5"/>
    <path id="Path_81997" data-name="Path 81997" d="M26.906,15.658c13.087,0,23.691-3.5,23.691-7.83S39.993,0,26.906,0,3.219,3.507,3.219,7.83,13.827,15.658,26.906,15.658Z" transform="translate(0.32)" fill="#006ce5"/>
  </g>
</svg>
