<svg xmlns="http://www.w3.org/2000/svg" width="105.388" height="105.388" viewBox="0 0 105.388 105.388">
  <g id="Group_26677" data-name="Group 26677" transform="translate(-4.735 -4.735)">
    <g id="Group_26756" data-name="Group 26756" transform="translate(4.985 4.985)">
      <path id="Path_81979" data-name="Path 81979" d="M59.126,104.888H45.762a4.665,4.665,0,0,1-4.659-4.659v-7.55a41.567,41.567,0,0,1-9.088-3.767l-5.34,5.34a4.659,4.659,0,0,1-6.589,0l-9.45-9.45a4.659,4.659,0,0,1,0-6.589l5.34-5.34a41.572,41.572,0,0,1-3.767-9.088H4.659A4.664,4.664,0,0,1,0,59.126V45.762A4.665,4.665,0,0,1,4.659,41.1h7.55q.49-1.74,1.129-3.432A1.532,1.532,0,0,1,16.2,38.753a38.657,38.657,0,0,0-1.218,3.812,2.146,2.146,0,0,1-2.073,1.6H4.659a1.6,1.6,0,0,0-1.6,1.6V59.126a1.6,1.6,0,0,0,1.6,1.6h8.254a2.146,2.146,0,0,1,2.073,1.6,38.5,38.5,0,0,0,3.987,9.62,2.147,2.147,0,0,1-.333,2.6L12.8,80.379a1.6,1.6,0,0,0,0,2.257l9.45,9.45a1.6,1.6,0,0,0,2.257,0l5.838-5.838a2.146,2.146,0,0,1,2.6-.333,38.5,38.5,0,0,0,9.62,3.987,2.146,2.146,0,0,1,1.6,2.072v8.254a1.6,1.6,0,0,0,1.6,1.6H59.126a1.6,1.6,0,0,0,1.6-1.6V91.974a2.146,2.146,0,0,1,1.6-2.072,38.5,38.5,0,0,0,9.62-3.987,2.144,2.144,0,0,1,2.6.333l5.839,5.838a1.6,1.6,0,0,0,2.257,0l9.45-9.45a1.6,1.6,0,0,0,0-2.257l-5.838-5.838a2.147,2.147,0,0,1-.334-2.6,38.5,38.5,0,0,0,3.988-9.62,2.146,2.146,0,0,1,2.073-1.6h8.254a1.6,1.6,0,0,0,1.6-1.6V45.761a1.6,1.6,0,0,0-1.6-1.6H91.974a2.146,2.146,0,0,1-2.073-1.6,38.5,38.5,0,0,0-3.987-9.62,2.145,2.145,0,0,1,.333-2.6l5.838-5.838a1.6,1.6,0,0,0,0-2.257l-9.45-9.45a1.6,1.6,0,0,0-2.257,0L74.54,18.639a2.147,2.147,0,0,1-2.6.334,38.506,38.506,0,0,0-9.62-3.988,2.145,2.145,0,0,1-1.6-2.072V4.659a1.6,1.6,0,0,0-1.6-1.6H45.761a1.6,1.6,0,0,0-1.6,1.6v8.254a2.145,2.145,0,0,1-1.6,2.073,38.5,38.5,0,0,0-9.619,3.987,2.146,2.146,0,0,1-2.6-.333L24.508,12.8a1.6,1.6,0,0,0-2.257,0l-9.45,9.45a1.6,1.6,0,0,0,0,2.257l5.838,5.838a1.532,1.532,0,1,1-2.166,2.166l-5.838-5.839a4.665,4.665,0,0,1,0-6.589l9.45-9.45a4.659,4.659,0,0,1,6.589,0l5.34,5.34A41.571,41.571,0,0,1,41.1,12.209V4.659A4.664,4.664,0,0,1,45.762,0H59.126a4.665,4.665,0,0,1,4.659,4.659v7.55a41.566,41.566,0,0,1,9.088,3.767l5.34-5.341a4.659,4.659,0,0,1,6.589,0l9.45,9.45a4.665,4.665,0,0,1,0,6.589l-5.34,5.34A41.568,41.568,0,0,1,92.679,41.1h7.55a4.665,4.665,0,0,1,4.659,4.659V59.126a4.665,4.665,0,0,1-4.659,4.659h-7.55a41.572,41.572,0,0,1-3.767,9.088l5.34,5.34a4.659,4.659,0,0,1,0,6.589l-9.45,9.45a4.659,4.659,0,0,1-6.589,0l-5.34-5.34a41.566,41.566,0,0,1-9.088,3.767v7.55a4.665,4.665,0,0,1-4.659,4.658ZM52.444,85.443a32.993,32.993,0,0,1-9.912-1.515,1.532,1.532,0,1,1,.919-2.922A29.942,29.942,0,0,0,70.957,28.917a1.532,1.532,0,1,1,1.9-2.406A33,33,0,0,1,52.444,85.443Zm-15.6-4.133a1.526,1.526,0,0,1-.759-.2A33,33,0,0,1,52.444,19.445a32.683,32.683,0,0,1,14.47,3.334,1.531,1.531,0,1,1-1.345,2.752,29.646,29.646,0,0,0-13.125-3.022A29.94,29.94,0,0,0,37.6,78.449a1.532,1.532,0,0,1-.762,2.861Z" transform="translate(0 0)" fill="#006ce5" stroke="#006ce5" stroke-width="0.5"/>
      <path id="Path_81980" data-name="Path 81980" d="M152.518,223.425a1.529,1.529,0,0,1-1.181-.556l-9.217-11.152a1.532,1.532,0,0,1,0-1.952l9.217-11.152a1.532,1.532,0,1,1,2.361,1.952l-8.411,10.176,8.41,10.176a1.532,1.532,0,0,1-1.18,2.507Zm25.3,0a1.532,1.532,0,0,1-1.18-2.507l8.41-10.176-8.41-10.176A1.532,1.532,0,1,1,179,198.614l9.217,11.152a1.532,1.532,0,0,1,0,1.951L179,222.87a1.528,1.528,0,0,1-1.181.556Zm-17.933,0a1.532,1.532,0,0,1-1.385-2.184l10.5-22.3a1.532,1.532,0,1,1,2.771,1.3l-10.5,22.3A1.532,1.532,0,0,1,159.89,223.426Z" transform="translate(-112.726 -157.484)" fill="#006ce5" stroke="#006ce5" stroke-width="0.5"/>
    </g>
  </g>
</svg>
