<svg xmlns="http://www.w3.org/2000/svg" width="94.65" height="94.652" viewBox="0 0 94.65 94.652">
  <g id="Group_26760" data-name="Group 26760" transform="translate(0 0)">
    <path id="Path_81984" data-name="Path 81984" d="M88.735,94.651H5.916A5.923,5.923,0,0,1,0,88.736V35.582a5.91,5.91,0,0,1,2.536-4.855L46.2.352a1.976,1.976,0,0,1,2.252,0L92.111,30.727a5.916,5.916,0,0,1,2.54,4.855V88.736A5.923,5.923,0,0,1,88.735,94.651ZM47.325,4.375,4.788,33.965a1.976,1.976,0,0,0-.844,1.617V88.736a1.972,1.972,0,0,0,1.972,1.972H88.735a1.972,1.972,0,0,0,1.972-1.972V35.582a1.98,1.98,0,0,0-.844-1.621Z" transform="translate(0 0)" fill="#006ce5"/>
    <path id="Path_81985" data-name="Path 81985" d="M41.078,44.606H13.472A1.972,1.972,0,0,1,11.5,42.634V18.972A1.972,1.972,0,0,1,13.472,17H41.078a1.972,1.972,0,0,1,1.972,1.972V42.634A1.972,1.972,0,0,1,41.078,44.606ZM15.444,40.663H39.106V20.944H15.444Z" transform="translate(33.853 50.045)" fill="#006ce5"/>
    <path id="Path_81986" data-name="Path 81986" d="M37.578,38.606H9.972A1.972,1.972,0,0,1,8,36.634V12.972A1.972,1.972,0,0,1,9.972,11H37.578a1.972,1.972,0,0,1,1.972,1.972V36.634A1.972,1.972,0,0,1,37.578,38.606ZM11.944,34.663H35.606V14.944H11.944Z" transform="translate(23.55 32.382)" fill="#006ce5"/>
    <path id="Path_81987" data-name="Path 81987" d="M34.078,62.269H6.472A1.972,1.972,0,0,1,4.5,60.3V36.634a1.972,1.972,0,0,1,1.972-1.972H34.078a1.972,1.972,0,0,1,1.972,1.972V60.3A1.972,1.972,0,0,1,34.078,62.269ZM8.444,58.325H32.106V38.606H8.444ZM34.078,20.859a1.972,1.972,0,0,1-1.972-1.972V12.972a1.972,1.972,0,0,1,3.944,0v5.916A1.972,1.972,0,0,1,34.078,20.859Z" transform="translate(13.247 32.382)" fill="#006ce5"/>
    <path id="Path_81988" data-name="Path 81988" d="M9.972,26.859A1.972,1.972,0,0,1,8,24.888V18.972a1.972,1.972,0,0,1,3.944,0v5.916A1.972,1.972,0,0,1,9.972,26.859Zm27.606,0a1.972,1.972,0,0,1-1.972-1.972V18.972a1.972,1.972,0,0,1,3.944,0v5.916A1.972,1.972,0,0,1,37.578,26.859Z" transform="translate(23.55 50.045)" fill="#006ce5"/>
  </g>
</svg>
