<svg xmlns="http://www.w3.org/2000/svg" width="73.298" height="62.987" viewBox="0 0 73.298 62.987">
  <g id="Group_26741" data-name="Group 26741" transform="translate(-1.739 -3.5)">
    <g id="Layer_2" data-name="Layer 2" transform="translate(1.739 3.5)">
      <path id="Path_81949" data-name="Path 81949" d="M31.828,29.118a2.571,2.571,0,0,0,0-3.651l-7.713-7.713a2.571,2.571,0,0,0-3.651,0l-7.713,7.713A2.581,2.581,0,0,0,16.4,29.118l3.316-3.342V42.718a2.571,2.571,0,0,0,5.142,0V25.776l3.316,3.342a2.571,2.571,0,0,0,3.651,0Z" transform="translate(14.372 17.698)" fill="#006ce5"/>
      <path id="Path_81950" data-name="Path 81950" d="M60.229,25.353a21.853,21.853,0,1,0-43.705,0A15.439,15.439,0,1,0,17.835,56.2H30.689a7.713,7.713,0,0,1-5.45-13.163l7.713-7.713a7.713,7.713,0,0,1,10.9,0l7.713,7.713A7.713,7.713,0,0,1,46.115,56.2H58.969a15.438,15.438,0,1,0,1.26-30.851Z" transform="translate(-1.739 -3.5)" fill="#006ce5"/>
    </g>
  </g>
</svg>
