<svg xmlns="http://www.w3.org/2000/svg" width="37.509" height="37.509" viewBox="0 0 37.509 37.509">
  <g id="Group_26758" data-name="Group 26758" transform="translate(-2 -2)">
    <path id="Path_81982" data-name="Path 81982" d="M39.509,18.879V22.63a1.877,1.877,0,0,1-1.875,1.875H34.96a14.53,14.53,0,0,1-1.508,3.637l1.892,1.9a1.879,1.879,0,0,1,0,2.646l-2.657,2.657a1.915,1.915,0,0,1-2.647,0l-1.9-1.892a14.53,14.53,0,0,1-3.637,1.508v2.673a1.877,1.877,0,0,1-1.875,1.875H18.879A1.877,1.877,0,0,1,17,37.633V34.96a14.727,14.727,0,0,1-2.262-.8.63.63,0,0,1-.187-1.011l2.657-2.663a.626.626,0,0,1,.622-.158,10.174,10.174,0,0,0,2.921.43,10,10,0,1,0-10-10,10.16,10.16,0,0,0,.43,2.916.625.625,0,0,1-.157.621L8.362,26.954a.629.629,0,0,1-1.013-.186,14.781,14.781,0,0,1-.8-2.262H3.875A1.877,1.877,0,0,1,2,22.63V18.879A1.877,1.877,0,0,1,3.875,17H6.549a14.537,14.537,0,0,1,1.508-3.638l-1.892-1.9a1.879,1.879,0,0,1,0-2.646L8.822,6.165a1.915,1.915,0,0,1,2.647,0l1.9,1.892A14.53,14.53,0,0,1,17,6.549V3.875A1.877,1.877,0,0,1,18.879,2H22.63a1.877,1.877,0,0,1,1.875,1.875V6.549a14.53,14.53,0,0,1,3.637,1.508l1.9-1.892a1.915,1.915,0,0,1,2.646,0l2.657,2.657a1.879,1.879,0,0,1,0,2.647l-1.892,1.9A14.537,14.537,0,0,1,34.96,17h2.673A1.877,1.877,0,0,1,39.509,18.879ZM27.875,17.564a.63.63,0,0,0-1.035-.244L24,20.166l-1.99-.663-.663-1.99,2.844-2.844a.63.63,0,0,0-.243-1.035,6.242,6.242,0,0,0-8.025,7.535L2.97,34.118a3.126,3.126,0,1,0,4.421,4.42l12.95-12.949a6.242,6.242,0,0,0,7.534-8.025Z" fill="#006ce5"/>
  </g>
</svg>
