<svg xmlns="http://www.w3.org/2000/svg" width="34.703" height="37.331" viewBox="0 0 34.703 37.331">
  <g id="Group_26748" data-name="Group 26748" transform="translate(-18.025)">
    <path id="Path_81961" data-name="Path 81961" d="M30.134,17.339a22.145,22.145,0,0,1-12.016-3.29l-.093-.063v4.048a11.034,11.034,0,0,0,2.226,1.607A20.833,20.833,0,0,0,30.135,22a26.664,26.664,0,0,0,4.092-.31v-4.64A28.966,28.966,0,0,1,30.134,17.339Zm4.092,7.96V23.9a28.976,28.976,0,0,1-4.092.287,22.119,22.119,0,0,1-12.032-3.3l-.077-.052v4.449a11.7,11.7,0,0,0,1.862,1.278,20.833,20.833,0,0,0,9.883,2.362,26,26,0,0,0,5.561-.585A4.7,4.7,0,0,1,34.227,25.3Zm7.993,7.391-.074-.04L37.63,30a27.246,27.246,0,0,1-7.86,1.116A22.366,22.366,0,0,1,18.025,28v4.21c0,3.363,6.106,5.122,12.139,5.122,5.726,0,11.519-1.586,12.091-4.624l-.035-.017ZM30.164,0C24.321,0,18.41,1.65,18.043,4.808a11.7,11.7,0,0,0,1.808,1.233A20.832,20.832,0,0,0,29.734,8.4a22.752,22.752,0,0,0,9.93-2.084A9.934,9.934,0,0,0,42.24,4.55C41.589,1.56,35.844,0,30.164,0Z" transform="translate(0 0)" fill="#006ce5"/>
    <path id="Path_81962" data-name="Path 81962" d="M40.64,101.216a24.959,24.959,0,0,1-10.9,2.314,22.408,22.408,0,0,1-11.709-3.163v3.9a10.169,10.169,0,0,0,2.153,1.461,21.132,21.132,0,0,0,9.956,2.362,26.664,26.664,0,0,0,4.092-.31v-1.254a2.053,2.053,0,0,1,1.507-1.978l6.568-1.919V100.25A14.366,14.366,0,0,1,40.64,101.216Zm10.842,4.994L44.7,104.227l-.027-.008a1.231,1.231,0,0,0-.629,0l-6.812,1.991a1.7,1.7,0,0,0-1.246,1.635v9.68A3.887,3.887,0,0,0,38.1,121L42.53,123.6l.061.033a3.933,3.933,0,0,0,3.531,0l.031-.016L50.616,121a3.887,3.887,0,0,0,2.113-3.47v-9.68A1.7,1.7,0,0,0,51.483,106.21Zm-3.177,6.652-4.463,4.13-.028.024-.039.033-.046.034-.041.028-.049.029-.042.023-.054.025-.041.018-.059.021-.039.013-.064.016-.036.008c-.024,0-.049.008-.073.011l-.029,0q-.051,0-.1,0h0c-.036,0-.072,0-.108-.005l-.03,0c-.026,0-.051-.007-.077-.012l-.038-.009c-.022-.005-.045-.01-.067-.017l-.041-.014c-.02-.007-.041-.014-.061-.023l-.043-.02-.056-.027-.044-.026-.051-.032-.043-.032-.046-.036-.041-.037-.029-.026-1.95-1.95a1.093,1.093,0,1,1,1.546-1.546l1.207,1.207,3.692-3.416a1.093,1.093,0,0,1,1.485,1.6Z" transform="translate(-0.001 -92.941)" fill="#006ce5"/>
  </g>
</svg>
