<svg xmlns="http://www.w3.org/2000/svg" width="76.34" height="52.675" viewBox="0 0 76.34 52.675">
  <g id="Group_26742" data-name="Group 26742" transform="translate(-4 -12.68)">
    <path id="Path_81951" data-name="Path 81951" d="M8.09,26.271h.259V29.5h33.14a4.069,4.069,0,0,1,.982-4.2l4.4-4.39a4.062,4.062,0,0,1,3.285-1.186V16.77a4.092,4.092,0,0,0-4.09-4.09H8.09A4.1,4.1,0,0,0,4,16.77v5.412A4.1,4.1,0,0,0,8.09,26.271Zm13.6-8.166a1.363,1.363,0,1,1-1.363,1.363A1.363,1.363,0,0,1,21.694,18.106Zm-5.453,0a1.363,1.363,0,1,1-1.363,1.363A1.363,1.363,0,0,1,16.242,18.106Zm-5.453,0a1.363,1.363,0,1,1-1.363,1.363A1.363,1.363,0,0,1,10.789,18.106ZM46.873,57.121c-.592-.694-4.838-4.6-5.126-5.357H8.09A4.1,4.1,0,0,0,4,55.853v5.412a4.1,4.1,0,0,0,4.09,4.09H46.069a4.092,4.092,0,0,0,4.09-4.09V58.307a4.062,4.062,0,0,1-3.285-1.186ZM10.789,59.929a1.363,1.363,0,1,1,1.363-1.363A1.363,1.363,0,0,1,10.789,59.929Zm5.453,0A1.363,1.363,0,1,1,17.6,58.566,1.363,1.363,0,0,1,16.242,59.929Zm5.453,0a1.363,1.363,0,1,1,1.363-1.363A1.363,1.363,0,0,1,21.694,59.929ZM8.09,45.806h.259v3.231h33a4.231,4.231,0,0,1,.859-1.8l.75-.913-1.2-.123a4.076,4.076,0,0,1-3.681-4.076V35.909a4.072,4.072,0,0,1,2.29-3.681H8.09A4.092,4.092,0,0,0,4,36.318v5.4A4.092,4.092,0,0,0,8.09,45.806Zm13.6-8.152a1.363,1.363,0,1,1-1.363,1.363A1.363,1.363,0,0,1,21.694,37.654Zm-5.453,0a1.363,1.363,0,1,1-1.363,1.363A1.363,1.363,0,0,1,16.242,37.654Zm-5.453,0a1.363,1.363,0,1,1-1.363,1.363A1.363,1.363,0,0,1,10.789,37.654Z" transform="translate(0 0)" fill="#006ce5"/>
    <path id="Path_81952" data-name="Path 81952" d="M69.306,32.8l-3.135-.314a1.757,1.757,0,0,1-1.131-2.74l1.99-2.427a1.359,1.359,0,0,0-.082-1.827l-4.4-4.4A1.359,1.359,0,0,0,60.718,21l-2.44,1.99a1.761,1.761,0,0,1-2.726-1.131l-.314-3.135A1.363,1.363,0,0,0,53.875,17.5H47.658A1.363,1.363,0,0,0,46.3,18.727l-.314,3.135a1.761,1.761,0,0,1-2.726,1.131L40.815,21a1.359,1.359,0,0,0-1.827.082l-4.4,4.4a1.359,1.359,0,0,0-.082,1.827l1.99,2.44a1.76,1.76,0,0,1-1.131,2.726l-3.135.314A1.363,1.363,0,0,0,31,34.158v6.216a1.363,1.363,0,0,0,1.227,1.363l3.135.314a1.768,1.768,0,0,1,1.131,2.74L34.5,47.218a1.359,1.359,0,0,0,.082,1.827l4.4,4.4a1.359,1.359,0,0,0,1.827.082l2.44-1.99a1.761,1.761,0,0,1,2.726,1.131l.314,3.135a1.363,1.363,0,0,0,1.363,1.227h6.216a1.363,1.363,0,0,0,1.363-1.227l.314-3.135a1.688,1.688,0,0,1,1.091-1.336,1.647,1.647,0,0,1,1.636.2l2.44,1.99a1.359,1.359,0,0,0,1.827-.082l4.4-4.4a1.359,1.359,0,0,0,.082-1.827l-1.99-2.44a1.76,1.76,0,0,1,1.131-2.726l3.135-.314a1.363,1.363,0,0,0,1.227-1.363V34.158A1.363,1.363,0,0,0,69.306,32.8ZM50.767,44.083c-9.009-.281-9.007-13.353,0-13.632C59.776,30.731,59.773,43.8,50.767,44.083Z" transform="translate(9.807 1.751)" fill="#006ce5"/>
  </g>
</svg>
