<svg xmlns="http://www.w3.org/2000/svg" width="45.08" height="39.742" viewBox="0 0 45.08 39.742">
  <g id="Group_26759" data-name="Group 26759" transform="translate(-2 -3.656)">
    <path id="Path_81983" data-name="Path 81983" d="M41.155,12.77a1.6,1.6,0,0,0-.887-1.4L25.263,3.827a1.61,1.61,0,0,0-1.446,0L8.812,11.367a1.6,1.6,0,0,0-.887,1.4C7.856,17.09,8.561,34.505,24,39.751a1.709,1.709,0,0,0,1.084,0C40.519,34.505,41.224,17.09,41.155,12.77ZM31.487,20.3l-2.412,2.351a.963.963,0,0,0-.277.853l.57,3.318a.964.964,0,0,1-1.4,1.016l-2.98-1.567a.961.961,0,0,0-.9,0l-2.98,1.567a.964.964,0,0,1-1.4-1.016l.57-3.318a.966.966,0,0,0-.277-.853L17.594,20.3a.964.964,0,0,1,.535-1.644l3.333-.485a.963.963,0,0,0,.726-.528l1.491-3.019a.964.964,0,0,1,1.729,0L26.9,17.642a.966.966,0,0,0,.726.528l3.333.485a.964.964,0,0,1,.53,1.644Zm9.08,9.051a26.148,26.148,0,0,1-6.5,8.568L39.544,43.4l2.045-5.474,5.492-2.059Zm-32.055,0L2,35.863l5.49,2.061L9.535,43.4l5.477-5.477a26.154,26.154,0,0,1-6.5-8.57Z" transform="translate(0 0)" fill="#006ce5"/>
  </g>
</svg>
