<svg xmlns="http://www.w3.org/2000/svg" width="49.805" height="37.047" viewBox="0 0 49.805 37.047">
  <g id="Group_26745" data-name="Group 26745" transform="translate(-3.25 -6.26)">
    <path id="Path_81957" data-name="Path 81957" d="M43.815,25.758a15.722,15.722,0,0,0,.509-4.006A15.479,15.479,0,1,0,13.4,22.791a10.258,10.258,0,0,0,.106,20.516H44.26a8.78,8.78,0,1,0-.445-17.548ZM20.447,33.24a2.119,2.119,0,1,1-4.239,0V29.774a2.119,2.119,0,1,1,4.239,0Zm8.477,0a2.119,2.119,0,0,1-4.239,0V21.265a2.119,2.119,0,0,1,4.239,0Zm8.477,0a2.119,2.119,0,0,1-4.239,0V25.5a2.119,2.119,0,1,1,4.239,0Z" transform="translate(0 0)" fill="#006ce5"/>
  </g>
</svg>
