<svg xmlns="http://www.w3.org/2000/svg" width="33.525" height="40.793" viewBox="0 0 33.525 40.793">
  <g id="Group_26740" data-name="Group 26740" transform="translate(-2.853 0)">
    <path id="Path_81947" data-name="Path 81947" d="M25.286,1.659l-1.836,7.18H11.187L9.936,5.874a1.358,1.358,0,0,1,1.291-1.795h4.678a1.579,1.579,0,0,0,.57-.108V5.085A1.157,1.157,0,0,0,17.5,6.337a1.157,1.157,0,0,0,1.02-1.252V.055A.94.94,0,0,1,18.855,0h5.1A1.362,1.362,0,0,1,25.286,1.659Z" transform="translate(1.926 0)" fill="#fff"/>
    <rect id="Rectangle_9232" data-name="Rectangle 9232" width="16.317" height="4.079" rx="1" transform="translate(11.454 10.878)" fill="#fff"/>
    <path id="Path_81948" data-name="Path 81948" d="M36.052,24.279c-.965-5.276-5.29-9.138-8.213-11.191a3.367,3.367,0,0,1-1.428.312h-13.6a3.363,3.363,0,0,1-1.428-.312C8.462,15.14,4.138,19,3.173,24.279,1.554,33.158,5.933,37.2,19.613,37.2,33.441,37.2,37.67,33.158,36.052,24.279Zm-16.589-.408.788.19A3.332,3.332,0,0,1,22.768,27.3v.339a3.178,3.178,0,0,1-2.135,2.992v.9a1.02,1.02,0,1,1-2.04,0v-.9a3.178,3.178,0,0,1-2.135-2.992,1.02,1.02,0,0,1,2.04,0,1.115,1.115,0,0,0,2.231,0V27.3a1.284,1.284,0,0,0-.966-1.252l-.788-.19a3.332,3.332,0,0,1-2.516-3.237v-.338a3.178,3.178,0,0,1,2.135-2.992v-.9a1.02,1.02,0,1,1,2.04,0v.9a3.178,3.178,0,0,1,2.135,2.992,1.02,1.02,0,1,1-2.04,0,1.115,1.115,0,1,0-2.231,0v.339a1.284,1.284,0,0,0,.966,1.252Z" transform="translate(0 3.596)" fill="#fff"/>
  </g>
</svg>
