<svg xmlns="http://www.w3.org/2000/svg" width="32.949" height="33.907" viewBox="0 0 32.949 33.907">
  <g id="Group_25865" data-name="Group 25865" transform="translate(-7.239)">
    <path id="Path_79886" data-name="Path 79886" d="M35.222,4.966A16.843,16.843,0,0,0,23.234,0a.993.993,0,0,0-.993.993V8.676h6.291a.993.993,0,1,1,0,1.987H28.2v.116a6.8,6.8,0,0,1-2.813,5.513A6.8,6.8,0,0,1,28.2,21.8v.116h.331a.993.993,0,0,1,0,1.987h-10.6a.993.993,0,1,1,0-1.987h.331V21.8a6.8,6.8,0,0,1,2.012-4.832L7.893,21.48A.993.993,0,0,0,7.3,22.754,16.955,16.955,0,1,0,35.222,4.966Z" transform="translate(0)" fill="#006ce5"/>
    <path id="Path_79887" data-name="Path 79887" d="M44.533,57.722a6.794,6.794,0,0,1-1.5-4.265V53.34H42.7a.993.993,0,1,1,0-1.987h2.318V45.705A14.248,14.248,0,0,0,33.761,59.632a13.893,13.893,0,0,0,.14,1.96ZM50.98,53.34h-5.96v.116A4.811,4.811,0,0,0,48,57.91a4.811,4.811,0,0,0,2.98-4.454Zm-5.96,11.142V64.6h5.96v-.116A4.811,4.811,0,0,0,48,60.029,4.811,4.811,0,0,0,45.019,64.483Z" transform="translate(-24.766 -42.678)" fill="#006ce5"/>
  </g>
</svg>
