<svg xmlns="http://www.w3.org/2000/svg" width="47.511" height="47.511" viewBox="0 0 47.511 47.511">
  <g id="Group_11661" data-name="Group 11661" transform="translate(-1953.8 -1429.2)">
    <g id="Group_11660" data-name="Group 11660" transform="translate(1953.8 1429.2)">
      <path id="Path_65979" data-name="Path 65979" d="M2001.825,1445.677v36.858a.632.632,0,0,0-.074.161,4.428,4.428,0,0,1-4.491,3.637h-38.294a4.434,4.434,0,0,1-4.565-4.565v-35.324a4.806,4.806,0,0,1,.136-1.188,4.432,4.432,0,0,1,4.516-3.378h33.654c1.584,0,3.18-.013,4.764.012a4.434,4.434,0,0,1,4.132,3.093A6.51,6.51,0,0,1,2001.825,1445.677Zm-2.957,11.049h-41.486v24.8c0,1.324.519,1.844,1.856,1.844h37.786c1.336,0,1.856-.52,1.856-1.844v-24.263C1998.867,1457.1,1998.867,1456.923,1998.867,1456.725Zm-37.056-5.964a1.479,1.479,0,1,0-1.473-1.472A1.492,1.492,0,0,0,1961.811,1450.762Zm5.926-1.485a1.479,1.479,0,1,0-2.957.037,1.5,1.5,0,0,0,1.5,1.46A1.487,1.487,0,0,0,1967.738,1449.277Zm4.454,0a1.479,1.479,0,1,0-2.957.037,1.479,1.479,0,1,0,2.957-.037Z" transform="translate(-1954.326 -1440.307)" fill="#006ce5"/>
      <path id="Path_65980" data-name="Path 65980" d="M2001.3,1434.57c-.074-.235-.136-.47-.21-.693a4.433,4.433,0,0,0-4.132-3.093c-1.584-.025-3.18-.012-4.764-.012h-33.654a4.442,4.442,0,0,0-4.516,3.378,4.8,4.8,0,0,0-.136,1.188q-.018,17.668,0,35.324a4.427,4.427,0,0,0,4.565,4.565h38.294a4.427,4.427,0,0,0,4.491-3.638c.013-.049.05-.1.074-.161v5.283H1953.8V1429.2h47.511C2001.3,1430.982,2001.3,1432.776,2001.3,1434.57Z" transform="translate(-1953.8 -1429.2)" fill="none"/>
      <path id="Path_65981" data-name="Path 65981" d="M2019.9,1561.9v24.8c0,1.324-.52,1.844-1.856,1.844h-37.786c-1.336,0-1.856-.52-1.856-1.844v-24.8Zm-35.572,10.554h.074a48.968,48.968,0,0,0,.037,5.221,7.375,7.375,0,0,0,14.674-.495c.124-3.143.037-6.3.025-9.44a1.366,1.366,0,0,0-.94-1.312,1.472,1.472,0,0,0-2.017,1.46c-.012,2.945.012,5.889-.012,8.846a4.442,4.442,0,0,1-8.884.012c-.025-2.9,0-5.8-.012-8.7a1.5,1.5,0,1,0-2.97-.012C1984.327,1569.484,1984.327,1570.969,1984.327,1572.454Zm23.718-.136c-.136-.21-.21-.346-.3-.47q-1.411-2.357-2.833-4.714a1.482,1.482,0,1,0-2.536,1.522c1.225,2.054,2.45,4.108,3.7,6.149a.669.669,0,0,1,0,.829c-1.225,2.017-2.45,4.034-3.638,6.075a2.187,2.187,0,0,0-.272,1.212,1.342,1.342,0,0,0,1.2,1.175,1.454,1.454,0,0,0,1.522-.742c.965-1.6,1.918-3.2,2.883-4.8.074-.124.161-.247.272-.408.111.185.21.322.3.458q1.41,2.357,2.833,4.714a1.482,1.482,0,1,0,2.512-1.559q-1.837-3.1-3.712-6.187a.575.575,0,0,1,0-.705q1.874-3.081,3.712-6.186a1.5,1.5,0,0,0-.433-2.14,1.474,1.474,0,0,0-2.091.619c-.581.953-1.151,1.905-1.72,2.858C2008.985,1570.747,2008.54,1571.5,2008.045,1572.318Z" transform="translate(-1975.356 -1545.481)" fill="none"/>
      <path id="Path_65982" data-name="Path 65982" d="M2003.872,1492.756a1.479,1.479,0,1,1,1.485-1.46A1.484,1.484,0,0,1,2003.872,1492.756Z" transform="translate(-1996.387 -1482.301)" fill="none"/>
      <path id="Path_65983" data-name="Path 65983" d="M2041.256,1491.185a1.479,1.479,0,1,1-1.472-1.485A1.492,1.492,0,0,1,2041.256,1491.185Z" transform="translate(-2027.844 -1482.214)" fill="none"/>
      <path id="Path_65984" data-name="Path 65984" d="M2077.256,1491.185a1.479,1.479,0,1,1-1.473-1.485A1.492,1.492,0,0,1,2077.256,1491.185Z" transform="translate(-2059.389 -1482.214)" fill="none"/>
      <path id="Path_65985" data-name="Path 65985" d="M2026.3,1603.547v-4.442a1.5,1.5,0,1,1,2.97.012c0,2.9-.012,5.8.012,8.7a4.442,4.442,0,0,0,8.884-.012c.025-2.945,0-5.889.012-8.846a1.472,1.472,0,0,1,2.017-1.46,1.393,1.393,0,0,1,.94,1.311c.012,3.143.087,6.3-.025,9.441a7.375,7.375,0,0,1-14.674.495,48.97,48.97,0,0,1-.037-5.221A.186.186,0,0,1,2026.3,1603.547Z" transform="translate(-2017.33 -1576.575)" fill="#006ce5"/>
      <path id="Path_65986" data-name="Path 65986" d="M2176.078,1603.566c.495-.817.94-1.571,1.4-2.313.57-.953,1.139-1.906,1.72-2.858a1.479,1.479,0,1,1,2.524,1.522c-1.237,2.066-2.462,4.132-3.712,6.186a.576.576,0,0,0,0,.705q1.874,3.081,3.712,6.186a1.483,1.483,0,0,1-.829,2.3,1.452,1.452,0,0,1-1.683-.742q-1.429-2.357-2.833-4.714c-.087-.136-.173-.285-.3-.458-.112.161-.2.285-.272.408-.965,1.6-1.918,3.2-2.883,4.8a1.455,1.455,0,0,1-1.522.742,1.331,1.331,0,0,1-1.2-1.175,2.3,2.3,0,0,1,.272-1.213c1.188-2.042,2.4-4.058,3.638-6.075a.686.686,0,0,0,0-.829c-1.25-2.042-2.474-4.1-3.7-6.149a1.482,1.482,0,1,1,2.536-1.522q1.429,2.357,2.833,4.714C2175.868,1603.22,2175.942,1603.356,2176.078,1603.566Z" transform="translate(-2143.39 -1576.73)" fill="#006ce5"/>
    </g>
  </g>
</svg>
