<svg xmlns="http://www.w3.org/2000/svg" width="51.857" height="51.897" viewBox="0 0 51.857 51.897">
  <g id="Group_11670" data-name="Group 11670" transform="translate(-1739.2 -1534.8)">
    <g id="Group_11669" data-name="Group 11669" transform="translate(1739.2 1534.8)">
      <path id="Path_66013" data-name="Path 66013" d="M1739.3,1556.6v-1.729c.027-.135.068-.256.094-.392a8.437,8.437,0,0,1,5.834-6.914.673.673,0,0,0,.554-.77,11.968,11.968,0,0,1,8.643-11.506c.743-.216,1.5-.324,2.255-.486h2.12a3.019,3.019,0,0,0,.338.081,10.545,10.545,0,0,1,4.781,1.648c1.08.716,2.066,1.594,3.174,2.458.027-.013.189-.108.351-.189a11.606,11.606,0,0,1,7.373-1.323,11.949,11.949,0,0,1,10.088,9.588.7.7,0,0,0,.5.594,8.563,8.563,0,0,1-2.8,16.61q-17.441.04-34.868,0a8.51,8.51,0,0,1-8.211-6.617C1739.435,1557.325,1739.368,1556.961,1739.3,1556.6Z" transform="translate(-1739.287 -1534.8)" fill="#006ce5"/>
      <path id="Path_66014" data-name="Path 66014" d="M1739.214,1556.769c.081.365.149.716.23,1.08a8.51,8.51,0,0,0,8.211,6.617q17.441.041,34.868,0a8.563,8.563,0,0,0,2.8-16.61.676.676,0,0,1-.5-.594,11.949,11.949,0,0,0-10.088-9.588,11.769,11.769,0,0,0-7.373,1.323c-.162.081-.324.176-.351.189-1.094-.864-2.08-1.729-3.174-2.458a10.7,10.7,0,0,0-4.78-1.648,3.094,3.094,0,0,1-.338-.081h32.343v51.857h-25.375a1.548,1.548,0,0,1,.23-.081,4.7,4.7,0,0,0,3.808-3.957,4.646,4.646,0,0,0-2.728-4.943.609.609,0,0,1-.405-.675c.013-3,0-6.009,0-9.007v-.54h-3.039v.594c0,2.958-.014,5.9.013,8.859a.766.766,0,0,1-.5.824,4.682,4.682,0,0,0-.068,8.427,12.62,12.62,0,0,0,1.472.513H1739.2Q1739.22,1571.82,1739.214,1556.769Zm31.965,10.844v4.348a1.545,1.545,0,0,0,1.756,1.729h7.711a12.5,12.5,0,0,0,.013,1.432.786.786,0,0,1-.567.891,4.664,4.664,0,0,0-2.539,5.186,4.694,4.694,0,1,0,6.482-5.267.539.539,0,0,1-.378-.594q.021-1.418,0-2.836c0-1.256-.581-1.837-1.81-1.837h-7.076c-.176,0-.351-.013-.594-.027v-3.012C1773.177,1567.613,1772.218,1567.613,1771.178,1567.613Zm-15.233,3.052h-7.711a1.566,1.566,0,0,0-1.742,1.756c0,.932-.027,1.864.014,2.782a.7.7,0,0,1-.486.783,4.633,4.633,0,0,0-2.633,5,4.74,4.74,0,0,0,4.443,3.943,4.706,4.706,0,0,0,2.053-9.021c-.122-.054-.23-.108-.324-.149v-2.066h7.792a1.517,1.517,0,0,0,1.634-1.607c.013-1.08,0-2.161,0-3.241v-1.215h-3.039Z" transform="translate(-1739.2 -1534.973)" fill="none"/>
      <path id="Path_66015" data-name="Path 66015" d="M1756.68,1535c-.756.162-1.512.27-2.255.486a11.94,11.94,0,0,0-8.643,11.506.67.67,0,0,1-.554.77,8.437,8.437,0,0,0-5.834,6.914c-.027.135-.068.257-.094.392v-20.054Q1747.99,1534.993,1756.68,1535Z" transform="translate(-1739.287 -1534.973)" fill="none"/>
      <path id="Path_66016" data-name="Path 66016" d="M1900.277,1795.917a9.507,9.507,0,0,1-1.472-.513,4.481,4.481,0,0,1-2.606-4.24,4.425,4.425,0,0,1,2.674-4.186.767.767,0,0,0,.5-.824c-.027-2.958-.013-5.9-.013-8.859v-.594h3.038v9.548a.6.6,0,0,0,.405.675,4.656,4.656,0,0,1,2.728,4.943,4.714,4.714,0,0,1-3.808,3.957,1.155,1.155,0,0,0-.229.081C1901.088,1795.917,1900.682,1795.917,1900.277,1795.917Z" transform="translate(-1874.997 -1744.033)" fill="#006ce5"/>
      <path id="Path_66017" data-name="Path 66017" d="M1976,1776.5h3.011v3.011c.23.013.419.027.594.027h7.076a1.6,1.6,0,0,1,1.81,1.837c0,.945.014,1.891,0,2.836a.531.531,0,0,0,.378.594,4.7,4.7,0,1,1-3.943.081.786.786,0,0,0,.567-.891c-.041-.446-.014-.9-.014-1.431h-7.711a1.545,1.545,0,0,1-1.755-1.729C1976,1779.417,1976,1777.985,1976,1776.5Z" transform="translate(-1944.022 -1743.86)" fill="#006ce5"/>
      <path id="Path_66018" data-name="Path 66018" d="M1782.338,1779.725V1776.7h3.038v1.215c0,1.08.014,2.161,0,3.241a1.517,1.517,0,0,1-1.634,1.607h-7.792v2.066c.094.041.216.094.324.149a4.7,4.7,0,1,1-6.5,5.078,4.668,4.668,0,0,1,2.633-5,.7.7,0,0,0,.486-.783c-.027-.932-.014-1.85-.014-2.782a1.566,1.566,0,0,1,1.742-1.755h7.076C1781.892,1779.725,1782.081,1779.725,1782.338,1779.725Z" transform="translate(-1765.592 -1744.033)" fill="#006ce5"/>
    </g>
  </g>
</svg>
