<svg xmlns="http://www.w3.org/2000/svg" width="76.841" height="58.297" viewBox="0 0 76.841 58.297">
  <g id="ruby" transform="translate(-0.729 -0.75)" opacity="0.94">
    <path id="Path_64886" data-name="Path 64886" d="M529.43,365.1l-17.57,35.41a.58.58,0,0,1-1,0L493.25,365.1a.58.58,0,0,1,.52-.84h35.15a.58.58,0,0,1,.51.84Z" transform="translate(-472.39 -341.75)" fill="#fff"/>
    <path id="Path_64887" data-name="Path 64887" d="M511.67,343.05l17.06,18.29a.58.58,0,0,1-.42,1H494.2a.58.58,0,0,1-.42-1l17-18.29a.58.58,0,0,1,.89,0Z" transform="translate(-472.39 -341.75)" fill="#fff"/>
    <path id="Path_64888" data-name="Path 64888" d="M516.07,395.55l.22-.44c4.76-9.52,9.56-19,14.24-28.57.92-1.89,2-2.71,4.19-2.64,4.66.15,9.33.07,14,.05l.72,1.78-31.75,31Z" transform="translate(-472.39 -341.75)" fill="#fff"/>
    <path id="Path_64889" data-name="Path 64889" d="M474.06,364c5.2,0,10.4,0,15.6.07a2.82,2.82,0,0,1,1.88,1.45q8.33,16.12,16.53,32.3a1.18,1.18,0,0,1-.25,1.16L473.33,365.8Z" transform="translate(-472.39 -341.75)" fill="#fff"/>
    <path id="Path_64890" data-name="Path 64890" d="M533.4,344l16.38,17.5a.58.58,0,0,1-.42,1c-6,0-11.25,0-16.51-.06a1.79,1.79,0,0,1-1.22-1.25c-.08-5.48-.06-11-.06-16.45Z" transform="translate(-472.39 -341.75)" fill="#fff"/>
    <path id="Path_64891" data-name="Path 64891" d="M491,343.88v17.85a.58.58,0,0,1-.58.58h-16.7a.58.58,0,0,1-.42-1l16.65-17.84a.58.58,0,0,1,1.05.41Z" transform="translate(-472.39 -341.75)" fill="#fff"/>
    <path id="Path_64892" data-name="Path 64892" d="M493.42,342.5h14.05a.58.58,0,0,1,.42,1l-14,15a.58.58,0,0,1-1-.39V343.08A.58.58,0,0,1,493.42,342.5Z" transform="translate(-472.39 -341.75)" fill="#fff"/>
    <path id="Path_64893" data-name="Path 64893" d="M515.15,342.51h14.13a.58.58,0,0,1,.58.58v15a.58.58,0,0,1-1,.39l-14.12-15a.58.58,0,0,1,.41-.97Z" transform="translate(-472.39 -341.75)" fill="#fff"/>
  </g>
</svg>
