<svg id="Group_26561" data-name="Group 26561" xmlns="http://www.w3.org/2000/svg" width="35.819" height="35.679" viewBox="0 0 35.819 35.679">
  <path id="Path_81737" data-name="Path 81737" d="M167.63,35.383a2.8,2.8,0,0,0-2.593,1.749h-2.444v2.1h2.444a2.8,2.8,0,1,0,2.593-3.848Zm4.9-5.947a2.78,2.78,0,0,0-1.277.31l-2.6-2.165a1.05,1.05,0,0,0-.672-.243h-5.387v2.1H167.6l2.278,1.9a2.8,2.8,0,1,0,2.649-1.9Zm0-8.745a2.8,2.8,0,0,0-2.593,1.749h-7.341v2.1h7.341a2.8,2.8,0,1,0,2.593-3.848ZM168.651,19.4l2.6-2.165a2.8,2.8,0,1,0-1.372-1.589l-2.278,1.9h-5.007v2.1h5.387A1.049,1.049,0,0,0,168.651,19.4Zm-1.022-7.8a2.8,2.8,0,1,0-2.593-3.848h-2.444v2.1h2.444A2.8,2.8,0,0,0,167.63,11.6ZM150,23.49a7.344,7.344,0,0,0,10.494,6.636V16.854A7.344,7.344,0,0,0,150,23.49Z" transform="translate(-139.506 -5.65)" fill="#006ce5"/>
  <path id="Path_81738" data-name="Path 81738" d="M19.938,1h-4.2a1.049,1.049,0,0,0-1.049,1.049V3.415A15.745,15.745,0,0,0,9.159,5.707l-.966-.966a1.049,1.049,0,0,0-1.484,0L3.741,7.709a1.049,1.049,0,0,0,0,1.484l.966.966a15.745,15.745,0,0,0-2.292,5.532H1.049A1.049,1.049,0,0,0,0,16.741v4.2a1.049,1.049,0,0,0,1.049,1.049H2.415A15.746,15.746,0,0,0,4.707,27.52l-.966.966a1.049,1.049,0,0,0,0,1.484l2.968,2.968a1.049,1.049,0,0,0,1.484,0l.966-.966a15.747,15.747,0,0,0,5.532,2.292V35.63a1.049,1.049,0,0,0,1.049,1.049h4.2a1.049,1.049,0,0,0,1.049-1.049V27.744a9.445,9.445,0,1,1,0-17.809V2.049A1.049,1.049,0,0,0,19.938,1Z" transform="translate(0 -1)" fill="#006ce5"/>
</svg>
