<svg xmlns="http://www.w3.org/2000/svg" width="48.083" height="48.083" viewBox="0 0 48.083 48.083">
  <g id="Group_11668" data-name="Group 11668" transform="translate(-1259.2 -1345.2)">
    <path id="Path_65966" data-name="Path 65966" d="M1259.2,1393.283V1345.2h48.083v48.083Zm25.634-39h-12.586a12,12,0,0,0-1.356.082,8.242,8.242,0,0,0,1.14,16.418h12.76c-.2.205-.308.329-.421.452a1.5,1.5,0,0,0,2.106,2.127q1.526-1.48,3.021-3.01a1.447,1.447,0,0,0,0-2.106c-1-1.017-1.993-2.024-3.021-3.01a1.473,1.473,0,0,0-2.106.01,1.491,1.491,0,0,0-.01,2.106c.123.133.236.257.411.431-4.49,0-8.877.062-13.274-.021a5.151,5.151,0,0,1-4.819-4.932,5.245,5.245,0,0,1,5.291-5.527c4.161-.021,8.312-.01,12.473,0,.123,0,.247.01.36.021a7.513,7.513,0,0,0,14.867-1.747,7.5,7.5,0,0,0-14.836-1.294Zm-3.277,26.98a7.471,7.471,0,1,0,.021,3.01h.545c4.048,0,8.1.01,12.134-.01a9.128,9.128,0,0,0,1.675-.134,8.245,8.245,0,0,0-1.449-16.357,1.5,1.5,0,0,0-.36,2.959,3.9,3.9,0,0,0,.606.051,5.243,5.243,0,0,1-.308,10.48c-4.171.021-8.343,0-12.514,0A1.323,1.323,0,0,1,1281.557,1381.262Z" fill="none"/>
    <path id="Path_65967" data-name="Path 65967" d="M1325.438,1381.556a7.939,7.939,0,1,1-.011,3.207c-.12-.011-.251-.022-.382-.022-4.418,0-8.825-.022-13.244,0a5.569,5.569,0,0,0-5.618,5.869,5.469,5.469,0,0,0,5.116,5.237c4.658.087,9.317.022,14.095.022-.175-.185-.306-.327-.436-.458a1.583,1.583,0,0,1,.011-2.236,1.564,1.564,0,0,1,2.237-.011c1.08,1.047,2.149,2.116,3.207,3.2a1.545,1.545,0,0,1,0,2.236c-1.058,1.08-2.116,2.149-3.207,3.2a1.555,1.555,0,0,1-2.237-.022,1.583,1.583,0,0,1,0-2.236c.12-.131.24-.262.447-.48h-.611c-4.309,0-8.629.011-12.938,0a8.752,8.752,0,0,1-1.211-17.433,12.72,12.72,0,0,1,1.44-.087c4.244-.011,8.5,0,12.742,0A5.244,5.244,0,0,0,1325.438,1381.556Z" transform="translate(-40.502 -28.201)" fill="#006ce5"/>
    <path id="Path_65968" data-name="Path 65968" d="M1347.959,1579.3c.142.011.251.011.371.011,4.429,0,8.858.011,13.287,0a5.567,5.567,0,0,0,.327-11.127,3.144,3.144,0,0,1-.644-.055,1.59,1.59,0,0,1,.382-3.142,8.754,8.754,0,0,1,1.538,17.367,9.7,9.7,0,0,1-1.778.142q-6.447.016-12.884.011h-.578a7.982,7.982,0,0,1-15.8-1.876,7.975,7.975,0,0,1,15.775-1.331Zm-8.542,4.887a4.6,4.6,0,0,0,1.026-.545c.84-.775,1.636-1.593,2.433-2.422a1.589,1.589,0,0,0-2.247-2.247q-.507.475-.982.982a.622.622,0,0,1-.72.218,1.566,1.566,0,0,0-1.953,1.494A3.185,3.185,0,0,0,1339.417,1584.189Z" transform="translate(-66.503 -197.299)" fill="#006ce5"/>
    <path id="Path_65969" data-name="Path 65969" d="M1378.31,1694.409a3.027,3.027,0,0,1-2.312-2.363,1.474,1.474,0,0,1,1.839-1.407.567.567,0,0,0,.678-.206q.447-.478.925-.925a1.5,1.5,0,0,1,2.116,2.116c-.75.771-1.5,1.541-2.291,2.281A5.243,5.243,0,0,1,1378.31,1694.409Z" transform="translate(-104.798 -308.544)" fill="none"/>
  </g>
</svg>
