<svg id="icon-discovery" xmlns="http://www.w3.org/2000/svg" width="49.379" height="49.467" viewBox="0 0 49.379 49.467">
  <path id="Path_65458" data-name="Path 65458" d="M70.183,182.213c-.016-12.57-11.363-23.666-23.634-23.629,0,.832-.017,1.667.005,2.5.021.793-.044,1.6-1.038,1.618s-1.106-.762-1.083-1.571c.025-.865.006-1.731.006-2.6-13.873.314-23.887,12.742-23.59,23.677h1.669c1.916,0,2.548.256,2.417,1.081-.237,1.492-1.474.94-2.368,1.023-.583.055-1.176.01-1.762.01,0,12.471,11.271,23.644,23.634,23.628,0-.587-.045-1.18.011-1.763.085-.893-.475-2.132,1.023-2.365.81-.126,1.078.509,1.078,2.316V208c13.96-.322,23.886-12.825,23.586-23.676-.871,0-1.745-.019-2.618.006-.8.023-1.476-.18-1.462-1.093.013-.843.657-1.053,1.417-1.032C68.375,182.232,69.281,182.213,70.183,182.213Z" transform="translate(-20.804 -158.535)" fill="#fff"/>
  <path id="Path_65459" data-name="Path 65459" d="M70.183,182.213c-.9,0-1.807.019-2.711-.006-.76-.021-1.4.189-1.417,1.032-.014.913.665,1.115,1.462,1.093.873-.025,1.747-.006,2.618-.006.3,10.851-9.626,23.353-23.586,23.676v-1.86c0-1.807-.267-2.442-1.078-2.316-1.5.233-.938,1.472-1.023,2.365-.056.583-.011,1.177-.011,1.763C32.075,207.971,20.8,196.8,20.8,184.327c.587,0,1.179.044,1.762-.01.895-.083,2.131.469,2.368-1.023.131-.824-.5-1.081-2.417-1.081H20.848c-.3-10.935,9.717-23.363,23.59-23.677,0,.866.019,1.732-.006,2.6-.023.809.09,1.59,1.083,1.571s1.059-.825,1.038-1.618c-.022-.835-.005-1.67-.005-2.5C58.82,158.547,70.167,169.643,70.183,182.213Zm-10.74-11.592c.1-.918-.472-1.466-1.221-1.3a2.291,2.291,0,0,0-.744.37q-7.377,4.973-14.738,9.967a3.977,3.977,0,0,0-1,1.056Q36.86,187.9,32.007,195.1c-.41.605-.84,1.233-.163,1.872.624.589,1.223.179,1.8-.209q7.2-4.864,14.392-9.729a4.542,4.542,0,0,0,1.183-1.167q4.916-7.224,9.784-14.482C59.191,171.1,59.345,170.791,59.443,170.621Z" transform="translate(-20.804 -158.535)" fill="#006ce5"/>
  <path id="Path_65460" data-name="Path 65460" d="M99.434,210.874c-.1.17-.251.482-.444.767q-4.882,7.248-9.784,14.482a4.542,4.542,0,0,1-1.183,1.167q-7.183,4.884-14.392,9.729c-.574.388-1.173.8-1.8.209-.676-.639-.246-1.267.163-1.872q4.868-7.194,9.733-14.389a3.977,3.977,0,0,1,1-1.056q7.354-5.006,14.738-9.967a2.291,2.291,0,0,1,.744-.37C98.962,209.408,99.537,209.956,99.434,210.874ZM76.85,231.985l.156.185,10.051-6.789-3.434-3.423Z" transform="translate(-60.795 -198.787)" fill="#fff"/>
  <path id="Path_65461" data-name="Path 65461" d="M96.941,278.44l6.774-10.027,3.434,3.423L97.1,278.625Z" transform="translate(-80.886 -245.243)" fill="#006ce5"/>
</svg>
