<svg xmlns="http://www.w3.org/2000/svg" width="110.433" height="68.915" viewBox="0 0 110.433 68.915">
  <g id="cdnlogo.com_dot-net-core" transform="translate(0.001)">
    <path id="Path_64979" data-name="Path 64979" d="M5.318,35.559a3.1,3.1,0,0,0-1.007-.707,2.956,2.956,0,0,0-1.2-.247,2.948,2.948,0,0,0-1.2.239A3.1,3.1,0,0,0,.9,35.551,3,3,0,0,0,.23,36.567a3.335,3.335,0,0,0-.23,1.2,2.94,2.94,0,0,0,.23,1.2,3.159,3.159,0,0,0,.68,1.016,2.95,2.95,0,0,0,2.209.928,3.053,3.053,0,0,0,2.209-.928,2.926,2.926,0,0,0,.689-1.007,3.145,3.145,0,0,0,0-2.4,3.024,3.024,0,0,0-.7-1.016Zm36.973-7.174a43.03,43.03,0,0,0,.283,5.937h-.106c-.247-.486-.8-1.387-1.634-2.7L20.691,0H14.577V40.365h4.7V11.185a41.492,41.492,0,0,0-.221-5.539h.177a13.579,13.579,0,0,0,1.281,2.527L41.2,40.365h5.787V0h-4.7ZM78.858,35.93H62.249V21.945H76.782V17.687H62.249V4.276H77.842V0H57.434V40.365h21.4ZM82.453,0V4.276H94.027V40.365h4.7V4.276h11.706V0ZM36.39,50.4A8.87,8.87,0,0,0,33.28,52.5a9.9,9.9,0,0,0-2.067,3.339,10.032,10.032,0,0,0-.61,3.878,9.457,9.457,0,0,0,2.385,6.644A8.245,8.245,0,0,0,39.332,68.9a10.846,10.846,0,0,0,5.124-1.087l.018-2.058a9.094,9.094,0,0,1-4.833,1.237,6.362,6.362,0,0,1-2.659-.468,6.249,6.249,0,0,1-2.217-1.546,7.7,7.7,0,0,1-1.855-5.424A8.056,8.056,0,0,1,34.9,53.838a6.729,6.729,0,0,1,5.186-2.217,8.774,8.774,0,0,1,4.417,1.1V50.508a10.8,10.8,0,0,0-4.417-.777,9.571,9.571,0,0,0-3.693.671Zm22.025,6.326A5.936,5.936,0,0,0,53.8,54.89a6.5,6.5,0,0,0-2.659.433,6.826,6.826,0,0,0-2.27,1.449,7.2,7.2,0,0,0-1.44,2.43,7.019,7.019,0,0,0-.389,2.8,6.932,6.932,0,0,0,1.74,4.939,6.258,6.258,0,0,0,2.138,1.5,6.082,6.082,0,0,0,2.562.468,6.34,6.34,0,0,0,2.615-.486A6.183,6.183,0,0,0,58.282,66.9a7.121,7.121,0,0,0,1.785-5.089,7.317,7.317,0,0,0-1.652-5.08ZM56.8,65.8a3.882,3.882,0,0,1-3.154,1.334,4.157,4.157,0,0,1-1.767-.318,4.083,4.083,0,0,1-1.458-1.051,5.412,5.412,0,0,1-1.193-3.719,5.756,5.756,0,0,1,1.193-3.852,4.127,4.127,0,0,1,1.449-1.069,4.057,4.057,0,0,1,1.767-.327,3.793,3.793,0,0,1,1.74.318,3.906,3.906,0,0,1,1.422,1.06,5.891,5.891,0,0,1,1.1,3.834,5.784,5.784,0,0,1-1.1,3.79Zm10.239-9.939a4.654,4.654,0,0,0-1.387,2.217V55.3H63.441V68.592H65.65V61.816a5.958,5.958,0,0,1,.9-3.5,2.7,2.7,0,0,1,2.209-1.281,2.542,2.542,0,0,1,1.608.424V55.269a3.567,3.567,0,0,0-1.255-.177A3.116,3.116,0,0,0,67.037,55.861Zm16.256,5.486a7.038,7.038,0,0,0-1.414-4.691,5.047,5.047,0,0,0-1.82-1.308,4.952,4.952,0,0,0-2.2-.38,5.614,5.614,0,0,0-4.417,1.952,7.259,7.259,0,0,0-1.74,5.045,7.4,7.4,0,0,0,1.608,5.089,5.69,5.69,0,0,0,2.005,1.4,5.632,5.632,0,0,0,2.412.415,7.676,7.676,0,0,0,4.612-1.263v-2A6.631,6.631,0,0,1,78.23,67.1a3.979,3.979,0,0,1-1.7-.265,4.1,4.1,0,0,1-1.44-.936,4.93,4.93,0,0,1-1.122-3.41H83.31Zm-9.338-.618a4.878,4.878,0,0,1,1.3-2.809A3.41,3.41,0,0,1,77.8,56.833a3,3,0,0,1,1.334.23,2.946,2.946,0,0,1,1.1.786,4.422,4.422,0,0,1,.883,2.854Z" fill="#fff"/>
  </g>
</svg>
