<svg xmlns="http://www.w3.org/2000/svg" width="140.412" height="164.565" viewBox="0 0 140.412 164.565">
  <g id="Group_10607" data-name="Group 10607" transform="translate(-422.738 -4349.059)">
    <g id="Group_10606" data-name="Group 10606" transform="translate(-511.437 3924.059)" opacity="0.3">
      <g id="Path_65183" data-name="Path 65183" transform="translate(7.72 6.933)" fill="none" stroke-linecap="round" stroke-linejoin="round">
        <path d="M996.249,576.632a20.207,20.207,0,0,1-20.206-20.206s.214-16.08-6.735-28.866-18.282-19.244-18.282-40.412A47.149,47.149,0,0,1,998.173,440h-.962a47.148,47.148,0,0,1,47.148,47.148c0,21.168-11.333,27.627-18.282,40.412s-6.735,28.866-6.735,28.866a20.206,20.206,0,0,1-20.206,20.206Z" stroke="none"/>
        <path d="M 999.1357421875 573.6318969726562 C 1003.731750488281 573.6318969726562 1008.052612304688 571.8421630859375 1011.302368164062 568.5923461914062 C 1014.548400878906 565.3463134765625 1016.337768554688 561.0315551757812 1016.341918945312 556.4415893554688 C 1016.338134765625 556.0592651367188 1016.319152832031 551.9812622070312 1017.135498046875 546.3565673828125 C 1018.268798828125 538.548583984375 1020.390319824219 531.7425537109375 1023.44140625 526.1273193359375 C 1025.560546875 522.228271484375 1028.042724609375 518.9212036132812 1030.443115234375 515.7229614257812 C 1033.314086914062 511.8977661132812 1036.026000976562 508.2847290039062 1038.044311523438 503.8349304199219 C 1039.112182617188 501.4805297851562 1039.896118164062 499.0894775390625 1040.44091796875 496.5251770019531 C 1041.058715820312 493.6173095703125 1041.359008789062 490.5498657226562 1041.359008789062 487.1476440429688 C 1041.359008789062 481.2230529785156 1040.2060546875 475.474609375 1037.93212890625 470.0619506835938 C 1035.735107421875 464.8325500488281 1032.587280273438 460.1278686523438 1028.575927734375 456.0786437988281 C 1024.56640625 452.0311279296875 1019.893493652344 448.8396911621094 1014.687133789062 446.5929565429688 C 1009.311950683594 444.2733764648438 1003.594116210938 443.0653991699219 997.6924438476562 443.0025024414062 C 991.7913208007812 443.0653991699219 986.0736694335938 444.2733764648438 980.6985473632812 446.5929565429688 C 975.4922485351562 448.8397216796875 970.8193359375 452.0311584472656 966.8096313476562 456.0786743164062 C 962.798095703125 460.1279907226562 959.6500854492188 464.8326721191406 957.4530639648438 470.06201171875 C 955.178955078125 475.4747009277344 954.02587890625 481.22314453125 954.02587890625 487.1476440429688 C 954.02587890625 490.5495300292969 954.326171875 493.6166381835938 954.9439697265625 496.5243225097656 C 955.4887084960938 499.0884094238281 956.2726440429688 501.4792785644531 957.3405151367188 503.8335876464844 C 959.3587036132812 508.2830810546875 962.0702514648438 511.8958740234375 964.9410400390625 515.7208251953125 C 967.3419799804688 518.9197387695312 969.8246459960938 522.2276000976562 971.943603515625 526.1273193359375 C 974.995361328125 531.7423706054688 977.1171875 538.548583984375 978.2501220703125 546.356689453125 C 979.06640625 551.9825439453125 979.0468139648438 556.0611572265625 979.04296875 556.4421997070312 C 979.047119140625 561.0318603515625 980.8367309570312 565.3460083007812 984.0831909179688 568.59228515625 C 987.3333129882812 571.8421020507812 991.6539306640625 573.6318969726562 996.2491455078125 573.6318969726562 L 999.1357421875 573.6318969726562 M 999.1357421875 576.6318969726562 L 996.2491455078125 576.6318969726562 C 985.091552734375 576.6318969726562 976.04296875 567.5853271484375 976.04296875 556.42578125 C 976.04296875 556.42578125 976.2567138671875 540.3455810546875 969.3077392578125 527.5598754882812 C 962.360595703125 514.7742309570312 951.02587890625 508.3159790039062 951.02587890625 487.1476440429688 C 951.02587890625 461.2691650390625 971.876953125 440.2603759765625 997.6924438476562 440.0023498535156 C 1023.509887695312 440.2603759765625 1044.359008789062 461.2691650390625 1044.359008789062 487.1476440429688 C 1044.359008789062 508.3159790039062 1033.026245117188 514.7742309570312 1026.077270507812 527.5598754882812 C 1019.130126953125 540.3455810546875 1019.341918945312 556.42578125 1019.341918945312 556.42578125 C 1019.341918945312 567.5853271484375 1010.29541015625 576.6318969726562 999.1357421875 576.6318969726562 Z M 997.6924438476562 440.0023498535156 C 997.5323486328125 440.000732421875 997.3719482421875 439.9999389648438 997.21142578125 439.9999389648438 L 998.1734619140625 439.9999389648438 C 998.012939453125 439.9999389648438 997.8526000976562 440.000732421875 997.6924438476562 440.0023498535156 Z" stroke="none" fill="#031342"/>
      </g>
      <path id="Path_65184" data-name="Path 65184" d="M997.266,465.544,981.7,509.72l-14.145-44.078" transform="translate(23.002 30.546)" fill="none" stroke="#000" stroke-linecap="round" stroke-linejoin="round" stroke-width="3"/>
      <path id="Path_65185" data-name="Path 65185" d="M1010.272,467.143s-3.6-5.739-9.937-5.425-7.769,5.425-13.788,5.425-9.451-5.023-14.469-5.425-9.085,5.425-9.085,5.425" transform="translate(18.781 26.991)" fill="none" stroke="#000" stroke-linecap="round" stroke-linejoin="round" stroke-width="3"/>
      <line id="Line_265" data-name="Line 265" y2="7.024" transform="translate(1005.413 432.5)" fill="none" stroke="#000" stroke-linecap="round" stroke-linejoin="round" stroke-width="3"/>
      <line id="Line_266" data-name="Line 266" x1="5.221" y2="4.699" transform="translate(1045.979 452.97)" fill="rgba(0,0,0,0)" stroke="#000" stroke-linecap="round" stroke-linejoin="round" stroke-width="3"/>
      <line id="Line_267" data-name="Line 267" x2="5.221" y2="4.699" transform="translate(957.457 452.97)" fill="rgba(0,0,0,0)" stroke="#000" stroke-linecap="round" stroke-linejoin="round" stroke-width="3"/>
      <line id="Line_268" data-name="Line 268" x1="7.024" transform="translate(1060.063 503.366)" fill="rgba(0,0,0,0)" stroke="#000" stroke-linecap="round" stroke-linejoin="round" stroke-width="3"/>
      <line id="Line_269" data-name="Line 269" x1="43.924" transform="translate(983.087 546.039)" fill="none" stroke="#031342" stroke-linecap="round" stroke-linejoin="round" stroke-width="3"/>
      <line id="Line_270" data-name="Line 270" x1="38.488" transform="translate(986.599 567.208)" fill="none" stroke="#000" stroke-linecap="round" stroke-linejoin="round" stroke-width="3"/>
      <line id="Line_271" data-name="Line 271" x1="7.024" transform="translate(942.675 503.366)" fill="rgba(0,0,0,0)" stroke="#000" stroke-linecap="round" stroke-linejoin="round" stroke-width="3"/>
    </g>
    <g id="Group_10605" data-name="Group 10605" transform="translate(-518.437 3920.059)">
      <g id="Path_65183-2" data-name="Path 65183" transform="translate(7.72 6.933)" fill="none" stroke-linecap="round" stroke-linejoin="round">
        <path d="M996.249,576.632a20.207,20.207,0,0,1-20.206-20.206s.214-16.08-6.735-28.866-18.282-19.244-18.282-40.412A47.149,47.149,0,0,1,998.173,440h-.962a47.148,47.148,0,0,1,47.148,47.148c0,21.168-11.333,27.627-18.282,40.412s-6.735,28.866-6.735,28.866a20.206,20.206,0,0,1-20.206,20.206Z" stroke="none"/>
        <path d="M 999.1357421875 573.6318969726562 C 1003.731750488281 573.6318969726562 1008.052612304688 571.8421630859375 1011.302368164062 568.5923461914062 C 1014.548400878906 565.3463134765625 1016.337768554688 561.0315551757812 1016.341918945312 556.4415893554688 C 1016.338134765625 556.0592651367188 1016.319152832031 551.9812622070312 1017.135498046875 546.3565673828125 C 1018.268798828125 538.548583984375 1020.390319824219 531.7425537109375 1023.44140625 526.1273193359375 C 1025.560546875 522.228271484375 1028.042724609375 518.9212036132812 1030.443115234375 515.7229614257812 C 1033.314086914062 511.8977661132812 1036.026000976562 508.2847290039062 1038.044311523438 503.8349304199219 C 1039.112182617188 501.4805297851562 1039.896118164062 499.0894775390625 1040.44091796875 496.5251770019531 C 1041.058715820312 493.6173095703125 1041.359008789062 490.5498657226562 1041.359008789062 487.1476440429688 C 1041.359008789062 481.2230529785156 1040.2060546875 475.474609375 1037.93212890625 470.0619506835938 C 1035.735107421875 464.8325500488281 1032.587280273438 460.1278686523438 1028.575927734375 456.0786437988281 C 1024.56640625 452.0311279296875 1019.893493652344 448.8396911621094 1014.687133789062 446.5929565429688 C 1009.311950683594 444.2733764648438 1003.594116210938 443.0653991699219 997.6924438476562 443.0025024414062 C 991.7913208007812 443.0653991699219 986.0736694335938 444.2733764648438 980.6985473632812 446.5929565429688 C 975.4922485351562 448.8397216796875 970.8193359375 452.0311584472656 966.8096313476562 456.0786743164062 C 962.798095703125 460.1279907226562 959.6500854492188 464.8326721191406 957.4530639648438 470.06201171875 C 955.178955078125 475.4747009277344 954.02587890625 481.22314453125 954.02587890625 487.1476440429688 C 954.02587890625 490.5495300292969 954.326171875 493.6166381835938 954.9439697265625 496.5243225097656 C 955.4887084960938 499.0884094238281 956.2726440429688 501.4792785644531 957.3405151367188 503.8335876464844 C 959.3587036132812 508.2830810546875 962.0702514648438 511.8958740234375 964.9410400390625 515.7208251953125 C 967.3419799804688 518.9197387695312 969.8246459960938 522.2276000976562 971.943603515625 526.1273193359375 C 974.995361328125 531.7423706054688 977.1171875 538.548583984375 978.2501220703125 546.356689453125 C 979.06640625 551.9825439453125 979.0468139648438 556.0611572265625 979.04296875 556.4421997070312 C 979.047119140625 561.0318603515625 980.8367309570312 565.3460083007812 984.0831909179688 568.59228515625 C 987.3333129882812 571.8421020507812 991.6539306640625 573.6318969726562 996.2491455078125 573.6318969726562 L 999.1357421875 573.6318969726562 M 999.1357421875 576.6318969726562 L 996.2491455078125 576.6318969726562 C 985.091552734375 576.6318969726562 976.04296875 567.5853271484375 976.04296875 556.42578125 C 976.04296875 556.42578125 976.2567138671875 540.3455810546875 969.3077392578125 527.5598754882812 C 962.360595703125 514.7742309570312 951.02587890625 508.3159790039062 951.02587890625 487.1476440429688 C 951.02587890625 461.2691650390625 971.876953125 440.2603759765625 997.6924438476562 440.0023498535156 C 1023.509887695312 440.2603759765625 1044.359008789062 461.2691650390625 1044.359008789062 487.1476440429688 C 1044.359008789062 508.3159790039062 1033.026245117188 514.7742309570312 1026.077270507812 527.5598754882812 C 1019.130126953125 540.3455810546875 1019.341918945312 556.42578125 1019.341918945312 556.42578125 C 1019.341918945312 567.5853271484375 1010.29541015625 576.6318969726562 999.1357421875 576.6318969726562 Z M 997.6924438476562 440.0023498535156 C 997.5323486328125 440.000732421875 997.3719482421875 439.9999389648438 997.21142578125 439.9999389648438 L 998.1734619140625 439.9999389648438 C 998.012939453125 439.9999389648438 997.8526000976562 440.000732421875 997.6924438476562 440.0023498535156 Z" stroke="none" fill="#ffd300"/>
      </g>
      <path id="Path_65184-2" data-name="Path 65184" d="M997.266,465.544,981.7,509.72l-14.145-44.078" transform="translate(23.002 30.546)" fill="none" stroke="#ffd300" stroke-linecap="round" stroke-linejoin="round" stroke-width="3"/>
      <path id="Path_65185-2" data-name="Path 65185" d="M1010.272,467.143s-3.6-5.739-9.937-5.425-7.769,5.425-13.788,5.425-9.451-5.023-14.469-5.425-9.085,5.425-9.085,5.425" transform="translate(18.781 26.991)" fill="none" stroke="#ffd300" stroke-linecap="round" stroke-linejoin="round" stroke-width="3"/>
      <line id="Line_265-2" data-name="Line 265" y2="7.024" transform="translate(1005.413 432.5)" fill="none" stroke="#ffd300" stroke-linecap="round" stroke-linejoin="round" stroke-width="3"/>
      <line id="Line_266-2" data-name="Line 266" x1="5.221" y2="4.699" transform="translate(1045.979 452.97)" fill="none" stroke="#ffd300" stroke-linecap="round" stroke-linejoin="round" stroke-width="3"/>
      <line id="Line_267-2" data-name="Line 267" x2="5.221" y2="4.699" transform="translate(957.457 452.97)" fill="none" stroke="#ffd300" stroke-linecap="round" stroke-linejoin="round" stroke-width="3"/>
      <line id="Line_268-2" data-name="Line 268" x1="7.024" transform="translate(1060.063 503.366)" fill="none" stroke="#ffd300" stroke-linecap="round" stroke-linejoin="round" stroke-width="3"/>
      <line id="Line_269-2" data-name="Line 269" x1="43.924" transform="translate(983.087 546.039)" fill="none" stroke="#ffd300" stroke-linecap="round" stroke-linejoin="round" stroke-width="3"/>
      <line id="Line_270-2" data-name="Line 270" x1="38.488" transform="translate(986.599 567.208)" fill="none" stroke="#ffd300" stroke-linecap="round" stroke-linejoin="round" stroke-width="3"/>
      <line id="Line_271-2" data-name="Line 271" x1="7.024" transform="translate(942.675 503.366)" fill="none" stroke="#ffd300" stroke-linecap="round" stroke-linejoin="round" stroke-width="3"/>
    </g>
  </g>
</svg>
