<svg id="Group_10368" data-name="Group 10368" xmlns="http://www.w3.org/2000/svg" width="126.098" height="45.495" viewBox="0 0 126.098 45.495">
  <path id="Path_64875" data-name="Path 64875" d="M12.173,12.292a10.179,10.179,0,0,0-6.1-1.833H0V28.548H6.02A11.593,11.593,0,0,0,8.546,28.3a8.821,8.821,0,0,0,7.15-9.5,8.394,8.394,0,0,0-3.523-6.514ZM12.1,23.953A6.827,6.827,0,0,1,7.53,26.44a29.949,29.949,0,0,1-3.8.095H2.393c-.237,0-.275-.066-.275-.285V12.767c0-.228,0-.294.285-.294,1.434,0,2.849-.057,4.311,0,2.972.2,5.279,1.529,6.381,4.4A6.884,6.884,0,0,1,12.1,23.953Z" transform="translate(0 -0.528)" fill="#fff"/>
  <path id="Path_64876" data-name="Path 64876" d="M77.226.313,67.892,21.839c-.484,1.111-.95,2.222-1.472,3.342L62.081,14.993c-.684-1.614-1.377-3.219-2.06-4.833a.22.22,0,0,0-.228-.237h-2.2c.057.133.095.237.142.342l4.368,9.98,3.247,7.406c-.047.133-.095.275-.152.408q-3.684,8.546-7.368,17c-.066.133-.123.275-.19.437H59.6a.38.38,0,0,0,.408-.266q2.193-5.08,4.406-10.17L77.777,4.263Q78.7,2.141,79.61,0h-2.3C77.35.123,77.274.218,77.226.313Z" transform="translate(-2.906)" fill="#fff"/>
  <path id="Path_64877" data-name="Path 64877" d="M41.26,20.781a6.855,6.855,0,0,0,.95-.408,5.089,5.089,0,0,0,.475-8.783,8.024,8.024,0,0,0-4.339-1.13H31.024c-.256,0-.3.076-.3.313v17.49c0,.237.047.3.285.294h1.519c.266,0,.323-.066.323-.323V21.759c0-.313.085-.361.38-.361h4.339a.56.56,0,0,1,.513.247l4.605,5.992c.237.294.418.712.722.864a3.01,3.01,0,0,0,1.139,0h1.519l-5.783-7.473A7.022,7.022,0,0,0,41.26,20.781ZM33.1,19.433c-.247,0-.285-.076-.285-.294V12.72c0-.18,0-.247.228-.247H38.81a5.251,5.251,0,0,1,1.9.37,3.029,3.029,0,0,1,2.117,2.849,3.162,3.162,0,0,1-1.785,3.114,5.887,5.887,0,0,1-2.782.627Z" transform="translate(-1.55 -0.528)" fill="#fff"/>
  <path id="Path_64878" data-name="Path 64878" d="M131.774,26.522H121.329c-.285,0-.351-.085-.351-.361V20.7c0-.228.057-.294.294-.294h9.305c.247,0,.313-.076.3-.313a12.951,12.951,0,0,1,0-1.358c0-.3-.095-.351-.361-.351h-9.21c-.256,0-.332-.057-.332-.313V12.8c0-.332.095-.38.389-.38H131.7c.228,0,.3,0,.294-.294V10.7c0-.256-.057-.323-.313-.323H119.2c-.275,0-.332.066-.332.342V28.193c0,.237.057.294.285.294h12.657c.209,0,.285-.047.275-.266V26.8C132.125,26.589,132.05,26.522,131.774,26.522Z" transform="translate(-5.999 -0.524)" fill="#fff"/>
  <path id="Path_64879" data-name="Path 64879" d="M102.833,10.449a.361.361,0,0,0-.389.256q-2.649,6.238-5.327,12.467L96.044,25.68a2.853,2.853,0,0,1-.123-.285l-2.649-6.219q-1.814-4.225-3.6-8.451a.38.38,0,0,0-.427-.275H87.564c-.351,0-.351,0-.2.332l2.991,6.837Q92.72,23.011,95.1,28.433a.323.323,0,0,0,.351.218H96.6a.37.37,0,0,0,.408-.266q3.627-8.337,7.283-16.674c.18-.418.361-.845.56-1.282C104.105,10.458,103.478,10.468,102.833,10.449Z" transform="translate(-4.404 -0.526)" fill="#fff"/>
</svg>
