<svg xmlns="http://www.w3.org/2000/svg" width="47.465" height="47.465" viewBox="0 0 47.465 47.465">
  <g id="Group_11663" data-name="Group 11663" transform="translate(-626.1 -1922.999)">
    <g id="Group_11662" data-name="Group 11662" transform="translate(626.1 1922.999)">
      <path id="Path_65987" data-name="Path 65987" d="M673.565,1933.185v30.346a.714.714,0,0,1-.074-.21,6.085,6.085,0,0,0-1.768-3.424l-2.089-2.089c-.222-.222-.433-.47-.593-.643q-4.394,4.394-8.578,8.566a44.565,44.565,0,0,0,3.1,3.214,6.069,6.069,0,0,0,9.765-3c.087-.309.161-.618.235-.927v5.451H626.1V1923h.358a.714.714,0,0,0-.21.828c.507,1.941.977,3.881,1.483,5.81a38.119,38.119,0,0,0,1.15,3.844,9.836,9.836,0,0,0,2.954,3.77l8.591-8.591a10.076,10.076,0,0,0-5.006-3.424c-1.792-.495-3.609-.927-5.414-1.4-1.038-.272-2.064-.556-3.1-.84h36.464a5.089,5.089,0,0,0-2.312,1.52q-16.854,16.872-33.72,33.733c-.148.148-.309.309-.445.47a3.049,3.049,0,0,0,.1,4.091c2.225,2.274,4.475,4.512,6.737,6.737a2.911,2.911,0,0,0,3.708.334,31.273,31.273,0,0,0,2.633-2.41,4.385,4.385,0,0,1-.457-.4c-.779-.766-1.557-1.545-2.324-2.324a1.38,1.38,0,0,1-.26-1.619,1.3,1.3,0,0,1,1.422-.717,2.162,2.162,0,0,1,.9.494c.878.841,1.718,1.706,2.559,2.546l2.213-2.213a1.489,1.489,0,0,1-.371-.247c-1.434-1.422-2.868-2.855-4.289-4.277a1.416,1.416,0,0,1-.124-2.089,1.389,1.389,0,0,1,2.089.136c1.434,1.422,2.855,2.855,4.289,4.289a2.921,2.921,0,0,1,.235.383c.8-.8,1.508-1.5,2.213-2.213a3.073,3.073,0,0,0-.284-.3c-.779-.791-1.582-1.558-2.349-2.361a1.387,1.387,0,1,1,2-1.916c.878.878,1.755,1.768,2.6,2.608l2.138-2.138c-.087-.1-.2-.21-.321-.334-1.421-1.422-2.843-2.831-4.24-4.264a2.149,2.149,0,0,1-.507-.853,1.306,1.306,0,0,1,.68-1.483,1.408,1.408,0,0,1,1.693.284q2.188,2.169,4.351,4.351c.111.111.235.222.321.309l2.089-2.089c-.853-.853-1.731-1.73-2.608-2.62a1.387,1.387,0,1,1,1.953-1.965c.729.7,1.446,1.434,2.163,2.163a4.568,4.568,0,0,1,.42.519l2.237-2.237c-.1-.074-.247-.173-.371-.284l-4.19-4.19a1.441,1.441,0,0,1-.21-2.151c.606-.63,1.434-.556,2.188.21l4.153,4.153a2.518,2.518,0,0,1,.272.383c.791-.779,1.5-1.483,2.213-2.2l-2.546-2.546a1.442,1.442,0,0,1-.494-1.2,1.333,1.333,0,0,1,.89-1.187,1.315,1.315,0,0,1,1.483.346c.9.89,1.78,1.792,2.62,2.633.729-.729,1.422-1.446,2.151-2.176-.173-.161-.383-.359-.593-.556q-2.04-2.021-4.054-4.054a1.39,1.39,0,1,1,2-1.916c1.434,1.446,2.88,2.88,4.314,4.314.111.111.235.223.383.371C671.724,1935.633,673.158,1934.829,673.565,1933.185Zm-11.792,16.9-8.48,8.48,5.08,5.08,8.479-8.48Zm-23.782-6.712,8.5-8.5c-1.323-1.384-2.67-2.793-3.968-4.153L634,1939.242C635.321,1940.6,636.668,1942,637.991,1943.371Z" transform="translate(-626.1 -1923)" fill="none"/>
      <path id="Path_65988" data-name="Path 65988" d="M673.935,1933.185c-.4,1.632-1.829,2.448-2.855,3.671-.148-.136-.272-.247-.383-.371-1.446-1.434-2.88-2.88-4.314-4.314a1.429,1.429,0,0,0-1.595-.408,1.382,1.382,0,0,0-.408,2.324c1.347,1.36,2.707,2.707,4.054,4.054.21.21.42.4.593.556-.729.742-1.422,1.446-2.151,2.176-.841-.841-1.73-1.743-2.62-2.633a1.32,1.32,0,0,0-1.483-.346,1.29,1.29,0,0,0-.89,1.187,1.442,1.442,0,0,0,.494,1.2c.865.853,1.731,1.718,2.546,2.546-.717.717-1.421,1.409-2.213,2.2a2.065,2.065,0,0,0-.272-.383l-4.153-4.153c-.754-.754-1.582-.828-2.188-.21a1.441,1.441,0,0,0,.21,2.151l4.19,4.19a3,3,0,0,0,.371.284l-2.237,2.237a5.96,5.96,0,0,0-.42-.519c-.717-.729-1.434-1.446-2.163-2.163a1.387,1.387,0,1,0-1.953,1.965c.878.89,1.755,1.768,2.608,2.62l-2.089,2.089c-.086-.087-.21-.2-.321-.309-1.446-1.446-2.892-2.9-4.351-4.351a1.411,1.411,0,0,0-1.693-.284,1.306,1.306,0,0,0-.68,1.483,2.15,2.15,0,0,0,.507.853c1.4,1.434,2.831,2.843,4.24,4.264.124.124.235.235.321.334l-2.138,2.138c-.841-.841-1.718-1.718-2.6-2.608a1.4,1.4,0,0,0-1.335-.445,1.389,1.389,0,0,0-.667,2.361c.766.8,1.57,1.57,2.349,2.361.111.111.21.222.284.3-.717.7-1.409,1.409-2.213,2.213a1.188,1.188,0,0,0-.235-.383c-1.421-1.434-2.855-2.855-4.289-4.289a1.4,1.4,0,0,0-2.089-.136,1.415,1.415,0,0,0,.124,2.089q2.132,2.151,4.289,4.277a3.208,3.208,0,0,0,.371.247l-2.213,2.212c-.828-.828-1.669-1.706-2.559-2.546a2.032,2.032,0,0,0-.9-.495,1.279,1.279,0,0,0-1.421.717,1.359,1.359,0,0,0,.26,1.619c.766.779,1.545,1.557,2.324,2.324.124.124.26.223.457.4-.915.841-1.706,1.718-2.633,2.41a2.911,2.911,0,0,1-3.708-.334c-2.274-2.225-4.524-4.462-6.737-6.737a3.049,3.049,0,0,1-.1-4.092c.136-.161.3-.321.445-.47q16.873-16.854,33.72-33.733a4.84,4.84,0,0,1,2.311-1.52h1.014a4.617,4.617,0,0,1,2.262,1.446q2.688,2.744,5.426,5.426a4.678,4.678,0,0,1,1.471,2.287C673.935,1932.5,673.935,1932.851,673.935,1933.185Z" transform="translate(-626.469 -1922.999)" fill="#006ce5"/>
      <path id="Path_65989" data-name="Path 65989" d="M627.74,1923.1c1.038.284,2.064.569,3.1.841,1.8.47,3.622.9,5.414,1.4a10.155,10.155,0,0,1,5.006,3.424l-8.591,8.591a10.025,10.025,0,0,1-2.954-3.77,37.191,37.191,0,0,1-1.15-3.844c-.519-1.928-.977-3.881-1.483-5.81a.724.724,0,0,1,.21-.828Z" transform="translate(-626.924 -1923.088)" fill="#006ce5"/>
      <path id="Path_65990" data-name="Path 65990" d="M917.2,2207.249c-.074.309-.148.618-.235.927a6.074,6.074,0,0,1-9.765,3,44.552,44.552,0,0,1-3.1-3.214c2.794-2.781,5.649-5.649,8.578-8.566.161.173.371.42.593.643.692.7,1.4,1.4,2.089,2.089a6.086,6.086,0,0,1,1.768,3.424,1.424,1.424,0,0,0,.074.21Z" transform="translate(-869.737 -2165.235)" fill="#006ce5"/>
      <path id="Path_65991" data-name="Path 65991" d="M945.159,1932.259a4.678,4.678,0,0,0-1.471-2.287q-2.744-2.688-5.426-5.426A4.706,4.706,0,0,0,936,1923.1h9.159Z" transform="translate(-897.694 -1923.088)" fill="none"/>
      <path id="Path_65992" data-name="Path 65992" d="M854.58,2142.1l5.08,5.08-8.479,8.479-5.08-5.08Z" transform="translate(-818.906 -2115.018)" fill="#006ce5"/>
      <path id="Path_65993" data-name="Path 65993" d="M693.993,1998.058c-1.323-1.372-2.67-2.769-3.993-4.128l8.529-8.529c1.3,1.36,2.645,2.769,3.968,4.153Z" transform="translate(-682.101 -1977.687)" fill="#006ce5"/>
    </g>
  </g>
</svg>
