<svg xmlns="http://www.w3.org/2000/svg" width="64.406" height="63.095" viewBox="0 0 64.406 63.095">
  <g id="Group_25934" data-name="Group 25934" transform="translate(-7277.201 -72.997)">
    <path id="Path_79976" data-name="Path 79976" d="M7277.2,122.648V73h57.156c.012.191.034.377.034.564q0,15.176,0,30.351c0,.989-.374,1.57-1.122,1.768a1.447,1.447,0,0,1-1.8-1.068,3.981,3.981,0,0,1-.07-.874q-.007-8.777,0-17.553v-.81h-51.208v34.3h.8q17.993,0,35.987,0a4.819,4.819,0,0,1,.876.055,1.466,1.466,0,0,1,.113,2.85,2.873,2.873,0,0,1-.752.088q-19.726.006-39.451,0C7277.583,122.672,7277.41,122.657,7277.2,122.648Zm13.763-42.924a1.548,1.548,0,0,0,1.566,1.5,1.49,1.49,0,1,0-.083-2.979A1.446,1.446,0,0,0,7290.963,79.724Zm8.588-1.482a1.467,1.467,0,0,0-1.523,1.451,1.568,1.568,0,0,0,1.545,1.528,1.49,1.49,0,1,0-.022-2.979Zm-14.186,0a1.431,1.431,0,0,0-1.465,1.491,1.528,1.528,0,0,0,1.506,1.488,1.5,1.5,0,0,0,1.5-1.483A1.489,1.489,0,0,0,7285.365,78.242Z" transform="translate(0 0)" fill="#fff"/>
    <path id="Path_79977" data-name="Path 79977" d="M7666.61,332.624c.97,2.238,1.884,4.35,2.8,6.462.847,1.953,1.69,3.909,2.546,5.858a1.52,1.52,0,0,1-.2,1.75,1.477,1.477,0,0,1-2.5-.475c-.727-1.622-1.421-3.259-2.128-4.889l-3.268-7.533c-.181.15-.327.261-.461.386-1.65,1.53-3.306,3.054-4.943,4.6a1.589,1.589,0,0,1-1.857.46,1.573,1.573,0,0,1-.879-1.639q-.026-11.71-.075-23.42c0-.137,0-.274,0-.411a1.5,1.5,0,0,1,.972-1.467,1.446,1.446,0,0,1,1.656.406c1.158,1.166,2.309,2.339,3.464,3.509q6.62,6.7,13.226,13.42a2.373,2.373,0,0,1,.636,1.255,1.4,1.4,0,0,1-1.5,1.505q-3.313.122-6.628.226C7667.225,332.631,7666.974,332.624,7666.61,332.624Z" transform="translate(-334.009 -211.106)" fill="#fff"/>
    <path id="Path_79978" data-name="Path 79978" d="M7498.28,286.106c0-2.209.009-4.419-.007-6.628a.759.759,0,0,1,.491-.81q6.266-2.987,12.513-6.006c.675-.324.784-.256.784.488,0,4.438,0,8.877.011,13.315a.814.814,0,0,1-.549.842q-6.209,2.965-12.4,5.957c-.733.352-.837.286-.837-.531Q7498.279,289.421,7498.28,286.106Z" transform="translate(-195.113 -176.057)" fill="#fff"/>
    <path id="Path_79979" data-name="Path 79979" d="M7372.331,286.216q0,3.286,0,6.572c0,.76-.143.851-.819.525q-6.229-3-12.459-5.995a.809.809,0,0,1-.545-.842c.016-4.421.008-8.841.01-13.262,0-.764.135-.85.816-.522,4.154,2,8.3,4,12.463,5.986a.849.849,0,0,1,.545.907C7372.32,281.8,7372.331,284.006,7372.331,286.216Zm-4.854-3.025a1.325,1.325,0,0,0,1.407-1.018,1.271,1.271,0,0,0-.742-1.447q-2.312-1.138-4.641-2.238a1.309,1.309,0,0,0-1.9.545,1.323,1.323,0,0,0,.8,1.806q2.213,1.075,4.431,2.134A4.666,4.666,0,0,0,7367.477,283.191Z" transform="translate(-71.758 -176.087)" fill="#fff"/>
    <path id="Path_79980" data-name="Path 79980" d="M7451.416,241.692c-.158-.064-.3-.115-.444-.182-1.285-.618-2.571-1.233-3.849-1.865a2.475,2.475,0,0,1-.465-.4,2.253,2.253,0,0,1,.479-.443q6.037-2.922,12.092-5.809a1.081,1.081,0,0,1,.808,0c1.315.6,2.614,1.232,3.91,1.873.17.084.4.28.394.421s-.228.336-.4.419q-6.04,2.918-12.09,5.812C7451.712,241.589,7451.564,241.635,7451.416,241.692Z" transform="translate(-149.56 -141.144)" fill="#fff"/>
    <path id="Path_79981" data-name="Path 79981" d="M7394.745,201.565a5.481,5.481,0,0,1-.624.43q-4.245,2.052-8.5,4.091c-1.18.567-2.352,1.15-3.547,1.68a1.17,1.17,0,0,1-.856-.005c-1.316-.6-2.615-1.233-3.909-1.875-.169-.084-.284-.278-.423-.421a1.926,1.926,0,0,1,.409-.376q6.093-2.942,12.2-5.853a.939.939,0,0,1,.706,0c1.348.62,2.681,1.273,4.015,1.925A3.8,3.8,0,0,1,7394.745,201.565Z" transform="translate(-87.983 -111.354)" fill="#fff"/>
  </g>
</svg>
