<svg xmlns="http://www.w3.org/2000/svg" width="39.566" height="66.632" viewBox="0 0 39.566 66.632">
  <g id="Group_25941" data-name="Group 25941" transform="translate(-384.023 -647.67)">
    <path id="Path_79991" data-name="Path 79991" d="M413.357,694.527c2.162.907,3,2.042,2.916,3.885-.077,1.609-1.129,2.774-3.067,3.37v2.083c.813.12,2.041-.279,2,1.11-.039,1.274-1.181.92-2.036,1.018,0,.367.012.718,0,1.068a2.875,2.875,0,0,1-1.629,2.642,1.515,1.515,0,0,0-.876,1.193,4.118,4.118,0,0,1-3.554,3.356,15.851,15.851,0,0,1-1.96.042c-1.348,0-2.7.008-4.044,0a4.111,4.111,0,0,1-4.109-3.212,1.9,1.9,0,0,0-1.062-1.466,2.753,2.753,0,0,1-1.491-2.538c-.013-.351,0-.7,0-1.077-.855-.105-2,.237-2.05-1.018-.051-1.37,1.173-1.007,2.04-1.13,0-.631.017-1.222-.014-1.811a.512.512,0,0,0-.3-.346c-1.831-.659-2.831-1.89-2.81-3.544a3.637,3.637,0,0,1,2.817-3.54c.035-.008.062-.046.132-.1-.2-1.3-.393-2.634-.6-3.96a24.232,24.232,0,0,0-1.391-6.057c-.64-1.463-.618-1.426-2.178-1.455a11.656,11.656,0,0,1-2.817-.34,4.1,4.1,0,0,1-3.059-5.359,11.313,11.313,0,0,1,1.932-3.852,1.232,1.232,0,0,0,.245-1.04,16.854,16.854,0,0,1-.026-5.853,1.5,1.5,0,0,0-.222-.973,11.65,11.65,0,0,1-2.039-4.445,3.907,3.907,0,0,1,2.474-4.549,12.831,12.831,0,0,1,2.357-.557.8.8,0,0,0,.675-.45,3.025,3.025,0,0,1,4.358-1.221.645.645,0,0,0,.739-.017c1.06-.53,2.148-1,3.209-1.533a1.524,1.524,0,0,0,.654-.591,11.775,11.775,0,0,1,2.292-3.3,4.006,4.006,0,0,1,5.854-.029,11.521,11.521,0,0,1,2.313,3.287,1.418,1.418,0,0,0,.7.629,16.882,16.882,0,0,1,5.044,2.849,1.938,1.938,0,0,0,1.4.411,22.291,22.291,0,0,1,3.778.176,4.037,4.037,0,0,1,3.526,3.107,5.468,5.468,0,0,1-.458,3.475.8.8,0,0,0,.062.859,3.025,3.025,0,0,1-1.16,4.373.772.772,0,0,0-.456.821c-.043,1.206-.165,2.408-.215,3.614a1.943,1.943,0,0,0,.21.909,29.614,29.614,0,0,1,1.8,3.524c1.02,2.991-.446,5.37-3.561,5.9a18.286,18.286,0,0,1-3.076.139.759.759,0,0,0-.819.473,17.151,17.151,0,0,0-1.561,5.209c-.237,1.686-.515,3.366-.774,5.05C413.421,694,413.39,694.271,413.357,694.527Zm-2.545-12.616c-.059.064-.1.088-.109.121-.057.19-.1.382-.158.572a19.157,19.157,0,0,1-2.911,6.521,5,5,0,0,1-3.255,2.211,4.422,4.422,0,0,1-4.132-1.869,15.193,15.193,0,0,1-2.574-4.852c-.071-.2-.234-.492-.384-.511a3.342,3.342,0,0,1-2.518-1.691l-.952.237a27.821,27.821,0,0,1,1.129,3.409c.515,2.6.909,5.225,1.31,7.846.078.508.252.633.746.631,4.539-.02,9.077-.011,13.616-.011h.608c.319-2.053.654-4.042.932-6.039a19.116,19.116,0,0,1,1.7-5.8Zm-.862-12.348h-.009c0-1.129.018-2.258-.017-3.385a.85.85,0,0,0-.361-.6q-2.674-1.6-5.385-3.134a.835.835,0,0,0-.7-.007q-2.742,1.539-5.446,3.145a.834.834,0,0,0-.35.6q-.035,3.355.006,6.71a.834.834,0,0,0,.357.594q2.677,1.592,5.392,3.12a.826.826,0,0,0,.687.026q2.741-1.541,5.443-3.153a.913.913,0,0,0,.363-.654C409.97,671.741,409.949,670.652,409.949,669.563Zm-1.2,11.717c-1.619-.7-3.193-1.38-4.776-2.041a.745.745,0,0,0-.5.07c-.82.345-1.64.691-2.441,1.077a.692.692,0,0,0-.343.495,3.385,3.385,0,0,1-.933,2.31.691.691,0,0,0-.147.587,28.466,28.466,0,0,0,1.4,3.132,7.641,7.641,0,0,0,1.522,1.872,1.712,1.712,0,0,0,2.518.015,8.141,8.141,0,0,0,1.478-1.757A19.845,19.845,0,0,0,408.748,681.28Zm7.8-10.307c-1.515,1.141-2.943,2.2-4.349,3.294a1.065,1.065,0,0,0-.313.644c-.139.939-.23,1.884-.354,2.825-.092.7-.207,1.39-.318,2.132,1.006.244,1.951.449,2.881.707a1.01,1.01,0,0,0,1.383-.551,9.074,9.074,0,0,1,.909-1.243,14.8,14.8,0,0,0,2.359-4.82.857.857,0,0,0-.093-.682C417.969,672.484,417.243,671.729,416.544,670.972Zm-25.478-.006c-.66.709-1.335,1.451-2.03,2.174a.766.766,0,0,0-.181.851,16.97,16.97,0,0,0,3.052,5.717c.814,1.045.79,1.055,2.09.758a.932.932,0,0,0,.659-.555,14.015,14.015,0,0,1,1.177-1.52.878.878,0,0,0,.236-.511c-.1-1.062-.241-2.122-.384-3.179a.641.641,0,0,0-.205-.391C394.036,673.205,392.584,672.114,391.065,670.966Zm7.749-13.208c1.667.721,3.238,1.409,4.82,2.07a.81.81,0,0,0,.543-.074c1.093-.459,2.177-.939,3.268-1.4.427-.182.865-.341,1.348-.531-.338-1.06-.641-2.061-.987-3.047a.778.778,0,0,0-.466-.435,15.268,15.268,0,0,0-7.112.005.6.6,0,0,0-.389.29C399.479,655.675,399.149,656.726,398.815,657.759Zm12.424,1.409c.222,1.8.426,3.484.645,5.17a.644.644,0,0,0,.212.395c1.457,1.118,2.924,2.222,4.485,3.4a13.125,13.125,0,0,0,.871-1,.75.75,0,0,0,.112-.6,3.163,3.163,0,0,1,.3-2.9.845.845,0,0,0,.053-.679,14.432,14.432,0,0,0-3-4.322.673.673,0,0,0-.5-.208C413.356,658.651,412.3,658.915,411.239,659.168Zm-20.157,8.955c1.089-.849,2.033-1.71,3.1-2.381a2.82,2.82,0,0,0,1.666-2.815.511.511,0,0,1,.021-.116c.171-1.188.342-2.375.515-3.577-.252-.081-.481-.14-.7-.228a.975.975,0,0,0-1.23.3,2.872,2.872,0,0,1-2.609.825.777.777,0,0,0-.617.233,14.459,14.459,0,0,0-2.384,4.8.794.794,0,0,0,.105.638C389.633,666.587,390.358,667.342,391.082,668.122Zm5.465,33.706v2.032h14.5v-2.032Zm-.011,4.165c-.093,1.851.109,2.063,1.893,2.063q5.528,0,11.056,0a1.581,1.581,0,0,0,.758-.062,1.832,1.832,0,0,0,.774-.778,3.712,3.712,0,0,0,.031-1.22Zm21-25.022a5.292,5.292,0,0,0,2.968-.6,2.117,2.117,0,0,0,.9-1.162,4.6,4.6,0,0,0-.9-3.363Zm-27.416.087-3.071-5.32a20.728,20.728,0,0,0-.841,2.252,1.955,1.955,0,0,0,1.534,2.669A20.658,20.658,0,0,0,390.119,681.058Zm-3.032-17.835c.832-1.4,1.678-2.827,2.521-4.252.191-.323-.1-.887-.457-.827a9.428,9.428,0,0,0-1.942.477,1.724,1.724,0,0,0-1.093,1.86A6.047,6.047,0,0,0,387.087,663.224Zm34-1.035a13.625,13.625,0,0,0,.385-1.512,1.771,1.771,0,0,0-.8-1.907,5.5,5.5,0,0,0-3.228-.649c.69,1.105,1.429,2.135,1.995,3.252C419.786,662.065,420.133,662.469,421.086,662.189ZM401.112,651.93h5.346a5.25,5.25,0,0,0-1.766-1.9,1.68,1.68,0,0,0-1.8,0A5.281,5.281,0,0,0,401.112,651.93Zm13.824,17.611-2.8-2.217v4.425Zm-19.459-2.232-2.8,2.222,2.8,2.221Zm2.421-4.167,3.521-2.034-3.028-1.236Zm11.794,12.785-3.509,2.041,3.037,1.205Zm-.011-12.8-.488-3.231-2.992,1.215Zm-11.761,12.812c.167,1.034-.055,2.138,1.279,2.418.089.019.157.132.247.155a.911.911,0,0,0,.481.055c.475-.171.934-.387,1.466-.615Zm-4.53-18.876a1.042,1.042,0,0,0-2.084-.047,1.042,1.042,0,0,0,2.084.047Zm4.174,24.964a1.042,1.042,0,0,0-.026-2.084,1.042,1.042,0,0,0,.026,2.084Zm22.884-17.693a1.026,1.026,0,0,0-1.018,1.071,1.01,1.01,0,0,0,1.034.991,1.026,1.026,0,0,0,1.027-1.005A1.051,1.051,0,0,0,420.45,664.332Zm-32.179,3.915v2.444l1.242-1.145Zm24.4-11.6-2.279-1.3-.121.1.478,1.728ZM397.4,655.26c-.685.379-1.222.662-1.742.976a.465.465,0,0,0-.2.364c.013.1.179.227.3.27.346.12.7.2,1.093.308Zm21.949,12.994-1.238,1.243,1.238,1.306Z" transform="translate(0 0)" fill="#fff"/>
    <path id="Path_79992" data-name="Path 79992" d="M519.206,796.332a4.16,4.16,0,0,1-.011,8.321,4.205,4.205,0,0,1-4.164-4.176A4.163,4.163,0,0,1,519.206,796.332Z" transform="translate(-115.4 -130.95)" fill="#fff"/>
  </g>
</svg>
