<svg xmlns="http://www.w3.org/2000/svg" width="42.133" height="60.2" viewBox="0 0 42.133 60.2">
  <g id="Group_25956" data-name="Group 25956" transform="translate(-5758.439 -790.47)">
    <g id="Path_80027" data-name="Path 80027" transform="translate(0)" fill="#fff">
      <path d="M 5779.04248046875 850.1699829101562 L 5779.00830078125 850.169677734375 C 5775.69287109375 850.139892578125 5772.73779296875 849.5345458984375 5770.22509765625 848.3704223632812 C 5767.5849609375 847.147216796875 5765.31787109375 845.2562255859375 5763.48779296875 842.7500610351562 C 5760.36328125 838.47314453125 5758.83544921875 833.8297729492188 5758.94580078125 828.948974609375 C 5759.03564453125 824.9999389648438 5760.244140625 821.2498168945312 5762.53662109375 817.8025512695312 C 5765.82470703125 812.8590698242188 5769.29150390625 807.712158203125 5773.1357421875 802.0678100585938 C 5773.3017578125 801.8240356445312 5773.46826171875 801.58056640625 5773.634765625 801.337158203125 C 5775.19580078125 799.0543212890625 5776.810546875 796.6937866210938 5777.921875 794.1143188476562 C 5778.21337890625 793.4380493164062 5778.447265625 792.7435302734375 5778.61865234375 792.2140502929688 C 5778.77392578125 791.7330932617188 5779.0087890625 791.0059204101562 5779.958984375 790.9714965820312 C 5779.9794921875 790.970703125 5780.00048828125 790.9703369140625 5780.0205078125 790.9703369140625 C 5780.9296875 790.9703369140625 5781.20458984375 791.703125 5781.35205078125 792.0967407226562 C 5782.86376953125 796.1298217773438 5784.78662109375 800.0798950195312 5787.23046875 804.1727294921875 C 5789.09375 807.2939453125 5791.33447265625 810.5307006835938 5794.28076171875 814.3590698242188 C 5796.9140625 817.7789916992188 5798.6171875 821.1668090820312 5799.48779296875 824.7159423828125 C 5800.69091796875 829.6224365234375 5800.06201171875 834.4697875976562 5797.5634765625 839.53515625 C 5796.1845703125 842.3306884765625 5794.294921875 844.594970703125 5791.9482421875 846.2651977539062 C 5789.7177734375 847.8524780273438 5787.001953125 848.953125 5783.8759765625 849.53662109375 C 5782.70263671875 849.7555541992188 5781.494140625 849.8898315429688 5780.42822265625 850.00830078125 C 5779.95263671875 850.0610961914062 5779.50341796875 850.1110229492188 5779.076171875 850.1656494140625 L 5779.04248046875 850.1699829101562 Z M 5780.044921875 795.9143676757812 C 5779.9833984375 796.0314331054688 5779.92236328125 796.14794921875 5779.86181640625 796.263427734375 C 5779.390625 797.1614990234375 5778.90380859375 798.0902099609375 5778.33447265625 798.9546508789062 C 5777.28662109375 800.5459594726562 5776.1904296875 802.1405639648438 5775.13037109375 803.6826782226562 C 5774.177734375 805.068115234375 5773.19287109375 806.5006713867188 5772.24853515625 807.923095703125 L 5771.79296875 808.6090698242188 C 5769.1640625 812.5678100585938 5766.4453125 816.6613159179688 5763.87548828125 820.7490234375 C 5762.2880859375 823.2727661132812 5761.5361328125 826.2119750976562 5761.5771484375 829.734619140625 C 5761.61279296875 832.8814697265625 5762.529296875 836.0060424804688 5764.37939453125 839.2871704101562 C 5767.13427734375 844.1742553710938 5771.34716796875 846.9151000976562 5776.900390625 847.4335327148438 C 5777.38427734375 847.4786376953125 5777.888671875 847.5015258789062 5778.39990234375 847.5015258789062 C 5779.84619140625 847.5015258789062 5781.3720703125 847.3310546875 5783.34814453125 846.9486694335938 C 5789.03515625 845.8482055664062 5792.91357421875 843.0221557617188 5795.20654296875 838.30908203125 C 5797.359375 833.8854370117188 5797.9541015625 829.7531127929688 5797.025390625 825.6759643554688 C 5796.2587890625 822.3121337890625 5794.63330078125 819.0646362304688 5792.05517578125 815.7478637695312 C 5787.63232421875 810.0557250976562 5784.21435546875 804.6725463867188 5781.6064453125 799.290771484375 C 5781.1318359375 798.3108520507812 5780.67578125 797.3045043945312 5780.234375 796.331298828125 C 5780.171875 796.1935424804688 5780.1083984375 796.0543212890625 5780.044921875 795.9143676757812 Z" stroke="none"/>
      <path d="M 5779.0126953125 849.669677734375 C 5780.435546875 849.4878540039062 5782.1259765625 849.3544921875 5783.7841796875 849.0451049804688 C 5789.765625 847.9285888671875 5794.3564453125 844.9059448242188 5797.115234375 839.31396484375 C 5799.39892578125 834.6835327148438 5800.2451171875 829.90283203125 5799.001953125 824.8350219726562 C 5798.0751953125 821.0556640625 5796.2392578125 817.7220458984375 5793.884765625 814.6640625 C 5791.35009765625 811.3709716796875 5788.9326171875 807.9990234375 5786.80126953125 804.4290771484375 C 5784.482421875 800.5458374023438 5782.47265625 796.51123046875 5780.8837890625 792.272216796875 C 5780.7275390625 791.855712890625 5780.5625 791.4703369140625 5780.0205078125 791.4703369140625 C 5780.00634765625 791.4703369140625 5779.99169921875 791.4705810546875 5779.97705078125 791.4711303710938 C 5779.37939453125 791.4927978515625 5779.2431640625 791.9067993164062 5779.09423828125 792.367919921875 C 5778.8818359375 793.0245361328125 5778.65380859375 793.6790771484375 5778.380859375 794.3121337890625 C 5777.13330078125 797.2083740234375 5775.3125 799.7591552734375 5773.548828125 802.3492431640625 C 5769.990234375 807.5746459960938 5766.4541015625 812.815673828125 5762.953125 818.0794677734375 C 5760.767578125 821.365478515625 5759.5361328125 824.9946899414062 5759.44580078125 828.9603271484375 C 5759.33203125 833.9755249023438 5760.97265625 838.4595947265625 5763.8916015625 842.4552001953125 C 5767.54443359375 847.4572143554688 5772.6484375 849.612548828125 5779.0126953125 849.669677734375 M 5780.0810546875 794.7891845703125 C 5780.7392578125 796.2208862304688 5781.3720703125 797.659423828125 5782.056640625 799.07275390625 C 5784.89306640625 804.9267578125 5788.46533203125 810.3131103515625 5792.4501953125 815.4410400390625 C 5794.80712890625 818.4736938476562 5796.650390625 821.7801513671875 5797.5126953125 825.5648803710938 C 5798.55078125 830.120849609375 5797.67041015625 834.3888549804688 5795.65625 838.52783203125 C 5793.14990234375 843.6798095703125 5788.9013671875 846.38330078125 5783.443359375 847.4395751953125 C 5781.2705078125 847.8600463867188 5779.07958984375 848.1387329101562 5776.85400390625 847.931396484375 C 5771.080078125 847.392333984375 5766.78955078125 844.58056640625 5763.94384765625 839.53271484375 C 5762.22705078125 836.4876708984375 5761.1171875 833.262451171875 5761.0771484375 829.7404174804688 C 5761.0390625 826.4512939453125 5761.6904296875 823.2838745117188 5763.4521484375 820.48291015625 C 5766.17138671875 816.1575927734375 5769.00537109375 811.9034423828125 5771.83203125 807.646484375 C 5773.830078125 804.6375732421875 5775.93017578125 801.6961059570312 5777.9169921875 798.6796875 C 5778.7265625 797.4500732421875 5779.35791015625 796.1024169921875 5780.0810546875 794.7891845703125 M 5779.07177734375 850.6702270507812 L 5779.00390625 850.6696166992188 C 5775.6171875 850.6392211914062 5772.5927734375 850.018310546875 5770.01513671875 848.8240966796875 C 5767.296875 847.5648193359375 5764.96484375 845.6204223632812 5763.083984375 843.044921875 C 5759.89306640625 838.6773071289062 5758.3330078125 833.9308471679688 5758.4462890625 828.9376220703125 C 5758.5380859375 824.8924560546875 5759.7744140625 821.0529174804688 5762.12060546875 817.5256958007812 C 5765.40966796875 812.5806274414062 5768.87744140625 807.4322509765625 5772.72216796875 801.786376953125 C 5772.888671875 801.5422973632812 5773.05517578125 801.298583984375 5773.2216796875 801.0548706054688 C 5774.84130859375 798.6875610351562 5776.37060546875 796.4514770507812 5777.46240234375 793.91650390625 C 5777.74560546875 793.25927734375 5777.97509765625 792.5792236328125 5778.142578125 792.0601196289062 C 5778.30419921875 791.5601806640625 5778.640625 790.5189208984375 5779.94091796875 790.4718017578125 C 5779.9677734375 790.4708251953125 5779.99462890625 790.4703369140625 5780.0205078125 790.4703369140625 C 5781.2763671875 790.4703369140625 5781.67138671875 791.5244750976562 5781.8203125 791.9213256835938 C 5783.3212890625 795.9259643554688 5785.2314453125 799.849609375 5787.65966796875 803.9163818359375 C 5789.51318359375 807.0203857421875 5791.74267578125 810.24169921875 5794.67724609375 814.0541381835938 C 5797.353515625 817.5302124023438 5799.0859375 820.9788208007812 5799.97314453125 824.5968627929688 C 5800.6044921875 827.17138671875 5800.73876953125 829.7897338867188 5800.37109375 832.3790283203125 C 5800.0283203125 834.7953491210938 5799.23486328125 837.2774658203125 5798.01220703125 839.7562866210938 C 5796.595703125 842.6268920898438 5794.6533203125 844.953857421875 5792.23779296875 846.672607421875 C 5789.94775390625 848.30224609375 5787.16552734375 849.4312133789062 5783.9677734375 850.0281372070312 C 5782.77587890625 850.25048828125 5781.55810546875 850.3858032226562 5780.4833984375 850.5052490234375 C 5780.009765625 850.5578002929688 5779.56298828125 850.6074829101562 5779.1396484375 850.66162109375 L 5779.07177734375 850.6702270507812 Z M 5780.01220703125 797.051513671875 C 5779.62451171875 797.7833862304688 5779.216796875 798.52392578125 5778.75244140625 799.2296142578125 C 5777.701171875 800.8251342773438 5776.603515625 802.4218139648438 5775.54248046875 803.9659423828125 C 5774.5908203125 805.3497314453125 5773.607421875 806.7805786132812 5772.6650390625 808.19970703125 L 5772.20947265625 808.8856811523438 C 5769.58203125 812.8418579101562 5766.865234375 816.9327392578125 5764.298828125 821.01513671875 C 5762.76416015625 823.455078125 5762.03759765625 826.3052978515625 5762.0771484375 829.7288208007812 C 5762.11181640625 832.7894897460938 5763.00732421875 835.8356323242188 5764.81494140625 839.0416259765625 C 5767.5224609375 843.8441162109375 5771.49072265625 846.4263305664062 5776.94677734375 846.9357299804688 C 5777.4150390625 846.9793701171875 5777.904296875 847.0015258789062 5778.39990234375 847.0015258789062 C 5779.81298828125 847.0015258789062 5781.3095703125 846.8338623046875 5783.25341796875 846.457763671875 C 5788.77490234375 845.3892211914062 5792.53759765625 842.6522216796875 5794.7568359375 838.0903930664062 C 5796.85791015625 833.7731323242188 5797.4404296875 829.7487182617188 5796.53759765625 825.7870483398438 C 5795.7880859375 822.4960327148438 5794.1923828125 819.3125 5791.66064453125 816.0546875 C 5787.2158203125 810.3345947265625 5783.77978515625 804.9224243164062 5781.15673828125 799.5087890625 C 5780.7626953125 798.6951293945312 5780.3818359375 797.8654174804688 5780.01220703125 797.051513671875 Z" stroke="none" fill="#fff"/>
    </g>
    <g id="Path_80028" data-name="Path 80028" transform="translate(-45.049 -84.077)" fill="#fff">
      <path d="M 5821.10595703125 924.2564086914062 C 5820.93408203125 924.2564086914062 5820.75439453125 924.2185668945312 5820.5712890625 924.1439208984375 C 5819.5771484375 923.738525390625 5819.740234375 922.8546142578125 5819.82763671875 922.3796997070312 C 5820.1630859375 920.5655517578125 5820.5 918.7518920898438 5820.8369140625 916.9381713867188 C 5821.13427734375 915.3350830078125 5821.43212890625 913.73193359375 5821.72900390625 912.1286010742188 C 5821.732421875 912.11083984375 5821.7353515625 912.0927124023438 5821.73828125 912.0742797851562 L 5815.7158203125 912.0742797851562 C 5815.6357421875 912.0742797851562 5815.55615234375 912.0733642578125 5815.47607421875 912.0724487304688 C 5815.39990234375 912.0715942382812 5815.32421875 912.0707397460938 5815.248046875 912.0707397460938 C 5815.14697265625 912.0707397460938 5815.064453125 912.072265625 5814.98779296875 912.07568359375 C 5814.94189453125 912.0776977539062 5814.896484375 912.078857421875 5814.85205078125 912.078857421875 C 5814.22412109375 912.078857421875 5813.78662109375 911.8226928710938 5813.55126953125 911.3173828125 C 5813.20263671875 910.570068359375 5813.66015625 909.9937133789062 5813.85546875 909.7476196289062 C 5815.8076171875 907.2897338867188 5817.78955078125 904.7886352539062 5819.7060546875 902.3699340820312 L 5821.4140625 900.2145385742188 C 5821.81201171875 899.7128295898438 5822.2099609375 899.2113647460938 5822.60791015625 898.7099609375 C 5823.98974609375 896.9679565429688 5825.4189453125 895.1666259765625 5826.81591796875 893.3886108398438 C 5827.10107421875 893.0254516601562 5827.46826171875 892.654296875 5828.02734375 892.654296875 C 5828.22265625 892.654296875 5828.4267578125 892.7024536132812 5828.6328125 892.7975463867188 C 5829.54150390625 893.2169799804688 5829.3857421875 894.0625 5829.3017578125 894.5167236328125 L 5829.29833984375 894.5357666015625 C 5828.8984375 896.7066650390625 5828.48876953125 898.9131469726562 5828.0927734375 901.0469970703125 C 5827.861328125 902.2938232421875 5827.6298828125 903.5407104492188 5827.39892578125 904.7877197265625 C 5827.3955078125 904.8056030273438 5827.392578125 904.8236083984375 5827.38916015625 904.841796875 L 5827.4580078125 904.841796875 L 5829.1923828125 904.842041015625 L 5830.9267578125 904.84228515625 C 5831.98095703125 904.84228515625 5833.03564453125 904.8418579101562 5834.09033203125 904.8403930664062 L 5834.10107421875 904.8403930664062 C 5834.46630859375 904.8403930664062 5835.14599609375 904.8403930664062 5835.51513671875 905.5563354492188 C 5835.91357421875 906.3294677734375 5835.45166015625 906.9122314453125 5835.2294921875 907.1923217773438 C 5831.45751953125 911.9502563476562 5827.4716796875 916.982666015625 5822.30615234375 923.509521484375 C 5822.07080078125 923.806884765625 5821.71533203125 924.2564086914062 5821.10595703125 924.2564086914062 Z M 5820.0791015625 909.4581298828125 C 5821.0234375 909.4581298828125 5821.955078125 909.458251953125 5822.88623046875 909.4588623046875 C 5823.41064453125 909.459228515625 5823.9931640625 909.5146484375 5824.33251953125 909.9229736328125 C 5824.669921875 910.3287963867188 5824.61865234375 910.904052734375 5824.5244140625 911.4132690429688 C 5824.1572265625 913.390869140625 5823.78857421875 915.402587890625 5823.43212890625 917.3480834960938 C 5823.3935546875 917.5602416992188 5823.3544921875 917.7722778320312 5823.31591796875 917.984375 L 5829.654296875 910.0247192382812 L 5831.6689453125 907.494384765625 C 5831.537109375 907.4943237304688 5831.40478515625 907.4943237304688 5831.2724609375 907.4943237304688 C 5830.8466796875 907.4943237304688 5830.4208984375 907.4945678710938 5829.9951171875 907.4948120117188 C 5829.5693359375 907.4950561523438 5829.1435546875 907.4953002929688 5828.7177734375 907.4953002929688 C 5827.9892578125 907.4953002929688 5827.02685546875 907.4946899414062 5826.04345703125 907.4899291992188 C 5825.494140625 907.4872436523438 5825.08642578125 907.3306884765625 5824.83203125 907.024658203125 C 5824.5712890625 906.7110595703125 5824.494140625 906.2849731445312 5824.595703125 905.7220458984375 C 5824.72607421875 905.0032348632812 5824.85400390625 904.2841186523438 5824.9814453125 903.5651245117188 L 5825.0517578125 903.1716918945312 L 5825.40283203125 901.2059936523438 L 5825.8173828125 898.8829956054688 L 5822.8525390625 902.6221923828125 C 5821.05810546875 904.8857421875 5819.2548828125 907.159912109375 5817.43212890625 909.4583129882812 L 5818.28857421875 909.458251953125 L 5820.0791015625 909.4581298828125 Z" stroke="none"/>
      <path d="M 5821.10595703125 923.7564086914062 C 5821.45654296875 923.7564086914062 5821.68310546875 923.4909057617188 5821.9140625 923.19921875 C 5826.22021484375 917.7584228515625 5830.52734375 912.31884765625 5834.837890625 906.8817138671875 C 5835.1025390625 906.5478515625 5835.298828125 906.2278442382812 5835.07080078125 905.785400390625 C 5834.8564453125 905.3693237304688 5834.49560546875 905.3403930664062 5834.10107421875 905.3403930664062 C 5834.09765625 905.3403930664062 5834.09423828125 905.3403930664062 5834.0908203125 905.3403930664062 C 5831.88037109375 905.3435668945312 5829.6689453125 905.3418579101562 5827.4580078125 905.341796875 C 5827.25390625 905.341796875 5827.0498046875 905.341796875 5826.818359375 905.341796875 C 5826.8544921875 905.07568359375 5826.8720703125 904.884521484375 5826.9072265625 904.6966552734375 C 5827.5400390625 901.2793579101562 5828.1767578125 897.8629760742188 5828.806640625 894.4451904296875 C 5828.890625 893.9890747070312 5828.9873046875 893.5118408203125 5828.423828125 893.251708984375 C 5827.865234375 892.994873046875 5827.53564453125 893.28125 5827.208984375 893.697509765625 C 5825.416015625 895.9796752929688 5823.609375 898.25048828125 5821.80615234375 900.5250854492188 C 5819.287109375 903.703369140625 5816.76953125 906.882568359375 5814.2470703125 910.0584716796875 C 5813.99560546875 910.3753051757812 5813.8095703125 910.6880493164062 5814.0048828125 911.1065673828125 C 5814.1826171875 911.489013671875 5814.49169921875 911.578857421875 5814.85205078125 911.578857421875 C 5814.88916015625 911.578857421875 5814.92724609375 911.577880859375 5814.9658203125 911.576171875 C 5815.2158203125 911.5650634765625 5815.4658203125 911.5742797851562 5815.7158203125 911.5742797851562 C 5817.8857421875 911.5742797851562 5820.05517578125 911.5742797851562 5822.2978515625 911.5742797851562 C 5822.2666015625 911.841796875 5822.2548828125 912.032958984375 5822.220703125 912.2196655273438 C 5821.587890625 915.6369018554688 5820.95166015625 919.0532836914062 5820.3193359375 922.4703979492188 C 5820.22998046875 922.9548950195312 5820.1494140625 923.4319458007812 5820.76025390625 923.6809692382812 C 5820.888671875 923.7332763671875 5821.00244140625 923.7564086914062 5821.10595703125 923.7564086914062 M 5820.0791015625 909.9581298828125 C 5818.88134765625 909.9581298828125 5817.66259765625 909.9583740234375 5816.3974609375 909.9583740234375 C 5819.82421875 905.63720703125 5823.177734375 901.4073486328125 5826.53173828125 897.1776123046875 L 5826.6220703125 897.222412109375 C 5826.2626953125 899.2347412109375 5825.9033203125 901.2470092773438 5825.5439453125 903.25927734375 C 5825.392578125 904.1098022460938 5825.24169921875 904.960693359375 5825.087890625 905.8109130859375 C 5824.9443359375 906.6055297851562 5825.23779296875 906.9859619140625 5826.0458984375 906.9899291992188 C 5827.78857421875 906.9983520507812 5829.53076171875 906.9943237304688 5831.2724609375 906.9943237304688 C 5831.52978515625 906.9943237304688 5831.787109375 906.994384765625 5832.0439453125 906.99462890625 C 5832.21240234375 906.9948120117188 5832.3818359375 907.0090942382812 5832.68359375 907.0231323242188 C 5829.2802734375 911.296875 5825.9404296875 915.4907836914062 5822.60107421875 919.6844482421875 L 5822.5029296875 919.64501953125 C 5823.01220703125 916.8706665039062 5823.517578125 914.095458984375 5824.03271484375 911.3221435546875 C 5824.22998046875 910.2579345703125 5823.98974609375 909.9595947265625 5822.8857421875 909.9588623046875 C 5821.95458984375 909.958251953125 5821.0234375 909.9581298828125 5820.0791015625 909.9581298828125 M 5821.10595703125 924.7564086914062 C 5820.869140625 924.7564086914062 5820.62548828125 924.7060546875 5820.38232421875 924.6068725585938 C 5819.8037109375 924.370849609375 5819.4189453125 923.9325561523438 5819.29931640625 923.372802734375 C 5819.2119140625 922.962646484375 5819.28369140625 922.5733032226562 5819.3359375 922.2890014648438 C 5819.671875 920.4744873046875 5820.00830078125 918.6607055664062 5820.34521484375 916.846923828125 C 5820.60986328125 915.4227294921875 5820.8740234375 913.9985961914062 5821.13818359375 912.5742797851562 L 5815.7158203125 912.5742797851562 C 5815.56005859375 912.5743408203125 5815.404296875 912.57080078125 5815.248046875 912.5707397460938 C 5815.15478515625 912.5707397460938 5815.0791015625 912.5721435546875 5815.009765625 912.5751953125 C 5814.95556640625 912.57763671875 5814.90234375 912.578857421875 5814.85205078125 912.578857421875 C 5813.80615234375 912.578857421875 5813.32080078125 912.0075073242188 5813.09814453125 911.5281982421875 C 5812.619140625 910.5013427734375 5813.2548828125 909.7001342773438 5813.4638671875 909.4368286132812 C 5815.416015625 906.9789428710938 5817.39794921875 904.47802734375 5819.314453125 902.0594482421875 L 5821.0224609375 899.9039306640625 C 5821.42041015625 899.4021606445312 5821.818359375 898.9006958007812 5822.2158203125 898.399169921875 C 5823.59765625 896.6576538085938 5825.0263671875 894.8567504882812 5826.4228515625 893.0797119140625 C 5826.64013671875 892.802734375 5827.14990234375 892.154296875 5828.02734375 892.154296875 C 5828.29541015625 892.154296875 5828.56982421875 892.2178955078125 5828.84228515625 892.3433837890625 C 5829.38525390625 892.5941772460938 5829.7392578125 893.0354614257812 5829.84033203125 893.58642578125 C 5829.91064453125 893.9722290039062 5829.845703125 894.3244018554688 5829.79345703125 894.607421875 L 5829.7900390625 894.6262817382812 C 5829.39013671875 896.797607421875 5828.98046875 899.0042724609375 5828.58447265625 901.1382446289062 C 5828.38623046875 902.2061157226562 5828.18798828125 903.27392578125 5827.98974609375 904.3418579101562 L 5830.9267578125 904.34228515625 C 5831.98095703125 904.34228515625 5833.03515625 904.3418579101562 5834.08935546875 904.3403930664062 L 5834.09619140625 905.3403930664062 L 5834.0947265625 904.3403930664062 L 5834.10107421875 904.3403930664062 C 5834.47021484375 904.3403930664062 5835.451171875 904.3403930664062 5835.95947265625 905.3272705078125 C 5836.505859375 906.38720703125 5835.86328125 907.19775390625 5835.62158203125 907.5029296875 C 5831.849609375 912.2607421875 5827.86376953125 917.2930908203125 5822.6982421875 923.81982421875 C 5822.439453125 924.1470336914062 5821.95703125 924.7564086914062 5821.10595703125 924.7564086914062 Z M 5820.0791015625 908.9581298828125 C 5821.0234375 908.9581298828125 5821.955078125 908.958251953125 5822.88623046875 908.9588623046875 C 5823.52685546875 908.9592895507812 5824.24560546875 909.0361938476562 5824.716796875 909.6033935546875 C 5825.1865234375 910.1680297851562 5825.13134765625 910.8812255859375 5825.01611328125 911.50439453125 C 5824.7314453125 913.0355224609375 5824.4462890625 914.5872802734375 5824.1669921875 916.1129150390625 L 5830.6318359375 907.9944458007812 C 5829.99267578125 907.9947509765625 5829.35546875 907.9953002929688 5828.7177734375 907.9953002929688 C 5827.98779296875 907.9953002929688 5827.0234375 907.9946899414062 5826.041015625 907.9899291992188 C 5825.3369140625 907.9864501953125 5824.80078125 907.7692260742188 5824.44775390625 907.3442993164062 C 5824.091796875 906.9161987304688 5823.97607421875 906.3404541015625 5824.10400390625 905.6331176757812 C 5824.23388671875 904.9147338867188 5824.36181640625 904.196044921875 5824.4892578125 903.4776000976562 L 5824.9765625 900.7484741210938 L 5823.24462890625 902.932861328125 C 5821.6611328125 904.929931640625 5820.07080078125 906.935302734375 5818.466796875 908.9581909179688 L 5820.0791015625 908.9581298828125 Z" stroke="none" fill="#fff"/>
    </g>
    <g id="Path_80029" data-name="Path 80029" transform="translate(-23.931 -178.708)" fill="#fff">
      <path d="M 5794.30029296875 1021.061279296875 C 5793.8466796875 1021.061340332031 5793.37060546875 1020.8017578125 5792.84423828125 1020.267761230469 C 5790.0380859375 1017.423278808594 5788.4541015625 1014.336669921875 5788.00244140625 1010.831848144531 C 5787.970703125 1010.588928222656 5787.95068359375 1010.345336914062 5787.93310546875 1010.118347167969 C 5787.927734375 1010.045776367188 5787.92333984375 1009.973510742188 5787.91943359375 1009.901916503906 L 5787.88720703125 1009.902770996094 L 5787.88720703125 1009.3896484375 C 5787.88720703125 1009.302124023438 5787.88623046875 1009.214538574219 5787.88525390625 1009.126953125 C 5787.8828125 1008.92431640625 5787.8798828125 1008.714782714844 5787.89013671875 1008.501892089844 C 5787.9287109375 1007.653076171875 5788.4384765625 1007.103881835938 5789.189453125 1007.103881835938 L 5789.2001953125 1007.103881835938 C 5789.98779296875 1007.109313964844 5790.45751953125 1007.648864746094 5790.4560546875 1008.547180175781 C 5790.45068359375 1010.681823730469 5790.9013671875 1012.663696289062 5791.79541015625 1014.438293457031 C 5792.51220703125 1015.861450195312 5793.4755859375 1017.159301757812 5794.7412109375 1018.406005859375 C 5795.1552734375 1018.814086914062 5795.3916015625 1019.165222167969 5795.4853515625 1019.511047363281 C 5795.60107421875 1019.936767578125 5795.49267578125 1020.337524414062 5795.1728515625 1020.670166015625 C 5794.92626953125 1020.926086425781 5794.62451171875 1021.061279296875 5794.30029296875 1021.061279296875 Z" stroke="none"/>
      <path d="M 5789.189453125 1007.603881835938 C 5788.70849609375 1007.603881835938 5788.41650390625 1007.933044433594 5788.3896484375 1008.525634765625 C 5788.3759765625 1008.81298828125 5788.38720703125 1009.1015625 5788.38720703125 1009.3896484375 L 5788.396484375 1009.389404296875 C 5788.4072265625 1009.619750976562 5788.4150390625 1009.850219726562 5788.431640625 1010.080200195312 C 5788.44921875 1010.309814453125 5788.46875 1010.539672851562 5788.49853515625 1010.767944335938 C 5788.96435546875 1014.383422851562 5790.6767578125 1017.35888671875 5793.2001953125 1019.916748046875 C 5793.884765625 1020.610412597656 5794.40966796875 1020.741516113281 5794.8125 1020.323486328125 C 5795.203125 1019.91748046875 5795.0703125 1019.4326171875 5794.39013671875 1018.76220703125 C 5793.16357421875 1017.5537109375 5792.125 1016.204467773438 5791.3486328125 1014.663208007812 C 5790.3798828125 1012.740112304688 5789.95068359375 1010.693359375 5789.9560546875 1008.54638671875 C 5789.95703125 1007.920532226562 5789.69140625 1007.607299804688 5789.19677734375 1007.603881835938 C 5789.1943359375 1007.603881835938 5789.19189453125 1007.603881835938 5789.189453125 1007.603881835938 M 5789.189453125 1006.603881835938 L 5789.20458984375 1006.603942871094 C 5790.013671875 1006.609497070312 5790.95849609375 1007.122009277344 5790.9560546875 1008.547973632812 C 5790.95068359375 1010.632751464844 5791.37158203125 1012.485595703125 5792.24169921875 1014.213317871094 C 5792.93359375 1015.587036132812 5793.8662109375 1016.841979980469 5795.091796875 1018.049865722656 C 5795.57177734375 1018.522705078125 5795.85009765625 1018.945373535156 5795.9677734375 1019.380126953125 C 5796.1298828125 1019.97607421875 5795.97509765625 1020.557312011719 5795.533203125 1021.016784667969 C 5795.18994140625 1021.373107910156 5794.763671875 1021.561279296875 5794.30029296875 1021.561279296875 C 5793.7060546875 1021.561279296875 5793.11328125 1021.252990722656 5792.48828125 1020.618835449219 C 5789.60205078125 1017.693664550781 5787.97265625 1014.513122558594 5787.5068359375 1010.895751953125 C 5787.4853515625 1010.73291015625 5787.46923828125 1010.571044921875 5787.45556640625 1010.414123535156 L 5787.38720703125 1010.415893554688 L 5787.38720703125 1009.3896484375 C 5787.38720703125 1009.304138183594 5787.38623046875 1009.218566894531 5787.38525390625 1009.132995605469 C 5787.3828125 1008.923034667969 5787.3798828125 1008.705932617188 5787.390625 1008.478088378906 C 5787.44140625 1007.358154296875 5788.1640625 1006.603942871094 5789.189453125 1006.603881835938 Z" stroke="none" fill="#fff"/>
    </g>
  </g>
</svg>
