<svg xmlns="http://www.w3.org/2000/svg" width="54.613" height="62.5" viewBox="0 0 54.613 62.5">
  <g id="Group_25949" data-name="Group 25949" transform="translate(-3576.994 -693.12)">
    <path id="Path_80014" data-name="Path 80014" d="M3626.765,710.908V714.1c.729,0,1.446,0,2.163,0a1.232,1.232,0,0,1,1.372.97c.625,1.828-.17,5.039-2.651,6.051a1.048,1.048,0,0,0-.657.668,3.122,3.122,0,0,1-2.143,2.023c-.692.2-.906.56-.765,1.191a1.308,1.308,0,0,0,1.365,1.132,1.936,1.936,0,0,0,1.51-1.185.83.83,0,0,1,1.364-.349.8.8,0,0,1,.224.958,3.572,3.572,0,0,1-3.77,2.267,3.224,3.224,0,0,1-2.445-2.969,2.551,2.551,0,0,1,1.914-2.672,7.243,7.243,0,0,0,1.028-.551l-.056-.15a2,2,0,0,0-.3-.111c-3.114-.628-4.068-4.2-3.478-6.139a1.322,1.322,0,0,1,1.538-1.129h2.028v-3.146h-25.175v3.379h10.079c.974,0,1.224.247,1.224,1.216q0,12.111,0,24.221v.629H3599.8v.727q0,6.586,0,13.171c0,1.087-.231,1.32-1.3,1.321h-5.86c-1.023,0-1.268-.25-1.268-1.3V710.941h-7.781c-.012.195-.032.372-.033.55,0,.967.006,1.935,0,2.9-.007.627-.3.948-.911.953q-2.372.02-4.744,0a.832.832,0,0,1-.9-.862c-.013-.129-.007-.26-.007-.39q0-5.665,0-11.329c0-1.056.229-1.287,1.268-1.287,1.414,0,2.828,0,4.242,0,.756,0,1.046.291,1.051,1.041.006.873,0,1.746,0,2.7a3.082,3.082,0,0,0,.337-.245q5.222-5.2,10.434-10.4a1.869,1.869,0,0,0,.388-.711c.147-.428.377-.734.86-.737a.8.8,0,0,1,.856.721,1.052,1.052,0,0,0,.764.838q12.557,5.493,25.108,11a3.2,3.2,0,0,0,1.177.241c1.246.03,2.493-.014,3.738.029a1.557,1.557,0,0,1,.929.378c1.038.959,2.031,1.967,3.046,2.952a.943.943,0,0,1,.345,1.089.924.924,0,0,1-1,.544C3629.3,710.905,3628.055,710.908,3626.765,710.908Zm-26.925,5.2v22.523h2.058v-9.284h7.5V716.1Zm18.445-10.175.025-.12-21.131-9.271c.062.267.1.443.144.616.729,2.746,1.469,5.49,2.178,8.241a.6.6,0,0,0,.71.545c5.041-.017,10.083-.011,15.124-.011Zm-32.727,0c1.879,0,3.757.008,5.634-.016a.6.6,0,0,0,.417-.367c.3-1.014.564-2.04.836-3.063.417-1.572.83-3.145,1.271-4.819Z" transform="translate(0)" fill="#fff"/>
  </g>
</svg>
