<svg xmlns="http://www.w3.org/2000/svg" width="62.833" height="62.851" viewBox="0 0 62.833 62.851">
  <g id="Group_10667" data-name="Group 10667" transform="translate(41.519 -61.926)">
    <path id="Path_65211" data-name="Path 65211" d="M-41.519,124.031v-.614a1.445,1.445,0,0,1,1.478-.75c1.041.037,2.085.01,3.127.01h1.668V121.8q0-29.127-.008-58.254a1.644,1.644,0,0,1,.73-1.622H-5.557a1.586,1.586,0,0,1,.711,1.511c-.012,4.152-.006,8.3-.008,12.456,0,.215-.021.429-.035.693h-.738c-2.025,0-4.05-.008-6.074.006a5.424,5.424,0,0,0-1.335.139,3.155,3.155,0,0,0-2.306,3.352q-.009,5.89,0,11.781,0,9.173.006,18.346c0,.228.016.555.157.667.6.471,1.244.879,1.932,1.35v-.838q0-15.524,0-31.048c0-1.385.267-1.653,1.649-1.654q10.922,0,21.844,0a5.106,5.106,0,0,1,.794.046.933.933,0,0,1,.824.861,5.132,5.132,0,0,1,.023.735q0,17-.009,33.993a1,1,0,0,0,.558,1.011,6.923,6.923,0,0,1,3.457,4.756,21.533,21.533,0,0,1,.224,2.586h.646c1.166,0,2.332-.014,3.5.011a1.041,1.041,0,0,1,1.055,1.052,1.069,1.069,0,0,1-1.033,1.02c-.142.014-.286.007-.429.007q-29.943,0-59.886.01A1.508,1.508,0,0,1-41.519,124.031Zm11.689-1.395H-7.644a6.458,6.458,0,0,1-.153-3.6A7.013,7.013,0,0,1-6,115.972a3.741,3.741,0,0,0-3.184-.44,5.1,5.1,0,0,0-2.267,1.6,1.027,1.027,0,0,1-1.84-.443c-.084-.273-.145-.553-.224-.828a5.312,5.312,0,0,0-4.446-3.618,5.2,5.2,0,0,0-5.722,4.809c-.152,1.2-.316,1.358-1.526,1.466A5.142,5.142,0,0,0-29.83,122.636Zm43.636.04a4.968,4.968,0,0,0-1.607-4.952,5.175,5.175,0,0,0-7.936,1.264c-.276.431-.562.811-1.14.788s-.787-.471-1.065-.888a7.173,7.173,0,0,0-1.292-1.6,4.053,4.053,0,0,0-5.1.053,4.116,4.116,0,0,0-1.261,4.748.836.836,0,0,0,.9.6c5.969-.022,11.938-.014,17.907-.014ZM6.682,91.23c-.022-.4-.016-.807-.076-1.209a.943.943,0,0,0-.974-.843.933.933,0,0,0-1.012.863,18.953,18.953,0,0,0,0,2.444.918.918,0,0,0,.968.847.98.98,0,0,0,1.018-.867C6.668,92.063,6.66,91.651,6.682,91.23Zm0,6.327c-.023-.409-.018-.841-.077-1.263a.925.925,0,0,0-.982-.831.888.888,0,0,0-.992.81,18.337,18.337,0,0,0,0,2.5.9.9,0,0,0,.975.83.957.957,0,0,0,1.011-.869C6.669,98.356,6.661,97.965,6.682,97.557Zm0,6.274c-.019-.41-.017-.8-.06-1.184a.969.969,0,0,0-.989-.9.943.943,0,0,0-1.011.865,18.852,18.852,0,0,0,0,2.443.892.892,0,0,0,.969.833.945.945,0,0,0,1.018-.856C6.669,104.628,6.66,104.216,6.68,103.831Zm0-18.842H6.631a10.346,10.346,0,0,0-.008-1.162A.955.955,0,0,0,5.6,82.9a.913.913,0,0,0-.988.887,19.244,19.244,0,0,0,.006,2.384.951.951,0,0,0,1.005.876.973.973,0,0,0,1-.9C6.662,85.765,6.661,85.376,6.68,84.989Zm0,25.138a12.465,12.465,0,0,0-.084-1.279.912.912,0,0,0-.995-.806.88.88,0,0,0-.978.817,17.907,17.907,0,0,0,0,2.5.88.88,0,0,0,.988.807.918.918,0,0,0,.986-.819C6.666,110.948,6.66,110.537,6.684,110.126Zm-35.67-16.768h-.005A10.5,10.5,0,0,0-29,92.135a.925.925,0,0,0-.956-.86.877.877,0,0,0-1.012.78,16.734,16.734,0,0,0-.006,2.559.9.9,0,0,0,.995.808.969.969,0,0,0,.986-.9A11.189,11.189,0,0,0-28.986,93.359ZM.344,91.309c0-.408.031-.82-.008-1.225a.95.95,0,0,0-.921-.9.917.917,0,0,0-1.06.8,16.085,16.085,0,0,0,0,2.559.9.9,0,0,0,1.007.794.982.982,0,0,0,.975-.919C.373,92.047.345,91.677.344,91.309Zm-16.738,8.347h.016c0-.348,0-.7,0-1.043a.885.885,0,0,0-.03-.181,1.066,1.066,0,0,0-1.085-.887,1.019,1.019,0,0,0-.958,1.016c-.028.694-.028,1.391,0,2.085a1,1,0,0,0,.971,1.055,1,1,0,0,0,1.083-.943A8.574,8.574,0,0,0-16.394,99.656Zm10.47-8.388c0-.368.022-.737,0-1.1a1.02,1.02,0,0,0-.98-.99.986.986,0,0,0-1.06.9A17.019,17.019,0,0,0-7.976,92.4a1.017,1.017,0,0,0,1.034.938A1.046,1.046,0,0,0-5.927,92.31C-5.9,91.965-5.923,91.616-5.924,91.269ZM-16.355,87.1h-.052a8.687,8.687,0,0,0-.011-1.222.978.978,0,0,0-1.063-.889.977.977,0,0,0-.97.989c-.031.714-.029,1.431,0,2.146a1.019,1.019,0,0,0,.953,1.021,1.032,1.032,0,0,0,1.08-.883A9.952,9.952,0,0,0-16.355,87.1Zm-2.1-18.946h0c0,.388-.025.779.006,1.165a.946.946,0,0,0,.938.951.887.887,0,0,0,1.06-.793,15.061,15.061,0,0,0,.014-2.5.974.974,0,0,0-1.032-.856,1.03,1.03,0,0,0-.982.992C-18.478,67.461-18.457,67.81-18.457,68.158ZM-5.929,85c0-.388.027-.779-.007-1.164A.979.979,0,0,0-6.9,82.9a.911.911,0,0,0-1.048.819,14.894,14.894,0,0,0,0,2.5.951.951,0,0,0,1.053.823,1,1,0,0,0,.959-.949C-5.9,85.734-5.928,85.363-5.929,85Zm.007,18.842h0c0-.368.021-.737-.005-1.1a1.03,1.03,0,0,0-.979-.995,1,1,0,0,0-1.059.9,16.521,16.521,0,0,0-.008,2.324.98.98,0,0,0,1.094.92,1,1,0,0,0,.956-1.006C-5.9,104.534-5.922,104.185-5.922,103.838ZM-24.775,93.347c.019.408.009.819.065,1.222a.927.927,0,0,0,.966.85.88.88,0,0,0,1-.79,16.809,16.809,0,0,0,0-2.561.88.88,0,0,0-1-.792.927.927,0,0,0-.967.848C-24.766,92.526-24.756,92.937-24.775,93.347Zm6.327-.009h0c0,.388-.029.779.007,1.164a.947.947,0,0,0,.914.913.865.865,0,0,0,1.052-.721,14.5,14.5,0,0,0,.006-2.677.868.868,0,0,0-1.04-.74.943.943,0,0,0-.929.9A11.3,11.3,0,0,0-18.448,93.338Zm12.525,4.213h0c0-.368.022-.737,0-1.1a1.043,1.043,0,0,0-.982-1,1.01,1.01,0,0,0-1.058.908,16.673,16.673,0,0,0-.006,2.325.99.99,0,0,0,1.1.924,1.021,1.021,0,0,0,.953-1.015C-5.9,98.247-5.923,97.9-5.923,97.551Zm-6.258-29.393h0c0,.368-.02.737,0,1.1a1.021,1.021,0,0,0,1.012,1.022,1,1,0,0,0,1.05-.98,21.042,21.042,0,0,0,0-2.206,1.035,1.035,0,0,0-1.006-.977,1.057,1.057,0,0,0-1.051,1C-12.2,67.461-12.181,67.811-12.181,68.158ZM.341,97.56H.347c0-.388.027-.778-.007-1.164a.977.977,0,0,0-.958-.938c-.52,0-.979.237-1.021.775a15.668,15.668,0,0,0,0,2.618.869.869,0,0,0,1.03.752.929.929,0,0,0,.938-.88A10.546,10.546,0,0,0,.341,97.56Zm0,12.6H.351c0-.388.024-.778-.006-1.163a.938.938,0,0,0-.932-.951.88.88,0,0,0-1.059.786,15.108,15.108,0,0,0,0,2.557.9.9,0,0,0,1.067.778.942.942,0,0,0,.915-.9C.374,110.9.345,110.527.345,110.16ZM-28.99,80.823h0c0-.408.033-.819-.008-1.223a.926.926,0,0,0-.931-.883.9.9,0,0,0-1.05.8,16.162,16.162,0,0,0,.008,2.558.874.874,0,0,0,1.016.77A.922.922,0,0,0-29,81.984,10.561,10.561,0,0,0-28.99,80.823Zm10.542-.052h0c0,.388-.029.779.007,1.163a.935.935,0,0,0,.916.9c.527.05,1-.186,1.051-.714a14.68,14.68,0,0,0,.005-2.675c-.047-.526-.5-.77-1.04-.731a.928.928,0,0,0-.929.888A10.7,10.7,0,0,0-18.448,80.77ZM.348,85H.341a11.2,11.2,0,0,0-.009-1.224.921.921,0,0,0-.94-.874.867.867,0,0,0-1.027.752,15.755,15.755,0,0,0,0,2.618.873.873,0,0,0,1.023.765.951.951,0,0,0,.958-.935C.371,85.74.348,85.371.348,85Zm-25.124,2.046h.046c0,.388-.025.778.006,1.163a.975.975,0,0,0,.967.931.946.946,0,0,0,1.028-.847,17.389,17.389,0,0,0-.008-2.5.877.877,0,0,0-.994-.8.917.917,0,0,0-.977.831C-24.768,86.229-24.756,86.642-24.776,87.049Zm-4.211,12.659h0c0-.408.025-.819-.006-1.225a.974.974,0,0,0-.965-.933.939.939,0,0,0-1.03.843,16.254,16.254,0,0,0,.008,2.5.907.907,0,0,0,1.051.8.935.935,0,0,0,.93-.888A10.439,10.439,0,0,0-28.986,99.708Zm6.351-.069c-.026-.428-.019-.84-.085-1.241a.985.985,0,0,0-1.035-.848.934.934,0,0,0-.953.869,20.1,20.1,0,0,0,.007,2.446.885.885,0,0,0,.97.832.912.912,0,0,0,1-.8A12.076,12.076,0,0,0-22.636,99.639Zm-6.349-31.425h.021c0-.327,0-.654,0-.981a1.286,1.286,0,0,0-.019-.183,1,1,0,0,0-.981-.919c-.517.012-.966.253-1.007.8a16.977,16.977,0,0,0,0,2.56.883.883,0,0,0,1,.794.952.952,0,0,0,.98-.9A11.5,11.5,0,0,0-28.984,68.213Zm4.258-.011h0c0,.388-.03.778.007,1.162a.941.941,0,0,0,.97.914.916.916,0,0,0,1.023-.842,17.136,17.136,0,0,0,0-2.441.976.976,0,0,0-1.013-.873,1,1,0,0,0-.981.918A10.928,10.928,0,0,0-24.726,68.2Zm6.268,37.684c0,.368-.02.737,0,1.1a.957.957,0,0,0,.906.982.913.913,0,0,0,1.1-.81,14.65,14.65,0,0,0,0-2.5.91.91,0,0,0-1.048-.817.993.993,0,0,0-.962,1C-18.478,105.19-18.459,105.539-18.458,105.886Zm12.534,4.261h0c0-.388.026-.778-.006-1.164a.978.978,0,0,0-.951-.942.905.905,0,0,0-1.057.8,14.1,14.1,0,0,0-.007,2.5.917.917,0,0,0,1.042.828.994.994,0,0,0,.978-.985C-5.9,110.843-5.924,110.494-5.924,110.147ZM-28.976,74.491c0-.367.025-.737-.006-1.1a.981.981,0,0,0-.989-.967.918.918,0,0,0-1.018.855,17.4,17.4,0,0,0,0,2.439.9.9,0,0,0,1.021.842.967.967,0,0,0,.985-.966C-28.95,75.228-28.975,74.858-28.976,74.491Zm10.526,0a11.594,11.594,0,0,0,.008,1.163.93.93,0,0,0,.916.9c.535.047,1-.19,1.05-.715a14.761,14.761,0,0,0,0-2.675.864.864,0,0,0-1.041-.73.933.933,0,0,0-.928.892C-18.479,73.708-18.448,74.1-18.45,74.487ZM-28.984,112.2c0-.388.029-.778-.007-1.162a.929.929,0,0,0-.915-.9.9.9,0,0,0-1.065.779,16.578,16.578,0,0,0,0,2.558c.04.541.481.785,1,.795a.965.965,0,0,0,.979-.908C-28.954,112.98-28.984,112.59-28.984,112.2Zm0-25.154h0a11.5,11.5,0,0,0-.008-1.163A.934.934,0,0,0-29.923,85a.907.907,0,0,0-1.052.8,16.273,16.273,0,0,0-.008,2.5.94.94,0,0,0,1.029.845.975.975,0,0,0,.966-.932C-28.957,87.826-28.982,87.436-28.982,87.048Zm0,18.923c0-.408.031-.819-.008-1.223a.964.964,0,0,0-.981-.905c-.522.011-.961.256-1,.8a16.636,16.636,0,0,0,0,2.558.9.9,0,0,0,1.067.776.931.931,0,0,0,.913-.9C-28.955,106.708-28.983,106.338-28.985,105.971Zm4.21-.061c.019.407.008.819.063,1.221a.916.916,0,0,0,.962.845.872.872,0,0,0,1.008-.778,16.911,16.911,0,0,0,0-2.559.879.879,0,0,0-1-.792.921.921,0,0,0-.971.84C-24.765,105.09-24.756,105.5-24.774,105.91Zm0-25.133c.019.407.011.818.064,1.221a.922.922,0,0,0,.964.847.878.878,0,0,0,1.007-.784,16.911,16.911,0,0,0,0-2.559.873.873,0,0,0-1-.786.915.915,0,0,0-.969.838C-24.767,79.957-24.756,80.368-24.775,80.777Zm.051-6.3h0a11.162,11.162,0,0,0,.009,1.222.922.922,0,0,0,.948.863.914.914,0,0,0,1.033-.825,17.637,17.637,0,0,0,0-2.5c-.039-.545-.471-.791-.991-.812a.958.958,0,0,0-.991.891A10.513,10.513,0,0,0-24.724,74.473ZM.342,103.841h0c0-.388.027-.778-.006-1.163a.978.978,0,0,0-.961-.932c-.52,0-.977.235-1.019.774a15.719,15.719,0,0,0,.006,2.616.865.865,0,0,0,1.031.745A.922.922,0,0,0,.334,105,10.462,10.462,0,0,0,.342,103.841Zm-31.317,15.582c.541-.462,1.209-1.022,1.86-1.6a.568.568,0,0,0,.142-.374,1.007,1.007,0,0,0-.865-1.027.917.917,0,0,0-1.116.714C-31.031,117.976-30.975,118.827-30.975,119.423Zm6.247-6.21c.594-.52,1.241-1.071,1.865-1.647a.665.665,0,0,0,.169-.474.993.993,0,0,0-1-.96.952.952,0,0,0-1.026.916C-24.763,111.818-24.729,112.592-24.729,113.213Z" transform="translate(0 0)" fill="#006ce5"/>
  </g>
</svg>
