<svg xmlns="http://www.w3.org/2000/svg" width="37.709" height="37.429" viewBox="0 0 37.709 37.429">
  <g id="Group_26587" data-name="Group 26587" transform="translate(0 -0.178)">
    <path id="Path_81756" data-name="Path 81756" d="M20.473,2.836,3.205.213A2.785,2.785,0,0,0,.974.825,2.81,2.81,0,0,0,0,2.931V36.036a1.576,1.576,0,0,0,1.571,1.571H6.678V29.359a2.743,2.743,0,0,1,2.75-2.75h3.928a2.743,2.743,0,0,1,2.75,2.75v8.249h6.678V5.555a2.751,2.751,0,0,0-2.31-2.718ZM8.642,23.074H6.285a1.178,1.178,0,0,1,0-2.357H8.642a1.178,1.178,0,0,1,0,2.357Zm0-4.714H6.285a1.178,1.178,0,0,1,0-2.357H8.642a1.178,1.178,0,0,1,0,2.357Zm0-4.714H6.285a1.178,1.178,0,0,1,0-2.357H8.642a1.178,1.178,0,0,1,0,2.357Zm0-4.714H6.285a1.178,1.178,0,0,1,0-2.357H8.642a1.178,1.178,0,0,1,0,2.357ZM16.5,23.074H14.141a1.178,1.178,0,0,1,0-2.357H16.5a1.178,1.178,0,0,1,0,2.357Zm0-4.714H14.141a1.178,1.178,0,0,1,0-2.357H16.5a1.178,1.178,0,0,1,0,2.357Zm0-4.714H14.141a1.178,1.178,0,0,1,0-2.357H16.5a1.178,1.178,0,0,1,0,2.357Zm0-4.714H14.141a1.178,1.178,0,0,1,0-2.357H16.5a1.178,1.178,0,0,1,0,2.357Zm19.043,8L24.354,14.591V37.607H34.959a2.753,2.753,0,0,0,2.75-2.75V19.62A2.736,2.736,0,0,0,35.541,16.933Zm-3.724,15.96H29.46a1.178,1.178,0,1,1,0-2.357h2.357a1.178,1.178,0,0,1,0,2.357Zm0-4.714H29.46a1.178,1.178,0,1,1,0-2.357h2.357a1.178,1.178,0,0,1,0,2.357Zm0-4.714H29.46a1.178,1.178,0,1,1,0-2.357h2.357a1.178,1.178,0,0,1,0,2.357Z" fill="#006ce5"/>
  </g>
</svg>
