<svg xmlns="http://www.w3.org/2000/svg" width="55.484" height="55.455" viewBox="0 0 55.484 55.455">
  <g id="Group_11652" data-name="Group 11652" transform="translate(-2523.4 -2001)">
    <g id="Group_11651" data-name="Group 11651" transform="translate(2523.4 2001)">
      <path id="Path_65951" data-name="Path 65951" d="M2670.6,2002.413v37.634a2.081,2.081,0,0,1-2.181,1.2q-17.915-.043-35.829-.015c-1.4,0-1.993-.592-1.993-2.007v-36c0-1.415.578-2.007,1.993-2.007q17.914,0,35.829-.014A2.091,2.091,0,0,1,2670.6,2002.413Zm-9.733,11v2.21a1.627,1.627,0,1,0,3.235,0v-6.109a1.636,1.636,0,0,0-1.8-1.8h-6.109a1.639,1.639,0,0,0-1.805,1.646,1.663,1.663,0,0,0,1.805,1.6h2.094c-5.964,5.979-11.986,11.986-17.951,17.951v-2.094a1.638,1.638,0,0,0-1.646-1.805,1.663,1.663,0,0,0-1.6,1.805v6.109a1.646,1.646,0,0,0,1.805,1.819H2645a1.627,1.627,0,1,0,.029-3.235H2642.8C2648.825,2025.461,2654.846,2019.454,2660.869,2013.417Z" transform="translate(-2615.118 -2001.171)" fill="#006ce5"/>
      <path id="Path_65952" data-name="Path 65952" d="M2578.883,2002.242a2.081,2.081,0,0,0-2.181-1.2q-17.914.043-35.829.014c-1.416,0-1.993.592-1.993,2.007v36c0,1.415.592,2.007,1.993,2.007q17.914,0,35.829.015a2.092,2.092,0,0,0,2.181-1.2v16.55h-29.3a2.062,2.062,0,0,0,1.2-2.181c-.043-3.119-.014-6.224-.014-9.344v-.549c-.116-.014-.159-.029-.188-.029h-9.835a4.87,4.87,0,0,1-5.112-5.127V2029.2h-10.123c-1.415,0-1.993.592-1.993,1.993,0,7.7.015,15.38-.014,23.077a2.1,2.1,0,0,0,1.2,2.181h-1.3V2001h55.455C2578.883,2001.376,2578.883,2001.809,2578.883,2002.242Z" transform="translate(-2523.4 -2001)" fill="none"/>
      <path id="Path_65953" data-name="Path 65953" d="M2525.5,2223.251a2.062,2.062,0,0,1-1.2-2.181c.029-7.7.015-15.38.015-23.077,0-1.415.592-1.993,1.993-1.993h10.123v10.008a4.87,4.87,0,0,0,5.112,5.127h9.834c.029,0,.072.015.188.029v.549c0,3.119-.029,6.239.014,9.344a2.081,2.081,0,0,1-1.2,2.181Q2537.922,2223.258,2525.5,2223.251Z" transform="translate(-2524.167 -2167.839)" fill="#006ce5"/>
      <path id="Path_65954" data-name="Path 65954" d="M2699.284,2051.918q-9.055,9.055-18.066,18.08h2.224a1.627,1.627,0,1,1-.029,3.235H2677.3a1.647,1.647,0,0,1-1.805-1.82v-6.109a1.634,1.634,0,1,1,3.25,0v2.094c5.964-5.964,11.972-11.987,17.95-17.95h-2.094a1.634,1.634,0,1,1,0-3.25h6.109a1.636,1.636,0,0,1,1.805,1.805v6.109a1.627,1.627,0,1,1-3.235,0Z" transform="translate(-2653.535 -2039.672)" fill="none"/>
    </g>
  </g>
</svg>
