<svg xmlns="http://www.w3.org/2000/svg" width="48.784" height="48.784" viewBox="0 0 48.784 48.784">
  <g id="Group_11648" data-name="Group 11648" transform="translate(-2131.4 -1471)">
    <g id="Group_11647" data-name="Group 11647" transform="translate(2131.4 1471)">
      <path id="Path_65923" data-name="Path 65923" d="M2131.4,1519.784V1471h48.784v48.784Zm24.4-28.915h13.022a2.536,2.536,0,0,0,2.744-2.719c.013-1.906,0-3.8,0-5.7a2.508,2.508,0,0,0-2.719-2.731h-26.005a2.514,2.514,0,0,0-2.719,2.731v5.6a2.552,2.552,0,0,0,2.833,2.808Q2149.383,1490.876,2155.8,1490.869Zm-15.677,11.65v5.895a2.528,2.528,0,0,0,2.757,2.744h8.7a2.526,2.526,0,0,0,2.732-2.719V1496.65a2.536,2.536,0,0,0-2.744-2.719h-8.7a2.528,2.528,0,0,0-2.744,2.757Zm31.443.038v-5.895a2.534,2.534,0,0,0-2.757-2.744h-8.652a2.548,2.548,0,0,0-2.782,2.77v11.7a2.544,2.544,0,0,0,2.744,2.77h8.7a2.528,2.528,0,0,0,2.757-2.744C2171.571,1506.458,2171.571,1504.514,2171.571,1502.557Zm-30.617-28.928h0c-.521.013-1.042-.013-1.562.013a5.412,5.412,0,0,0-5.209,4.5,31.141,31.141,0,0,0-.1,4.358,1.309,1.309,0,0,0,.241.61,1.519,1.519,0,0,0,2.77-.915c.013-.915,0-1.842,0-2.757a2.522,2.522,0,0,1,2.782-2.757c.9,0,1.8.013,2.706,0a1.52,1.52,0,1,0-.013-3.036C2142.021,1473.63,2141.487,1473.63,2140.954,1473.63Zm29.842-.076a.161.161,0,0,1-.013.076h-1.652a3.213,3.213,0,0,0-.61.089,1.5,1.5,0,0,0-.979,1.7,1.54,1.54,0,0,0,1.524,1.245c.94.025,1.868,0,2.808.013a2.526,2.526,0,0,1,2.731,2.719c0,.953-.013,1.906.013,2.846a1.5,1.5,0,0,0,1.563,1.512,1.482,1.482,0,0,0,1.474-1.537c.013-1.08.025-2.16-.013-3.227a5.426,5.426,0,0,0-4.116-5.145A19.507,19.507,0,0,0,2170.8,1473.554Zm-29.918,43.766a.162.162,0,0,1,.013-.076c.559,0,1.105.013,1.664,0a1.968,1.968,0,0,0,.61-.089,1.5,1.5,0,0,0,.991-1.69,1.524,1.524,0,0,0-1.512-1.258c-.953-.026-1.906,0-2.859-.013a2.506,2.506,0,0,1-2.693-2.706c0-.953.013-1.906-.013-2.846a1.5,1.5,0,0,0-1.55-1.524,1.487,1.487,0,0,0-1.486,1.575c-.013,1.067-.025,2.122,0,3.189a5.456,5.456,0,0,0,4.1,5.158A24.665,24.665,0,0,0,2140.877,1517.32Zm29.893-.076h0c.508,0,1.016.013,1.524-.013a5.405,5.405,0,0,0,5.234-4.535,34.865,34.865,0,0,0,.114-4.32.754.754,0,0,0-.089-.318,1.52,1.52,0,0,0-2.935.584,22.041,22.041,0,0,0,0,2.427,2.692,2.692,0,0,1-3.1,3.125,22.046,22.046,0,0,0-2.427,0,1.519,1.519,0,1,0,.013,3.036C2169.665,1517.243,2170.224,1517.243,2170.771,1517.243Zm-14.927-43.6c-.369,0-.724-.013-1.093,0a1.493,1.493,0,0,0-1.436,1.423,1.454,1.454,0,0,0,1.245,1.55,14.726,14.726,0,0,0,2.592,0,1.452,1.452,0,0,0,1.232-1.55,1.514,1.514,0,0,0-1.448-1.423C2156.567,1473.63,2156.211,1473.643,2155.843,1473.643Zm-21.8,21.813c0,.369-.013.724,0,1.093a1.506,1.506,0,0,0,1.4,1.423A1.434,1.434,0,0,0,2137,1496.8a14.026,14.026,0,0,0,0-2.731,1.431,1.431,0,0,0-1.55-1.169,1.487,1.487,0,0,0-1.4,1.423C2134.03,1494.693,2134.055,1495.074,2134.042,1495.456Zm43.6-.025h0c0-.368.013-.724,0-1.093a1.5,1.5,0,0,0-1.423-1.448,1.436,1.436,0,0,0-1.55,1.232,14.134,14.134,0,0,0,.013,2.642,1.449,1.449,0,0,0,1.537,1.194,1.516,1.516,0,0,0,1.423-1.4C2177.669,1496.192,2177.643,1495.811,2177.643,1495.43Zm-21.813,21.8h0c.368,0,.724.013,1.093,0a1.514,1.514,0,0,0,1.461-1.41,1.455,1.455,0,0,0-1.232-1.563,15.284,15.284,0,0,0-2.643,0,1.437,1.437,0,0,0-1.207,1.525,1.514,1.514,0,0,0,1.436,1.436C2155.106,1517.243,2155.474,1517.23,2155.83,1517.23Zm21.813-14.7h0c0-.368.013-.724,0-1.093a1.517,1.517,0,0,0-1.385-1.436,1.408,1.408,0,0,0-1.575,1.194,13.637,13.637,0,0,0,0,2.693,1.412,1.412,0,0,0,1.588,1.169,1.465,1.465,0,0,0,1.359-1.385C2177.669,1503.281,2177.643,1502.913,2177.643,1502.532Zm-14.711,14.7c.381,0,.762.013,1.144,0a1.479,1.479,0,0,0,1.4-1.372,1.414,1.414,0,0,0-1.182-1.588,13.233,13.233,0,0,0-2.655,0,1.431,1.431,0,0,0-1.22,1.563,1.506,1.506,0,0,0,1.423,1.4C2162.208,1517.243,2162.576,1517.23,2162.932,1517.23Zm-14.191-43.588h0c-.343,0-.7-.013-1.042,0a1.481,1.481,0,0,0-1.474,1.347,1.424,1.424,0,0,0,1.245,1.639,14.275,14.275,0,0,0,2.554,0,1.439,1.439,0,0,0,1.245-1.588,1.517,1.517,0,0,0-1.436-1.385C2149.478,1473.63,2149.11,1473.643,2148.741,1473.643Zm14.2,0c-.343,0-.7-.013-1.042,0a1.506,1.506,0,0,0-1.474,1.4,1.458,1.458,0,0,0,1.258,1.588,14.269,14.269,0,0,0,2.553,0,1.421,1.421,0,0,0,1.233-1.6,1.5,1.5,0,0,0-1.436-1.385C2163.669,1473.63,2163.3,1473.643,2162.945,1473.643Zm-28.889,14.7h0c0,.369-.013.724,0,1.093a1.517,1.517,0,0,0,1.385,1.436,1.425,1.425,0,0,0,1.575-1.194,13.637,13.637,0,0,0,0-2.693,1.405,1.405,0,0,0-1.588-1.169,1.456,1.456,0,0,0-1.359,1.385C2134.03,1487.579,2134.055,1487.96,2134.055,1488.341Zm43.588,0h0c0-.381.013-.762,0-1.143a1.457,1.457,0,0,0-1.372-1.385,1.4,1.4,0,0,0-1.588,1.182,13.255,13.255,0,0,0,0,2.655,1.436,1.436,0,0,0,1.575,1.22,1.506,1.506,0,0,0,1.4-1.423C2177.669,1489.078,2177.643,1488.71,2177.643,1488.341Zm-40.564,14.2h0c-.013-.381.025-.762-.013-1.143a1.516,1.516,0,0,0-1.575-1.41,1.49,1.49,0,0,0-1.448,1.525q-.019.972,0,1.944a1.5,1.5,0,0,0,1.474,1.588,1.522,1.522,0,0,0,1.563-1.562C2137.092,1503.18,2137.079,1502.862,2137.079,1502.545Zm11.675,14.686h0c.368,0,.724.013,1.093,0a1.506,1.506,0,0,0,1.423-1.4,1.429,1.429,0,0,0-1.169-1.563,14.134,14.134,0,0,0-2.744,0,1.392,1.392,0,0,0-1.131,1.626,1.472,1.472,0,0,0,1.385,1.321C2147.992,1517.256,2148.373,1517.23,2148.754,1517.23Z" transform="translate(-2131.4 -1471)" fill="none"/>
      <path id="Path_65924" data-name="Path 65924" d="M2215.864,1550.842h-12.831a2.551,2.551,0,0,1-2.833-2.808v-5.6a2.514,2.514,0,0,1,2.719-2.731h26.006a2.52,2.52,0,0,1,2.719,2.731v5.7a2.542,2.542,0,0,1-2.744,2.719Q2222.362,1550.835,2215.864,1550.842Z" transform="translate(-2191.459 -1530.972)" fill="#006ce5"/>
      <path id="Path_65925" data-name="Path 65925" d="M2200.1,1660v-5.844a2.528,2.528,0,0,1,2.744-2.757h8.7a2.548,2.548,0,0,1,2.744,2.719v11.789a2.526,2.526,0,0,1-2.731,2.719h-8.7a2.516,2.516,0,0,1-2.757-2.744Z" transform="translate(-2191.372 -1628.482)" fill="#006ce5"/>
      <path id="Path_65926" data-name="Path 65926" d="M2350,1659.952v5.844a2.516,2.516,0,0,1-2.757,2.744h-8.7a2.544,2.544,0,0,1-2.744-2.77v-11.7a2.549,2.549,0,0,1,2.782-2.77h8.652a2.534,2.534,0,0,1,2.757,2.744C2350,1656.026,2350,1657.982,2350,1659.952Z" transform="translate(-2309.833 -1628.394)" fill="#006ce5"/>
      <path id="Path_65927" data-name="Path 65927" d="M2159.2,1491.7h1.613a1.52,1.52,0,1,1,.013,3.036c-.9.013-1.8,0-2.706,0a2.527,2.527,0,0,0-2.782,2.757c0,.915.013,1.842,0,2.757a1.544,1.544,0,0,1-1.093,1.512,1.5,1.5,0,0,1-1.677-.6,1.26,1.26,0,0,1-.241-.61,31.087,31.087,0,0,1,.1-4.358,5.379,5.379,0,0,1,5.209-4.5c.508,0,1.029.013,1.563,0Z" transform="translate(-2149.645 -1489.07)" fill="#006ce5"/>
      <path id="Path_65928" data-name="Path 65928" d="M2418.989,1491.1a19.492,19.492,0,0,1,2.732.292,5.427,5.427,0,0,1,4.116,5.145c.025,1.08.025,2.16.013,3.227a1.482,1.482,0,0,1-1.474,1.537,1.5,1.5,0,0,1-1.562-1.512c-.025-.953,0-1.906-.012-2.846a2.526,2.526,0,0,0-2.732-2.719c-.94,0-1.867.013-2.808-.013a1.527,1.527,0,0,1-1.524-1.245,1.487,1.487,0,0,1,.978-1.7,3.221,3.221,0,0,1,.61-.089h1.652A.163.163,0,0,0,2418.989,1491.1Z" transform="translate(-2379.594 -1488.546)" fill="#006ce5"/>
      <path id="Path_65929" data-name="Path 65929" d="M2159.021,1765.413a21.18,21.18,0,0,1-2.719-.292,5.429,5.429,0,0,1-4.1-5.158c-.025-1.054-.013-2.122,0-3.189a1.487,1.487,0,0,1,1.486-1.576,1.5,1.5,0,0,1,1.55,1.525c.025.953,0,1.906.013,2.846a2.518,2.518,0,0,0,2.693,2.706c.953,0,1.906-.013,2.858.013a1.5,1.5,0,0,1,1.512,1.258,1.486,1.486,0,0,1-.991,1.69,2.439,2.439,0,0,1-.61.089c-.559.013-1.105,0-1.664,0A.713.713,0,0,1,2159.021,1765.413Z" transform="translate(-2149.544 -1719.093)" fill="#006ce5"/>
      <path id="Path_65930" data-name="Path 65930" d="M2419.038,1765.368c-.559,0-1.105.013-1.664,0a1.519,1.519,0,1,1-.013-3.036,22.106,22.106,0,0,1,2.427,0,2.687,2.687,0,0,0,3.1-3.125,22.041,22.041,0,0,1,0-2.427,1.52,1.52,0,0,1,2.934-.584.989.989,0,0,1,.089.318,34.947,34.947,0,0,1-.115,4.319,5.417,5.417,0,0,1-5.234,4.535c-.508,0-1.016-.013-1.525,0Z" transform="translate(-2379.668 -1719.124)" fill="#006ce5"/>
      <path id="Path_65931" data-name="Path 65931" d="M2306.405,1491.761c.368,0,.724-.013,1.093,0a1.5,1.5,0,0,1,1.448,1.423,1.436,1.436,0,0,1-1.232,1.55,14.7,14.7,0,0,1-2.592,0,1.446,1.446,0,0,1-1.245-1.55,1.493,1.493,0,0,1,1.436-1.423C2305.681,1491.749,2306.037,1491.761,2306.405,1491.761Z" transform="translate(-2281.962 -1489.119)" fill="#006ce5"/>
      <path id="Path_65932" data-name="Path 65932" d="M2152.177,1645.829c0-.381-.013-.762,0-1.143a1.506,1.506,0,0,1,1.4-1.423,1.424,1.424,0,0,1,1.55,1.169,14.024,14.024,0,0,1,0,2.731,1.445,1.445,0,0,1-1.563,1.169,1.516,1.516,0,0,1-1.4-1.423C2152.151,1646.553,2152.164,1646.2,2152.177,1645.829Z" transform="translate(-2149.521 -1621.374)" fill="#006ce5"/>
      <path id="Path_65933" data-name="Path 65933" d="M2474.59,1645.817c0,.381.013.762,0,1.131a1.5,1.5,0,0,1-1.423,1.4,1.441,1.441,0,0,1-1.537-1.194,14.136,14.136,0,0,1-.013-2.643,1.436,1.436,0,0,1,1.55-1.232,1.5,1.5,0,0,1,1.423,1.448,10.387,10.387,0,0,1,0,1.093Z" transform="translate(-2428.347 -1621.387)" fill="#006ce5"/>
      <path id="Path_65934" data-name="Path 65934" d="M2306.314,1814.1c-.368,0-.724.013-1.093,0a1.513,1.513,0,0,1-1.435-1.435,1.429,1.429,0,0,1,1.207-1.525,13.112,13.112,0,0,1,2.643,0,1.459,1.459,0,0,1,1.232,1.563,1.5,1.5,0,0,1-1.461,1.41c-.356,0-.724-.013-1.093-.013Z" transform="translate(-2281.884 -1767.871)" fill="#006ce5"/>
      <path id="Path_65935" data-name="Path 65935" d="M2474.689,1701.7c0,.381.013.762,0,1.131a1.466,1.466,0,0,1-1.36,1.385,1.4,1.4,0,0,1-1.588-1.169,13.6,13.6,0,0,1,0-2.693,1.415,1.415,0,0,1,1.575-1.194,1.507,1.507,0,0,1,1.385,1.436c.013.369-.013.737-.013,1.105Z" transform="translate(-2428.445 -1670.171)" fill="#006ce5"/>
      <path id="Path_65936" data-name="Path 65936" d="M2362.291,1814.167c-.369,0-.724.013-1.093,0a1.506,1.506,0,0,1-1.423-1.4,1.414,1.414,0,0,1,1.219-1.562,15.455,15.455,0,0,1,2.655,0,1.414,1.414,0,0,1,1.182,1.588,1.479,1.479,0,0,1-1.4,1.372C2363.053,1814.193,2362.672,1814.167,2362.291,1814.167Z" transform="translate(-2330.759 -1767.937)" fill="#006ce5"/>
      <path id="Path_65937" data-name="Path 65937" d="M2250.578,1491.713c.369,0,.724-.013,1.093,0a1.507,1.507,0,0,1,1.436,1.385,1.432,1.432,0,0,1-1.245,1.588,14.3,14.3,0,0,1-2.553,0,1.442,1.442,0,0,1-1.245-1.639,1.491,1.491,0,0,1,1.474-1.347c.343,0,.7,0,1.042.013Z" transform="translate(-2233.237 -1489.07)" fill="#006ce5"/>
      <path id="Path_65938" data-name="Path 65938" d="M2362.392,1491.761c.368,0,.724-.013,1.093,0a1.487,1.487,0,0,1,1.436,1.385,1.42,1.42,0,0,1-1.232,1.6,14.272,14.272,0,0,1-2.553,0,1.458,1.458,0,0,1-1.258-1.588,1.506,1.506,0,0,1,1.474-1.4C2361.693,1491.749,2362.036,1491.761,2362.392,1491.761Z" transform="translate(-2330.847 -1489.119)" fill="#006ce5"/>
      <path id="Path_65939" data-name="Path 65939" d="M2152.177,1590.189c0-.381-.013-.762,0-1.131a1.456,1.456,0,0,1,1.359-1.385,1.4,1.4,0,0,1,1.588,1.169,13.638,13.638,0,0,1,0,2.693,1.433,1.433,0,0,1-1.575,1.194,1.517,1.517,0,0,1-1.385-1.436c-.013-.381,0-.737.013-1.105Z" transform="translate(-2149.521 -1572.848)" fill="#006ce5"/>
      <path id="Path_65940" data-name="Path 65940" d="M2474.58,1590.014c0,.369.013.724,0,1.093a1.507,1.507,0,0,1-1.4,1.423,1.452,1.452,0,0,1-1.575-1.22,15.455,15.455,0,0,1,0-2.655,1.4,1.4,0,0,1,1.588-1.182,1.467,1.467,0,0,1,1.372,1.385c.038.394.013.775.013,1.156Z" transform="translate(-2428.337 -1572.673)" fill="#006ce5"/>
      <path id="Path_65941" data-name="Path 65941" d="M2155.171,1701.835c0,.318.013.635,0,.953a1.522,1.522,0,0,1-1.563,1.563,1.5,1.5,0,0,1-1.473-1.588q-.019-.972,0-1.944a1.513,1.513,0,0,1,3.023-.114,11.2,11.2,0,0,1,.013,1.131Z" transform="translate(-2149.492 -1670.291)" fill="#006ce5"/>
      <path id="Path_65942" data-name="Path 65942" d="M2250.572,1814.189c-.381,0-.762.013-1.144,0a1.472,1.472,0,0,1-1.385-1.321,1.408,1.408,0,0,1,1.131-1.626,14.117,14.117,0,0,1,2.744,0,1.42,1.42,0,0,1,1.169,1.563,1.506,1.506,0,0,1-1.423,1.4c-.356,0-.724-.013-1.093-.013Z" transform="translate(-2233.218 -1767.958)" fill="#006ce5"/>
    </g>
  </g>
</svg>
