<svg id="Group_23838" data-name="Group 23838" xmlns="http://www.w3.org/2000/svg" width="33.001" height="24.201" viewBox="0 0 33.001 24.201">
  <path id="Path_78167" data-name="Path 78167" d="M80.515,105.487h3.7A1.484,1.484,0,0,0,85.7,104V95.684A1.484,1.484,0,0,0,84.216,94.2h-3.7a1.485,1.485,0,0,0-1.483,1.483V104a1.484,1.484,0,0,0,1.483,1.482Zm30.036-24.2h-3.7a1.484,1.484,0,0,0-1.482,1.482V104a1.484,1.484,0,0,0,1.482,1.482h3.7A1.484,1.484,0,0,0,112.033,104V82.768a1.484,1.484,0,0,0-1.483-1.481Zm-12.479,24.2h3.7A1.484,1.484,0,0,0,103.255,104V92.962a1.484,1.484,0,0,0-1.482-1.482h-3.7a1.484,1.484,0,0,0-1.482,1.482V104a1.484,1.484,0,0,0,1.482,1.482Zm-8.778,0H93A1.484,1.484,0,0,0,94.479,104V87.371A1.484,1.484,0,0,0,93,85.889h-3.7a1.484,1.484,0,0,0-1.482,1.482V104a1.484,1.484,0,0,0,1.482,1.482Z" transform="translate(-79.032 -81.286)" fill="#006ce5" fill-rule="evenodd"/>
</svg>
