<svg xmlns="http://www.w3.org/2000/svg" width="35.571" height="35.567" viewBox="0 0 35.571 35.567">
  <g id="Group_25860" data-name="Group 25860" transform="translate(0.016 -4)">
    <path id="Path_79885" data-name="Path 79885" d="M22.124,0A13.394,13.394,0,1,0,35.555,13.394,13.428,13.428,0,0,0,22.124,0Zm6.767,14.437h-7.81V6.644h2.086v5.707h5.724ZM.985,25.2,6.562,19.64l1.473,1.477L2.457,26.679Zm-1-6.889,5.135-5.12,1.473,1.477-5.135,5.12ZM15.807,34.09l5.135-5.12,1.473,1.477-5.135,5.12ZM2.478,31.6,9,25.1l1.473,1.477-6.518,6.5ZM8.9,33.09l5.578-5.562L15.946,29l-5.578,5.562Z" transform="translate(0 4)" fill="#006ce5"/>
  </g>
</svg>
