<svg id="Group_26943" data-name="Group 26943" xmlns="http://www.w3.org/2000/svg" width="40.98" height="40.98" viewBox="0 0 40.98 40.98">
  <path id="Path_82364" data-name="Path 82364" d="M108.6,10.165h8a1.209,1.209,0,0,0,.967-.488A12.587,12.587,0,0,0,120.208,2V1.2a1.2,1.2,0,0,0-1.2-1.2c-2.224,0-5.124,1.44-6.4,2.141C111.324,1.44,108.424,0,106.2,0A1.2,1.2,0,0,0,105,1.2V2a12.587,12.587,0,0,0,2.635,7.676A1.209,1.209,0,0,0,108.6,10.165Zm4.931,17.646v3.4a2.152,2.152,0,0,0,1.075-1.522A1.622,1.622,0,0,0,113.533,27.811Zm-2.6-4.334a1.094,1.094,0,0,0,.276,1.06,3.78,3.78,0,0,0,.328.227v-2.26A1.548,1.548,0,0,0,110.929,23.478Z" transform="translate(-96.596)" fill="#006ce5"/>
  <path id="Path_82365" data-name="Path 82365" d="M22.571,174.715v-5.957a3.366,3.366,0,0,1,2.846-3.331,2.784,2.784,0,0,0,2-1.429,59.118,59.118,0,0,0-5.752-6.639,1.2,1.2,0,0,0-.857-.36h-9.6a1.2,1.2,0,0,0-.857.36C5.231,162.573,0,168.89,0,176.21v.086a9.22,9.22,0,0,0,9.269,9.118H22.746a9.316,9.316,0,0,0,3.987-.891A13.623,13.623,0,0,1,22.571,174.715Zm-2.585-.261a4.178,4.178,0,0,1-1.287,2.373,3.986,3.986,0,0,1-1.762.945v.758a1,1,0,0,1-2,0v-.665a4.954,4.954,0,0,1-2.509-.932,1,1,0,1,1,1.1-1.675,3.145,3.145,0,0,0,1.414.594v-4.4a7.594,7.594,0,0,1-1.563-.912,3.051,3.051,0,0,1-1.007-3.005,3.438,3.438,0,0,1,2.358-2.7q.106-.032.212-.059v-.662a1,1,0,1,1,2,0v.552a3.551,3.551,0,0,1,2.054,1.052,1,1,0,0,1-1.5,1.32,1.469,1.469,0,0,0-.551-.318v3.386c.189.07.378.138.563.2a3.613,3.613,0,0,1,2.485,4.135Z" transform="translate(0 -144.434)" fill="#006ce5"/>
  <path id="Path_82366" data-name="Path 82366" d="M327.18,255.871a5.181,5.181,0,0,1-3.809-2.8.606.606,0,0,0-.544-.332H317.18a.606.606,0,0,0-.544.332,5.181,5.181,0,0,1-3.809,2.8.976.976,0,0,0-.828.961v5.957a11.231,11.231,0,0,0,7.624,10.636,1.187,1.187,0,0,0,.761,0,11.231,11.231,0,0,0,7.624-10.636v-5.957A.976.976,0,0,0,327.18,255.871Zm-2.932,5.855-4.528,4.528a1.2,1.2,0,0,1-1.7,0l-2.264-2.264a1.2,1.2,0,0,1,1.7-1.7l1.415,1.415,3.679-3.679a1.2,1.2,0,1,1,1.7,1.7Z" transform="translate(-287.028 -232.507)" fill="#006ce5"/>
</svg>
