<svg xmlns="http://www.w3.org/2000/svg" width="55.125" height="52.618" viewBox="0 0 55.125 52.618">
  <g id="Group_25936" data-name="Group 25936" transform="translate(-8022.357 -65.359)">
    <path id="Path_79982" data-name="Path 79982" d="M8044.771,81.936h-21c-1.151,0-1.405-.251-1.405-1.386,0-1.155.015-2.311-.006-3.466a1.165,1.165,0,0,1,.741-1.174q10.522-5.173,21.032-10.371a1.441,1.441,0,0,1,1.378-.008q10.471,5.159,20.948,10.3a1.223,1.223,0,0,1,.768,1.221c-.017,1.207,0,2.414-.006,3.621,0,.942-.33,1.259-1.29,1.259Zm.037-10.888a3.12,3.12,0,1,0,3.115,3.117A3.09,3.09,0,0,0,8044.808,71.047Z" transform="translate(0.001 0)" fill="#fff"/>
    <path id="Path_79983" data-name="Path 79983" d="M8384.941,372.908c1.57,0,3.088,0,4.605,0,.725,0,.881.155.886.876,0,.4,0,.793,0,1.19-.008.674-.158.829-.82.83q-2.561,0-5.123,0h-.6v1.9c.193.009.375.026.559.026q2.508,0,5.02,0c.788,0,.92.138.92.944,0,.379,0,.759,0,1.138-.008.616-.189.81-.8.813-1.361.008-2.725,0-4.088,0h-.717c.365.487.623.886.935,1.235a5.07,5.07,0,0,0,7.382.429c.578-.509.742-.509,1.3.016q.776.724,1.545,1.454c.478.456.473.683-.011,1.154a8.857,8.857,0,0,1-13.407-1.024,19.573,19.573,0,0,1-1.665-2.956c-.14-.268-.257-.4-.567-.38-.516.025-1.033,0-1.552.007a.61.61,0,0,1-.7-.7c0-.5-.009-1,0-1.5.013-.517.2-.691.74-.7.4-.007.793-.007,1.189-.013a.228.228,0,0,0,.083-.034c0-.294-.007-.583,0-.872s.038-.581.063-.942c-.472,0-.915.007-1.358,0-.535-.01-.708-.179-.721-.718-.01-.466-.008-.932,0-1.4.008-.6.184-.772.77-.779.449-.006.9-.028,1.346.007.4.031.586-.1.747-.5a10.024,10.024,0,0,1,5.647-5.795,8.768,8.768,0,0,1,9.555,2.169c.337.334.318.629-.049.974-.564.531-1.14,1.054-1.719,1.571-.455.406-.641.4-1.1-.022a5.3,5.3,0,0,0-3.389-1.469A5.493,5.493,0,0,0,8384.941,372.908Z" transform="translate(-318.866 -269.536)" fill="#fff"/>
    <path id="Path_79984" data-name="Path 79984" d="M8055.172,450.612c.549,1.888-.037,3.767.177,5.68-.252.013-.436.03-.618.03q-15.473,0-30.945,0c-1.08,0-1.384-.306-1.385-1.381s0-2.139,0-3.208a1,1,0,0,1,1.145-1.142q15.653,0,31.307,0C8054.972,450.59,8055.088,450.606,8055.172,450.612Z" transform="translate(-0.038 -345.358)" fill="#fff"/>
    <path id="Path_79985" data-name="Path 79985" d="M8072.561,268.131h-5.606V249.86h5.606Z" transform="translate(-39.981 -165.405)" fill="#fff"/>
    <path id="Path_79986" data-name="Path 79986" d="M8265.777,268.143h-5.6V249.876h5.6Z" transform="translate(-213.206 -165.419)" fill="#fff"/>
    <path id="Path_79987" data-name="Path 79987" d="M8168.927,268.187h-5.6V249.933h5.6Z" transform="translate(-126.384 -165.47)" fill="#fff"/>
    <path id="Path_79988" data-name="Path 79988" d="M8356.668,249.723h5.638v.55c0,3.378-.006,6.757.007,10.135a1.123,1.123,0,0,1-.349.8c-.926,1.061-1.807,2.16-2.72,3.232a1.468,1.468,0,0,1-.55.379c-.663.269-1.339.508-2.026.765Z" transform="translate(-299.709 -165.282)" fill="#fff"/>
  </g>
</svg>
