<svg id="Group_24120" data-name="Group 24120" xmlns="http://www.w3.org/2000/svg" width="60.992" height="61.004" viewBox="0 0 60.992 61.004">
  <path id="Path_78507" data-name="Path 78507" d="M-319.108,196.341a30.548,30.548,0,0,1-30.5,30.5,30.555,30.555,0,0,1-30.5-30.5,30.548,30.548,0,0,1,30.5-30.5A30.545,30.545,0,0,1-319.108,196.341Zm-20.791,6.253a9.046,9.046,0,0,0-6.968-8.7c-1.427-.348-2.88-.591-4.308-.937a3.131,3.131,0,0,1-2.541-2.64,2.954,2.954,0,0,1,1.4-3.067,4.612,4.612,0,0,1,6.722,2.253,2.78,2.78,0,0,0,3.528,2,2.791,2.791,0,0,0,1.727-3.722,9.357,9.357,0,0,0-5.993-6.119c-.388-.142-.558-.307-.525-.729a10.9,10.9,0,0,0-.007-1.427,2.71,2.71,0,0,0-2.433-2.537,2.729,2.729,0,0,0-3,2.113,5.155,5.155,0,0,0-.057,1.488c.055.58-.156.8-.714.977a8.729,8.729,0,0,0-6.24,8.471,8.766,8.766,0,0,0,6.734,8.295c1.51.374,3.052.624,4.553,1.025a3.265,3.265,0,0,1,2.532,2.825,3.179,3.179,0,0,1-1.509,3.23,4.48,4.48,0,0,1-6.628-2.238,2.772,2.772,0,0,0-3.547-1.962,2.791,2.791,0,0,0-1.718,3.675,9.341,9.341,0,0,0,4.78,5.634c.551.288,1.368.364,1.64.8.3.475.081,1.257.121,1.9a2.711,2.711,0,0,0,2.718,2.527,2.715,2.715,0,0,0,2.771-2.537,8.142,8.142,0,0,0,.009-1.233c-.045-.49.123-.693.615-.849A9,9,0,0,0-339.9,202.593Z" transform="translate(380.1 -165.84)" fill="#006ce5"/>
</svg>
