<svg xmlns="http://www.w3.org/2000/svg" width="59.877" height="62.5" viewBox="0 0 59.877 62.5">
  <g id="Group_25945" data-name="Group 25945" transform="translate(-1534.967 -703.399)">
    <path id="Path_79997" data-name="Path 79997" d="M1573.179,767.711c-6.191,0-12.382.011-18.573,0a8.008,8.008,0,0,1-7.936-5.084,13.2,13.2,0,0,1-.781-3.641c-.741-6.277-1.433-12.559-2.139-18.84-.6-5.3-1.2-10.608-1.777-15.915a4.631,4.631,0,0,0-4.693-4.321c-.2,0-.4,0-.6-.013a1.776,1.776,0,0,1-1.711-1.8,1.8,1.8,0,0,1,1.752-1.834,8.327,8.327,0,0,1,8.868,7.436c.7,6.282,1.419,12.561,2.125,18.842q.965,8.589,1.916,17.18a4.581,4.581,0,0,0,4.817,4.315q18.975.007,37.95.006a4.828,4.828,0,0,1,1.128.1,1.8,1.8,0,0,1-.165,3.511,6.409,6.409,0,0,1-1,.055Q1582.767,767.713,1573.179,767.711Z" transform="translate(0 -11.12)" fill="#fff"/>
    <path id="Path_79998" data-name="Path 79998" d="M1804.013,718.36h-1.785c-3.174,0-6.348.012-9.522-.018a1.557,1.557,0,0,1-.983-.4q-3.281-3.214-6.5-6.494a1.471,1.471,0,0,1-.392-.914c-.037-1.81-.022-3.621-.016-5.431,0-1.191.523-1.7,1.729-1.7q7.912,0,15.825,0c1.108,0,1.692.492,1.7,1.53.018,4.358.007,8.717,0,13.076A2.653,2.653,0,0,1,1804.013,718.36Z" transform="translate(-216.281 0)" fill="#fff"/>
    <path id="Path_79999" data-name="Path 79999" d="M1735.6,829.637l-.832,7.348H1715.45c-.275-2.432-.55-4.864-.831-7.348Z" transform="translate(-155.519 -109.28)" fill="#fff"/>
    <path id="Path_80000" data-name="Path 80000" d="M1723.33,906.777l-.8-7.153h18.85c-.268,2.386-.534,4.75-.8,7.153Z" transform="translate(-162.365 -169.865)" fill="#fff"/>
    <path id="Path_80001" data-name="Path 80001" d="M1747.016,968.274c-.284,2.543-.564,5.045-.849,7.584H1731.1l-.859-7.584Z" transform="translate(-169.044 -229.293)" fill="#fff"/>
    <path id="Path_80002" data-name="Path 80002" d="M1657.554,748.557c.245-.259.392-.424.548-.579q4.454-4.457,8.91-8.911c.98-.979,1.642-.984,2.615-.013q4.482,4.476,8.96,8.956c.15.15.287.311.505.547Z" transform="translate(-106.12 -30.238)" fill="#fff"/>
    <path id="Path_80003" data-name="Path 80003" d="M1879.345,836.679c.277-2.472.55-4.9.831-7.4h1.17c2.011,0,4.022-.018,6.032.012a4.847,4.847,0,0,1,1.568.272,1.912,1.912,0,0,1,1.278,2.186c-.3,1.643-.7,3.269-1.056,4.929Z" transform="translate(-298.117 -108.965)" fill="#fff"/>
    <path id="Path_80004" data-name="Path 80004" d="M1871.578,906.611c.275-2.422.544-4.789.816-7.178h9.6l-1.565,7.178Z" transform="translate(-291.393 -169.7)" fill="#fff"/>
    <path id="Path_80005" data-name="Path 80005" d="M1651.7,975.9c-.288-2.546-.568-5.03-.854-7.568h8.686l.855,7.568Z" transform="translate(-100.311 -229.345)" fill="#fff"/>
    <path id="Path_80006" data-name="Path 80006" d="M1636.058,837.08c-.276-2.446-.548-4.856-.827-7.329h8.683c.274,2.418.55,4.845.831,7.329Z" transform="translate(-86.795 -109.379)" fill="#fff"/>
    <path id="Path_80007" data-name="Path 80007" d="M1651.775,899.627c.271,2.393.536,4.74.808,7.143H1643.9c-.268-2.359-.536-4.722-.812-7.143Z" transform="translate(-93.598 -169.868)" fill="#fff"/>
    <path id="Path_80008" data-name="Path 80008" d="M1872.954,968.328c-.313,1.435-.61,2.847-.933,4.252a9.338,9.338,0,0,1-.49,1.662,2.634,2.634,0,0,1-2.566,1.7c-1.8,0-3.6,0-5.483,0,.29-2.574.57-5.071.856-7.616Z" transform="translate(-284.385 -229.34)" fill="#fff"/>
    <path id="Path_80009" data-name="Path 80009" d="M1688.66,1116.661a3.742,3.742,0,1,1-3.742-3.759A3.744,3.744,0,0,1,1688.66,1116.661Z" transform="translate(-126.568 -354.494)" fill="#fff"/>
    <path id="Path_80010" data-name="Path 80010" d="M1871.388,1116.669a3.743,3.743,0,1,1-3.737-3.764A3.746,3.746,0,0,1,1871.388,1116.669Z" transform="translate(-284.749 -354.496)" fill="#fff"/>
  </g>
</svg>
