<svg xmlns="http://www.w3.org/2000/svg" width="48.584" height="48.584" viewBox="0 0 48.584 48.584">
  <g id="Group_11638" data-name="Group 11638" transform="translate(-1624.9 -2425.6)">
    <g id="Group_11637" data-name="Group 11637" transform="translate(1624.9 2425.6)">
      <path id="Path_65888" data-name="Path 65888" d="M1624.9,2474.184V2425.6h48.584v48.584Zm7.579-24.343v-14.879a1.566,1.566,0,0,1,1.8-1.784h14.841v-3.037h-14.93a4.553,4.553,0,0,0-4.757,4.77v20.737a4.559,4.559,0,0,0,4.782,4.795h26.848a4.649,4.649,0,0,0,3.492-1.43c1.341-1.366,1.341-3.074,1.227-4.82a7.9,7.9,0,0,1-1.189.164c-3.2.013-6.415.051-9.616-.012a6.047,6.047,0,0,1-5.466-4.074c-.126-.38-.291-.456-.658-.456q-7.876.019-15.765.013C1632.909,2449.842,1632.719,2449.842,1632.479,2449.842Zm36.375-9.1v-7.338a4.556,4.556,0,0,0-4.782-4.783h-8.616a4.556,4.556,0,0,0-4.783,4.783v14.677a4.556,4.556,0,0,0,4.783,4.782h8.616a4.559,4.559,0,0,0,4.782-4.795Zm-25.772,24.242c-1.075,0-2.088-.013-3.087,0a3.025,3.025,0,0,0-.025,6.048q7.667.038,15.334,0a3,3,0,0,0,2.923-2.758,2.943,2.943,0,0,0-2.366-3.188,24.565,24.565,0,0,0-3.062-.1h-.633v-3h-9.084Zm-.772-21.218h5.111a1.538,1.538,0,0,0,1.721-1.721v-5.63a1.544,1.544,0,0,0-1.708-1.733h-10.223a1.534,1.534,0,0,0-1.7,1.7v5.681a1.543,1.543,0,0,0,1.733,1.708Zm6.82,1.556h-13.576v2.973h13.576Z" transform="translate(-1624.9 -2425.6)" fill="none"/>
      <path id="Path_65889" data-name="Path 65889" d="M1664.191,2483.586h.692q8.8,0,17.605-.014a.635.635,0,0,1,.735.508,6.751,6.751,0,0,0,6.1,4.55c3.575.057,7.164.028,10.738.014a9.089,9.089,0,0,0,1.328-.184c.127,1.95.127,3.844-1.37,5.384a5.245,5.245,0,0,1-3.9,1.6c-7.192-.014-14.384,0-21.576,0h-8.407a5.092,5.092,0,0,1-5.341-5.355v-23.158a5.085,5.085,0,0,1,5.313-5.327h16.673v3.391h-16.574a1.744,1.744,0,0,0-2.006,1.992v16.022C1664.191,2483.162,1664.191,2483.332,1664.191,2483.586Z" transform="translate(-1658.559 -2459.345)" fill="#006ce5"/>
      <path id="Path_65890" data-name="Path 65890" d="M1848.9,2463.122v8.195a5.107,5.107,0,0,1-5.341,5.355h-9.622a5.088,5.088,0,0,1-5.341-5.341v-16.39a5.088,5.088,0,0,1,5.341-5.341h9.622a5.088,5.088,0,0,1,5.341,5.341Zm-3.391-.028v-8.224a1.723,1.723,0,0,0-1.893-1.907h-9.735a1.734,1.734,0,0,0-1.922,1.936v8.2Zm-4.253,5.143h-5.016v3.32h5.016Z" transform="translate(-1802.651 -2449.042)" fill="#006ce5"/>
      <path id="Path_65891" data-name="Path 65891" d="M1727.468,2716.549V2713.2h10.145v3.348h.706a27.363,27.363,0,0,1,3.419.114,3.286,3.286,0,0,1,2.642,3.56,3.362,3.362,0,0,1-3.264,3.08q-8.562.042-17.125,0a3.378,3.378,0,0,1,.028-6.754C1725.151,2716.534,1726.267,2716.549,1727.468,2716.549Z" transform="translate(-1709.996 -2675.397)" fill="#006ce5"/>
      <path id="Path_65892" data-name="Path 65892" d="M1716.388,2507.545h-5.652a1.724,1.724,0,0,1-1.936-1.907v-6.344a1.713,1.713,0,0,1,1.893-1.893h11.417a1.724,1.724,0,0,1,1.907,1.936v6.288a1.718,1.718,0,0,1-1.922,1.921Z" transform="translate(-1699.779 -2490.088)" fill="#006ce5"/>
      <path id="Path_65893" data-name="Path 65893" d="M1724.261,2581.5v3.321H1709.1V2581.5Z" transform="translate(-1700.036 -2562.304)" fill="#006ce5"/>
      <path id="Path_65894" data-name="Path 65894" d="M1864.621,2482.472H1852.5v-7.338a1.553,1.553,0,0,1,1.721-1.733h8.717a1.538,1.538,0,0,1,1.7,1.708v6.908C1864.621,2482.155,1864.621,2482.295,1864.621,2482.472Z" transform="translate(-1823.704 -2467.352)" fill="none"/>
      <path id="Path_65895" data-name="Path 65895" d="M1887.192,2581.5v2.973H1882.7V2581.5Z" transform="translate(-1850.083 -2561.775)" fill="none"/>
    </g>
  </g>
</svg>
