<svg xmlns="http://www.w3.org/2000/svg" width="48.831" height="48.832" viewBox="0 0 48.831 48.832">
  <g id="Group_11634" data-name="Group 11634" transform="translate(-1003.9 -1855)">
    <g id="Group_11633" data-name="Group 11633" transform="translate(1003.9 1855)">
      <path id="Path_65872" data-name="Path 65872" d="M1027.985,1903.832H1003.9V1855h48.831v48.832h-23.983c.2-.115.407-.216.623-.331l22.05-11.025a5.2,5.2,0,0,0,.585-.318,1.408,1.408,0,0,0-.013-2.365,3.984,3.984,0,0,0-.8-.407.738.738,0,0,0-.521.013c-.674.318-1.335.661-2,.992q-9.1,4.54-18.185,9.092a4.359,4.359,0,0,1-4.146.039q-9.938-4.979-19.876-9.957a1.286,1.286,0,0,0-1.348.013A1.58,1.58,0,0,0,1004.1,1891a1.489,1.489,0,0,0,.992,1.374q7.668,3.834,15.349,7.668C1022.962,1901.3,1025.467,1902.56,1027.985,1903.832Zm13.136-39.281a6.253,6.253,0,0,0-.318-.75c-.839-1.475-1.691-2.937-2.543-4.4-.674-1.17-1.348-1.386-2.492-.662-.572.369-1.043.5-1.564-.025a1.437,1.437,0,0,0-.61-.369c-.852-.242-1.042-.8-.979-1.628.076-1.068-.547-1.628-1.628-1.628-1.6,0-3.2.051-4.807-.013-1.552-.063-2.251.521-2.1,2.136.038.471-.076.776-.56.928a2.3,2.3,0,0,0-.827.458,1.344,1.344,0,0,1-1.933.026,1.406,1.406,0,0,0-2.2.585c-.789,1.373-1.552,2.772-2.391,4.107-.877,1.4-.776,2.225.8,2.989.382.191.585.394.471.878a2.224,2.224,0,0,0-.013,1.043c.2.878-.191,1.284-.941,1.653a1.406,1.406,0,0,0-.6,2.187c.788,1.373,1.628,2.721,2.365,4.12.852,1.628,1.717,1.691,2.988.8a.692.692,0,0,1,.992.026,2.267,2.267,0,0,0,.852.521c.877.255,1.056.827.992,1.666a1.4,1.4,0,0,0,1.564,1.6h5.43a1.991,1.991,0,0,0,.47-.051,1.362,1.362,0,0,0,1.068-1.577c-.076-.839.114-1.4.979-1.628a.576.576,0,0,0,.242-.14,1.548,1.548,0,0,1,2.264-.076,1.3,1.3,0,0,0,1.933-.471c.979-1.653,1.933-3.306,2.874-4.985a1.385,1.385,0,0,0-.5-1.907,2.387,2.387,0,0,0-.5-.28c-.522-.216-.84-.521-.636-1.144a1.1,1.1,0,0,0,.013-.61,1.508,1.508,0,0,1,1.068-1.984A1.387,1.387,0,0,0,1041.121,1864.55Zm-28.294,7.872c.026,0-.013,0-.038.013-2.632,1.323-5.277,2.632-7.91,3.955a1.351,1.351,0,0,0-.788,1.31,1.547,1.547,0,0,0,1.03,1.36q11.14,5.551,22.267,11.14a2.015,2.015,0,0,0,1.971-.013c3.332-1.691,6.676-3.357,10.021-5.023,4.069-2.035,8.126-4.057,12.2-6.1a2.191,2.191,0,0,0,.75-.559,1.4,1.4,0,0,0-.6-2.175q-3.853-1.945-7.731-3.866a1.908,1.908,0,0,0-.191-.051c-.089.216-.165.432-.267.623-1.055,1.844-2.085,3.7-3.192,5.506a3.7,3.7,0,0,1-2.747,1.781,18.068,18.068,0,0,1-2.2.013s-.025.076-.063.165a4.265,4.265,0,0,1-4.26,3.141c-1.869,0-3.739.013-5.621,0a4.266,4.266,0,0,1-4.057-3.026c-.038-.127-.089-.267-.14-.407q-.191.038-.343.076a4.213,4.213,0,0,1-4.6-1.818C1015.129,1876.5,1014.01,1874.482,1012.827,1872.422Zm39.815,11.9a1.442,1.442,0,0,0-.687-1.221c-.2-.127-.432-.2-.623-.33a.629.629,0,0,0-.738-.013c-.623.343-1.271.648-1.907.966q-9.1,4.54-18.185,9.092a4.354,4.354,0,0,1-4.107.064c-6.613-3.306-13.238-6.6-19.838-9.932a1.277,1.277,0,0,0-1.513.026c-.076.051-.165.089-.254.14a1.413,1.413,0,0,0,.013,2.442c.127.076.254.14.381.2q11.064,5.531,22.139,11.076a2.1,2.1,0,0,0,2.1,0q7.668-3.872,15.374-7.693c2.289-1.145,4.591-2.3,6.88-3.447A1.569,1.569,0,0,0,1052.642,1884.324Z" transform="translate(-1003.9 -1855)" fill="none"/>
      <path id="Path_65873" data-name="Path 65873" d="M1029.382,2139.594c-2.518-1.272-5.023-2.531-7.541-3.79q-7.668-3.835-15.349-7.668a1.5,1.5,0,0,1-.992-1.373,1.594,1.594,0,0,1,1.017-1.424,1.286,1.286,0,0,1,1.348-.013q9.919,5,19.876,9.957a4.393,4.393,0,0,0,4.146-.038q9.08-4.559,18.184-9.093c.661-.331,1.323-.674,2-.992a.811.811,0,0,1,.521-.012,3.93,3.93,0,0,1,.8.407,1.408,1.408,0,0,1,.013,2.365,4.277,4.277,0,0,1-.585.318l-22.051,11.025c-.2.1-.42.216-.623.331Z" transform="translate(-1005.297 -2090.762)" fill="#006ce5"/>
      <path id="Path_65874" data-name="Path 65874" d="M1121.564,1864.867c-.026.687-.242,1.183-.737,1.374a1.5,1.5,0,0,0-1.068,1.984,1.24,1.24,0,0,1-.013.61c-.2.623.115.928.636,1.145a3.8,3.8,0,0,1,.5.28,1.385,1.385,0,0,1,.5,1.907c-.941,1.666-1.895,3.332-2.874,4.985a1.3,1.3,0,0,1-1.933.471,1.539,1.539,0,0,0-2.264.076.579.579,0,0,1-.242.14c-.852.229-1.055.788-.979,1.628a1.379,1.379,0,0,1-1.068,1.577,1.959,1.959,0,0,1-.47.051h-5.43a1.4,1.4,0,0,1-1.564-1.6c.063-.852-.127-1.412-.992-1.666a2.492,2.492,0,0,1-.852-.521.692.692,0,0,0-.992-.026c-1.285.89-2.136.827-2.989-.8-.737-1.4-1.577-2.747-2.365-4.12a1.393,1.393,0,0,1,.6-2.187c.737-.356,1.144-.775.941-1.653a2.4,2.4,0,0,1,.013-1.043c.114-.47-.089-.687-.47-.877-1.577-.763-1.679-1.589-.8-2.988.839-1.335,1.59-2.734,2.391-4.107a1.411,1.411,0,0,1,2.2-.585,1.344,1.344,0,0,0,1.933-.026,2.118,2.118,0,0,1,.826-.458c.483-.153.6-.458.56-.928-.153-1.615.559-2.2,2.1-2.136,1.6.064,3.2.013,4.807.013,1.094,0,1.717.559,1.628,1.628-.063.839.127,1.386.979,1.628a1.517,1.517,0,0,1,.61.369c.521.522.992.394,1.564.026,1.132-.725,1.806-.509,2.493.661.852,1.462,1.7,2.938,2.543,4.4C1121.412,1864.4,1121.5,1864.7,1121.564,1864.867Zm-17.04,3.357a4.279,4.279,0,1,0,4.286-4.247A4.288,4.288,0,0,0,1104.524,1868.224Z" transform="translate(-1084.343 -1855.317)" fill="#006ce5"/>
      <path id="Path_65875" data-name="Path 65875" d="M1014.307,1992c1.183,2.048,2.3,4.082,3.51,6.053a4.2,4.2,0,0,0,4.6,1.819q.152-.038.343-.076c.051.14.1.28.14.407a4.266,4.266,0,0,0,4.057,3.027c1.869.012,3.739.012,5.621,0a4.275,4.275,0,0,0,4.26-3.141.656.656,0,0,1,.064-.165,18.068,18.068,0,0,0,2.2-.013,3.7,3.7,0,0,0,2.747-1.78c1.106-1.819,2.136-3.675,3.192-5.506a4.571,4.571,0,0,0,.267-.623.687.687,0,0,1,.191.051q3.872,1.926,7.732,3.866a1.4,1.4,0,0,1,.6,2.174,2.2,2.2,0,0,1-.75.56c-4.057,2.047-8.126,4.069-12.2,6.1-3.344,1.666-6.689,3.331-10.021,5.023a1.982,1.982,0,0,1-1.971.013q-11.121-5.589-22.267-11.139a1.548,1.548,0,0,1-1.03-1.361,1.339,1.339,0,0,1,.788-1.31c2.632-1.323,5.265-2.632,7.91-3.955C1014.295,1992,1014.333,1992,1014.307,1992Z" transform="translate(-1005.381 -1974.578)" fill="#006ce5"/>
      <path id="Path_65876" data-name="Path 65876" d="M1053.984,2074a1.538,1.538,0,0,1-.967,1.36q-3.452,1.717-6.88,3.446c-5.125,2.569-10.262,5.112-15.374,7.694a2.129,2.129,0,0,1-2.1,0q-11.063-5.57-22.139-11.076c-.127-.064-.254-.127-.382-.2a1.413,1.413,0,0,1-.013-2.441,2.5,2.5,0,0,0,.254-.14,1.275,1.275,0,0,1,1.513-.026c6.6,3.332,13.225,6.625,19.838,9.932a4.354,4.354,0,0,0,4.108-.064q9.08-4.559,18.185-9.092c.636-.318,1.284-.623,1.907-.966a.629.629,0,0,1,.738.013c.2.127.432.2.623.33A1.482,1.482,0,0,1,1053.984,2074Z" transform="translate(-1005.242 -2044.677)" fill="#006ce5"/>
      <path id="Path_65877" data-name="Path 65877" d="M1162.6,1927.348a4.286,4.286,0,1,1,4.235,4.311A4.3,4.3,0,0,1,1162.6,1927.348Z" transform="translate(-1142.418 -1914.44)" fill="none"/>
    </g>
  </g>
</svg>
