<svg xmlns="http://www.w3.org/2000/svg" width="37.544" height="44.207" viewBox="0 0 37.544 44.207">
  <g id="Group_23873" data-name="Group 23873" transform="translate(-1371.618 153.012)">
    <path id="Path_78199" data-name="Path 78199" d="M1396.189-130.986a12.08,12.08,0,0,0-6.464,1.934,13.537,13.537,0,0,1-7.849,2.154,15.026,15.026,0,0,1-9.89-4.445,1.468,1.468,0,0,1-.357-1.118c.84-5.554,1.722-11.1,2.595-16.65.143-.913.293-1.825.426-2.739a1.224,1.224,0,0,1,.838-1.1,1.234,1.234,0,0,1,1.322.4,12.811,12.811,0,0,0,6.315,3.435,11.258,11.258,0,0,0,8.386-1.6,15.588,15.588,0,0,1,4.688-1.969,13.083,13.083,0,0,1,11.47,2.97c1.689,1.355,1.649,1.372,1.3,3.5q-1.528,9.306-3.022,18.617-1.424,8.772-2.853,17.544a1.287,1.287,0,0,1-1.433,1.234c-.728-.1-1.1-.746-.961-1.655.05-.322.092-.646.144-.968q1.282-7.887,2.574-15.772a1.026,1.026,0,0,0-.4-1.112A11.27,11.27,0,0,0,1396.189-130.986Z" transform="translate(0)" fill="#fff"/>
  </g>
</svg>
