<svg xmlns="http://www.w3.org/2000/svg" width="132.225" height="55.228" viewBox="0 0 132.225 55.228">
  <g id="git" transform="translate(-0.001 -0.923)">
    <path id="Path_81809" data-name="Path 81809" d="M140.528,19.721c-2.9,0-5.058,1.423-5.058,4.849,0,2.581,1.423,4.373,4.9,4.373,2.949,0,4.952-1.738,4.952-4.481,0-3.108-1.792-4.742-4.8-4.742Zm-5.8,24.191a4.67,4.67,0,0,0-1.37,2.792c0,2.107,2.686,2.741,6.376,2.741,3.056,0,7.22-.214,7.22-3.056,0-1.689-2-1.793-4.534-1.952Zm15.6-24.032a8.358,8.358,0,0,1,1.95,5.323c0,5.849-4.585,9.274-11.223,9.274A16.755,16.755,0,0,1,136.893,34l-1.74,2.792,5.164.316c9.118.581,14.491.845,14.491,7.851,0,6.062-5.321,9.485-14.491,9.485-9.538,0-13.174-2.424-13.174-6.587,0-2.371,1.054-3.634,2.9-5.376a3.511,3.511,0,0,1-2.319-3.476,4.725,4.725,0,0,1,1.529-3.216c.948-1,2-2,3.266-3.161a8.417,8.417,0,0,1-4.532-7.906c0-6.059,4.006-10.22,12.067-10.22a18.057,18.057,0,0,1,4.849.527h10.277v4.477l-4.849.369ZM164.45,10.3c-3,0-4.743-1.74-4.743-4.745S161.445.923,164.45.923c3.056,0,4.8,1.635,4.8,4.636S167.507,10.3,164.45,10.3Zm-6.8,31.668V37.812l2.688-.368c.738-.106.843-.264.843-1.056V20.9c0-.578-.157-.949-.686-1.105l-2.845-1,.579-4.267h10.909V36.388c0,.844.051.949.844,1.056l2.687.368v4.16ZM193.51,39.93a21.073,21.073,0,0,1-8.591,2.107c-6.271,0-8.641-2.527-8.641-8.485v-13.8c0-.316,0-.527-.423-.527h-3.688V14.529c4.639-.528,6.482-2.847,7.061-8.591h5.007v7.485c0,.368,0,.527.422.527h7.429v5.269h-7.852V31.813c0,3.109.739,4.32,3.583,4.32a12.541,12.541,0,0,0,4.268-.842l1.424,4.638" transform="translate(-61.284 0)" fill="#fff"/>
    <path id="Path_81810" data-name="Path 81810" d="M54.145,26.141,30.05,2.048a3.553,3.553,0,0,0-5.026,0l-5,5L26.368,13.4a4.221,4.221,0,0,1,5.345,5.38L37.829,24.9A4.226,4.226,0,1,1,35.3,27.28l-5.7-5.7V36.587a4.273,4.273,0,0,1,1.118.8,4.229,4.229,0,1,1-4.6-.923V21.313a4.177,4.177,0,0,1-1.384-.923,4.228,4.228,0,0,1-.911-4.623L17.563,9.51,1.042,26.029a3.555,3.555,0,0,0,0,5.028L25.137,55.151a3.554,3.554,0,0,0,5.026,0L54.145,31.169a3.557,3.557,0,0,0,0-5.028" transform="translate(0 -0.04)" fill="#fff"/>
  </g>
</svg>
