<svg xmlns="http://www.w3.org/2000/svg" width="122.847" height="45.925" viewBox="0 0 122.847 45.925">
  <g id="go" transform="translate(0 -0.008)">
    <path id="Path_64971" data-name="Path 64971" d="M1195.807,1840h-11.972a1.444,1.444,0,0,1-.476-1.791c1-2.152,1.993-4.333,3.018-6.441a5.778,5.778,0,0,1,.866-1H1207l.968-2.2a25.52,25.52,0,0,1,15.452-14.572,28.577,28.577,0,0,1,11.12-1.689,19.655,19.655,0,0,1,12.824,5.373,26.485,26.485,0,0,1,3.523,4.043,15.642,15.642,0,0,1,2.888,9.2,36.7,36.7,0,0,1-.289,6.513,21.879,21.879,0,0,1-3.813,8.665,26.712,26.712,0,0,1-10.961,9.113,26.184,26.184,0,0,1-13.835,2.412,21.215,21.215,0,0,1-15.525-9.185,27.447,27.447,0,0,1-1.805-3.6c-.13-.275-.246-.563-.462-1.026a5.812,5.812,0,0,0-.679.765,25.272,25.272,0,0,1-12.492,11.207,24.055,24.055,0,0,1-11.827,1.834,21.239,21.239,0,0,1-10.441-4.029,18.774,18.774,0,0,1-7.466-11.207,21.991,21.991,0,0,1,1.256-13.864,28.291,28.291,0,0,1,6.008-8.823,26.2,26.2,0,0,1,14.254-7.408,21.413,21.413,0,0,1,11.553.751,18.774,18.774,0,0,1,11.409,10.889c-1.17.982-5.286,2.224-11.856,3.625-.477-.477-1-1.025-1.56-1.531a9.371,9.371,0,0,0-9.084-2.253,12.623,12.623,0,0,0-9.1,8.333,10.557,10.557,0,0,0,2.267,11.553,9.689,9.689,0,0,0,8.174,2.469,12.044,12.044,0,0,0,8-5.184A4.53,4.53,0,0,0,1195.807,1840Zm33.057,6.2a11.465,11.465,0,0,0,6.325-1.892c4.145-2.311,7.611-7.7,6.2-13.286-1.112-4.433-4.1-7.221-8.391-7.51a13,13,0,0,0-13.763,9.632,10.115,10.115,0,0,0-.52,3.77,9.907,9.907,0,0,0,10.152,9.286Z" transform="translate(-1130.965 -1811.83)" fill="#fff"/>
    <path id="Path_64972" data-name="Path 64972" d="M1141,1825.866a3.091,3.091,0,0,1,3.235-2.253h24.8c.433,0,.866.087,1.559.159l-.664,2.065h-28.883Z" transform="translate(-1141 -1806.605)" fill="#fff"/>
    <path id="Path_64973" data-name="Path 64973" d="M1147.11,1822.155l1.444-2.2h22.24c-.188.419-.318.737-.477,1.025s-.4.635-.751,1.17h-22.442Z" transform="translate(-1138.286 -1808.223)" fill="#fff"/>
    <path id="Path_64974" data-name="Path 64974" d="M1150.94,1829.46l.91-1.791h12.737a1.227,1.227,0,0,1-.188,1.791Z" transform="translate(-1136.585 -1804.798)" fill="#fff"/>
  </g>
</svg>
