<svg id="good-firms" xmlns="http://www.w3.org/2000/svg" xmlns:xlink="http://www.w3.org/1999/xlink" width="134.112" height="53.57" viewBox="0 0 134.112 53.57">
  <defs>
    <clipPath id="clip-path">
      <rect id="Rectangle_8010" data-name="Rectangle 8010" width="11.655" height="12.488" fill="#ef4335"/>
    </clipPath>
  </defs>
  <path id="Path_64987" data-name="Path 64987" d="M8.218,7.241s-1.11-.114-1.11.905v4.525h7.33V14.03a.643.643,0,0,1-.666.679H7.108v5.883h8a5.916,5.916,0,0,0,4.886-5.883V7.241ZM19.768,0H5.331C.11,1.267,0,5.679,0,5.679V20.591H5.554V7.015a1.376,1.376,0,0,1,1.11-1.357H19.769V0Zm19.06,16.324c-.381.262-.663.454-.862.577a15.256,15.256,0,0,1-2.02,1.083,6.384,6.384,0,0,1-2.451.577,8.687,8.687,0,0,1-6.245-2.377,7.9,7.9,0,0,1-2.5-5.993A8.844,8.844,0,0,1,27,4.144a7.019,7.019,0,0,1,5.482-2.551,8.975,8.975,0,0,1,2.848.49A7.83,7.83,0,0,1,38.5,3.952L37.056,5.594a5.519,5.519,0,0,0-2.335-1.345,7.913,7.913,0,0,0-2.3-.314A4.718,4.718,0,0,0,28.626,5.8,6.937,6.937,0,0,0,27.1,10.295a5.727,5.727,0,0,0,1.738,4.282,6.065,6.065,0,0,0,4.422,1.712,4.421,4.421,0,0,0,2.286-.716c.646-.507.978-.752.994-.77V11.221H31.707L32.4,8.985h6.427Zm14.608-4.369a6.313,6.313,0,0,1-1.789,4.491,5.95,5.95,0,0,1-8.7.035,6.162,6.162,0,0,1-1.822-4.509A6.575,6.575,0,0,1,42.87,7.429a5.489,5.489,0,0,1,4.256-1.922,5.959,5.959,0,0,1,4.538,1.852A6.325,6.325,0,0,1,53.436,11.955Zm-2.27.035a4.166,4.166,0,0,0-1.142-2.971A3.7,3.7,0,0,0,47.192,7.8a3.477,3.477,0,0,0-2.7,1.259,4.206,4.206,0,0,0-1.11,2.883,4.114,4.114,0,0,0,1.126,2.9,3.665,3.665,0,0,0,2.8,1.223,3.593,3.593,0,0,0,2.7-1.206,3.983,3.983,0,0,0,1.159-2.865Zm16.678-.035a6.313,6.313,0,0,1-1.789,4.491,5.95,5.95,0,0,1-8.7.035,6.165,6.165,0,0,1-1.822-4.509,6.575,6.575,0,0,1,1.739-4.544,5.49,5.49,0,0,1,4.256-1.922,5.959,5.959,0,0,1,4.538,1.852A6.325,6.325,0,0,1,67.845,11.955Zm-2.269.035a4.166,4.166,0,0,0-1.142-2.971A3.7,3.7,0,0,0,61.6,7.8a3.477,3.477,0,0,0-2.7,1.259,4.206,4.206,0,0,0-1.11,2.883,4.11,4.11,0,0,0,1.127,2.9,3.661,3.661,0,0,0,2.8,1.223,3.592,3.592,0,0,0,2.7-1.206,3.983,3.983,0,0,0,1.159-2.865ZM81.178,18l-2.087.332v-2.08l-.447.524a5.479,5.479,0,0,1-1.325.944,5.222,5.222,0,0,1-2.269.507,5.385,5.385,0,0,1-4.141-1.853,6.346,6.346,0,0,1-1.689-4.42,6.651,6.651,0,0,1,1.673-4.544,5.235,5.235,0,0,1,4.091-1.888A5.721,5.721,0,0,1,77.4,6a4.105,4.105,0,0,1,1.242.892c.116.157.232.331.348.488V1.924l2.218-.332Zm-1.954-5.889a4.272,4.272,0,0,0-1.209-3.093,3.693,3.693,0,0,0-2.765-1.276,3.552,3.552,0,0,0-2.8,1.206,4.177,4.177,0,0,0-1.011,2.813,4.54,4.54,0,0,0,1.043,3.075,3.342,3.342,0,0,0,2.65,1.206,4.052,4.052,0,0,0,2.816-1.118,3.682,3.682,0,0,0,1.276-2.814ZM92.887,4.2H86.677V8.547H91.5v2.237H86.677v7.2l-2.418.367V1.941h8.148ZM97.873,2.92,96.382,4.86,94.958,2.92,96.465,1ZM97.425,18l-2.219.315V6.171l2.219-.349V18ZM107.446,5.7,106.4,8.18a2.832,2.832,0,0,0-.414-.034,4.115,4.115,0,0,0-.646.052,2.493,2.493,0,0,0-.695.245,2.756,2.756,0,0,0-1.209,1.345,5.569,5.569,0,0,0-.58,2.5v5.7l-2.219.367V6.171l2.054-.384V8.32c.264-.437.546-.874.81-1.328a3.293,3.293,0,0,1,1.325-.98,10.134,10.134,0,0,1,2.617-.314ZM123.974,18l-2.219.332V10a2.377,2.377,0,0,0-.5-1.678,2.175,2.175,0,0,0-3.246.472,2.848,2.848,0,0,0-.415,1.433v7.759l-2.219.42V10.05a2.588,2.588,0,0,0-.481-1.677,1.645,1.645,0,0,0-1.325-.578h-.215a1.756,1.756,0,0,0-1.69,1.014,4.176,4.176,0,0,0-.4,1.94v7.234l-2.3.42V6.171l2.07-.367V7.359a4.777,4.777,0,0,1,.679-.874,2.89,2.89,0,0,1,2.07-.857,3.555,3.555,0,0,1,1.971.437,3.747,3.747,0,0,1,1.11,1.433,3.615,3.615,0,0,1,3.263-1.87,3.524,3.524,0,0,1,3.03,1.329,5.369,5.369,0,0,1,.812,3.233Zm10.138-3.687a3.634,3.634,0,0,1-1.142,2.761,3.977,3.977,0,0,1-2.883,1.083,4.553,4.553,0,0,1-2.369-.629,4.477,4.477,0,0,1-1.589-1.45l1.557-1.433a3.107,3.107,0,0,0,.314.419,2.783,2.783,0,0,0,2.086.927,1.866,1.866,0,0,0,1.325-.454,1.6,1.6,0,0,0,.481-1.259q0-.916-1.143-1.258-2.261-.707-2.435-.786a4.242,4.242,0,0,1-1.508-1.188,3.5,3.5,0,0,1-.529-2.027A3.451,3.451,0,0,1,127.4,6.4a3.756,3.756,0,0,1,2.666-1.032,4.4,4.4,0,0,1,2.17.542,3.738,3.738,0,0,1,1.424,1.206L132.339,8.6a4.829,4.829,0,0,0-.645-.559,2.634,2.634,0,0,0-1.523-.577,1.945,1.945,0,0,0-1.143.314,1.361,1.361,0,0,0-.531,1.154,1.2,1.2,0,0,0,.514,1.084,7,7,0,0,0,1.922.628,4.489,4.489,0,0,1,2.3,1.259A3.254,3.254,0,0,1,134.112,14.314Z" transform="translate(0 0)" fill="#fff"/>
  <g id="Group_10411" data-name="Group 10411" transform="translate(0.139 30.804)">
    <g id="Group_10405" data-name="Group 10405" transform="translate(0 0)">
      <path id="Path_65003" data-name="Path 65003" d="M6.426.959l1.4,4.285h4.519L8.686,7.892l1.4,4.285L6.426,9.529,2.769,12.177l1.4-4.285L.51,5.244H5.029Z" transform="translate(-0.392 -0.619)" fill="#ef4335"/>
      <g id="Group_10404" data-name="Group 10404" transform="translate(0 0)" clip-path="url(#clip-path)">
        <path id="Path_65004" data-name="Path 65004" d="M6.431.959l1.4,4.285h4.52L8.691,7.892l1.4,4.285L6.431,9.529,2.775,12.177l1.4-4.285L.515,5.244H5.034Z" transform="translate(-0.393 -0.619)" fill="#ef4335"/>
      </g>
    </g>
    <g id="Group_10406" data-name="Group 10406" transform="translate(17.483 0)">
      <path id="Path_65003-2" data-name="Path 65003" d="M6.426.959l1.4,4.285h4.519L8.686,7.892l1.4,4.285L6.426,9.529,2.769,12.177l1.4-4.285L.51,5.244H5.029Z" transform="translate(-0.392 -0.619)" fill="#ef4335"/>
      <g id="Group_10404-2" data-name="Group 10404" transform="translate(0 0)" clip-path="url(#clip-path)">
        <path id="Path_65004-2" data-name="Path 65004" d="M6.431.959l1.4,4.285h4.52L8.691,7.892l1.4,4.285L6.431,9.529,2.775,12.177l1.4-4.285L.515,5.244H5.034Z" transform="translate(-0.393 -0.619)" fill="#ef4335"/>
      </g>
    </g>
    <g id="Group_10407" data-name="Group 10407" transform="translate(34.966 0)">
      <path id="Path_65003-3" data-name="Path 65003" d="M6.426.959l1.4,4.285h4.519L8.686,7.892l1.4,4.285L6.426,9.529,2.769,12.177l1.4-4.285L.51,5.244H5.029Z" transform="translate(-0.392 -0.619)" fill="#ef4335"/>
      <g id="Group_10404-3" data-name="Group 10404" transform="translate(0 0)" clip-path="url(#clip-path)">
        <path id="Path_65004-3" data-name="Path 65004" d="M6.431.959l1.4,4.285h4.52L8.691,7.892l1.4,4.285L6.431,9.529,2.775,12.177l1.4-4.285L.515,5.244H5.034Z" transform="translate(-0.393 -0.619)" fill="#ef4335"/>
      </g>
    </g>
    <g id="Group_10408" data-name="Group 10408" transform="translate(51.616 0)">
      <path id="Path_65003-4" data-name="Path 65003" d="M6.426.959l1.4,4.285h4.519L8.686,7.892l1.4,4.285L6.426,9.529,2.769,12.177l1.4-4.285L.51,5.244H5.029Z" transform="translate(-0.392 -0.619)" fill="#ef4335"/>
      <g id="Group_10404-4" data-name="Group 10404" transform="translate(0 0)" clip-path="url(#clip-path)">
        <path id="Path_65004-4" data-name="Path 65004" d="M6.431.959l1.4,4.285h4.52L8.691,7.892l1.4,4.285L6.431,9.529,2.775,12.177l1.4-4.285L.515,5.244H5.034Z" transform="translate(-0.393 -0.619)" fill="#ef4335"/>
      </g>
    </g>
    <g id="Group_10409" data-name="Group 10409" transform="translate(69.099 0)">
      <path id="Path_65003-5" data-name="Path 65003" d="M6.426.959l1.4,4.285h4.519L8.686,7.892l1.4,4.285L6.426,9.529,2.769,12.177l1.4-4.285L.51,5.244H5.029Z" transform="translate(-0.392 -0.619)" fill="#ef4335"/>
      <g id="Group_10404-5" data-name="Group 10404" transform="translate(0 0)" clip-path="url(#clip-path)">
        <path id="Path_65004-5" data-name="Path 65004" d="M6.431.959l1.4,4.285h4.52L8.691,7.892l1.4,4.285L6.431,9.529,2.775,12.177l1.4-4.285L.515,5.244H5.034Z" transform="translate(-0.393 -0.619)" fill="#ef4335"/>
      </g>
    </g>
  </g>
  <text id="REVIEWED_ON_CLUTCH" data-name="REVIEWED ON CLUTCH" transform="translate(0 51.57)" fill="#fff" font-size="7" font-family="SegoeUI, Segoe UI"><tspan x="0" y="0">REVIEWED ON CLUTCH</tspan></text>
</svg>
