<svg id="Artboard" xmlns="http://www.w3.org/2000/svg" width="355.265" height="55.728" viewBox="0 0 355.265 55.728">
  <g id="google-cloud-3" transform="translate(0 0)">
    <path id="Path" d="M40.46,14.274h2.006l5.716-5.6L48.463,6.3A26.1,26.1,0,0,0,24.082,1.061,25.414,25.414,0,0,0,6.667,18.576a3.17,3.17,0,0,1,2.006-.118L20.1,16.611s.582-.943.882-.884A14.473,14.473,0,0,1,40.5,14.274Z" transform="translate(2.621 0)" fill="#f1f1f1"/>
    <path id="Path-2" data-name="Path" d="M49.9,17.507A25.689,25.689,0,0,0,42.044,5l-8.117,8.017a14.18,14.18,0,0,1,5.3,11.3v1.423a7.136,7.136,0,1,1,0,14.271H24.774l-1.441,1.443v8.558l1.441,1.423H39.223A18.769,18.769,0,0,0,57.316,38.387,18.441,18.441,0,0,0,49.9,17.507Z" transform="translate(9.175 1.966)" fill="#fff"/>
    <path id="Path-3" data-name="Path" d="M16.234,41.61H30.542V30.617H16.234A7.37,7.37,0,0,1,13.279,30l-2.01.6L5.5,36.094,5,38.023A19.026,19.026,0,0,0,16.234,41.61Z" transform="translate(1.966 11.796)" fill="#fff"/>
    <path id="Path-4" data-name="Path" d="M19.332,10A19.427,19.427,0,0,0,7.592,44.83l8.673-8.666a7.471,7.471,0,1,1,9.891-9.882l8.673-8.666A19.432,19.432,0,0,0,19.332,10Z" transform="translate(0 3.932)" fill="#fff"/>
    <g id="Group" transform="translate(85.914 6.966)">
      <path id="Shape" d="M18.766,37.839A18.056,18.056,0,0,1,5.549,32.3,18.17,18.17,0,0,1,0,18.971,18.191,18.191,0,0,1,5.549,5.643,18.061,18.061,0,0,1,18.766,0,17.516,17.516,0,0,1,31.442,5.214l-3.565,3.7a12.7,12.7,0,0,0-9.112-3.679A12.574,12.574,0,0,0,9.354,9.323a13.493,13.493,0,0,0-3.865,9.71A13.491,13.491,0,0,0,9.354,28.62a13.243,13.243,0,0,0,18.744.225,10.984,10.984,0,0,0,2.744-6.357H18.826V17.254h17a16.927,16.927,0,0,1,.2,3.189A16.55,16.55,0,0,1,31.643,32.5a16.867,16.867,0,0,1-12.877,5.335ZM58.3,34.364a12.077,12.077,0,0,1-16.962,0,11.777,11.777,0,0,1-3.464-8.688,11.8,11.8,0,0,1,3.464-8.688,12.1,12.1,0,0,1,16.962,0,11.8,11.8,0,0,1,3.465,8.688,11.776,11.776,0,0,1-3.485,8.688ZM45.08,30.95a6.4,6.4,0,0,0,9.472,0,7.361,7.361,0,0,0,2-5.274,7.382,7.382,0,0,0-2-5.294,6.5,6.5,0,0,0-9.512,0,7.382,7.382,0,0,0-2,5.294A7.361,7.361,0,0,0,45.06,30.95Zm39.291,3.414a12.077,12.077,0,0,1-16.962,0,11.776,11.776,0,0,1-3.464-8.688,11.8,11.8,0,0,1,3.464-8.688,12.077,12.077,0,0,1,16.962,0,11.8,11.8,0,0,1,3.464,8.688,11.776,11.776,0,0,1-3.464,8.688ZM71.154,30.95a6.4,6.4,0,0,0,9.472,0,7.361,7.361,0,0,0,2-5.274,7.382,7.382,0,0,0-2-5.294,6.5,6.5,0,0,0-9.512,0,7.382,7.382,0,0,0-2,5.294,7.36,7.36,0,0,0,2.023,5.274Zm30.359,17.8a10.349,10.349,0,0,1-6.669-2.167,12.491,12.491,0,0,1-3.885-5.029l4.566-1.942a7.834,7.834,0,0,0,2.263,3.046,5.633,5.633,0,0,0,3.745,1.288,5.942,5.942,0,0,0,4.666-1.84,7.565,7.565,0,0,0,1.662-5.315V35.038h-.18a7.559,7.559,0,0,1-6.268,2.76,10.773,10.773,0,0,1-8.01-3.557,11.88,11.88,0,0,1-3.424-8.565A12.006,12.006,0,0,1,93.4,17.05a10.754,10.754,0,0,1,8.01-3.577,8.466,8.466,0,0,1,3.685.838,7.42,7.42,0,0,1,2.6,1.942h.18V14.311h4.966v21.77a12.859,12.859,0,0,1-3.184,9.505,11.087,11.087,0,0,1-8.15,3.168Zm.36-15.7a5.776,5.776,0,0,0,4.526-2.044,7.66,7.66,0,0,0,1.822-5.233,7.828,7.828,0,0,0-1.822-5.335,5.756,5.756,0,0,0-4.526-2.044,6.129,6.129,0,0,0-4.686,2.044,7.548,7.548,0,0,0-2,5.294,7.4,7.4,0,0,0,2,5.233,6.15,6.15,0,0,0,4.686,2.085ZM121.679,1.371V37.1h-5.227V1.371Zm14.339,36.468a11.257,11.257,0,0,1-8.431-3.5,11.967,11.967,0,0,1-3.384-8.667,12.119,12.119,0,0,1,3.264-8.749,10.627,10.627,0,0,1,8.01-3.414,9.936,9.936,0,0,1,4.005.8,9.411,9.411,0,0,1,3.064,2.044,14.283,14.283,0,0,1,2,2.473,14.845,14.845,0,0,1,1.181,2.392l.541,1.39-16.021,6.725a6,6,0,0,0,5.767,3.68,6.8,6.8,0,0,0,5.868-3.373l4.005,2.76a13.329,13.329,0,0,1-3.845,3.72,10.73,10.73,0,0,1-6.028,1.717Zm-6.689-12.531,10.653-4.518a3.729,3.729,0,0,0-1.662-1.86,5.339,5.339,0,0,0-2.744-.715,6.131,6.131,0,0,0-4.306,1.942,6.553,6.553,0,0,0-1.943,5.151Zm44.317,12.531a16.327,16.327,0,0,1-11.987-4.966,17.031,17.031,0,0,1-4.794-12.266A17.031,17.031,0,0,1,161.66,8.341a16.327,16.327,0,0,1,11.987-4.966,14.807,14.807,0,0,1,11.876,5.4l-2.884,2.862a10.8,10.8,0,0,0-8.971-4.191,12.107,12.107,0,0,0-8.912,3.639,12.9,12.9,0,0,0-3.625,9.526,12.9,12.9,0,0,0,3.625,9.526,12.107,12.107,0,0,0,8.912,3.638,12.637,12.637,0,0,0,10.013-4.783l2.884,2.944a15.787,15.787,0,0,1-5.548,4.313,16.693,16.693,0,0,1-7.37,1.595Zm20.667-.736h-4.145V4.09h4.145Zm6.77-19.869a11.428,11.428,0,0,1,16.341,0,12.1,12.1,0,0,1,3.2,8.585,12.1,12.1,0,0,1-3.2,8.585,11.428,11.428,0,0,1-16.341,0,12.1,12.1,0,0,1-3.2-8.585,12.1,12.1,0,0,1,3.2-8.585Zm3.083,14.513a6.893,6.893,0,0,0,10.154,0,8.271,8.271,0,0,0,2.143-5.928,8.271,8.271,0,0,0-2.143-5.928,6.892,6.892,0,0,0-10.154,0,8.283,8.283,0,0,0-2.143,5.928,8.281,8.281,0,0,0,2.164,5.908ZM243.6,37.1h-4.005V33.975h-.12a7.782,7.782,0,0,1-2.924,2.821,8.038,8.038,0,0,1-4.1,1.124,7.712,7.712,0,0,1-6.289-2.576,10.363,10.363,0,0,1-2.143-6.909v-13.9h4.146V27.659q0,6.316,5.467,6.316a5.046,5.046,0,0,0,4.2-2.044,7.8,7.8,0,0,0,1.623-4.886V14.535H243.6Zm14.078.736a9.648,9.648,0,0,1-7.409-3.455,12.412,12.412,0,0,1-3.1-8.565,12.412,12.412,0,0,1,3.1-8.565,9.647,9.647,0,0,1,7.409-3.455,9.242,9.242,0,0,1,4.526,1.1,7.728,7.728,0,0,1,3,2.76h.18l-.18-3.128V4.09h4.145V37.1h-4.005V33.975h-.18a7.726,7.726,0,0,1-3,2.76,9.24,9.24,0,0,1-4.486,1.1Zm.681-3.863a6.547,6.547,0,0,0,4.986-2.208,8.383,8.383,0,0,0,2-5.949,8.383,8.383,0,0,0-2-5.949,6.677,6.677,0,0,0-10.013,0,8.282,8.282,0,0,0-2,5.928,8.282,8.282,0,0,0,2,5.928,6.549,6.549,0,0,0,5.027,2.249Z" transform="translate(0 0)" fill="#fff"/>
    </g>
  </g>
</svg>
