<svg id="Group_26941" data-name="Group 26941" xmlns="http://www.w3.org/2000/svg" width="39.742" height="39.742" viewBox="0 0 39.742 39.742">
  <path id="Path_82359" data-name="Path 82359" d="M35.454,100.862l-4.4,5.759a4.658,4.658,0,0,1-3.7,1.828H19.172a1.164,1.164,0,1,1,0-2.329H26.26a2.76,2.76,0,0,0,2.77-2.77,2.717,2.717,0,0,0-2.716-2.664h-8.15a6.743,6.743,0,0,0-8.593-.626l-.877.626v13.2H28.942a6.986,6.986,0,0,0,5.876-3.208l4.544-7.068a2.39,2.39,0,0,0-3.909-2.744ZM5.2,98.359H1.164A1.164,1.164,0,0,0,0,99.523v15.524a1.164,1.164,0,0,0,1.164,1.164H5.2a1.164,1.164,0,0,0,1.164-1.164V99.523A1.164,1.164,0,0,0,5.2,98.359ZM22.224,82.9a1.156,1.156,0,0,0-.412.7.8.8,0,0,0,.2.779q.1.08.212.149Z" transform="translate(0 -76.47)" fill="#006ce5"/>
  <path id="Path_82360" data-name="Path 82360" d="M181.7,19.405A9.7,9.7,0,1,0,172,9.7,9.714,9.714,0,0,0,181.7,19.405Zm-2.937-6.53a.776.776,0,0,1,1.075-.225,2.35,2.35,0,0,0,1.033.442V9.815a5.725,5.725,0,0,1-1.17-.684,2.323,2.323,0,0,1-.768-2.288,2.615,2.615,0,0,1,1.793-2.05l.145-.041V4.269a.776.776,0,1,1,1.552,0v.4a2.7,2.7,0,0,1,1.544.8A.776.776,0,0,1,182.8,6.49a1.069,1.069,0,0,0-.378-.224V8.774c.138.051.275.1.411.149a2.778,2.778,0,0,1,1.888,3.143,3.157,3.157,0,0,1-2.3,2.515v.556a.776.776,0,0,1-1.552,0v-.481a3.758,3.758,0,0,1-1.883-.705A.776.776,0,0,1,178.766,12.875Z" transform="translate(-158.649 0)" fill="#006ce5"/>
  <path id="Path_82361" data-name="Path 82361" d="M307.077,135.719a1.2,1.2,0,0,0-.768-1.38v2.493A1.6,1.6,0,0,0,307.077,135.719Z" transform="translate(-282.533 -123.911)" fill="#006ce5"/>
</svg>
