<svg xmlns="http://www.w3.org/2000/svg" width="79.006" height="66.954" viewBox="0 0 79.006 66.954">
  <g id="Group_25939" data-name="Group 25939" transform="translate(-8656.455 -131.874)">
    <g id="Path_79989" data-name="Path 79989" transform="translate(-0.001)" fill="#fff">
      <path d="M 8695.9345703125 198.3279876708984 C 8695.458984375 198.3280029296875 8695.0029296875 198.0775146484375 8694.650390625 197.6226959228516 C 8690.111328125 191.7548370361328 8684.5263671875 187.1958312988281 8678.224609375 182.2649993896484 C 8674.2060546875 179.1219787597656 8670.5947265625 176.2619323730469 8667.1044921875 173.0875244140625 C 8662.203125 168.6313629150391 8658.9814453125 163.3690643310547 8657.5283203125 157.4468994140625 C 8656.8720703125 154.7705535888672 8656.78125 152.0309906005859 8657.2578125 149.3042297363281 C 8657.716796875 146.6801910400391 8658.67578125 144.193359375 8660.109375 141.9127960205078 C 8661.544921875 139.6304016113281 8663.3720703125 137.6859283447266 8665.5400390625 136.1333618164062 C 8667.79296875 134.5204162597656 8670.3037109375 133.4139709472656 8673.001953125 132.8447418212891 C 8674.482421875 132.5325317382812 8675.9853515625 132.3742218017578 8677.4697265625 132.3742218017578 C 8685.3525390625 132.3742218017578 8692.3955078125 136.7854156494141 8695.94921875 143.9158325195312 C 8697.4658203125 140.8726348876953 8699.509765625 138.4186859130859 8702.173828125 136.4361572265625 C 8705.724609375 133.7947082519531 8709.9208984375 132.3985290527344 8714.30859375 132.3985290527344 C 8718.9521484375 132.3985290527344 8723.529296875 133.9754638671875 8727.1953125 136.8388519287109 C 8729.0673828125 138.3003540039062 8730.6474609375 140.0493621826172 8731.892578125 142.0372924804688 C 8733.201171875 144.1258087158203 8734.109375 146.4352874755859 8734.59375 148.9016265869141 C 8735.4619140625 153.3297882080078 8734.794921875 157.80224609375 8732.5537109375 162.5747375488281 C 8730.4267578125 167.1041564941406 8727.37109375 171.0540161132812 8723.470703125 174.3146362304688 C 8719.9375 177.2687530517578 8716.26953125 180.1766967773438 8712.72265625 182.9889068603516 C 8712.01953125 183.5457763671875 8711.3173828125 184.1026306152344 8710.615234375 184.6600952148438 C 8706.591796875 187.8544921875 8701.4375 192.2103729248047 8697.26953125 197.5859222412109 C 8696.8974609375 198.0645904541016 8696.423828125 198.3279876708984 8695.9345703125 198.3279876708984 Z M 8677.490234375 135.5163269042969 C 8676.2109375 135.5163269042969 8674.916015625 135.655029296875 8673.6396484375 135.9285736083984 C 8665.671875 137.6373596191406 8658.4658203125 146.047119140625 8660.4384765625 155.8426971435547 C 8661.3310546875 160.2712707519531 8663.427734375 164.3541564941406 8666.84765625 168.3245849609375 C 8669.8349609375 171.7959899902344 8673.3603515625 174.6033782958984 8677.01171875 177.4107513427734 C 8677.376953125 177.6909637451172 8677.7412109375 177.9710083007812 8678.1064453125 178.2510223388672 C 8684.3310546875 183.0254211425781 8690.7626953125 187.9582672119141 8695.9384765625 194.2274017333984 C 8699.130859375 190.3807220458984 8703.080078125 186.6344604492188 8708.33984375 182.4626770019531 C 8709.1904296875 181.7881469726562 8710.041015625 181.1145935058594 8710.892578125 180.4410095214844 C 8714.1494140625 177.8645324707031 8717.5166015625 175.2003326416016 8720.7763671875 172.5224304199219 C 8724.4072265625 169.5421752929688 8727.263671875 166.0294342041016 8729.2666015625 162.0816497802734 C 8731.310546875 158.0513763427734 8732.0908203125 154.2688751220703 8731.6513671875 150.5181427001953 C 8730.68359375 142.2354431152344 8723.0400390625 135.4970092773438 8714.6123046875 135.4970092773438 C 8713.748046875 135.4970092773438 8712.880859375 135.5688018798828 8712.033203125 135.7103881835938 C 8704.5478515625 136.9612274169922 8699.669921875 141.3391571044922 8697.53515625 148.7225952148438 C 8697.423828125 149.1081695556641 8697.1279296875 150.1328735351562 8695.9462890625 150.1329193115234 L 8695.9345703125 150.1328735351562 C 8694.712890625 150.126220703125 8694.439453125 149.0482482910156 8694.349609375 148.6940155029297 C 8692.30859375 140.81298828125 8685.5341796875 135.5163269042969 8677.490234375 135.5163269042969 Z" stroke="none"/>
      <path d="M 8677.4697265625 132.8742218017578 C 8676.033203125 132.8742218017578 8674.572265625 133.0244750976562 8673.10546875 133.3339691162109 C 8662.333984375 135.606201171875 8655.3916015625 146.6336059570312 8658.013671875 157.3277587890625 C 8659.517578125 163.4573516845703 8662.83984375 168.5343627929688 8667.44140625 172.7176513671875 C 8670.9833984375 175.9395141601562 8674.7568359375 178.9181365966797 8678.533203125 181.8712310791016 C 8684.4951171875 186.5367889404297 8690.373046875 191.2764434814453 8695.0458984375 197.3165893554688 C 8695.5859375 198.0150604248047 8696.3203125 197.9936676025391 8696.8740234375 197.2795104980469 C 8700.732421875 192.3041534423828 8705.396484375 188.1646881103516 8710.3046875 184.2686004638672 C 8714.607421875 180.8504028320312 8718.93359375 177.4559478759766 8723.150390625 173.9310302734375 C 8726.962890625 170.7436981201172 8729.9794921875 166.8813018798828 8732.1015625 162.3622436523438 C 8734.09765625 158.1106719970703 8735.021484375 153.6812286376953 8734.103515625 148.9979858398438 C 8731.287109375 134.6598510742188 8714.2158203125 128.1014556884766 8702.47265625 136.8372650146484 C 8699.615234375 138.9637451171875 8697.4765625 141.6668243408203 8695.962890625 145.0570831298828 C 8695.8232421875 144.7840728759766 8695.7470703125 144.6456451416016 8695.6787109375 144.5034942626953 C 8692.2197265625 137.2216339111328 8685.1982421875 132.8742218017578 8677.4697265625 132.8742218017578 M 8695.904296875 194.9752349853516 C 8690.412109375 188.1815643310547 8683.521484375 183.0423126220703 8676.70703125 177.8071594238281 C 8673.072265625 175.012939453125 8669.4765625 172.1464996337891 8666.46875 168.6509094238281 C 8663.27734375 164.9459838867188 8660.927734375 160.801025390625 8659.9482421875 155.9413909912109 C 8657.994140625 146.2367401123047 8664.7578125 137.3220672607422 8673.53515625 135.4396820068359 C 8674.8681640625 135.1538848876953 8676.19140625 135.0162048339844 8677.490234375 135.0163269042969 C 8685.5859375 135.0170745849609 8692.7099609375 140.3668060302734 8694.833984375 148.5710754394531 C 8694.984375 149.1639862060547 8695.2421875 149.6291046142578 8695.9375 149.6328887939453 C 8695.9404296875 149.6329040527344 8695.943359375 149.6329193115234 8695.9462890625 149.6329193115234 C 8696.634765625 149.6329193115234 8696.8857421875 149.1698608398438 8697.0546875 148.5837249755859 C 8699.23828125 141.0305328369141 8704.21875 136.5092315673828 8711.951171875 135.2172241210938 C 8721.4873046875 133.6234588623047 8731.029296875 140.8827819824219 8732.1484375 150.4600524902344 C 8732.640625 154.6687622070312 8731.6015625 158.5826873779297 8729.712890625 162.3078765869141 C 8727.60546875 166.4615325927734 8724.67578125 169.9687652587891 8721.09375 172.9087829589844 C 8716.9921875 176.2782440185547 8712.810546875 179.5547485351562 8708.650390625 182.8544006347656 C 8704.111328125 186.4547729492188 8699.8076171875 190.2987518310547 8696.12109375 194.7922821044922 C 8696.0791015625 194.8432312011719 8696.01953125 194.8793334960938 8695.904296875 194.9752349853516 M 8677.4697265625 131.8742218017578 C 8685.2255859375 131.8742218017578 8692.1865234375 136.0416259765625 8695.9482421875 142.8399810791016 C 8697.4482421875 140.1154327392578 8699.400390625 137.8770294189453 8701.8759765625 136.0350189208984 C 8705.5126953125 133.3292083740234 8709.8125 131.8988647460938 8714.30859375 131.8985290527344 C 8714.3095703125 131.8985290527344 8714.310546875 131.8985290527344 8714.310546875 131.8985290527344 C 8719.064453125 131.8983612060547 8723.7490234375 133.5128021240234 8727.50390625 136.4445037841797 C 8729.4208984375 137.9419708251953 8731.0400390625 139.7343292236328 8732.31640625 141.7717742919922 C 8733.6572265625 143.9123229980469 8734.5888671875 146.2787322998047 8735.0849609375 148.8052368164062 C 8735.9736328125 153.3416442871094 8735.2939453125 157.9150695800781 8733.0068359375 162.7872314453125 C 8730.8486328125 167.3831481933594 8727.748046875 171.3905639648438 8723.7919921875 174.6982421875 C 8720.2529296875 177.6566009521484 8716.58203125 180.5666961669922 8713.0322265625 183.3809509277344 C 8712.330078125 183.9376525878906 8711.6279296875 184.4943084716797 8710.9267578125 185.0515899658203 C 8706.9248046875 188.2286529541016 8701.7998046875 192.5590667724609 8697.6640625 197.892333984375 C 8697.1953125 198.4959716796875 8696.5810546875 198.8280029296875 8695.9345703125 198.8280029296875 C 8695.30078125 198.8280029296875 8694.7041015625 198.5086364746094 8694.2548828125 197.9287872314453 C 8689.7509765625 192.1064300537109 8684.19140625 187.5685424804688 8677.9169921875 182.6587524414062 C 8673.8896484375 179.5095825195312 8670.271484375 176.6434020996094 8666.7685546875 173.4573974609375 C 8661.7919921875 168.9332427978516 8658.51953125 163.5865478515625 8657.0419921875 157.5660400390625 C 8656.3701171875 154.822021484375 8656.2763671875 152.013427734375 8656.765625 149.2181091308594 C 8657.2353515625 146.5298309326172 8658.2177734375 143.9824523925781 8659.6865234375 141.6466827392578 C 8661.15625 139.30908203125 8663.02734375 137.3173370361328 8665.2490234375 135.726806640625 C 8667.55859375 134.0733642578125 8670.1328125 132.9390869140625 8672.8994140625 132.3554992675781 C 8674.4130859375 132.0361480712891 8675.9501953125 131.8742218017578 8677.4697265625 131.8742218017578 Z M 8695.939453125 193.4481811523438 C 8699.0849609375 189.7354278564453 8702.951171875 186.0989227294922 8708.029296875 182.0709381103516 C 8708.8798828125 181.3962860107422 8709.7314453125 180.7225952148438 8710.5830078125 180.0489044189453 C 8713.8369140625 177.4738159179688 8717.203125 174.8110656738281 8720.458984375 172.1360778808594 C 8724.0361328125 169.1998901367188 8726.849609375 165.7410736083984 8728.8212890625 161.8554229736328 C 8730.818359375 157.9157562255859 8731.58203125 154.2262115478516 8731.1552734375 150.5762023925781 C 8730.2158203125 142.5371551513672 8722.794921875 135.9970092773438 8714.6123046875 135.9970092773438 C 8713.7763671875 135.9970092773438 8712.9365234375 136.0664978027344 8712.1162109375 136.2035522460938 C 8704.8359375 137.4199523925781 8700.091796875 141.6786956787109 8698.015625 148.8614501953125 C 8697.91796875 149.2000122070312 8697.763671875 149.6353607177734 8697.4384765625 149.9966430664062 C 8697.064453125 150.4128875732422 8696.548828125 150.6329193115234 8695.9462890625 150.6329193115234 L 8695.93359375 150.6328735351562 C 8695.1982421875 150.6288757324219 8694.2431640625 150.3105773925781 8693.8642578125 148.8169250488281 C 8691.8828125 141.1631317138672 8685.302734375 136.0170440673828 8677.490234375 136.0163269042969 C 8676.24609375 136.0163269042969 8674.986328125 136.1512756347656 8673.7451171875 136.4174652099609 C 8666.009765625 138.0762329101562 8659.0146484375 146.2379760742188 8660.9287109375 155.7439880371094 C 8661.8037109375 160.0861206054688 8663.8642578125 164.0945739746094 8667.2265625 167.9982757568359 C 8670.1826171875 171.4338989257812 8673.6865234375 174.2234802246094 8677.31640625 177.0143432617188 C 8677.6806640625 177.2944030761719 8678.0458984375 177.5743865966797 8678.4111328125 177.8543548583984 C 8684.5048828125 182.5285186767578 8690.796875 187.3544616699219 8695.939453125 193.4481811523438 Z" stroke="none" fill="#fff"/>
    </g>
    <g id="Path_79990" data-name="Path 79990" transform="translate(-149.366 -128.107)" fill="#fff">
      <path d="M 8845.310546875 310.5959167480469 C 8844.30859375 310.5959167480469 8843.291015625 310.5898132324219 8842.2861328125 310.5778198242188 C 8841.201171875 310.5647888183594 8840.2685546875 310.1940002441406 8839.5888671875 309.5055541992188 C 8838.912109375 308.8198852539062 8838.546875 307.8812866210938 8838.5341796875 306.7912292480469 C 8838.521484375 305.7735900878906 8838.5244140625 304.771484375 8838.52734375 303.7105407714844 C 8838.5283203125 303.4036865234375 8838.529296875 303.0941467285156 8838.5302734375 302.7812194824219 C 8838.2265625 302.7813110351562 8837.9267578125 302.7814331054688 8837.6298828125 302.7815551757812 C 8837.1865234375 302.78173828125 8836.7490234375 302.7819213867188 8836.31640625 302.7819213867188 C 8835.779296875 302.7819213867188 8835.248046875 302.7816467285156 8834.716796875 302.7807312011719 C 8833.501953125 302.7787780761719 8832.4921875 302.4110717773438 8831.7978515625 301.7173156738281 C 8831.103515625 301.0232849121094 8830.734375 300.0129699707031 8830.7314453125 298.7956237792969 C 8830.7255859375 296.6056518554688 8830.7265625 294.7977294921875 8830.7333984375 293.1059265136719 C 8830.73828125 291.9516296386719 8831.103515625 290.97998046875 8831.7900390625 290.2959289550781 C 8832.4755859375 289.6128540039062 8833.4501953125 289.2479553222656 8834.6083984375 289.24072265625 C 8835.1064453125 289.2375793457031 8835.6416015625 289.2361145019531 8836.2900390625 289.2361145019531 C 8836.7333984375 289.2361145019531 8837.1787109375 289.2367858886719 8837.6298828125 289.2374572753906 C 8837.9267578125 289.2379150390625 8838.2255859375 289.2383728027344 8838.5283203125 289.2386169433594 C 8838.52734375 288.992919921875 8838.52734375 288.7492065429688 8838.5263671875 288.5070495605469 C 8838.5244140625 287.4575500488281 8838.521484375 286.4662475585938 8838.53515625 285.4588012695312 C 8838.541015625 285.0519409179688 8838.5654296875 284.5198059082031 8838.7109375 284.01171875 C 8839.1396484375 282.4887390136719 8840.50390625 281.4506530761719 8842.1044921875 281.4302368164062 C 8843.1181640625 281.4173889160156 8844.177734375 281.4111633300781 8845.3447265625 281.4111633300781 C 8846.2314453125 281.4111633300781 8847.1943359375 281.4148254394531 8848.291015625 281.4223937988281 C 8849.3759765625 281.4297485351562 8850.3125 281.7920837402344 8851 282.47021484375 C 8851.6875 283.1483154296875 8852.0625 284.0803833007812 8852.083984375 285.1655883789062 C 8852.1015625 286.0433654785156 8852.09765625 286.9331970214844 8852.09375 287.7937316894531 C 8852.0927734375 288.1612548828125 8852.0908203125 288.5287475585938 8852.0908203125 288.896240234375 L 8852.0908203125 289.2380981445312 C 8852.3486328125 289.2373657226562 8852.603515625 289.2362060546875 8852.857421875 289.2350463867188 C 8853.2685546875 289.2331848144531 8853.6767578125 289.2313232421875 8854.0810546875 289.2313232421875 C 8854.8076171875 289.2313232421875 8855.3984375 289.2376098632812 8855.939453125 289.2511291503906 C 8856.4482421875 289.2637634277344 8857.1083984375 289.3105773925781 8857.6953125 289.5625915527344 C 8859.0712890625 290.1529846191406 8859.8447265625 291.2815856933594 8859.8720703125 292.7404479980469 C 8859.9111328125 294.9529724121094 8859.912109375 297.1317749023438 8859.8740234375 299.2169189453125 C 8859.857421875 300.1944274902344 8859.4716796875 301.0933532714844 8858.7880859375 301.7475891113281 C 8858.1123046875 302.3936462402344 8857.19140625 302.7585754394531 8856.1943359375 302.7751770019531 C 8855.6767578125 302.7837829589844 8855.1240234375 302.7877807617188 8854.453125 302.7877807617188 C 8853.994140625 302.7877807617188 8853.533203125 302.7859497070312 8853.068359375 302.7840881347656 C 8852.748046875 302.7828063964844 8852.42578125 302.7815246582031 8852.1005859375 302.7808227539062 C 8852.0966796875 302.85546875 8852.09375 302.9266052246094 8852.0927734375 302.9967346191406 C 8852.091796875 303.4635925292969 8852.0927734375 303.9419555664062 8852.0947265625 304.4045715332031 C 8852.0966796875 305.1858520507812 8852.099609375 305.9937438964844 8852.087890625 306.7904052734375 C 8852.05078125 309.0296020507812 8850.54296875 310.5512390136719 8848.3349609375 310.5776977539062 C 8847.333984375 310.5897827148438 8846.31640625 310.5959167480469 8845.310546875 310.5959167480469 Z M 8838.83984375 299.6455383300781 C 8839.1064453125 299.6455383300781 8839.3740234375 299.6456604003906 8839.6416015625 299.6459655761719 C 8841.166015625 299.6478271484375 8841.6826171875 300.156494140625 8841.6884765625 301.6618041992188 C 8841.689453125 302.2717590332031 8841.6884765625 302.8803405761719 8841.6875 303.4888916015625 C 8841.685546875 304.5460815429688 8841.68359375 305.6392822265625 8841.69140625 306.7133178710938 C 8841.6962890625 307.3189697265625 8841.814453125 307.4344177246094 8842.435546875 307.4396057128906 C 8842.7685546875 307.4423217773438 8843.126953125 307.443603515625 8843.5625 307.443603515625 C 8843.84375 307.443603515625 8844.125 307.4430847167969 8844.4052734375 307.4425659179688 C 8844.6875 307.4420471191406 8844.96875 307.4415283203125 8845.2509765625 307.4415283203125 L 8845.30859375 307.4415283203125 C 8845.5947265625 307.4415283203125 8845.8798828125 307.44189453125 8846.166015625 307.4422607421875 C 8846.451171875 307.442626953125 8846.7353515625 307.4429931640625 8847.0205078125 307.4429931640625 C 8847.384765625 307.4429931640625 8847.7490234375 307.4423828125 8848.11328125 307.4404296875 C 8848.470703125 307.4384765625 8848.6982421875 307.3916015625 8848.7900390625 307.3011169433594 C 8848.880859375 307.2121887207031 8848.927734375 306.9908142089844 8848.9296875 306.6430969238281 C 8848.935546875 305.6950988769531 8848.9345703125 304.7308044433594 8848.93359375 303.7982177734375 C 8848.9326171875 303.0979614257812 8848.9326171875 302.3738403320312 8848.9345703125 301.6612243652344 C 8848.9345703125 301.0754699707031 8848.9892578125 300.4782104492188 8849.3876953125 300.0874938964844 C 8849.7822265625 299.70068359375 8850.3857421875 299.6466979980469 8850.978515625 299.6459655761719 C 8851.17578125 299.645751953125 8851.373046875 299.6456604003906 8851.5693359375 299.6456604003906 C 8851.9765625 299.6456604003906 8852.3837890625 299.6460266113281 8852.7919921875 299.6463928222656 C 8853.1982421875 299.6467895507812 8853.60546875 299.6471557617188 8854.0126953125 299.6471557617188 C 8854.7451171875 299.6471557617188 8855.3408203125 299.6458740234375 8855.88671875 299.6431579589844 C 8856.26171875 299.6412658691406 8856.5029296875 299.5896606445312 8856.6044921875 299.4898071289062 C 8856.703125 299.3934936523438 8856.7529296875 299.16357421875 8856.75390625 298.8064880371094 C 8856.7587890625 296.9442443847656 8856.7587890625 295.0560913085938 8856.75390625 293.1941833496094 C 8856.75390625 292.8469848632812 8856.7060546875 292.6231079101562 8856.611328125 292.5274353027344 C 8856.5166015625 292.4326171875 8856.2958984375 292.3839721679688 8855.9541015625 292.3827819824219 C 8855.4462890625 292.3810119628906 8854.9384765625 292.3804931640625 8854.4306640625 292.3804931640625 C 8854.0810546875 292.3804931640625 8853.732421875 292.3807373046875 8853.3828125 292.3809814453125 C 8853.033203125 292.3812255859375 8852.68359375 292.3814697265625 8852.333984375 292.3814697265625 C 8851.8330078125 292.3814697265625 8851.33203125 292.3809509277344 8850.830078125 292.3792419433594 C 8849.525390625 292.3747253417969 8848.9404296875 291.7893371582031 8848.9345703125 290.4811706542969 C 8848.9306640625 289.6443481445312 8848.931640625 288.7940673828125 8848.9326171875 287.9718017578125 C 8848.93359375 287.1149291992188 8848.9345703125 286.2289123535156 8848.9296875 285.3583374023438 C 8848.927734375 285.015869140625 8848.8779296875 284.7932739257812 8848.779296875 284.6963195800781 C 8848.681640625 284.5992126464844 8848.4580078125 284.5494995117188 8848.1142578125 284.5486450195312 C 8847.18359375 284.5462951660156 8846.2392578125 284.5451049804688 8845.30859375 284.5451049804688 C 8844.376953125 284.5451049804688 8843.4326171875 284.5462951660156 8842.501953125 284.5486450195312 C 8842.1591796875 284.5494995117188 8841.9365234375 284.5989379882812 8841.83984375 284.695556640625 C 8841.7421875 284.7923889160156 8841.6923828125 285.0157470703125 8841.6904296875 285.359375 C 8841.6865234375 286.2117919921875 8841.6865234375 287.0791931152344 8841.6875 287.9180297851562 C 8841.6884765625 288.7583618164062 8841.689453125 289.6272888183594 8841.6845703125 290.4826354980469 C 8841.6787109375 291.7900695800781 8841.09375 292.3750915527344 8839.7880859375 292.3793334960938 C 8839.3603515625 292.3807373046875 8838.931640625 292.3811645507812 8838.50390625 292.3811645507812 C 8838.1513671875 292.3811645507812 8837.7978515625 292.380859375 8837.4453125 292.3805847167969 C 8837.0927734375 292.3802795410156 8836.740234375 292.3799743652344 8836.3876953125 292.3799743652344 C 8835.6826171875 292.3799743652344 8835.11328125 292.3812561035156 8834.595703125 292.3840026855469 C 8833.998046875 292.3871765136719 8833.8681640625 292.5188293457031 8833.8662109375 293.1255493164062 C 8833.8603515625 294.8253479003906 8833.8623046875 296.5541687011719 8833.86328125 298.22607421875 L 8833.8642578125 298.7379760742188 C 8833.865234375 299.1411743164062 8833.9150390625 299.3948669433594 8834.013671875 299.4916381835938 C 8834.115234375 299.5915222167969 8834.3798828125 299.642822265625 8834.80078125 299.6441650390625 C 8835.375 299.6459655761719 8835.951171875 299.646484375 8836.5263671875 299.646484375 C 8836.9111328125 299.646484375 8837.296875 299.646240234375 8837.6826171875 299.6460266113281 C 8838.068359375 299.6457824707031 8838.4541015625 299.6455383300781 8838.83984375 299.6455383300781 Z" stroke="none"/>
      <path d="M 8845.310546875 310.0958862304688 C 8846.3173828125 310.0958862304688 8847.3232421875 310.0898742675781 8848.3291015625 310.0777282714844 C 8850.2626953125 310.0545654296875 8851.5556640625 308.7377014160156 8851.587890625 306.7830505371094 C 8851.6064453125 305.5197143554688 8851.5888671875 304.2559204101562 8851.5927734375 302.9923706054688 C 8851.5947265625 302.7688903808594 8851.6181640625 302.5456237792969 8851.634765625 302.2803039550781 C 8853.1953125 302.2802734375 8854.6904296875 302.3000793457031 8856.185546875 302.2752380371094 C 8857.9814453125 302.245361328125 8859.34375 300.9573059082031 8859.3740234375 299.2078552246094 C 8859.4130859375 297.0558166503906 8859.41015625 294.9020690917969 8859.3720703125 292.7499084472656 C 8859.34765625 291.4604797363281 8858.66796875 290.5240173339844 8857.498046875 290.0220642089844 C 8857.0224609375 289.8179321289062 8856.4580078125 289.76416015625 8855.9267578125 289.7509765625 C 8854.509765625 289.7154846191406 8853.0830078125 289.7388610839844 8851.5908203125 289.7388610839844 C 8851.5908203125 289.4016418457031 8851.5908203125 289.1490173339844 8851.5908203125 288.896240234375 C 8851.5908203125 287.6560668945312 8851.609375 286.4154663085938 8851.583984375 285.1756591796875 C 8851.544921875 283.2347412109375 8850.228515625 281.935546875 8848.287109375 281.9223937988281 C 8846.2294921875 281.908203125 8844.1689453125 281.9040832519531 8842.111328125 281.9302062988281 C 8840.7392578125 281.9476928710938 8839.5576171875 282.8499450683594 8839.19140625 284.1491088867188 C 8839.0712890625 284.5694274902344 8839.041015625 285.0250549316406 8839.03515625 285.4654235839844 C 8839.0166015625 286.8633117675781 8839.0283203125 288.2617492675781 8839.0283203125 289.7388610839844 C 8837.505859375 289.7388610839844 8836.0576171875 289.7316284179688 8834.611328125 289.74072265625 C 8832.5244140625 289.7537536621094 8831.2421875 291.0303039550781 8831.2333984375 293.1080017089844 C 8831.2255859375 295.0035095214844 8831.2265625 296.89892578125 8831.2314453125 298.7942810058594 C 8831.2373046875 301.0009155273438 8832.5166015625 302.2771911621094 8834.7177734375 302.2807312011719 C 8836.119140625 302.2831420898438 8837.51953125 302.2811584472656 8839.0302734375 302.2811584472656 C 8839.0302734375 303.8449401855469 8839.015625 305.3152465820312 8839.0341796875 306.7852172851562 C 8839.0576171875 308.7356872558594 8840.353515625 310.0545654296875 8842.2919921875 310.0778503417969 C 8843.298828125 310.0898742675781 8844.3046875 310.0958862304688 8845.310546875 310.0958862304688 M 8838.83984375 300.1455383300781 C 8837.490234375 300.1455078125 8836.142578125 300.1483459472656 8834.798828125 300.1441650390625 C 8833.6826171875 300.140625 8833.3662109375 299.8277587890625 8833.3642578125 298.7384948730469 C 8833.3623046875 296.8669128417969 8833.359375 294.9953308105469 8833.3662109375 293.1239013671875 C 8833.369140625 292.2412719726562 8833.7158203125 291.8886413574219 8834.5927734375 291.8840026855469 C 8835.8955078125 291.8770446777344 8837.19921875 291.8811340332031 8838.50390625 291.8811645507812 C 8838.931640625 291.8811645507812 8839.3583984375 291.8807373046875 8839.7861328125 291.8793334960938 C 8840.8115234375 291.8760070800781 8841.1796875 291.510498046875 8841.1845703125 290.4800720214844 C 8841.193359375 288.7723388671875 8841.181640625 287.0645751953125 8841.1904296875 285.3568420410156 C 8841.1953125 284.3909606933594 8841.5380859375 284.0510864257812 8842.5009765625 284.0486450195312 C 8844.373046875 284.0438842773438 8846.2451171875 284.0438842773438 8848.115234375 284.0486450195312 C 8849.078125 284.0510864257812 8849.4248046875 284.3908081054688 8849.4296875 285.35546875 C 8849.439453125 287.0632629394531 8849.42578125 288.7711181640625 8849.4345703125 290.4787902832031 C 8849.439453125 291.5098571777344 8849.80859375 291.8757019042969 8850.83203125 291.8792419433594 C 8852.0341796875 291.8833618164062 8853.2314453125 291.8804931640625 8854.4306640625 291.8804931640625 C 8854.939453125 291.8804931640625 8855.447265625 291.8810119628906 8855.9560546875 291.8827819824219 C 8856.9189453125 291.8861083984375 8857.25390625 292.2231140136719 8857.25390625 293.19287109375 C 8857.2587890625 295.064453125 8857.2587890625 296.9358825683594 8857.25390625 298.8074645996094 C 8857.251953125 299.8028869628906 8856.9140625 300.137939453125 8855.8896484375 300.1431579589844 C 8854.44921875 300.1502990722656 8853.009765625 300.1456604003906 8851.5693359375 300.1456604003906 C 8851.373046875 300.1456604003906 8851.17578125 300.145751953125 8850.9794921875 300.1459655761719 C 8849.728515625 300.1474914550781 8849.4345703125 300.4347229003906 8849.4345703125 301.6626892089844 C 8849.4296875 303.3236083984375 8849.439453125 304.9846801757812 8849.4296875 306.6455993652344 C 8849.4248046875 307.6244201660156 8849.1015625 307.9350280761719 8848.1162109375 307.9404296875 C 8847.1806640625 307.9454345703125 8846.24609375 307.9415283203125 8845.30859375 307.9415283203125 C 8845.2890625 307.9415283203125 8845.2705078125 307.9415283203125 8845.2509765625 307.9415283203125 C 8844.3095703125 307.9415283203125 8843.37109375 307.947265625 8842.431640625 307.9395751953125 C 8841.5361328125 307.93212890625 8841.1982421875 307.6075744628906 8841.19140625 306.716796875 C 8841.1796875 305.0325622558594 8841.1904296875 303.3481750488281 8841.1884765625 301.6637878417969 C 8841.18359375 300.4373474121094 8840.8876953125 300.1474914550781 8839.640625 300.1459655761719 C 8839.373046875 300.1456604003906 8839.1064453125 300.1455383300781 8838.83984375 300.1455383300781 M 8845.310546875 311.0959167480469 C 8844.3076171875 311.0959167480469 8843.2880859375 311.0898132324219 8842.2802734375 311.0777893066406 C 8839.810546875 311.048095703125 8838.064453125 309.2878723144531 8838.0341796875 306.7972412109375 C 8838.021484375 305.7760009765625 8838.0244140625 304.7720031738281 8838.02734375 303.7090759277344 C 8838.0283203125 303.5671081542969 8838.0283203125 303.424560546875 8838.0283203125 303.2813720703125 C 8837.8955078125 303.2814331054688 8837.7626953125 303.281494140625 8837.6298828125 303.2815551757812 C 8836.6376953125 303.281982421875 8835.677734375 303.2824096679688 8834.7158203125 303.2807312011719 C 8831.95703125 303.2763061523438 8830.2392578125 301.5581970214844 8830.2314453125 298.7969360351562 C 8830.2255859375 296.6057739257812 8830.2265625 294.7968139648438 8830.2333984375 293.1038818359375 C 8830.244140625 290.4698486328125 8831.9609375 288.7572631835938 8834.60546875 288.7407531738281 C 8835.1044921875 288.7375793457031 8835.6396484375 288.7361145019531 8836.2900390625 288.7361145019531 C 8836.86328125 288.7361145019531 8837.4384765625 288.7372131347656 8838.02734375 288.738037109375 C 8838.0263671875 288.6612548828125 8838.0263671875 288.5846557617188 8838.0263671875 288.5082092285156 C 8838.0244140625 287.4566955566406 8838.021484375 286.4635009765625 8838.03515625 285.4521484375 C 8838.041015625 285.0142517089844 8838.068359375 284.4392395019531 8838.2294921875 283.8743286132812 C 8838.4677734375 283.0291137695312 8838.9658203125 282.2979125976562 8839.6689453125 281.7632446289062 C 8840.3701171875 281.2296447753906 8841.2099609375 280.9416198730469 8842.0986328125 280.9302978515625 C 8843.1142578125 280.9174194335938 8844.17578125 280.9111633300781 8845.3447265625 280.9111633300781 C 8846.2314453125 280.9111633300781 8847.1962890625 280.9148254394531 8848.2939453125 280.9224243164062 C 8850.76953125 280.939208984375 8852.5341796875 282.679931640625 8852.583984375 285.1555480957031 C 8852.6015625 286.0393371582031 8852.59765625 286.9323425292969 8852.59375 287.7959594726562 C 8852.5927734375 288.109375 8852.5908203125 288.4228210449219 8852.5908203125 288.7362365722656 C 8852.6796875 288.73583984375 8852.767578125 288.7354431152344 8852.85546875 288.7350463867188 C 8853.267578125 288.7331848144531 8853.67578125 288.7313232421875 8854.0810546875 288.7313232421875 C 8854.8125 288.7313232421875 8855.40625 288.7376708984375 8855.9521484375 288.7512817382812 C 8856.505859375 288.7650451660156 8857.2265625 288.8174438476562 8857.892578125 289.1031188964844 C 8859.4599609375 289.7755737304688 8860.33984375 291.0639953613281 8860.3720703125 292.73095703125 C 8860.4111328125 294.9500732421875 8860.412109375 297.1348876953125 8860.3740234375 299.2260131835938 C 8860.3349609375 301.4950866699219 8858.541015625 303.2362060546875 8856.2021484375 303.2751159667969 C 8855.6826171875 303.2837524414062 8855.126953125 303.2877807617188 8854.453125 303.2877807617188 C 8853.9931640625 303.2877807617188 8853.5322265625 303.2859497070312 8853.06640625 303.2840881347656 C 8852.908203125 303.283447265625 8852.7509765625 303.2828369140625 8852.591796875 303.2822570800781 C 8852.591796875 303.6573181152344 8852.5927734375 304.0351257324219 8852.5947265625 304.4029541015625 C 8852.5966796875 305.1864318847656 8852.599609375 305.9966125488281 8852.587890625 306.7977294921875 C 8852.5673828125 308.0219116210938 8852.1513671875 309.0792236328125 8851.3828125 309.857177734375 C 8850.609375 310.6410522460938 8849.5576171875 311.0630798339844 8848.3408203125 311.0776672363281 C 8847.3369140625 311.0897521972656 8846.3173828125 311.0959167480469 8845.310546875 311.0959167480469 Z M 8842.205078125 306.923828125 C 8842.2548828125 306.9314575195312 8842.330078125 306.9386901855469 8842.4404296875 306.9396057128906 C 8842.7705078125 306.9423217773438 8843.126953125 306.943603515625 8843.5625 306.943603515625 C 8844.125 306.943603515625 8844.6884765625 306.9415283203125 8845.2509765625 306.9415283203125 L 8845.3095703125 306.9415283203125 C 8845.87890625 306.9415283203125 8846.44921875 306.9429931640625 8847.0205078125 306.9429931640625 C 8847.3837890625 306.9429931640625 8847.7470703125 306.9423828125 8848.111328125 306.9404296875 C 8848.255859375 306.9396362304688 8848.3515625 306.9303283691406 8848.412109375 306.9208984375 C 8848.4208984375 306.8636474609375 8848.4287109375 306.7742004394531 8848.4296875 306.640625 C 8848.435546875 305.69384765625 8848.4345703125 304.7303771972656 8848.43359375 303.7986450195312 C 8848.4326171875 303.097900390625 8848.4326171875 302.3733215332031 8848.4345703125 301.6597595214844 C 8848.4345703125 300.9664306640625 8848.5078125 300.25048828125 8849.0380859375 299.7305603027344 C 8849.5595703125 299.2182312011719 8850.279296875 299.1468200683594 8850.978515625 299.1459655761719 C 8851.5849609375 299.1452941894531 8852.1884765625 299.1458129882812 8852.7919921875 299.1464233398438 C 8853.19921875 299.1467895507812 8853.6064453125 299.1471557617188 8854.0126953125 299.1471557617188 C 8854.744140625 299.1471557617188 8855.3388671875 299.1459045410156 8855.884765625 299.1431579589844 C 8856.0625 299.1422729492188 8856.1708984375 299.1286926269531 8856.232421875 299.1166076660156 C 8856.2421875 299.0592651367188 8856.25390625 298.9616088867188 8856.25390625 298.8055114746094 C 8856.2587890625 296.9437866210938 8856.2587890625 295.0565185546875 8856.25390625 293.1954956054688 C 8856.25390625 293.0514831542969 8856.244140625 292.9586486816406 8856.234375 292.9020385742188 C 8856.1796875 292.8927001953125 8856.08984375 292.8832397460938 8855.9521484375 292.8827819824219 C 8855.095703125 292.8797912597656 8854.2392578125 292.88037109375 8853.3828125 292.8809814453125 C 8852.5322265625 292.881591796875 8851.6796875 292.8821411132812 8850.828125 292.8792419433594 C 8849.2470703125 292.873779296875 8848.4423828125 292.0677185058594 8848.4345703125 290.4835205078125 C 8848.4306640625 289.6452941894531 8848.431640625 288.7942199707031 8848.4326171875 287.9711608886719 C 8848.43359375 287.1151428222656 8848.4345703125 286.2300109863281 8848.4296875 285.3612060546875 C 8848.4287109375 285.2162170410156 8848.41796875 285.1244812011719 8848.408203125 285.0700073242188 C 8848.3525390625 285.059814453125 8848.259765625 285.0490112304688 8848.1123046875 285.0486450195312 C 8847.1796875 285.0462951660156 8846.236328125 285.0451049804688 8845.30859375 285.0451049804688 C 8844.3798828125 285.0451049804688 8843.4365234375 285.0462951660156 8842.50390625 285.0486450195312 C 8842.359375 285.0490112304688 8842.2666015625 285.0594482421875 8842.2119140625 285.0693969726562 C 8842.2021484375 285.1244201660156 8842.19140625 285.2166442871094 8842.1904296875 285.3619079589844 C 8842.1865234375 286.2128601074219 8842.1865234375 287.0794982910156 8842.1875 287.9176025390625 C 8842.1884765625 288.7586669921875 8842.189453125 289.6283569335938 8842.1845703125 290.4852294921875 C 8842.1767578125 292.0685729980469 8841.37109375 292.8742065429688 8839.7890625 292.8793334960938 C 8839.0078125 292.8818969726562 8838.224609375 292.8811950683594 8837.4453125 292.8805847167969 C 8837.0927734375 292.8802795410156 8836.740234375 292.8799743652344 8836.3876953125 292.8799743652344 C 8835.6845703125 292.8799743652344 8835.115234375 292.8812561035156 8834.59765625 292.8840026855469 C 8834.4970703125 292.884521484375 8834.427734375 292.8917236328125 8834.3818359375 292.899169921875 C 8834.3740234375 292.9461364746094 8834.3662109375 293.0194091796875 8834.3662109375 293.1272277832031 C 8834.3603515625 294.8260192871094 8834.3623046875 296.5542297363281 8834.36328125 298.2255554199219 L 8834.3642578125 298.7374572753906 C 8834.3642578125 298.9314270019531 8834.376953125 299.0484619140625 8834.388671875 299.1156005859375 C 8834.4599609375 299.1288452148438 8834.5869140625 299.1434936523438 8834.8017578125 299.1441650390625 C 8835.759765625 299.1471557617188 8836.7216796875 299.1465148925781 8837.681640625 299.1460266113281 C 8838.3359375 299.1456298828125 8838.9892578125 299.1452331542969 8839.6416015625 299.1459655761719 C 8840.33984375 299.1468200683594 8841.056640625 299.2183532714844 8841.580078125 299.7314758300781 C 8842.1103515625 300.2507934570312 8842.185546875 300.9651794433594 8842.1884765625 301.6598205566406 C 8842.189453125 302.2716369628906 8842.1884765625 302.8806762695312 8842.1875 303.4896850585938 C 8842.185546875 304.5458068847656 8842.18359375 305.6379089355469 8842.19140625 306.7098388671875 C 8842.1923828125 306.8082885742188 8842.1982421875 306.8772888183594 8842.205078125 306.923828125 Z" stroke="none" fill="#fff"/>
    </g>
  </g>
</svg>
