<svg xmlns="http://www.w3.org/2000/svg" width="51.564" height="37.597" viewBox="0 0 51.564 37.597">
  <g id="Group_23871" data-name="Group 23871" transform="translate(-1173.102 27.293)">
    <path id="Path_78190" data-name="Path 78190" d="M1277.248,167.565h-13.207c-1.476,0-2.118-.646-2.094-2.1a15.359,15.359,0,0,1,30.715.058c.039,1.376-.637,2.043-2.033,2.044q-4.268,0-8.536,0Z" transform="translate(-78.595 -157.261)" fill="#fff"/>
    <path id="Path_78191" data-name="Path 78191" d="M1329.6-10.2a8.539,8.539,0,0,1-8.557-8.522,8.569,8.569,0,0,1,8.529-8.566,8.57,8.57,0,0,1,8.557,8.538A8.539,8.539,0,0,1,1329.6-10.2Z" transform="translate(-130.872 0)" fill="#fff"/>
    <path id="Path_78192" data-name="Path 78192" d="M1225.474,76.471a5.127,5.127,0,0,1,.031,10.254,5.127,5.127,0,1,1-.031-10.254Z" transform="translate(-41.788 -91.793)" fill="#fff"/>
    <path id="Path_78193" data-name="Path 78193" d="M1483.924,81.614a5.126,5.126,0,1,1,10.252-.014,5.126,5.126,0,0,1-10.252.014Z" transform="translate(-274.962 -91.795)" fill="#fff"/>
    <path id="Path_78194" data-name="Path 78194" d="M1529.362,199.5a18.181,18.181,0,0,0-3.528-12.79,8.852,8.852,0,0,1,3.418.495,10.8,10.8,0,0,1,7.347,9.072,8.872,8.872,0,0,1,.1,1.549,1.656,1.656,0,0,1-1.59,1.664C1533.193,199.526,1531.274,199.5,1529.362,199.5Z" transform="translate(-312.037 -189.309)" fill="#fff"/>
    <path id="Path_78195" data-name="Path 78195" d="M1180.1,199.542c-1.793,0-3.6.023-5.4-.01a1.639,1.639,0,0,1-1.594-1.6,10.888,10.888,0,0,1,10.164-11.182c.09,0,.18.01.344.02A18.152,18.152,0,0,0,1180.1,199.542Z" transform="translate(0 -189.346)" fill="#fff"/>
  </g>
</svg>
