<svg xmlns="http://www.w3.org/2000/svg" xmlns:xlink="http://www.w3.org/1999/xlink" width="865.797" height="630.173" viewBox="0 0 865.797 630.173">
  <defs>
    <radialGradient id="radial-gradient" cx="0.5" cy="0.5" r="0.872" gradientTransform="matrix(0.573, 0, 0, -0.565, 325.06, -45727.352)" gradientUnits="objectBoundingBox">
      <stop offset="0" stop-color="#6e6e70"/>
      <stop offset="0.232" stop-color="#9d9d9f"/>
      <stop offset="0.47" stop-color="#c7c7c8"/>
      <stop offset="0.686" stop-color="#e5e5e6"/>
      <stop offset="0.87" stop-color="#f8f8f8"/>
      <stop offset="1" stop-color="#fff"/>
    </radialGradient>
    <radialGradient id="radial-gradient-2" cx="0.5" cy="0.5" r="0.886" gradientTransform="matrix(0.565, 0, 0, -0.557, 76.428, -10630.594)" xlink:href="#radial-gradient"/>
    <radialGradient id="radial-gradient-3" cx="0.5" cy="0.5" r="0.886" gradientTransform="matrix(0.565, 0, 0, -0.557, 95.183, -13254.873)" gradientUnits="objectBoundingBox">
      <stop offset="0" stop-color="#704444"/>
      <stop offset="0.131" stop-color="#8b6767"/>
      <stop offset="0.348" stop-color="#b49d9d"/>
      <stop offset="0.552" stop-color="#d4c7c7"/>
      <stop offset="0.734" stop-color="#ebe5e5"/>
      <stop offset="0.89" stop-color="#f9f8f8"/>
      <stop offset="1" stop-color="#fff"/>
    </radialGradient>
    <radialGradient id="radial-gradient-4" cx="0.5" cy="0.5" r="0.926" gradientTransform="matrix(0.54, 0, 0, -0.533, 137.087, -18666.654)" xlink:href="#radial-gradient"/>
    <radialGradient id="radial-gradient-5" cx="0.5" cy="0.5" r="0.881" gradientTransform="matrix(0.568, 0, 0, -0.56, 204.923, -28720.887)" xlink:href="#radial-gradient"/>
  </defs>
  <g id="Group_23890" data-name="Group 23890" transform="translate(-813 -2084.5)">
    <g id="Group_23889" data-name="Group 23889">
      <g id="Group_10239" data-name="Group 10239" transform="translate(1262 -399.297)">
        <g id="Rectangle_1" data-name="Rectangle 1" transform="translate(153 2705.297)" fill="none" stroke="#006ce5" stroke-width="2">
          <rect width="182.797" height="50" rx="25" stroke="none"/>
          <rect x="1" y="1" width="180.797" height="48" rx="24" fill="none"/>
        </g>
        <g id="Group_10685" data-name="Group 10685" transform="translate(202 2715.458)">
          <text id="Resume" transform="translate(42 23)" fill="#006ce5" font-size="24" font-family="SFProDisplay-Medium, SF Pro Display" font-weight="500"><tspan x="-42.234" y="0">Resume</tspan></text>
        </g>
      </g>
      <g id="Group_10712" data-name="Group 10712" transform="translate(1262 -329.297)">
        <g id="Rectangle_1-2" data-name="Rectangle 1" transform="translate(153 2705.297)" fill="none" stroke="#006ce5" stroke-width="2">
          <rect width="182.797" height="50" rx="25" stroke="none"/>
          <rect x="1" y="1" width="180.797" height="48" rx="24" fill="none"/>
        </g>
        <g id="Group_10685-2" data-name="Group 10685" transform="translate(178 2715.458)">
          <text id="HR_Interview" data-name="HR Interview" transform="translate(66 23)" fill="#006ce5" font-size="24" font-family="SFProDisplay-Medium, SF Pro Display" font-weight="500"><tspan x="-65.537" y="0">HR Interview</tspan></text>
        </g>
      </g>
      <g id="Group_10713" data-name="Group 10713" transform="translate(1262 -259.297)">
        <g id="Rectangle_1-3" data-name="Rectangle 1" transform="translate(153 2705.297)" fill="none" stroke="#006ce5" stroke-width="2">
          <rect width="182.797" height="50" rx="25" stroke="none"/>
          <rect x="1" y="1" width="180.797" height="48" rx="24" fill="none"/>
        </g>
        <g id="Group_10685-3" data-name="Group 10685" transform="translate(187 2715.458)">
          <text id="Online_Test" data-name="Online Test" transform="translate(57 23)" fill="#006ce5" font-size="24" font-family="SFProDisplay-Medium, SF Pro Display" font-weight="500"><tspan x="-57.469" y="0">Online Test</tspan></text>
        </g>
      </g>
      <g id="Group_10715" data-name="Group 10715" transform="translate(1262 -120.297)">
        <g id="Rectangle_1-4" data-name="Rectangle 1" transform="translate(153 2705.297)" fill="none" stroke="#006ce5" stroke-width="2">
          <rect width="182.797" height="50" rx="25" stroke="none"/>
          <rect x="1" y="1" width="180.797" height="48" rx="24" fill="none"/>
        </g>
        <g id="Group_10685-4" data-name="Group 10685" transform="translate(218 2715.458)">
          <text id="Offer" transform="translate(26 23)" fill="#006ce5" font-size="24" font-family="SFProDisplay-Medium, SF Pro Display" font-weight="500"><tspan x="-26.338" y="0">Offer</tspan></text>
        </g>
      </g>
      <g id="Group_10716" data-name="Group 10716" transform="translate(1262 -50.297)">
        <g id="Rectangle_1-5" data-name="Rectangle 1" transform="translate(153 2705.297)" fill="none" stroke="#006ce5" stroke-width="2">
          <rect width="182.797" height="50" rx="25" stroke="none"/>
          <rect x="1" y="1" width="180.797" height="48" rx="24" fill="none"/>
        </g>
        <g id="Group_10685-5" data-name="Group 10685" transform="translate(180 2715.458)">
          <text id="On_Boarding" data-name="On Boarding" transform="translate(64 23)" fill="#006ce5" font-size="24" font-family="SFProDisplay-Medium, SF Pro Display" font-weight="500"><tspan x="-64.441" y="0">On Boarding</tspan></text>
        </g>
      </g>
      <g id="Group_10714" data-name="Group 10714" transform="translate(1262 -189.297)">
        <g id="Rectangle_1-6" data-name="Rectangle 1" transform="translate(153 2705.297)" fill="none" stroke="#006ce5" stroke-width="2">
          <rect width="263.797" height="50" rx="25" stroke="none"/>
          <rect x="1" y="1" width="261.797" height="48" rx="24" fill="none"/>
        </g>
        <g id="Group_10685-6" data-name="Group 10685" transform="translate(189 2715.458)">
          <text id="Technical_Interview" data-name="Technical Interview" transform="translate(99 23)" fill="#006ce5" font-size="24" font-family="SFProDisplay-Medium, SF Pro Display" font-weight="500"><tspan x="-98.59" y="0">Technical Interview</tspan></text>
        </g>
      </g>
      <g id="Group_10723" data-name="Group 10723" transform="translate(1177.604 2332)">
        <line id="Line_276" data-name="Line 276" x2="213" transform="translate(0.397 4)" fill="none" stroke="#006ce5" stroke-width="1"/>
        <circle id="Ellipse_647" data-name="Ellipse 647" cx="4" cy="4" r="4" transform="translate(210.397)" fill="#006ce5"/>
      </g>
      <g id="Group_10724" data-name="Group 10724" transform="translate(1114.604 2402)">
        <line id="Line_276-2" data-name="Line 276" x2="276" transform="translate(0.397 4)" fill="none" stroke="#006ce5" stroke-width="1"/>
        <circle id="Ellipse_647-2" data-name="Ellipse 647" cx="4" cy="4" r="4" transform="translate(273.397)" fill="#006ce5"/>
      </g>
      <g id="Group_10725" data-name="Group 10725" transform="translate(1075.302 2472)">
        <line id="Line_276-3" data-name="Line 276" x2="316" transform="translate(-0.302 4)" fill="none" stroke="#006ce5" stroke-width="1"/>
        <circle id="Ellipse_647-3" data-name="Ellipse 647" cx="4" cy="4" r="4" transform="translate(312.698)" fill="#006ce5"/>
      </g>
      <g id="Group_10726" data-name="Group 10726" transform="translate(1047.802 2542)">
        <line id="Line_276-4" data-name="Line 276" x2="343" transform="translate(0.198 4)" fill="none" stroke="#006ce5" stroke-width="1"/>
        <circle id="Ellipse_647-4" data-name="Ellipse 647" cx="4" cy="4" r="4" transform="translate(340.198)" fill="#006ce5"/>
      </g>
      <g id="Group_10727" data-name="Group 10727" transform="translate(1116 2611)">
        <line id="Line_276-5" data-name="Line 276" x2="287" transform="translate(-12 4)" fill="none" stroke="#006ce5" stroke-width="1"/>
        <circle id="Ellipse_647-5" data-name="Ellipse 647" cx="4" cy="4" r="4" transform="translate(272)" fill="#006ce5"/>
      </g>
      <g id="Group_10728" data-name="Group 10728" transform="translate(1084 2681)">
        <line id="Line_276-6" data-name="Line 276" x2="328" transform="translate(-21 4)" fill="none" stroke="#006ce5" stroke-width="1"/>
        <circle id="Ellipse_647-6" data-name="Ellipse 647" cx="4" cy="4" r="4" transform="translate(304)" fill="#006ce5"/>
      </g>
      <g id="Group_10711" data-name="Group 10711" transform="translate(274.887 2039.116)">
        <g id="Group_10693" data-name="Group 10693" transform="translate(586.961 171.3)">
          <rect id="Rectangle_8095" data-name="Rectangle 8095" width="53.737" height="67.462" rx="3.051" transform="translate(0 15.572) rotate(-16.845)" fill="#fb0"/>
          <rect id="Rectangle_8096" data-name="Rectangle 8096" width="51.175" height="64.245" rx="2.906" transform="translate(1.692 16.74) rotate(-16.845)" fill="#f5f7f6"/>
          <rect id="Rectangle_8097" data-name="Rectangle 8097" width="31.664" height="9.1" rx="2.024" transform="translate(8.565 22.483) rotate(-16.845)" fill="#c7c8ca"/>
          <rect id="Rectangle_8098" data-name="Rectangle 8098" width="39.185" height="9.1" rx="2.106" transform="translate(11.803 33.178) rotate(-16.845)" fill="#c7c8ca"/>
          <rect id="Rectangle_8099" data-name="Rectangle 8099" width="39.185" height="9.1" rx="2.106" transform="translate(14.999 43.732) rotate(-16.845)" fill="#c7c8ca"/>
          <g id="Group_10692" data-name="Group 10692" transform="translate(21.14 48.008)">
            <g id="Group_10691" data-name="Group 10691">
              <path id="Path_65226" data-name="Path 65226" d="M601.126,207.954a6.359,6.359,0,0,1-3.188-1.864,9.291,9.291,0,0,1-2.068-3.776l0-.01a9.247,9.247,0,0,1-.373-4.284,6.342,6.342,0,0,1,1.623-3.309,7.555,7.555,0,0,1,3.412-2.018,7.3,7.3,0,0,1,3.353-.268,6.037,6.037,0,0,1,2.789,1.215,5.843,5.843,0,0,1,1.809,2.445l.04.1-2.974.9-.092-.159a3.687,3.687,0,0,0-1.04-1.215,3.193,3.193,0,0,0-1.41-.587,3.767,3.767,0,0,0-1.693.15,3.589,3.589,0,0,0-1.845,1.213,4.036,4.036,0,0,0-.811,2.1,6.955,6.955,0,0,0,.325,2.764l0,.01a7.089,7.089,0,0,0,1.271,2.5,4,4,0,0,0,1.849,1.311,3.6,3.6,0,0,0,2.2-.012,3.8,3.8,0,0,0,1.465-.8,3.206,3.206,0,0,0,.866-1.281,3.918,3.918,0,0,0,.209-1.675l-.011-.106,2.974-.9.023.114a5.813,5.813,0,0,1-.153,3.039,6.046,6.046,0,0,1-1.653,2.554,7.338,7.338,0,0,1-2.94,1.633A7.528,7.528,0,0,1,601.126,207.954Z" transform="translate(-595.385 -186.678)" fill="#c7c8ca"/>
              <path id="Path_65227" data-name="Path 65227" d="M605.587,191.778l3.367-1.019,6.79,10.425.06-.018-.144-12.437,3.376-1.023-.464,16.022-3.72,1.127Z" transform="translate(-593.119 -187.706)" fill="#c7c8ca"/>
            </g>
          </g>
        </g>
        <g id="Group_10695" data-name="Group 10695" transform="translate(888.121 217.764)">
          <rect id="Rectangle_8100" data-name="Rectangle 8100" width="53.737" height="67.462" rx="3.051" transform="matrix(0.693, 0.721, -0.721, 0.693, 48.607, 0)" fill="#fb0"/>
          <rect id="Rectangle_8101" data-name="Rectangle 8101" width="51.175" height="64.245" rx="2.906" transform="matrix(0.693, 0.721, -0.721, 0.693, 48.337, 2.038)" fill="#f5f7f6"/>
          <rect id="Rectangle_8102" data-name="Rectangle 8102" width="31.664" height="9.1" rx="2.024" transform="matrix(0.693, 0.721, -0.721, 0.693, 46.349, 10.771)" fill="#c7c8ca"/>
          <rect id="Rectangle_8103" data-name="Rectangle 8103" width="39.185" height="9.1" rx="2.106" transform="matrix(0.693, 0.721, -0.721, 0.693, 38.298, 18.52)" fill="#d1e1f9"/>
          <rect id="Rectangle_8104" data-name="Rectangle 8104" width="39.185" height="9.1" rx="2.106" transform="matrix(0.693, 0.721, -0.721, 0.693, 30.353, 26.166)" fill="#d1e1f9"/>
          <g id="Group_10694" data-name="Group 10694" transform="translate(12.824 38.532)">
            <path id="Path_65228" data-name="Path 65228" d="M835.2,227.814a6.354,6.354,0,0,1,.208-3.687,9.305,9.305,0,0,1,2.422-3.56l.009-.007a9.254,9.254,0,0,1,3.645-2.28,6.337,6.337,0,0,1,3.684-.06,7.552,7.552,0,0,1,3.349,2.12,7.309,7.309,0,0,1,1.763,2.866,6.047,6.047,0,0,1,.187,3.036,5.855,5.855,0,0,1-1.355,2.723l-.07.081-2.154-2.239.1-.155a3.709,3.709,0,0,0,.61-1.477,3.187,3.187,0,0,0-.121-1.523,3.764,3.764,0,0,0-.9-1.441,3.6,3.6,0,0,0-1.92-1.09,4.036,4.036,0,0,0-2.239.232A6.949,6.949,0,0,0,840.1,222.9l-.007.007a7.089,7.089,0,0,0-1.653,2.269,4.014,4.014,0,0,0-.326,2.244,3.608,3.608,0,0,0,1.013,1.956,3.8,3.8,0,0,0,1.376.943,3.207,3.207,0,0,0,1.534.189,3.915,3.915,0,0,0,1.588-.577l.09-.059,2.154,2.24-.09.072A5.81,5.81,0,0,1,843,233.431a6.042,6.042,0,0,1-3.027-.31,7.356,7.356,0,0,1-2.791-1.876A7.5,7.5,0,0,1,835.2,227.814Z" transform="translate(-835.02 -217.975)" fill="#186adf"/>
            <path id="Path_65229" data-name="Path 65229" d="M851.557,224.524,854,227.06l-6.2,10.788.044.045,11.01-5.786,2.447,2.542-14.48,6.875-2.7-2.8Z" transform="translate(-832.998 -216.52)" fill="#186adf"/>
          </g>
        </g>
        <g id="Group_10698" data-name="Group 10698" transform="translate(756.091 76.333)">
          <rect id="Rectangle_8105" data-name="Rectangle 8105" width="44.074" height="55.33" rx="2.502" transform="matrix(0.938, 0.347, -0.347, 0.938, 19.192, 0)" fill="#fb0"/>
          <rect id="Rectangle_8106" data-name="Rectangle 8106" width="41.973" height="52.692" rx="2.383" transform="matrix(0.938, 0.347, -0.347, 0.938, 19.72, 1.601)" fill="#f5f7f6"/>
          <rect id="Rectangle_8107" data-name="Rectangle 8107" width="25.97" height="7.464" rx="1.66" transform="matrix(0.938, 0.347, -0.347, 0.938, 21.37, 8.76)" fill="#c7c8ca"/>
          <rect id="Rectangle_8108" data-name="Rectangle 8108" width="32.138" height="7.464" rx="1.727" transform="matrix(0.938, 0.347, -0.347, 0.938, 18.191, 17.355)" fill="#c7c8ca"/>
          <rect id="Rectangle_8109" data-name="Rectangle 8109" width="32.138" height="7.464" rx="1.727" transform="matrix(0.938, 0.347, -0.347, 0.938, 15.054, 25.838)" fill="#c7c8ca"/>
          <g id="Group_10697" data-name="Group 10697" transform="translate(8.971 37.708)">
            <g id="Group_10696" data-name="Group 10696">
              <path id="Path_65230" data-name="Path 65230" d="M725.026,112.286a5.207,5.207,0,0,1-1.162-2.8,7.614,7.614,0,0,1,.517-3.493l0-.009A7.584,7.584,0,0,1,726.263,103a5.191,5.191,0,0,1,2.7-1.359,6.192,6.192,0,0,1,3.23.37,5.986,5.986,0,0,1,2.324,1.486,4.95,4.95,0,0,1,1.222,2.174,4.8,4.8,0,0,1-.029,2.494l-.022.084-2.39-.884.02-.15a3.049,3.049,0,0,0-.078-1.309,2.614,2.614,0,0,0-.632-1.082,3.093,3.093,0,0,0-1.182-.741,2.949,2.949,0,0,0-1.807-.12,3.306,3.306,0,0,0-1.57.972,5.686,5.686,0,0,0-1.156,1.967l0,.007a5.839,5.839,0,0,0-.411,2.267,3.287,3.287,0,0,0,.561,1.773,2.956,2.956,0,0,0,1.446,1.083,3.124,3.124,0,0,0,1.353.205,2.62,2.62,0,0,0,1.2-.408,3.2,3.2,0,0,0,.967-.992l.045-.075,2.392.884-.042.087a4.776,4.776,0,0,1-1.606,1.911,4.94,4.94,0,0,1-2.345.851,6.01,6.01,0,0,1-2.73-.389A6.158,6.158,0,0,1,725.026,112.286Z" transform="translate(-723.826 -101.566)" fill="#c7c8ca"/>
              <path id="Path_65231" data-name="Path 65231" d="M735.453,103.86l2.707,1-.725,10.178.049.018,6.064-8.2,2.715,1L738.024,118.1,735.035,117Z" transform="translate(-721.338 -101.057)" fill="#c7c8ca"/>
            </g>
          </g>
        </g>
        <g id="Group_10701" data-name="Group 10701" transform="translate(702.167 45.384)">
          <rect id="Rectangle_8110" data-name="Rectangle 8110" width="37.333" height="46.868" rx="2.12" transform="translate(0 14.643) rotate(-23.092)" fill="#fb0"/>
          <rect id="Rectangle_8111" data-name="Rectangle 8111" width="35.553" height="44.634" rx="2.019" transform="translate(1.257 15.321) rotate(-23.092)" fill="#f5f7f6"/>
          <rect id="Rectangle_8112" data-name="Rectangle 8112" width="21.998" height="6.322" rx="1.406" transform="translate(6.438 18.768) rotate(-23.092)" fill="#c7c8ca"/>
          <rect id="Rectangle_8113" data-name="Rectangle 8113" width="27.223" height="6.322" rx="1.463" transform="translate(9.482 25.909) rotate(-23.092)" fill="#c7c8ca"/>
          <rect id="Rectangle_8114" data-name="Rectangle 8114" width="27.223" height="6.322" rx="1.463" transform="translate(12.487 32.956) rotate(-23.092)" fill="#c7c8ca"/>
          <g id="Group_10700" data-name="Group 10700" transform="translate(17.975 33.486)">
            <g id="Group_10699" data-name="Group 10699">
              <path id="Path_65232" data-name="Path 65232" d="M691.719,88.044A4.419,4.419,0,0,1,689.375,87a6.44,6.44,0,0,1-1.713-2.451l0-.006a6.422,6.422,0,0,1-.582-2.93,4.4,4.4,0,0,1,.871-2.409,5.242,5.242,0,0,1,2.2-1.651,5.053,5.053,0,0,1,2.295-.437,4.193,4.193,0,0,1,2.018.627,4.062,4.062,0,0,1,1.435,1.552l.035.065-1.986.847-.076-.1a2.584,2.584,0,0,0-.81-.761,2.21,2.21,0,0,0-1.018-.3,2.616,2.616,0,0,0-1.159.231,2.5,2.5,0,0,0-1.182.978,2.8,2.8,0,0,0-.4,1.512,4.818,4.818,0,0,0,.434,1.883l0,.007a4.935,4.935,0,0,0,1.067,1.634,2.771,2.771,0,0,0,1.376.765,2.5,2.5,0,0,0,1.52-.175,2.63,2.63,0,0,0,.952-.66,2.227,2.227,0,0,0,.5-.951,2.71,2.71,0,0,0,.017-1.172l-.016-.073,1.986-.847.026.077a4.034,4.034,0,0,1,.123,2.11,4.2,4.2,0,0,1-.948,1.889,5.114,5.114,0,0,1-1.906,1.349A5.223,5.223,0,0,1,691.719,88.044Z" transform="translate(-687.068 -71.826)" fill="#c7c8ca"/>
              <path id="Path_65233" data-name="Path 65233" d="M693.61,76.614l2.249-.958,5.477,6.686.04-.017-1.04-8.577,2.255-.962.891,11.1L701,84.944Z" transform="translate(-685.615 -72.785)" fill="#c7c8ca"/>
            </g>
          </g>
        </g>
        <g id="Group_10703" data-name="Group 10703" transform="translate(866.858 178.409)">
          <rect id="Rectangle_8115" data-name="Rectangle 8115" width="44.074" height="55.33" rx="2.502" transform="translate(37.127 0) rotate(42.145)" fill="#fb0"/>
          <rect id="Rectangle_8116" data-name="Rectangle 8116" width="41.973" height="52.692" rx="2.383" transform="translate(37.021 1.683) rotate(42.145)" fill="#f5f7f6"/>
          <rect id="Rectangle_8117" data-name="Rectangle 8117" width="25.97" height="7.464" rx="1.66" transform="translate(35.888 8.941) rotate(42.145)" fill="#c7c8ca"/>
          <rect id="Rectangle_8118" data-name="Rectangle 8118" width="32.138" height="7.464" rx="1.727" transform="translate(29.739 15.736) rotate(42.145)" fill="#c7c8ca"/>
          <rect id="Rectangle_8119" data-name="Rectangle 8119" width="32.138" height="7.464" rx="1.727" transform="translate(23.67 22.442) rotate(42.145)" fill="#c7c8ca"/>
          <g id="Group_10702" data-name="Group 10702" transform="translate(10.486 33.063)">
            <path id="Path_65234" data-name="Path 65234" d="M815.951,189.824a5.216,5.216,0,0,1-.038-3.029,7.617,7.617,0,0,1,1.781-3.049l.006-.006a7.579,7.579,0,0,1,2.855-2.073,5.2,5.2,0,0,1,3.011-.258,6.2,6.2,0,0,1,2.861,1.546,6,6,0,0,1,1.6,2.245,4.97,4.97,0,0,1,.325,2.473,4.807,4.807,0,0,1-.956,2.3l-.051.07-1.891-1.711.073-.132a3.043,3.043,0,0,0,.415-1.244,2.62,2.62,0,0,0-.185-1.238,3.082,3.082,0,0,0-.821-1.128,2.941,2.941,0,0,0-1.633-.783,3.3,3.3,0,0,0-1.818.317,5.7,5.7,0,0,0-1.8,1.4l-.006.006a5.838,5.838,0,0,0-1.225,1.952,3.28,3.28,0,0,0-.139,1.854,2.95,2.95,0,0,0,.939,1.543,3.1,3.1,0,0,0,1.179.694,2.627,2.627,0,0,0,1.266.068,3.2,3.2,0,0,0,1.266-.562l.071-.053,1.889,1.711-.07.065a4.783,4.783,0,0,1-2.2,1.177,4.956,4.956,0,0,1-2.493-.083,6.023,6.023,0,0,1-2.39-1.377A6.162,6.162,0,0,1,815.951,189.824Z" transform="translate(-815.707 -181.294)" fill="#186adf"/>
            <path id="Path_65235" data-name="Path 65235" d="M829.087,186.194l2.14,1.937-4.46,9.178.039.034,8.681-5.356,2.146,1.942-11.459,6.443-2.365-2.139Z" transform="translate(-813.908 -180.206)" fill="#186adf"/>
          </g>
        </g>
        <g id="Group_10706" data-name="Group 10706" transform="translate(649.395 130.532)">
          <rect id="Rectangle_8120" data-name="Rectangle 8120" width="66.575" height="83.578" rx="3.78" transform="translate(0 4.681) rotate(-4.032)" fill="#fb0"/>
          <rect id="Rectangle_8121" data-name="Rectangle 8121" width="63.401" height="79.593" rx="3.6" transform="translate(1.723 6.557) rotate(-4.032)" fill="#f5f7f6"/>
          <rect id="Rectangle_8122" data-name="Rectangle 8122" width="39.229" height="11.274" rx="2.508" transform="translate(8.448 15.383) rotate(-4.032)" fill="#c7c8ca"/>
          <rect id="Rectangle_8123" data-name="Rectangle 8123" width="48.545" height="11.274" rx="2.609" transform="translate(9.422 29.192) rotate(-4.032)" fill="#c7c8ca"/>
          <rect id="Rectangle_8124" data-name="Rectangle 8124" width="48.545" height="11.274" rx="2.609" transform="translate(10.382 42.819) rotate(-4.032)" fill="#c7c8ca"/>
          <g id="Group_10705" data-name="Group 10705" transform="translate(12.876 56.793)">
            <g id="Group_10704" data-name="Group 10704">
              <path id="Path_65236" data-name="Path 65236" d="M644.554,181.414a7.878,7.878,0,0,1-3.341-3.126,11.508,11.508,0,0,1-1.46-5.13v-.013a11.479,11.479,0,0,1,.727-5.278,7.851,7.851,0,0,1,2.871-3.551,9.354,9.354,0,0,1,4.676-1.5,9.022,9.022,0,0,1,4.124.6,7.487,7.487,0,0,1,3.036,2.231A7.25,7.25,0,0,1,656.7,169.1l.022.13-3.84.27-.067-.218a4.6,4.6,0,0,0-.923-1.754,3.954,3.954,0,0,0-1.542-1.095,4.66,4.66,0,0,0-2.087-.284,4.455,4.455,0,0,0-2.561.958,4.992,4.992,0,0,0-1.557,2.315,8.622,8.622,0,0,0-.368,3.428v.012a8.792,8.792,0,0,0,.847,3.375,4.952,4.952,0,0,0,1.873,2.091,4.469,4.469,0,0,0,2.665.591,4.692,4.692,0,0,0,1.988-.56,3.965,3.965,0,0,0,1.4-1.309,4.84,4.84,0,0,0,.711-1.966l.017-.132,3.841-.27,0,.144a7.215,7.215,0,0,1-1.019,3.629,7.494,7.494,0,0,1-2.7,2.63,9.1,9.1,0,0,1-4,1.166A9.316,9.316,0,0,1,644.554,181.414Z" transform="translate(-639.712 -161.257)" fill="#c7c8ca"/>
              <path id="Path_65237" data-name="Path 65237" d="M654.19,162.759l4.348-.307,5.337,14.459.078,0,3.242-15.064,4.362-.308-4.964,19.229-4.8.339Z" transform="translate(-636.497 -161.535)" fill="#c7c8ca"/>
            </g>
          </g>
        </g>
        <g id="Group_10709" data-name="Group 10709" transform="translate(809.64 123.417)">
          <rect id="Rectangle_8125" data-name="Rectangle 8125" width="54.603" height="68.548" rx="3.1" transform="translate(30.435 0) rotate(26.359)" fill="#fb0"/>
          <rect id="Rectangle_8126" data-name="Rectangle 8126" width="52" height="65.28" rx="2.952" transform="translate(30.876 2.042) rotate(26.359)" fill="#f5f7f6"/>
          <rect id="Rectangle_8127" data-name="Rectangle 8127" width="32.174" height="9.246" rx="2.057" transform="translate(31.971 11.077) rotate(26.359)" fill="#c7c8ca"/>
          <rect id="Rectangle_8128" data-name="Rectangle 8128" width="39.816" height="9.246" rx="2.14" transform="translate(26.93 21.25) rotate(26.359)" fill="#c7c8ca"/>
          <rect id="Rectangle_8129" data-name="Rectangle 8129" width="39.816" height="9.246" rx="2.14" transform="translate(21.956 31.29) rotate(26.359)" fill="#c7c8ca"/>
          <g id="Group_10708" data-name="Group 10708" transform="translate(11.918 45.87)">
            <g id="Group_10707" data-name="Group 10707">
              <path id="Path_65238" data-name="Path 65238" d="M771.123,159.385a6.457,6.457,0,0,1-1.066-3.6,9.431,9.431,0,0,1,1.095-4.236l0-.009a9.386,9.386,0,0,1,2.7-3.433,6.437,6.437,0,0,1,3.5-1.322,7.678,7.678,0,0,1,3.93.879,7.407,7.407,0,0,1,2.669,2.135,6.143,6.143,0,0,1,1.222,2.839,5.944,5.944,0,0,1-.363,3.07l-.038.1-2.829-1.4.043-.182a3.771,3.771,0,0,0,.076-1.623,3.234,3.234,0,0,0-.638-1.414,3.833,3.833,0,0,0-1.358-1.068,3.662,3.662,0,0,0-2.211-.384,4.094,4.094,0,0,0-2.062.991A7.056,7.056,0,0,0,774.125,153l0,.01a7.223,7.223,0,0,0-.8,2.739,4.075,4.075,0,0,0,.458,2.258,3.657,3.657,0,0,0,1.64,1.523,3.846,3.846,0,0,0,1.639.43,3.24,3.24,0,0,0,1.532-.346,3.949,3.949,0,0,0,1.32-1.1l.067-.086,2.829,1.4-.062.1a5.911,5.911,0,0,1-2.228,2.146,6.141,6.141,0,0,1-3,.741,7.458,7.458,0,0,1-3.313-.836A7.636,7.636,0,0,1,771.123,159.385Z" transform="translate(-770.057 -146.774)" fill="#c7c8ca"/>
              <path id="Path_65239" data-name="Path 65239" d="M785.2,150.5l3.2,1.587-2.224,12.444.057.028,8.544-9.312L798,156.836l-11.49,11.543-3.539-1.754Z" transform="translate(-767.19 -145.948)" fill="#c7c8ca"/>
            </g>
          </g>
        </g>
        <ellipse id="Ellipse_646" data-name="Ellipse 646" cx="45.66" cy="26.169" rx="45.66" ry="26.169" transform="translate(728.529 567.491)" fill="url(#radial-gradient)" style="mix-blend-mode: multiply;isolation: isolate"/>
        <g id="Group_10722" data-name="Group 10722">
          <path id="Path_65240" data-name="Path 65240" d="M983.666,280.9l-104.6,51.552L774.411,384.036l-4.021,1.981-4.021-1.981L661.711,332.455,557.114,280.9l-.02-.032,55.28-27.245L770.39,175.747l158.016,77.879,55.28,27.245Z" transform="translate(4.214 28.946)" fill="#1156a8"/>
          <path id="Path_65241" data-name="Path 65241" d="M774.6,184.554,616.589,262.433l-55.28,27.245-23.195-37.041L774.6,136.081Z" transform="translate(0 20.139)" fill="#328efc"/>
          <path id="Path_65242" data-name="Path 65242" d="M968.126,252.637l-23.195,37.041-55.28-27.245L731.635,184.554V136.081Z" transform="translate(42.97 20.139)" fill="#186adf"/>
          <ellipse id="Ellipse_642" data-name="Ellipse 642" cx="198.495" cy="112.076" rx="198.495" ry="112.076" transform="translate(575.592 201.2)" fill="url(#radial-gradient-2)" style="mix-blend-mode: multiply;isolation: isolate"/>
          <text id="_1" data-name="1" transform="translate(751.222 195.334)" fill="#fff" font-size="18" font-family="SegoeUI, Segoe UI" letter-spacing="-0.003em"><tspan x="0" y="0">1</tspan></text>
        </g>
        <g id="Group_10721" data-name="Group 10721">
          <g id="Group_10710" data-name="Group 10710" transform="translate(584.94 255.858)">
            <path id="Path_65243" data-name="Path 65243" d="M930.867,336.743,848.183,377.5l-82.733,40.776-3.178,1.566-3.178-1.566L676.36,377.5l-82.685-40.752-.016-.025,43.7-21.538,124.913-61.564L887.184,315.18l43.7,21.538Z" transform="translate(-572.607 -209.622)" fill="#ff9a21"/>
            <path id="Path_65244" data-name="Path 65244" d="M766.1,261.609,641.183,323.174l-43.7,21.538-21.052-33.619L766.1,217.615Z" transform="translate(-576.432 -217.615)" fill="#fb0"/>
            <path id="Path_65245" data-name="Path 65245" d="M921.3,311.093l-21.052,33.619-43.7-21.538L731.635,261.609V217.615Z" transform="translate(-541.971 -217.615)" fill="#c97636"/>
          </g>
          <ellipse id="Ellipse_643" data-name="Ellipse 643" cx="159.296" cy="89.943" rx="159.296" ry="89.943" transform="translate(614.894 296.899)" fill="url(#radial-gradient-3)" style="mix-blend-mode: multiply;isolation: isolate"/>
          <text id="_2" data-name="2" transform="translate(750.762 295.125)" fill="#fff" font-size="18" font-family="SegoeUI, Segoe UI" letter-spacing="-0.003em"><tspan x="0" y="0">2</tspan></text>
        </g>
        <g id="Group_10720" data-name="Group 10720">
          <path id="Path_65246" data-name="Path 65246" d="M881.9,389.67l-42.863-21.125L796.139,347.4l-41.4-20.4-41.4,20.4-42.894,21.14L627.582,389.67l.024.038,81.125,39.984,46.007,22.675,46.007-22.675,81.125-39.984Z" transform="translate(19.866 62.53)" fill="#093468"/>
          <path id="Path_65247" data-name="Path 65247" d="M758.429,334.717l-41.4,20.4-42.895,21.141-42.862,21.125-20.309-32.432,147.465-72.708Z" transform="translate(16.176 54.813)" fill="#0855b2"/>
          <path id="Path_65248" data-name="Path 65248" d="M879.1,364.954l-20.309,32.432-42.862-21.125-42.894-21.141-41.4-20.4V292.246Z" transform="translate(42.97 54.813)" fill="#00337f"/>
          <ellipse id="Ellipse_644" data-name="Ellipse 644" cx="116.749" cy="63.063" rx="116.749" ry="63.063" transform="translate(657.441 392.143)" fill="url(#radial-gradient-4)" style="mix-blend-mode: multiply;isolation: isolate"/>
          <text id="_3" data-name="3" transform="translate(749.189 381.507)" fill="#fff" font-size="18" font-family="SegoeUI, Segoe UI" letter-spacing="-0.003em"><tspan x="0" y="0">3</tspan></text>
        </g>
        <g id="Group_10719" data-name="Group 10719">
          <path id="Path_65249" data-name="Path 65249" d="M833.9,441.036l-41.739-20.572L750.4,399.879l-3.037-1.5-3.037,1.5-41.768,20.585-41.739,20.572.013.021,78.951,38.911,7.579,3.736,7.578-3.736,78.951-38.911Z" transform="translate(27.245 78.38)" fill="#1156a8"/>
          <path id="Path_65250" data-name="Path 65250" d="M838.627,416.153l-20.448,32.654-41.739-20.571-41.767-20.585-3.037-1.5V363.38Z" transform="translate(42.97 70.608)" fill="#186adf"/>
          <path id="Path_65251" data-name="Path 65251" d="M751.08,406.154l-3.037,1.5-41.767,20.585-41.739,20.571-20.468-32.687L751.08,363.38Z" transform="translate(23.526 70.608)" fill="#328efc"/>
          <ellipse id="Ellipse_645" data-name="Ellipse 645" cx="73.357" cy="41.648" rx="73.357" ry="41.648" transform="translate(698.747 483.095)" fill="url(#radial-gradient-5)" style="mix-blend-mode: multiply;isolation: isolate"/>
          <text id="_4" data-name="4" transform="translate(748.889 468.339)" fill="#fff" font-size="18" font-family="SegoeUI, Segoe UI" letter-spacing="-0.003em"><tspan x="0" y="0">4</tspan></text>
        </g>
        <g id="Group_10718" data-name="Group 10718">
          <path id="Path_65252" data-name="Path 65252" d="M794,491.993l-52.759,26-52.759-26-.11-.176,44.74-22.051,8.129-4.006,8.129,4.006,44.74,22.051Z" transform="translate(33.364 93.341)" fill="#ff9a21"/>
          <path id="Path_65253" data-name="Path 65253" d="M744.811,473.221l-8.129,4.006-44.74,22.051L672.3,467.918l72.506-35.758Z" transform="translate(29.796 85.88)" fill="#fb0"/>
          <path id="Path_65254" data-name="Path 65254" d="M804.143,467.918l-19.637,31.36-44.74-22.051-8.129-4.006V432.16Z" transform="translate(42.97 85.88)" fill="#c97636"/>
          <text id="_5" data-name="5" transform="translate(749.955 552.24)" fill="#fff" font-size="18" font-family="SegoeUI, Segoe UI" letter-spacing="-0.003em"><tspan x="0" y="0">5</tspan></text>
        </g>
        <g id="Group_10717" data-name="Group 10717">
          <path id="Path_65255" data-name="Path 65255" d="M698.654,512l-.084-.134,34.2-16.854,6.213-3.062V576.4Z" transform="translate(35.628 99.156)" fill="#0855b2"/>
          <path id="Path_65256" data-name="Path 65256" d="M771.961,512l-40.325,64.4V491.953l6.213,3.062,34.2,16.854Z" transform="translate(42.97 99.156)" fill="#00337f"/>
          <text id="_6" data-name="6" transform="translate(751.222 622.335)" fill="#fff" font-size="18" font-family="SegoeUI, Segoe UI" letter-spacing="-0.003em"><tspan x="0" y="0">6</tspan></text>
        </g>
      </g>
    </g>
  </g>
</svg>
