<svg xmlns="http://www.w3.org/2000/svg" width="39.856" height="38.606" viewBox="0 0 39.856 38.606">
  <g id="Group_26680" data-name="Group 26680" transform="translate(0 -0.5)">
    <path id="Path_81901" data-name="Path 81901" d="M39.514,52.786l-3.776-3.777-7.812,7.812a9.473,9.473,0,0,1-5.046,2.644l4.977,4.977a1.167,1.167,0,0,0,1.651,0L39.514,54.437A1.168,1.168,0,0,0,39.514,52.786ZM34.2,47.245a3.381,3.381,0,0,0,0-4.775l0,0a3.373,3.373,0,0,0-1.119-.743,3.381,3.381,0,0,0-.754-3.632l-.009-.009a3.377,3.377,0,0,0-1.113-.736,3.38,3.38,0,0,0-.753-3.631l0,0a3.369,3.369,0,0,0-1.12-.744,3.382,3.382,0,0,0-.754-3.632h0a3.381,3.381,0,0,0-4.777,0l-2.214,2.214,1.132,1.132A4.84,4.84,0,0,1,20.447,40.8,4.839,4.839,0,0,1,16.91,44.34a4.848,4.848,0,0,1-3.54,3.54,4.839,4.839,0,0,1-8.12,2.262L4.118,49.009.342,52.786a1.168,1.168,0,0,0,0,1.651L10.348,64.442a1.168,1.168,0,0,0,1.652,0l7.162-7.162h2.018a7.16,7.16,0,0,0,5.1-2.111Zm0,0" transform="translate(0 -25.679)" fill="#006ce5"/>
    <path id="Path_81902" data-name="Path 81902" d="M57.9,22.811a2.5,2.5,0,1,0,3.54-3.54,2.5,2.5,0,1,0,3.54-3.539,2.5,2.5,0,0,0,3.54-3.54,2.5,2.5,0,0,0,3.539-3.54L67.067,3.662A2.5,2.5,0,0,0,63.528,7.2l.625.625a2.5,2.5,0,0,0-3.54,3.54l1.251,1.251a2.5,2.5,0,1,0-3.54,3.54l1.251,1.251a2.5,2.5,0,0,0-3.54,3.54ZM73.14,2a5.785,5.785,0,0,1,.545-.479L73,.842A1.168,1.168,0,0,0,71.654.623L68.772,2.065l2.153,2.154Zm0,0" transform="translate(-50.998 0)" fill="#006ce5"/>
  </g>
</svg>
