<svg xmlns="http://www.w3.org/2000/svg" width="120.284" height="102.175" viewBox="0 0 120.284 102.175">
  <g id="Group_26684" data-name="Group 26684" transform="translate(0 -38.542)">
    <path id="Path_81910" data-name="Path 81910" d="M110.182,38.542H10.1A10.113,10.113,0,0,0,0,48.644v81.971a10.114,10.114,0,0,0,10.1,10.1h100.08a10.114,10.114,0,0,0,10.1-10.1V48.644a10.113,10.113,0,0,0-10.1-10.1ZM10.1,42.3h100.08a6.35,6.35,0,0,1,6.343,6.343V63.985H3.759V48.644A6.35,6.35,0,0,1,10.1,42.3Zm100.08,94.657H10.1a6.35,6.35,0,0,1-6.343-6.343V67.743H116.525v62.872a6.35,6.35,0,0,1-6.343,6.343ZM16.745,59.049a5.906,5.906,0,1,0-5.906-5.906A5.906,5.906,0,0,0,16.745,59.049Zm0-8.054A2.147,2.147,0,1,1,14.6,53.143,2.148,2.148,0,0,1,16.745,51Zm16.5,8.054a5.906,5.906,0,1,0-5.906-5.906A5.906,5.906,0,0,0,33.25,59.049Zm0-8.054A2.147,2.147,0,1,1,31.1,53.143,2.148,2.148,0,0,1,33.25,51Zm16.5,8.054a5.906,5.906,0,1,0-5.906-5.906A5.906,5.906,0,0,0,49.754,59.049Zm0-8.054a2.147,2.147,0,1,1-2.147,2.147A2.148,2.148,0,0,1,49.754,51Zm18.354,2.147a1.879,1.879,0,0,1,1.879-1.879h37.578a1.879,1.879,0,1,1,0,3.759H69.987a1.879,1.879,0,0,1-1.879-1.879ZM89.165,71.822a37.258,37.258,0,0,0-23.192,2.77A34.818,34.818,0,0,0,53.722,84.56c-12.842,1.274-20.4,4.722-23.087,10.531a1.879,1.879,0,0,0-.164.978c.223,2.208.338,3.947.43,5.343.22,3.337.32,4.861,1.633,5.843a3.021,3.021,0,0,0,1.906.591,14.3,14.3,0,0,0,2.924-.472c1.18-.265,2.651-.593,4.573-.883q-.6,1.259-1.2,2.525a1.879,1.879,0,0,0,.374,2.125l3.081,3.081a1.875,1.875,0,0,0-1.775-.105c-1.636.764-3.846,1.862-6.567,3.262l-.045.023a13.21,13.21,0,0,0-6.649,14.425,1.879,1.879,0,0,0,1.506,1.506,15.205,15.205,0,0,0,2.771.258,13.037,13.037,0,0,0,11.654-6.907c.008-.015.016-.03.024-.045,1.4-2.718,2.5-4.928,3.262-6.567a1.875,1.875,0,0,0-.105-1.775l3.081,3.081a1.879,1.879,0,0,0,2.124.374q1.266-.592,2.525-1.2c-.29,1.922-.618,3.393-.883,4.573-.485,2.164-.806,3.594.12,4.83.982,1.313,2.506,1.414,5.843,1.633,1.4.092,3.135.207,5.342.43a1.876,1.876,0,0,0,.978-.164c5.81-2.687,9.258-10.245,10.531-23.088A34.817,34.817,0,0,0,87.9,96.518a37.256,37.256,0,0,0,2.77-23.192,1.879,1.879,0,0,0-1.505-1.5ZM41.784,124.9a9.3,9.3,0,0,1-9.1,4.912,9.3,9.3,0,0,1,4.912-9.1c2.054-1.057,3.806-1.935,5.228-2.623l1.582,1.582C43.719,121.091,42.84,122.843,41.784,124.9Zm-5.242-21.19c-.577.129-1.206.27-1.64.34-.1-.643-.178-1.776-.251-2.881-.086-1.31-.192-2.914-.387-4.929,2.053-3.767,7.647-6.3,16.659-7.561q-.289.487-.564.982-.012.022-.024.045-3.712,7.214-6.435,12.748a61.184,61.184,0,0,0-7.359,1.255Zm29.715,24.522c-2.014-.195-3.618-.3-4.928-.387-1.1-.073-2.239-.148-2.882-.251.07-.434.211-1.063.34-1.64a61.094,61.094,0,0,0,1.255-7.359q5.521-2.717,12.749-6.435l.045-.023c.332-.183.658-.373.982-.564C72.561,120.581,70.024,126.175,66.257,128.228Zm4.791-19.4c-7.311,3.761-13.348,6.771-17.972,8.96l-8.368-8.369c2.187-4.622,5.2-10.659,8.96-17.972C60.462,79.1,72.924,73.13,87.192,75.3c2.171,14.266-3.8,26.73-16.144,33.526Zm5.641-29.184a6.162,6.162,0,1,0,4.357,1.8A6.162,6.162,0,0,0,76.689,79.642Zm1.7,7.861a2.387,2.387,0,1,1,.711-1.7A2.4,2.4,0,0,1,78.388,87.5Zm-8.216,4.818a1.879,1.879,0,0,1,0,2.658L60.2,104.949a1.879,1.879,0,1,1-2.658-2.657l9.971-9.971a1.879,1.879,0,0,1,2.658,0Z" fill="#006ce5"/>
  </g>
</svg>
