<svg id="Group_26679" data-name="Group 26679" xmlns="http://www.w3.org/2000/svg" width="37.047" height="37.047" viewBox="0 0 37.047 37.047">
  <path id="Path_81898" data-name="Path 81898" d="M35.962,0H31.548a1.085,1.085,0,0,0-1.085,1.085V2.171H21.58a3.237,3.237,0,0,0-6.112,0H6.585V1.085A1.085,1.085,0,0,0,5.5,0H1.085A1.085,1.085,0,0,0,0,1.085V5.427A1.085,1.085,0,0,0,1.085,6.512H5.5A1.085,1.085,0,0,0,6.585,5.427v-1.1h4.457A14.159,14.159,0,0,0,4.495,15.442a3.247,3.247,0,1,0,2.166.049,11.91,11.91,0,0,1,8.98-10.752,3.229,3.229,0,0,0,5.764,0,11.91,11.91,0,0,1,8.98,10.752,3.265,3.265,0,1,0,2.166-.049A14.133,14.133,0,0,0,26,4.341h4.457V5.427a1.085,1.085,0,0,0,1.085,1.085h4.414a1.085,1.085,0,0,0,1.085-1.085V1.085A1.085,1.085,0,0,0,35.962,0ZM25.907,35.7a4.414,4.414,0,0,0-4.128-3.068H15.267A4.414,4.414,0,0,0,11.139,35.7,1.069,1.069,0,0,0,12.2,37.047H24.852A1.069,1.069,0,0,0,25.907,35.7Z" fill="#006ce5"/>
  <path id="Path_81899" data-name="Path 81899" d="M140.354,144.21l-8.5-12.751v10.3a3.256,3.256,0,1,1-2.171,0v-10.3l-8.5,12.751a1.085,1.085,0,0,0,.136,1.369,13.705,13.705,0,0,1,3.758,7.313,6.463,6.463,0,0,1,2.436-.483h6.512a6.464,6.464,0,0,1,2.436.483,13.7,13.7,0,0,1,3.758-7.313,1.085,1.085,0,0,0,.136-1.369Z" transform="translate(-112.245 -121.947)" fill="#006ce5"/>
  <path id="Path_81900" data-name="Path 81900" d="M242.085,301a1.085,1.085,0,1,0,1.085,1.085A1.086,1.086,0,0,0,242.085,301Z" transform="translate(-223.562 -279.221)" fill="#006ce5"/>
</svg>
