<svg xmlns="http://www.w3.org/2000/svg" width="105.742" height="117.695" viewBox="0 0 105.742 117.695">
  <g id="Group_26681" data-name="Group 26681" transform="translate(-26)">
    <path id="Path_81903" data-name="Path 81903" d="M161.17,0a2.3,2.3,0,0,0-2.3,2.3V12.873a2.3,2.3,0,1,0,4.6,0V2.3A2.3,2.3,0,0,0,161.17,0ZM108.3,71.721a2.3,2.3,0,1,0,2.3,2.3A2.3,2.3,0,0,0,108.3,71.721Z" transform="translate(-61.61)" fill="#006ce5"/>
    <path id="Path_81904" data-name="Path 81904" d="M131.742,148.757a9.205,9.205,0,0,0-9.195-9.195H105.386a57.728,57.728,0,0,0,3.525-21.945,26.181,26.181,0,0,0-.162-2.643,9.193,9.193,0,0,0-18.384.221v2.3c0,14.539-18.669,22.707-32.758,26.21a6.905,6.905,0,0,0-6.321-4.142H28.3a2.3,2.3,0,0,0-2.3,2.3v55.17a2.3,2.3,0,0,0,2.3,2.3H51.286a6.9,6.9,0,0,0,6.3-4.094q1.626.418,3.249.843c8.026,2.1,12.447,3.251,23.2,3.251h24.721a9.19,9.19,0,0,0,7.639-14.307,9.222,9.222,0,0,0,4.614-13.8,9.192,9.192,0,0,0,4.58-13.787A9.2,9.2,0,0,0,131.742,148.757ZM53.585,192.432a2.3,2.3,0,0,1-2.3,2.3H30.6V144.159H51.286a2.3,2.3,0,0,1,2.3,2.3Zm68.962-39.079H111.053a2.3,2.3,0,0,0,0,4.6h6.9a4.6,4.6,0,0,1,0,9.195H106.456a2.3,2.3,0,1,0,0,4.6h6.9a4.6,4.6,0,1,1,0,9.195H101.858a2.3,2.3,0,1,0,0,4.6h6.9a4.6,4.6,0,0,1,0,9.195H84.034c-10.162,0-14.131-1.036-22.038-3.1q-1.905-.5-3.814-.987V148.3c16.635-3.963,36.78-13.635,36.78-30.809v-2.3a4.6,4.6,0,0,1,9.195-.007v.007c0,1,1.247,13.26-3.753,24.367H92.663a2.3,2.3,0,1,0,0,4.6h29.884a4.6,4.6,0,1,1,0,9.195Z" transform="translate(0 -81.633)" fill="#006ce5"/>
    <path id="Path_81905" data-name="Path 81905" d="M108.3,112.607a2.3,2.3,0,0,0-2.3,2.3V133.3a2.3,2.3,0,0,0,4.6,0v-18.39A2.3,2.3,0,0,0,108.3,112.607ZM142.78,60.656h-9.195a2.3,2.3,0,0,0,0,4.6h9.195a2.3,2.3,0,0,0,0-4.6Zm45.975,0H179.56a2.3,2.3,0,0,0,0,4.6h9.195a2.3,2.3,0,0,0,0-4.6ZM182.3,41.824a2.3,2.3,0,0,0-3.251,0l-6.5,6.5a2.3,2.3,0,0,0,3.251,3.251l6.5-6.5A2.3,2.3,0,0,0,182.3,41.824Zm-32.509,6.5-6.5-6.5a2.3,2.3,0,1,0-3.251,3.251l6.5,6.5a2.3,2.3,0,1,0,3.251-3.251Z" transform="translate(-61.61 -31.691)" fill="#006ce5"/>
  </g>
</svg>
