<svg xmlns="http://www.w3.org/2000/svg" width="120.105" height="109.099" viewBox="0 0 120.105 109.099">
  <g id="Group_26682" data-name="Group 26682" transform="translate(0 -23.462)">
    <path id="Path_81906" data-name="Path 81906" d="M458.243,316.129l-5.726-5.679a2.346,2.346,0,0,0-3.3,3.332l5.726,5.679a2.346,2.346,0,0,0,3.3-3.332Zm-11.56-11.49a2.346,2.346,0,0,0-3.318,0l0,0a2.346,2.346,0,1,0,3.322,0Z" transform="translate(-338.832 -214.692)" fill="#006ce5"/>
    <path id="Path_81907" data-name="Path 81907" d="M87.848,100.765,110.609,78a8.835,8.835,0,0,0-4.264-14.863A8.845,8.845,0,0,0,99.827,50.7a8.827,8.827,0,0,0-6.886-11.476A8.846,8.846,0,0,0,80.322,28.68l-.226-.243a15.657,15.657,0,0,0-11.425-4.975H50.247A2.347,2.347,0,0,0,47.9,25.808v3.077a10.659,10.659,0,0,0,.607,3.557A8.842,8.842,0,0,0,36.723,43.386a8.841,8.841,0,0,0-6.9,11.478A8.842,8.842,0,0,0,23.315,67.3,8.842,8.842,0,0,0,19.05,82.165l4.681,4.681L.687,109.889A2.346,2.346,0,1,0,4,113.207L27.271,89.941a8.837,8.837,0,0,0,13.2-8.045c.119,0,.238.008.357.008a8.834,8.834,0,0,0,8.841-8.837c0-.119,0-.238-.009-.357.118,0,.235.008.353.008a8.834,8.834,0,0,0,8.841-8.837c0-.119,0-.238-.009-.357.118,0,.235.008.353.008a8.837,8.837,0,0,0,6.838-14.441L81.61,33.518a4.149,4.149,0,1,1,5.867,5.867l-2.3,2.3-8.332,8.332a2.346,2.346,0,1,0,3.318,3.318L88.5,45a4.149,4.149,0,1,1,5.868,5.868l-2.3,2.3L86.035,59.2a2.346,2.346,0,1,0,3.318,3.318l6.035-6.035a4.149,4.149,0,1,1,5.867,5.867L98.1,65.5,95.22,68.385A2.346,2.346,0,1,0,98.538,71.7l2.885-2.885a4.149,4.149,0,0,1,5.865,5.87L84.528,97.448a31.785,31.785,0,0,1-21.389,9.318,2.346,2.346,0,0,0-1.577.689l-21.026,21.1a2.346,2.346,0,1,0,3.324,3.312l15.465-15.522a21.808,21.808,0,0,0,13.246,3.408l12.1,12.1a2.346,2.346,0,1,0,3.318-3.318l-12.869-12.87a2.348,2.348,0,0,0-1.851-.68l-.744.061a17.127,17.127,0,0,1-9.791-2.131l1.508-1.513a36.456,36.456,0,0,0,23.6-10.643ZM34.574,85.187a4.148,4.148,0,0,1-5.867,0l-6.34-6.34a4.149,4.149,0,1,1,5.868-5.868l6.34,6.34A4.154,4.154,0,0,1,34.574,85.187ZM43.76,76a4.154,4.154,0,0,1-5.868,0l-6.34-6.34L28.4,66.509a4.149,4.149,0,1,1,5.867-5.868l9.492,9.492h0a4.149,4.149,0,0,1,0,5.868Zm9.185-9.186a4.154,4.154,0,0,1-5.868,0L35.29,55.027a4.149,4.149,0,0,1,5.866-5.869l5.373,5.373,6.417,6.417h0a4.15,4.15,0,0,1,0,5.868Zm9.186-9.186a4.154,4.154,0,0,1-5.868,0L44.476,45.841l0,0-2.293-2.293a4.149,4.149,0,0,1,5.868-5.868L62.131,51.762a4.15,4.15,0,0,1,0,5.868Zm.617-11.887L56.3,39.3a10.735,10.735,0,0,0,2.247.239H58.6l6.439-.03a2.346,2.346,0,0,0-.011-4.693h-.011l-6.439.03h-.029a5.959,5.959,0,0,1-5.959-5.96v-.73H68.67a10.95,10.95,0,0,1,7.99,3.479l.1.1Z" transform="translate(0 0)" fill="#006ce5"/>
  </g>
</svg>
