<svg xmlns="http://www.w3.org/2000/svg" width="39.806" height="45.29" viewBox="0 0 39.806 45.29">
  <g id="Group_26678" data-name="Group 26678" transform="translate(-31)">
    <path id="Path_81896" data-name="Path 81896" d="M66.852,7.706,63.1,3.953a1.326,1.326,0,0,0-1.876,0L59.945,5.232a16.966,16.966,0,0,0-5.061-2.1V1.327A1.326,1.326,0,0,0,53.557,0H48.249a1.326,1.326,0,0,0-1.327,1.327V3.136a16.961,16.961,0,0,0-5.061,2.1L40.582,3.953a1.326,1.326,0,0,0-1.876,0L34.953,7.706a1.326,1.326,0,0,0,0,1.876l1.279,1.279a16.966,16.966,0,0,0-2.1,5.061H32.327A1.326,1.326,0,0,0,31,17.249v5.307a1.326,1.326,0,0,0,1.327,1.327h1.809a18.224,18.224,0,0,0,1.85,4.823,1.328,1.328,0,0,0,1.148.661h4.243c-.177-.242-.356-.488-.529-.688A13.981,13.981,0,0,1,37.634,19.9a13.269,13.269,0,1,1,26.537,0,14.017,14.017,0,0,1-3.166,8.72c-.185.217-.377.481-.567.745h4.232a1.328,1.328,0,0,0,1.148-.661,18.225,18.225,0,0,0,1.85-4.824h1.809a1.326,1.326,0,0,0,1.327-1.327V17.249a1.326,1.326,0,0,0-1.327-1.327H67.67a16.961,16.961,0,0,0-2.1-5.061l1.279-1.279a1.326,1.326,0,0,0,0-1.876Zm-18.6,34.93a2.654,2.654,0,1,0,5.307,0V41.309H48.249Z" fill="#006ce5"/>
    <path id="Path_81897" data-name="Path 81897" d="M154.7,122.611a11.453,11.453,0,0,0,2.529-7,10.615,10.615,0,1,0-21.23,0,11.251,11.251,0,0,0,2.567,7.041,11.184,11.184,0,0,1,2.537,5.078H145l-2.336-11.858a1.327,1.327,0,1,1,2.6-.521l1.353,6.852,1.353-6.852a1.327,1.327,0,0,1,2.6.521l-2.336,11.858h3.9A11.556,11.556,0,0,1,154.7,122.611Zm-2.778,9.1v-1.327H141.307v1.327a2.657,2.657,0,0,0,2.654,2.654h5.307A2.657,2.657,0,0,0,151.922,131.714Z" transform="translate(-95.712 -95.712)" fill="#006ce5"/>
  </g>
</svg>
