<svg xmlns="http://www.w3.org/2000/svg" width="120.037" height="100.275" viewBox="0 0 120.037 100.275">
  <g id="Group_26683" data-name="Group 26683" transform="translate(-0.001 -40.483)">
    <path id="Path_81908" data-name="Path 81908" d="M140.238,304.211l-3.478-1.144a24.54,24.54,0,0,1-1.336,3.252l3.278,1.631A28.187,28.187,0,0,0,140.238,304.211Z" transform="translate(-102.369 -198.493)" fill="#006ce5"/>
    <path id="Path_81909" data-name="Path 81909" d="M119.453,103.3a25.012,25.012,0,0,0-10.994-15.825l-15-9.632.747-.747a8.517,8.517,0,0,0-4.5-14.4l4.543-4.543A8.514,8.514,0,0,0,82.208,46.11l-1.375,1.374a8.512,8.512,0,0,0-14.4-4.507L47.2,62.222a8.918,8.918,0,0,0-15.717-7.741L19.692,69.324,22.559,71.6l11.8-14.862.031-.04A5.257,5.257,0,0,1,43.3,62.2L32.647,83.535l.41.819a29.851,29.851,0,0,1,2.162,16.967l3.6.661a33.489,33.489,0,0,0-2.1-18.408L42.4,72.2,69.027,45.566a4.853,4.853,0,0,1,6.863,6.863l-22.2,22.2-1.029-.661a6.593,6.593,0,1,0-7.126,11.094l.389.25a6.592,6.592,0,0,0-.173,11.208l15.077,9.6a6.879,6.879,0,0,0-1.715,13.023l4.208,2.068-6.84,6.84a30.936,30.936,0,0,1-46.1-41.116l9.9-12.469L17.415,72.19l-9.9,12.469a34.6,34.6,0,0,0,51.555,45.982l7.723-7.723,16.958,8.334a25.148,25.148,0,0,0,23.711-.8l-1.831-3.17a21.494,21.494,0,0,1-20.265.684L60.7,115.848l-.046-.022a3.219,3.219,0,0,1,2.132-6.048L78.624,113.8l.885.221.711-.567c.071-.057,7.213-5.649,15.887-3.461l.9-3.55c-8.786-2.216-16,2.007-18.311,3.6l-8.14-2.068L47.72,93.439a2.931,2.931,0,0,1,3.168-4.933l24.1,15.477,1.979-3.081-24.1-15.477L47.51,81.985a2.931,2.931,0,0,1,3.168-4.933l8.037,5.162.01.006L80.132,95.969l1.979-3.081L60.7,79.14a2.931,2.931,0,0,1,3.168-4.933l4.329,2.78L85.456,88.07l1.979-3.081L70.408,74.054a2.931,2.931,0,0,1,3.882-4.285l6.644,4.268,4,2.681L106.48,90.553a21.527,21.527,0,0,1,1.925,34.82l2.306,2.844a25.2,25.2,0,0,0,8.742-24.919ZM67.159,68.672a6.575,6.575,0,0,0-.984,2.663l-.325-.209a6.551,6.551,0,0,0-2.52-.961L84.8,48.7a4.853,4.853,0,1,1,6.863,6.863l-9.491,9.491-3.3,3.3-2.6-1.668a6.6,6.6,0,0,0-9.11,1.984Zm15.8,2.312-.938-.6,2.739-2.739A4.853,4.853,0,0,1,91.62,74.5L90.31,75.816l-3.348-2.151Z" transform="translate(0 0)" fill="#006ce5"/>
  </g>
</svg>
