<svg xmlns="http://www.w3.org/2000/svg" width="42.306" height="55.126" viewBox="0 0 42.306 55.126">
  <g id="Group_23892" data-name="Group 23892" transform="translate(-2675.989 -158.865)">
    <path id="Path_78222" data-name="Path 78222" d="M2719.328,187.943V180.9c-.769-.036-.757-.7-.876-1.192a1.417,1.417,0,0,0-1.23-1.245,3.121,3.121,0,0,1-1.215-.518,1.13,1.13,0,0,0-1.443.016,2.225,2.225,0,0,1-.651.327,8.194,8.194,0,0,1-1.024.137l-3.964,4a4.6,4.6,0,0,1,2.5,3.174,4.508,4.508,0,1,1-5.162-3.528,1.913,1.913,0,0,0,.959-.475c1.532-1.478,3.033-2.988,4.543-4.488l-.183-.067c.051-.32.082-.645.161-.958a1.608,1.608,0,0,1,.266-.533,1.243,1.243,0,0,0,.017-1.617,2.678,2.678,0,0,1-.465-1.092,1.468,1.468,0,0,0-1.278-1.281c-1.082-.287-1.071-.329-1.071-1.459,0-1.6,0-1.614,1.507-2.086a.962.962,0,0,0,.718-.741c.192-.631.525-1.218.741-1.843a1.208,1.208,0,0,0,.014-.825c-.722-1.531-.737-1.525.448-2.712.734-.735.761-.781,1.623-.267a1.551,1.551,0,0,0,1.977.026,1.35,1.35,0,0,1,.666-.287c1.1-.107,1.5-.834,1.666-1.794.082-.485.328-.747.854-.643a.736.736,0,0,0,.133,0c.621.007,1.387-.2,1.821.084.416.276.462,1.082.72,1.632a1.036,1.036,0,0,0,.5.432c.645.291,1.327.505,1.954.828a.914.914,0,0,0,.969-.01c1.414-.743,1.421-.729,2.54.374.825.813.86.834.279,1.837a1.365,1.365,0,0,0-.018,1.737,1.555,1.555,0,0,1,.325.721,1.9,1.9,0,0,0,1.831,1.722c.5.078.687.352.639.871-.051.55.024,1.111-.031,1.66-.019.195-.235.5-.4.529-1.2.192-1.716.909-2.188,2.014a2.59,2.59,0,0,0,.139,2.832c.135.191.075.519.144.608,1.224,1.341,2.439,2.69,3.676,4.019a4.877,4.877,0,0,0,2.341,1.493,4.309,4.309,0,0,1,2.967,4.778,4.494,4.494,0,1,1-6.906-4.344c.219-.143.449-.27.686-.411a1.025,1.025,0,0,0-.114-.186c-1.336-1.3-2.674-2.594-4.052-3.929-.454.5-.879.172-1.258-.088a1.591,1.591,0,0,0-2.1-.039,1.281,1.281,0,0,1-.607.258c-1.076.131-1.486.832-1.687,1.8-.063.3-.353.554-.539.829l-.175-.08c-.009.172-.025.344-.025.516,0,2,.008,3.99-.009,5.985,0,.392.086.581.513.667a7.2,7.2,0,0,1,.054,14.148,7.212,7.212,0,0,1-2.835-14.143C2718.906,188.036,2719.1,187.993,2719.328,187.943Zm-4.137-18.086a4.963,4.963,0,1,0,5.007-4.949A4.962,4.962,0,0,0,2715.191,169.857Z" transform="translate(-22.99)" fill="#006ce5"/>
    <path id="Path_78223" data-name="Path 78223" d="M2763.6,511.759h-25.854c.282-.936.49-1.833.818-2.683a12.815,12.815,0,0,1,5.536-6.506.915.915,0,0,1,.972-.061,13.057,13.057,0,0,0,11.258.026,1.01,1.01,0,0,1,.778-.049A12.992,12.992,0,0,1,2763.6,511.759Z" transform="translate(-53.527 -297.768)" fill="#006ce5"/>
    <path id="Path_78224" data-name="Path 78224" d="M2910.792,417.056h-12.721a13.478,13.478,0,0,0,.391-2.026c.042-.964-.068-1.934-.086-2.9,0-.231.028-.58.172-.668a1.04,1.04,0,0,1,.824-.105,8.451,8.451,0,0,0,6.848.007.93.93,0,0,1,.669-.035A7.836,7.836,0,0,1,2910.792,417.056Z" transform="translate(-192.497 -218.787)" fill="#006ce5"/>
    <path id="Path_78225" data-name="Path 78225" d="M2675.989,417.121a8.03,8.03,0,0,1,3.883-5.671.913.913,0,0,1,.72-.024,8.472,8.472,0,0,0,6.848.014,1.154,1.154,0,0,1,.879.119c.131.074.164.458.123.68a8.93,8.93,0,0,0,.179,4.206c.06.208.106.42.171.677Z" transform="translate(0 -218.862)" fill="#006ce5"/>
  </g>
</svg>
