<svg xmlns="http://www.w3.org/2000/svg" width="100.039" height="79.995" viewBox="0 0 100.039 79.995">
  <path id="icon-ai" d="M257.753,193.091a5.916,5.916,0,0,0-5.217-5.866l-14.347-24.769a5.9,5.9,0,1,0-9.971-5.937l-11.419-4.1c.008-.145.012-.29.012-.437a8.073,8.073,0,1,0-16.031,1.346l-14.365,7.108a8.069,8.069,0,1,0-12.638,9.786L166.128,189.2c-.113,0-.227-.009-.34-.009a8.073,8.073,0,1,0,4.572,14.721l11.649,8.659a5.907,5.907,0,0,0,11.163,3.668l16.514,2.939a5.908,5.908,0,0,0,11.541.159l22.115-1.543a5.908,5.908,0,1,0,7.765-8.443l1.913-10.465A5.92,5.92,0,0,0,257.753,193.091Zm-3.482,0a2.429,2.429,0,1,1-2.429-2.429A2.431,2.431,0,0,1,254.271,193.091Zm-8.339,0c0,.076.009.151.011.227l-8.993,2.806a8.091,8.091,0,0,0-5.024-3.326l2.267-28.356a5.875,5.875,0,0,0,1.594-.344l13.665,23.59A5.917,5.917,0,0,0,245.932,193.091Zm-28.247,19.42a5.864,5.864,0,0,0-4.014-.147l-10.287-19.985a8.124,8.124,0,0,0,1.264-1.585l17.689,8.65a8.114,8.114,0,0,0-.1,1.266,8.032,8.032,0,0,0,1.728,4.983Zm-26.748-3.681,5.191-14.315a8.113,8.113,0,0,0,1.621.164,8.025,8.025,0,0,0,3.211-.668l10.246,19.905a5.915,5.915,0,0,0-1.379,2.338l-16.156-2.876A5.906,5.906,0,0,0,190.937,208.83Zm39.416-45.455a5.954,5.954,0,0,0,.971.558l-2.3,28.807a7.993,7.993,0,0,0-2,.6l-4.02-10.424a5.9,5.9,0,0,0,.333-9.465Zm-10.706,12.252a2.429,2.429,0,1,1-2.429,2.429A2.432,2.432,0,0,1,219.647,175.627Zm0,8.34a5.993,5.993,0,0,0,.642-.036l4.282,11.107a8.13,8.13,0,0,0-1.259,1.653l-17.627-8.62a8.033,8.033,0,0,0,.043-2.692l9.568-3.334A5.889,5.889,0,0,0,219.647,183.967Zm-21.9,6.359a3.721,3.721,0,1,1,3.721-3.721A3.725,3.725,0,0,1,197.749,190.326Zm28.84,10.383a3.721,3.721,0,1,1,3.721,3.721A3.725,3.725,0,0,1,226.589,200.709Zm7.171-44.584a2.429,2.429,0,1,1-2.429,2.429A2.432,2.432,0,0,1,233.76,156.126Zm-5.828,3.375a5.863,5.863,0,0,0,.488,1.572l-7.773,11.165a5.706,5.706,0,0,0-2.152.023l-5.719-13.3a8.123,8.123,0,0,0,3.338-3.712Zm-19.2-11.242a3.721,3.721,0,1,1-3.721,3.721A3.725,3.725,0,0,1,208.737,148.258Zm-6.957,7.809a8.055,8.055,0,0,0,8.259,3.878l5.835,13.565a5.858,5.858,0,0,0-1.964,5.945l-9.134,3.183a8.062,8.062,0,0,0-11.182-2.952l-8.121-9.907a8.05,8.05,0,0,0,1.917-6.592Zm-22.364,4.663a3.721,3.721,0,1,1-3.721,3.721A3.725,3.725,0,0,1,179.416,160.73Zm-3.177,11.141a8.054,8.054,0,0,0,6.959-.291l8.219,10.027a8.045,8.045,0,0,0-1.59,6.544l-17.052,5.073a8.121,8.121,0,0,0-3.783-3.372Zm-14.172,25.389a3.721,3.721,0,1,1,3.721,3.721A3.725,3.725,0,0,1,162.066,197.261Zm10.367,4.575a8.052,8.052,0,0,0,1.32-5.875l17.139-5.1a8.136,8.136,0,0,0,2.544,2.564l-5.26,14.505c-.131-.009-.261-.02-.394-.02a5.894,5.894,0,0,0-4.447,2.03Zm15.349,14.413a2.429,2.429,0,1,1,2.429-2.429A2.431,2.431,0,0,1,187.783,216.249Zm27.694,4.17a2.429,2.429,0,1,1,2.429-2.429A2.432,2.432,0,0,1,215.477,220.419Zm5.695-3.99a5.894,5.894,0,0,0-1.132-2.192l6.1-6.62a8.057,8.057,0,0,0,9.343-.713l7.482,5.03a5.862,5.862,0,0,0-.608,2.594c0,.143.011.283.022.423Zm27.093.527a2.429,2.429,0,1,1,2.429-2.429A2.431,2.431,0,0,1,248.265,216.956Zm0-8.34a5.872,5.872,0,0,0-3.412,1.093l-7.508-5.047a8.044,8.044,0,0,0,.806-5.873l8.614-2.688a5.935,5.935,0,0,0,3.333,2.637l-1.806,9.88Z" transform="translate(-157.714 -143.906)" fill="#fff"/>
</svg>
