<svg xmlns="http://www.w3.org/2000/svg" width="48" height="48" viewBox="0 0 48 48">
  <g id="Group_25914" data-name="Group 25914" transform="translate(0 0)">
    <path id="Path_79948" data-name="Path 79948" d="M2.9,15.056H1.4a1.407,1.407,0,0,0,0,2.813H2.9A1.407,1.407,0,0,0,2.9,15.056Zm36.157,2.813h1.506a1.407,1.407,0,0,0,0-2.813H39.061A1.407,1.407,0,0,0,39.061,17.869ZM20.982,4.311A1.407,1.407,0,0,0,22.389,2.9V1.4a1.407,1.407,0,0,0-2.813,0V2.9A1.406,1.406,0,0,0,20.982,4.311ZM8.418,4.923,6.912,3.416A1.406,1.406,0,1,0,4.923,5.405L6.429,6.912A1.406,1.406,0,1,0,8.418,4.923ZM35.536,6.912l1.506-1.507a1.406,1.406,0,0,0-1.989-1.989L33.547,4.923a1.406,1.406,0,1,0,1.989,1.989ZM21.082,36.8V33.924a4.078,4.078,0,0,1,1.809-3.384,4.078,4.078,0,0,1,1.114-3.672l2.862-2.862a4.065,4.065,0,0,1,3.672-1.114,4.078,4.078,0,0,1,3.384-1.809h.516A13.473,13.473,0,0,0,20.982,7.524C7.836,7.961,3.3,23.016,12.118,31.264c1.642,1.85,2.939,3.311,2.938,5.536h6.026Zm14.865-3.212a2.36,2.36,0,1,0,2.36,2.36,2.363,2.363,0,0,0-2.36-2.36Z" transform="translate(0 0)" fill="#fff"/>
    <path id="Path_79949" data-name="Path 79949" d="M192.411,263.616l-1.536-.192q-.138-.376-.307-.739l.951-1.223a1.26,1.26,0,0,0-.1-1.664l-2.862-2.862a1.26,1.26,0,0,0-1.664-.1l-1.223.951q-.363-.168-.739-.307l-.192-1.536a1.26,1.26,0,0,0-1.25-1.1h-4.047a1.259,1.259,0,0,0-1.25,1.1L178,257.477q-.376.138-.739.307l-1.223-.951a1.26,1.26,0,0,0-1.664.1l-2.862,2.862a1.259,1.259,0,0,0-.1,1.664l.951,1.223q-.168.363-.307.739l-1.536.192a1.26,1.26,0,0,0-1.1,1.25v4.047a1.26,1.26,0,0,0,1.1,1.25l1.536.192q.138.376.307.739l-.951,1.223a1.259,1.259,0,0,0,.1,1.664l2.862,2.862a1.259,1.259,0,0,0,1.664.1l1.223-.951q.363.168.739.307l.192,1.536a1.259,1.259,0,0,0,1.25,1.1h4.047a1.26,1.26,0,0,0,1.25-1.1l.192-1.536q.376-.138.739-.307l1.223.951a1.26,1.26,0,0,0,1.664-.1l2.862-2.862a1.259,1.259,0,0,0,.1-1.664l-.951-1.223q.168-.363.307-.739l1.536-.192a1.26,1.26,0,0,0,1.1-1.25v-4.047a1.26,1.26,0,0,0-1.1-1.25Zm-10.949,8.446a5.173,5.173,0,1,1,5.173-5.173,5.179,5.179,0,0,1-5.173,5.173Zm-13.056.235a4.1,4.1,0,0,1-1.461-1.742h-6.375v1.707a5.179,5.179,0,0,0,4.52,5.13v.143a1.407,1.407,0,0,0,2.813,0v-.143a5.144,5.144,0,0,0,2.212-.828l-.6-.6A4.078,4.078,0,0,1,168.406,272.3Z" transform="translate(-145.515 -230.942)" fill="#fff"/>
  </g>
</svg>
