<svg xmlns="http://www.w3.org/2000/svg" width="38.813" height="38.75" viewBox="0 0 38.813 38.75">
  <g id="Group_26942" data-name="Group 26942" transform="translate(-0.979 -1.008)">
    <path id="Path_82362" data-name="Path 82362" d="M26.088,13h-15.5A2.584,2.584,0,0,0,8,15.584V33.672a2.584,2.584,0,0,0,2.584,2.584h15.5a2.584,2.584,0,0,0,2.584-2.584V15.584A2.584,2.584,0,0,0,26.088,13ZM21.566,25.649l-1.938-1.938v6.24H17.044v-6.24l-1.938,1.938-1.822-1.822,4.134-4.147a1.292,1.292,0,0,1,1.835,0l4.134,4.147Z" transform="translate(2.05 3.502)" fill="#006ce5"/>
    <path id="Path_82363" data-name="Path 82363" d="M36.536,15.39V15.21a6.46,6.46,0,0,0-1.292-3.876h-9.69V8.75h5.788a11.628,11.628,0,0,0-21.964.129A6.46,6.46,0,0,0,4.236,15.21v.181a4.522,4.522,0,0,0,1.292,8.863H7.466V19.086a5.168,5.168,0,0,1,5.168-5.168h15.5a5.168,5.168,0,0,1,5.168,5.168v5.168h1.938a4.522,4.522,0,0,0,1.292-8.863Z" transform="translate(0 0)" fill="#006ce5"/>
  </g>
</svg>
