<svg xmlns="http://www.w3.org/2000/svg" width="172" height="172.029" viewBox="0 0 172 172.029">
  <g id="Group_10477" data-name="Group 10477" transform="translate(-1425 -5269)">
    <path id="Path_65113" data-name="Path 65113" d="M1524.113-873.609c-18.573,0-37.146-.1-55.718.041a22.37,22.37,0,0,1-21.738-17.144,22.352,22.352,0,0,1-.611-5.009q-.051-55.813-.023-111.625a22.341,22.341,0,0,1,18.219-21.835,24.068,24.068,0,0,1,4.289-.381q55.531-.03,111.06-.033a22.448,22.448,0,0,1,22.423,22.1q-.115,56,0,112a22.425,22.425,0,0,1-18.806,21.726,27.54,27.54,0,0,1-4.7.156c-7.562,0-15.124.005-22.967.006C1545.257-873.607,1534.685-873.608,1524.113-873.609Zm-25.433-79.552c.9.092,1.624.228,2.348.23q9.5.025,19,.006c2.525,0,2.646-.125,2.649-2.658.009-7.9-.026-15.805.046-23.707a9.135,9.135,0,0,1,.9-2.665,10.475,10.475,0,0,1,2.335,1.22,12.015,12.015,0,0,0,9.284,3.354c7.329-.652,11.973-6.169,11.671-13.538-.28-6.847-7.437-12.508-14.149-11.3a13.927,13.927,0,0,0-7.272,3.64c-.467.439-1.445.871-1.879.663-.488-.234-.713-1.175-.891-1.85a6.775,6.775,0,0,1-.038-1.686q0-11.2,0-22.39c0-2.917-.046-2.962-2.923-2.963q-24.93,0-49.86.022a25.738,25.738,0,0,0-5.593.525c-9.516,2.153-15.449,9.7-15.5,19.936-.088,17-.006,33.993-.053,50.989-.005,1.773.569,2.453,2.376,2.434,6.585-.069,13.17-.019,19.755-.041a12.2,12.2,0,0,0,1.924-.314c-3.655-9.6-2.555-16.193,3.3-20.691a15.345,15.345,0,0,1,18.54-.53C1501.123-969.764,1502.358-963.537,1498.68-953.161Zm26.81-49.472c8.385-4.138,15.631-3.487,21.37,3.79a14.485,14.485,0,0,1,.6,17.08c-5.632,8.067-13.137,8.964-21.869,4.778-.042.9-.1,1.557-.1,2.22q-.01,9.5,0,19.009c0,2.818,0,2.83,2.775,2.833,7.968.008,15.935-.015,23.9.041a7.171,7.171,0,0,1,2.163.762,7.7,7.7,0,0,1-.932,2.232,12.953,12.953,0,0,0-3.464,9.065,12.426,12.426,0,0,0,10.567,12.1,12.541,12.541,0,0,0,13.854-9.031,12.543,12.543,0,0,0-3.236-12.323,2.4,2.4,0,0,1-.687-1.917c.177-.468,1.148-.725,1.815-.889a8.037,8.037,0,0,1,1.875-.04c7.591,0,15.182-.035,22.773.023,1.74.013,2.395-.495,2.387-2.359-.066-17.314-.025-34.63-.066-51.945a19.933,19.933,0,0,0-.587-4.639c-2.2-8.973-9.506-14.8-19.445-14.905-17.25-.187-34.5-.046-51.756-.068-1.422,0-1.983.492-1.966,1.987.068,5.959.027,11.919.027,17.879Zm-3.139,76.6a11.966,11.966,0,0,0,.315-1.82c.019-6.775,0-13.55.024-20.325.005-1.41-.483-1.97-1.993-1.958q-12.326.1-24.653-.016a7.218,7.218,0,0,1-2.405-.995,8.774,8.774,0,0,1,1-2.037c2.737-3.146,4.091-6.658,3.365-10.885-1.137-6.619-7.675-11.51-13.9-10.325-7.551,1.438-12.036,7.745-10.581,14.859a13.863,13.863,0,0,0,3.613,6.687,2.118,2.118,0,0,1,.564,1.747c-.2.474-1.029.744-1.634.963a4.034,4.034,0,0,1-1.308.032q-11.574,0-23.148,0c-2.825,0-2.836,0-2.836,2.774q-.007,20.231.01,40.463c.01,4.2.132,8.394.265,12.59.281,8.855,8.033,17.839,19.236,17.9,17.376.093,34.754,0,52.131.062,1.767.006,2.3-.6,2.284-2.274-.054-6.586-.014-13.174-.036-19.76a13.441,13.441,0,0,0-.295-1.96c-9.871,3.677-16.08,2.585-20.905-3.534a15.4,15.4,0,0,1-.391-18.249,15.33,15.33,0,0,1,7.548-5.673C1513.394-929.459,1517.861-928.507,1522.351-926.033ZM1549.5-950c-.958-.045-1.624-.1-2.291-.1q-9.6-.01-19.193,0c-2.512,0-2.52.008-2.521,2.448,0,7.9.026,15.806-.04,23.708a9.808,9.808,0,0,1-.827,2.685,9.341,9.341,0,0,1-2.53-1.152,12.559,12.559,0,0,0-10.823-3.1c-5.3.842-9.231,5.215-10.14,10.96-.719,4.544,2.1,9.881,6.464,12.239a12.6,12.6,0,0,0,14.368-1.621,10.729,10.729,0,0,1,2.661-1.267,11.078,11.078,0,0,1,.828,2.872c.068,7.84.088,15.681,0,23.52-.02,1.829.4,2.511,2.384,2.5,17.311-.074,34.622-.015,51.933-.054a19.5,19.5,0,0,0,19.458-19.37c.052-17.374-.011-34.747.054-52.121.007-1.882-.668-2.3-2.4-2.282-6.459.084-12.92.031-19.38.038-.669,0-1.337.059-2.323.106,4.386,8.711,3.378,16.249-4.7,21.778a13.745,13.745,0,0,1-16.736-.279C1546.046-934.105,1545.282-941.555,1549.5-950Z" transform="translate(-11.017 6308.596)" fill="#031342" opacity="0.3"/>
    <path id="Path_65124" data-name="Path 65124" d="M1524.113-873.609c-18.573,0-37.146-.1-55.718.041a22.37,22.37,0,0,1-21.738-17.144,22.352,22.352,0,0,1-.611-5.009q-.051-55.813-.023-111.625a22.341,22.341,0,0,1,18.219-21.835,24.068,24.068,0,0,1,4.289-.381q55.531-.03,111.06-.033a22.448,22.448,0,0,1,22.423,22.1q-.115,56,0,112a22.425,22.425,0,0,1-18.806,21.726,27.54,27.54,0,0,1-4.7.156Q1551.314-873.6,1524.113-873.609Zm-25.433-79.552c.9.092,1.624.228,2.348.23q9.5.025,19,.006c2.525,0,2.646-.125,2.649-2.658.009-7.9-.026-15.805.046-23.707a9.135,9.135,0,0,1,.9-2.665,10.475,10.475,0,0,1,2.335,1.22,12.015,12.015,0,0,0,9.284,3.354c7.329-.652,11.973-6.169,11.671-13.538-.28-6.847-7.437-12.508-14.149-11.3a13.927,13.927,0,0,0-7.272,3.64c-.467.439-1.445.871-1.879.663-.488-.234-.713-1.175-.891-1.85a6.775,6.775,0,0,1-.038-1.686q0-11.2,0-22.39c0-2.917-.046-2.962-2.923-2.963q-24.93,0-49.86.022a25.738,25.738,0,0,0-5.593.525c-9.516,2.153-15.449,9.7-15.5,19.936-.088,17-.006,33.993-.053,50.989-.005,1.773.569,2.453,2.376,2.434,6.585-.069,13.17-.019,19.755-.041a12.2,12.2,0,0,0,1.924-.314c-3.655-9.6-2.555-16.193,3.3-20.691a15.345,15.345,0,0,1,18.54-.53C1501.123-969.764,1502.358-963.537,1498.68-953.161Zm26.81-49.472c8.385-4.138,15.631-3.487,21.37,3.79a14.485,14.485,0,0,1,.6,17.08c-5.632,8.067-13.137,8.964-21.869,4.778-.042.9-.1,1.557-.1,2.22q-.01,9.5,0,19.009c0,2.818,0,2.83,2.775,2.833,7.968.008,15.935-.015,23.9.041a7.171,7.171,0,0,1,2.163.762,7.7,7.7,0,0,1-.932,2.232,12.953,12.953,0,0,0-3.464,9.065,12.426,12.426,0,0,0,10.567,12.1,12.541,12.541,0,0,0,13.854-9.031,12.543,12.543,0,0,0-3.236-12.323,2.4,2.4,0,0,1-.687-1.917c.177-.468,1.148-.725,1.815-.889a8.037,8.037,0,0,1,1.875-.04c7.591,0,15.182-.035,22.773.023,1.74.013,2.395-.495,2.387-2.359-.066-17.314-.025-34.63-.066-51.945a19.933,19.933,0,0,0-.587-4.639c-2.2-8.973-9.506-14.8-19.445-14.905-17.25-.187-34.5-.046-51.756-.068-1.422,0-1.983.492-1.966,1.987.068,5.959.027,11.919.027,17.879Zm-3.139,76.6a11.966,11.966,0,0,0,.315-1.82c.019-6.775,0-13.55.024-20.325.005-1.41-.483-1.97-1.993-1.958q-12.326.1-24.653-.016a7.218,7.218,0,0,1-2.405-.995,8.774,8.774,0,0,1,1-2.037c2.737-3.146,4.091-6.658,3.365-10.885-1.137-6.619-7.675-11.51-13.9-10.325-7.551,1.438-12.036,7.745-10.581,14.859a13.863,13.863,0,0,0,3.613,6.687,2.118,2.118,0,0,1,.564,1.747c-.2.474-1.029.744-1.634.963a4.034,4.034,0,0,1-1.308.032q-11.574,0-23.148,0c-2.825,0-2.836,0-2.836,2.774q-.007,20.231.01,40.463c.01,4.2.132,8.394.265,12.59.281,8.855,8.033,17.839,19.236,17.9,17.376.093,34.754,0,52.131.062,1.767.006,2.3-.6,2.284-2.274-.054-6.586-.014-13.174-.036-19.76a13.441,13.441,0,0,0-.295-1.96c-9.871,3.677-16.08,2.585-20.905-3.534a15.4,15.4,0,0,1-.391-18.249,15.33,15.33,0,0,1,7.548-5.673C1513.394-929.459,1517.861-928.507,1522.351-926.033ZM1549.5-950c-.958-.045-1.624-.1-2.291-.1q-9.6-.01-19.193,0c-2.512,0-2.52.008-2.521,2.448,0,7.9.026,15.806-.04,23.708a9.808,9.808,0,0,1-.827,2.685,9.341,9.341,0,0,1-2.53-1.152,12.559,12.559,0,0,0-10.823-3.1c-5.3.842-9.231,5.215-10.14,10.96-.719,4.544,2.1,9.881,6.464,12.239a12.6,12.6,0,0,0,14.368-1.621,10.729,10.729,0,0,1,2.661-1.267,11.078,11.078,0,0,1,.828,2.872c.068,7.84.088,15.681,0,23.52-.02,1.829.4,2.511,2.384,2.5,17.311-.074,34.622-.015,51.933-.054a19.5,19.5,0,0,0,19.458-19.37c.052-17.374-.011-34.747.054-52.121.007-1.882-.668-2.3-2.4-2.282-6.459.084-12.92.031-19.38.038-.669,0-1.337.059-2.323.106,4.386,8.711,3.378,16.249-4.7,21.778a13.745,13.745,0,0,1-16.736-.279C1546.046-934.105,1545.282-941.555,1549.5-950Z" transform="translate(-21.017 6298.596)" fill="#f68f00"/>
  </g>
</svg>
