<svg xmlns="http://www.w3.org/2000/svg" width="31.221" height="31.099" viewBox="0 0 31.221 31.099">
  <g id="Group_25868" data-name="Group 25868" transform="translate(0 -1)">
    <path id="Path_79888" data-name="Path 79888" d="M165.366,31.611a2.442,2.442,0,0,0-2.26,1.524h-2.13v1.829h2.13a2.439,2.439,0,1,0,2.26-3.354Zm4.268-5.183a2.423,2.423,0,0,0-1.113.27l-2.265-1.887a.915.915,0,0,0-.586-.212h-4.7v1.829h4.364l1.986,1.655a2.439,2.439,0,1,0,2.309-1.655Zm0-7.622a2.442,2.442,0,0,0-2.26,1.524h-6.4v1.829h6.4a2.439,2.439,0,1,0,2.26-3.354Zm-3.378-1.127,2.265-1.887a2.44,2.44,0,1,0-1.2-1.385l-1.986,1.655h-4.364v1.829h4.7A.915.915,0,0,0,166.257,17.679Zm-.89-6.8a2.439,2.439,0,1,0-2.26-3.354h-2.13V9.354h2.13A2.442,2.442,0,0,0,165.366,10.878ZM150,21.244a6.4,6.4,0,0,0,9.147,5.784V15.46A6.4,6.4,0,0,0,150,21.244Z" transform="translate(-140.853 -4.695)" fill="#006ce5"/>
    <path id="Path_79889" data-name="Path 79889" d="M17.379,1H13.72a.915.915,0,0,0-.915.915V3.105a13.724,13.724,0,0,0-4.822,2l-.842-.842a.915.915,0,0,0-1.294,0L3.261,6.848a.915.915,0,0,0,0,1.294l.842.842a13.724,13.724,0,0,0-2,4.822H.915A.915.915,0,0,0,0,14.72v3.659a.915.915,0,0,0,.915.915H2.105a13.725,13.725,0,0,0,2,4.822l-.842.842a.915.915,0,0,0,0,1.293l2.587,2.587a.915.915,0,0,0,1.294,0L7.983,28a13.725,13.725,0,0,0,4.822,2v1.191a.915.915,0,0,0,.915.915h3.659a.915.915,0,0,0,.915-.915V24.31a8.232,8.232,0,1,1,0-15.522V1.915A.915.915,0,0,0,17.379,1Z" fill="#006ce5"/>
  </g>
</svg>
