<svg xmlns="http://www.w3.org/2000/svg" xmlns:xlink="http://www.w3.org/1999/xlink" width="105.809" height="105.809" viewBox="0 0 105.809 105.809">
  <defs>
    <clipPath id="clip-path">
      <path id="Path_79933" data-name="Path 79933" d="M0-682.665H105.809v105.809H0Z" transform="translate(0 682.665)" fill="#fff"/>
    </clipPath>
  </defs>
  <g id="Group_25878" data-name="Group 25878" transform="translate(0 -0.002)">
    <g id="Group_25878-2" data-name="Group 25878" transform="translate(0 0.002)" clip-path="url(#clip-path)">
      <path id="Path_79906" data-name="Path 79906" d="M-146.933-39.189h-5.27a3.064,3.064,0,0,1-2.166-.9l-6.29-6.292h-13.225" transform="translate(226.788 127.551)" fill="none" stroke="#fff" stroke-linecap="round" stroke-linejoin="round" stroke-width="2.5"/>
      <path id="Path_79907" data-name="Path 79907" d="M-146.933-39.189h-4l-6.29-6.29a3.068,3.068,0,0,0-2.165-.9h-14.493" transform="translate(226.788 121.428)" fill="none" stroke="#fff" stroke-linecap="round" stroke-linejoin="round" stroke-width="2.5"/>
      <path id="Path_79908" data-name="Path 79908" d="M0-31.3a5.742,5.742,0,0,1,5.742-5.742A5.742,5.742,0,0,1,11.483-31.3a5.742,5.742,0,0,1-5.742,5.742A5.742,5.742,0,0,1,0-31.3Z" transform="translate(78.97 116.604)" fill="none" stroke="#fff" stroke-linecap="round" stroke-linejoin="round" stroke-width="2.5"/>
      <path id="Path_79909" data-name="Path 79909" d="M-202.167-30.021h-7.88l-4.61-4.611a3.064,3.064,0,0,0-2.166-.9h-22.426" transform="translate(292.153 97.543)" fill="none" stroke="#fff" stroke-linecap="round" stroke-linejoin="round" stroke-width="2.5"/>
      <path id="Path_79910" data-name="Path 79910" d="M-202.167-30.021h-9.148a3.063,3.063,0,0,1-2.165-.9l-4.611-4.611h-21.158" transform="translate(292.153 103.666)" fill="none" stroke="#fff" stroke-linecap="round" stroke-linejoin="round" stroke-width="2.5"/>
      <path id="Path_79911" data-name="Path 79911" d="M0-31.3a5.742,5.742,0,0,1,5.742-5.742A5.742,5.742,0,0,1,11.483-31.3a5.742,5.742,0,0,1-5.742,5.742A5.742,5.742,0,0,1,0-31.3Z" transform="translate(89.101 101.887)" fill="none" stroke="#fff" stroke-linecap="round" stroke-linejoin="round" stroke-width="2.5"/>
      <path id="Path_79912" data-name="Path 79912" d="M0-31.3a5.742,5.742,0,0,1,5.742-5.742A5.742,5.742,0,0,1,11.483-31.3a5.742,5.742,0,0,1-5.742,5.742A5.742,5.742,0,0,1,0-31.3Z" transform="translate(61.528 127.564)" fill="none" stroke="#fff" stroke-linecap="round" stroke-linejoin="round" stroke-width="2.5"/>
      <path id="Path_79913" data-name="Path 79913" d="M0-39.189H13.225l6.29-6.292a3.063,3.063,0,0,1,2.165-.9h5.27" transform="translate(52.904 63.824)" fill="none" stroke="#fff" stroke-linecap="round" stroke-linejoin="round" stroke-width="2.5"/>
      <path id="Path_79914" data-name="Path 79914" d="M0-39.189H14.493a3.068,3.068,0,0,0,2.165-.9l6.29-6.29h4" transform="translate(52.904 69.947)" fill="none" stroke="#fff" stroke-linecap="round" stroke-linejoin="round" stroke-width="2.5"/>
      <path id="Path_79915" data-name="Path 79915" d="M0-31.3a5.742,5.742,0,0,0,5.742,5.742A5.742,5.742,0,0,0,11.483-31.3a5.742,5.742,0,0,0-5.742-5.742A5.742,5.742,0,0,0,0-31.3Z" transform="translate(78.97 51.812)" fill="none" stroke="#fff" stroke-linecap="round" stroke-linejoin="round" stroke-width="2.5"/>
      <path id="Path_79916" data-name="Path 79916" d="M-51.842,0h-9.509" transform="translate(114.255 6.487)" fill="none" stroke="#fff" stroke-linecap="round" stroke-linejoin="round" stroke-width="2.5"/>
      <path id="Path_79917" data-name="Path 79917" d="M-51.852,0h-9.511" transform="translate(114.267 12.61)" fill="none" stroke="#fff" stroke-linecap="round" stroke-linejoin="round" stroke-width="2.5"/>
      <path id="Path_79918" data-name="Path 79918" d="M-51.842,0h-9.509" transform="translate(114.255 93.2)" fill="none" stroke="#fff" stroke-linecap="round" stroke-linejoin="round" stroke-width="2.5"/>
      <path id="Path_79919" data-name="Path 79919" d="M-51.852,0h-9.511" transform="translate(114.267 99.323)" fill="none" stroke="#fff" stroke-linecap="round" stroke-linejoin="round" stroke-width="2.5"/>
      <path id="Path_79920" data-name="Path 79920" d="M-222.2,0h-40.756" transform="translate(315.856 49.843)" fill="none" stroke="#fff" stroke-linecap="round" stroke-linejoin="round" stroke-width="2.5"/>
      <path id="Path_79921" data-name="Path 79921" d="M-222.2,0h-40.756" transform="translate(315.856 55.966)" fill="none" stroke="#fff" stroke-linecap="round" stroke-linejoin="round" stroke-width="2.5"/>
      <path id="Path_79922" data-name="Path 79922" d="M0-30.021H22.426a3.064,3.064,0,0,0,2.165-.9L29.2-35.528h7.88" transform="translate(52.904 73.815)" fill="none" stroke="#fff" stroke-linecap="round" stroke-linejoin="round" stroke-width="2.5"/>
      <path id="Path_79923" data-name="Path 79923" d="M0-30.026H2.352l4.611-4.611a3.063,3.063,0,0,1,2.166-.9h9.149" transform="translate(71.71 67.697)" fill="none" stroke="#fff" stroke-linecap="round" stroke-linejoin="round" stroke-width="2.5"/>
      <path id="Path_79924" data-name="Path 79924" d="M-68.727,0H-81.333" transform="translate(134.237 37.672)" fill="none" stroke="#fff" stroke-linecap="round" stroke-linejoin="round" stroke-width="2.5"/>
      <path id="Path_79925" data-name="Path 79925" d="M-47.3-435.729A51.3,51.3,0,0,0-4.619-412.943V-515.652A51.354,51.354,0,0,0-55.973-464.3a51.126,51.126,0,0,0,5.555,23.253" transform="translate(57.523 517.202)" fill="none" stroke="#fff" stroke-linecap="round" stroke-linejoin="round" stroke-width="2.5"/>
      <path id="Path_79926" data-name="Path 79926" d="M-201.277,0A51.094,51.094,0,0,0-226.37,6.539,51.531,51.531,0,0,0-238.2,15.66" transform="translate(254.181 72.94)" fill="none" stroke="#fff" stroke-linecap="round" stroke-linejoin="round" stroke-width="2.5"/>
      <path id="Path_79927" data-name="Path 79927" d="M-200.642-84.71a51.132,51.132,0,0,1-25.024-6.5,51.475,51.475,0,0,1-11.778-9.039" transform="translate(253.547 117.337)" fill="none" stroke="#fff" stroke-linecap="round" stroke-linejoin="round" stroke-width="2.5"/>
      <path id="Path_79928" data-name="Path 79928" d="M-159.85-559.956c-16.193,0-29.32-22.993-29.32-51.354s13.127-51.354,29.32-51.354" transform="translate(212.754 664.215)" fill="none" stroke="#fff" stroke-linecap="round" stroke-linejoin="round" stroke-width="2.5"/>
      <path id="Path_79929" data-name="Path 79929" d="M-279.978,0h-51.354" transform="translate(332.882 52.904)" fill="none" stroke="#fff" stroke-linecap="round" stroke-linejoin="round" stroke-width="2.5"/>
      <path id="Path_79930" data-name="Path 79930" d="M0-31.3a5.742,5.742,0,0,0,5.742,5.742A5.742,5.742,0,0,0,11.483-31.3a5.742,5.742,0,0,0-5.742-5.742A5.742,5.742,0,0,0,0-31.3Z" transform="translate(92.775 84.208)" fill="none" stroke="#fff" stroke-linecap="round" stroke-linejoin="round" stroke-width="2.5"/>
      <path id="Path_79931" data-name="Path 79931" d="M0-31.3a5.742,5.742,0,0,0,5.742,5.742A5.742,5.742,0,0,0,11.483-31.3a5.742,5.742,0,0,0-5.742-5.742A5.742,5.742,0,0,0,0-31.3Z" transform="translate(89.101 66.529)" fill="none" stroke="#fff" stroke-linecap="round" stroke-linejoin="round" stroke-width="2.5"/>
      <path id="Path_79932" data-name="Path 79932" d="M0-31.3a5.742,5.742,0,0,0,5.742,5.742A5.742,5.742,0,0,0,11.483-31.3a5.742,5.742,0,0,0-5.742-5.742A5.742,5.742,0,0,0,0-31.3Z" transform="translate(61.528 40.851)" fill="none" stroke="#fff" stroke-linecap="round" stroke-linejoin="round" stroke-width="2.5"/>
    </g>
  </g>
</svg>
