<svg xmlns="http://www.w3.org/2000/svg" width="780.392" height="869.273" viewBox="0 0 780.392 869.273">
  <g id="Group_26063" data-name="Group 26063" transform="translate(301.343 248.007)">
    <g id="Group_26054" data-name="Group 26054" transform="translate(-119.266 274.616)">
      <path id="Path_80387" data-name="Path 80387" d="M386.366,549.368c-13.3,19.033-30.12,37.421-48.476,51.723-.67.975-2.57.6-3.174-.291-7.955-4.975-16.515-9.045-24.144-14.011,10.161-12.148,20-24.3,27.615-37.755h-9.869c-7.885,11.576-16.152,23.723-26.611,33.976-13.97-5.6-26.648-10.582-40.923-14.352L259.2,567.47c2.221-6.3,6.334-12.21,7.592-18.45h-8.56l-8.56,16.842c-18.693-4.048-39.321-6.255-58.355-7.484-.96-2.8.3-6.853-.96-9.357h-8.248c-.653,3.75.953,6.574-.953,9.684a366.424,366.424,0,0,0-57.072,6.889l-8.6-16.573c-3.138,0-6.668-.6-8.86.334l7.914,18.4-.946.91a400.562,400.562,0,0,0-41.868,14.671l-1.261-.639a248.065,248.065,0,0,1-24.455-30.818c-1.573-5.328-7.919-2.214-11.413-2.839,7.585,13.732,17.766,25.872,27.9,38.36-8.56,5-17.091,10.579-26.014,14.671a228.622,228.622,0,0,1-50.1-52.683c-3.815-.612-6.327-.334-10.161,0,22.84,35.534,58.376,66.694,95.49,85.086,0,0,0-.276.341-.276.272,0,.905.576.272.9,25.075,12.162,51.737,20.885,79.943,24.643,97.39,12.764,190.34-28.669,244.233-110.356A49.945,49.945,0,0,0,386.366,549.368Zm-132.242,28.05.932-.626a177.433,177.433,0,0,1,38.716,13.391c-10.159,11.506-23.168,21.5-35.208,29.913-7.285,4.349-14.608,9.074-22.228,12.789l-13.612-5.921.932-2.156A372.7,372.7,0,0,0,254.124,577.418Zm-62.509-9.357c18.093.341,36.182,2.207,52.967,6.24l.336.946c-8.868,16.813-20,33.059-32.029,48.3-5.422.639-10.474-1.517-15.859-1.851l-5.422-.641C190.989,602.663,190.653,586.453,191.616,568.06Zm-61.2,5.606c16.494-3.117,33.614-5.607,51.367-5.607l.327,52.734c-6.673,1.508-13.967,1.508-20.313,3.109a277.7,277.7,0,0,1-32.967-49Zm-12.4,3.117,1.287.327c9.172,17.149,20.607,33.345,32.021,49.555-4.406,2.512-9.828,4.012-14.253,6.546a213.637,213.637,0,0,1-57.742-41.782v-.912h-.007A208.94,208.94,0,0,1,118.019,576.784Zm2.24,67.027a225.316,225.316,0,0,1-74.243-34.9v-.968c7.614-4.632,15.257-9.636,23.473-13.1,18.095,17.819,36.8,31.224,57.1,43.974A24.645,24.645,0,0,1,120.259,643.811Zm117.669,4.029c-33.614,7.215-71.061,7.491-104.668-.6-.641-1.551,1.585-1.885,2.533-2.8,29.5-19.034,75.472-19.034,104.37,1.515C241.1,647.84,238.57,647.242,237.928,647.84Zm30.463-8.7L253.483,643.8a35.738,35.738,0,0,1-6.995-4.994l.641-.953a281.617,281.617,0,0,0,56.148-43.319,125.526,125.526,0,0,1,24.458,13.4C309.953,622.031,289.325,631.34,268.392,639.144Z" transform="translate(23.781 -548.688)" fill="#0d57a3"/>
    </g>
    <g id="Group_26055" data-name="Group 26055" transform="translate(-15.813 445.712)">
      <path id="Path_80388" data-name="Path 80388" d="M166.58,853.794a17.246,17.246,0,0,1-11.822,4.748q-9.594,0-15.214-6.492T133.924,834.7a26.028,26.028,0,0,1,3.149-12.6,23.627,23.627,0,0,1,8.842-9.206,24.112,24.112,0,0,1,12.573-3.391,23.408,23.408,0,0,1,12.622,3.512,23.665,23.665,0,0,1,8.794,9.933,34.134,34.134,0,0,1,3.246,14.8v6.25q0,11.678-4.579,20.254a31.608,31.608,0,0,1-13.058,13.179,40.8,40.8,0,0,1-19.769,4.6h-1.017V868.96l3.1-.048Q164.69,868.088,166.58,853.794Zm-7.413-7.026a7.949,7.949,0,0,0,7.655-4.6v-6.784q0-6.783-2.277-10.029a7.145,7.145,0,0,0-6.154-3.246q-3.441,0-5.766,3.682A16.362,16.362,0,0,0,150.3,834.7q0,5.523,2.375,8.794A7.59,7.59,0,0,0,159.167,846.769Z" transform="translate(-133.924 -809.509)" fill="#0d57a3"/>
      <path id="Path_80389" data-name="Path 80389" d="M271.146,852.268q0,14.294-6.42,22.046t-18.1,7.752q-11.774,0-18.218-7.8t-6.444-22V839.379q0-14.292,6.42-22.046t18.145-7.752q11.725,0,18.17,7.8t6.444,22.046ZM254.817,837.3q0-7.605-1.987-11.362a6.643,6.643,0,0,0-6.3-3.755,6.481,6.481,0,0,0-6.129,3.489q-1.915,3.488-2.059,10.563v18.025q0,7.9,1.986,11.556a6.664,6.664,0,0,0,6.3,3.658,6.576,6.576,0,0,0,6.153-3.561q1.987-3.562,2.036-11.168V837.3Z" transform="translate(-164.211 -809.534)" fill="#0d57a3"/>
      <path id="Path_80390" data-name="Path 80390" d="M358.745,852.268q0,14.294-6.42,22.046t-18.1,7.752q-11.773,0-18.217-7.8t-6.444-22V839.379q0-14.292,6.42-22.046t18.146-7.752q11.725,0,18.169,7.8t6.444,22.046ZM342.417,837.3q0-7.605-1.986-11.362a6.643,6.643,0,0,0-6.3-3.755,6.481,6.481,0,0,0-6.13,3.489q-1.916,3.488-2.06,10.563v18.025q0,7.9,1.987,11.556a6.663,6.663,0,0,0,6.3,3.658,6.578,6.578,0,0,0,6.154-3.561q1.988-3.562,2.035-11.168Z" transform="translate(-194.347 -809.534)" fill="#0d57a3"/>
      <path id="Path_80391" data-name="Path 80391" d="M446.346,852.268q0,14.294-6.42,22.046t-18.1,7.752q-11.774,0-18.218-7.8t-6.444-22V839.379q0-14.292,6.42-22.046t18.145-7.752q11.725,0,18.17,7.8t6.444,22.046v12.84ZM430.017,837.3q0-7.605-1.986-11.362a6.643,6.643,0,0,0-6.3-3.755,6.482,6.482,0,0,0-6.13,3.489q-1.915,3.488-2.06,10.563v18.025q0,7.9,1.986,11.556a6.665,6.665,0,0,0,6.3,3.658,6.579,6.579,0,0,0,6.154-3.561q1.987-3.562,2.035-11.168Z" transform="translate(-224.483 -809.534)" fill="#0d57a3"/>
    </g>
    <g id="Group_26061" data-name="Group 26061" transform="translate(-301.343 -248.007)">
      <g id="Group_26056" data-name="Group 26056" transform="translate(170.341 148.056)">
        <path id="Path_80392" data-name="Path 80392" d="M189.292-21.412l-.336.6-.646-.6a144.735,144.735,0,0,0-28.249-.363,75.056,75.056,0,0,0-11.727.363C72.22-15.526,2.123,23.461-41.673,89.828c3.174-.3,6.98.968,10.161-.3A292.32,292.32,0,0,1-5.825,58.682C2.392,50.89,10.035,43.411,18.929,37.776,27.184,43.07,36.371,47.481,44.3,52.449c-9.825,12.1-19.98,24.306-27.275,37.364,2.207.975,6.349.668,9.528,0C34.47,78.3,43.009,66.772,53.2,56.475c13.6,5,26.948,10.282,40.923,14.039l1.232,1.239-7.9,18.059c3.5.668,5.722.341,9.186,0,2.845-5.266,5.052-11.172,8.226-16.5a311.525,311.525,0,0,0,57.442,6.843c2.519,2.214.626,6.868,1.58,9.657h8.56c.932-3.062-.319-6.534.932-9.307,18.417-.968,37.755-2.84,55.581-7.208l1.544.327L239.071,89.8c2.859,0,6.658.668,8.879-.641L240,71.128l.663-.626c14.565-3.743,28.225-9.35,42.181-14.949,9.861,10.281,19.034,22.434,27.308,34.24,3.472,0,6.966.341,9.506-.641a126.009,126.009,0,0,0-13.646-19.625,132.87,132.87,0,0,0-13.977-16.786V51.127l22.208-12.76,3.2-1.244a231.632,231.632,0,0,1,50.085,52.028c3.808,0,6.988,1.309,10.168-.264A251.269,251.269,0,0,0,189.292-21.412ZM51.584,44.927c-8.567-3.059-16.467-7.763-24.108-13.055l0-.612A228.039,228.039,0,0,1,93.16-1.77c.96-.975,1.573-1.894,2.824-1.894v.641c2.533.612,4.447-2.214,6.661-.363,1.914,1.616,4.156,2.845,5.722,4.4A322.84,322.84,0,0,0,51.584,44.927ZM100.147,62.14l-1.268.272A253.323,253.323,0,0,1,61.1,49.645l.612-1.87C79.163,31.26,97.556,17.533,117.858,6.961c4.781,1.87,9.535,3.414,14.287,5.628l-.932,2.432C119.137,30.021,109.646,46.195,100.147,62.14Zm63.1,8.389c-8.86,1.244-16.793-.279-25.709-.968-8.524-1.254-19.334-2.156-27.894-5A278.715,278.715,0,0,1,142.64,15.712l20.309,2.766C163.888,34.66,163.249,53.374,163.249,70.53Zm-43.756-73.9c-1.635-1.246-4.766-1.851-5.108-4.036,33.642-7.756,73.268-8.38,106.605,0v.661C193.376,13.143,148.662,15.021,119.493-3.372Zm53.581,74.236c-.626-16.573-.3-34.937,0-52.086,6.368-.91,13.314-1.877,19.675-2.8,12.366,15.562,24.448,31.515,32.7,48.58A224.832,224.832,0,0,1,173.074,70.864Zm101.22-21.852c-12.4,5.273-25.1,10.27-38.716,13.13a527.655,527.655,0,0,0-32.7-49c4.447-2.442,9.869-4.312,14.615-6.8a224.237,224.237,0,0,1,57.409,41.688Zm33.287-17.14L285.713,44.01H284.1A276.342,276.342,0,0,0,227.642,1.025c.634-2.185,3.822-3.758,6.022-5.309a226.2,226.2,0,0,1,74.548,34.91Z" transform="translate(41.673 22.307)" fill="#0d57a3"/>
      </g>
      <g id="Group_26057" data-name="Group 26057" transform="translate(454.026 281.348)">
        <path id="Path_80393" data-name="Path 80393" d="M616.541,239.885c-5.714-15-17.447-28.393-31.728-38.048-41.228-26.177-104.057-28.043-146.539-4.375-23.166,11.811-38.394,35.186-43.134,59.257-8.6,39.549-6.375,86.6,24.093,116.246,35.53,31.145,87.238,38.027,133.217,25.233a59.763,59.763,0,0,0,13.883-4.7l1.345-.576a94,94,0,0,0,38.068-28.684C629.214,329.932,630.823,278.522,616.541,239.885Zm-74.862,88.808c-1.623,7.5-6.668,15.269-14.623,18.088-12.666,5.571-29.8,4.026-41.533-2.49-9.843-6.881-11.108-18.4-12.375-29.3-.96-21.488-2.512-44.243,3.508-63.889,4.719-12.169,17.732-15.3,29.5-16.217,12.361,0,24.393,1.887,32.029,11.854,4.752,7.153,4.461,16.508,5.4,24.934C543.251,289.423,544.846,310.6,541.679,328.694Z" transform="translate(-390.782 -180.885)" fill="#0d57a3"/>
      </g>
      <g id="Group_26058" data-name="Group 26058" transform="translate(88.646 283.572)">
        <path id="Path_80394" data-name="Path 80394" d="M-57.86,238.823l-.312,109.422c10.138,1.246,21.872.329,32.345.968l-.007,51.439H-165.719q-.98-25.706,0-51.432l31.409-.639.305-4.356V238.254c-10.474-.975-20.607-.641-31.4-.975-.314-16.848-.314-36.154,0-52.661l19.69-.343,119.562.337c.968,16.186.655,35.236.327,53l-31.392.308Z" transform="translate(166.209 -184.275)" fill="#0d57a3"/>
      </g>
      <g id="Group_26059" data-name="Group 26059" transform="translate(240.192 281.506)">
        <path id="Path_80395" data-name="Path 80395" d="M239.5,392.68c-32.682,16.851-75.148,13.734-108.135,0-5.381-2.8-10.781-5.9-16.2-8.394l-.634,14.971-47.559.305c-.975-24.948-.677-53.944,0-79.182l42.807-.3c2.548,3.1,4.146,6.817,6.673,9.934,21.562,22.477,53.937,28.667,83.751,20.549,2.207-1.189,5.081-2.79,5.066-5.556.612-3.424-3.189-6.248-6.019-7.516-28.6-9.648-58.086-16.863-86.314-26.825-20.626-7.77-42.2-24.306-46.3-46.714-5.4-23.68.932-50.512,21.56-65.447,31.707-22.756,80.56-21.226,115.47-6.582l14.579,7.8c1.587-3.756.334-9.036.975-12.743,14.253-.655,31.707-.655,45.982-.327.377,25.879,1.273,48.306.625,73.858-15.211.6-31.385.327-45.326.327-13.014-20.273-35.847-27.75-58.047-30.873-10.466-.279-24.441-3.4-30.468,6.868-.619,3.458.975,6.248,3.513,8.408l5.679,2.819,76.785,22.15c25.673,6.526,51.06,30.54,54.532,57C276,354.384,263.305,379.625,239.5,392.68Z" transform="translate(-64.809 -181.126)" fill="#0d57a3"/>
      </g>
      <g id="Group_26060" data-name="Group 26060">
        <path id="Path_80396" data-name="Path 80396" d="M-272.891,587.546l46.672-20.59,2.658,6.025-46.672,20.59Z" transform="translate(291.555 -32.35)" fill="#0d57a3"/>
        <path id="Path_80397" data-name="Path 80397" d="M-255.9,544.87c-3.581,1.223-6.493,2.3-9.284,3.492l-1.909-5.586,5.607-2.316-.049-.144a13.469,13.469,0,0,1-10.433-9.232c-1.64-4.8-1.32-13.226,10.568-17.288l20.7-7.072,2.154,6.3-19.981,6.828c-5.586,1.909-9.532,5.577-7.5,11.521a9.461,9.461,0,0,0,9.333,6.248,9.574,9.574,0,0,0,3.083-.573l20.841-7.121,2.154,6.3Z" transform="translate(291.483 -11.629)" fill="#0d57a3"/>
        <path id="Path_80398" data-name="Path 80398" d="M-297.472,486.971l8.535-2.055-2.232-9.271,4.93-1.187,2.232,9.271,19.2-4.624c4.415-1.063,6.615-2.917,5.747-6.522a12.446,12.446,0,0,0-1.345-3.647l4.785-1.464a16.073,16.073,0,0,1,2.339,5.509,9.272,9.272,0,0,1-1.113,7.664c-1.47,2.3-4.475,3.724-8.669,4.734l-19.425,4.678,1.329,5.518-4.93,1.187-1.329-5.518-6.549,1.576Z" transform="translate(300.011 1.874)" fill="#0d57a3"/>
        <path id="Path_80399" data-name="Path 80399" d="M-273.64,442.693c8.883-1.492,11.694-7.733,10.7-14.319a24.076,24.076,0,0,0-3.383-9.747l4.546-1.834a29.43,29.43,0,0,1,4.137,11.7c1.681,11.151-4.724,18.929-15.651,20.576s-20.5-3.492-22.094-14.045c-1.782-11.825,8.147-16.536,14.808-17.54a25.111,25.111,0,0,1,3.1-.238Zm-7.625-18.6c-4.2.558-10.443,3.335-9.326,10.744,1,6.66,7.581,8.654,12.225,8.49Z" transform="translate(299.366 19.308)" fill="#0d57a3"/>
        <path id="Path_80400" data-name="Path 80400" d="M-288.073,395.48c-4.305.27-8,.579-11.386,1.019l-.365-5.816,7.161-.677-.019-.3c-5.014-1.353-8.362-5.162-8.642-9.619a7.192,7.192,0,0,1,.108-1.9l6.269-.394a10.006,10.006,0,0,0-.084,2.28c.294,4.683,4.053,7.783,9.1,8.377a18.739,18.739,0,0,0,3.116.108l19.487-1.224.413,6.572Z" transform="translate(301.343 32.726)" fill="#0d57a3"/>
        <path id="Path_80401" data-name="Path 80401" d="M-291.008,348.521c-3.782-.111-6.887-.127-9.919.012l.173-5.9,6.063-.2,0-.152a13.469,13.469,0,0,1-6.529-12.306c.149-5.069,3.406-12.848,15.964-12.479l21.863.642-.2,6.658-21.107-.62c-5.9-.173-10.883,1.876-11.067,8.155a9.462,9.462,0,0,0,6.546,9.127,9.574,9.574,0,0,0,3.088.545l22.015.647-.2,6.657Z" transform="translate(301.302 53.472)" fill="#0d57a3"/>
        <path id="Path_80402" data-name="Path 80402" d="M-266,262.322a51.526,51.526,0,0,0,8.778.605l-.831,6-4.646-.109-.031.225a13.64,13.64,0,0,1,3.859,11.843c-1.018,7.346-6.71,10.378-11.957,9.65-8.771-1.216-12.487-9.677-10.47-23.684l-.75-.1c-3-.416-8.51-.339-9.539,7.082a18.252,18.252,0,0,0,1.389,9.819l-4.556.9a22.738,22.738,0,0,1-1.571-12.366c1.538-11.094,9.483-12.743,16.754-11.736Zm-10.7,5.011c-1.147,7.175-1.006,15.523,6.041,16.5,4.272.592,6.692-1.976,7.159-5.349a9.113,9.113,0,0,0-4.856-9.612,6.948,6.948,0,0,0-2.047-.666Z" transform="translate(299.699 73.181)" fill="#0d57a3"/>
        <path id="Path_80403" data-name="Path 80403" d="M-298.583,220.207l8.562,1.939,2.106-9.3,4.946,1.12-2.106,9.3,19.264,4.363c4.429,1,7.223.317,8.042-3.3a12.466,12.466,0,0,0,.41-3.864l4.938.807a16.049,16.049,0,0,1-.344,5.975,9.269,9.269,0,0,1-4.393,6.377c-2.337,1.41-5.661,1.356-9.868.4l-19.486-4.414-1.254,5.536-4.946-1.12,1.254-5.535-6.569-1.488Z" transform="translate(300.394 89.468)" fill="#0d57a3"/>
        <path id="Path_80404" data-name="Path 80404" d="M-293.3,184.4a3.933,3.933,0,0,1,2.743,5.21,3.959,3.959,0,0,1-5.043,2.712,4.058,4.058,0,0,1-2.837-5.159A3.952,3.952,0,0,1-293.3,184.4Zm42.992,20.211-35.177-10.218,1.858-6.4,35.177,10.218Z" transform="translate(300.406 99.322)" fill="#0d57a3"/>
        <path id="Path_80405" data-name="Path 80405" d="M-239.665,132.72c12.651,4.843,14.81,15.717,11.644,23.987-3.544,9.259-13.062,13.8-23.875,9.66-11.45-4.383-15.3-14.446-11.671-23.916C-259.807,132.627-250.125,128.716-239.665,132.72ZM-249.7,160c7.492,2.868,14.8.721,17.123-5.357,2.273-5.937-1.606-12.527-9.31-15.476-5.8-2.219-14.255-2.135-17.07,5.216S-256.2,157.507-249.7,160Z" transform="translate(288.801 117.567)" fill="#0d57a3"/>
        <path id="Path_80406" data-name="Path 80406" d="M-236.135,100.6c-3.352-1.755-6.136-3.128-8.923-4.331l2.738-5.23,5.539,2.473.07-.134a13.468,13.468,0,0,1-.484-13.921c2.352-4.492,8.685-10.06,19.814-4.233L-198,85.371l-3.089,5.9L-219.8,81.477c-5.23-2.738-10.605-3.075-13.519,2.489a9.462,9.462,0,0,0,1.892,11.07,9.578,9.578,0,0,0,2.539,1.841l19.51,10.215-3.089,5.9Z" transform="translate(281.98 137.673)" fill="#0d57a3"/>
        <path id="Path_80407" data-name="Path 80407" d="M-173.647,33.924a51.524,51.524,0,0,0,7.626,4.393l-3.376,5.027-4.128-2.135-.127.189a13.645,13.645,0,0,1-1.722,12.337c-4.136,6.157-10.581,6.387-14.979,3.433-7.351-4.938-6.984-14.173.971-25.88l-.628-.422c-2.513-1.688-7.5-4.036-11.679,2.185a18.25,18.25,0,0,0-3.056,9.436l-4.488-1.191a22.734,22.734,0,0,1,4.008-11.8c6.246-9.3,14.111-7.3,20.205-3.205Zm-11.818-.188c-4.177,5.947-7.709,13.513-1.8,17.479,3.581,2.406,6.881,1.157,8.78-1.67a9.114,9.114,0,0,0-.152-10.769,6.956,6.956,0,0,0-1.548-1.5Z" transform="translate(269.656 154.827)" fill="#0d57a3"/>
        <path id="Path_80408" data-name="Path 80408" d="M-199.02-17.957l4.119-5.234,42.229,33.231-4.119,5.234Z" transform="translate(266.143 170.668)" fill="#0d57a3"/>
        <path id="Path_80409" data-name="Path 80409" d="M-104.6-82.2c12.134,12.691,10.853,26.794,1.444,35.789-9.737,9.309-23.793,8.3-34.462-2.861-11.192-11.706-11.239-26.321-1.393-35.734C-128.945-94.632-115.061-93.142-104.6-82.2Zm-28.034,27.955c7.531,7.877,18.545,10.854,26.039,3.689,7.549-7.217,5.174-18.244-2.829-26.613-7.009-7.33-18.16-11.328-26.091-3.744C-143.393-73.384-140.375-62.343-132.635-54.247Z" transform="translate(247.977 194.132)" fill="#0d57a3"/>
        <path id="Path_80410" data-name="Path 80410" d="M-73.626-95.863c-2.634-3.417-4.957-6.309-7.217-8.868l4.616-3.557,4.569,5.556.24-.185c-1.685-4.913-.4-9.819,3.135-12.546a7.2,7.2,0,0,1,1.637-.975l3.835,4.976a10.023,10.023,0,0,0-1.937,1.206c-3.717,2.865-4.183,7.715-1.853,12.226a18.8,18.8,0,0,0,1.654,2.643L-53.025-79.92l-5.216,4.02Z" transform="translate(225.489 202.746)" fill="#0d57a3"/>
        <path id="Path_80411" data-name="Path 80411" d="M-3.213-122.322c4.5,7.093,5.853,12.331,4.552,16.92-1.219,4.717-5,8.369-8.895,10.843-3.706,2.352-8.364,4.053-11.91,3.973l-1.311-5.174a20.656,20.656,0,0,0,10.615-3.33c5.751-3.649,8.063-9.329,3.116-17.125l-2.19-3.451-.127.081c.1,3.971-1.764,8.38-6.557,11.421-7.668,4.865-17.3,1.835-22.733-6.728-6.65-10.48-3.584-20.761,3.51-25.262,5.368-3.406,10.091-2.46,13.055-.755l.128-.081-2.7-4.827,4.921-3.123c1.291,2.318,2.745,4.891,5.138,8.661Zm-14.6-10.721a9.48,9.48,0,0,0-1.942-2.353,9.593,9.593,0,0,0-11.631-.956c-5.368,3.406-6.323,10.376-1.782,17.533,3.853,6.071,10.123,9.173,16.194,5.32a9.736,9.736,0,0,0,4.147-10.7,11.562,11.562,0,0,0-1.459-3.287Z" transform="translate(212.242 213.926)" fill="#0d57a3"/>
        <path id="Path_80412" data-name="Path 80412" d="M45.861-149.085a51.512,51.512,0,0,0,4.407,7.616L44.832-138.8l-2.507-3.912-.2.1a13.643,13.643,0,0,1-7.66,9.821c-6.66,3.264-12.355.24-14.686-4.517-3.9-7.951,1.04-15.763,13.781-21.923l-.333-.68c-1.332-2.718-4.477-7.245-11.2-3.948a18.248,18.248,0,0,0-7.363,6.642l-3.29-3.275a22.73,22.73,0,0,1,9.373-8.217c10.058-4.929,15.867.736,19.1,7.327Zm-10.139-6.072c-6.59,3.061-13.431,7.846-10.3,14.234,1.9,3.874,5.38,4.443,8.437,2.944a9.113,9.113,0,0,0,5.253-9.4,6.947,6.947,0,0,0-.593-2.069Z" transform="translate(193.769 221.371)" fill="#0d57a3"/>
        <path id="Path_80413" data-name="Path 80413" d="M67.192-178.834c-1.283-3.56-2.406-6.454-3.647-9.225l5.554-2,2.409,5.567.142-.051a13.47,13.47,0,0,1,9.056-10.585c4.77-1.72,13.2-1.541,17.462,10.278l7.417,20.576-6.265,2.259L92.159-181.88c-2-5.554-5.735-9.437-11.644-7.307a9.462,9.462,0,0,0-6.092,9.436,9.59,9.59,0,0,0,.625,3.073l7.468,20.719L76.251-153.7Z" transform="translate(175.818 230.087)" fill="#0d57a3"/>
        <path id="Path_80414" data-name="Path 80414" d="M130.189-225.043A3.933,3.933,0,0,1,127.156-220a3.96,3.96,0,0,1-4.934-2.907,4.058,4.058,0,0,1,2.94-5.1A3.953,3.953,0,0,1,130.189-225.043ZM135.2-177.8l-9.5-35.376,6.432-1.727,9.5,35.376Z" transform="translate(155.686 241.181)" fill="#0d57a3"/>
        <path id="Path_80415" data-name="Path 80415" d="M157.042-182.283l12.148-24.34c1.184-2.236,2.337-4.233,3.6-6.483l-.029-.149-19.465,3.79-1.027-5.275,27.414-5.337.722,4.1-11.983,24c-1.1,2.3-2.234,4.368-3.507,6.543l.029.148,21.024-4.093,1.012,5.2-29.2,5.684Z" transform="translate(145.297 238.399)" fill="#0d57a3"/>
        <path id="Path_80416" data-name="Path 80416" d="M236.395-197.839a51.559,51.559,0,0,0,1.448,8.68l-6.027.583-.972-4.544-.226.022a13.644,13.644,0,0,1-10.624,6.5c-7.382.714-11.652-4.12-12.162-9.392-.853-8.814,6.515-14.393,20.61-15.68l-.073-.753c-.291-3.014-1.645-8.357-9.1-7.636a18.255,18.255,0,0,0-9.23,3.63l-1.929-4.223a22.737,22.737,0,0,1,11.665-4.4c11.149-1.078,14.6,6.268,15.3,13.575Zm-7.358-9.249c-7.246.548-15.334,2.624-14.649,9.7.415,4.294,3.475,6.051,6.864,5.723a9.113,9.113,0,0,0,8.223-6.955,6.94,6.94,0,0,0,.173-2.146Z" transform="translate(126.204 240.145)" fill="#0d57a3"/>
        <path id="Path_80417" data-name="Path 80417" d="M271.89-239.964l.142,8.778,9.535-.155.083,5.07-9.535.155.321,19.751c.074,4.54,1.4,7.093,5.11,7.032a12.428,12.428,0,0,0,3.852-.517l.384,4.989a16.043,16.043,0,0,1-5.886,1.08,9.27,9.27,0,0,1-7.236-2.758c-1.924-1.936-2.658-5.18-2.728-9.493l-.325-19.978-5.675.092-.083-5.07,5.676-.092-.109-6.735Z" transform="translate(108.287 245.24)" fill="#0d57a3"/>
        <path id="Path_80418" data-name="Path 80418" d="M304.039-197.123l1.671-36.592,6.654.3-1.671,36.592Zm9.551-46.535a3.934,3.934,0,0,1-4.42,3.889,3.959,3.959,0,0,1-3.82-4.265A4.058,4.058,0,0,1,309.7-248,3.952,3.952,0,0,1,313.59-243.658Z" transform="translate(93.085 248.007)" fill="#0d57a3"/>
        <path id="Path_80419" data-name="Path 80419" d="M364.432-202.183c-1.724,13.436-11.783,18.1-20.565,16.97-9.833-1.261-16.49-9.44-15.017-20.924,1.56-12.16,10.431-18.271,20.489-16.98C359.774-221.779,365.857-213.292,364.432-202.183Zm-28.872-3.323c-1.021,7.956,2.788,14.549,9.244,15.377,6.3.809,11.795-4.515,12.844-12.7.79-6.155-1.286-14.356-9.093-15.358S336.446-212.411,335.56-205.506Z" transform="translate(84.62 239.503)" fill="#0d57a3"/>
        <path id="Path_80420" data-name="Path 80420" d="M396.436-205.4c.915-3.672,1.592-6.7,2.1-9.694l5.728,1.427-1.1,5.967.147.037a13.47,13.47,0,0,1,13.416-3.756c4.921,1.226,11.826,6.067,8.788,18.257l-5.288,21.225-6.463-1.61,5.1-20.49c1.427-5.728.487-11.032-5.609-12.551a9.462,9.462,0,0,0-10.313,4.451,9.565,9.565,0,0,0-1.191,2.9l-5.325,21.371-6.463-1.61Z" transform="translate(63.522 236.684)" fill="#0d57a3"/>
        <path id="Path_80421" data-name="Path 80421" d="M473.239-160.731l11.675-29.322-4.781-1.9,1.875-4.711,4.781,1.9.643-1.617c1.9-4.781,4.694-8.721,8.67-10.316a12.743,12.743,0,0,1,9.557.139,15.445,15.445,0,0,1,4.882,3.084l-2.747,4.446a9.951,9.951,0,0,0-3.63-2.341c-5.273-2.1-8.458,2.009-10.529,7.213l-.727,1.828,8.227,3.275-1.875,4.711-8.227-3.276L479.356-158.3Z" transform="translate(34.878 234.094)" fill="#0d57a3"/>
        <path id="Path_80422" data-name="Path 80422" d="M540.388-142.076c-6.076,12.108-17.112,13.176-25.026,9.2-8.861-4.446-12.435-14.369-7.241-24.718,5.5-10.958,15.894-13.787,24.958-9.238C542.482-162.11,545.411-152.088,540.388-142.076Zm-26.145-12.7c-3.6,7.171-2.187,14.652,3.63,17.571,5.682,2.852,12.625-.354,16.325-7.728,2.783-5.547,3.54-13.973-3.5-17.5S517.366-160.995,514.243-154.771Z" transform="translate(23.706 220.796)" fill="#0d57a3"/>
        <path id="Path_80423" data-name="Path 80423" d="M568.426-134.331c2.282-3.661,4.179-6.849,5.787-9.859l4.945,3.082-3.61,6.222.257.16c4.015-3.294,9.061-3.807,12.85-1.445a7.2,7.2,0,0,1,1.486,1.193l-3.322,5.331a10,10,0,0,0-1.807-1.394c-3.982-2.482-8.689-1.224-12.1,2.535a18.79,18.79,0,0,0-1.9,2.474l-10.326,16.572-5.589-3.483Z" transform="translate(6.719 212.293)" fill="#0d57a3"/>
        <path id="Path_80424" data-name="Path 80424" d="M609.131-88.358A23.33,23.33,0,0,0,616.14-78.29c5.2,4.276,10.5,4.026,13.771.05,3.027-3.684,2.651-7.518-.989-13.938-4.558-7.566-5.8-14.166-1.232-19.721,5.044-6.14,13.879-6.521,21.54-.227a23.178,23.178,0,0,1,7.127,9.088l-4.815,3a20.319,20.319,0,0,0-5.947-8.021c-5.38-4.42-10.069-2.886-12.279-.2-3.026,3.684-2.118,7.466,1.59,14.04,4.552,8.05,5.3,14.053.545,19.842-5,6.082-13.872,7.7-23.169.064-3.8-3.123-6.992-7.7-7.943-10.837Z" transform="translate(-10.221 202.828)" fill="#0d57a3"/>
        <path id="Path_80425" data-name="Path 80425" d="M686.152-70.377,680.018-64.1l6.823,6.662L683.3-53.805l-6.823-6.662-13.8,14.133c-3.172,3.249-4.049,5.989-1.4,8.58a12.418,12.418,0,0,0,3.078,2.371L661.087-31.6a16.044,16.044,0,0,1-4.911-3.42,9.269,9.269,0,0,1-3.135-7.081c.02-2.73,1.807-5.534,4.821-8.621l13.957-14.3-4.061-3.965,3.542-3.628,4.061,3.965,4.705-4.82Z" transform="translate(-26.972 187.961)" fill="#0d57a3"/>
        <path id="Path_80426" data-name="Path 80426" d="M696.761-.122a51.551,51.551,0,0,0-6.248,6.2l-3.957-4.582L689.7-1.926l-.149-.172A13.641,13.641,0,0,1,678.11-7.013c-4.849-5.613-3.37-11.89.64-15.353,6.7-5.788,15.512-3,24.7,7.763l.573-.495c2.291-1.979,5.87-6.17.973-11.841a18.248,18.248,0,0,0-8.3-5.436l2.333-4.015a22.731,22.731,0,0,1,10.328,6.98c7.322,8.477,3.317,15.535-2.238,20.334Zm3.3-11.349c-4.634-5.6-11-11-16.384-6.349-3.265,2.819-2.932,6.332-.705,8.909A9.113,9.113,0,0,0,693.4-6.216a6.945,6.945,0,0,0,1.851-1.1Z" transform="translate(-34.551 175.207)" fill="#0d57a3"/>
        <path id="Path_80427" data-name="Path 80427" d="M728.918,12.629c3.115-2.148,5.626-3.973,7.989-5.878l3.351,4.86L735.49,15.36l.086.125a13.471,13.471,0,0,1,12.544,6.057c2.88,4.174,4.856,12.372-5.485,19.505l-18,12.419-3.782-5.482L738.23,35.994c4.859-3.351,7.663-7.952,4.1-13.122a9.462,9.462,0,0,0-10.678-3.484,9.562,9.562,0,0,0-2.812,1.388l-18.129,12.5L706.926,27.8Z" transform="translate(-45.513 160.367)" fill="#0d57a3"/>
        <path id="Path_80428" data-name="Path 80428" d="M805.51,85.907l-39.144,20.681c-2.878,1.52-6.121,3.32-8.223,4.687l-2.793-5.287,5.479-3.237-.07-.134c-4.568.1-9.4-2.4-12.19-7.682-4.137-7.829-.694-17.352,9.143-22.548,10.737-5.759,20.9-2.568,25.069,5.329,2.616,4.952,2.041,9.535.21,12.386l.07.134L802.4,80.019Zm-31.415,9.066A11.768,11.768,0,0,0,776.43,93.4a9.8,9.8,0,0,0,2.335-12.1c-3.217-6.09-10.479-6.874-17.64-3.092-6.557,3.465-10.281,9.54-6.922,15.9a10.011,10.011,0,0,0,11.587,4.92,11.6,11.6,0,0,0,2.684-1.076Z" transform="translate(-59.247 138.799)" fill="#0d57a3"/>
        <path id="Path_80429" data-name="Path 80429" d="M788.057,160.313a51.584,51.584,0,0,0-7.945,3.783l-2.221-5.632,4.1-2.186-.083-.211a13.644,13.644,0,0,1-9.177-8.422c-2.72-6.9.75-12.336,5.678-14.279,8.239-3.247,15.631,2.3,20.751,15.492l.7-.277c2.816-1.11,7.581-3.883,4.833-10.853a18.251,18.251,0,0,0-6.032-7.872l3.529-3.018a22.739,22.739,0,0,1,7.441,10c4.108,10.42-2,15.758-8.833,18.451Zm6.864-9.621c-2.524-6.814-6.746-14.017-13.364-11.408-4.013,1.582-4.859,5.007-3.61,8.176a9.113,9.113,0,0,0,8.95,5.989,6.972,6.972,0,0,0,2.11-.425Z" transform="translate(-67.822 119.056)" fill="#0d57a3"/>
        <path id="Path_80430" data-name="Path 80430" d="M812.734,184.023c4.134-1.232,7.667-2.364,10.865-3.555l1.664,5.585-6.825,2.272.087.29c5.19.191,9.309,3.148,10.586,7.427a7.233,7.233,0,0,1,.323,1.878l-6.021,1.794a10,10,0,0,0-.43-2.241c-1.341-4.5-5.7-6.672-10.748-6.115a18.748,18.748,0,0,0-3.06.6l-18.712,5.578-1.881-6.31Z" transform="translate(-73.603 100.607)" fill="#0d57a3"/>
        <path id="Path_80431" data-name="Path 80431" d="M858.167,247.2l-43.413,8.69c-3.192.639-6.813,1.441-9.217,2.154l-1.174-5.863,6.174-1.544-.03-.149c-4.409-1.2-8.328-4.971-9.5-10.834-1.738-8.683,4.272-16.833,15.181-19.016,11.933-2.466,20.765,3.485,22.518,12.242,1.1,5.492-.755,9.722-3.323,11.934l.03.148,21.447-4.293Zm-32.7-.247a11.776,11.776,0,0,0,2.686-.846,9.794,9.794,0,0,0,5.683-10.94c-1.352-6.753-8.09-9.572-16.031-7.983-7.272,1.456-12.571,6.221-11.16,13.271a10.012,10.012,0,0,0,9.709,8.014,11.558,11.558,0,0,0,2.88-.268Z" transform="translate(-77.775 86.982)" fill="#0d57a3"/>
        <path id="Path_80432" data-name="Path 80432" d="M809.54,289.429l36.394-4.147.754,6.617-36.394,4.147ZM857,291.485a4.124,4.124,0,0,1-.934-8.2,4.058,4.058,0,0,1,4.606,3.664A3.952,3.952,0,0,1,857,291.485Z" transform="translate(-80.813 65.245)" fill="#0d57a3"/>
        <path id="Path_80433" data-name="Path 80433" d="M815.871,311.582l22.284,15.6c2.036,1.5,3.842,2.936,5.882,4.512l.151-.007-.878-19.81,5.369-.238,1.238,27.9-4.162.109-21.972-15.39c-2.108-1.422-3.99-2.854-5.954-4.433l-.151.007.949,21.4-5.293.235-1.318-29.716Z" transform="translate(-81.665 55.502)" fill="#0d57a3"/>
        <path id="Path_80434" data-name="Path 80434" d="M820.631,390.621a51.6,51.6,0,0,0-8.8.166l.3-6.048,4.637-.3.012-.226a13.645,13.645,0,0,1-4.882-11.46c.371-7.408,5.776-10.927,11.067-10.662,8.844.443,13.289,8.546,12.506,22.678l.756.038c3.023.151,8.508-.407,8.882-7.892a18.241,18.241,0,0,0-2.245-9.661l4.461-1.292a22.729,22.729,0,0,1,2.648,12.182c-.56,11.188-8.33,13.527-15.663,13.16Zm10.224-5.93c.514-7.249-.358-15.553-7.464-15.909-4.308-.216-6.494,2.555-6.664,5.956a9.115,9.115,0,0,0,5.68,9.151,6.973,6.973,0,0,0,2.1.484Z" transform="translate(-81.602 38.13)" fill="#0d57a3"/>
        <path id="Path_80435" data-name="Path 80435" d="M852.794,433.173l-8.7-1.174-1.275,9.45-5.025-.678,1.275-9.45-19.575-2.641c-4.5-.607-7.222.324-7.718,4a12.438,12.438,0,0,0-.067,3.885l-4.99-.368a16.042,16.042,0,0,1-.186-5.981,9.27,9.27,0,0,1,3.812-6.741c2.2-1.612,5.519-1.851,9.795-1.275l19.8,2.672.759-5.625,5.025.678-.758,5.625,6.675.9Z" transform="translate(-79.715 18.464)" fill="#0d57a3"/>
        <path id="Path_80436" data-name="Path 80436" d="M803.932,455.708l35.942,7.054-1.282,6.535-35.942-7.054Zm44.614,16.314a4.125,4.125,0,0,1,1.589-8.095,4.058,4.058,0,0,1,3.283,4.886A3.953,3.953,0,0,1,848.546,472.022Z" transform="translate(-78.443 5.921)" fill="#0d57a3"/>
        <path id="Path_80437" data-name="Path 80437" d="M805.735,518.419c-13.031-3.7-16.147-14.339-13.729-22.857,2.708-9.537,11.784-14.905,22.922-11.742,11.794,3.348,16.519,13.029,13.749,22.784C825.805,516.722,816.51,521.477,805.735,518.419Zm7.573-28.059c-7.717-2.191-14.8.6-16.58,6.857-1.736,6.115,2.713,12.335,10.648,14.587,5.969,1.7,14.388.86,16.538-6.711S820.006,492.262,813.309,490.36Z" transform="translate(-74.523 -3.437)" fill="#0d57a3"/>
        <path id="Path_80438" data-name="Path 80438" d="M800.743,549.461c3.495,1.452,6.389,2.572,9.272,3.523l-2.264,5.452-5.737-1.973-.058.14a13.47,13.47,0,0,1,1.716,13.825c-1.945,4.683-7.76,10.791-19.363,5.972l-20.2-8.389,2.555-6.151,19.5,8.1c5.453,2.264,10.838,2.123,13.246-3.677a9.464,9.464,0,0,0-2.865-10.861,9.566,9.566,0,0,0-2.691-1.609l-20.34-8.447,2.554-6.151Z" transform="translate(-65.184 -22.806)" fill="#0d57a3"/>
      </g>
    </g>
    <g id="Group_26062" data-name="Group 26062" transform="translate(-248.197 550.805)">
      <path id="Path_80439" data-name="Path 80439" d="M-175.219,1031.934c-6.887-1.817-13.624-3.86-19.527-5.9a9.769,9.769,0,0,0-3.1-.756c-12.11-.454-22.478-9.385-22.478-25.808,0-16.348,9.99-26.867,23.764-26.867,13.85,0,22.856,10.747,22.856,25.808,0,13.093-6.054,21.494-14.531,24.445v.3c5.071,1.286,10.6,2.5,14.91,3.254Zm-21.8-12.031c10.445,0,16.347-9.536,16.347-21.192,0-10.217-5.3-20.736-16.12-20.736-11.126,0-16.575,10.292-16.5,21.342-.075,10.823,5.9,20.586,16.2,20.586Z" transform="translate(220.326 -970.707)" fill="#0d57a3"/>
      <path id="Path_80440" data-name="Path 80440" d="M-105.69,1022.43c0,3.784.075,7.115.3,9.99h-5.9l-.379-5.979h-.151a13.784,13.784,0,0,1-12.11,6.812c-5.752,0-12.639-3.179-12.639-16.045V995.79h6.66v20.283c0,6.963,2.119,11.655,8.174,11.655a9.627,9.627,0,0,0,8.779-6.054,9.738,9.738,0,0,0,.606-3.405V995.791h6.66Z" transform="translate(191.512 -978.685)" fill="#0d57a3"/>
      <path id="Path_80441" data-name="Path 80441" d="M-48.429,1023.208a51.525,51.525,0,0,0,.605,8.779h-6.054l-.53-4.617h-.228a13.642,13.642,0,0,1-11.2,5.45c-7.417,0-11.2-5.222-11.2-10.52,0-8.855,7.871-13.7,22.024-13.623v-.757c0-3.027-.833-8.476-8.325-8.476a18.247,18.247,0,0,0-9.536,2.724l-1.513-4.39a22.737,22.737,0,0,1,12.033-3.254c11.2,0,13.926,7.644,13.926,14.985v13.7Zm-6.433-9.919c-7.266-.151-15.515,1.135-15.515,8.25,0,4.314,2.876,6.356,6.282,6.356a9.112,9.112,0,0,0,8.855-6.13,6.933,6.933,0,0,0,.379-2.119Z" transform="translate(171.033 -978.25)" fill="#0d57a3"/>
      <path id="Path_80442" data-name="Path 80442" d="M-17.045,969.715h6.66v53.735h-6.66Z" transform="translate(150.395 -969.715)" fill="#0d57a3"/>
      <path id="Path_80443" data-name="Path 80443" d="M17.162,977.916A3.933,3.933,0,0,1,12.923,982a3.96,3.96,0,0,1-4.011-4.086,4.059,4.059,0,0,1,4.163-4.163A3.953,3.953,0,0,1,17.162,977.916ZM9.745,1024.84V988.209H16.4v36.631Z" transform="translate(141.466 -971.104)" fill="#0d57a3"/>
      <path id="Path_80444" data-name="Path 80444" d="M43.017,982.406v8.779h9.536v5.07H43.017v19.753c0,4.541,1.286,7.114,4.995,7.114a12.42,12.42,0,0,0,3.86-.454l.3,5a16.045,16.045,0,0,1-5.9.984,9.268,9.268,0,0,1-7.19-2.877c-1.893-1.967-2.573-5.222-2.573-9.536v-19.98H30.832v-5.07h5.676v-6.736Z" transform="translate(133.925 -974.081)" fill="#0d57a3"/>
      <path id="Path_80445" data-name="Path 80445" d="M76.284,995.789l8.022,21.645c.833,2.422,1.741,5.3,2.346,7.493H86.8c.681-2.2,1.438-4.995,2.346-7.644l7.266-21.494h7.038l-9.99,26.11c-4.768,12.564-8.022,19-12.563,22.932a18.04,18.04,0,0,1-8.174,4.314l-1.665-5.6a17.627,17.627,0,0,0,5.828-3.254,20.2,20.2,0,0,0,5.6-7.417,4.773,4.773,0,0,0,.53-1.589,5.786,5.786,0,0,0-.454-1.74L69.019,995.789Z" transform="translate(120.788 -978.685)" fill="#0d57a3"/>
      <path id="Path_80446" data-name="Path 80446" d="M197.818,1002.478c-.378-7.114-.832-15.666-.756-22.023h-.228c-1.74,5.979-3.86,12.413-6.433,19.375l-9.006,24.749H176.4l-8.25-24.294c-2.421-7.19-4.465-13.774-5.9-19.829H162.1c-.151,6.357-.53,14.91-.984,22.554l-1.362,21.873h-6.282l3.557-51.01h8.4l8.7,24.672c2.119,6.282,3.86,11.882,5.147,17.18h.227c1.287-5.147,3.1-10.747,5.373-17.18l9.082-24.672h8.4l3.179,51.01h-6.433Z" transform="translate(91.736 -971.144)" fill="#0d57a3"/>
      <path id="Path_80447" data-name="Path 80447" d="M272.871,1023.208a51.527,51.527,0,0,0,.605,8.779h-6.054l-.53-4.617h-.228a13.642,13.642,0,0,1-11.2,5.45c-7.417,0-11.2-5.222-11.2-10.52,0-8.855,7.871-13.7,22.024-13.623v-.757c0-3.027-.833-8.476-8.325-8.476a18.247,18.247,0,0,0-9.536,2.724l-1.513-4.39a22.736,22.736,0,0,1,12.033-3.254c11.2,0,13.926,7.644,13.926,14.985v13.7Zm-6.433-9.919c-7.266-.151-15.515,1.135-15.515,8.25,0,4.314,2.876,6.356,6.282,6.356a9.112,9.112,0,0,0,8.855-6.13,6.933,6.933,0,0,0,.379-2.119Z" transform="translate(60.502 -978.25)" fill="#0d57a3"/>
      <path id="Path_80448" data-name="Path 80448" d="M304.1,1005.264c0-3.784-.075-6.886-.3-9.914h5.9l.379,6.054h.151a13.471,13.471,0,0,1,12.11-6.887c5.07,0,12.942,3.027,12.942,15.591v21.873h-6.66v-21.115c0-5.9-2.2-10.823-8.477-10.823a9.462,9.462,0,0,0-8.931,6.811,9.59,9.59,0,0,0-.454,3.1v22.023H304.1v-26.717Z" transform="translate(40.023 -978.247)" fill="#0d57a3"/>
      <path id="Path_80449" data-name="Path 80449" d="M392.51,1023.208a51.527,51.527,0,0,0,.606,8.779h-6.054l-.53-4.617H386.3a13.642,13.642,0,0,1-11.2,5.45c-7.417,0-11.2-5.222-11.2-10.52,0-8.855,7.871-13.7,22.023-13.623v-.757c0-3.027-.833-8.476-8.325-8.476a18.247,18.247,0,0,0-9.536,2.724l-1.513-4.39a22.737,22.737,0,0,1,12.034-3.254c11.2,0,13.926,7.644,13.926,14.985v13.7Zm-6.433-9.919c-7.266-.151-15.515,1.135-15.515,8.25,0,4.314,2.876,6.356,6.282,6.356a9.112,9.112,0,0,0,8.854-6.13,6.934,6.934,0,0,0,.379-2.119Z" transform="translate(19.345 -978.25)" fill="#0d57a3"/>
      <path id="Path_80450" data-name="Path 80450" d="M453.761,1026.683c0,8.4-1.666,13.547-5.222,16.726-3.557,3.33-8.7,4.389-13.32,4.389-4.389,0-9.233-1.059-12.185-3.027l1.666-5.071a20.649,20.649,0,0,0,10.747,2.877c6.811,0,11.806-3.557,11.806-12.791V1025.7H447.1c-2.043,3.406-5.979,6.131-11.655,6.131-9.082,0-15.591-7.72-15.591-17.861,0-12.413,8.1-19.451,16.5-19.451,6.357,0,9.839,3.331,11.428,6.357h.151l.3-5.525h5.828c-.151,2.649-.3,5.6-.3,10.066v21.266Zm-6.585-16.872a9.5,9.5,0,0,0-.378-3.027,9.6,9.6,0,0,0-9.309-7.038c-6.356,0-10.9,5.373-10.9,13.85,0,7.19,3.633,13.168,10.822,13.168a9.735,9.735,0,0,0,9.233-6.811,11.584,11.584,0,0,0,.53-3.557v-6.584Z" transform="translate(0.097 -978.248)" fill="#0d57a3"/>
      <path id="Path_80451" data-name="Path 80451" d="M490.7,1014.884c.151,9.006,5.9,12.715,12.563,12.715a24.088,24.088,0,0,0,10.142-1.892l1.135,4.768a29.413,29.413,0,0,1-12.184,2.346c-11.276,0-18.013-7.493-18.013-18.543s6.509-19.753,17.18-19.753c11.958,0,15.136,10.52,15.136,17.256a25.008,25.008,0,0,1-.227,3.1Zm19.526-4.769c.076-4.238-1.74-10.823-9.233-10.823-6.736,0-9.688,6.206-10.217,10.823Z" transform="translate(-22.089 -978.25)" fill="#0d57a3"/>
      <path id="Path_80452" data-name="Path 80452" d="M546.026,1005.264c0-3.784-.075-6.887-.3-9.914h5.828l.3,5.9h.227a12.625,12.625,0,0,1,11.5-6.736,10.829,10.829,0,0,1,10.368,7.341h.151a15.093,15.093,0,0,1,4.087-4.768,12.5,12.5,0,0,1,8.1-2.573c4.844,0,12.034,3.179,12.034,15.894v21.569h-6.509v-20.737c0-7.038-2.573-11.276-7.947-11.276-3.784,0-6.736,2.8-7.871,6.054a10.952,10.952,0,0,0-.53,3.33v22.629h-6.509v-21.948c0-5.828-2.574-10.065-7.644-10.065-4.162,0-7.19,3.33-8.249,6.659a9.178,9.178,0,0,0-.53,3.255v22.1h-6.509v-26.715Z" transform="translate(-43.203 -978.247)" fill="#0d57a3"/>
      <path id="Path_80453" data-name="Path 80453" d="M644.724,1014.884c.151,9.006,5.9,12.715,12.563,12.715a24.087,24.087,0,0,0,10.142-1.892l1.135,4.768a29.413,29.413,0,0,1-12.184,2.346c-11.277,0-18.013-7.493-18.013-18.543s6.509-19.753,17.18-19.753c11.958,0,15.136,10.52,15.136,17.256a25.013,25.013,0,0,1-.227,3.1Zm19.526-4.769c.075-4.238-1.74-10.823-9.233-10.823-6.736,0-9.688,6.206-10.217,10.823Z" transform="translate(-75.074 -978.25)" fill="#0d57a3"/>
      <path id="Path_80454" data-name="Path 80454" d="M700.045,1005.264c0-3.784-.075-6.886-.3-9.914h5.9l.378,6.054h.151a13.472,13.472,0,0,1,12.11-6.887c5.07,0,12.942,3.027,12.942,15.591v21.873h-6.66v-21.115c0-5.9-2.2-10.823-8.477-10.823a9.462,9.462,0,0,0-8.931,6.811,9.591,9.591,0,0,0-.454,3.1v22.023h-6.66v-26.717Z" transform="translate(-96.188 -978.247)" fill="#0d57a3"/>
      <path id="Path_80455" data-name="Path 80455" d="M769.612,982.406v8.779h9.536v5.07h-9.536v19.753c0,4.541,1.287,7.114,5,7.114a12.425,12.425,0,0,0,3.86-.454l.3,5a16.046,16.046,0,0,1-5.9.984,9.269,9.269,0,0,1-7.19-2.877c-1.892-1.967-2.573-5.222-2.573-9.536v-19.98h-5.676v-5.07H763.1v-6.736Z" transform="translate(-116.032 -974.081)" fill="#0d57a3"/>
    </g>
  </g>
</svg>
