<svg xmlns="http://www.w3.org/2000/svg" width="869.266" height="869.272" viewBox="0 0 869.266 869.272">
  <g id="Group_26078" data-name="Group 26078" transform="translate(-2390.9 201.79)">
    <g id="Group_26065" data-name="Group 26065" transform="translate(2601.619 -100.522)">
      <path id="Path_80494" data-name="Path 80494" d="M2795.7,807.491l-22.83,39.019c-2.626,4.5-6.675,5.554-10.662,3.224s-5.039-6.379-2.413-10.868l22.837-39.026c2.626-4.489,6.675-5.554,10.655-3.217S2798.333,803,2795.7,807.491Z" transform="translate(-2716.473 -211.174)" fill="#004b8f"/>
      <path id="Path_80495" data-name="Path 80495" d="M2843.161-30.487l-6.077,2.337-8.964-23.3,6.077-2.337c4.53-1.746,8.2-.11,9.94,4.413l3.444,8.95C2849.32-35.9,2847.691-32.227,2843.161-30.487Z" transform="translate(-2738.279 54.476)" fill="#004b8f"/>
      <path id="Path_80496" data-name="Path 80496" d="M3034.485,874.362c.083,4.853-2.716,7.734-7.562,7.816l-6.51.1L3020,856.722l6.5-.1c4.854-.083,7.74,2.715,7.816,7.562Z" transform="translate(-2798.255 -230.302)" fill="#004b8f"/>
      <path id="Path_80497" data-name="Path 80497" d="M3136.3,886.264,3126.4,888.6l-3.018-34.922Z" transform="translate(-2830.568 -229.384)" fill="#004b8f"/>
      <path id="Path_80498" data-name="Path 80498" d="M2807.292,482.25c-9.363,0-15.722,6.366-15.722,15.722V510.7c0,8.139,4.489,13.378,12.071,13.378,4.867,0,8.139-2.248,9.638-4.675v14.972c0,3.554-2.248,5.891-5.8,5.891a5.552,5.552,0,0,1-5.9-5.891v-2.626h-9.542V533.9c0,9.363,6.173,15.722,15.536,15.722s15.625-6.359,15.625-15.722V497.972C2823.2,488.616,2816.833,482.25,2807.292,482.25Zm5.987,26.294c0,4.125-2.433,6.551-6.365,6.551-3.368,0-5.424-1.87-5.424-5.891V497.5c0-3.554,2.241-5.891,5.8-5.891,3.74,0,5.987,2.337,5.987,5.891Z" transform="translate(-2726.855 -113.287)" fill="#004b8f"/>
      <path id="Path_80499" data-name="Path 80499" d="M2799.6,356.393V293.4H2782.52V264.36h76.442v29.1h-17.186c-.145,1.835-.365,3.327-.365,4.819-.027,17.729.069,35.465-.1,53.194-.034,3.6,1,5.224,4.668,4.723a2.065,2.065,0,0,1,.46,0c4.1.254,9.762-.99,11.844,1.189,2.152,2.248.887,7.83.962,11.954.1,5.059.021,10.119.021,15.536h-76.71v-28.48H2799.6Z" transform="translate(-2724.026 -45.182)" fill="#004b8f"/>
      <path id="Path_80500" data-name="Path 80500" d="M2867.644,482.25c-9.548,0-15.914,6.366-15.914,15.818v35.747c0,9.452,6.365,15.811,15.914,15.811s15.907-6.359,15.907-15.811V498.068C2883.551,488.616,2877.186,482.25,2867.644,482.25Zm5.988,51.564c0,4.118-2.344,6.455-5.988,6.455s-5.994-2.337-5.994-6.455V498.068c0-4.118,2.344-6.455,5.994-6.455s5.988,2.337,5.988,6.455Z" transform="translate(-2745.659 -113.287)" fill="#004b8f"/>
      <path id="Path_80501" data-name="Path 80501" d="M2926.717,482.25c-9.542,0-15.907,6.366-15.907,15.818v35.747c0,9.452,6.365,15.811,15.907,15.811s15.907-6.359,15.907-15.811V498.068C2942.624,488.616,2936.266,482.25,2926.717,482.25Zm5.987,51.564c0,4.118-2.337,6.455-5.987,6.455s-5.988-2.337-5.988-6.455V498.068c0-4.118,2.337-6.455,5.988-6.455s5.987,2.337,5.987,6.455Z" transform="translate(-2764.125 -113.287)" fill="#004b8f"/>
      <path id="Path_80502" data-name="Path 80502" d="M2980.573,483.62h6.923v65.5h-9.92V497.747H2966.35v-6.922C2974.022,490.261,2978.607,487.174,2980.573,483.62Z" transform="translate(-2781.486 -113.715)" fill="#004b8f"/>
      <rect id="Rectangle_9044" data-name="Rectangle 9044" width="22.458" height="9.734" transform="translate(214.06 397.787)" fill="#004b8f"/>
      <path id="Path_80503" data-name="Path 80503" d="M2993.792,383.292c-19.51,6.771-38.517,4.544-56.934-4.331-1.615-.777-3.224-1.574-5.52-2.695-.206,3.1-.344,5.245-.516,7.782h-25.971V340.265c7.6,0,14.952-.048,22.3.069a3.651,3.651,0,0,1,2.454,1.54c9.343,13.714,22.96,17.756,38.62,17.062a28.236,28.236,0,0,0,8.146-1.389c1.781-.632,3.149-2.413,4.7-3.678-1.485-1.567-2.695-3.9-4.51-4.558-6.929-2.543-14.092-4.441-21.1-6.764-10.648-3.533-21.854-6.022-31.732-11.088-23.661-12.126-24.26-35.891-14.567-51.881,5.974-9.851,15.948-14.381,26.9-16.23,17.138-2.894,33.815-1.657,49.22,7.452a29.9,29.9,0,0,0,2.929,1.272c.268-2.44.495-4.468.742-6.682h24.954v40.93c-7.761,0-15.426.069-23.091-.089-.969-.021-2.11-1.1-2.846-1.959-10.662-12.518-24.837-15.962-40.373-15.185-2.489.124-6.242,2.6-6.929,4.764-1.148,3.637,2.846,5.066,5.713,5.926,13.412,4.042,26.906,7.768,40.332,11.762,14.457,4.3,25.366,12.889,30.02,27.594C3022.526,357.451,3012.366,376.837,2993.792,383.292Z" transform="translate(-2761.769 -44.431)" fill="#004b8f"/>
      <path id="Path_80504" data-name="Path 80504" d="M3072.3,522.069l-10.854,17.31h19.647v9.356H3049.65v-8.607l14.5-23.112c5.431-8.614,7.019-13.1,7.019-18.155,0-4.585-2.152-7.115-5.988-7.115s-5.988,2.53-5.988,7.115V502.7h-9.548V499.61c0-10.669,5.8-17.22,15.632-17.22s15.811,6.084,15.811,16.189C3081.094,505.694,3078.942,511.5,3072.3,522.069Z" transform="translate(-2807.523 -113.331)" fill="#004b8f"/>
      <path id="Path_80505" data-name="Path 80505" d="M3122.187,482.25c-9.541,0-15.907,6.366-15.907,15.818v35.747c0,9.452,6.366,15.811,15.907,15.811s15.907-6.359,15.907-15.811V498.068C3138.095,488.616,3131.736,482.25,3122.187,482.25Zm5.988,51.564c0,4.118-2.337,6.455-5.988,6.455s-5.987-2.337-5.987-6.455V498.068c0-4.118,2.337-6.455,5.987-6.455s5.988,2.337,5.988,6.455Z" transform="translate(-2825.224 -113.287)" fill="#004b8f"/>
      <path id="Path_80506" data-name="Path 80506" d="M3176.043,483.62h6.923v65.5h-9.919V497.747H3161.82v-6.922C3169.492,490.261,3174.077,487.174,3176.043,483.62Z" transform="translate(-2842.583 -113.715)" fill="#004b8f"/>
      <path id="Path_80507" data-name="Path 80507" d="M3237.448,517.682v16.464c0,9.92-5.9,15.907-15.632,15.907s-15.625-5.988-15.625-15.907V532.18l9.548-.935V533.4c0,5.245,2.241,7.3,5.892,7.3s5.9-2.055,5.9-6.366V519.174c0-3.836-2.062-5.706-5.238-5.706-3.561,0-6.18,2.433-6.18,6.455v1.127h-9.542V483.62h28.35v9.356H3216.11v16.278c1.4-2.523,4.963-4.771,9.452-4.771C3232.952,504.484,3237.448,509.722,3237.448,517.682Z" transform="translate(-2856.452 -113.715)" fill="#004b8f"/>
      <path id="Path_80508" data-name="Path 80508" d="M3079.677,170.331a223.931,223.931,0,1,0,65.574,158.33A222.45,222.45,0,0,0,3079.677,170.331Zm-158.33,374.61c-119.263,0-216.287-97.024-216.287-216.28s97.024-216.28,216.287-216.28,216.28,97.024,216.28,216.28S3040.6,544.941,2921.347,544.941Z" transform="translate(-2697.43 4.707)" fill="#004b8f"/>
    </g>
    <g id="Group_26067" data-name="Group 26067" transform="translate(2390.9 -201.79)">
      <g id="Group_26066" data-name="Group 26066">
        <path id="Path_80509" data-name="Path 80509" d="M3226.007,63.669a434.631,434.631,0,1,0-569.655,569.655,434.507,434.507,0,0,0,603.814-400.478A431.79,431.79,0,0,0,3226.007,63.669ZM2825.536,659.852c-235.452,0-427.012-191.553-427.012-427.006s191.56-427.006,427.012-427.006S3252.542-2.606,3252.542,232.846,3060.982,659.852,2825.536,659.852Z" transform="translate(-2390.9 201.79)" fill="#004b8f"/>
        <path id="Path_80510" data-name="Path 80510" d="M2835.838-168.82c-227.526,0-411.978,184.452-411.978,411.971s184.452,411.972,411.978,411.972S3247.8,470.678,3247.8,243.152,3063.365-168.82,2835.838-168.82Zm296.73,296.311,7.321-22.527,7.321,22.527H3170.9l-19.165,13.921,7.321,22.534-19.165-13.927-19.166,13.927,7.321-22.534-19.166-13.921ZM3073.188-39.2l-7.115,9.452-18.437-13.886L3033.75-25.2l14.656,11.04-7.122,9.452-14.656-11.04L3012.034,3.629l18.43,13.886-7.122,9.452L2994.89,5.534l49.853-66.165Zm-82.616-51.936,11.294,5.458-36.049,74.593-11.295-5.458ZM2914.33-116.96l33.9,8.861-3,11.446-21.75-5.685-6.139,23.476,17.179,4.489-3,11.446-17.172-4.489-8.827,33.78-12.14-3.169Zm-61.58-7.72,12.518.777-5.142,82.684L2847.607-42Zm220.343,367.831c0,131.032-106.215,237.26-237.254,237.26s-237.26-106.229-237.26-237.26S2704.8,5.891,2835.838,5.891,3073.092,112.12,3073.092,243.152ZM2807.262-124.46l1.547,11.734-13.618,1.787,9.246,70.407L2792-38.9l-9.246-70.407-13.611,1.787-1.54-11.734ZM2704.14-100.792c11.157-4.29,21.138.241,25.435,11.4l3.265,8.5c2.763,7.177,1.9,13.852-1.987,18.9l23.132,30.79-12.154,4.675-20.781-28.652-6.077,2.337,12.278,31.924-11.707,4.5-29.739-77.322Zm-61.835,29.965,6.73,9.741-18.993,13.116,13.116,18.987,15.1-10.428,6.723,9.741-15.089,10.421L2663.671.715,2682.658-12.4l6.73,9.741-29.312,20.245L2613-50.582ZM2561.25-4.269c7.844-8.7,19.131-9.2,27.745-1.437l7.2,6.5-8.235,9.136-7.211-6.5c-3.6-3.252-7.782-3.032-10.635.131s-2.64,7.342.969,10.593l34.1,30.749c3.6,3.252,7.782,3.032,10.635-.131s2.64-7.342-.969-10.593l-8.785-7.926,8.242-9.143,8.785,7.926c8.614,7.768,9.28,19.049,1.437,27.745s-19.131,9.2-27.745,1.437l-34.1-30.742C2554.067,15.714,2553.4,4.434,2561.25-4.269Zm-39.871,120.314,7.321-22.527,7.314,22.527H2559.7l-19.165,13.927,7.321,22.527L2528.7,138.572,2509.535,152.5l7.321-22.527-19.165-13.927h23.689Zm-36.413,156.6,7.321-22.534-19.165-13.921h23.689l7.321-22.527,7.321,22.527h23.682l-19.166,13.921,7.321,22.534-19.159-13.927Zm69.568,120.143-19.159-13.927-19.166,13.927,7.321-22.534-19.166-13.921h23.689l7.321-22.527,7.314,22.527h23.689l-19.166,13.921Zm72.139,78.381,6.744-6.984c3.368-3.492,3.293-7.672.234-10.635s-7.253-2.887-10.621.6l-31.9,33.024c-3.375,3.492-3.3,7.679-.234,10.635s7.246,2.887,10.621-.6l8.222-8.517,8.847,8.552-8.222,8.517c-8.056,8.339-19.351,8.62-27.779.474s-8.538-19.434-.481-27.779l31.9-33.024c8.063-8.345,19.358-8.62,27.779-.481s8.544,19.441.481,27.779l-6.744,6.977Zm75.308,41.274-22.836,39.019c-6.036,10.318-17.048,13.2-27.463,7.1s-13.3-17.1-7.266-27.422l22.837-39.019c6.035-10.318,17.041-13.2,27.463-7.1S2708.017,502.121,2701.982,512.44Zm69.1,90.095-12.133-3.169,14.367-54.96-25.7,52-8.476-2.22,3.039-57.923-14.374,54.96-11.906-3.114,20.953-80.148,17.179,4.489-2.846,53.936,23.456-48.547,17.406,4.551Zm70.29-29.051-7.1.117.543,33.6-12.545.206-1.341-82.836,19.64-.316c11.954-.193,19.771,7.493,19.963,19.441l.158,9.706C2860.889,565.351,2853.32,573.284,2841.372,573.484Zm87.531,21.771-6.861-17.227-13.13,3.1,1.567,18.478-12.216,2.887-5.678-83.784,16.361-3.863,32.4,77.474Zm81.316-32.433L2971.084,523.4l24.432,47.055-10.93,5.671L2946.419,502.6l12.292-6.379,39.809,42.009-25.628-49.371,10.924-5.664,38.166,73.528Zm62.089-42.882-22.988-25.964-44.511-24.926,10.016-8.861,28.212,17.227-13.5-30.254,9.83-8.7,19.351,47.206,22.98,25.964ZM3057.164,62.618l-12.49-15.165,63.945-52.664,12.49,15.165c7.6,9.225,6.462,20.128-2.763,27.731l-33.437,27.532C3075.684,72.819,3064.76,71.843,3057.164,62.618Zm94.261,327.307L3132.26,376l-19.165,13.927,7.321-22.534-19.166-13.921h23.689l7.321-22.527,7.321,22.527h23.689L3144.1,367.391ZM3167.539,263l-19.159,13.927,7.314-22.527-19.165-13.927h23.689l7.321-22.527,7.321,22.527h23.689L3179.383,254.4l7.321,22.527Z" transform="translate(-2401.202 191.485)" fill="#004b8f"/>
        <path id="Path_80511" data-name="Path 80511" d="M3400.606,110.062l-33.8,27.841c-3.74,3.08-7.741,2.695-10.827-1.052l-4.138-5.025,45.68-37.616,4.138,5.025C3404.738,102.982,3404.353,106.976,3400.606,110.062Z" transform="translate(-2691.258 109.27)" fill="#004b8f"/>
      </g>
    </g>
    <g id="Group_26068" data-name="Group 26068" transform="translate(2601.619 8.936)">
      <path id="Path_80512" data-name="Path 80512" d="M2807.292,482.25c-9.363,0-15.722,6.366-15.722,15.722V510.7c0,8.139,4.489,13.378,12.071,13.378,4.867,0,8.139-2.248,9.638-4.675v14.972c0,3.554-2.248,5.891-5.8,5.891a5.552,5.552,0,0,1-5.9-5.891v-2.626h-9.542V533.9c0,9.363,6.173,15.722,15.536,15.722s15.625-6.359,15.625-15.722V497.972C2823.2,488.616,2816.833,482.25,2807.292,482.25Zm5.987,26.294c0,4.125-2.433,6.551-6.365,6.551-3.368,0-5.424-1.87-5.424-5.891V497.5c0-3.554,2.241-5.891,5.8-5.891,3.74,0,5.987,2.337,5.987,5.891Z" transform="translate(-2726.855 -222.744)" fill="#fff"/>
      <path id="Path_80513" data-name="Path 80513" d="M2799.6,356.393V293.4H2782.52V264.36h76.442v29.1h-17.186c-.145,1.835-.365,3.327-.365,4.819-.027,17.729.069,35.465-.1,53.194-.034,3.6,1,5.224,4.668,4.723a2.065,2.065,0,0,1,.46,0c4.1.254,9.762-.99,11.844,1.189,2.152,2.248.887,7.83.962,11.954.1,5.059.021,10.119.021,15.536h-76.71v-28.48H2799.6Z" transform="translate(-2724.026 -154.639)" fill="#fff"/>
      <path id="Path_80514" data-name="Path 80514" d="M2867.644,482.25c-9.548,0-15.914,6.366-15.914,15.818v35.747c0,9.452,6.365,15.811,15.914,15.811s15.907-6.359,15.907-15.811V498.068C2883.551,488.616,2877.186,482.25,2867.644,482.25Zm5.988,51.564c0,4.118-2.344,6.455-5.988,6.455s-5.994-2.337-5.994-6.455V498.068c0-4.118,2.344-6.455,5.994-6.455s5.988,2.337,5.988,6.455Z" transform="translate(-2745.659 -222.744)" fill="#fff"/>
      <path id="Path_80515" data-name="Path 80515" d="M2926.717,482.25c-9.542,0-15.907,6.366-15.907,15.818v35.747c0,9.452,6.365,15.811,15.907,15.811s15.907-6.359,15.907-15.811V498.068C2942.624,488.616,2936.266,482.25,2926.717,482.25Zm5.987,51.564c0,4.118-2.337,6.455-5.987,6.455s-5.988-2.337-5.988-6.455V498.068c0-4.118,2.337-6.455,5.988-6.455s5.987,2.337,5.987,6.455Z" transform="translate(-2764.125 -222.744)" fill="#fff"/>
      <path id="Path_80516" data-name="Path 80516" d="M2980.573,483.62h6.923v65.5h-9.92V497.747H2966.35v-6.922C2974.022,490.261,2978.607,487.174,2980.573,483.62Z" transform="translate(-2781.486 -223.172)" fill="#fff"/>
      <rect id="Rectangle_9045" data-name="Rectangle 9045" width="22.458" height="9.734" transform="translate(214.06 288.33)" fill="#fff"/>
      <path id="Path_80517" data-name="Path 80517" d="M2993.792,383.292c-19.51,6.771-38.517,4.544-56.934-4.331-1.615-.777-3.224-1.574-5.52-2.695-.206,3.1-.344,5.245-.516,7.782h-25.971V340.265c7.6,0,14.952-.048,22.3.069a3.651,3.651,0,0,1,2.454,1.54c9.343,13.714,22.96,17.756,38.62,17.062a28.236,28.236,0,0,0,8.146-1.389c1.781-.632,3.149-2.413,4.7-3.678-1.485-1.567-2.695-3.9-4.51-4.558-6.929-2.543-14.092-4.441-21.1-6.764-10.648-3.533-21.854-6.022-31.732-11.088-23.661-12.126-24.26-35.891-14.567-51.881,5.974-9.851,15.948-14.381,26.9-16.23,17.138-2.894,33.815-1.657,49.22,7.452a29.9,29.9,0,0,0,2.929,1.272c.268-2.44.495-4.468.742-6.682h24.954v40.93c-7.761,0-15.426.069-23.091-.089-.969-.021-2.11-1.1-2.846-1.959-10.662-12.518-24.837-15.962-40.373-15.185-2.489.124-6.242,2.6-6.929,4.764-1.148,3.637,2.846,5.066,5.713,5.926,13.412,4.042,26.906,7.768,40.332,11.762,14.457,4.3,25.366,12.889,30.02,27.594C3022.526,357.451,3012.366,376.837,2993.792,383.292Z" transform="translate(-2761.769 -153.888)" fill="#fff"/>
      <path id="Path_80518" data-name="Path 80518" d="M3072.3,522.069l-10.854,17.31h19.647v9.356H3049.65v-8.607l14.5-23.112c5.431-8.614,7.019-13.1,7.019-18.155,0-4.585-2.152-7.115-5.988-7.115s-5.988,2.53-5.988,7.115V502.7h-9.548V499.61c0-10.669,5.8-17.22,15.632-17.22s15.811,6.084,15.811,16.189C3081.094,505.694,3078.942,511.5,3072.3,522.069Z" transform="translate(-2807.523 -222.788)" fill="#fff"/>
      <path id="Path_80519" data-name="Path 80519" d="M3122.187,482.25c-9.541,0-15.907,6.366-15.907,15.818v35.747c0,9.452,6.366,15.811,15.907,15.811s15.907-6.359,15.907-15.811V498.068C3138.095,488.616,3131.736,482.25,3122.187,482.25Zm5.988,51.564c0,4.118-2.337,6.455-5.988,6.455s-5.987-2.337-5.987-6.455V498.068c0-4.118,2.337-6.455,5.987-6.455s5.988,2.337,5.988,6.455Z" transform="translate(-2825.224 -222.744)" fill="#fff"/>
      <path id="Path_80520" data-name="Path 80520" d="M3176.043,483.62h6.923v65.5h-9.919V497.747H3161.82v-6.922C3169.492,490.261,3174.077,487.174,3176.043,483.62Z" transform="translate(-2842.583 -223.172)" fill="#fff"/>
      <path id="Path_80521" data-name="Path 80521" d="M3237.448,517.682v16.464c0,9.92-5.9,15.907-15.632,15.907s-15.625-5.988-15.625-15.907V532.18l9.548-.935V533.4c0,5.245,2.241,7.3,5.892,7.3s5.9-2.055,5.9-6.366V519.174c0-3.836-2.062-5.706-5.238-5.706-3.561,0-6.18,2.433-6.18,6.455v1.127h-9.542V483.62h28.35v9.356H3216.11v16.278c1.4-2.523,4.963-4.771,9.452-4.771C3232.952,504.484,3237.448,509.722,3237.448,517.682Z" transform="translate(-2856.452 -223.172)" fill="#fff"/>
      <path id="Path_80522" data-name="Path 80522" d="M3079.677,170.331a223.931,223.931,0,1,0,65.574,158.33A222.45,222.45,0,0,0,3079.677,170.331Zm-158.33,374.61c-119.263,0-216.287-97.024-216.287-216.28s97.024-216.28,216.287-216.28,216.28,97.024,216.28,216.28S3040.6,544.941,2921.347,544.941Z" transform="translate(-2697.43 -104.75)" fill="#fff"/>
    </g>
    <g id="Group_26070" data-name="Group 26070" transform="translate(2601.619 8.936)">
      <g id="Group_26069" data-name="Group 26069" transform="translate(0)">
        <path id="Path_80523" data-name="Path 80523" d="M3079.677,170.331a223.931,223.931,0,1,0,65.574,158.33A222.45,222.45,0,0,0,3079.677,170.331Zm-158.33,374.61c-119.263,0-216.287-97.024-216.287-216.28s97.024-216.28,216.287-216.28,216.28,97.024,216.28,216.28S3040.6,544.941,2921.347,544.941Z" transform="translate(-2697.43 -104.75)" fill="#004b8f"/>
      </g>
    </g>
    <g id="Group_26076" data-name="Group 26076" transform="translate(2660.112 116.772)">
      <g id="Group_26074" data-name="Group 26074">
        <g id="Group_26071" data-name="Group 26071" transform="translate(201.357)">
          <path id="Path_80524" data-name="Path 80524" d="M3203.224,306.86c-3.245-17.887-12.7-30.818-29.484-38.063-22.039-9.507-44.2-9.473-66.434-.474-14.608,5.912-23.984,16.767-28.268,31.546a85.867,85.867,0,0,0-.983,45.666c4.2,16.533,14.209,27.979,29.759,34.832a87.1,87.1,0,0,0,32.371,7.2c6.544-.873,13.157-1.4,19.619-2.681,23.744-4.709,38.551-18.623,43.4-42.7A92.687,92.687,0,0,0,3203.224,306.86Zm-43.81,37.616c-.646,8.5-9.425,13.261-19.771,12.6-12.477-.8-17.344-5.383-18.835-18.279-.612-5.341-.625-10.758-.928-16.464.522-5.685.839-11.686,1.677-17.619.859-6.043,4.427-10.188,10.456-11.535a41.587,41.587,0,0,1,11.81-1.327c9.239.674,14.9,4.95,15.612,14A252.369,252.369,0,0,1,3159.414,344.476Z" transform="translate(-3075.431 -261.619)" fill="#004b8f"/>
        </g>
        <g id="Group_26072" data-name="Group 26072" transform="translate(83.008 0.234)">
          <path id="Path_80525" data-name="Path 80525" d="M2993.792,383.292c-19.51,6.771-38.517,4.544-56.934-4.331-1.615-.777-3.224-1.574-5.52-2.695-.206,3.1-.344,5.245-.516,7.782h-25.971V340.265c7.6,0,14.952-.048,22.3.069a3.651,3.651,0,0,1,2.454,1.54c9.343,13.714,22.96,17.756,38.62,17.062a28.236,28.236,0,0,0,8.146-1.389c1.781-.632,3.149-2.413,4.7-3.678-1.485-1.567-2.695-3.9-4.51-4.558-6.929-2.543-14.092-4.441-21.1-6.764-10.648-3.533-21.854-6.022-31.732-11.088-23.661-12.126-24.26-35.891-14.567-51.881,5.974-9.851,15.948-14.381,26.9-16.23,17.138-2.894,33.815-1.657,49.22,7.452a29.9,29.9,0,0,0,2.929,1.272c.268-2.44.495-4.468.742-6.682h24.954v40.93c-7.761,0-15.426.069-23.091-.089-.969-.021-2.11-1.1-2.846-1.959-10.662-12.518-24.837-15.962-40.373-15.185-2.489.124-6.242,2.6-6.929,4.764-1.148,3.637,2.846,5.066,5.713,5.926,13.412,4.042,26.906,7.768,40.332,11.762,14.457,4.3,25.366,12.889,30.02,27.594C3022.526,357.451,3012.366,376.837,2993.792,383.292Z" transform="translate(-2903.27 -261.959)" fill="#004b8f"/>
        </g>
        <g id="Group_26073" data-name="Group 26073" transform="translate(0 1.885)">
          <path id="Path_80526" data-name="Path 80526" d="M2859.251,369.338c.1,5.059.021,10.119.021,15.536h-76.71v-28.48H2799.6V293.4H2782.52V264.36h76.442v29.1h-17.186c-.145,1.835-.365,3.327-.365,4.819-.028,17.729.069,35.465-.1,53.194-.034,3.6,1,5.224,4.668,4.723a2.065,2.065,0,0,1,.46,0c4.1.254,9.762-.99,11.844,1.189C2860.44,359.631,2859.176,365.213,2859.251,369.338Z" transform="translate(-2782.52 -264.36)" fill="#004b8f"/>
        </g>
      </g>
      <g id="Group_26075" data-name="Group 26075" transform="translate(6.221 151.669)">
        <path id="Path_80527" data-name="Path 80527" d="M2807.292,482.25c-9.363,0-15.722,6.366-15.722,15.722V510.7c0,8.139,4.489,13.378,12.071,13.378,4.867,0,8.139-2.248,9.638-4.675v14.972c0,3.554-2.248,5.891-5.8,5.891a5.552,5.552,0,0,1-5.9-5.891v-2.626h-9.542V533.9c0,9.363,6.173,15.722,15.536,15.722s15.625-6.359,15.625-15.722V497.972C2823.2,488.616,2816.833,482.25,2807.292,482.25Zm5.987,26.294c0,4.125-2.433,6.551-6.365,6.551-3.368,0-5.424-1.87-5.424-5.891V497.5c0-3.554,2.241-5.891,5.8-5.891,3.74,0,5.987,2.337,5.987,5.891Z" transform="translate(-2791.57 -482.25)" fill="#004b8f"/>
        <path id="Path_80528" data-name="Path 80528" d="M2867.644,482.25c-9.548,0-15.914,6.366-15.914,15.818v35.747c0,9.452,6.365,15.811,15.914,15.811s15.907-6.359,15.907-15.811V498.068C2883.551,488.616,2877.186,482.25,2867.644,482.25Zm5.988,51.564c0,4.118-2.344,6.455-5.988,6.455s-5.994-2.337-5.994-6.455V498.068c0-4.118,2.344-6.455,5.994-6.455s5.988,2.337,5.988,6.455Z" transform="translate(-2810.374 -482.25)" fill="#004b8f"/>
        <path id="Path_80529" data-name="Path 80529" d="M2926.717,482.25c-9.542,0-15.907,6.366-15.907,15.818v35.747c0,9.452,6.365,15.811,15.907,15.811s15.907-6.359,15.907-15.811V498.068C2942.624,488.616,2936.266,482.25,2926.717,482.25Zm5.987,51.564c0,4.118-2.337,6.455-5.987,6.455s-5.988-2.337-5.988-6.455V498.068c0-4.118,2.337-6.455,5.988-6.455s5.987,2.337,5.987,6.455Z" transform="translate(-2828.84 -482.25)" fill="#004b8f"/>
        <path id="Path_80530" data-name="Path 80530" d="M2980.573,483.62c-1.966,3.554-6.551,6.641-14.223,7.2v6.922h11.226v51.372h9.92v-65.5Z" transform="translate(-2846.201 -482.678)" fill="#004b8f"/>
        <path id="Path_80531" data-name="Path 80531" d="M3008.82,524.18v9.734h22.458V524.18Z" transform="translate(-2859.475 -495.356)" fill="#004b8f"/>
        <path id="Path_80532" data-name="Path 80532" d="M3072.3,522.069c6.64-10.573,8.792-16.375,8.792-23.49,0-10.105-5.988-16.189-15.811-16.189s-15.632,6.551-15.632,17.22V502.7h9.549v-3.836c0-4.585,2.151-7.115,5.987-7.115s5.988,2.53,5.988,7.115c0,5.053-1.588,9.542-7.019,18.155l-14.5,23.112v8.607h31.443v-9.356h-19.647Z" transform="translate(-2872.237 -482.294)" fill="#004b8f"/>
        <path id="Path_80533" data-name="Path 80533" d="M3122.187,482.25c-9.541,0-15.907,6.366-15.907,15.818v35.747c0,9.452,6.366,15.811,15.907,15.811s15.907-6.359,15.907-15.811V498.068C3138.095,488.616,3131.736,482.25,3122.187,482.25Zm5.988,51.564c0,4.118-2.337,6.455-5.988,6.455s-5.987-2.337-5.987-6.455V498.068c0-4.118,2.337-6.455,5.987-6.455s5.988,2.337,5.988,6.455Z" transform="translate(-2889.938 -482.25)" fill="#004b8f"/>
        <path id="Path_80534" data-name="Path 80534" d="M3176.043,483.62c-1.966,3.554-6.551,6.641-14.223,7.2v6.922h11.226v51.372h9.919v-65.5Z" transform="translate(-2907.298 -482.678)" fill="#004b8f"/>
        <path id="Path_80535" data-name="Path 80535" d="M3225.562,504.484c-4.489,0-8.05,2.248-9.452,4.771V492.976h18.808V483.62h-28.35v37.431h9.542v-1.127c0-4.021,2.619-6.455,6.18-6.455,3.176,0,5.239,1.87,5.239,5.706v15.158c0,4.31-2.248,6.366-5.9,6.366s-5.892-2.055-5.892-7.3v-2.152l-9.548.935v1.966c0,9.92,5.9,15.907,15.625,15.907s15.632-5.988,15.632-15.907V517.682C3237.448,509.722,3232.952,504.484,3225.562,504.484Z" transform="translate(-2921.167 -482.678)" fill="#004b8f"/>
      </g>
    </g>
  </g>
</svg>
