<svg id="Group_25920" data-name="Group 25920" xmlns="http://www.w3.org/2000/svg" width="51.2" height="48" viewBox="0 0 51.2 48">
  <path id="Path_79962" data-name="Path 79962" d="M122.5,126h-4.919l-1-3H98.419l-1,3H92.5a1.5,1.5,0,0,0,0,3h30a1.5,1.5,0,0,0,0-3Zm0-36a1.5,1.5,0,1,0,1.5,1.5A1.5,1.5,0,0,0,122.5,90Zm0,0" transform="translate(-81.9 -81)" fill="#fff"/>
  <path id="Path_79963" data-name="Path 79963" d="M46.6,0H4.5A4.505,4.505,0,0,0,0,4.5V30H9.1V25.5A1.5,1.5,0,0,1,10.6,24h2.318a13.348,13.348,0,0,1,.533-1.285l-1.64-1.641a1.5,1.5,0,0,1,0-2.121l4.242-4.242a1.5,1.5,0,0,1,2.121,0l1.641,1.641a13.42,13.42,0,0,1,1.285-.535V13.5A1.5,1.5,0,0,1,22.6,12h6a1.5,1.5,0,0,1,1.5,1.5v2.318a13.458,13.458,0,0,1,1.285.534l1.641-1.641a1.5,1.5,0,0,1,2.121,0l4.242,4.242a1.5,1.5,0,0,1,0,2.121l-1.639,1.641A13.39,13.39,0,0,1,38.282,24H40.6a1.5,1.5,0,0,1,1.5,1.5V30h9.1V4.5A4.592,4.592,0,0,0,46.6,0Zm-6,15a4.5,4.5,0,1,1,4.5-4.5A4.505,4.505,0,0,1,40.6,15Zm0,0" fill="#fff"/>
  <path id="Path_79964" data-name="Path 79964" d="M211,244.5a4.471,4.471,0,0,0,.291,1.5h8.418A4.486,4.486,0,1,0,211,244.5Zm0,0" transform="translate(-189.9 -216)" fill="#fff"/>
  <path id="Path_79965" data-name="Path 79965" d="M15.478,160.875A1.5,1.5,0,0,1,14.025,162H12.1v3h6.2A7.5,7.5,0,1,1,32.9,165h6.2v-3H37.175a1.5,1.5,0,0,1-1.453-1.125,10.31,10.31,0,0,0-1.111-2.673,1.5,1.5,0,0,1,.231-1.822l1.364-1.365-2.121-2.121-1.365,1.365a1.494,1.494,0,0,1-1.824.23,10.315,10.315,0,0,0-2.672-1.111,1.5,1.5,0,0,1-1.125-1.453V150h-3v1.925a1.5,1.5,0,0,1-1.125,1.453,10.311,10.311,0,0,0-2.672,1.111,1.5,1.5,0,0,1-1.824-.23l-1.365-1.365-2.121,2.121,1.364,1.365a1.5,1.5,0,0,1,.231,1.822,10.312,10.312,0,0,0-1.111,2.673ZM0,169.5A4.505,4.505,0,0,0,4.5,174H46.6a4.592,4.592,0,0,0,4.6-4.5V168H0Zm0,0" transform="translate(0 -135)" fill="#fff"/>
</svg>
