<svg xmlns="http://www.w3.org/2000/svg" width="70.1" height="70.1" viewBox="0 0 70.1 70.1">
  <g id="Group_10387" data-name="Group 10387" transform="translate(0.05 -0.01)">
    <path id="Path_64896" data-name="Path 64896" d="M958.23,408.42a35.05,35.05,0,1,1,35-35,35.05,35.05,0,0,1-35,35ZM961,387.09v-34.7h-7.42v11.33h-.45a15.12,15.12,0,0,0-8.52.78,10.58,10.58,0,0,0-6,5.61,14.53,14.53,0,0,0-.48,10.85,9.4,9.4,0,0,0,5.55,5.85,19.2,19.2,0,0,0,7.31,1.38,42.39,42.39,0,0,0,7.11-.55C959.06,387.46,960,387.26,961,387.09Zm4.14,11.18c.5-.26,1-.48,1.41-.73a11.33,11.33,0,0,0,5.4-6.35A25.249,25.249,0,0,0,973,383c.05-6.07,0-12.14,0-18.21a3.444,3.444,0,0,0-.05-.72h-7.44v15.12c0,2.14-.11,4.29-.28,6.43a10.69,10.69,0,0,1-1.82,5.52,10.93,10.93,0,0,1-4,3.27l-1.18.63Zm.44-38.27H973v-7.56h-7.4V360Z" transform="translate(-923.18 -338.31)" fill="#fff"/>
    <path id="Path_64897" data-name="Path 64897" d="M953.5,369.84v12.05c-2.13.29-4.18.44-6.09-.68a5,5,0,0,1-2.32-4,9.09,9.09,0,0,1,.26-3.95,5,5,0,0,1,3.84-3.66,7.59,7.59,0,0,1,4.31.24Z" transform="translate(-923.18 -338.31)" fill="#fff"/>
  </g>
</svg>
