<svg xmlns="http://www.w3.org/2000/svg" width="58.083" height="80.213" viewBox="0 0 58.083 80.213">
  <g id="Group_10391" data-name="Group 10391" transform="translate(0.001 0.01)">
    <path id="Path_64916" data-name="Path 64916" d="M526.2,1118s9.14-5,9.14-9.17c0-4.55-6.4-6.42-6.4-6.42s9.29.29,9.14,6.42S526.2,1118,526.2,1118Zm-39.29-9.17c-4.82-2.31,10.05-6.42,10.05-6.42-16.5,7.71,5.65,6.9,19.19,5.5a83.066,83.066,0,0,0,10.05-1.83c-6.61,7.25-34.47,5.06-39.29,2.75h0Zm25.58,16.51a44.306,44.306,0,0,0,8.22-1.83c-3.36,4.78-19.58,4.48-23.76,2.75a5.38,5.38,0,0,1-3.65-5.5c2.7,3.67,12.28,5.24,19.19,4.61Zm9.14-9.17s-19.8,4.86-26.5,1.83c-5.92-2.67-.91-5.5-.91-5.5-4.41,5.88,27.41,3.7,27.41,3.7Zm-16.45,16.51c20.71,0,29.24-3.67,29.24-3.67-2.91,7.71-49.48,8.54-53.91,2.75-3.13-4.09,9.14-5.5,9.14-5.5-8.81,4.42-5.18,6.42,15.53,6.42Zm32,0c-17.07,12-45.68,4.59-45.68,4.59,29.5,2.53,45.66-4.57,45.66-4.57Z" transform="translate(-480 -1059.33)" fill="#fff"/>
    <path id="Path_64917" data-name="Path 64917" d="M507.92,1101.52s-10.23-5.1-9.14-13.76c1.28-10.11,14.13-14,16.88-18.67,2.46-4.15,1.39-9.77,1.39-9.77s2.69,4.5,1.83,8.25c-1.23,5.36-6,8.45-11.77,12.12C502.84,1082.46,495.91,1085.54,507.92,1101.52Z" transform="translate(-480 -1059.33)" fill="#fff"/>
    <path id="Path_64918" data-name="Path 64918" d="M513.4,1104.27s1.91-4.6-2.74-10.09,1.62-15.43,14.62-18.34c0,0-15.6,6.85-12,15.07,1.34,3,3.4,5.69,2.36,8.84C514.22,1104.14,513.4,1104.27,513.4,1104.27Z" transform="translate(-480 -1059.33)" fill="#fff"/>
  </g>
</svg>
