<svg xmlns="http://www.w3.org/2000/svg" width="217.994" height="67.177" viewBox="0 0 217.994 67.177">
  <g id="jenkins" transform="translate(-10 -9.997)">
    <path id="Path_81812" data-name="Path 81812" d="M60.519,72.5c0,13.309-10.548,24.1-23.56,24.1S13.4,85.808,13.4,72.5s10.548-24.1,23.56-24.1,23.56,10.79,23.56,24.1" transform="translate(-2.667 -30.13)" fill="#fff"/>
    <path id="Path_81813" data-name="Path 81813" d="M13.279,84.025S11.573,58.893,34.73,58.176l-1.615-2.693L20.549,59.7l-3.59,4.129-3.142,6.014-1.8,7,.539,4.667" transform="translate(-1.586 -35.688)" fill="#fff"/>
    <path id="Path_81814" data-name="Path 81814" d="M18.155,53.721a23.76,23.76,0,0,0,0,33.058,22.459,22.459,0,0,0,32.273,0,23.76,23.76,0,0,0,0-33.058,22.46,22.46,0,0,0-32.273,0ZM17.109,87.8a25.221,25.221,0,0,1,0-35.1,23.921,23.921,0,0,1,34.365,0,25.22,25.22,0,0,1,0,35.1,23.919,23.919,0,0,1-34.365,0" transform="translate(0 -27.792)" fill="#dadada"/>
    <path id="Path_81815" data-name="Path 81815" d="M76.624,46.149l-3.59.539-4.847.539-3.141.09-3.052-.09-2.334-.718L57.6,44.264,55.98,39.687l-.359-.987-2.154-.718-1.256-2.064-.9-2.962.987-2.6,2.334-.808,1.885.9.9,1.974,1.077-.18.359-.448-.359-2.064-.09-2.6.539-3.59-.021-2.051,1.636-2.616L63.43,16.8l5.026-2.154,5.565.808,4.847,3.5,2.244,3.59,1.436,2.6.359,6.462-1.077,5.565-1.974,4.936-1.885,2.6" transform="translate(-32.414 -3.647)" fill="#fff"/>
    <path id="Path_81816" data-name="Path 81816" d="M62.456,171.846l-12.835.539v2.154l1.077,7.539-.539.628-8.975-3.052-.628-1.077-.9-10.142-2.064-6.1-.449-1.436,7.18-4.936,2.244-.9,1.975,2.423,1.705,1.526,1.974.628.9.269,1.077,4.667.808.987,2.064-.718-1.436,2.782,7.809,3.68-.987.539" transform="translate(-21.299 -113.816)" fill="#eee"/>
    <path id="Path_81817" data-name="Path 81817" d="M54.589,33.294l2.334-.808,1.885.9.9,1.974,1.077-.18.269-1.077-.539-2.064.539-4.937L60.6,24.408l1.616-1.885,3.5-2.782-.987-1.346-4.937,2.423L57.73,22.434l-1.167,2.513L54.769,27.37l-.539,2.872.359,3.051" transform="translate(-34.702 -6.589)" fill="#ebebeb"/>
    <path id="Path_81818" data-name="Path 81818" d="M58.268,25.956S59.614,22.635,65,21.02s.269-1.167.269-1.167L59.435,22.1l-2.244,2.243-.987,1.8,2.064-.18m-2.693,7.809s-1.885-6.283,5.3-7.18L60.6,25.507l-4.936,1.167-1.436,4.667.359,3.051.987-.628" transform="translate(-34.702 -7.688)" fill="#dcd9d8"/>
    <path id="Path_81819" data-name="Path 81819" d="M55.831,35.331l1.175-1.139a.757.757,0,0,1,.62.69c.09.629.359,6.283,4.219,9.335.352.279-2.872-.449-2.872-.449L56.1,39.28m16.246-5.655s.209-2.721.942-2.511a1.009,1.009,0,0,1,.733.942s-1.779,1.151-1.675,1.569M79.8,23.663s-1.48.312-1.616,1.616,1.616.269,1.885.179m-11.13-1.7s-1.974.269-1.974,1.526,2.244,1.167,2.872.628m-13.1,3.68s-3.411-2.064-3.77-.09-1.167,3.411.539,5.475l-1.167-.359L51.254,31.83l-.359-2.693,2.064-2.154,2.333.18,1.346,1.077.09,1.346m1.616-5.654s1.526-7.9,9.244-9.424c6.355-1.256,9.693.269,10.95,1.705,0,0-5.654-6.731-11.04-4.667S58.165,17.38,58.255,19.8a39.581,39.581,0,0,1,.09,4.129M79.168,17.11s-2.6-.09-2.693,2.244a1.782,1.782,0,0,0,.18.718S78.719,17.739,79.975,19" transform="translate(-32.086 -0.906)" fill="#fff"/>
    <path id="Path_81820" data-name="Path 81820" d="M110.425,45.858s-.448-3.582-3.5-1.5c-1.975,1.346-1.8,3.231-1.436,3.59s.262,1.082.535.586.183-2.112,1.171-2.56,2.606-.95,3.232-.116" transform="translate(-74.74 -26.449)" fill="#fff"/>
    <path id="Path_81821" data-name="Path 81821" d="M48.544,157.159l-8.437,3.77s3.5,13.912,1.705,18.22l-1.256-.448-.09-5.3-2.333-10.052-.987-2.783,8.8-5.924,2.6,2.513m.868,7.695,1.2,1.46V171.7H49.172s-.18-3.77-.18-4.218.18-2.064.18-2.064m.269,7.091-4.039.179,1.167.808,2.872.449" transform="translate(-21.298 -113.49)" fill="#eee"/>
    <path id="Path_81825" data-name="Path 81825" d="M98,251.077l-1.858-7.541-.924-5.564-.153-4.13,8.41-.448h5.232l-.475,9.425.808,7.27-.09,1.346-6.821.539-4.129-.9" transform="translate(-66.74 -175.275)" fill="#fff"/>
    <path id="Path_81826" data-name="Path 81826" d="M132.056,231.017s-.449,9.334.9,15.976a17.144,17.144,0,0,1-6.642,2.154l7.54-.269.9-.539-1.077-14.719-.269-3.142" transform="translate(-91.257 -172.987)" fill="#dcd9d8"/>
    <path id="Path_81827" data-name="Path 81827" d="M174.773,231.7l3.5-.987,6.642-.359.987-3.052-1.8-5.3-2.064-.269-2.872.9-2.756,1.345-1.463-.268-1.14.448" transform="translate(-128.526 -166.126)" fill="#fff"/>
    <path id="Path_81829" data-name="Path 81829" d="M146.894,196.394l-1.974-5.026-2.064-2.962s.449-1.257,1.077-1.257H146l1.974.718-.179,3.321-.9,5.206" transform="translate(-104.237 -138.992)" fill="#fff"/>
    <path id="Path_81831" data-name="Path 81831" d="M94.882,163.549l-2.486-.27-2.334-.718v.808l1.14,1.258,3.59,1.616" transform="translate(-62.816 -119.7)" fill="#fff"/>
    <path id="Path_81832" data-name="Path 81832" d="M92.833,168.4s2.782,1.167,3.68.9l.089,1.076-2.513-.537-1.526-1.077.269-.359" transform="translate(-64.779 -124.281)" fill="#dcd9d8"/>
    <path id="Path_81840" data-name="Path 81840" d="M74.317,48.4c-2.446-.57-3.662,1.024-4.4,2.676-.662-.16-.4-1.061-.231-1.52.438-1.2,2.2-2.807,3.644-2.59.62.093,1.46.661.99,1.433m11.919,2.786.116,0a25.315,25.315,0,0,0,1.728,3.379c-.467,1.088-3.537,2.051-3.49.1.664-.29,1.81-.059,2.4-.43a6.662,6.662,0,0,1-.753-3.05m-10.667.03a10.26,10.26,0,0,0,1.441,2.7c.336.327.989.726.665,1.636a2.073,2.073,0,0,1-.948.787c-1.166.344-3.882.071-2.962-1.382.964.045,2.26.626,2.98-.073-.553-.885-1.539-2.634-1.176-3.666M85.8,60.986c-1.755,1.128-3.712,2.353-6.588,2.069a1.95,1.95,0,0,1-.252-2.508c.311.534.115,1.517.981,1.665,1.632.279,3.531-1,4.7-1.445.727-1.227-.063-1.678-.719-2.468-1.342-1.618-3.143-3.624-3.078-6.046.543-.393.589.6.667.781a22.138,22.138,0,0,0,3.752,5.142c.316.346.836.677.894.906.167.665-.434,1.462-.364,1.9M62.661,59.8c-.55-.314-.681-1.7-1.327-1.736-.923-.056-.754,1.794-.751,2.876a3.38,3.38,0,0,1-.28-3.264c-.532-.261-.77.288-1.064.482.379-2.754,4.029-1.277,3.423,1.643m24.254,2.334c-.817,1.555-1.972,3.268-4.37,3.317a5.93,5.93,0,0,1,0-1.569c1.833-.176,2.964-1.108,4.367-1.748M75.431,63.142c1.529.8,4.339.89,6.417.83a7.284,7.284,0,0,1,.113,1.573c-2.671.133-5.83-.528-6.53-2.4m-.291,1.5C76.2,67.3,79.832,66.99,82.9,66.917a1.639,1.639,0,0,1-.791.9c-.982.4-3.691.7-5.054-.022a6.914,6.914,0,0,1-1.894-2.107c-.229-.294-1.368-1.045-.017-1.047" transform="translate(-38.632 -28.989)" fill="#bdbdbd"/>
    <path id="Path_81842" data-name="Path 81842" d="M199.389,232.529c-1.389.278-2.365,1.628-3.72,1.541a4.437,4.437,0,0,1,3.72-1.541M200,234.7a20.307,20.307,0,0,1-3.61.209c.543-.83,2.638-.544,3.61-.209m.392,1.874c-1.272.028-2.854,0-4.063-.1.715-.769,3.238-.285,4.063.1" transform="translate(-145.674 -174.596)" fill="#bdbdbd"/>
    <path id="Path_81843" data-name="Path 81843" d="M165.254,275.071c.182,1.6.816,3.217.737,4.967a5.208,5.208,0,0,1-2.051.444c-.067-1.488-.266-3.761-.206-5.18.464.031,1.147-.331,1.52-.232" transform="translate(-120.61 -207.961)" fill="#dcd9d8"/>
    <path id="Path_81846" data-name="Path 81846" d="M61.541,67.342c-.059,1.418.139,3.692.206,5.179a5.2,5.2,0,0,0,2.051-.444c.079-1.75-.554-3.369-.737-4.968C62.688,67.011,62,67.373,61.541,67.342ZM46.863,59.278a74.135,74.135,0,0,0,3.173,15.579,20.65,20.65,0,0,0,11.323.206c-.595-2.856-.335-6.333-.682-9.381-.262-2.291-.128-4.6-.488-6.933-3.925-.816-9.474-.191-13.326.53Zm14.254-.493c-.033,2.454.11,4.875.3,7.332.943-.141,1.582-.236,2.457-.428-.284-2.366-.249-5.028-.828-7.12a5.826,5.826,0,0,0-1.926.216Zm4.781-.4a5.88,5.88,0,0,0-1.4,0c.2,2,.688,4.209.86,6.308a5.846,5.846,0,0,0,1.585-.4C66.976,62.455,66.785,59.915,65.9,58.388ZM73.136,65a3.111,3.111,0,0,0,1.891-3.82,18.062,18.062,0,0,0-1.233-4.174c-.37-.56-1.375-1.294-2.177-.781-1.3.836-3.6,1.078-4.555,2.089a33.721,33.721,0,0,1,.822,5.784c1.63.1,3.635-.448,4.991.136a18.944,18.944,0,0,0-2.992.755,6.242,6.242,0,0,0,3.253.01ZM60.1,56.479a28.656,28.656,0,0,0-3.348-6.58c-1.424.955-2.992,1.853-3.392,3.588A34.31,34.31,0,0,0,60.1,56.479ZM62.53,49.31a29.779,29.779,0,0,1-.975,7.167,54.093,54.093,0,0,0,3.9-6.182,2.258,2.258,0,0,0-2.925-.985Zm-2.751-.978c-.558-.06-1.031.641-1.756.338-.166.184-.317.383-.486.562,1.6,1.93,2.329,4.668,3.566,6.937a30.443,30.443,0,0,0,.733-6.944C60.924,49.283,60.418,48.4,59.779,48.333ZM58.01,46a5.125,5.125,0,0,0,.227,1.635c2.173.679,1.793-2.983-.227-1.635Zm-2.41-.791a13.382,13.382,0,0,0-3.552-1.3c-1.5-.287-1.358,2.045-1.295,3.436a11.027,11.027,0,0,0,.872,3c.117.342.143.7.435.772a7.135,7.135,0,0,0,2.7-.825,30.956,30.956,0,0,0,2.694-2.045q.017-.436.034-.871a4.594,4.594,0,0,0-1.9-.48c.522-.263,1.289-.259,1.765-.571,0-.116.009-.232.013-.347A3.662,3.662,0,0,1,55.6,45.207Zm-8.943-1.625c-.777.789,2.179,1.864,3.121,1.922-.005-.5.284-.97.226-1.328-1.118-.2-2.588-.067-3.347-.594Zm9.573.37c0,.077-.1.049-.121.112a3.957,3.957,0,0,0,3.1.875c.614-.445,1.158-.966,1.8-1.383-1.471.131-3.323,1.045-4.779.4Zm8.787,2.665c-.042-.877-.272-2.679-.814-2.994-1.137-.664-3.158,1.34-4.015,1.646a2.493,2.493,0,0,1,.258.823,2.445,2.445,0,0,1,1.562.177,3.209,3.209,0,0,0-1.406.294,12.666,12.666,0,0,0-.052,1.334,17.043,17.043,0,0,0,4.1.565,3.06,3.06,0,0,0,.362-1.846ZM45.349,44.345c-.244-.174-1.895-2.322-2.121-2.233a35.535,35.535,0,0,0-8.276,5.142c2.38,5.106,3.341,11.362,3.51,17.392,2.726,1.275,5.12,3.113,8.82,3.305-.428-3.029-.819-5.731-1.062-8.582-.929-.392-2.263.018-3.133-.122-.007-1.048,1.329-.459,1.44-1.164.084-.533-.735-.573-.469-1.413.68.247,1.037.793,1.762,1,.663-1.45-.009-4.015.086-5.226.018-.227.114-1.26.623-1.079.451.16-.026,2.747.024,3.894.045,1.057-.128,2.079.3,2.742a102.046,102.046,0,0,1,11.075-.907,26.8,26.8,0,0,1-2.97-1.335c-.6-.339-2.495-1.043-2.668-1.614-.276-.909.726-1.394.9-2.173-1.8.984-2.156-.943-2.583-2.308a17.943,17.943,0,0,1-.7-2.874,31.1,31.1,0,0,1-4.554-2.442Zm18.089-1.973c2.489-1.207,2.937,4.51,1.962,6.352.151.549.669.76.881,1.253-1.389,2.488-2.931,4.811-4.348,7.269,1.054-.656,2.56-.117,3.8-.608.453-.179.781-1.217,1.125-2.048a44.565,44.565,0,0,0,2.377-7.345,9.3,9.3,0,0,0,.31-2.021c-.109-.792-1.183-1.379-1.729-1.868-1.007-.9-1.64-1.7-2.69-2.545-.425.628-1.339,1.05-1.687,1.561ZM39.657,20.3c-1.186,1.3-.938,3.75-.794,5.489,2.144-1.349,4.989.106,4.962,2.4,1.023-.027.382-1.278.2-2.084-.6-2.632,1.019-5.492.074-7.9A6.505,6.505,0,0,0,39.657,20.3Zm8.485-7.573c-2.684.761-6.125,2.712-7.228,5.123.854-.124,1.447-.555,2.29-.608a5.638,5.638,0,0,0,1.1.042c.729-.181,1.345-1.816,1.9-2.425s1.181-.848,1.623-1.39c.283-.137.7-.127.719-.553-.123-.131-.252-.232-.4-.19Zm13.975.716c-2.787-1.572-7.5-2.754-10.467-1.277-2.392,1.193-5.625,3.166-6.727,5.666,1.03,2.413-.305,4.624-.39,7.074-.045,1.3.614,2.441.664,3.86-.353.582-1.429.653-2.174.613-.251-1.255-.69-2.666-1.983-2.808a3,3,0,0,0-3.249,2.9c-.1,1.86,1.429,4.944,3.593,4.73.836-.083,1.042-.921,1.952-.912.494.985-.762,1.295-.891,2a5.678,5.678,0,0,0,.184,1.227,16.747,16.747,0,0,0,2.132,4.963c1.095,1.569,3.246,1.805,5.561,1.959.413-.891,1.936-.817,2.928-.584a9.811,9.811,0,0,1-3.211-2.623c-1.052-1.159-2.118-2.4-2.172-3.918,1.989,2.759,3.632,5.169,7.248,6.382,2.736.918,5.932-.42,8.034-1.9a9.231,9.231,0,0,0,2.013-2.478c2.32-3.338,3.4-8.1,3.165-12.718-.1-1.9-.094-3.8-.733-5.083-.668-1.34-2.926-2.538-4.248-1.326-.245-1.3,1.1-2.109,2.679-1.639-1.126-1.454-2.307-3.2-3.908-4.1ZM67.31,56.41c2.178-1.082,6.246-2.914,7.611,0a24.745,24.745,0,0,1,1.356,4c.368,1.566-.4,4.858-2.01,5.384a9.549,9.549,0,0,1-4.794.092,2.614,2.614,0,0,1-.583-.765,6.618,6.618,0,0,0-3.334.568c.092.9-.52,1.049-1.094,1.236-.425,1.686.851,3.888.545,5.425-.218,1.1-1.565,1.264-2.556,1.469a8.427,8.427,0,0,0,.111,1.631,2.471,2.471,0,0,1-2.2,1.426c-3.166.38-7.974.551-11.019-.544-.85-2.085-1.519-4.621-2.227-7-2.97.317-5.373-1.282-7.637-2.329-.784-.364-1.869-.564-2.162-1.188a10.684,10.684,0,0,1-.238-2.857A43.4,43.4,0,0,0,36,54.616c-.331-1.284-.909-2.417-1.312-3.654A26.412,26.412,0,0,1,33.5,47.256c-.251-1.694,1.344-1.789,2.364-2.523,1.577-1.135,2.815-1.763,4.523-2.788a10.312,10.312,0,0,0,2.2-1.426c.345-.7-.592-1.69-.843-2.24a6.739,6.739,0,0,1-.66-2.466,4.757,4.757,0,0,1-3.175-2.041,7.822,7.822,0,0,1-.9-6.775c.074-.176.441-.523.5-.794a9.211,9.211,0,0,0-.22-1.81c-.1-2.911.492-5.418,2.452-6.3.8-3.169,3.643-4.223,6.325-5.8a19.877,19.877,0,0,1,3.25-1.385c4.095-1.507,10.378-1.223,13.776,1.347a18.5,18.5,0,0,1,4.568,5.058c2.176,4.4,2.022,11.751.5,17.1a17.211,17.211,0,0,1-.916,2.638c-.289.6-1.187,1.808-1.078,2.34.112.55,2.048,2.019,2.462,2.419.747.721,2.167,1.678,2.282,2.587a9.153,9.153,0,0,1-.705,3.226c-.931,3.117-1.84,6-2.9,8.778" transform="translate(-18.417)" fill="#bdbdbd"/>
    <path id="Path_81848" data-name="Path 81848" d="M156.051,195.14a.493.493,0,1,1-.493-.493.493.493,0,0,1,.493.493m.494,2.289a.494.494,0,1,1-.494-.494.494.494,0,0,1,.494.494" transform="translate(-113.816 -144.875)" fill="#bdbdbd"/>
    <g id="Group_26657" data-name="Group 26657" transform="translate(72.711 28.556)">
      <path id="Path_81849" data-name="Path 81849" d="M322.878,100.074q-.757.095-1.287.19-.6.11-1.193.265a1.357,1.357,0,0,0-.994.739,3.172,3.172,0,0,0-.218,1.213V117.3a8.51,8.51,0,0,1-.824,3.752,8.181,8.181,0,0,1-2.262,2.861,10.433,10.433,0,0,1-3.256,1.715A12.5,12.5,0,0,1,309,126.2a8.974,8.974,0,0,1-5.708-1.7,5.622,5.622,0,0,1-2.168-4.676,4.311,4.311,0,0,1,.994-2.916,3.419,3.419,0,0,1,2.736-1.155,3.563,3.563,0,0,1,2.622.965,3.225,3.225,0,0,1,.975,2.385,3.477,3.477,0,0,1-.842,2.243,13.037,13.037,0,0,1-1.922,1.9v.246a1.41,1.41,0,0,0,.741.644,2.714,2.714,0,0,0,1.158.265,4.327,4.327,0,0,0,3.578-1.629,7.807,7.807,0,0,0,1.3-4.926V102.67a2.717,2.717,0,0,0-.209-1.137,1.835,1.835,0,0,0-1.008-.8,7.3,7.3,0,0,0-1.379-.417q-.808-.171-1.341-.246V98.6h14.351v1.477Zm22.454,20.864a11.52,11.52,0,0,1-1.6,2.036,9.714,9.714,0,0,1-2.13,1.638,11.685,11.685,0,0,1-2.565,1.088,10.917,10.917,0,0,1-2.982.369,13.275,13.275,0,0,1-4.837-.8,9.486,9.486,0,0,1-3.361-2.139,8.561,8.561,0,0,1-1.978-3.171,11.7,11.7,0,0,1-.653-3.966,9.954,9.954,0,0,1,2.726-6.853,9.657,9.657,0,0,1,3.247-2.177,11.1,11.1,0,0,1,4.383-.833,12.488,12.488,0,0,1,4.354.644,7.71,7.71,0,0,1,2.821,1.78,6.455,6.455,0,0,1,1.571,2.546,9.605,9.605,0,0,1,.492,3.077v1.231h-12.8a9.853,9.853,0,0,0,1.5,5.907,6.235,6.235,0,0,0,7.952,1.051,9.124,9.124,0,0,0,2.423-2.471l1.439,1.041Zm-7.232-7.194q0-1.136-.113-2.329a7.738,7.738,0,0,0-.4-1.95,3,3,0,0,0-.88-1.344,2.163,2.163,0,0,0-1.411-.454,2.624,2.624,0,0,0-2.329,1.477,10.042,10.042,0,0,0-.947,4.676Zm34.041,11.719H360.762v-1.382q.36-.037.871-.095a2.382,2.382,0,0,0,.776-.189,1.2,1.2,0,0,0,.568-.606,3.115,3.115,0,0,0,.17-1.174v-8.86a4.913,4.913,0,0,0-.712-2.906,2.433,2.433,0,0,0-2.1-.975,4.281,4.281,0,0,0-1.414.227,5.289,5.289,0,0,0-1.282.663,4.366,4.366,0,0,0-.883.776q-.289.343-.56.7v10.166a2.834,2.834,0,0,0,.189,1.107,1.319,1.319,0,0,0,.625.672,3.593,3.593,0,0,0,.757.3,5.882,5.882,0,0,0,.89.19v1.382H347.149v-1.382q.479-.038.956-.1a4.616,4.616,0,0,0,.824-.18,1.391,1.391,0,0,0,.833-.644,2.458,2.458,0,0,0,.227-1.136V111a2.43,2.43,0,0,0-.3-1.155,2.708,2.708,0,0,0-.795-.928,3.138,3.138,0,0,0-.862-.379,6.085,6.085,0,0,0-1.145-.208v-1.382l9.031-.492.284.284v2.745h.076q.641-.571,1.287-1.136a12.418,12.418,0,0,1,1.4-1.079,6.8,6.8,0,0,1,1.836-.776,8.852,8.852,0,0,1,2.423-.322,5.847,5.847,0,0,1,4.629,1.751,6.776,6.776,0,0,1,1.543,4.648v9.277a2.515,2.515,0,0,0,.208,1.117,1.471,1.471,0,0,0,.776.663,6.417,6.417,0,0,0,.748.265,5.454,5.454,0,0,0,1.013.19v1.382Zm26.051,0h-8.924q-1.646-2.889-3.007-4.9-1.27-1.876-2.573-3.73l-1.115.943V121.9a2.7,2.7,0,0,0,.2,1.117,1.263,1.263,0,0,0,.767.644,4.823,4.823,0,0,0,.8.265,5.678,5.678,0,0,0,.909.151v1.382H373.484V124.08q.478-.038.953-.1a5.232,5.232,0,0,0,.839-.18,1.36,1.36,0,0,0,.829-.644,2.529,2.529,0,0,0,.219-1.136v-21.11a3.424,3.424,0,0,0-.275-1.3,2.111,2.111,0,0,0-.8-1.013,3.4,3.4,0,0,0-1.079-.379,9.327,9.327,0,0,0-1.306-.189V96.647l9.428-.492.284.3V116q1.4-1.25,3.148-2.9t2.808-2.726a2.482,2.482,0,0,0,.691-.975,3.2,3.2,0,0,0,.066-.407q0-.341-.6-.568a8.94,8.94,0,0,0-1.8-.4v-1.344h9.618v1.306a19.878,19.878,0,0,0-2.883.994,17.148,17.148,0,0,0-2.164,1.24q-.77.508-1.5,1.071t-1.671,1.4q1.852,2.688,3.421,4.977T395,122.509a2.866,2.866,0,0,0,1.456,1.192,7.138,7.138,0,0,0,1.74.379v1.382Zm12.174,0H398.4v-1.382q.492-.037.966-.095a3.346,3.346,0,0,0,.814-.189,1.566,1.566,0,0,0,.852-.653,2.245,2.245,0,0,0,.246-1.127V111a2.211,2.211,0,0,0-.3-1.164,2.517,2.517,0,0,0-.757-.8,4.03,4.03,0,0,0-1.032-.435,6.7,6.7,0,0,0-1.259-.265v-1.382l9.277-.492.284.284v15.032a2.121,2.121,0,0,0,.284,1.127,1.721,1.721,0,0,0,.814.691,6.3,6.3,0,0,0,.833.3,5.692,5.692,0,0,0,.947.19v1.382ZM407.6,99.639a3.2,3.2,0,0,1-1.107,2.452,3.925,3.925,0,0,1-5.263,0,3.278,3.278,0,0,1,0-4.913,3.91,3.91,0,0,1,5.273,0,3.245,3.245,0,0,1,1.1,2.461Zm29.5,25.823H425.719v-1.382q.36-.037.871-.095a2.386,2.386,0,0,0,.776-.189,1.2,1.2,0,0,0,.568-.606,3.118,3.118,0,0,0,.17-1.174v-8.86a4.911,4.911,0,0,0-.712-2.906,2.432,2.432,0,0,0-2.1-.975,4.283,4.283,0,0,0-1.414.227,5.289,5.289,0,0,0-1.282.663,4.357,4.357,0,0,0-.883.776q-.289.343-.56.7v10.166a2.833,2.833,0,0,0,.189,1.107,1.319,1.319,0,0,0,.625.672,3.6,3.6,0,0,0,.757.3,5.89,5.89,0,0,0,.89.19v1.382H412.106v-1.382q.48-.038.956-.1a4.621,4.621,0,0,0,.824-.18,1.39,1.39,0,0,0,.833-.644,2.456,2.456,0,0,0,.227-1.136V111a2.432,2.432,0,0,0-.3-1.155,2.711,2.711,0,0,0-.8-.928,3.136,3.136,0,0,0-.861-.379,6.092,6.092,0,0,0-1.145-.208v-1.382l9.031-.492.284.284v2.745h.076q.641-.571,1.288-1.136a12.4,12.4,0,0,1,1.4-1.079,6.8,6.8,0,0,1,1.836-.776,8.852,8.852,0,0,1,2.423-.322,5.847,5.847,0,0,1,4.629,1.751,6.776,6.776,0,0,1,1.543,4.648v9.277a2.512,2.512,0,0,0,.208,1.117,1.47,1.47,0,0,0,.776.663,6.429,6.429,0,0,0,.747.265,5.457,5.457,0,0,0,1.013.19v1.382Zm10.526.644a12.114,12.114,0,0,1-3.588-.54,11.739,11.739,0,0,1-2.717-1.145l-.568,1.287h-1.477l-.246-7.062h1.382a9.389,9.389,0,0,0,.947,1.922,10.619,10.619,0,0,0,1.515,1.922,8.578,8.578,0,0,0,2.035,1.439,5.3,5.3,0,0,0,2.452.587,4.073,4.073,0,0,0,2.565-.672,2.492,2.492,0,0,0,.843-2.073,1.991,1.991,0,0,0-.379-1.25,3.234,3.234,0,0,0-1.041-.852,9.642,9.642,0,0,0-1.619-.644q-.88-.264-2.168-.644a20.788,20.788,0,0,1-2.206-.767,7.532,7.532,0,0,1-1.9-1.221,5.344,5.344,0,0,1-1.874-4.26,5.113,5.113,0,0,1,2.244-4.316,9.7,9.7,0,0,1,5.879-1.647,13.482,13.482,0,0,1,3.171.35,15.973,15.973,0,0,1,2.433.767l.4-1.117h1.439l.3,6.456h-1.325a7.831,7.831,0,0,0-2.272-3.4,5.131,5.131,0,0,0-3.465-1.43,3.828,3.828,0,0,0-2.291.606,1.966,1.966,0,0,0-.833,1.685,2.184,2.184,0,0,0,1.219,2.083,16.271,16.271,0,0,0,3.411,1.212,11.127,11.127,0,0,1,4.952,2.376,5.083,5.083,0,0,1,1.569,3.834,5.53,5.53,0,0,1-2.433,4.809,10.847,10.847,0,0,1-6.352,1.7Z" transform="translate(-301.125 -96.155)" fill="#fff"/>
    </g>
  </g>
</svg>
