<svg xmlns="http://www.w3.org/2000/svg" width="71.841" height="51.146" viewBox="0 0 71.841 51.146">
  <g id="Group_10386" data-name="Group 10386" transform="translate(0 0.047)">
    <path id="Path_64894" data-name="Path 64894" d="M733.89,387.18l8.36-4.86c.57.77,1.05,1.49,1.6,2.16,2.9,3.55,6.67,4.63,11,3.72,3-.61,4.48-2.63,4.24-5.36a4.63,4.63,0,0,0-2.76-3.75c-2.24-1.16-4.59-2.09-6.83-3.24a49.917,49.917,0,0,1-7.06-4A14.15,14.15,0,0,1,738,354.93c2.25-5.17,6.54-7.54,11.91-8.08a17.31,17.31,0,0,1,11,2.07,16,16,0,0,1,5.61,6.1l-8,5.14c-.45-.63-.85-1.2-1.27-1.76a6.34,6.34,0,0,0-6.85-2.4,3.83,3.83,0,0,0-3.07,3,4.11,4.11,0,0,0,1.25,4.43,22.28,22.28,0,0,0,4,2.37c2.9,1.43,5.92,2.64,8.77,4.17,3.54,1.9,6.45,4.53,7.59,8.57,2.33,8.28-.93,16.82-11.78,18.77-6,1.08-11.88.35-17.13-3.14a17.68,17.68,0,0,1-6.14-6.99Z" transform="translate(-697.81 -346.72)" fill="#fff"/>
    <path id="Path_64895" data-name="Path 64895" d="M697.81,388.28l8.34-5.06c.62.93,1.2,1.83,1.82,2.71a5.83,5.83,0,0,0,5.59,2.51c2.86-.23,4.35-1.89,4.55-5V348.82c0-1.48,0-1.48,1.48-1.48h7.69c.89,0,1.27.2,1.27,1.18q0,16.965-.05,33.94a22.188,22.188,0,0,1-.7,5.36c-1.48,5.74-6,9.34-12.12,9.84a19.36,19.36,0,0,1-11-1.82,15.62,15.62,0,0,1-6.87-7.56Z" transform="translate(-697.81 -346.72)" fill="#fff"/>
  </g>
</svg>
