<svg xmlns="http://www.w3.org/2000/svg" width="701.441" height="556.754" viewBox="0 0 701.441 556.754">
  <g id="Group_17302" data-name="Group 17302" transform="translate(-88.89 -87.82)">
    <g id="Group_17298" data-name="Group 17298" transform="translate(142.262 171.232)">
      <g id="Group_17285" data-name="Group 17285" transform="translate(57.977)" opacity="0.5">
        <path id="Path_71452" data-name="Path 71452" d="M505.06,540.5s63.408-24.072,92.764-98.636S521.5,315.051,522.673,303.9s75.151-17.026,31.117-52.841-198.445-39.924-254.809,36.988,2.349,102.158,8.22,115.662-52.253,18.788-11.742,88.068S458.677,559.292,505.06,540.5Z" transform="translate(-274.722 -226.358)" fill="#fff"/>
        <path id="Path_71453" data-name="Path 71453" d="M505.06,540.5s63.408-24.072,92.764-98.636S521.5,315.051,522.673,303.9s75.151-17.026,31.117-52.841-198.445-39.924-254.809,36.988,2.349,102.158,8.22,115.662-52.253,18.788-11.742,88.068S458.677,559.292,505.06,540.5Z" transform="translate(-274.722 -226.358)" fill="#e5f1fb"/>
      </g>
      <path id="Path_71454" data-name="Path 71454" d="M637.41,352.6s8.038-17.684,21.7-23.311,29.339,15.674,30.947,19.292,8.842-10.45,16.076-6.431,9.646,9.244,10.047,10.449,8.44-5.626,11.254-4.019a20.77,20.77,0,0,1,5.224,4.822l10.851,4.823H625.353S630.577,347.779,637.41,352.6Z" transform="translate(-357.278 -267.237)" fill="none" stroke="#000" stroke-miterlimit="10" stroke-width="1" opacity="0.3"/>
      <g id="Group_17286" data-name="Group 17286" transform="translate(0 313.686)">
        <ellipse id="Ellipse_706" data-name="Ellipse 706" cx="6.889" cy="4.975" rx="6.889" ry="4.975" transform="translate(256.807 28.148)" fill="none" stroke="#1a2e35" stroke-miterlimit="10" stroke-width="1"/>
        <ellipse id="Ellipse_707" data-name="Ellipse 707" cx="6.888" cy="2.488" rx="6.888" ry="2.488" transform="translate(0 3.001)" fill="none" stroke="#1a2e35" stroke-miterlimit="10" stroke-width="1"/>
        <path id="Path_71455" data-name="Path 71455" d="M340.584,757.364c0,1.374,1.542,2.487,3.444,2.487s3.444-1.113,3.444-2.487-1.542-2.488-3.444-2.488S340.584,755.99,340.584,757.364Z" transform="translate(-243.142 -751.875)" fill="none" stroke="#1a2e35" stroke-miterlimit="10" stroke-width="1"/>
        <path id="Path_71456" data-name="Path 71456" d="M574.01,752.356c0,1.374,1.542,2.487,3.444,2.487s3.444-1.113,3.444-2.487-1.542-2.488-3.444-2.488S574.01,750.982,574.01,752.356Z" transform="translate(-336.7 -749.868)" fill="none" stroke="#1a2e35" stroke-miterlimit="10" stroke-width="1"/>
        <path id="Path_71457" data-name="Path 71457" d="M636.551,756.316c0,1.268,1.884,2.3,4.209,2.3s4.21-1.028,4.21-2.3-1.885-2.3-4.21-2.3S636.551,755.048,636.551,756.316Z" transform="translate(-361.767 -751.532)" fill="none" stroke="#1a2e35" stroke-miterlimit="10" stroke-width="1"/>
        <path id="Path_71458" data-name="Path 71458" d="M471.914,770.533c0,3.8,6.511,6.889,14.543,6.889S501,774.338,501,770.533s-6.511-6.888-14.542-6.888S471.914,766.729,471.914,770.533Z" transform="translate(-295.78 -755.39)" fill="none" stroke="#1a2e35" stroke-miterlimit="10" stroke-width="1"/>
      </g>
      <g id="Group_17289" data-name="Group 17289" transform="translate(75.797 182.76)" opacity="0.3">
        <g id="Group_17287" data-name="Group 17287">
          <path id="Path_71459" data-name="Path 71459" d="M306.368,596.621a41.37,41.37,0,0,0,6.167,8.763c.158.173.316.35.482.528,1.4,1.526,2.943,3.085,4.58,4.661,1.233,1.186,2.515,2.381,3.833,3.571q1,.9,2.018,1.8c10.031,8.856,21.305,17.373,25.462,21.736,5.816,6.109,6.109,7.854,6.109,7.854s-27.06-13.092-25.9-7.272c.1.474.2.936.323,1.391a27.907,27.907,0,0,0,.994,3.081,31.745,31.745,0,0,0,3.047,6s-2.669-.952-5.709-1.887c-1.641-.508-3.394-1.009-4.884-1.356-.42-.1-.824-.185-1.194-.25-2.057-.385-3.243-.285-2.18.875l3.2,3.493s-6.109.871-9.017.871c-.116,0-.231.008-.354.011h87.666l-4.68-2.338s10.766-13.385,5.531-13.092c-5.158.285-12.288,11-12.511,11.34.1-.974,8.355-75.417-3.786-84.665-4.418-3.367-.582,54.12-.582,54.12s-23.566-93.4-29.968-83.8c-4.876,7.315,8.14,54.794,14.622,77.016C363.184,588.96,348.2,548.98,330,544.863c-24.445-5.528,24.729,57.614,29.386,71s4.657,21.243,4.657,21.243-10.766-34.043-38.408-46.847c-9.738-4.511-15.577-5.447-18.582-4.245a3.967,3.967,0,0,0-2.573,3.69A14.25,14.25,0,0,0,306.368,596.621Z" transform="translate(-304.461 -531.367)" fill="none" stroke="#000" stroke-miterlimit="10" stroke-width="1"/>
          <path id="Path_71460" data-name="Path 71460" d="M444.45,636.886a164.417,164.417,0,0,0-2.2-33.95" transform="translate(-359.688 -560.052)" fill="none" stroke="#000" stroke-miterlimit="10" stroke-width="1"/>
          <path id="Path_71461" data-name="Path 71461" d="M439.224,697.9a242.469,242.469,0,0,0,3.921-34.056" transform="translate(-358.475 -584.465)" fill="none" stroke="#000" stroke-miterlimit="10" stroke-width="1"/>
          <path id="Path_71462" data-name="Path 71462" d="M424.209,664.843c1.532,8.547,2.8,17.3,3.536,25.755" transform="translate(-352.457 -584.864)" fill="none" stroke="#000" stroke-miterlimit="10" stroke-width="1"/>
          <path id="Path_71463" data-name="Path 71463" d="M399.033,563.6a521.419,521.419,0,0,1,14.5,57.489" transform="translate(-342.366 -544.287)" fill="none" stroke="#000" stroke-miterlimit="10" stroke-width="1"/>
          <path id="Path_71464" data-name="Path 71464" d="M412.7,691.11a102.385,102.385,0,0,1,3.451,16.417" transform="translate(-347.843 -595.392)" fill="none" stroke="#000" stroke-miterlimit="10" stroke-width="1"/>
          <path id="Path_71465" data-name="Path 71465" d="M365.858,591.626c7.75,12.581,20.7,35.447,27.5,57.718" transform="translate(-329.069 -555.519)" fill="none" stroke="#000" stroke-miterlimit="10" stroke-width="1"/>
          <path id="Path_71466" data-name="Path 71466" d="M355.329,575.257s1.747,2.538,4.5,6.9" transform="translate(-324.849 -548.958)" fill="none" stroke="#000" stroke-miterlimit="10" stroke-width="1"/>
          <path id="Path_71467" data-name="Path 71467" d="M320.854,637.416q1.549.9,3.039,1.849" transform="translate(-311.032 -573.872)" fill="none" stroke="#000" stroke-miterlimit="10" stroke-width="1"/>
          <path id="Path_71468" data-name="Path 71468" d="M330.632,643.562q1.271.855,2.5,1.734" transform="translate(-314.951 -576.335)" fill="none" stroke="#000" stroke-miterlimit="10" stroke-width="1"/>
          <path id="Path_71469" data-name="Path 71469" d="M364.936,676.357a128.852,128.852,0,0,0-26.495-27.234" transform="translate(-318.08 -578.564)" fill="none" stroke="#000" stroke-miterlimit="10" stroke-width="1"/>
          <path id="Path_71470" data-name="Path 71470" d="M394.084,713.152a110.593,110.593,0,0,0-9.578-15.994" transform="translate(-336.543 -597.816)" fill="none" stroke="#000" stroke-miterlimit="10" stroke-width="1"/>
        </g>
        <g id="Group_17288" data-name="Group 17288" transform="translate(209.676)">
          <path id="Path_71471" data-name="Path 71471" d="M751.322,596.621a41.347,41.347,0,0,1-6.167,8.763c-.158.173-.316.35-.481.528-1.4,1.526-2.943,3.085-4.58,4.661-1.233,1.186-2.515,2.381-3.833,3.571q-1,.9-2.019,1.8c-10.03,8.856-21.305,17.373-25.461,21.736-5.816,6.109-6.109,7.854-6.109,7.854s27.06-13.092,25.9-7.272c-.1.474-.2.936-.324,1.391a27.785,27.785,0,0,1-.993,3.081,31.748,31.748,0,0,1-3.047,6s2.669-.952,5.708-1.887c1.641-.508,3.393-1.009,4.884-1.356.42-.1.825-.185,1.194-.25,2.057-.385,3.243-.285,2.18.875l-3.2,3.493s6.109.871,9.018.871c.115,0,.231.008.354.011H656.676l4.68-2.338s-10.766-13.385-5.531-13.092c5.158.285,12.288,11,12.511,11.34-.1-.974-8.355-75.417,3.786-84.665,4.418-3.367.581,54.12.581,54.12s23.566-93.4,29.968-83.8c4.877,7.315-8.139,54.794-14.622,77.016,6.456-20.115,21.436-60.095,39.644-64.212,24.444-5.528-24.729,57.614-29.386,71s-4.657,21.243-4.657,21.243,10.766-34.043,38.407-46.847c9.738-4.511,15.577-5.447,18.582-4.245a3.967,3.967,0,0,1,2.573,3.69A14.251,14.251,0,0,1,751.322,596.621Z" transform="translate(-654.389 -531.367)" fill="none" stroke="#000" stroke-miterlimit="10" stroke-width="1"/>
          <path id="Path_71472" data-name="Path 71472" d="M677.819,636.886a164.413,164.413,0,0,1,2.2-33.95" transform="translate(-663.741 -560.052)" fill="none" stroke="#000" stroke-miterlimit="10" stroke-width="1"/>
          <path id="Path_71473" data-name="Path 71473" d="M681.958,697.9a242.485,242.485,0,0,1-3.921-34.056" transform="translate(-663.867 -584.465)" fill="none" stroke="#000" stroke-miterlimit="10" stroke-width="1"/>
          <path id="Path_71474" data-name="Path 71474" d="M697.229,664.843c-1.532,8.547-2.8,17.3-3.536,25.755" transform="translate(-670.142 -584.864)" fill="none" stroke="#000" stroke-miterlimit="10" stroke-width="1"/>
          <path id="Path_71475" data-name="Path 71475" d="M715.07,563.6a521.494,521.494,0,0,0-14.5,57.489" transform="translate(-672.897 -544.287)" fill="none" stroke="#000" stroke-miterlimit="10" stroke-width="1"/>
          <path id="Path_71476" data-name="Path 71476" d="M708.8,691.11a102.382,102.382,0,0,0-3.451,16.417" transform="translate(-674.813 -595.392)" fill="none" stroke="#000" stroke-miterlimit="10" stroke-width="1"/>
          <path id="Path_71477" data-name="Path 71477" d="M739.549,591.626c-7.749,12.581-20.7,35.447-27.5,57.718" transform="translate(-677.498 -555.519)" fill="none" stroke="#000" stroke-miterlimit="10" stroke-width="1"/>
          <path id="Path_71478" data-name="Path 71478" d="M765.468,575.257s-1.747,2.538-4.5,6.9" transform="translate(-697.108 -548.958)" fill="none" stroke="#000" stroke-miterlimit="10" stroke-width="1"/>
          <path id="Path_71479" data-name="Path 71479" d="M800.917,637.416q-1.549.9-3.039,1.849" transform="translate(-711.9 -573.872)" fill="none" stroke="#000" stroke-miterlimit="10" stroke-width="1"/>
          <path id="Path_71480" data-name="Path 71480" d="M791.5,643.562q-1.271.855-2.5,1.734" transform="translate(-708.341 -576.335)" fill="none" stroke="#000" stroke-miterlimit="10" stroke-width="1"/>
          <path id="Path_71481" data-name="Path 71481" d="M741.145,676.357a128.858,128.858,0,0,1,26.5-27.234" transform="translate(-689.161 -578.564)" fill="none" stroke="#000" stroke-miterlimit="10" stroke-width="1"/>
          <path id="Path_71482" data-name="Path 71482" d="M723.314,713.152a110.592,110.592,0,0,1,9.578-15.994" transform="translate(-682.014 -597.816)" fill="none" stroke="#000" stroke-miterlimit="10" stroke-width="1"/>
        </g>
      </g>
      <path id="Path_71483" data-name="Path 71483" d="M687.363,775.7l-11.485,4.122h54.664l-6.558-1.5h7.462l-5.776-1.5,3.373-2.623-6.371,2.061L720.8,770.64l-1.312,5.434a54.9,54.9,0,0,0-3.373-7.87,54.233,54.233,0,0,0-5.246-6.371l3.185,8.432-5.247-2.623,1.857,3.714-2.787.9-1.777-.625-3.288-1.555,3.07,2.825-4.089,1.323-2.945-8.835-2.061,8.54s-2.945-8.54-5.3-12.368-8.246-10.013-8.246-10.013l5.006,13.252L680,760.68l4.711,9.423-8.967-3.151-5.168-2.444,7.362,6.773-8.835-.294,2.65,2.65-4.711.883Z" transform="translate(-373.988 -436.857)" fill="#75e6a4" stroke="#1a2e35" stroke-linecap="round" stroke-linejoin="round" stroke-width="1"/>
      <g id="Group_17293" data-name="Group 17293" transform="translate(108.773 28.366)">
        <g id="Group_17292" data-name="Group 17292">
          <path id="Path_71484" data-name="Path 71484" d="M414.3,366.471s-46.966,41.384-48.68,41.5-6.323-5.654-6.116-7.593,51.344-39.044,51.344-39.044Z" transform="translate(-359.495 -308.822)" fill="#9e9e9e" stroke="#1a2e35" stroke-linecap="round" stroke-linejoin="round" stroke-width="1"/>
          <g id="Group_17291" data-name="Group 17291" transform="translate(50.232)">
            <g id="Group_17290" data-name="Group 17290" transform="translate(10.264 12.378)">
              <path id="Path_71485" data-name="Path 71485" d="M461.809,338.6a6.963,6.963,0,0,1-1.353-2.555l.259-.211c6.332,4.079,20.606-.738,33.538-11.707,12.07-10.237,19.043-22.5,17.489-29.712l.077-.063a6.672,6.672,0,0,1,1.02.965c5.266,6.208-1.89,20.929-15.982,32.882S467.075,344.811,461.809,338.6Z" transform="translate(-460.456 -294.356)" fill="#9e9e9e" stroke="#1a2e35" stroke-linecap="round" stroke-linejoin="round" stroke-width="1"/>
            </g>
            <path id="Path_71486" data-name="Path 71486" d="M451.88,337.745c6.567,7.743,25.68,2.325,42.689-12.1s25.474-32.4,18.907-40.141-25.68-2.326-42.69,12.1S445.312,330,451.88,337.745Zm21.582-36.987c14.092-11.952,29.784-16.609,35.049-10.4s-1.89,20.929-15.982,32.882-29.784,16.609-35.049,10.4S459.37,312.71,473.462,300.758Z" transform="translate(-445.863 -277.014)" fill="#1a2e35" stroke="#1a2e35" stroke-linecap="round" stroke-linejoin="round" stroke-width="1"/>
            <path id="Path_71487" data-name="Path 71487" d="M464.458,289.329c17.009-14.426,36.122-19.844,42.689-12.1l3.792,4.958c-6.568-7.743-25.68-2.326-42.69,12.1s-25.474,32.4-18.906,40.141l-3.792-4.958C438.984,321.728,447.449,303.756,464.458,289.329Z" transform="translate(-443.326 -273.698)" fill="#9e9e9e" stroke="#1a2e35" stroke-linecap="round" stroke-linejoin="round" stroke-width="1"/>
          </g>
        </g>
      </g>
      <g id="Group_17297" data-name="Group 17297" transform="translate(153.874 97.013)">
        <g id="Group_17294" data-name="Group 17294">
          <path id="Path_71488" data-name="Path 71488" d="M520.951,577.114a56.96,56.96,0,0,1,5.915-13.942c3.8-5.915,10.563-3.38,14.365.845s4.647,7.605,4.647,7.605.845-19.857-9.717-24.927-20.279,15.632-20.279,15.632,1.69-18.167,10.984-34.644,20.7-19.012,31.264-13.52S570.8,525.993,570.8,525.993s-7.182-25.349-26.616-26.194-29.152,24.082-29.152,24.082,4.225-11.829,17.745-44.361,26.616-39.291,30.419-61.26,5.492-30,5.492-30-17.322,39.291-27.884,54.078-25.771,37.6-29.152,53.233-7.6,50.7-7.6,50.7,5.582-37.948-4.225-62.951c-11.937-30.433-30.5-35.789-43.939-30.841C447.112,455.712,441.524,466,441.524,466s14.787-11.407,27.039-3.8,27.461,62.527,27.884,69.71l.422,7.182s-8.872-30-25.349-44.783-30.419-2.958-36.756,8.872c0,0,7.6-12.252,20.7-5.492s28.307,43.939,31.264,53.656l2.535,7.182s-12.675-10.984-20.279-10.14S455.043,567.4,455.043,567.4s8.45-12.252,15.209-9.295S482.5,575.424,482.5,575.424l-8.027,7.182,19.434-4.225-2.535,8.45,10.984-4.647,13.1,7.6-4.647-9.717,21.547,4.225Z" transform="translate(-434.764 -388.263)" fill="#75e6a4" stroke="#1a2e35" stroke-linecap="round" stroke-linejoin="round" stroke-width="1"/>
          <path id="Path_71489" data-name="Path 71489" d="M555.153,656.227c1.839-10.506,5.815-28.9,12.726-41.432" transform="translate(-483.016 -479.058)" fill="none" stroke="#1a2e35" stroke-linecap="round" stroke-linejoin="round" stroke-width="1"/>
          <path id="Path_71490" data-name="Path 71490" d="M553.051,694.672s.2-1.605.62-4.3" transform="translate(-482.174 -509.348)" fill="none" stroke="#1a2e35" stroke-linecap="round" stroke-linejoin="round" stroke-width="1"/>
          <path id="Path_71491" data-name="Path 71491" d="M603.382,488.021c5.095-9.037,10.036-17.261,14.025-24.413" transform="translate(-502.347 -418.462)" fill="none" stroke="#1a2e35" stroke-linecap="round" stroke-linejoin="round" stroke-width="1"/>
          <path id="Path_71492" data-name="Path 71492" d="M554.112,606.349s.954-34.329,10.49-59.123a278.976,278.976,0,0,1,15.944-33.6" transform="translate(-482.599 -438.507)" fill="none" stroke="#1a2e35" stroke-linecap="round" stroke-linejoin="round" stroke-width="1"/>
          <path id="Path_71493" data-name="Path 71493" d="M506.517,534.71c-4.126-14.262-9.9-26.574-14.5-30.415-7.628-6.357-21.614-5.722-25.429-3.179" transform="translate(-447.517 -432.766)" fill="none" stroke="#1a2e35" stroke-linecap="round" stroke-linejoin="round" stroke-width="1"/>
          <path id="Path_71494" data-name="Path 71494" d="M542.548,643.336s-1.907-29.561-3.179-52.765a126.914,126.914,0,0,0-3.8-23.525" transform="translate(-475.167 -459.92)" fill="none" stroke="#1a2e35" stroke-linecap="round" stroke-linejoin="round" stroke-width="1"/>
          <path id="Path_71495" data-name="Path 71495" d="M479.514,567.912c-5.292-5.782-11.387-8.817-19.827-8.817" transform="translate(-444.753 -456.733)" fill="none" stroke="#1a2e35" stroke-linecap="round" stroke-linejoin="round" stroke-width="1"/>
          <path id="Path_71496" data-name="Path 71496" d="M521.734,635.132a132.97,132.97,0,0,0-9.755-28.812c-5.31-11.337-9.713-20.407-14.613-26.946" transform="translate(-459.855 -464.861)" fill="none" stroke="#1a2e35" stroke-linecap="round" stroke-linejoin="round" stroke-width="1"/>
          <path id="Path_71497" data-name="Path 71497" d="M540.622,690.872a72.376,72.376,0,0,0-1.135-10.777" transform="translate(-476.737 -505.23)" fill="none" stroke="#1a2e35" stroke-linecap="round" stroke-linejoin="round" stroke-width="1"/>
          <path id="Path_71498" data-name="Path 71498" d="M502.446,671.081c-2.719-3.09-5.907-6.017-9.141-7.455-8.582-3.814-10.808.636-10.808.636" transform="translate(-453.896 -498.01)" fill="none" stroke="#1a2e35" stroke-linecap="round" stroke-linejoin="round" stroke-width="1"/>
          <path id="Path_71499" data-name="Path 71499" d="M525.687,690.478a75.349,75.349,0,0,0-4.428-6.607" transform="translate(-469.431 -506.743)" fill="none" stroke="#1a2e35" stroke-linecap="round" stroke-linejoin="round" stroke-width="1"/>
          <path id="Path_71500" data-name="Path 71500" d="M578.713,670.9c3.139-4.212,7.033-8.662,10.053-9.615,6.039-1.907,9.218,6.357,10.49,8.582" transform="translate(-492.459 -497.579)" fill="none" stroke="#1a2e35" stroke-linecap="round" stroke-linejoin="round" stroke-width="1"/>
          <path id="Path_71501" data-name="Path 71501" d="M569.5,687.436s1.49-2.483,3.665-5.6" transform="translate(-488.765 -505.926)" fill="none" stroke="#1a2e35" stroke-linecap="round" stroke-linejoin="round" stroke-width="1"/>
          <path id="Path_71502" data-name="Path 71502" d="M613.908,586.46s-4.45-2.861-14.939-1.59S582.758,596,582.758,596" transform="translate(-494.08 -466.933)" fill="none" stroke="#1a2e35" stroke-linecap="round" stroke-linejoin="round" stroke-width="1"/>
        </g>
        <g id="Group_17296" data-name="Group 17296" transform="translate(31.083 25.381)">
          <g id="Group_17295" data-name="Group 17295">
            <path id="Path_71503" data-name="Path 71503" d="M526.436,477.641s15.185-16.805,19.437-23.284-7.289-6.277-14.578-1.823S522.184,474.6,526.436,477.641Z" transform="translate(-501.684 -438.117)" fill="#2f68af"/>
            <path id="Path_71504" data-name="Path 71504" d="M511.391,470.145s4.454-6.074,7.9-18.02,2.025-20.652-.81-21.462-16.806,10.326-18.628,15.793-.81,14.78-.81,14.78-.81-8.5-7.492-11.946-5.062,5.872-3.644,8.5,4.454,7.289,4.454,7.289S507.341,470.348,511.391,470.145Z" transform="translate(-486.639 -430.621)" fill="#2f68af"/>
            <path id="Path_71505" data-name="Path 71505" d="M514,493.2s4.049.405,3.442,2.43-22.474-4.252-23.892-5.467,1.418-2.025,1.418-2.025Z" transform="translate(-489.251 -453.673)" fill="#1a2e35" stroke="#1a2e35" stroke-linecap="round" stroke-linejoin="round" stroke-width="1"/>
            <path id="Path_71506" data-name="Path 71506" d="M549.484,484.756c-9.313,1.62-15.793,9.516-15.793,9.516s8.706-5.872,15.793-2.632" transform="translate(-505.498 -452.319)" fill="none" stroke="#1a2e35" stroke-linecap="round" stroke-linejoin="round" stroke-width="1"/>
            <line id="Line_411" data-name="Line 411" x1="5.669" y2="6.682" transform="translate(16.653 42.156)" fill="none" stroke="#1a2e35" stroke-linecap="round" stroke-linejoin="round" stroke-width="1"/>
            <line id="Line_412" data-name="Line 412" x1="4.454" y2="3.645" transform="translate(15.235 41.549)" fill="none" stroke="#1a2e35" stroke-linecap="round" stroke-linejoin="round" stroke-width="1"/>
            <line id="Line_413" data-name="Line 413" x1="4.454" y2="3.24" transform="translate(10.173 40.132)" fill="none" stroke="#1a2e35" stroke-linecap="round" stroke-linejoin="round" stroke-width="1"/>
            <line id="Line_414" data-name="Line 414" x1="4.454" y2="2.227" transform="translate(5.719 39.119)" fill="none" stroke="#1a2e35" stroke-linecap="round" stroke-linejoin="round" stroke-width="1"/>
          </g>
          <path id="Path_71507" data-name="Path 71507" d="M534.18,430.663c2.143.612,3.472,5.745,2.506,13.376.035-2.972-.47-9.082-5.183-9.368a19.158,19.158,0,0,0-5.686.468C529.443,432.315,532.917,430.3,534.18,430.663Z" transform="translate(-502.342 -430.621)" fill="#1a2e35" stroke="#1a2e35" stroke-linecap="round" stroke-linejoin="round" stroke-width="1"/>
          <path id="Path_71508" data-name="Path 71508" d="M554.758,449.356c3.311.183,5.179,1.75,3.037,5.014-.814,1.241-2.032,2.862-3.465,4.67l-.409-.036S557.093,451.579,554.758,449.356Z" transform="translate(-513.606 -438.13)" fill="#1a2e35" stroke="#1a2e35" stroke-linecap="round" stroke-linejoin="round" stroke-width="1"/>
          <path id="Path_71509" data-name="Path 71509" d="M491.549,461.274a11.761,11.761,0,0,1,2.116,1.408l.019.041s-4.544.617-6.715,4.278C486.188,463.413,486.468,458.656,491.549,461.274Z" transform="translate(-486.64 -442.605)" fill="#1a2e35" stroke="#1a2e35" stroke-linecap="round" stroke-linejoin="round" stroke-width="1"/>
          <path id="Path_71510" data-name="Path 71510" d="M522.729,483.744a32.27,32.27,0,0,1-1.3,3.221" transform="translate(-500.582 -451.913)" fill="none" stroke="#1a2e35" stroke-linecap="round" stroke-linejoin="round" stroke-width="0.5"/>
          <path id="Path_71511" data-name="Path 71511" d="M528.438,451.788a136.117,136.117,0,0,1-3.61,16.875" transform="translate(-501.945 -439.105)" fill="none" stroke="#1a2e35" stroke-linecap="round" stroke-linejoin="round" stroke-width="0.5"/>
          <path id="Path_71512" data-name="Path 71512" d="M531.593,444.952s-.124.992-.365,2.62" transform="translate(-504.51 -436.365)" fill="none" stroke="#1a2e35" stroke-linecap="round" stroke-linejoin="round" stroke-width="0.5"/>
          <path id="Path_71513" data-name="Path 71513" d="M518.521,469.559s0,6.616-1.512,11.153" transform="translate(-498.811 -446.228)" fill="none" stroke="#1a2e35" stroke-linecap="round" stroke-linejoin="round" stroke-width="0.5"/>
          <path id="Path_71514" data-name="Path 71514" d="M512.329,465.463c.038,4.262.063,10.271-.052,13.04" transform="translate(-496.915 -444.586)" fill="none" stroke="#1a2e35" stroke-linecap="round" stroke-linejoin="round" stroke-width="0.5"/>
          <path id="Path_71515" data-name="Path 71515" d="M512.277,457.571s.014.962.03,2.457" transform="translate(-496.915 -441.423)" fill="none" stroke="#1a2e35" stroke-linecap="round" stroke-linejoin="round" stroke-width="0.5"/>
          <path id="Path_71516" data-name="Path 71516" d="M500.724,480.022a72.783,72.783,0,0,1-4.537-8.885" transform="translate(-490.466 -446.86)" fill="none" stroke="#1a2e35" stroke-linecap="round" stroke-linejoin="round" stroke-width="0.5"/>
        </g>
      </g>
      <path id="Path_71517" data-name="Path 71517" d="M263.533,730.137l7.135-5.55-13.477,4.36-3.964-11.892-2.775,11.5s-3.964-11.5-7.135-16.649-11.1-13.478-11.1-13.478l6.739,17.838-11.1-5.55L234.2,723.4l-12.07-4.242-6.957-3.29,9.91,9.117-11.892-.4,3.568,3.568-6.342,1.189,27.352,1.586-15.46,5.55H273.84l-13.874-3.172h15.787Z" transform="translate(-190.97 -415.564)" fill="#75e6a4" stroke="#1a2e35" stroke-linecap="round" stroke-linejoin="round" stroke-width="1"/>
    </g>
    <path id="Path_71518" data-name="Path 71518" d="M817.272,104.227v30.815l26.686,15.407,26.686-15.407V104.227L843.959,88.82Z" transform="translate(-291.938)" fill="none" stroke="#186adf" stroke-linecap="round" stroke-linejoin="round" stroke-width="2" stroke-dasharray="0.1 12"/>
    <path id="Path_71519" data-name="Path 71519" d="M851.064,131.557v7.434l6.438,3.717,6.438-3.717v-7.434L857.5,127.84Z" transform="translate(-305.482 -15.639)" fill="#186adf"/>
    <path id="Path_71520" data-name="Path 71520" d="M88.89,928.872v30.815l26.686,15.407,26.686-15.407V928.872l-26.686-15.407Z" transform="translate(0 -330.52)" fill="#186adf"/>
    <path id="Path_71521" data-name="Path 71521" d="M122.682,956.2v7.434l6.438,3.717,6.438-3.717V956.2l-6.438-3.717Z" transform="translate(-13.544 -346.159)" fill="#fff"/>
    <g id="Group_17300" data-name="Group 17300" transform="translate(506.393 544.763)">
      <path id="Path_71522" data-name="Path 71522" d="M1058.94,916.043H848.267l-62.606-66.3" transform="translate(-785.661 -849.743)" fill="none" stroke="#186adf" stroke-miterlimit="10" stroke-width="0.5"/>
      <g id="Group_17299" data-name="Group 17299" transform="translate(262.574 57.05)">
        <path id="Path_71523" data-name="Path 71523" d="M1239.893,944.953h-10.682l-5.341,9.25,5.341,9.25h10.682l5.341-9.25Z" transform="translate(-1223.871 -944.953)" fill="#186adf"/>
        <path id="Path_71524" data-name="Path 71524" d="M1240.958,954.066h-4.377l-2.188,3.79,2.188,3.79h4.377l2.188-3.79Z" transform="translate(-1228.089 -948.606)" fill="#fff"/>
      </g>
    </g>
    <g id="Group_17301" data-name="Group 17301" transform="translate(128.037 95.613)">
      <path id="Path_71525" data-name="Path 71525" d="M154.223,233.731V500.879L385.58,634.453,616.937,500.879V233.731L385.58,100.157Z" transform="translate(-154.223 -100.157)" fill="none" stroke="#186adf" stroke-linecap="round" stroke-linejoin="round" stroke-width="2" stroke-dasharray="0.1 12"/>
    </g>
    <line id="Line_415" data-name="Line 415" y1="54.244" x2="95.44" transform="translate(120.227 551.089)" fill="none" stroke="#186adf" stroke-linecap="round" stroke-linejoin="round" stroke-width="2" stroke-dasharray="0.1 12"/>
  </g>
</svg>
