<svg xmlns="http://www.w3.org/2000/svg" width="40.442" height="40.435" viewBox="0 0 40.442 40.435">
  <g id="Group_26699" data-name="Group 26699" transform="translate(-2 -2.005)">
    <path id="Path_81924" data-name="Path 81924" d="M41.385,19.144,39.5,18.812a1.283,1.283,0,0,1-1.011-.952,16.65,16.65,0,0,0-1.682-4.05,1.275,1.275,0,0,1,.039-1.389l1.1-1.572A1.285,1.285,0,0,0,37.8,9.212l-2.576-2.57A1.26,1.26,0,0,0,33.6,6.5L32.026,7.6a1.3,1.3,0,0,1-1.4.039,16.6,16.6,0,0,0-4.044-1.682,1.3,1.3,0,0,1-.958-1.011L25.3,3.062a1.28,1.28,0,0,0-1.259-1.057H20.4a1.28,1.28,0,0,0-1.259,1.057l-.326,1.885a1.3,1.3,0,0,1-.959,1.011A17,17,0,0,0,13.8,7.633a1.289,1.289,0,0,1-1.389-.039l-1.572-1.1a1.276,1.276,0,0,0-1.63.143L6.637,9.212a1.285,1.285,0,0,0-.143,1.637l1.1,1.572a1.275,1.275,0,0,1,.039,1.389,16.65,16.65,0,0,0-1.683,4.05,1.282,1.282,0,0,1-1.011.952l-1.884.332A1.28,1.28,0,0,0,2,20.4v3.646A1.273,1.273,0,0,0,3.057,25.3l1.885.333a1.283,1.283,0,0,1,1.011.952,16.65,16.65,0,0,0,1.682,4.05,1.287,1.287,0,0,1-.039,1.4L6.493,33.6a1.276,1.276,0,0,0,.143,1.63L9.213,37.81a1.276,1.276,0,0,0,1.63.143l1.572-1.1a1.29,1.29,0,0,1,1.39-.039,16.74,16.74,0,0,0,4.05,1.676,1.3,1.3,0,0,1,.958,1.011l.326,1.885A1.28,1.28,0,0,0,20.4,42.44h3.646A1.28,1.28,0,0,0,25.3,41.384l.326-1.885a1.3,1.3,0,0,1,.959-1.011,16.6,16.6,0,0,0,4.044-1.682,1.286,1.286,0,0,1,1.4.045l1.572,1.1a1.267,1.267,0,0,0,1.63-.137L37.8,35.234a1.276,1.276,0,0,0,.143-1.63l-1.1-1.572a1.288,1.288,0,0,1-.039-1.4,16.649,16.649,0,0,0,1.683-4.049,1.282,1.282,0,0,1,1.011-.952l1.884-.333a1.273,1.273,0,0,0,1.057-1.252V20.4a1.281,1.281,0,0,0-1.057-1.259ZM30.611,28.471a10.448,10.448,0,0,0-16.787,0,10.474,10.474,0,1,1,16.787,0Z" transform="translate(0 0)" fill="#006ce5"/>
    <path id="Path_81925" data-name="Path 81925" d="M31.7,22.28a3.948,3.948,0,1,0,3.953,3.949A3.948,3.948,0,0,0,31.7,22.28Z" transform="translate(-9.478 -7.463)" fill="#006ce5"/>
  </g>
</svg>
