<svg xmlns="http://www.w3.org/2000/svg" width="33.403" height="38.606" viewBox="0 0 33.403 38.606">
  <g id="Group_26700" data-name="Group 26700" transform="translate(-4.617 -3)">
    <path id="Path_81926" data-name="Path 81926" d="M36.343,31.776H34.327v-2a3.923,3.923,0,0,0-3.918-3.918H23.062V23.1h7.055a6.081,6.081,0,0,0,2.657-11.559,5.373,5.373,0,0,0,.262-1.638A5.536,5.536,0,0,0,27.483,4.4a5.437,5.437,0,0,0-3.323,1.115A6.161,6.161,0,0,0,19.175,3a6.225,6.225,0,0,0-6.219,6.219V9.29A6.923,6.923,0,0,0,13.6,23.1h6.249v2.754H12.5a3.923,3.923,0,0,0-3.917,3.918v2H6.295a1.682,1.682,0,0,0-1.678,1.678v6.474a1.683,1.683,0,0,0,1.678,1.678h7.247a1.683,1.683,0,0,0,1.678-1.678V33.453a1.683,1.683,0,0,0-1.678-1.678H11.8v-2a.7.7,0,0,1,.7-.7H30.409a.7.7,0,0,1,.7.7v2H29.1a1.682,1.682,0,0,0-1.678,1.678v6.474A1.683,1.683,0,0,0,29.1,41.606h7.247a1.683,1.683,0,0,0,1.678-1.678V33.453a1.683,1.683,0,0,0-1.678-1.678Z" transform="translate(0 0)" fill="#006ce5"/>
  </g>
</svg>
