<svg xmlns="http://www.w3.org/2000/svg" width="45.29" height="45.29" viewBox="0 0 45.29 45.29">
  <g id="Group_26698" data-name="Group 26698" transform="translate(0 0)">
    <path id="Path_81922" data-name="Path 81922" d="M29.717,146.946a5.735,5.735,0,0,1-1.792,2.826,51.275,51.275,0,0,0-4.426,3.413,10.826,10.826,0,0,0-5.891-5.069,11.253,11.253,0,0,0-4.042-7.68c-4.853-3.916-12.1-2.927-12.406-2.884a1.326,1.326,0,0,0-1.138,1.311L0,151.409a1.328,1.328,0,0,0,.141.6,35.541,35.541,0,0,0,8.272,10.912A31.055,31.055,0,0,0,23.5,170.168a23.157,23.157,0,0,0,3.836.376,1.388,1.388,0,0,0,1.008-.318c3.671-3.122,6.539-7.733,8.525-13.7a55.687,55.687,0,0,0,2.125-8.944,12.783,12.783,0,0,1-9.276-.633Z" transform="translate(0 -125.255)" fill="#006ce5"/>
    <path id="Path_81923" data-name="Path 81923" d="M300.254,3.97l1.705-1.7A1.327,1.327,0,1,0,300.082.388l-1.7,1.705a10.106,10.106,0,0,0-12.367.038L284.268.388a1.327,1.327,0,0,0-1.877,1.877l1.755,1.754a10.129,10.129,0,1,0,16.108-.05Zm-6.708,6.313a1.327,1.327,0,0,1-.9,1.256l-2.609.885a1.327,1.327,0,1,1-.853-2.513l1.709-.579v-2.7a1.327,1.327,0,1,1,2.654,0Z" transform="translate(-257.057 0)" fill="#006ce5"/>
  </g>
</svg>
