<svg xmlns="http://www.w3.org/2000/svg" width="39.749" height="45.29" viewBox="0 0 39.749 45.29">
  <g id="Group_26695" data-name="Group 26695" transform="translate(-31.318)">
    <path id="Path_81916" data-name="Path 81916" d="M71.067,28.274V25.415H57.89a6.7,6.7,0,1,1-13.395,0H31.318v2.858l5.722.606a14.48,14.48,0,0,0,1.7,4.092l-3.619,4.476L39.16,41.49l4.476-3.619a14.48,14.48,0,0,0,4.092,1.7l.606,5.722h5.717l.606-5.722a14.48,14.48,0,0,0,4.092-1.7l4.476,3.619,4.043-4.043-3.619-4.476a14.48,14.48,0,0,0,1.7-4.092l5.722-.606ZM51.193,0a5.133,5.133,0,1,0,5.133,5.133A5.139,5.139,0,0,0,51.193,0Zm5.465,11.686H45.727a4.569,4.569,0,0,0-4.564,4.564v6.512H61.222V16.25a4.569,4.569,0,0,0-4.564-4.564ZM40.3,2.371a4.6,4.6,0,0,0-.061,9.2,7.219,7.219,0,0,1,4.1-2.4,4.6,4.6,0,0,0-4.039-6.8Zm-4.9,10.469a4.093,4.093,0,0,0-4.088,4.088v5.833H38.51V16.25a7.172,7.172,0,0,1,.858-3.41H35.406ZM62.083,2.371a4.6,4.6,0,0,0-4.039,6.8,7.219,7.219,0,0,1,4.1,2.4,4.6,4.6,0,0,0-.061-9.2Zm4.9,10.469H63.017a7.172,7.172,0,0,1,.858,3.41v6.512h7.192V16.928A4.093,4.093,0,0,0,66.979,12.84Z" fill="#006ce5"/>
  </g>
</svg>
