<svg xmlns="http://www.w3.org/2000/svg" xmlns:xlink="http://www.w3.org/1999/xlink" width="114.285" height="114.285" viewBox="0 0 114.285 114.285">
  <defs>
    <clipPath id="clip-path">
      <path id="Path_81937" data-name="Path 81937" d="M0-682.665H114.285V-568.38H0Z" transform="translate(0 682.665)" fill="#006ce5"/>
    </clipPath>
  </defs>
  <g id="Group_26702" data-name="Group 26702" transform="translate(0 -0.002)">
    <g id="Group_26701" data-name="Group 26701" transform="translate(0 0.002)" clip-path="url(#clip-path)">
      <path id="Union_4" data-name="Union 4" d="M-14942.636-2206.239l-14.808-10.179a3.349,3.349,0,0,1-.86-4.656,3.347,3.347,0,0,1,4.655-.864l14.8,10.179a8.535,8.535,0,0,0,4.859,1.509,8.581,8.581,0,0,0,8.571-8.576A26.945,26.945,0,0,0-14927.4-2229l-9.851-24.3c-.015-.035-.029-.071-.043-.107l-1.621-4a8.456,8.456,0,0,0-7.862-5.3,8.448,8.448,0,0,0-7.184,3.969,8.171,8.171,0,0,1-6.957,3.844h-29.888a8.181,8.181,0,0,1-6.957-3.841,8.428,8.428,0,0,0-7.18-3.973,8.453,8.453,0,0,0-7.862,5.3l-1.622,4c-.013.033-.026.065-.04.1l-9.856,24.31a26.964,26.964,0,0,0-1.984,10.175,8.524,8.524,0,0,0,2.513,6.063,8.507,8.507,0,0,0,6.063,2.513,8.523,8.523,0,0,0,4.855-1.509l14.8-10.179a3.352,3.352,0,0,1,4.66.864,3.35,3.35,0,0,1-.864,4.656l-14.8,10.179a15.186,15.186,0,0,1-8.65,2.686,15.16,15.16,0,0,1-10.8-4.474,15.153,15.153,0,0,1-4.475-10.8,33.668,33.668,0,0,1,2.475-12.692l8.552-21.092a18.867,18.867,0,0,1-11.026-17.24,19.018,19.018,0,0,1,13.732-18.234,32.417,32.417,0,0,1,32.25-29.756h.455l.154,0h.037l.174,0h.025a32.115,32.115,0,0,1,20.354,7.9,25.653,25.653,0,0,1,7.821-1.211,25.7,25.7,0,0,1,25.534,23.055,19.017,19.017,0,0,1,13.748,18.238,18.866,18.866,0,0,1-11.023,17.24l8.548,21.092a33.574,33.574,0,0,1,2.476,12.692,15.287,15.287,0,0,1-15.269,15.272A15.191,15.191,0,0,1-14942.636-2206.239Zm-70.053-79.232a3.482,3.482,0,0,1-2.92,3.452,12.29,12.29,0,0,0-10.7,12.171,12.208,12.208,0,0,0,6.852,11.02l.445-1.1a15.116,15.116,0,0,1,14.068-9.474,15.089,15.089,0,0,1,12.851,7.1,1.51,1.51,0,0,0,1.286.709h29.888a1.507,1.507,0,0,0,1.287-.709,15.1,15.1,0,0,1,12.854-7.1,15.126,15.126,0,0,1,14.069,9.474l.444,1.1a12.2,12.2,0,0,0,6.848-11.02,12.286,12.286,0,0,0-10.691-12.171,3.35,3.35,0,0,1-2.924-3.339,19.019,19.019,0,0,0-18.97-19.087,19.193,19.193,0,0,0-2.678.187,32.189,32.189,0,0,1,6.024,18.787,3.349,3.349,0,0,1-3.351,3.346,3.346,3.346,0,0,1-3.347-3.346,25.7,25.7,0,0,0-25.327-25.668h-.343A25.7,25.7,0,0,0-15012.688-2285.471Z" transform="translate(15033.001 2317.838)" fill="#006ce5" stroke="#fff" stroke-linecap="round" stroke-width="1"/>
      <path id="Path_81928" data-name="Path 81928" d="M-16.652-33.3A3.348,3.348,0,0,1-20-36.652,3.348,3.348,0,0,1-16.652-40,3.348,3.348,0,0,1-13.3-36.652,3.348,3.348,0,0,1-16.652-33.3" transform="translate(92.991 113.214)" fill="#006ce5"/>
      <path id="Path_81929" data-name="Path 81929" d="M-16.652-33.3A3.348,3.348,0,0,1-20-36.652,3.348,3.348,0,0,1-16.652-40,3.348,3.348,0,0,1-13.3-36.652,3.348,3.348,0,0,1-16.652-33.3" transform="translate(106.383 113.214)" fill="#006ce5"/>
      <path id="Path_81930" data-name="Path 81930" d="M-16.652.089A3.348,3.348,0,0,1-20-3.259V-16.652A3.348,3.348,0,0,1-16.652-20,3.348,3.348,0,0,1-13.3-16.652V-3.259A3.348,3.348,0,0,1-16.652.089Z" transform="translate(47.902 86.517)" fill="#006ce5"/>
      <path id="Path_81931" data-name="Path 81931" d="M-3.259-13.3H-16.652A3.348,3.348,0,0,1-20-16.652,3.348,3.348,0,0,1-16.652-20H-3.259A3.348,3.348,0,0,1,.089-16.652,3.348,3.348,0,0,1-3.259-13.3Z" transform="translate(41.205 93.214)" fill="#006ce5"/>
      <path id="Path_81932" data-name="Path 81932" d="M-85.479-13.3H-99.318a3.348,3.348,0,0,1-3.348-3.348A3.348,3.348,0,0,1-99.318-20h13.839a3.348,3.348,0,0,1,3.348,3.348A3.348,3.348,0,0,1-85.479-13.3Z" transform="translate(149.541 115.312)" fill="#006ce5"/>
      <path id="Path_81933" data-name="Path 81933" d="M-9.955-60A10.056,10.056,0,0,1,.089-49.955,10.056,10.056,0,0,1-9.955-39.911,10.056,10.056,0,0,1-20-49.955,10.056,10.056,0,0,1-9.955-60Zm0,13.393a3.352,3.352,0,0,0,3.348-3.348A3.352,3.352,0,0,0-9.955-53.3,3.352,3.352,0,0,0-13.3-49.955,3.352,3.352,0,0,0-9.955-46.607Z" transform="translate(53.482 148.615)" fill="#006ce5"/>
      <path id="Path_81934" data-name="Path 81934" d="M-89.955-60A10.056,10.056,0,0,1-79.911-49.955,10.056,10.056,0,0,1-89.955-39.911,10.056,10.056,0,0,1-100-49.955,10.056,10.056,0,0,1-89.955-60Zm0,13.393a3.352,3.352,0,0,0,3.348-3.348A3.352,3.352,0,0,0-89.955-53.3,3.352,3.352,0,0,0-93.3-49.955,3.352,3.352,0,0,0-89.955-46.607Z" transform="translate(160.714 148.615)" fill="#006ce5"/>
    </g>
  </g>
</svg>
