<svg xmlns="http://www.w3.org/2000/svg" width="117.82" height="117.878" viewBox="0 0 117.82 117.878">
  <g id="Group_26703" data-name="Group 26703" transform="translate(-0.027 -0.003)">
    <g id="Layer_13" data-name="Layer 13" transform="translate(0.027 0.003)">
      <path id="Path_81938" data-name="Path 81938" d="M95.743,19.643A21.765,21.765,0,0,0,88.8,20.775a31.9,31.9,0,0,0-57.084-5.553,13.1,13.1,0,0,0-3.51-.491A13.41,13.41,0,0,0,15.121,25.09a19.648,19.648,0,0,0,4.487,38.76h9.824V90.866c0,8.063,14.827,12.28,29.472,12.28,1.071,0,2.144-.029,3.21-.074.327-.015.648-.034.982-.054q2.875-.152,5.73-.543c.228-.032.459-.056.685-.091q1.51-.221,2.947-.513c.246-.049.491-.108.725-.16q1.083-.231,2.115-.491l.9-.246q.96-.273,1.867-.58c.246-.084.511-.165.754-.246.818-.295,1.606-.607,2.341-.946.084-.039.155-.084.246-.123q.965-.457,1.82-.965c.076-.047.172-.086.246-.133V105.6c0,2.932-9.794,7.368-24.56,7.368s-24.56-4.435-24.56-7.368a2.456,2.456,0,1,0-4.912,0c0,8.063,14.827,12.28,29.472,12.28s29.472-4.217,29.472-12.28V61.394c0-8.063-14.827-12.28-29.472-12.28-13.071,0-26.257,3.37-28.946,9.824H19.608a14.736,14.736,0,0,1-2.016-29.317,2.456,2.456,0,0,0,2.11-2.21,8.5,8.5,0,0,1,12.091-6.968,2.456,2.456,0,0,0,3.193-1.088A26.989,26.989,0,0,1,84.9,24.682a2.456,2.456,0,0,0,3.438,1.557,16.985,16.985,0,0,1,7.4-1.685,17.192,17.192,0,0,1,0,34.383,2.456,2.456,0,1,0,0,4.912,22.1,22.1,0,0,0,0-44.207Zm-61.4,71.223V83.233c.076.047.169.086.246.133.587.349,1.211.683,1.876.995.059.027.108.059.167.086.764.351,1.584.675,2.436.982.133.049.273.091.408.138q1.191.408,2.473.761l.194.054A66.2,66.2,0,0,0,58.9,88.41a66.2,66.2,0,0,0,16.757-2.031l.194-.054q1.282-.351,2.473-.761c.135-.047.275-.088.408-.138.852-.3,1.673-.629,2.436-.982.059-.027.108-.059.167-.086.666-.312,1.289-.646,1.876-.995.079-.047.172-.086.246-.133v7.636c0,2.932-9.794,7.368-24.56,7.368S34.344,93.8,34.344,90.866ZM58.9,54.026c14.765,0,24.56,4.435,24.56,7.368V76.13c0,2.932-9.794,7.368-24.56,7.368s-24.56-4.435-24.56-7.368V68.5c.076.047.172.086.246.133q.855.508,1.82.965c.084.039.155.084.246.123.737.339,1.523.651,2.341.946.246.088.491.169.754.246q.906.307,1.867.58c.3.083.6.167.9.246q1.032.265,2.115.491c.246.052.476.111.725.16q1.444.29,2.947.513c.226.034.457.059.685.091q1.724.231,3.458.383c.754.066,1.51.118,2.272.16.324.02.646.039.982.054,1.066.044,2.139.074,3.21.074,1.719,0,3.389-.059,5.032-.167.138,0,.268-.029.405-.039,1.506-.108,2.979-.246,4.406-.449.265-.037.511-.091.774-.13,1.243-.187,2.456-.39,3.635-.643.491-.106.953-.246,1.437-.361.737-.184,1.508-.346,2.21-.558.047,0,.079-.049.123-.064.192-.059.413-.1.6-.16a2.457,2.457,0,0,0-1.5-4.679c-.766.246-1.618.445-2.456.653-.53.133-1.036.28-1.591.4-.737.157-1.537.278-2.318.405-.6.1-1.179.219-1.8.3-.855.115-1.751.184-2.638.265-.585.054-1.152.13-1.746.167-1.5.1-3.026.15-4.571.15-14.765,0-24.56-4.435-24.56-7.368S44.138,54.026,58.9,54.026Z" transform="translate(-0.027 -0.003)" fill="#006ce5"/>
      <path id="Path_81939" data-name="Path 81939" d="M24.814,32.56A2.456,2.456,0,0,0,27.27,30.1V16.385l3.176,3.176a2.456,2.456,0,1,0,3.473-3.473L26.55,8.72c-.022-.022-.052-.029-.074-.049a2.456,2.456,0,0,0-.722-.491.113.113,0,0,1-.066-.015,2.4,2.4,0,0,0-.771-.15,1.746,1.746,0,0,0-.246.012,2.585,2.585,0,0,0-1.577.688l-7.368,7.368A2.456,2.456,0,1,0,19.2,19.556l3.158-3.171V30.1A2.456,2.456,0,0,0,24.814,32.56ZM49.373,8a2.456,2.456,0,0,0-2.456,2.456V24.175L43.742,21a2.456,2.456,0,1,0-3.473,3.473l7.368,7.368c.022.022.052.029.074.049a2.426,2.426,0,0,0,3.4-.049l7.368-7.368A2.456,2.456,0,1,0,55,21l-3.175,3.176V10.456A2.456,2.456,0,0,0,49.373,8Z" transform="translate(21.783 11.639)" fill="#006ce5"/>
    </g>
  </g>
</svg>
