<svg id="Group_26696" data-name="Group 26696" xmlns="http://www.w3.org/2000/svg" width="35.924" height="35.924" viewBox="0 0 35.924 35.924">
  <path id="Path_81917" data-name="Path 81917" d="M296,225.719a1.131,1.131,0,1,0,1.131,1.131A1.133,1.133,0,0,0,296,225.719Zm0,0" transform="translate(-274.182 -209.882)" fill="#006ce5"/>
  <path id="Path_81918" data-name="Path 81918" d="M33.13,13.152H29.966a.135.135,0,0,1-.15-.1.136.136,0,0,1,.035-.177l2.237-2.236a2.795,2.795,0,0,0,0-3.952L29.237,3.836a2.832,2.832,0,0,0-3.952,0L23.049,6.072a.129.129,0,0,1-.1.051.213.213,0,0,1-.135-.053.128.128,0,0,1-.04-.113V2.794A2.8,2.8,0,0,0,19.978,0H15.945a2.8,2.8,0,0,0-2.793,2.794V5.958a.164.164,0,0,1-.175.166.131.131,0,0,1-.1-.051L10.637,3.836a2.8,2.8,0,0,0-1.976-.8h0a2.805,2.805,0,0,0-1.975.8L3.834,6.687a2.795,2.795,0,0,0,0,3.952l2.237,2.235a.138.138,0,0,1,.035.178.134.134,0,0,1-.15.1H2.793A2.8,2.8,0,0,0,0,15.946v4.032a2.8,2.8,0,0,0,2.793,2.795H5.957a.134.134,0,0,1,.15.1.136.136,0,0,1-.034.177L3.835,25.286a2.795,2.795,0,0,0,0,3.952l2.851,2.851a2.809,2.809,0,0,0,1.975.8h0a2.8,2.8,0,0,0,1.975-.8l2.236-2.236a.13.13,0,0,1,.1-.051.164.164,0,0,1,.175.166v3.162a2.795,2.795,0,0,0,2.793,2.794h4.033a2.8,2.8,0,0,0,2.793-2.794V29.967a.164.164,0,0,1,.175-.166.134.134,0,0,1,.1.051l2.236,2.236a2.832,2.832,0,0,0,3.952,0l2.851-2.851a2.8,2.8,0,0,0,0-3.952L29.852,23.05a.136.136,0,0,1-.035-.178.133.133,0,0,1,.149-.1H33.13a2.8,2.8,0,0,0,2.794-2.794V15.946a2.8,2.8,0,0,0-2.794-2.793ZM15.155,22.2v.879a1.052,1.052,0,0,1-2.1,0V22.2a3.236,3.236,0,0,1,0-6.121V12.842a1.052,1.052,0,0,1,2.1,0v3.233a3.237,3.237,0,0,1,0,6.121Zm7.718-2.167v3.054a1.052,1.052,0,0,1-2.1,0V20.029a3.236,3.236,0,0,1,0-6.121V12.849a1.052,1.052,0,1,1,2.1,0v1.059a3.237,3.237,0,0,1,0,6.121Zm0,0" fill="#006ce5"/>
  <path id="Path_81919" data-name="Path 81919" d="M186,256.61a1.131,1.131,0,1,0,1.131,1.131A1.133,1.133,0,0,0,186,256.61Zm0,0" transform="translate(-171.9 -238.605)" fill="#006ce5"/>
</svg>
