<svg xmlns="http://www.w3.org/2000/svg" width="300.985" height="92.737" viewBox="0 0 300.985 92.737">
  <g id="Group_17284" data-name="Group 17284" transform="translate(-119.207 -211.206)">
    <g id="Group_17278" data-name="Group 17278">
      <ellipse id="Ellipse_701" data-name="Ellipse 701" cx="3.377" cy="3.321" rx="3.377" ry="3.321" transform="translate(157.169 263.822)" fill="#2f68af"/>
      <ellipse id="Ellipse_702" data-name="Ellipse 702" cx="2.981" cy="2.567" rx="2.981" ry="2.567" transform="translate(183.838 281.299) rotate(-57.183)" fill="#2f68af"/>
      <ellipse id="Ellipse_703" data-name="Ellipse 703" cx="3.077" cy="3.026" rx="3.077" ry="3.026" transform="translate(180.598 248.212)" fill="#2f68af"/>
      <ellipse id="Ellipse_704" data-name="Ellipse 704" cx="1.767" cy="2.774" rx="1.767" ry="2.774" transform="translate(192.708 237.627) rotate(-23.376)" fill="#2f68af"/>
      <ellipse id="Ellipse_705" data-name="Ellipse 705" cx="1.969" cy="2.994" rx="1.969" ry="2.994" transform="translate(168.452 225.606) rotate(-73.068)" fill="#2f68af"/>
      <path id="Path_71417" data-name="Path 71417" d="M160.218,211.206c-.568,0-1.133.013-1.7.032A47.757,47.757,0,0,1,188.03,222.7c-.107.257-.38.431-1.042.106-1.331-.654-6.168-4.829-31.708-4.291a6.1,6.1,0,0,0-5.211-1.029c-2.9.556-4.963,2.449-4.61,4.229s2.988,2.773,5.887,2.217a7.438,7.438,0,0,0,3.326-1.487,1.5,1.5,0,0,1,.99-.349c2.457.04,11.517.07,11.517.07s4.044-2.636,7.769.178,3.5,5.942-1.181,6.657c-3.612.552-5.519-1.106-6.2-1.891a1.1,1.1,0,0,0-.859-.376c-3.849.083-25.97.54-35.919,4.01,0,0-2.09-2.458-5.77,2.01s-1.045,6.88.545,6.166,3.271-2.5,4.089-2.9,25.806-2.815,39.617-2.19,21.172,1.72,21.876,1.7a2.758,2.758,0,0,0,.9-.386,2.154,2.154,0,0,1,.248-.184c1.63-1.023,4.29.211,5.942,2.756s1.669,5.438.04,6.461c-1.593,1-4.169-.161-5.827-2.591-2.229-1.017-9.765-1.758-51.436-1.5,0,0-5.12-5.034-9.6,2.045a5.967,5.967,0,0,0-.938,3.618c.483,6.508,8.084,4.671,9.634,2.111,0,0-.181-.417,2.484-.387,2.49.028,31.992,0,35.867,0a1.076,1.076,0,0,0,.7-.256c.735-.63,2.809-2.186,5.093-1.942a6,6,0,0,1-.409,11.953,5.5,5.5,0,0,1-3.263-1.078,8.791,8.791,0,0,1-1.445-1.1.9.9,0,0,0-.619-.25l-31.443.059s-4.325-5.252-8.987-1.388a7.236,7.236,0,0,0-2.638,4.8,6.843,6.843,0,0,0,6.839,7.464,5.909,5.909,0,0,0,4.48-2.3.77.77,0,0,1,.6-.29h7.522a6.992,6.992,0,0,1,5.138-2.834,5.1,5.1,0,0,1,2.483.253,6.883,6.883,0,0,1,5.023,6.587c0,.053-.007.1-.008.158a5.6,5.6,0,0,1-1.477,4.065,7.041,7.041,0,0,1-11.23-.311c-1.437-.186-15.709-.9-30.734-2.408,0,0-3.16-5.378-4.559-1.36a6.2,6.2,0,0,0-.2,3.15c1.107,6.07,3.6,6.6,5.7,4.286,0,0,3.316,1.147,14.72,2.442,10.42,1.184,38.391.975,43.138.931a1.473,1.473,0,0,0,1.053-.459c1.7-2.536,4.6-3.632,6.618-2.44.055.033.1.072.158.108l.052.036c1.882,1.315,2.149,4.368.564,6.99a5.731,5.731,0,0,1-1.066,1.379c-1.71,1.745-4.047,2.367-5.748,1.361a3.36,3.36,0,0,1-.8-.666c-.061-.039-.123-.077-.182-.119a1.952,1.952,0,0,0-1.378-.372,152.085,152.085,0,0,1-21.648.8c-11.993-.247-14.792-.243-15.438-.231a.466.466,0,0,1-.33-.123c-.8-.731-4.873-4.186-7.993-1.569a3.649,3.649,0,0,0-.957,4.227,6.931,6.931,0,0,0,9.579,3.641.87.87,0,0,1,.4-.085c2.427.092,25.171.955,29.685,1.378,4.174.39,8.418,1.773,5.366,5.2a6.487,6.487,0,0,1-1.777,1.594c-4.846,2.636-11.214,4.535-28.88,4.334l1.749.745c17.56.655,24.9-1.406,31.834-5.3a46.576,46.576,0,0,0,23.986-40.6C207.726,232.122,186.456,211.206,160.218,211.206Zm-9.112,10.856c-1.4.267-2.665-.211-2.835-1.067s.824-1.769,2.22-2.036,2.664.21,2.834,1.067S152.5,221.795,151.106,222.062Zm-23.144,13.082c-.688,1.03-1.756,1.536-2.385,1.13s-.582-1.571.106-2.6,1.756-1.536,2.385-1.13S128.65,234.114,127.962,235.144Zm9.536,9.906a2.307,2.307,0,0,1-2.866,1.43,2.241,2.241,0,0,1-.834-3.053A2.309,2.309,0,0,1,136.665,242,2.239,2.239,0,0,1,137.5,245.05Zm4.1,17.044a2.949,2.949,0,1,1,3-2.948A2.974,2.974,0,0,1,141.6,262.094ZM122.63,273.347c-.465.136-1.139-.73-1.506-1.936s-.287-2.294.178-2.43,1.139.73,1.5,1.935S123.1,273.21,122.63,273.347Zm20.1,15.132c-.666.795-2.132.689-3.275-.237s-1.528-2.32-.861-3.115,2.132-.689,3.274.237S143.394,287.685,142.728,288.479Z" fill="#2f68af"/>
    </g>
    <g id="Group_17283" data-name="Group 17283">
      <g id="Group_17279" data-name="Group 17279">
        <path id="Path_71418" data-name="Path 71418" d="M220.024,227.376h6.343v24.166h12.909v5.209H220.024Z" fill="#2f68af"/>
        <path id="Path_71419" data-name="Path 71419" d="M327.369,256.741h-6.345v-.358q0-13.683-.008-27.365c0-.3.108-.4.373-.486a30.415,30.415,0,0,1,6.1-1.458,22.881,22.881,0,0,1,9.285.5,9.382,9.382,0,0,1,5.608,4.159,9.624,9.624,0,0,1,1.279,5.126,9.216,9.216,0,0,1-6.144,8.767,16.916,16.916,0,0,1-6.1,1.2c-1.33.026-2.661-.058-4.046-.094v10Zm.012-14.936c.523.043,1.013.1,1.5.122a13.748,13.748,0,0,0,4.381-.242,5.2,5.2,0,0,0,3.478-2.552,5.438,5.438,0,0,0,.487-3.266,3.9,3.9,0,0,0-2.619-3.5,9.376,9.376,0,0,0-2.277-.461,17.322,17.322,0,0,0-4.954.38Z" fill="#353636"/>
        <path id="Path_71420" data-name="Path 71420" d="M256.536,262.6v-4.429c.508.2.988.408,1.481.579a11.481,11.481,0,0,0,5.93.513,3.96,3.96,0,0,0,3.4-3.472c.083-.58.1-1.169.144-1.754a1.093,1.093,0,0,0-.006-.166A13.5,13.5,0,0,1,265.348,255c-3.578,1.15-6.963.9-9.9-1.653a8.827,8.827,0,0,1-2.811-5.193,11.222,11.222,0,0,1,.4-6.109,9.619,9.619,0,0,1,7.118-6.291,14.635,14.635,0,0,1,12.838,2.623.584.584,0,0,1,.21.407c.01,5.02.024,10.041,0,15.061a10.49,10.49,0,0,1-1.46,5.536,8.758,8.758,0,0,1-5.818,4,15.708,15.708,0,0,1-8.029-.251C257.425,262.987,256.978,262.776,256.536,262.6Zm10.827-17.328c0-1.311-.012-2.622.009-3.933a.689.689,0,0,0-.356-.661,6.043,6.043,0,0,0-4.2-.9,4.585,4.585,0,0,0-3.933,3.017,8.024,8.024,0,0,0-.348,4.369c.384,2.295,1.677,3.857,4.168,4.051a5.492,5.492,0,0,0,4.457-1.451.717.717,0,0,0,.2-.46C267.37,247.964,267.363,246.62,267.363,245.275Z" fill="#2f68af"/>
        <path id="Path_71421" data-name="Path 71421" d="M283.652,256.739h-5.8V226.786h5.784v10.1a.8.8,0,0,0,.188-.053,9.035,9.035,0,0,1,4.269-1.472,10.531,10.531,0,0,1,4.617.465,7.172,7.172,0,0,1,4.641,5.231,11.579,11.579,0,0,1,.364,3.051q0,6.156,0,12.312c0,.1-.011.2-.017.311h-5.8v-.411q0-6.021,0-12.041a5.751,5.751,0,0,0-.468-2.509,3.375,3.375,0,0,0-2.885-1.967,6.592,6.592,0,0,0-4.594,1.164.628.628,0,0,0-.3.584q.014,7.361.006,14.72Z" fill="#2f68af"/>
        <path id="Path_71422" data-name="Path 71422" d="M344.637,246.264a12.178,12.178,0,0,1,1.391-5.912,9.234,9.234,0,0,1,5.872-4.585,12.957,12.957,0,0,1,7.53.119,9.14,9.14,0,0,1,6.067,5.85,12.57,12.57,0,0,1-.288,9.61A9.249,9.249,0,0,1,358.3,256.8a12.864,12.864,0,0,1-6.995-.372,9.391,9.391,0,0,1-6.192-6.663A13.313,13.313,0,0,1,344.637,246.264Zm15.644.084a11.4,11.4,0,0,0-.425-3.369,4.275,4.275,0,0,0-2.166-2.759,5.148,5.148,0,0,0-2.683-.434A4.039,4.039,0,0,0,351.469,242a8.066,8.066,0,0,0-.81,3.4,10.988,10.988,0,0,0,.43,4.051,4.213,4.213,0,0,0,2.2,2.687,5.263,5.263,0,0,0,2.788.417,3.952,3.952,0,0,0,3.383-2.218A9.082,9.082,0,0,0,360.281,246.348Z" fill="#353636"/>
        <path id="Path_71423" data-name="Path 71423" d="M386.985,256.739h-5.819v-.366q0-8.751-.006-17.5a.578.578,0,0,1,.29-.552,17.517,17.517,0,0,1,7.375-2.808,18.406,18.406,0,0,1,4.741-.122,7.914,7.914,0,0,1,6.119,3.37,8.683,8.683,0,0,1,1.357,4.28c.056.789.064,1.582.065,2.373q.011,5.443,0,10.888v.426h-5.852v-.382c0-4.172.007-8.344-.008-12.516a3.966,3.966,0,0,0-1.037-2.864,3.614,3.614,0,0,0-2.508-1.035,7.725,7.725,0,0,0-4.422,1.15.537.537,0,0,0-.3.538q.012,7.328.006,14.654Z" fill="#353636"/>
        <path id="Path_71424" data-name="Path 71424" d="M304.2,240.83h-3.446v-4.35H304.2v-.395c0-1.627.005-3.255,0-4.883,0-.237.072-.324.309-.381,1.836-.437,3.666-.892,5.536-1.351v6.991h6.8v4.361h-6.779c-.007.146-.016.246-.016.345,0,2.679-.005,5.358,0,8.037a3.805,3.805,0,0,0,.532,2.107,2.44,2.44,0,0,0,2.03,1.1,7.6,7.6,0,0,0,3.9-.707,1.389,1.389,0,0,1,.026.181c0,1.322,0,2.645.006,3.967a.361.361,0,0,1-.253.378,9.607,9.607,0,0,1-3.048.772,12.018,12.018,0,0,1-3.7-.088,5.97,5.97,0,0,1-4.991-4.844,15,15,0,0,1-.335-3.087c-.046-2.565-.016-5.132-.016-7.7Z" fill="#2f68af"/>
        <path id="Path_71425" data-name="Path 71425" d="M413.4,229.468v6.992h6.793v4.361h-6.778c-.007.146-.016.245-.016.344,0,2.679-.005,5.358,0,8.037a3.805,3.805,0,0,0,.532,2.107,2.435,2.435,0,0,0,2.029,1.1,8.093,8.093,0,0,0,3.91-.686c.007.1.02.2.02.294,0,1.254-.008,2.509.008,3.764a.444.444,0,0,1-.314.479A10.055,10.055,0,0,1,416.6,257a12.105,12.105,0,0,1-3.7-.089,5.969,5.969,0,0,1-4.993-4.842,15.069,15.069,0,0,1-.336-3.087c-.046-2.565-.015-5.132-.015-7.7v-.441H404.1v-4.361h3.446v-.394c0-1.628.005-3.255,0-4.883,0-.236.068-.326.307-.383C409.687,230.384,411.518,229.929,413.4,229.468Z" fill="#353636"/>
        <path id="Path_71426" data-name="Path 71426" d="M248.522,256.74h-5.774V236.5h5.774Z" fill="#2f68af"/>
        <path id="Path_71427" data-name="Path 71427" d="M370.165,236.493h5.784v20.241h-5.784Z" fill="#353636"/>
        <path id="Path_71428" data-name="Path 71428" d="M249.365,229.859a3.739,3.739,0,0,1-3.738,3.736,3.755,3.755,0,0,1,0-7.509A3.75,3.75,0,0,1,249.365,229.859Z" fill="#2f68af"/>
        <path id="Path_71429" data-name="Path 71429" d="M376.787,229.857a3.744,3.744,0,0,1-3.771,3.738,3.755,3.755,0,0,1,.033-7.509A3.751,3.751,0,0,1,376.787,229.857Z" fill="#353636"/>
      </g>
      <g id="Group_17282" data-name="Group 17282">
        <g id="Group_17280" data-name="Group 17280">
          <path id="Path_71430" data-name="Path 71430" d="M220.024,270.238l6.635,0h3.529v2.509h-6.944v3.924h5.879v2.517h-5.886v5.883h-3.213Z" fill="#353636"/>
          <path id="Path_71431" data-name="Path 71431" d="M256.2,278.728a7.96,7.96,0,0,0-.009-1.1,1.307,1.307,0,0,0-1.106-1.084,7.534,7.534,0,0,0-2.919.25,6.183,6.183,0,0,0-1.357.548.832.832,0,0,1-.106.047c-.009,0-.022,0-.044,0,0-.042-.008-.085-.008-.129,0-.656,0-1.313,0-1.97a.218.218,0,0,1,.124-.2,9.472,9.472,0,0,1,4.35-.854,5.938,5.938,0,0,1,1.4.167,3.246,3.246,0,0,1,2.586,2.793,5.985,5.985,0,0,1,.071.937c.006,1.992,0,3.985.005,5.978a.263.263,0,0,1-.147.238,8.046,8.046,0,0,1-2.747.786,16.708,16.708,0,0,1-1.962.1,6.358,6.358,0,0,1-2.819-.641,2.888,2.888,0,0,1-1.625-1.9,2.765,2.765,0,0,1,1.818-3.44,6.484,6.484,0,0,1,2.054-.471c.781-.049,1.565-.036,2.347-.051Zm.031,1.8c-.556,0-1.1-.036-1.629.012a4.066,4.066,0,0,0-1.151.291,1.113,1.113,0,0,0-.672,1.46,1.321,1.321,0,0,0,.989.829,4.083,4.083,0,0,0,2.373-.161c.044-.015.086-.109.086-.167.006-.628,0-1.255,0-1.883Z" fill="#353636"/>
          <path id="Path_71432" data-name="Path 71432" d="M295.781,278.728a7.8,7.8,0,0,0-.01-1.1,1.2,1.2,0,0,0-1.137-1.089,6.708,6.708,0,0,0-2.282.119,7.917,7.917,0,0,0-1.973.689c-.039.02-.082.033-.138.056,0-.06-.009-.1-.009-.146,0-.657,0-1.314,0-1.97a.192.192,0,0,1,.133-.2,9.441,9.441,0,0,1,4.3-.85,5.518,5.518,0,0,1,1.942.33,3.182,3.182,0,0,1,2.082,2.63,5.863,5.863,0,0,1,.071.936c.007,1.993,0,3.986.006,5.979a.222.222,0,0,1-.142.235,8.03,8.03,0,0,1-2.753.788,16.477,16.477,0,0,1-1.961.1,6.358,6.358,0,0,1-2.819-.641,2.885,2.885,0,0,1-1.625-1.9,2.764,2.764,0,0,1,1.817-3.44,6.545,6.545,0,0,1,2.055-.471c.78-.049,1.564-.036,2.347-.051Zm.03,1.754c-.581.019-1.142.022-1.7.06a2.739,2.739,0,0,0-1.237.359,1.1,1.1,0,0,0-.56,1.19,1.188,1.188,0,0,0,.841.959,3.9,3.9,0,0,0,2.586-.1.145.145,0,0,0,.067-.113C295.812,282.074,295.811,281.309,295.811,280.482Z" fill="#353636"/>
          <path id="Path_71433" data-name="Path 71433" d="M248.032,285.066h-2.955v-.2c0-2.1,0-4.2-.007-6.3a2.723,2.723,0,0,0-.127-.789,1.7,1.7,0,0,0-1.641-1.2,3.883,3.883,0,0,0-2.275.607.3.3,0,0,0-.123.212c-.012.308-.005.616-.005.925v6.742h-2.932l-.007-.007q0-4.386,0-8.771a.773.773,0,0,1,.35-.652,8.874,8.874,0,0,1,3.518-1.284,9.237,9.237,0,0,1,2.4-.062,4,4,0,0,1,3.091,1.7,4.386,4.386,0,0,1,.687,2.161c.028.393.032.787.033,1.181q0,2.758,0,5.516Z" fill="#353636"/>
          <path id="Path_71434" data-name="Path 71434" d="M268.629,285.058v-.217c0-2.1,0-4.2,0-6.3a1.993,1.993,0,0,0-.53-1.444,1.8,1.8,0,0,0-1.218-.513,3.9,3.9,0,0,0-2.328.611c-.1.062-.1.141-.1.232v7.636h-2.939v-.186q0-4.284,0-8.567a.809.809,0,0,1,.371-.689,8.909,8.909,0,0,1,3.492-1.27,9.414,9.414,0,0,1,2.412-.062,3.84,3.84,0,0,1,3.7,3.365,7.085,7.085,0,0,1,.1,1.107c.01,2.061.005,4.123.005,6.184v.117Z" fill="#353636"/>
          <path id="Path_71435" data-name="Path 71435" d="M282.207,277.345c-.269-.128-.508-.255-.757-.357a5.483,5.483,0,0,0-2.445-.407,3.14,3.14,0,0,0-1.576.473,2.381,2.381,0,0,0-1.007,1.467,4.675,4.675,0,0,0,.08,2.729,2.354,2.354,0,0,0,1.921,1.592,5.268,5.268,0,0,0,3.525-.584c.067-.035.132-.073.2-.108a.261.261,0,0,1,.049-.012c0,.05.011.1.011.146,0,.656,0,1.313,0,1.969a.24.24,0,0,1-.143.241,5.75,5.75,0,0,1-2.269.705,6.934,6.934,0,0,1-3.235-.356,4.78,4.78,0,0,1-3.2-3.783,6.314,6.314,0,0,1,.292-3.615,4.815,4.815,0,0,1,3.477-2.978,6.944,6.944,0,0,1,4.4.257c.674.27.674.27.674.976Z" fill="#353636"/>
          <path id="Path_71436" data-name="Path 71436" d="M306.643,282.623c0,.735,0,1.436-.005,2.138,0,.048-.066.113-.118.139a3.5,3.5,0,0,1-1.339.328,4.72,4.72,0,0,1-1.723-.141,2.543,2.543,0,0,1-1.825-1.932,5.621,5.621,0,0,1-.177-1.334c-.014-3.91-.009-7.821-.009-11.731v-.147h2.944v.243q0,5.634,0,11.269a3.882,3.882,0,0,0,.054.7.844.844,0,0,0,.869.732A2.7,2.7,0,0,0,306.643,282.623Z" fill="#353636"/>
          <path id="Path_71437" data-name="Path 71437" d="M232.4,274.839h2.919v10.226H232.4Z" fill="#353636"/>
          <path id="Path_71438" data-name="Path 71438" d="M287.3,285.068h-2.916V274.845H287.3Z" fill="#353636"/>
          <path id="Path_71439" data-name="Path 71439" d="M235.748,271.492a1.89,1.89,0,0,1-1.9,1.887,1.9,1.9,0,0,1,.017-3.792A1.894,1.894,0,0,1,235.748,271.492Z" fill="#353636"/>
          <path id="Path_71440" data-name="Path 71440" d="M287.731,271.494a1.889,1.889,0,0,1-1.89,1.885,1.9,1.9,0,0,1,.023-3.792A1.9,1.9,0,0,1,287.731,271.494Z" fill="#353636"/>
        </g>
        <g id="Group_17281" data-name="Group 17281">
          <path id="Path_71441" data-name="Path 71441" d="M399.964,285.784c.572.168,1.124.36,1.692.488a4.678,4.678,0,0,0,2.141-.01,1.966,1.966,0,0,0,1.622-1.771c.041-.3.049-.614.074-.948a.492.492,0,0,0-.1.037,4.4,4.4,0,0,1-2.923.873,4.45,4.45,0,0,1-4.484-3.864,5.613,5.613,0,0,1,.537-3.665,4.96,4.96,0,0,1,3.581-2.545,7.45,7.45,0,0,1,6.1,1.353.341.341,0,0,1,.16.3c-.005,2.451,0,4.9-.005,7.352a5.539,5.539,0,0,1-.724,2.927,4.419,4.419,0,0,1-3.052,2.06,7.7,7.7,0,0,1-4.232-.254c-.391-.142-.389-.147-.389-.548Zm5.46-6.525c0-.667,0-1.335,0-2a.319.319,0,0,0-.161-.3,2.959,2.959,0,0,0-1.677-.5,2.4,2.4,0,0,0-2.5,1.73,4.192,4.192,0,0,0,.014,2.518,1.927,1.927,0,0,0,1.2,1.35,2.826,2.826,0,0,0,3-.535.424.424,0,0,0,.121-.279C405.429,280.58,405.424,279.92,405.424,279.259Z" fill="#353636"/>
          <path id="Path_71442" data-name="Path 71442" d="M345.8,285.011h-2.919V269.96h2.916v5.027a12.089,12.089,0,0,1,1.341-.552,5.215,5.215,0,0,1,3.314.1,3.548,3.548,0,0,1,2.248,2.659,5.921,5.921,0,0,1,.17,1.345c.018,2.106.008,4.212.008,6.319v.152h-2.938v-.233c0-2.058,0-4.116,0-6.174a3.093,3.093,0,0,0-.1-.754,1.768,1.768,0,0,0-1.747-1.371,3.393,3.393,0,0,0-2.119.586.36.36,0,0,0-.178.339q.009,3.664,0,7.33Z" fill="#353636"/>
          <path id="Path_71443" data-name="Path 71443" d="M313.821,272.9H309.16v-2.645h12.51v2.647h-4.664v12.1h-3.185Z" fill="#353636"/>
          <path id="Path_71444" data-name="Path 71444" d="M372.338,274.2a5.618,5.618,0,0,1,3.556,1.155,4.8,4.8,0,0,1,1.693,2.775,6.264,6.264,0,0,1-.558,4.581,4.715,4.715,0,0,1-3.516,2.381,6.529,6.529,0,0,1-3.229-.22,4.563,4.563,0,0,1-2.965-2.827,6.3,6.3,0,0,1,.218-5.164,4.682,4.682,0,0,1,3.614-2.558C371.542,274.26,371.942,274.244,372.338,274.2Zm-2.455,5.5c.044.4.069.794.136,1.186a2.549,2.549,0,0,0,.686,1.429,2.265,2.265,0,0,0,1.767.6,2.021,2.021,0,0,0,1.993-1.393,5.555,5.555,0,0,0,.089-3.386,2.041,2.041,0,0,0-1.879-1.65,2.19,2.19,0,0,0-2.486,1.41A5.757,5.757,0,0,0,369.883,279.706Z" fill="#353636"/>
          <path id="Path_71445" data-name="Path 71445" d="M391.412,274.2a5.617,5.617,0,0,1,3.555,1.157,4.8,4.8,0,0,1,1.691,2.776,6.254,6.254,0,0,1-.571,4.6,4.716,4.716,0,0,1-3.506,2.361,6.541,6.541,0,0,1-3.229-.222,4.564,4.564,0,0,1-2.964-2.829,6.293,6.293,0,0,1,.221-5.164,4.677,4.677,0,0,1,3.616-2.555C390.616,274.26,391.016,274.244,391.412,274.2Zm-2.457,5.515c.043.389.068.78.133,1.165a2.56,2.56,0,0,0,.683,1.432,2.277,2.277,0,0,0,1.786.6,2.022,2.022,0,0,0,1.976-1.386,5.566,5.566,0,0,0,.093-3.387,2.043,2.043,0,0,0-1.874-1.655,2.193,2.193,0,0,0-2.49,1.4A5.712,5.712,0,0,0,388.955,279.72Z" fill="#353636"/>
          <path id="Path_71446" data-name="Path 71446" d="M323.5,280.325a2.855,2.855,0,0,0,2.438,2.55,5.819,5.819,0,0,0,3.908-.745c.078-.045.158-.088.237-.13.011-.006.027,0,.064,0v.979c0,.365,0,.73,0,1.1a.265.265,0,0,1-.15.263,5.846,5.846,0,0,1-2.587.812,8,8,0,0,1-2.768-.171,5.055,5.055,0,0,1-3.937-4.122,5.84,5.84,0,0,1,.191-3.351,4.849,4.849,0,0,1,3.71-3.131,5.529,5.529,0,0,1,3.664.343,4.4,4.4,0,0,1,2.505,3.4,7.3,7.3,0,0,1,0,2.056c-.019.181-.135.157-.253.157H323.5Zm4.833-1.794a2.179,2.179,0,0,0-2.249-2.253,2.3,2.3,0,0,0-2.588,2.253Z" fill="#353636"/>
          <path id="Path_71447" data-name="Path 71447" d="M355.217,285.013v-.259q0-4.335,0-8.671a.381.381,0,0,1,.192-.368,8.8,8.8,0,0,1,3.808-1.4,8.693,8.693,0,0,1,2.8.044,3.726,3.726,0,0,1,3.127,3.2,8.894,8.894,0,0,1,.1,1.272c.01,1.982,0,3.964,0,5.946v.229h-2.932v-.263c0-1.961,0-3.923,0-5.884a4.436,4.436,0,0,0-.086-.942,1.721,1.721,0,0,0-1.75-1.373,4.029,4.029,0,0,0-2.119.547.354.354,0,0,0-.208.356q.009,3.644,0,7.288v.27Z" fill="#353636"/>
          <path id="Path_71448" data-name="Path 71448" d="M340.867,282.09v.223c0,.606-.01,1.212.007,1.817a.355.355,0,0,1-.224.367,5.767,5.767,0,0,1-2.045.635,7.024,7.024,0,0,1-3.246-.3,4.794,4.794,0,0,1-3.319-3.973,6.371,6.371,0,0,1,.225-3.177,4.716,4.716,0,0,1,3.175-3.1,6.8,6.8,0,0,1,5.061.274c.019.008.038.018.057.025a.441.441,0,0,1,.318.5c-.026.639-.009,1.279-.009,1.96l-.21-.114a5.267,5.267,0,0,0-3.688-.54,2.341,2.341,0,0,0-1.832,1.739,4.706,4.706,0,0,0-.006,2.607,2.414,2.414,0,0,0,2.176,1.811,5.29,5.29,0,0,0,3.371-.651C340.731,282.153,340.787,282.129,340.867,282.09Z" fill="#353636"/>
          <path id="Path_71449" data-name="Path 71449" d="M379.844,269.943h2.82c.033,0,.066.006.118.01v.254q0,5.637,0,11.274a3.122,3.122,0,0,0,.081.734.8.8,0,0,0,.79.62,2.725,2.725,0,0,0,1.374-.254v.493c0,.51-.007,1.019,0,1.528a.238.238,0,0,1-.185.276,8.2,8.2,0,0,1-1.173.281,3.9,3.9,0,0,1-2.458-.4,2.64,2.64,0,0,1-1.24-1.877,7.073,7.073,0,0,1-.129-1.331q-.015-5.688-.006-11.378Z" fill="#353636"/>
          <path id="Path_71450" data-name="Path 71450" d="M416.314,286c.555-1.009-.306-1.284-.328-1.329l-2.038.1a2.738,2.738,0,0,1-3.054,1.682.809.809,0,0,0-.9.79v.691a1.141,1.141,0,0,0,1.163,1.13c.215,0,.484-.018.786-.046a4.5,4.5,0,0,0,1.039-.229C415.54,287.9,415.622,287.1,416.314,286Z" fill="#353636"/>
          <path id="Path_71451" data-name="Path 71451" d="M420.184,274.583h-2.945l-1.945,7.6-2.266-7.6h-2.942c-.006.043-.013.109-.013.109s3.015,8.8,3.818,9.949a.257.257,0,0,1,.021.311q-.82,1.587-1.631,3.18c-.036.071-.064.145-.106.238h1.7a5.822,5.822,0,0,0,2.285-2.51l.155.137C417.081,284.53,420.184,274.583,420.184,274.583Z" fill="#353636"/>
        </g>
      </g>
    </g>
  </g>
</svg>
