<svg id="Group_10263" data-name="Group 10263" xmlns="http://www.w3.org/2000/svg" width="118.954" height="36.651" viewBox="0 0 118.954 36.651">
  <path id="Path_64763" data-name="Path 64763" d="M886.989,60.057a1.335,1.335,0,1,1-1.335-1.312,1.324,1.324,0,0,1,1.335,1.312" transform="translate(-869.316 -37.95)" fill="#f6f9fc"/>
  <path id="Path_64764" data-name="Path 64764" d="M898.888,66.518a1.126,1.126,0,0,1-1.479.514,1.087,1.087,0,0,1-.287-1.517A1.124,1.124,0,0,1,898.6,65a1.086,1.086,0,0,1,.287,1.516" transform="translate(-870.971 -38.755)" fill="#f6f9fc"/>
  <path id="Path_64765" data-name="Path 64765" d="M897.246,53.438a1.228,1.228,0,0,1-1.661.438,1.185,1.185,0,0,1-.445-1.634A1.227,1.227,0,0,1,896.8,51.8a1.185,1.185,0,0,1,.445,1.634" transform="translate(-870.713 -37.019)" fill="#f6f9fc"/>
  <path id="Path_64766" data-name="Path 64766" d="M902.252,47.247c.235.558.137,1.128-.22,1.274s-.838-.188-1.073-.746-.137-1.128.22-1.274.838.188,1.073.746" transform="translate(-871.481 -36.341)" fill="#f6f9fc"/>
  <path id="Path_64767" data-name="Path 64767" d="M891.97,41.132c-.132.409-.745.582-1.369.388s-1.023-.685-.891-1.093.745-.583,1.369-.388,1.022.684.89,1.093" transform="translate(-870.02 -35.488)" fill="#f6f9fc"/>
  <path id="Path_64768" data-name="Path 64768" d="M883.261,34.813c-.224,0-.448.005-.67.013a18.874,18.874,0,0,1,11.662,4.531c-.042.1-.15.17-.412.042-.526-.258-2.437-1.908-12.532-1.7a2.406,2.406,0,0,0-2.059-.407c-1.146.219-1.961.967-1.822,1.671s1.181,1.1,2.327.876a2.933,2.933,0,0,0,1.315-.587.6.6,0,0,1,.391-.138c.971.016,4.552.028,4.552.028a2.786,2.786,0,0,1,3.071.07c1.473,1.112,1.382,2.349-.467,2.631a2.578,2.578,0,0,1-2.451-.747.43.43,0,0,0-.339-.149c-1.521.032-10.264.213-14.2,1.585,0,0-.826-.971-2.28.794s-.414,2.719.215,2.436a16.934,16.934,0,0,0,1.615-1.148,112.145,112.145,0,0,1,15.658-.865c5.458.247,8.368.679,8.646.671a1.089,1.089,0,0,0,.354-.153,1.042,1.042,0,0,1,.1-.073c.644-.4,1.7.084,2.349,1.09s.66,2.149.016,2.554-1.648-.064-2.3-1.024c-.881-.4-3.86-.694-20.328-.592,0,0-2.024-1.99-3.8.808a2.357,2.357,0,0,0-.371,1.429c.191,2.572,3.2,1.846,3.808.834,0,0-.071-.164.982-.153.984.011,12.644,0,14.176,0a.425.425,0,0,0,.277-.1,2.9,2.9,0,0,1,2.013-.767A2.371,2.371,0,0,1,892.6,53a2.171,2.171,0,0,1-1.289-.426,3.433,3.433,0,0,1-.572-.434.36.36,0,0,0-.244-.1l-12.427.023s-1.709-2.076-3.552-.548a2.859,2.859,0,0,0-1.042,1.9,2.7,2.7,0,0,0,2.7,2.95,2.336,2.336,0,0,0,1.771-.91.306.306,0,0,1,.237-.115h2.973a2.766,2.766,0,0,1,2.031-1.12,2.018,2.018,0,0,1,.981.1,2.719,2.719,0,0,1,1.985,2.6c0,.022,0,.042,0,.063a2.208,2.208,0,0,1-.583,1.607,2.783,2.783,0,0,1-4.438-.123c-.568-.074-6.208-.356-12.146-.952,0,0-1.25-2.125-1.8-.537a2.452,2.452,0,0,0-.078,1.245c.437,2.4,1.422,2.608,2.251,1.694a33.327,33.327,0,0,0,5.817.965c4.119.467,15.173.385,17.049.368a.585.585,0,0,0,.416-.181,2.069,2.069,0,0,1,2.615-.965c.022.013.042.029.063.043l.02.014a2.067,2.067,0,0,1,.223,2.762,2.264,2.264,0,0,1-.421.546,1.909,1.909,0,0,1-2.271.538,1.342,1.342,0,0,1-.315-.263c-.024-.016-.049-.03-.072-.047a.777.777,0,0,0-.545-.148,59.962,59.962,0,0,1-8.555.317c-4.74-.1-5.846-.1-6.1-.091a.184.184,0,0,1-.13-.049c-.316-.288-1.926-1.654-3.16-.62a1.442,1.442,0,0,0-.378,1.67,2.74,2.74,0,0,0,3.786,1.439.334.334,0,0,1,.158-.033c.959.036,9.948.377,11.732.544,1.65.155,3.327.7,2.121,2.054a2.575,2.575,0,0,1-.7.63c-1.915,1.042-4.432,1.793-11.414,1.713l.692.295c6.94.259,9.84-.556,12.581-2.095a18.407,18.407,0,0,0,9.48-16.045,18.622,18.622,0,0,0-18.776-18.464m-3.6,4.291c-.552.105-1.053-.083-1.121-.422s.326-.7.878-.8,1.053.083,1.12.422-.326.7-.877.8m-9.147,5.17c-.272.408-.694.607-.943.447s-.23-.621.042-1.028.694-.607.943-.447.23.621-.042,1.028m3.768,3.915a.911.911,0,0,1-1.132.565.885.885,0,0,1-.33-1.206.913.913,0,0,1,1.133-.566.885.885,0,0,1,.329,1.207m1.621,6.736a1.165,1.165,0,1,1,1.185-1.165,1.175,1.175,0,0,1-1.185,1.165m-7.5,4.447c-.184.054-.45-.288-.6-.765s-.114-.907.07-.961.45.288.594.766.114.906-.07.96m7.943,5.981a.956.956,0,0,1-1.294-.094c-.452-.366-.6-.917-.341-1.231a.958.958,0,0,1,1.294.094c.452.366.6.917.341,1.231" transform="translate(-867.053 -34.813)" fill="#f6f9fc"/>
  <path id="Path_64769" data-name="Path 64769" d="M912.908,42.167h2.507v9.551h5.1v2.058h-7.608Z" transform="translate(-873.064 -35.777)" fill="#f6f9fc"/>
  <path id="Path_64770" data-name="Path 64770" d="M961.354,53.741h-2.508V53.6q0-5.408,0-10.815c0-.118.043-.158.148-.192a11.982,11.982,0,0,1,2.41-.576,9.043,9.043,0,0,1,3.669.2,3.709,3.709,0,0,1,2.217,1.644,3.8,3.8,0,0,1,.506,2.025,3.643,3.643,0,0,1-2.429,3.465,6.669,6.669,0,0,1-2.411.475c-.526.01-1.051-.023-1.6-.037v3.954Zm0-5.9c.207.017.4.038.594.049a5.468,5.468,0,0,0,1.732-.1,2.057,2.057,0,0,0,1.375-1.009,2.151,2.151,0,0,0,.192-1.291,1.539,1.539,0,0,0-1.035-1.384,3.706,3.706,0,0,0-.9-.182,6.85,6.85,0,0,0-1.959.149Z" transform="translate(-879.085 -35.745)" fill="#f6f9fc"/>
  <path id="Path_64771" data-name="Path 64771" d="M929.269,56.561V54.81c.2.079.39.162.585.229a4.536,4.536,0,0,0,2.343.2,1.565,1.565,0,0,0,1.343-1.373c.033-.229.04-.461.057-.693a.547.547,0,0,0,0-.066,5.372,5.372,0,0,1-.844.445,3.811,3.811,0,0,1-3.912-.654,3.487,3.487,0,0,1-1.111-2.052,4.436,4.436,0,0,1,.158-2.415,3.8,3.8,0,0,1,2.813-2.486,5.781,5.781,0,0,1,5.074,1.037.231.231,0,0,1,.083.161c0,1.984.009,3.968,0,5.952a4.139,4.139,0,0,1-.577,2.188,3.464,3.464,0,0,1-2.3,1.581,6.21,6.21,0,0,1-3.173-.1c-.185-.055-.361-.138-.536-.206m4.278-6.849c0-.518,0-1.037,0-1.554a.272.272,0,0,0-.141-.261,2.386,2.386,0,0,0-1.662-.355,1.812,1.812,0,0,0-1.554,1.192,3.173,3.173,0,0,0-.138,1.727,1.717,1.717,0,0,0,1.648,1.6,2.168,2.168,0,0,0,1.761-.573.282.282,0,0,0,.079-.182c.006-.532,0-1.063,0-1.594" transform="translate(-874.994 -36.248)" fill="#f6f9fc"/>
  <path id="Path_64772" data-name="Path 64772" d="M941.5,53.737h-2.292V41.9H941.5v3.993a.329.329,0,0,0,.075-.021,3.582,3.582,0,0,1,1.687-.582,4.161,4.161,0,0,1,1.825.184,2.834,2.834,0,0,1,1.834,2.067,4.59,4.59,0,0,1,.144,1.206q0,2.433,0,4.866c0,.039,0,.077-.007.123h-2.292v-.162q0-2.379,0-4.758a2.262,2.262,0,0,0-.185-.991,1.333,1.333,0,0,0-1.139-.778,2.6,2.6,0,0,0-1.816.46.249.249,0,0,0-.121.231q.005,2.909,0,5.817Z" transform="translate(-876.512 -35.742)" fill="#f6f9fc"/>
  <path id="Path_64773" data-name="Path 64773" d="M969.587,50.1a4.819,4.819,0,0,1,.549-2.337,3.652,3.652,0,0,1,2.321-1.813,5.115,5.115,0,0,1,2.976.048,3.614,3.614,0,0,1,2.4,2.311,4.973,4.973,0,0,1-.114,3.8,3.656,3.656,0,0,1-2.732,2.158,5.081,5.081,0,0,1-2.765-.147,3.711,3.711,0,0,1-2.447-2.634,5.28,5.28,0,0,1-.187-1.385m6.182.033a4.493,4.493,0,0,0-.168-1.331,1.689,1.689,0,0,0-.856-1.09,2.03,2.03,0,0,0-1.061-.172,1.6,1.6,0,0,0-1.4.876,3.183,3.183,0,0,0-.32,1.342,4.354,4.354,0,0,0,.17,1.6,1.667,1.667,0,0,0,.871,1.062,2.082,2.082,0,0,0,1.1.165,1.563,1.563,0,0,0,1.336-.877,3.582,3.582,0,0,0,.323-1.576" transform="translate(-880.494 -36.248)" fill="#f6f9fc"/>
  <path id="Path_64774" data-name="Path 64774" d="M988.5,54.244h-2.3V54.1q0-3.459,0-6.917a.227.227,0,0,1,.114-.218,6.919,6.919,0,0,1,2.915-1.11,7.273,7.273,0,0,1,1.873-.049,3.127,3.127,0,0,1,2.418,1.332,3.437,3.437,0,0,1,.537,1.692c.022.311.025.625.025.938q0,2.151,0,4.3v.169h-2.313v-.151c0-1.648,0-3.3,0-4.947a1.569,1.569,0,0,0-.409-1.131,1.43,1.43,0,0,0-.991-.409,3.056,3.056,0,0,0-1.748.454.213.213,0,0,0-.12.213q.005,2.895,0,5.791Z" transform="translate(-882.671 -36.249)" fill="#f6f9fc"/>
  <path id="Path_64775" data-name="Path 64775" d="M950.991,47.61h-1.362V45.89h1.362v-.156c0-.643,0-1.287,0-1.93,0-.094.028-.129.122-.151.726-.173,1.449-.352,2.188-.534v2.763h2.688v1.723h-2.679c0,.058-.006.1-.006.136q0,1.589,0,3.177a1.5,1.5,0,0,0,.21.832.963.963,0,0,0,.8.433,3,3,0,0,0,1.542-.279.66.66,0,0,1,.01.071c0,.523,0,1.045,0,1.568a.143.143,0,0,1-.1.149,3.788,3.788,0,0,1-1.205.306,4.777,4.777,0,0,1-1.463-.035,2.358,2.358,0,0,1-1.973-1.914A5.925,5.925,0,0,1,951,50.83c-.018-1.013-.006-2.028-.006-3.042Z" transform="translate(-877.877 -35.902)" fill="#f6f9fc"/>
  <path id="Path_64776" data-name="Path 64776" d="M1000.308,43.119v2.763h2.685v1.724h-2.679c0,.057-.006.1-.006.136,0,1.059,0,2.118,0,3.177a1.508,1.508,0,0,0,.209.832.965.965,0,0,0,.8.434,3.206,3.206,0,0,0,1.546-.271c0,.041.008.078.008.116,0,.5,0,.992,0,1.488a.176.176,0,0,1-.124.189,3.972,3.972,0,0,1-1.181.293,4.783,4.783,0,0,1-1.464-.035,2.358,2.358,0,0,1-1.973-1.913A5.858,5.858,0,0,1,998,50.831c-.018-1.013-.006-2.028-.006-3.042v-.175h-1.363V45.891H998v-.156c0-.644,0-1.287,0-1.93,0-.093.027-.129.122-.151.725-.173,1.449-.353,2.192-.535" transform="translate(-884.039 -35.902)" fill="#f6f9fc"/>
  <rect id="Rectangle_7958" data-name="Rectangle 7958" width="2.282" height="8.001" transform="translate(48.825 9.995)" fill="#f6f9fc"/>
  <rect id="Rectangle_7959" data-name="Rectangle 7959" width="2.286" height="8" transform="translate(99.182 9.994)" fill="#f6f9fc"/>
  <path id="Path_64777" data-name="Path 64777" d="M925.809,43.072a1.478,1.478,0,0,1-1.477,1.476,1.484,1.484,0,0,1,0-2.967,1.482,1.482,0,0,1,1.476,1.491" transform="translate(-874.368 -35.7)" fill="#f6f9fc"/>
  <path id="Path_64778" data-name="Path 64778" d="M983.765,43.071a1.479,1.479,0,0,1-1.49,1.477,1.484,1.484,0,0,1,.013-2.967,1.483,1.483,0,0,1,1.477,1.49" transform="translate(-881.965 -35.7)" fill="#f6f9fc"/>
  <path id="Path_64779" data-name="Path 64779" d="M912.908,61.663h4.017v.992h-2.744v1.55H916.5V65.2h-2.326v2.325h-1.271Z" transform="translate(-873.064 -38.333)" fill="#f6f9fc"/>
  <path id="Path_64780" data-name="Path 64780" d="M928.98,65.257a3.138,3.138,0,0,0,0-.434.518.518,0,0,0-.437-.428,2.982,2.982,0,0,0-1.154.1,2.451,2.451,0,0,0-.536.217l-.042.018a.079.079,0,0,1-.017,0c0-.017,0-.034,0-.051,0-.259,0-.519,0-.779a.088.088,0,0,1,.049-.078,3.739,3.739,0,0,1,1.719-.337,2.319,2.319,0,0,1,.554.066,1.282,1.282,0,0,1,1.022,1.1,2.391,2.391,0,0,1,.029.37c0,.788,0,1.575,0,2.363a.1.1,0,0,1-.058.094,3.166,3.166,0,0,1-1.085.311,6.606,6.606,0,0,1-.775.038,2.517,2.517,0,0,1-1.115-.254,1.142,1.142,0,0,1-.642-.752,1.092,1.092,0,0,1,.719-1.36,2.57,2.57,0,0,1,.812-.186c.308-.019.619-.015.928-.02h.037m.012.71c-.22,0-.434-.015-.644.005a1.587,1.587,0,0,0-.454.115.439.439,0,0,0-.266.577.522.522,0,0,0,.391.328,1.615,1.615,0,0,0,.938-.064c.017-.005.034-.043.034-.065,0-.249,0-.5,0-.745Z" transform="translate(-874.838 -38.571)" fill="#f6f9fc"/>
  <path id="Path_64781" data-name="Path 64781" d="M946.982,65.257a3.137,3.137,0,0,0,0-.434.476.476,0,0,0-.45-.43,2.641,2.641,0,0,0-.9.047,3.107,3.107,0,0,0-.78.273c-.016.008-.032.013-.055.022,0-.023,0-.041,0-.058,0-.259,0-.519,0-.779a.076.076,0,0,1,.052-.08,3.723,3.723,0,0,1,1.7-.335,2.153,2.153,0,0,1,.767.13,1.256,1.256,0,0,1,.823,1.039,2.422,2.422,0,0,1,.029.37c0,.787,0,1.575,0,2.363a.088.088,0,0,1-.056.093,3.18,3.18,0,0,1-1.088.312,6.424,6.424,0,0,1-.775.037,2.5,2.5,0,0,1-1.115-.253,1.142,1.142,0,0,1-.642-.752,1.093,1.093,0,0,1,.719-1.36,2.572,2.572,0,0,1,.812-.187c.308-.019.619-.014.928-.019h.037m.012.693c-.229.008-.452.009-.672.023a1.089,1.089,0,0,0-.489.143.435.435,0,0,0-.222.47.471.471,0,0,0,.333.379,1.54,1.54,0,0,0,1.022-.039.057.057,0,0,0,.027-.044c0-.3,0-.6,0-.931" transform="translate(-877.198 -38.571)" fill="#f6f9fc"/>
  <path id="Path_64782" data-name="Path 64782" d="M925.047,67.761h-1.169v-.077c0-.831,0-1.661,0-2.491a1.065,1.065,0,0,0-.05-.312.671.671,0,0,0-.647-.475,1.531,1.531,0,0,0-.9.24.112.112,0,0,0-.048.083c-.006.122,0,.244,0,.366v2.665h-1.157l0,0q0-1.732,0-3.466a.3.3,0,0,1,.138-.257,3.487,3.487,0,0,1,1.39-.507,3.639,3.639,0,0,1,.947-.025,1.582,1.582,0,0,1,1.222.673,1.722,1.722,0,0,1,.27.854c.011.155.013.311.013.467q0,1.09,0,2.18Z" transform="translate(-874.133 -38.571)" fill="#f6f9fc"/>
  <path id="Path_64783" data-name="Path 64783" d="M934.591,67.759v-.086c0-.83,0-1.66,0-2.491a.786.786,0,0,0-.209-.571.713.713,0,0,0-.481-.2,1.537,1.537,0,0,0-.92.242c-.041.024-.038.056-.038.091V67.76h-1.162v-.074q0-1.693,0-3.386a.321.321,0,0,1,.146-.272,3.531,3.531,0,0,1,1.381-.5,3.726,3.726,0,0,1,.953-.024,1.518,1.518,0,0,1,1.462,1.33,2.734,2.734,0,0,1,.037.437c0,.815,0,1.629,0,2.444v.046Z" transform="translate(-875.537 -38.571)" fill="#f6f9fc"/>
  <path id="Path_64784" data-name="Path 64784" d="M940.656,64.709c-.106-.05-.2-.1-.3-.142a2.188,2.188,0,0,0-.966-.161,1.247,1.247,0,0,0-.623.188.937.937,0,0,0-.4.58,1.848,1.848,0,0,0,.031,1.078.93.93,0,0,0,.759.629,2.086,2.086,0,0,0,1.394-.23l.077-.043.02,0c0,.02,0,.039,0,.057,0,.26,0,.52,0,.779a.1.1,0,0,1-.057.1,2.3,2.3,0,0,1-.9.279,2.744,2.744,0,0,1-1.278-.142,1.889,1.889,0,0,1-1.263-1.495,2.5,2.5,0,0,1,.115-1.429,1.9,1.9,0,0,1,1.374-1.177,2.74,2.74,0,0,1,1.738.1c.267.107.267.107.267.386Z" transform="translate(-876.236 -38.57)" fill="#f6f9fc"/>
  <path id="Path_64785" data-name="Path 64785" d="M952,66.54c0,.29,0,.567,0,.845,0,.019-.027.045-.047.056a1.394,1.394,0,0,1-.529.129,1.876,1.876,0,0,1-.681-.056,1.006,1.006,0,0,1-.721-.764,2.206,2.206,0,0,1-.07-.527c-.006-1.545,0-3.091,0-4.637v-.057h1.163v.1q0,2.227,0,4.454a1.539,1.539,0,0,0,.021.275.333.333,0,0,0,.343.289,1.068,1.068,0,0,0,.525-.1" transform="translate(-877.919 -38.315)" fill="#f6f9fc"/>
  <rect id="Rectangle_7960" data-name="Rectangle 7960" width="1.154" height="4.041" transform="translate(44.737 25.148)" fill="#f6f9fc"/>
  <rect id="Rectangle_7961" data-name="Rectangle 7961" width="1.152" height="4.04" transform="translate(65.282 25.151)" fill="#f6f9fc"/>
  <path id="Path_64786" data-name="Path 64786" d="M919.835,62.119a.746.746,0,0,1-.752.746.749.749,0,0,1,.007-1.5.749.749,0,0,1,.745.752" transform="translate(-873.776 -38.294)" fill="#f6f9fc"/>
  <path id="Path_64787" data-name="Path 64787" d="M943.479,62.12a.746.746,0,0,1-.746.745.749.749,0,0,1,.009-1.5.748.748,0,0,1,.738.753" transform="translate(-876.876 -38.294)" fill="#f6f9fc"/>
  <path id="Path_64788" data-name="Path 64788" d="M994.628,68.044c.227.066.445.142.669.193a1.856,1.856,0,0,0,.846,0,.776.776,0,0,0,.64-.7c.016-.121.02-.243.03-.375a.2.2,0,0,0-.039.015,1.735,1.735,0,0,1-1.156.345,1.758,1.758,0,0,1-1.772-1.527,2.218,2.218,0,0,1,.212-1.448,1.961,1.961,0,0,1,1.415-1.006,2.943,2.943,0,0,1,2.411.535.134.134,0,0,1,.063.121c0,.968,0,1.937,0,2.9a2.188,2.188,0,0,1-.287,1.157,1.743,1.743,0,0,1-1.206.813,3.039,3.039,0,0,1-1.673-.1c-.155-.056-.154-.058-.154-.216Zm2.158-2.579c0-.264,0-.527,0-.792a.127.127,0,0,0-.063-.119,1.166,1.166,0,0,0-.663-.2.949.949,0,0,0-.99.684,1.662,1.662,0,0,0,.005,1,.761.761,0,0,0,.473.533,1.117,1.117,0,0,0,1.187-.211.166.166,0,0,0,.047-.11c0-.261,0-.522,0-.783" transform="translate(-883.669 -38.57)" fill="#f6f9fc"/>
  <path id="Path_64789" data-name="Path 64789" d="M969.94,67.485h-1.154V61.536h1.153v1.987a4.534,4.534,0,0,1,.53-.218,2.06,2.06,0,0,1,1.31.038,1.4,1.4,0,0,1,.888,1.051,2.331,2.331,0,0,1,.068.531c.007.832,0,1.665,0,2.5v.061h-1.162v-.092c0-.813,0-1.627,0-2.44a1.243,1.243,0,0,0-.037-.3.7.7,0,0,0-.691-.541,1.345,1.345,0,0,0-.838.231.145.145,0,0,0-.07.135q0,1.448,0,2.9Z" transform="translate(-880.389 -38.316)" fill="#f6f9fc"/>
  <path id="Path_64790" data-name="Path 64790" d="M955.293,62.718h-1.842V61.673H958.4v1.046h-1.844V67.5h-1.258Z" transform="translate(-878.378 -38.334)" fill="#f6f9fc"/>
  <path id="Path_64791" data-name="Path 64791" d="M981.861,63.467a2.226,2.226,0,0,1,1.405.456,1.9,1.9,0,0,1,.669,1.1,2.474,2.474,0,0,1-.221,1.811,1.863,1.863,0,0,1-1.389.941,2.576,2.576,0,0,1-1.276-.087,1.8,1.8,0,0,1-1.172-1.117,2.491,2.491,0,0,1,.087-2.041,1.85,1.85,0,0,1,1.428-1.011c.155-.027.313-.033.469-.049m-.971,2.174c.017.156.027.314.054.468a1,1,0,0,0,.271.566.9.9,0,0,0,.7.236.8.8,0,0,0,.788-.551,2.192,2.192,0,0,0,.035-1.338.805.805,0,0,0-.742-.652.866.866,0,0,0-.983.557,2.261,2.261,0,0,0-.121.713" transform="translate(-881.819 -38.569)" fill="#f6f9fc"/>
  <path id="Path_64792" data-name="Path 64792" d="M990.536,63.467a2.223,2.223,0,0,1,1.405.458,1.9,1.9,0,0,1,.668,1.1,2.47,2.47,0,0,1-.226,1.818,1.863,1.863,0,0,1-1.386.933,2.587,2.587,0,0,1-1.276-.088,1.8,1.8,0,0,1-1.171-1.118,2.484,2.484,0,0,1,.088-2.04,1.849,1.849,0,0,1,1.429-1.011c.155-.026.312-.033.469-.049m-.971,2.18c.017.154.027.308.053.461a1.016,1.016,0,0,0,.269.566.9.9,0,0,0,.706.238.8.8,0,0,0,.782-.547,2.2,2.2,0,0,0,.036-1.338.808.808,0,0,0-.741-.654.865.865,0,0,0-.984.554,2.254,2.254,0,0,0-.122.721" transform="translate(-882.956 -38.569)" fill="#f6f9fc"/>
  <path id="Path_64793" data-name="Path 64793" d="M959.8,65.887a1.128,1.128,0,0,0,.964,1.008A2.3,2.3,0,0,0,962.3,66.6c.031-.018.063-.035.094-.051,0,0,.01,0,.025,0v.388c0,.144,0,.288,0,.433a.1.1,0,0,1-.059.1,2.307,2.307,0,0,1-1.022.322,3.177,3.177,0,0,1-1.095-.068,2,2,0,0,1-1.555-1.629,2.306,2.306,0,0,1,.076-1.324,1.915,1.915,0,0,1,1.466-1.237,2.18,2.18,0,0,1,1.448.136,1.738,1.738,0,0,1,.99,1.342,2.9,2.9,0,0,1,0,.813c-.008.071-.053.062-.1.062H959.8m1.91-.709a.861.861,0,0,0-.889-.891.909.909,0,0,0-1.023.891Z" transform="translate(-879.057 -38.57)" fill="#f6f9fc"/>
  <path id="Path_64794" data-name="Path 64794" d="M974.4,67.74v-.1q0-1.713,0-3.426a.152.152,0,0,1,.076-.146,3.72,3.72,0,0,1,2.61-.535,1.473,1.473,0,0,1,1.236,1.268,3.353,3.353,0,0,1,.041.5c0,.784,0,1.567,0,2.35v.09H977.2v-.1c0-.775,0-1.55,0-2.325a1.671,1.671,0,0,0-.034-.373.678.678,0,0,0-.692-.542,1.592,1.592,0,0,0-.837.215.14.14,0,0,0-.083.141q0,1.44,0,2.88v.107Z" transform="translate(-881.124 -38.57)" fill="#f6f9fc"/>
  <path id="Path_64795" data-name="Path 64795" d="M967.339,66.584v.088c0,.24,0,.48,0,.719a.141.141,0,0,1-.089.145,2.288,2.288,0,0,1-.808.251,2.785,2.785,0,0,1-1.283-.121,1.894,1.894,0,0,1-1.311-1.57,2.527,2.527,0,0,1,.089-1.256,1.867,1.867,0,0,1,1.255-1.227,2.69,2.69,0,0,1,2,.109l.022.01a.175.175,0,0,1,.126.2c-.01.253,0,.506,0,.775l-.083-.045a2.081,2.081,0,0,0-1.457-.214.925.925,0,0,0-.724.687,1.857,1.857,0,0,0,0,1.031.954.954,0,0,0,.86.716,2.089,2.089,0,0,0,1.332-.257c.021-.012.043-.021.075-.036" transform="translate(-879.736 -38.57)" fill="#f6f9fc"/>
  <path id="Path_64796" data-name="Path 64796" d="M985.6,61.529h1.115l.046,0v.1q0,2.227,0,4.456a1.261,1.261,0,0,0,.032.29.317.317,0,0,0,.312.245,1.081,1.081,0,0,0,.543-.1v.2c0,.2,0,.4,0,.6,0,.058-.018.095-.073.109a3.216,3.216,0,0,1-.464.111,1.539,1.539,0,0,1-.971-.158,1.046,1.046,0,0,1-.49-.742,2.811,2.811,0,0,1-.05-.526c0-1.5,0-3,0-4.5Z" transform="translate(-882.593 -38.315)" fill="#f6f9fc"/>
  <path id="Path_64797" data-name="Path 64797" d="M1001.811,68.751c.22-.4-.121-.507-.129-.525l-.805.04a1.082,1.082,0,0,1-1.207.665.32.32,0,0,0-.354.312v.274a.451.451,0,0,0,.46.447c.085,0,.191-.007.31-.018a1.792,1.792,0,0,0,.411-.09,1.841,1.841,0,0,0,1.315-1.1" transform="translate(-884.391 -39.193)" fill="#f6f9fc"/>
  <path id="Path_64798" data-name="Path 64798" d="M1003.345,63.639h-1.163l-.769,3-.9-3h-1.163c0,.017-.005.043-.005.043s1.192,3.478,1.509,3.933a.1.1,0,0,1,.009.123c-.217.419-.431.838-.645,1.257-.015.028-.026.057-.042.094h.671a2.293,2.293,0,0,0,.9-.991l.062.054c.3-.58,1.529-4.511,1.529-4.511" transform="translate(-884.395 -38.592)" fill="#f6f9fc"/>
</svg>
