<svg xmlns="http://www.w3.org/2000/svg" width="705.781" height="650.783" viewBox="0 0 705.781 650.783">
  <g id="Group_17308" data-name="Group 17308" transform="translate(-733.953 48.193)">
    <path id="Path_71535" data-name="Path 71535" d="M1114.413,190.824l-70.247,40.736v80.959l70.247,40.992,70.711-40.992V231.56Z" transform="translate(-98.516 -75.844)" fill="none" stroke="#dbdbdb" stroke-miterlimit="10" stroke-width="1"/>
    <path id="Path_71536" data-name="Path 71536" d="M1321.122,190.824l-70.247,40.736v80.959l70.247,40.992,70.711-40.992V231.56Z" transform="translate(-164.267 -75.844)" fill="none" stroke="#dbdbdb" stroke-miterlimit="10" stroke-width="1"/>
    <path id="Path_71537" data-name="Path 71537" d="M1527.831,190.824l-70.247,40.736v80.959l70.247,40.992,70.711-40.992V231.56Z" transform="translate(-230.018 -75.844)" fill="none" stroke="#dbdbdb" stroke-miterlimit="10" stroke-width="1"/>
    <path id="Path_71538" data-name="Path 71538" d="M1115.1,547.74l-70.247,40.736v80.959l70.247,40.992,70.711-40.992V588.475Z" transform="translate(-98.735 -189.374)" fill="none" stroke="#dbdbdb" stroke-miterlimit="10" stroke-width="1"/>
    <path id="Path_71539" data-name="Path 71539" d="M1321.122,548.115l-70.247,40.736v80.959l70.247,40.992,70.711-40.992V588.85Z" transform="translate(-164.266 -189.493)" fill="none" stroke="#dbdbdb" stroke-miterlimit="10" stroke-width="1"/>
    <path id="Path_71540" data-name="Path 71540" d="M1527.831,548.115l-70.247,40.736V669.81l70.247,40.992,70.711-40.992V588.851Z" transform="translate(-230.018 -189.493)" fill="none" stroke="#dbdbdb" stroke-miterlimit="10" stroke-width="1"/>
    <path id="Path_71541" data-name="Path 71541" d="M1011.4,369.279l-70.247,40.736v80.959l70.247,40.992,70.711-40.992V410.015Z" transform="translate(-65.75 -132.608)" fill="none" stroke="#dbdbdb" stroke-miterlimit="10" stroke-width="1"/>
    <path id="Path_71542" data-name="Path 71542" d="M804.7,488l-70.247,40.736v80.959L804.7,650.682l70.711-40.992V528.732Z" transform="translate(0 -170.37)" fill="none" stroke="#dbdbdb" stroke-miterlimit="10" stroke-width="1"/>
    <path id="Path_71543" data-name="Path 71543" d="M908.392,428.409l-70.247,40.736V550.1L908.392,591.1,979.1,550.1V469.145Z" transform="translate(-32.983 -151.417)" fill="none" stroke="#dbdbdb" stroke-miterlimit="10" stroke-width="1"/>
    <path id="Path_71544" data-name="Path 71544" d="M1115.1,309.7l-70.247,40.736v80.959l70.247,40.992,70.711-40.992V350.432Z" transform="translate(-98.735 -113.656)" fill="none" stroke="#dbdbdb" stroke-miterlimit="10" stroke-width="1"/>
    <path id="Path_71545" data-name="Path 71545" d="M1011.4,131.242l-70.247,40.736v80.959l70.247,40.992,70.711-40.992V171.978Z" transform="translate(-65.75 -56.892)" fill="none" stroke="#dbdbdb" stroke-miterlimit="10" stroke-width="1"/>
    <path id="Path_71546" data-name="Path 71546" d="M1218.113,131.242l-70.247,40.736v80.959l70.247,40.992,70.711-40.992V171.978Z" transform="translate(-131.501 -56.892)" fill="none" stroke="#dbdbdb" stroke-miterlimit="10" stroke-width="1"/>
    <path id="Path_71547" data-name="Path 71547" d="M1321.467-47.616,1251.221-6.88V74.079l70.247,40.992,70.711-40.992V-6.88Z" transform="translate(-164.376)" fill="none" stroke="#dbdbdb" stroke-miterlimit="10" stroke-width="1"/>
    <path id="Path_71548" data-name="Path 71548" d="M1528.176-47.616,1457.93-6.88V74.079l70.247,40.992,70.711-40.992V-6.88Z" transform="translate(-230.127)" fill="none" stroke="#dbdbdb" stroke-miterlimit="10" stroke-width="1"/>
    <path id="Path_71549" data-name="Path 71549" d="M1528.176,190.824,1457.93,231.56v80.959l70.247,40.992,70.711-40.992V231.56Z" transform="translate(-230.127 -75.844)" fill="none" stroke="#dbdbdb" stroke-miterlimit="10" stroke-width="1"/>
    <path id="Path_71550" data-name="Path 71550" d="M1424.477,249.993l-70.247,40.736v80.959l70.247,40.992,70.711-40.992V290.728Z" transform="translate(-197.142 -94.665)" fill="none" stroke="#dbdbdb" stroke-miterlimit="10" stroke-width="1"/>
    <path id="Path_71551" data-name="Path 71551" d="M1631.185,249.993l-70.247,40.736v80.959l70.247,40.992,70.711-40.992V290.728Z" transform="translate(-262.893 -94.665)" fill="none" stroke="#dbdbdb" stroke-miterlimit="10" stroke-width="1"/>
    <path id="Path_71552" data-name="Path 71552" d="M1424.823,488l-70.247,40.736V609.7l70.247,40.992,70.711-40.992V528.739Z" transform="translate(-197.252 -170.373)" fill="none" stroke="#dbdbdb" stroke-miterlimit="10" stroke-width="1"/>
    <path id="Path_71553" data-name="Path 71553" d="M1424.825,606.729l-70.247,40.736v80.959l70.247,40.992,70.711-40.992V647.465Z" transform="translate(-197.253 -208.138)" fill="none" stroke="#dbdbdb" stroke-miterlimit="10" stroke-width="1"/>
    <path id="Path_71554" data-name="Path 71554" d="M1528.514,666.462,1458.267,707.2v80.959l70.247,40.992,70.711-40.992V707.2Z" transform="translate(-230.235 -227.138)" fill="none" stroke="#dbdbdb" stroke-miterlimit="10" stroke-width="1"/>
    <path id="Path_71555" data-name="Path 71555" d="M1631.524,607.853l-70.247,40.736v80.959l70.247,40.992,70.711-40.992V648.589Z" transform="translate(-263.001 -208.495)" fill="none" stroke="#dbdbdb" stroke-miterlimit="10" stroke-width="1"/>
    <path id="Path_71556" data-name="Path 71556" d="M1527.831,548.112l-70.247,40.736v80.959l70.247,40.992,70.711-40.992V588.848Z" transform="translate(-230.018 -189.492)" fill="none" stroke="#dbdbdb" stroke-miterlimit="10" stroke-width="1"/>
    <path id="Path_71557" data-name="Path 71557" d="M1218.114,488l-70.247,40.736V609.7l70.247,40.992,70.711-40.992V528.738Z" transform="translate(-131.501 -170.372)" fill="none" stroke="#dbdbdb" stroke-miterlimit="10" stroke-width="1"/>
    <path id="Path_71558" data-name="Path 71558" d="M1218.113,369.279l-70.247,40.736v80.959l70.247,40.992,70.711-40.992V410.015Z" transform="translate(-131.501 -132.608)" fill="none" stroke="#dbdbdb" stroke-miterlimit="10" stroke-width="1"/>
    <path id="Path_71559" data-name="Path 71559" d="M1424.822,369.279l-70.247,40.736v80.959l70.247,40.992,70.711-40.992V410.015Z" transform="translate(-197.252 -132.608)" fill="none" stroke="#dbdbdb" stroke-miterlimit="10" stroke-width="1"/>
    <path id="Path_71560" data-name="Path 71560" d="M1011.4,11.955,941.158,52.691V133.65l70.247,40.992,70.711-40.992V52.691Z" transform="translate(-65.75 -18.949)" fill="none" stroke="#dbdbdb" stroke-miterlimit="10" stroke-width="1"/>
    <path id="Path_71561" data-name="Path 71561" d="M1218.113,11.955l-70.247,40.736V133.65l70.247,40.992,70.711-40.992V52.691Z" transform="translate(-131.501 -18.949)" fill="none" stroke="#dbdbdb" stroke-miterlimit="10" stroke-width="1"/>
    <path id="Path_71562" data-name="Path 71562" d="M1424.822,11.955l-70.247,40.736V133.65l70.247,40.992,70.711-40.992V52.691Z" transform="translate(-197.252 -18.949)" fill="none" stroke="#dbdbdb" stroke-miterlimit="10" stroke-width="1"/>
    <line id="Line_416" data-name="Line 416" y2="81.343" transform="translate(1227.567 318.014)" fill="none" stroke="#dbdbdb" stroke-miterlimit="10" stroke-width="1"/>
    <line id="Line_417" data-name="Line 417" y2="81.044" transform="translate(1227.567 480.317)" fill="none" stroke="#dbdbdb" stroke-miterlimit="10" stroke-width="1"/>
  </g>
</svg>
