<svg id="linkedin" xmlns="http://www.w3.org/2000/svg" width="14.888" height="14.895" viewBox="0 0 14.888 14.895">
  <g id="Group_31" data-name="Group 31">
    <rect id="Rectangle_21" data-name="Rectangle 21" width="3.074" height="9.93" transform="translate(0.296 4.965)" fill="#00337f"/>
    <path id="Path_2071" data-name="Path 2071" d="M398.538,309.625a1.832,1.832,0,1,0-1.818-1.833A1.825,1.825,0,0,0,398.538,309.625Z" transform="translate(-396.72 -305.96)" fill="#00337f"/>
  </g>
  <path id="Path_2072" data-name="Path 2072" d="M407.067,317.446c0-1.4.642-2.227,1.873-2.227,1.13,0,1.673.8,1.673,2.227v5.213h3.06v-6.287c0-2.66-1.508-3.946-3.613-3.946a3.462,3.462,0,0,0-2.993,1.641V312.73h-2.948v9.929h2.948Z" transform="translate(-398.785 -307.764)" fill="#00337f"/>
</svg>
