<svg xmlns="http://www.w3.org/2000/svg" width="48.851" height="48.875" viewBox="0 0 48.851 48.875">
  <g id="Group_11674" data-name="Group 11674" transform="translate(-1023.8 -1845.3)">
    <g id="Group_11673" data-name="Group 11673" transform="translate(1023.8 1845.3)">
      <path id="Path_66028" data-name="Path 66028" d="M1053.6,1845.5h19.047v48.851H1023.8V1845.5h25.9c-.119,1.217-.227,2.433-.37,3.638-.012.119-.179.263-.31.322a7.53,7.53,0,0,0-1.288.477,1.563,1.563,0,0,1-2.314-.3,18.225,18.225,0,0,0-1.825-1.491l-2.755,2.755c.692.859,1.407,1.753,2.147,2.648a.487.487,0,0,1,.072.62c-.322.68-.608,1.384-.871,2.1a.5.5,0,0,1-.477.406c-1.169.107-2.326.25-3.495.382v3.864c1.193.131,2.373.25,3.554.394a.53.53,0,0,1,.37.262c.346.847.668,1.705,1.026,2.624-.561.692-1.181,1.467-1.8,2.242a1.114,1.114,0,0,0,.465-.119,9.874,9.874,0,0,1,4.031-1.014c2.97-.048,5.927-.06,8.9-.048a6.438,6.438,0,0,1,1.5.215,6.031,6.031,0,0,1,3.053,1.849c.632-.632,1.24-1.252,1.873-1.884-.25-.322-.525-.68-.835-1.026a.453.453,0,0,1-.072-.584q.483-1.055.895-2.147a.47.47,0,0,1,.453-.37c1.169-.107,2.326-.25,3.483-.37v-3.876c-1.169-.131-2.3-.262-3.435-.37a.5.5,0,0,1-.513-.417,17.485,17.485,0,0,0-.835-2.016.579.579,0,0,1,.1-.751c.728-.871,1.431-1.765,2.135-2.636-.93-.93-1.825-1.825-2.731-2.743-.107.083-.25.191-.382.3-.775.632-1.562,1.24-2.326,1.884a.5.5,0,0,1-.62.06c-.692-.322-1.4-.6-2.1-.871-.227-.083-.37-.155-.394-.441C1053.879,1847.861,1053.736,1846.681,1053.6,1845.5Zm-11.807,38.773c.274-.3.572-.561.823-.871a1.207,1.207,0,0,1,1.038-.441c3.232.012,6.476,0,9.708.012a8.995,8.995,0,0,0,6.7-2.779c3.137-3.173,6.3-6.309,9.458-9.47a7.317,7.317,0,0,0,.573-.644,3.34,3.34,0,0,0-1.062-4.926,3.435,3.435,0,0,0-4.21.763q-3.381,3.381-6.763,6.774a3.281,3.281,0,0,0-.274.394,1.051,1.051,0,0,0-.119-.1c.048-.143.107-.286.155-.429a3.145,3.145,0,0,0-.131-2.54,3.358,3.358,0,0,0-3.28-1.944c-2.493-.012-4.985,0-7.478,0a8.931,8.931,0,0,0-6.619,2.743c-1.885,1.908-3.793,3.793-5.689,5.689-.107.107-.215.226-.286.3C1036.836,1879.3,1039.293,1881.757,1041.8,1884.273Zm-15.934-1.145,10.984,10.984,5.26-5.26c-3.638-3.638-7.323-7.323-11-10.984Q1028.535,1880.481,1025.863,1883.128Z" transform="translate(-1023.8 -1845.476)" fill="none"/>
      <path id="Path_66029" data-name="Path 66029" d="M1159.821,1845.324c.131,1.181.262,2.362.37,3.542.024.286.167.358.394.441.7.274,1.407.549,2.1.871a.473.473,0,0,0,.62-.06c.763-.644,1.551-1.264,2.326-1.885.131-.107.274-.215.382-.3.918.918,1.813,1.813,2.731,2.743-.692.859-1.407,1.753-2.135,2.636a.593.593,0,0,0-.1.751,19.888,19.888,0,0,1,.835,2.015.513.513,0,0,0,.513.417c1.133.107,2.266.239,3.435.37v3.876c-1.157.131-2.326.262-3.483.37a.449.449,0,0,0-.453.37q-.411,1.091-.894,2.147a.452.452,0,0,0,.072.584c.3.346.573.7.835,1.026-.632.632-1.24,1.252-1.873,1.885a6.133,6.133,0,0,0-3.053-1.849,6.428,6.428,0,0,0-1.5-.215c-2.97,0-5.928,0-8.9.048a9.966,9.966,0,0,0-4.031,1.014,1.163,1.163,0,0,1-.465.119c.62-.775,1.24-1.539,1.8-2.242-.358-.918-.668-1.777-1.026-2.624a.566.566,0,0,0-.37-.262c-1.181-.143-2.362-.262-3.554-.394v-3.864c1.181-.131,2.338-.274,3.494-.382.286-.024.382-.143.477-.406.262-.715.549-1.419.871-2.1a.487.487,0,0,0-.072-.62c-.739-.895-1.455-1.789-2.147-2.648l2.755-2.755a19.68,19.68,0,0,1,1.825,1.491,1.562,1.562,0,0,0,2.314.3,6.1,6.1,0,0,1,1.288-.477c.131-.06.3-.2.31-.322.143-1.216.25-2.421.37-3.637C1157.221,1845.324,1158.521,1845.324,1159.821,1845.324Zm2.6,13.453a4.532,4.532,0,1,0-4.52,4.556A4.545,4.545,0,0,0,1162.421,1858.777Z" transform="translate(-1130.016 -1845.3)" fill="#006ce5"/>
      <path id="Path_66030" data-name="Path 66030" d="M1119.742,2026.436c-2.5-2.5-4.962-4.962-7.442-7.454.072-.083.179-.191.286-.3,1.9-1.9,3.8-3.781,5.689-5.689a8.932,8.932,0,0,1,6.619-2.743h7.478a3.368,3.368,0,0,1,3.28,1.944,3.244,3.244,0,0,1,.131,2.54c-.048.143-.107.286-.155.429a1.076,1.076,0,0,0,.119.1,1.788,1.788,0,0,1,.274-.394c2.254-2.254,4.508-4.52,6.762-6.774a3.435,3.435,0,0,1,4.21-.763,3.355,3.355,0,0,1,1.061,4.926,7.349,7.349,0,0,1-.572.644c-3.149,3.161-6.321,6.3-9.458,9.47a8.976,8.976,0,0,1-6.7,2.779c-3.232-.012-6.476,0-9.708-.012a1.189,1.189,0,0,0-1.038.441C1120.315,2025.864,1120.016,2026.138,1119.742,2026.436Z" transform="translate(-1101.745 -1987.639)" fill="#006ce5"/>
      <path id="Path_66031" data-name="Path 66031" d="M1041.1,2122.248l5.248-5.248c3.674,3.662,7.359,7.347,11,10.984l-5.26,5.26C1048.471,2129.618,1044.785,2125.933,1041.1,2122.248Zm13.322,6.8a1.265,1.265,0,0,0-2.528-.072,1.3,1.3,0,0,0,1.229,1.312A1.316,1.316,0,0,0,1054.422,2129.046Z" transform="translate(-1039.037 -2084.595)" fill="#006ce5"/>
      <path id="Path_66032" data-name="Path 66032" d="M1228.564,1925.007a4.532,4.532,0,1,1-4.556-4.508A4.54,4.54,0,0,1,1228.564,1925.007Z" transform="translate(-1196.159 -1911.529)" fill="none"/>
      <path id="Path_66033" data-name="Path 66033" d="M1134.123,2208.487a1.265,1.265,0,1,1-1.252-1.288A1.307,1.307,0,0,1,1134.123,2208.487Z" transform="translate(-1118.738 -2164.036)" fill="none"/>
    </g>
  </g>
</svg>
