<svg xmlns="http://www.w3.org/2000/svg" width="66.039" height="62.5" viewBox="0 0 66.039 62.5">
  <g id="Group_25943" data-name="Group 25943" transform="translate(-884.01 -703.573)">
    <path id="Path_79993" data-name="Path 79993" d="M917.008,1130.451q-13.624,0-27.247,0a5.4,5.4,0,0,1-5.548-3.972,5.329,5.329,0,0,1,4.952-6.779c.186-.007.372-.007.559-.007q27.279,0,54.557-.009a5.44,5.44,0,0,1,4.972,2.6,5.37,5.37,0,0,1-4.192,8.138c-.371.025-.744.033-1.116.033Q930.477,1130.452,917.008,1130.451Zm-1.588-5.332a2.393,2.393,0,0,0-2.343-2.389,2.365,2.365,0,0,0-2.375,2.349,2.394,2.394,0,0,0,2.349,2.32A2.341,2.341,0,0,0,915.421,1125.118Zm15.776-.037a2.36,2.36,0,1,0-2.326,2.318A2.329,2.329,0,0,0,931.2,1125.081Zm3.214.02a2.359,2.359,0,1,0,2.364-2.371A2.362,2.362,0,0,0,934.41,1125.1Zm-34.763-.031a2.407,2.407,0,0,0-2.4-2.341,2.355,2.355,0,0,0-2.321,2.4,2.389,2.389,0,0,0,2.392,2.271A2.351,2.351,0,0,0,899.647,1125.07Zm47.329.021a2.359,2.359,0,1,0-4.718.015,2.416,2.416,0,0,0,2.383,2.293A2.326,2.326,0,0,0,946.976,1125.091Zm-28.339.005a2.383,2.383,0,0,0,2.367,2.3,2.448,2.448,0,0,0,2.35-2.345,2.417,2.417,0,0,0-2.36-2.323A2.352,2.352,0,0,0,918.637,1125.1Zm-15.775-.041a2.375,2.375,0,0,0,2.321,2.343,2.463,2.463,0,0,0,2.395-2.367,2.427,2.427,0,0,0-2.386-2.3A2.344,2.344,0,0,0,902.861,1125.056Zm-15.779-.034a2.369,2.369,0,0,0,2.289,2.376,2.459,2.459,0,0,0,2.425-2.34,2.377,2.377,0,0,0-2.348-2.329A2.341,2.341,0,0,0,887.082,1125.022Z" transform="translate(0 -364.379)" fill="#fff"/>
    <path id="Path_79994" data-name="Path 79994" d="M967.237,707.051c0,.542,0,1.013,0,1.484,0,2.689.008,5.378-.008,8.067a.986.986,0,0,0,.429.879c1.937,1.517,3.857,3.057,5.78,4.592a1.729,1.729,0,0,1,.626,2.48c-.776,1.734-1.549,3.47-2.342,5.2a1.613,1.613,0,0,1-1.7.993,1.655,1.655,0,0,1-1.451-1.406,2.266,2.266,0,0,1,.183-1.13c.588-1.365,1.224-2.71,1.872-4.126l-4.929-3.961c-1.581,1.269-3.134,2.5-4.662,3.766a.672.672,0,0,0-.072.61c.552,1.269,1.156,2.514,1.711,3.782a1.72,1.72,0,0,1-.793,2.323,1.608,1.608,0,0,1-2.161-.777c-.89-1.886-1.739-3.792-2.564-5.708a1.582,1.582,0,0,1,.683-1.951c1.939-1.549,3.876-3.1,5.83-4.629a1.153,1.153,0,0,0,.507-1.029c-.024-3.122-.012-6.244-.012-9.411h-21.7v.627c0,2.937.01,5.875-.01,8.812a1.106,1.106,0,0,0,.492.978c1.905,1.491,3.794,3,5.685,4.513a1.775,1.775,0,0,1,.632,2.632q-1.1,2.46-2.211,4.916a1.678,1.678,0,0,1-2.305,1.02,1.776,1.776,0,0,1-.727-2.447c.547-1.2,1.09-2.408,1.657-3.6.155-.327.161-.521-.162-.772-1.42-1.105-2.806-2.252-4.221-3.364a.651.651,0,0,0-.568-.086,4.871,4.871,0,0,0-.784.6l-3.927,3.158c.627,1.37,1.268,2.688,1.826,4.04a2.606,2.606,0,0,1,.165,1.424,1.486,1.486,0,0,1-1.419,1.192,1.533,1.533,0,0,1-1.617-.923q-1.312-2.806-2.546-5.648a1.572,1.572,0,0,1,.674-2c1.921-1.538,3.842-3.076,5.784-4.588a1.275,1.275,0,0,0,.558-1.138c-.025-2.875-.012-5.751-.012-8.626v-.763h-.7q-5.43,0-10.86,0a1.75,1.75,0,0,1-1.816-2.345,1.664,1.664,0,0,1,1.44-1.113,5.32,5.32,0,0,1,.682-.015H978.5c.186,0,.373-.007.558.007a1.7,1.7,0,0,1,1.634,1.7,1.675,1.675,0,0,1-1.631,1.758c-.95.039-1.9.013-2.854.014Z" transform="translate(-36.711 0)" fill="#fff"/>
    <path id="Path_79995" data-name="Path 79995" d="M975.6,953.041c0,1.128-.027,2.179.007,3.227A1.7,1.7,0,0,0,977.8,957.9a1.744,1.744,0,0,0,1.267-1.779c.022-.764.006-1.53.006-2.295,0-.227,0-.453,0-.739.2-.016.381-.041.558-.042,1.819,0,3.639-.008,5.458,0a2.079,2.079,0,0,1,2.323,2.342q.006,6.481,0,12.963a2.123,2.123,0,0,1-2.345,2.343q-7.753,0-15.506,0a2.1,2.1,0,0,1-2.318-2.3q-.015-6.512,0-13.025a2.088,2.088,0,0,1,2.3-2.318C971.52,953.035,973.5,953.041,975.6,953.041Z" transform="translate(-72.878 -218.453)" fill="#fff"/>
    <path id="Path_79996" data-name="Path 79996" d="M1178,953.07c0,1.021-.014,2.007,0,2.994a1.733,1.733,0,0,0,1.405,1.849,1.675,1.675,0,0,0,2.048-1.607c.039-.846.014-1.695.018-2.542,0-.222,0-.444,0-.731h.74q2.543,0,5.086,0c1.8,0,2.529.72,2.53,2.509q0,6.326,0,12.652c0,.1,0,.207,0,.31a2.1,2.1,0,0,1-2.26,2.177q-7.846.007-15.691,0a2.087,2.087,0,0,1-2.216-2.219q-.014-6.605,0-13.211a2.066,2.066,0,0,1,2.213-2.214c1.881-.014,3.763,0,5.644,0C1177.654,953.035,1177.793,953.055,1178,953.07Z" transform="translate(-250.131 -218.445)" fill="#fff"/>
  </g>
</svg>
