<svg id="Group_26608" data-name="Group 26608" xmlns="http://www.w3.org/2000/svg" width="32" height="28.125" viewBox="0 0 32 28.125">
  <path id="Path_81758" data-name="Path 81758" d="M211,240h5.625v1.875H211Zm0,0" transform="translate(-197.813 -225)" fill="#006ce5"/>
  <path id="Path_81759" data-name="Path 81759" d="M25.961,89.447H20.688v.938a.937.937,0,0,1-.937.938h-7.5a.937.937,0,0,1-.937-.937v-.937H6.039a2.809,2.809,0,0,1-2.668-1.923L0,77.41V97.884A2.816,2.816,0,0,0,2.813,100.7H29.188A2.816,2.816,0,0,0,32,97.884V77.411L28.629,87.524a2.809,2.809,0,0,1-2.668,1.923Zm0,0" transform="translate(0 -72.572)" fill="#006ce5"/>
  <path id="Path_81760" data-name="Path 81760" d="M43.946,0h-7.5a2.816,2.816,0,0,0-2.812,2.813V3.75H25.809l3.536,10.609a.937.937,0,0,0,.89.641h5.274v-.937a.937.937,0,0,1,.938-.938h7.5a.937.937,0,0,1,.938.938V15h5.274a.937.937,0,0,0,.89-.641L54.583,3.75H46.758V2.813A2.816,2.816,0,0,0,43.946,0ZM35.508,3.75V2.813a.938.938,0,0,1,.938-.937h7.5a.938.938,0,0,1,.938.938V3.75Zm0,0" transform="translate(-24.196)" fill="#006ce5"/>
</svg>
