<svg xmlns="http://www.w3.org/2000/svg" width="32.239" height="32" viewBox="0 0 32.239 32">
  <g id="Group_26587" data-name="Group 26587" transform="translate(0 -0.178)">
    <path id="Path_81756" data-name="Path 81756" d="M17.5,2.451,2.74.208A2.381,2.381,0,0,0,.833.731,2.4,2.4,0,0,0,0,2.531v28.3a1.347,1.347,0,0,0,1.343,1.343H5.709V25.126A2.345,2.345,0,0,1,8.06,22.775h3.358a2.345,2.345,0,0,1,2.351,2.351v7.052h5.709V4.775A2.352,2.352,0,0,0,17.5,2.451ZM7.388,19.753H5.373a1.007,1.007,0,0,1,0-2.015H7.388a1.007,1.007,0,0,1,0,2.015Zm0-4.03H5.373a1.007,1.007,0,0,1,0-2.015H7.388a1.007,1.007,0,0,1,0,2.015Zm0-4.03H5.373a1.007,1.007,0,0,1,0-2.015H7.388a1.007,1.007,0,0,1,0,2.015Zm0-4.03H5.373a1.007,1.007,0,0,1,0-2.015H7.388a1.007,1.007,0,0,1,0,2.015ZM14.1,19.753H12.09a1.007,1.007,0,0,1,0-2.015H14.1a1.007,1.007,0,0,1,0,2.015Zm0-4.03H12.09a1.007,1.007,0,0,1,0-2.015H14.1a1.007,1.007,0,0,1,0,2.015Zm0-4.03H12.09a1.007,1.007,0,0,1,0-2.015H14.1a1.007,1.007,0,0,1,0,2.015Zm0-4.03H12.09a1.007,1.007,0,0,1,0-2.015H14.1a1.007,1.007,0,0,1,0,2.015ZM30.385,14.5l-9.564-2V32.178h9.067a2.353,2.353,0,0,0,2.351-2.351V16.8A2.339,2.339,0,0,0,30.385,14.5ZM27.2,28.148H25.187a1.007,1.007,0,1,1,0-2.015H27.2a1.007,1.007,0,1,1,0,2.015Zm0-4.03H25.187a1.007,1.007,0,1,1,0-2.015H27.2a1.007,1.007,0,0,1,0,2.015Zm0-4.03H25.187a1.007,1.007,0,1,1,0-2.015H27.2a1.007,1.007,0,0,1,0,2.015Z" fill="#006ce5"/>
  </g>
</svg>
