<svg xmlns="http://www.w3.org/2000/svg" width="31.999" height="32" viewBox="0 0 31.999 32">
  <g id="Group_26607" data-name="Group 26607" transform="translate(-0.002 0.001)">
    <path id="Path_81757" data-name="Path 81757" d="M31.9,14.223a1.042,1.042,0,0,0-1.029-.788,3.533,3.533,0,0,1-2.418-6.148.889.889,0,0,0,.1-1.207,15.839,15.839,0,0,0-2.535-2.56.891.891,0,0,0-1.216.1,3.688,3.688,0,0,1-3.991.9,3.554,3.554,0,0,1-2.161-3.474.888.888,0,0,0-.785-.935A15.967,15.967,0,0,0,14.264.1a.891.891,0,0,0-.792.916,3.56,3.56,0,0,1-2.191,3.414,3.7,3.7,0,0,1-3.961-.9.892.892,0,0,0-1.207-.1A15.905,15.905,0,0,0,3.524,5.981a.89.89,0,0,0,.1,1.216,3.546,3.546,0,0,1,.895,3.992,3.7,3.7,0,0,1-3.481,2.163.871.871,0,0,0-.924.786A16.039,16.039,0,0,0,.1,17.776a1.059,1.059,0,0,0,1.049.787,3.51,3.51,0,0,1,3.292,2.192,3.56,3.56,0,0,1-.895,3.957.888.888,0,0,0-.1,1.205,15.9,15.9,0,0,0,2.531,2.561.89.89,0,0,0,1.218-.1,3.682,3.682,0,0,1,3.989-.9,3.549,3.549,0,0,1,2.165,3.472.888.888,0,0,0,.785.935,15.931,15.931,0,0,0,3.6.01.89.89,0,0,0,.792-.916,3.556,3.556,0,0,1,2.19-3.412,3.693,3.693,0,0,1,3.962.9.894.894,0,0,0,1.207.1,15.926,15.926,0,0,0,2.588-2.559.889.889,0,0,0-.1-1.216,3.545,3.545,0,0,1-.9-3.991,3.581,3.581,0,0,1,3.273-2.169l.2.005a.891.891,0,0,0,.937-.785,15.969,15.969,0,0,0,.007-3.638Zm-15.9,11a9.224,9.224,0,1,1,7.919-4.494L19.882,16.69a5.658,5.658,0,0,0-6.7-7.664.64.64,0,0,0-.443.446.625.625,0,0,0,.178.611s1.994,2.009,2.661,2.676a.414.414,0,0,1,.06.3l-.006.044a12.752,12.752,0,0,1-.3,1.952l-.043.041-.044.045a12.57,12.57,0,0,1-1.982.308v0l-.033.008-.032,0a.426.426,0,0,1-.307-.13c-.694-.694-2.61-2.6-2.61-2.6a.651.651,0,0,0-.466-.207.633.633,0,0,0-.6.482,5.659,5.659,0,0,0,7.666,6.688l4.083,4.083A9.178,9.178,0,0,1,16,25.223Z" transform="translate(0 0)" fill="#006ce5"/>
  </g>
</svg>
