<svg xmlns="http://www.w3.org/2000/svg" width="28.847" height="28.786" viewBox="0 0 28.847 28.786">
  <g id="Group_24105" data-name="Group 24105" transform="translate(-81.618 -84.029)">
    <path id="Path_78496" data-name="Path 78496" d="M681.376,249.6c0-2.142.008-4.283-.008-6.424,0-.354.086-.462.451-.461q6.39.018,12.777,0c.365,0,.5.086.5.48q-.02,6.425,0,12.848c0,.371-.112.444-.461.444q-6.388-.018-12.777,0c-.414,0-.5-.129-.5-.515C681.385,253.851,681.376,251.725,681.376,249.6Z" transform="translate(-599.748 -143.676)" fill="#37a2db"/>
    <path id="Path_78497" data-name="Path 78497" d="M688.223,245.359c-2.145,0-4.29-.008-6.435.007-.335,0-.421-.082-.421-.42q.018-6.4,0-12.8c0-.35.075-.451.443-.45q6.433.02,12.869,0c.36,0,.448.09.447.448q-.021,6.4,0,12.8c0,.335-.082.424-.42.422C692.544,245.351,690.384,245.359,688.223,245.359Z" transform="translate(-599.748 -147.672)" fill="#f05226"/>
    <path id="Path_78498" data-name="Path 78498" d="M699.27,245.374c-2.13,0-4.259-.011-6.389.01-.369,0-.443-.106-.443-.455q.018-6.4,0-12.8c0-.328.075-.431.418-.429q6.46.018,12.92,0c.345,0,.418.1.417.429q-.016,6.4,0,12.8c0,.35-.075.458-.444.455C703.592,245.364,701.431,245.374,699.27,245.374Z" transform="translate(-595.731 -147.672)" fill="#7fbb42"/>
    <path id="Path_78499" data-name="Path 78499" d="M699.267,256.424c-2.114,0-4.226-.007-6.34.007-.347,0-.493-.053-.49-.458q.024-6.4,0-12.8c0-.331.082-.429.422-.429q6.458.018,12.918,0c.349,0,.417.11.416.435q-.016,6.4,0,12.8c0,.353-.082.457-.447.454C703.589,256.415,701.427,256.424,699.267,256.424Z" transform="translate(-595.732 -143.664)" fill="#fdb817"/>
  </g>
</svg>
