<svg xmlns="http://www.w3.org/2000/svg" width="220.504" height="62.71" viewBox="0 0 220.504 62.71">
  <g id="Group_26656" data-name="Group 26656" transform="translate(-229 -2455.001)">
    <g id="Group_26655" data-name="Group 26655">
      <g id="Group_26654" data-name="Group 26654">
        <path id="Path_81804" data-name="Path 81804" d="M-111.824,375.424h-3.019v-17.2c0-1.313.131-3.019.263-4.988h-.132a11.2,11.2,0,0,1-.788,2.494l-8.663,19.558h-1.444L-134.27,356a12.9,12.9,0,0,1-.788-2.625h-.131a48.161,48.161,0,0,1,.131,4.988v17.064h-2.888V349.959h3.938l7.876,17.851a26.6,26.6,0,0,1,1.181,3.019h.131a28.475,28.475,0,0,0,1.181-3.151l8.007-17.72h3.807v25.465Zm8.663-24.808a1.522,1.522,0,0,1-.525,1.312,1.685,1.685,0,0,1-1.313.525,1.522,1.522,0,0,1-1.313-.525,1.793,1.793,0,0,1-.525-1.444,1.686,1.686,0,0,1,.525-1.312,1.684,1.684,0,0,1,1.313-.525,1.521,1.521,0,0,1,1.313.525A2.189,2.189,0,0,1-103.161,350.616Zm-.394,24.808h-2.888V357.179h2.888Zm17.2-.788a8.849,8.849,0,0,1-4.988,1.313,8.4,8.4,0,0,1-4.463-1.181,8.433,8.433,0,0,1-3.15-3.282,9.608,9.608,0,0,1-1.05-4.725,10.15,10.15,0,0,1,2.625-7.219,9.1,9.1,0,0,1,6.957-2.757,8.621,8.621,0,0,1,4.2.919v3.019a7.456,7.456,0,0,0-4.332-1.444,5.958,5.958,0,0,0-4.594,1.969,7.668,7.668,0,0,0-1.707,5.25,6.78,6.78,0,0,0,1.707,4.988,6.033,6.033,0,0,0,4.463,1.838,7.127,7.127,0,0,0,4.463-1.576v2.888h-.131ZM-73.5,360.2a3.755,3.755,0,0,0-2.232-.525,3.69,3.69,0,0,0-3.15,1.837,8.4,8.4,0,0,0-1.181,4.725v9.32h-2.888V357.179h2.888v3.807h.131a6.932,6.932,0,0,1,1.838-3.019,3.947,3.947,0,0,1,2.888-1.05,5.149,5.149,0,0,1,1.707.262Zm18.246,6.038a9.433,9.433,0,0,1-2.494,6.957,8.8,8.8,0,0,1-6.563,2.625,8.305,8.305,0,0,1-6.432-2.625,9.6,9.6,0,0,1-2.363-6.826c0-3.019.788-5.382,2.494-7.088a9.2,9.2,0,0,1,6.825-2.625c2.756,0,4.857.788,6.3,2.494A10.435,10.435,0,0,1-55.25,366.236Zm-2.888.131a7.84,7.84,0,0,0-1.575-5.251,5.542,5.542,0,0,0-4.332-1.837,5.828,5.828,0,0,0-4.463,1.837,8.079,8.079,0,0,0-1.575,5.251,6.906,6.906,0,0,0,1.707,5.119,5.828,5.828,0,0,0,4.463,1.838,5.356,5.356,0,0,0,4.332-1.838A8.2,8.2,0,0,0-58.138,366.367Zm16.408,4.2a4.668,4.668,0,0,1-1.837,3.807,7.152,7.152,0,0,1-4.857,1.444,9.34,9.34,0,0,1-4.463-1.05v-3.15a7.235,7.235,0,0,0,4.725,1.706c2.363,0,3.413-.788,3.413-2.494a2.5,2.5,0,0,0-.657-1.707,10.731,10.731,0,0,0-3.019-1.706,9.013,9.013,0,0,1-3.413-2.232,4.787,4.787,0,0,1-1.05-3.151,5.052,5.052,0,0,1,1.838-3.806,6.732,6.732,0,0,1,4.594-1.576,7.924,7.924,0,0,1,3.938.919v2.888a6.558,6.558,0,0,0-4.069-1.312,4.529,4.529,0,0,0-2.362.656,2.508,2.508,0,0,0-.919,1.837,2.6,2.6,0,0,0,.656,1.838,14.1,14.1,0,0,0,2.757,1.575,10.434,10.434,0,0,1,3.675,2.363A5.342,5.342,0,0,1-41.73,370.567Zm19.821-4.332a9.433,9.433,0,0,1-2.494,6.957,8.8,8.8,0,0,1-6.563,2.625,8.3,8.3,0,0,1-6.432-2.625,9.6,9.6,0,0,1-2.363-6.826c0-3.019.788-5.382,2.494-7.088a9.2,9.2,0,0,1,6.826-2.625c2.756,0,4.857.788,6.3,2.494A11.156,11.156,0,0,1-21.91,366.236Zm-3.019.131a7.84,7.84,0,0,0-1.575-5.251,5.542,5.542,0,0,0-4.332-1.837,5.828,5.828,0,0,0-4.463,1.837,8.081,8.081,0,0,0-1.575,5.251,6.908,6.908,0,0,0,1.706,5.119,5.829,5.829,0,0,0,4.463,1.838,5.355,5.355,0,0,0,4.332-1.838C-25.323,370.305-24.929,368.6-24.929,366.367Zm14.964-15.358a4.344,4.344,0,0,0-1.969-.525c-2.1,0-3.019,1.313-3.019,3.807v2.888h4.332v2.494h-4.332v15.751h-3.019V359.673h-3.151v-2.494h3.151v-2.888a6.393,6.393,0,0,1,1.575-4.463,5.952,5.952,0,0,1,4.332-1.837,8.224,8.224,0,0,1,2.1.263v2.756Z" transform="translate(449.624 2107.01)" fill="#fff"/>
        <path id="Path_81805" data-name="Path 81805" d="M324.276,381.22a5.435,5.435,0,0,1-2.756.525c-3.151,0-4.726-1.837-4.726-5.381V365.6h-3.15v-2.494h3.15v-4.463l2.888-.919v5.381h4.594V365.6h-4.594v10.238a4.514,4.514,0,0,0,.657,2.625,2.415,2.415,0,0,0,2.1.788,2.778,2.778,0,0,0,1.838-.525v2.494Z" transform="translate(125.227 2101.082)" fill="#fff"/>
      </g>
      <path id="Path_81811" data-name="Path 81811" d="M365.5,382.078h-3.492l-2.793-7.543H347.623l-2.654,7.543h-3.492l10.2-27.1h3.353ZM358.1,371.6l-4.33-11.594a6.84,6.84,0,0,1-.418-1.816h-.14a12.15,12.15,0,0,1-.418,1.816L348.6,371.6Zm24.863-8.1-11.594,15.924h11.314v2.654H366.76V381.1l11.454-15.784H367.877v-2.654h14.946v.838h.14Zm18.578,18.578h-3.073v-3.073h-.139a6.224,6.224,0,0,1-6.007,3.492c-4.61,0-6.984-2.793-6.984-8.241V362.662h3.073v11.175c0,4.051,1.536,6.146,4.749,6.146a4.784,4.784,0,0,0,3.772-1.676,6.225,6.225,0,0,0,1.4-4.33V362.662H401.4v19.416h.14Zm15.365-16.2a4,4,0,0,0-2.375-.558,3.925,3.925,0,0,0-3.352,1.955,8.935,8.935,0,0,0-1.257,5.029v9.918h-3.073V362.663h3.073v4.051h.14a7.376,7.376,0,0,1,1.955-3.213,4.2,4.2,0,0,1,3.073-1.118,5.484,5.484,0,0,1,1.817.279v3.213Zm17.321,7.263H420.538a6.826,6.826,0,0,0,1.676,5.028,6.228,6.228,0,0,0,4.609,1.677,9.533,9.533,0,0,0,6.007-2.1v2.933a10.9,10.9,0,0,1-6.7,1.816,7.852,7.852,0,0,1-6.425-2.654,10.947,10.947,0,0,1-2.375-7.4,13.361,13.361,0,0,1,1.118-5.308,9.056,9.056,0,0,1,3.213-3.632,8.79,8.79,0,0,1,4.609-1.257,7.215,7.215,0,0,1,5.867,2.515,10.281,10.281,0,0,1,2.095,6.844Zm-3.213-2.654a6.255,6.255,0,0,0-1.257-4.19,4.338,4.338,0,0,0-3.492-1.536,5.073,5.073,0,0,0-3.632,1.536,7.383,7.383,0,0,0-1.955,4.051h10.337Z" transform="translate(-29.799 2135.213)" fill="#fff"/>
    </g>
    <path id="azure-1_3_" data-name="azure-1 (3)" d="M39.256,0,18.071,18.368,0,50.81H16.3Zm2.817,4.3-9.04,25.478L50.365,51.552,16.737,57.33H71.849Z" transform="translate(229 2458)" fill="#fff"/>
  </g>
</svg>
