<svg xmlns="http://www.w3.org/2000/svg" width="103.729" height="26.33" viewBox="0 0 103.729 26.33">
  <g id="Group_24098" data-name="Group 24098" transform="translate(-16393.808 -1725.401)">
    <path id="Path_2" data-name="Path 2" d="M103.568,281.666c-1.9,0-3.807-.013-5.71.009-.452.005-.591-.13-.589-.586q.024-5.677,0-11.355c0-.419.119-.562.55-.561q5.742.021,11.485,0c.5,0,.562.221.561.631q-.015,5.645,0,11.29c0,.454-.14.589-.591.584-1.9-.022-3.806-.009-5.71-.01" transform="translate(16296.537 1470.056)" fill="#399dd7"/>
    <path id="Path_3" data-name="Path 3" d="M137.731,247.686c-1.882,0-3.766-.022-5.647.013-.558.01-.682-.175-.679-.7q.032-5.583,0-11.166c0-.507.137-.656.652-.653q5.648.032,11.3,0c.53,0,.641.164.639.66q-.028,5.583,0,11.165c0,.533-.134.7-.682.694-1.86-.032-3.722-.012-5.583-.013" transform="translate(16276.235 1490.273)" fill="#81bb42"/>
    <path id="Path_4" data-name="Path 4" d="M103.551,247.69c-1.9,0-3.809-.01-5.713.009-.422,0-.548-.115-.546-.55q.027-5.68,0-11.361c0-.468.146-.572.589-.57q5.68.024,11.361,0c.458,0,.587.135.585.582q-.023,5.681,0,11.361c0,.435-.143.545-.561.54-1.9-.02-3.808-.009-5.713-.008" transform="translate(16296.524 1490.251)" fill="#ea5626"/>
    <path id="Path_5" data-name="Path 5" d="M137.783,269.245c1.9,0,3.807.012,5.711-.009.425,0,.554.118.552.547q-.022,5.679,0,11.357c0,.477-.169.57-.6.568q-5.679-.02-11.357,0c-.425,0-.554-.122-.553-.547q.021-5.71,0-11.421c0-.413.151-.5.533-.5,1.9.017,3.807.008,5.711.008Z" transform="translate(16276.154 1470.017)" fill="#cfa934"/>
    <path id="Path_6" data-name="Path 6" d="M179.2,246.8c.392-.941.776-1.851,1.151-2.765.836-2.041,1.678-4.079,2.491-6.129a.7.7,0,0,1,.8-.544c.668.042,1.341.023,2.012.006.337-.009.512.06.511.456q-.017,6.005,0,12.01c0,.349-.14.424-.463.438-1.762.076-1.762.085-1.761-1.664q0-3.538,0-7.076a2.447,2.447,0,0,0-.141-.983c-.141.323-.289.644-.42.971-1.1,2.751-2.213,5.494-3.267,8.261-.228.6-.627.47-1.033.479s-.757.088-.975-.47c-1.142-2.919-2.34-5.816-3.521-8.72-.069-.17-.091-.37-.276-.5a1.1,1.1,0,0,0-.07.641c-.006,2.813-.015,5.626,0,8.439,0,.477-.118.633-.614.627-1.527-.016-1.527.006-1.527-1.52,0-3.571.011-7.141-.012-10.712,0-.541.141-.724.686-.685a15,15,0,0,0,1.946,0,.741.741,0,0,1,.855.567c1.056,2.72,2.145,5.428,3.226,8.139a1.6,1.6,0,0,0,.4.73" transform="translate(16252.033 1488.979)" fill="#bab9ba"/>
    <path id="Path_7" data-name="Path 7" d="M328.461,245.18c0,1.06-.019,2.121.009,3.18.011.435-.143.54-.557.544-1.657.015-1.657.029-1.657-1.649,0-1.731-.018-3.462.011-5.192.009-.513-.146-.688-.657-.657-.272.017-.712.193-.81-.158a2.863,2.863,0,0,1,.01-1.474c.055-.207.345-.111.53-.115.918-.02.923-.016.916-.949a4.668,4.668,0,0,1,.169-1.409c.59-1.936,2.389-2.478,4.168-2.164a.343.343,0,0,1,.312.411c-.006.086,0,.173,0,.259-.006.367.116.818-.053,1.079-.189.291-.6-.07-.925-.07a1.3,1.3,0,0,0-1.394,1.166c-.276,1.637-.245,1.675,1.364,1.675.476,0,.952-.015,1.428,0,.342.014.477-.131.45-.458a.494.494,0,0,1,0-.065c.079-1.72.082-1.705,1.777-2.13.385-.1.4.056.394.338-.011.541,0,1.082-.022,1.622-.025.5.117.792.686.692a2.223,2.223,0,0,1,.389,0c1.229,0,1.415.24,1.189,1.462-.049.266-.194.3-.4.3-.433,0-.866.016-1.3-.007-.375-.02-.568.1-.56.5.031,1.4-.073,2.812.066,4.216.1.994.7,1.426,1.657,1.093.547-.191.556.019.539.441-.049,1.244.3,1.178-1.233,1.426a2.515,2.515,0,0,1-3.163-2.6c-.042-1.47-.03-2.942-.006-4.413.008-.487-.1-.712-.644-.673a14.106,14.106,0,0,1-1.946,0c-.558-.037-.772.128-.746.719.046,1.015.013,2.034.013,3.05" transform="translate(16161.267 1490.347)" fill="#bab9ba"/>
    <path id="Path_8" data-name="Path 8" d="M300.621,250.736a4.574,4.574,0,0,1,4.976-4.91c2.857.009,4.6,1.837,4.592,4.806a4.59,4.59,0,0,1-4.866,4.9,4.433,4.433,0,0,1-4.7-4.8m2.29-.078a3.7,3.7,0,0,0,.3,1.708,2.367,2.367,0,0,0,2.5,1.356,2.1,2.1,0,0,0,2-1.569,4.777,4.777,0,0,0,.065-2.687,2.257,2.257,0,0,0-2.4-1.839,2.358,2.358,0,0,0-2.35,1.939,5.4,5.4,0,0,0-.109,1.092" transform="translate(16175.593 1483.94)" fill="#bab9ba"/>
    <path id="Path_9" data-name="Path 9" d="M266.339,250.505c0,2.48-1.187,4.223-3.273,4.79a4.845,4.845,0,0,1-5.672-2c-1.425-2.572-.377-6.061,2.134-7.1a5.153,5.153,0,0,1,5.923,1.26,4.839,4.839,0,0,1,.888,3.057m-2.255.034a4.116,4.116,0,0,0,0-.445,2.44,2.44,0,0,0-2.252-2.5,2.386,2.386,0,0,0-2.63,1.91,4.84,4.84,0,0,0-.034,2.184,2.366,2.366,0,0,0,2.431,2,2.208,2.208,0,0,0,2.4-1.983,4.38,4.38,0,0,0,.09-1.167" transform="translate(16201.685 1483.975)" fill="#bab9ba"/>
    <path id="Path_10" data-name="Path 10" d="M288.627,248.161a4.415,4.415,0,0,0-2.162-.586c-.515.017-1.033.092-1.2.679-.177.634.173,1.022.724,1.275.589.27,1.188.522,1.759.825a2.451,2.451,0,0,1,1.409,2.493,2.569,2.569,0,0,1-1.666,2.284,5.661,5.661,0,0,1-4.18,0,.437.437,0,0,1-.344-.475c.015-.539,0-1.078,0-1.686.435.2.817.372,1.2.54a3.571,3.571,0,0,0,1.972.221.857.857,0,0,0,.8-.657.9.9,0,0,0-.418-1.008,15.682,15.682,0,0,0-1.809-.871,2.659,2.659,0,0,1-1.58-3.4,3.314,3.314,0,0,1,3.094-1.973c.13-.006.26,0,.389,0,1.95.019,2.2.3,2,2.336" transform="translate(16186.091 1483.942)" fill="#bab9ba"/>
    <path id="Path_11" data-name="Path 11" d="M228.409,248.29c-2.2-.924-3.484-.793-4.378.389a3.681,3.681,0,0,0,0,4.085c.868,1.115,2.207,1.206,4.378.256,0,.56-.007,1.089,0,1.617.006.278-.18.375-.385.453a5.139,5.139,0,0,1-5.068-.428,4.53,4.53,0,0,1-1.762-4.468c.374-3.742,3.827-4.94,6.619-4.133.434.126.66.316.606.811a13.4,13.4,0,0,0-.011,1.417" transform="translate(16222.854 1483.943)" fill="#bab9ba"/>
    <path id="Path_12" data-name="Path 12" d="M179.63,282.505a10.242,10.242,0,0,0,.011,1.3.978.978,0,0,1-.8,1.181,5.753,5.753,0,0,1-4.541-.084,4.631,4.631,0,0,1-2.3-4.841c.424-3.58,3.732-5.127,7.1-3.986a.991.991,0,0,1,.3,1.116c-.165.181-.317,0-.457-.062a4.967,4.967,0,0,0-2.532-.424,3.4,3.4,0,0,0-3.163,2.786,4.3,4.3,0,0,0,.727,3.813,3.933,3.933,0,0,0,4.3.819.518.518,0,0,0,.278-.529c0-.605,0-1.211.011-1.816.009-.353-.167-.445-.481-.433-.389.015-.78-.011-1.168.009-.412.021-.44-.226-.449-.538-.01-.334.123-.465.458-.46.757.013,1.514.015,2.271,0,.352-.008.449.151.442.47-.013.562,0,1.125,0,1.687" transform="translate(16252.117 1466.172)" fill="#cfa934"/>
    <path id="Path_13" data-name="Path 13" d="M245.414,247.66a2.519,2.519,0,0,1,2.7-1.62c.35.039.517.165.487.521-.009.107,0,.216,0,.324-.006.41.135.917-.056,1.2-.231.347-.665-.107-1.037-.113a2.12,2.12,0,0,0-2.108,2.3c-.047,1.489-.043,2.982-.009,4.471.013.552-.162.688-.691.68-1.5-.022-1.5,0-1.5-1.474,0-2.4.01-4.8-.009-7.195,0-.444.111-.653.576-.582a1.671,1.671,0,0,0,.259,0c1.307,0,1.307,0,1.388,1.48" transform="translate(16209.749 1483.825)" fill="#bab9ba"/>
    <path id="Path_14" data-name="Path 14" d="M247.046,279.757c0-1.429.017-2.858-.01-4.286-.009-.462.144-.6.593-.579a24.5,24.5,0,0,1,3.109.1,2.626,2.626,0,0,1,2.39,2.433,2.987,2.987,0,0,1-1.837,3.186,5.654,5.654,0,0,1-2.361.33c-.554-.011-.707.18-.682.709.04.821-.014,1.646.019,2.467.021.507-.27.488-.618.487s-.624.008-.615-.495c.028-1.45.01-2.9.01-4.351m1.19-1.839c0,.5.017,1-.005,1.491-.017.382.1.569.512.532.472-.043.949-.037,1.42-.1a1.955,1.955,0,0,0,1.761-2.232c-.122-1.284-1.038-1.76-3.206-1.662-.482.021-.482.021-.482,1.642,0,.108,0,.216,0,.324" transform="translate(16207.463 1466.655)" fill="#bab9ba"/>
    <path id="Path_15" data-name="Path 15" d="M227.5,278.792c0-1.216.011-2.311-.006-3.406-.006-.4.03-.648.541-.638.473.009.514.237.513.611q-.01,4.382.006,8.764c0,.353-.043.573-.481.567-.383-.006-.643-.049-.58-.521.015-.116.065-.286-.073-.352-.185-.088-.249.107-.35.207a2.681,2.681,0,0,1-4.477-1.009,4.572,4.572,0,0,1,.121-3.42c.807-1.887,2.929-2.288,4.785-.8m-.005,2.394c0-.13,0-.259,0-.389a1.963,1.963,0,0,0-1.652-2.074,2.013,2.013,0,0,0-2.286,1.642,4.528,4.528,0,0,0-.023,1.993,1.912,1.912,0,0,0,1.866,1.589,1.978,1.978,0,0,0,1.982-1.541,4.11,4.11,0,0,0,.113-1.221" transform="translate(16222.161 1466.739)" fill="#cfa934"/>
    <path id="Path_16" data-name="Path 16" d="M265.3,283.089c-.111-1.158-.086-1.189.883-1.49a4.23,4.23,0,0,1,2.486-.119,1.845,1.845,0,0,1,1.406,1.541,37.144,37.144,0,0,1,.119,5.119c.01.434-.359.284-.583.287-.247,0-.609.135-.594-.349.015-.511-.153-.441-.449-.156a2.454,2.454,0,0,1-2.464.583,1.8,1.8,0,0,1-1.512-1.776,1.957,1.957,0,0,1,1.329-2.137,10.26,10.26,0,0,1,2.547-.451c.56-.062.622-.323.495-.783a1.239,1.239,0,0,0-1.3-1.031,3.6,3.6,0,0,0-2.361.761m3.716,2.554c-.084-.221.212-.708-.376-.655a9.656,9.656,0,0,0-2.1.355,1.067,1.067,0,0,0-.788,1.187,1.1,1.1,0,0,0,.94,1.077,1.914,1.914,0,0,0,2.321-1.963" transform="translate(16197.026 1462.816)" fill="#bab9ba"/>
    <path id="Path_17" data-name="Path 17" d="M330.412,286.984c.173.875.118,1-.629,1.291a4.629,4.629,0,0,1-2.288.3,2.983,2.983,0,0,1-2.674-2.809,3.98,3.98,0,0,1,1.157-3.673,3.219,3.219,0,0,1,3.631-.354,3.353,3.353,0,0,1,1.331,3.246c-.026.344-.29.259-.486.259-1.3.006-2.594.032-3.889-.01-.583-.019-.644.218-.544.689a2.321,2.321,0,0,0,3.224,1.571,12.308,12.308,0,0,0,1.168-.506m-2.541-2.683c.452,0,.907-.033,1.355.008.569.052.6-.229.5-.66a1.68,1.68,0,0,0-1.969-1.348A2.183,2.183,0,0,0,326.021,284c-.019.3.161.3.365.3h1.485" transform="translate(16161.221 1462.824)" fill="#bab9ba"/>
    <path id="Path_18" data-name="Path 18" d="M212.043,251.063c0-1.384.01-2.769-.006-4.153,0-.371.077-.528.5-.538,1.688-.039,1.687-.054,1.687,1.614,0,2.314-.015,4.629.011,6.943.006.514-.1.716-.665.705-1.524-.03-1.524,0-1.524-1.521v-3.05" transform="translate(16228.278 1483.622)" fill="#bab9ba"/>
    <path id="Path_19" data-name="Path 19" d="M307.84,282.524a2.751,2.751,0,0,1,2.435-1.174,2.189,2.189,0,0,1,2.165,2.094,42.828,42.828,0,0,1,.082,4.6c.01.5-.356.366-.641.392-.355.032-.489-.09-.495-.47a32.184,32.184,0,0,0-.073-3.954c-.176-1.275-.616-1.7-1.694-1.683a1.857,1.857,0,0,0-1.825,1.828c-.057,1.231-.046,2.466-.023,3.7.008.458-.138.592-.589.592s-.587-.155-.582-.6c.021-1.9.015-3.808,0-5.712,0-.4-.015-.69.554-.68.508.01.72.139.637.652a2.389,2.389,0,0,0,.044.417" transform="translate(16172.036 1462.815)" fill="#bab9ba"/>
    <path id="Path_20" data-name="Path 20" d="M198.383,282.341c2.013,0,3.233,1.324,3.214,3.484a3.218,3.218,0,0,1-3.379,3.514,3.15,3.15,0,0,1-3.241-3.43,3.259,3.259,0,0,1,3.406-3.569m2.126,3.509h-.026c0-.13.005-.259,0-.388a2.1,2.1,0,0,0-1.9-2.227,2.158,2.158,0,0,0-2.445,1.808,3.577,3.577,0,0,0,.023,1.732,2.123,2.123,0,0,0,2.225,1.683,1.971,1.971,0,0,0,2.037-1.709,6.6,6.6,0,0,0,.085-.9" transform="translate(16238.425 1462.223)" fill="#cfa934"/>
    <path id="Path_21" data-name="Path 21" d="M294.22,282.248c0-.584-.03-1.17.01-1.752.035-.514-.142-.715-.657-.654-.3.035-.611.058-.608-.426,0-.395.076-.641.534-.555.626.117.809-.186.722-.751-.093-.606.029-1.05.75-1.146.281-.037.406-.017.4.294-.011.411.009.822,0,1.233-.009.281.106.387.383.374.3-.015.607.018.908-.007.379-.032.537.078.534.5s-.182.495-.549.5c-1.274.025-1.273.036-1.273,1.3,0,.887-.008,1.774,0,2.661.013.967.4,1.284,1.344,1.163.147-.019.412-.269.445.1.025.274.142.6-.257.778a1.861,1.861,0,0,1-2.682-1.726c-.007-.627,0-1.255,0-1.882" transform="translate(16180.146 1465.429)" fill="#bab9ba"/>
    <path id="Path_22" data-name="Path 22" d="M216.4,279.693c0,1.47-.011,2.94.007,4.41,0,.395-.069.59-.526.586-.43,0-.55-.146-.548-.567q.024-4.378,0-8.756c0-.428.093-.618.568-.626.493-.008.5.244.5.607-.011,1.448,0,2.9,0,4.345Z" transform="translate(16226.319 1466.743)" fill="#cfa934"/>
    <path id="Path_23" data-name="Path 23" d="M344.933,282.58a2.365,2.365,0,0,1,1.907-1.147.7.7,0,0,1,.688,1.05c-.082.182-.194.1-.316.086a1.749,1.749,0,0,0-2.251,1.856c-.06,1.142-.042,2.289-.018,3.433.01.464-.1.652-.606.649-.486,0-.559-.2-.555-.618q.026-2.884,0-5.767c0-.416.059-.614.551-.614s.676.141.6.623a3.117,3.117,0,0,0,0,.448" transform="translate(16149.923 1462.763)" fill="#bab9ba"/>
    <path id="Path_24" data-name="Path 24" d="M284.376,282.6a2.476,2.476,0,0,1,1.944-1.165c.3,0,.611,0,.621.456s.011.791-.642.614a1.309,1.309,0,0,0-1.479.689,2.884,2.884,0,0,0-.445,1.6c0,1.08-.024,2.16.01,3.239.017.536-.31.45-.629.459s-.582.032-.577-.445q.032-3.045,0-6.09c-.007-.561.356-.406.65-.43.331-.027.612-.006.551.456a4.744,4.744,0,0,0,0,.617" transform="translate(16185.967 1462.762)" fill="#bab9ba"/>
    <path id="Path_25" data-name="Path 25" d="M212.908,236.7a1.286,1.286,0,0,1,1.26,1.292,1.318,1.318,0,0,1-1.413,1.208,1.255,1.255,0,1,1,.153-2.5" transform="translate(16228.6 1489.372)" fill="#bab9ba"/>
  </g>
</svg>
