<svg xmlns="http://www.w3.org/2000/svg" width="48.88" height="48.88" viewBox="0 0 48.88 48.88">
  <g id="Group_11646" data-name="Group 11646" transform="translate(-1085.7 -1471)">
    <g id="Group_11645" data-name="Group 11645" transform="translate(1085.7 1471)">
      <path id="Path_65914" data-name="Path 65914" d="M1099.04,1519.88H1085.7V1471h48.88v48.88h-13.238a.4.4,0,0,1,.127-.064,3.876,3.876,0,0,0,3.208-4.061v-4.99h-28.959c0,1.871-.064,3.717.025,5.55a3.615,3.615,0,0,0,2.189,3.17A7.6,7.6,0,0,0,1099.04,1519.88ZM1110.178,1485h-16.433a1.463,1.463,0,0,0-1.667,1.655v19.527a1.483,1.483,0,0,0,1.706,1.68h32.829a1.479,1.479,0,0,0,1.693-1.68v-19.476c0-1.171-.535-1.706-1.718-1.706Zm14.5-8.6v-1.2a3.9,3.9,0,0,0-4.086-4.111h-20.825a4.393,4.393,0,0,0-.713.038c-2.457.433-3.742,2.469-3.284,5.27Zm-.026,2.915h-28.921v2.8h28.921Z" transform="translate(-1085.7 -1471)" fill="none"/>
      <path id="Path_65915" data-name="Path 65915" d="M1167.484,1792.514a9.044,9.044,0,0,1-1.12-.395,3.615,3.615,0,0,1-2.189-3.17c-.089-1.833-.025-3.679-.025-5.55h28.959v4.99a3.867,3.867,0,0,1-3.208,4.061.586.586,0,0,0-.127.064Zm11.113-3.806h2.329a1.43,1.43,0,1,0,.026-2.851h-4.621a1.43,1.43,0,1,0-.013,2.851Z" transform="translate(-1154.144 -1743.634)" fill="#006ce5"/>
      <path id="Path_65916" data-name="Path 65916" d="M1153.726,1581h16.382c1.184,0,1.718.535,1.718,1.706v19.476a1.474,1.474,0,0,1-1.693,1.68h-32.829a1.488,1.488,0,0,1-1.706-1.68v-19.527a1.468,1.468,0,0,1,1.668-1.655Zm-1.349,18.1a1.469,1.469,0,0,0,1.438-1.171q1.317-5.155,2.622-10.323a1.426,1.426,0,1,0-2.75-.751c-.14.484-.255.98-.382,1.477q-1.146,4.468-2.279,8.936A1.431,1.431,0,0,0,1152.377,1599.1Zm-5.843-6.67c.675-.675,1.311-1.273,1.922-1.9a1.429,1.429,0,1,0-2.024-2l-2.788,2.788a1.43,1.43,0,0,0-.013,2.215c.929.929,1.858,1.871,2.788,2.788a1.435,1.435,0,1,0,2.011-2.024C1147.82,1593.691,1147.2,1593.093,1146.534,1592.431Zm14.384,0c-.675.675-1.3,1.286-1.922,1.922a1.416,1.416,0,0,0-.076,2.075,1.451,1.451,0,0,0,2.088-.051q1.432-1.413,2.864-2.864a1.437,1.437,0,0,0,0-2.189l-2.826-2.826a1.451,1.451,0,0,0-2.113-.089,1.433,1.433,0,0,0,.115,2.113C1159.645,1591.158,1160.256,1591.782,1160.918,1592.431Z" transform="translate(-1129.248 -1566.998)" fill="#006ce5"/>
      <path id="Path_65917" data-name="Path 65917" d="M1193.08,1477.008h-28.908c-.458-2.8.827-4.837,3.284-5.27a4.382,4.382,0,0,1,.713-.038h20.825a3.889,3.889,0,0,1,4.086,4.112Z" transform="translate(-1154.103 -1471.611)" fill="#006ce5"/>
      <path id="Path_65918" data-name="Path 65918" d="M1193.421,1536.3v2.8H1164.5v-2.8Z" transform="translate(-1154.469 -1527.988)" fill="#006ce5"/>
      <path id="Path_65919" data-name="Path 65919" d="M1251.53,1805.551h-2.291a1.43,1.43,0,1,1,.013-2.851h4.621a1.43,1.43,0,1,1-.025,2.851Z" transform="translate(-1227.078 -1760.477)" fill="none"/>
      <path id="Path_65920" data-name="Path 65920" d="M1257.832,1631.793a1.431,1.431,0,0,1-1.349-1.82q1.126-4.468,2.279-8.936c.127-.5.242-.98.382-1.477a1.426,1.426,0,1,1,2.75.751c-.866,3.437-1.744,6.886-2.622,10.323A1.458,1.458,0,0,1,1257.832,1631.793Z" transform="translate(-1234.703 -1599.69)" fill="none"/>
      <path id="Path_65921" data-name="Path 65921" d="M1198.046,1640.636c.662.649,1.286,1.26,1.9,1.884a1.435,1.435,0,1,1-2.011,2.024l-2.788-2.788a1.43,1.43,0,0,1,.013-2.215l2.788-2.788a1.453,1.453,0,0,1,2.113-.115,1.431,1.431,0,0,1-.089,2.113C1199.357,1639.363,1198.733,1639.961,1198.046,1640.636Z" transform="translate(-1180.76 -1615.203)" fill="none"/>
      <path id="Path_65922" data-name="Path 65922" d="M1317.8,1640.521c-.662-.662-1.273-1.273-1.9-1.884a1.429,1.429,0,1,1,2-2.024l2.826,2.826a1.437,1.437,0,0,1,0,2.189q-1.413,1.432-2.864,2.864a1.45,1.45,0,0,1-2.088.051,1.426,1.426,0,0,1,.076-2.075Z" transform="translate(-1286.133 -1615.088)" fill="none"/>
    </g>
  </g>
</svg>
