<svg id="Group_26926" data-name="Group 26926" xmlns="http://www.w3.org/2000/svg" width="40.483" height="40.483" viewBox="0 0 40.483 40.483">
  <path id="Path_82333" data-name="Path 82333" d="M357.615,307.382H359.9l-1.139-3.018Z" transform="translate(-329.339 -280.298)" fill="#006ce5"/>
  <path id="Path_82334" data-name="Path 82334" d="M124.809,89.465H112v1.6a5.541,5.541,0,0,1-5.535,5.535h-.633V106.86A3.163,3.163,0,0,0,109,110.023h9.987l4.487,3.846a1.186,1.186,0,0,0,1.942-1.1l-.459-2.753a3.167,3.167,0,0,0,3.021-3.16V92.627A3.163,3.163,0,0,0,124.809,89.465Zm-3.743,15.919a1.185,1.185,0,0,1-1.528-.691l-.59-1.563h-4.087l-.6,1.566a1.186,1.186,0,0,1-2.217-.844l3.563-9.355a1.4,1.4,0,0,1,1.306-.9h0a1.4,1.4,0,0,1,1.309.9l3.53,9.355A1.186,1.186,0,0,1,121.066,105.384ZM98.54,80a3.54,3.54,0,1,0,1.569,6.712l-.669-.669a1.186,1.186,0,0,1,1.677-1.677l.643.643A3.537,3.537,0,0,0,98.54,80Z" transform="translate(-87.488 -73.674)" fill="#006ce5"/>
  <path id="Path_82335" data-name="Path 82335" d="M22.139,17.4V3.163A3.163,3.163,0,0,0,18.977,0H3.163A3.163,3.163,0,0,0,0,3.163V17.4a3.167,3.167,0,0,0,3.021,3.16l-.459,2.753A1.186,1.186,0,0,0,4.5,24.4L8.99,20.558h9.987A3.163,3.163,0,0,0,22.139,17.4Zm-5.487-2a1.186,1.186,0,0,1-1.677,0l-.624-.624a5.928,5.928,0,1,1,1.661-1.694l.64.64A1.186,1.186,0,0,1,16.652,15.392Z" fill="#006ce5"/>
</svg>
