<svg xmlns="http://www.w3.org/2000/svg" width="94" height="75.588" viewBox="0 0 94 75.588">
  <g id="Group_26935" data-name="Group 26935" transform="translate(-24.665 -69.517)">
    <path id="Path_82353" data-name="Path 82353" d="M41.812,104.252a3.1,3.1,0,1,1-3.081,3.1A3.094,3.094,0,0,1,41.812,104.252ZM61.684,84.557A3.1,3.1,0,1,1,58.6,87.651,3.092,3.092,0,0,1,61.684,84.557Zm19.9,19.695a3.1,3.1,0,1,1-3.083,3.1A3.093,3.093,0,0,1,81.579,104.252Zm19.869-19.695a3.1,3.1,0,1,1-3.083,3.095A3.092,3.092,0,0,1,101.448,84.557ZM41.812,113.3a5.962,5.962,0,0,0,5.1-9L58.588,92.728a5.885,5.885,0,0,0,6.193,0l11.7,11.582a5.942,5.942,0,1,0,10.195,0L98.352,92.728a5.957,5.957,0,1,0-2-2.034L84.674,102.271a5.886,5.886,0,0,0-6.194,0L66.781,90.69a5.941,5.941,0,1,0-10.194,0L44.908,102.271a5.946,5.946,0,1,0-3.1,11.031Zm55,28.943v-39.59h9.346v39.59Zm-19.881,0V120.886h9.344v21.359H76.933Zm-19.883,0V106.116H66.4v36.129Zm-19.88,0v-17.1h9.344v17.1Zm12.193-5.852H54.2v5.852H49.363Zm19.883,0h4.838v5.852H69.245Zm19.88,0h4.84v5.852h-4.84Zm-56.968-2.86h2.163v-9.818a1.428,1.428,0,0,1,1.424-1.431H47.939a1.428,1.428,0,0,1,1.424,1.431v9.818H54.2V104.686a1.427,1.427,0,0,1,1.425-1.431H67.821a1.427,1.427,0,0,1,1.425,1.431v28.847h4.838V119.455a1.427,1.427,0,0,1,1.424-1.429H87.7a1.426,1.426,0,0,1,1.425,1.429v14.077h4.84V101.226A1.428,1.428,0,0,1,95.391,99.8h12.193a1.428,1.428,0,0,1,1.425,1.43v32.307h2.162a3.694,3.694,0,0,0,3.683-3.7V76.075a3.7,3.7,0,0,0-3.683-3.7H32.158a3.7,3.7,0,0,0-3.684,3.7v53.761A3.7,3.7,0,0,0,32.158,133.533Zm85.083,8.712h-8.232v-5.852h2.162a6.553,6.553,0,0,0,6.532-6.558V76.075a6.553,6.553,0,0,0-6.532-6.558H32.158a6.553,6.553,0,0,0-6.532,6.558v53.761a6.553,6.553,0,0,0,6.532,6.558h2.163v5.852H26.089a1.43,1.43,0,0,0,0,2.86h91.152a1.43,1.43,0,0,0,0-2.86Z" transform="translate(0)" fill="#006ce5" fill-rule="evenodd"/>
  </g>
</svg>
