<svg xmlns="http://www.w3.org/2000/svg" width="64" height="64" viewBox="0 0 64 64">
  <g id="Group_26929" data-name="Group 26929" transform="translate(-2 -2)">
    <path id="Path_82341" data-name="Path 82341" d="M22.286,11.571a6.866,6.866,0,0,1,6.857,6.857v1.339l-.67-.67a2.286,2.286,0,1,0-3.232,3.232L29.813,26.9a2.279,2.279,0,0,0,3.232,0l4.571-4.571A2.286,2.286,0,1,0,34.384,19.1l-.669.67V18.429A11.442,11.442,0,0,0,22.286,7a2.286,2.286,0,0,0,0,4.571Z" transform="translate(23.143 6.429)" fill="#006ce5"/>
    <circle id="Ellipse_902" data-name="Ellipse 902" cx="6.741" cy="6.741" r="6.741" transform="translate(47.351 36.583)" fill="#006ce5"/>
    <path id="Path_82342" data-name="Path 82342" d="M59.143,41.566H50c-4.1,0-6.857,3.657-6.857,9.095V55.28a2.286,2.286,0,0,0,2.286,2.286H63.714A2.286,2.286,0,0,0,66,55.28V50.661C66,45.221,63.243,41.566,59.143,41.566ZM36.286,43.851a6.866,6.866,0,0,1-6.857-6.857V35.655l.67.67a2.285,2.285,0,1,0,3.232-3.232l-4.571-4.571a2.286,2.286,0,0,0-3.232,0l-4.571,4.571a2.286,2.286,0,1,0,3.232,3.232l.669-.67v1.339A11.442,11.442,0,0,0,36.286,48.423a2.286,2.286,0,1,0,0-4.571Zm-4.571-32H22.571v2.286H18V11.851H8.857a1.161,1.161,0,0,1-.512-.121L2,8.56V23.28a2.286,2.286,0,0,0,2.286,2.286h32a2.286,2.286,0,0,0,2.286-2.286V8.56l-6.345,3.17A1.161,1.161,0,0,1,31.714,11.851Z" transform="translate(0 8.434)" fill="#006ce5"/>
    <path id="Path_82343" data-name="Path 82343" d="M36.286,8.857H29.429V4.286A2.286,2.286,0,0,0,27.143,2H13.429a2.286,2.286,0,0,0-2.286,2.286V8.857H4.286A2.286,2.286,0,0,0,2,11.143v3.294L9.127,18H18V15.714h4.571V18h8.873l7.127-3.563V11.143A2.286,2.286,0,0,0,36.286,8.857Zm-11.429,0H15.714V6.571h9.143Z" transform="translate(0 0)" fill="#006ce5"/>
  </g>
</svg>
