<svg xmlns="http://www.w3.org/2000/svg" width="56.979" height="56.979" viewBox="0 0 56.979 56.979">
  <g id="Group_26932" data-name="Group 26932" transform="translate(-5 -5)">
    <path id="Path_82346" data-name="Path 82346" d="M58.595,20.43,34.082,5.171a1.132,1.132,0,0,0-1.2,0L8.373,20.43a1.138,1.138,0,0,0-.536.969V25.82a1.143,1.143,0,0,0,1.14,1.14H57.991a1.143,1.143,0,0,0,1.14-1.14V21.4a1.138,1.138,0,0,0-.536-.969ZM33.49,22.743a4.729,4.729,0,1,1,4.729-4.729,4.732,4.732,0,0,1-4.729,4.729Zm12,6.5h8.433V46.618H45.49Zm-16.216,0h8.433V46.618H29.273Zm-16.228,0h8.433V46.618H13.046ZM61.979,55.415V60.84a1.143,1.143,0,0,1-1.14,1.14H6.14A1.136,1.136,0,0,1,5,60.84V55.415a1.136,1.136,0,0,1,1.14-1.14H8.875V50.037a1.143,1.143,0,0,1,1.14-1.14H56.965a1.143,1.143,0,0,1,1.14,1.14v4.239H60.84a1.143,1.143,0,0,1,1.14,1.14Z" fill="#006ce5"/>
  </g>
</svg>
