<svg id="Group_26922" data-name="Group 26922" xmlns="http://www.w3.org/2000/svg" width="39.743" height="39.743" viewBox="0 0 39.743 39.743">
  <path id="Path_82327" data-name="Path 82327" d="M5.822,146.063v2.717a3.5,3.5,0,0,0,3.493,3.493h2.329a3.5,3.5,0,0,0,3.493-3.493v-2.717ZM10.479,122a10.479,10.479,0,0,0-6.726,18.514,5.753,5.753,0,0,1,1.946,3.22H9.315v-7.668L6.939,133.69a1.164,1.164,0,0,1,1.647-1.647l1.894,1.893,1.894-1.894a1.164,1.164,0,0,1,1.647,1.647l-2.376,2.376v7.668h3.615a5.752,5.752,0,0,1,1.946-3.22A10.479,10.479,0,0,0,10.479,122Zm27.814,21.457c.013-.172.019-.336.019-.5s-.006-.327-.019-.5l1.095-1.059a1.164,1.164,0,0,0,.2-1.419l-1.941-3.361a1.165,1.165,0,0,0-1.329-.537l-1.466.419a7.752,7.752,0,0,0-.862-.5l-.37-1.478a1.164,1.164,0,0,0-1.13-.882H28.609a1.164,1.164,0,0,0-1.13.882L27.11,136a7.745,7.745,0,0,0-.862.5l-1.466-.419a1.164,1.164,0,0,0-1.329.537l-1.941,3.361a1.164,1.164,0,0,0,.2,1.419l1.095,1.059c-.013.172-.019.337-.019.5s.006.327.019.5l-1.095,1.059a1.164,1.164,0,0,0-.2,1.419l1.941,3.361a1.165,1.165,0,0,0,1.329.537l1.466-.419a7.751,7.751,0,0,0,.862.5l.37,1.478a1.164,1.164,0,0,0,1.13.882H32.49a1.164,1.164,0,0,0,1.13-.882l.37-1.478a7.741,7.741,0,0,0,.862-.5l1.466.419a1.164,1.164,0,0,0,1.329-.537l1.941-3.361a1.164,1.164,0,0,0-.2-1.419Zm-7.743,2.994a3.493,3.493,0,1,1,3.493-3.493A3.5,3.5,0,0,1,30.549,146.451Z" transform="translate(0 -112.53)" fill="#006ce5"/>
  <path id="Path_82328" data-name="Path 82328" d="M145.163,13.537a1.164,1.164,0,0,0-1.647,0L142.4,14.654V5.822A5.828,5.828,0,0,0,136.578,0H125.822A5.828,5.828,0,0,0,120,5.822V7.195c.384-.035.772-.053,1.164-.053s.781.019,1.164.053V5.822a3.5,3.5,0,0,1,3.493-3.493h10.756a3.5,3.5,0,0,1,3.493,3.493v8.832l-1.117-1.117a1.164,1.164,0,0,0-1.647,1.647l3.1,3.1a1.164,1.164,0,0,0,1.647,0l3.1-3.1A1.164,1.164,0,0,0,145.163,13.537Z" transform="translate(-110.685)" fill="#006ce5"/>
</svg>
