<svg xmlns="http://www.w3.org/2000/svg" width="27.2" height="42.309" viewBox="0 0 27.2 42.309">
  <g id="Group_26925" data-name="Group 26925" transform="translate(-6.999 -2)">
    <g id="Group_26924" data-name="Group 26924" transform="translate(6.999 2)">
      <path id="Path_82331" data-name="Path 82331" d="M27.712,2.443a1.511,1.511,0,0,0-2.137,0L19.532,8.487A1.511,1.511,0,0,0,20.6,11.066h1.511V15.6h1.278a3.022,3.022,0,0,1,2.744,1.753,3.022,3.022,0,0,1,3.179.7l1.865,1.863v-8.85h1.511a1.511,1.511,0,0,0,1.068-2.579Zm-7.248,12.27a1.511,1.511,0,0,1-1.375.887H17.81a3.022,3.022,0,0,0-2.744,1.753,3.022,3.022,0,0,0-3.179.7L9.645,20.294V15.6H8.511a1.511,1.511,0,0,1-1.138-2.507l5.289-6.044a1.511,1.511,0,0,1,2.276,0l5.289,6.044a1.511,1.511,0,0,1,.239,1.62Z" transform="translate(-6.999 -2)" fill="#006ce5"/>
      <path id="Path_82332" data-name="Path 82332" d="M17.81,12A1.511,1.511,0,0,0,16.3,13.511v1.162c-.13.051-.257.1-.384.159l-.822-.82a1.511,1.511,0,0,0-2.137,0L9.01,17.954a1.511,1.511,0,0,0,0,2.138l.82.822q-.083.19-.159.384H8.511A1.511,1.511,0,0,0,7,22.808v5.579A1.511,1.511,0,0,0,8.511,29.9H9.673c.051.13.1.257.159.385l-.82.82a1.511,1.511,0,0,0,0,2.138l3.944,3.944a1.511,1.511,0,0,0,2.138,0l.82-.82c.127.054.257.107.385.159v1.164A1.511,1.511,0,0,0,17.81,39.2h5.579A1.511,1.511,0,0,0,24.9,37.688V36.526c.13-.051.257-.1.384-.159l.822.82a1.511,1.511,0,0,0,2.138,0l3.944-3.944a1.511,1.511,0,0,0,0-2.138l-.82-.82c.054-.127.107-.257.159-.385h1.162A1.511,1.511,0,0,0,34.2,28.389V22.81A1.511,1.511,0,0,0,32.688,21.3H31.526q-.076-.194-.159-.385l.82-.82a1.511,1.511,0,0,0,0-2.138l-3.944-3.944a1.511,1.511,0,0,0-2.138,0l-.82.82q-.191-.083-.385-.159V13.511A1.511,1.511,0,0,0,23.389,12Zm8.834,13.6A6.044,6.044,0,1,1,20.6,19.555,6.044,6.044,0,0,1,26.644,25.6Z" transform="translate(-6.999 3.11)" fill="#006ce5" fill-rule="evenodd"/>
    </g>
  </g>
</svg>
