<svg xmlns="http://www.w3.org/2000/svg" width="64" height="64" viewBox="0 0 64 64">
  <g id="Group_26928" data-name="Group 26928" transform="translate(-2 -2)">
    <path id="Path_82338" data-name="Path 82338" d="M47.735,10.59a6.881,6.881,0,0,1,6.86,6.885V18.82l-.67-.672a2.291,2.291,0,1,0-3.234,3.245l4.574,4.59a2.274,2.274,0,0,0,3.233,0l4.573-4.59a2.291,2.291,0,1,0-3.234-3.245l-.67.673V17.475A11.468,11.468,0,0,0,47.735,6a2.3,2.3,0,0,0,0,4.59ZM20.294,49.606a6.881,6.881,0,0,1-6.86-6.885V41.376l.67.672a2.274,2.274,0,0,0,3.233,0,2.3,2.3,0,0,0,0-3.245l-4.574-4.59a2.281,2.281,0,0,0-3.233,0L4.957,38.8A2.291,2.291,0,1,0,8.19,42.049l.67-.673v1.345A11.468,11.468,0,0,0,20.294,54.2a2.3,2.3,0,0,0,0-4.59ZM36.3,28.951a2.291,2.291,0,0,0,2.287-2.3V11.875L32.24,15.059a1.158,1.158,0,0,1-.512.122H22.581v2.3H18.007v-2.3H8.86a1.158,1.158,0,0,1-.512-.122L2,11.875v14.78a2.291,2.291,0,0,0,2.287,2.3Z" transform="translate(0 5.031)" fill="#006ce5"/>
    <path id="Path_82339" data-name="Path 82339" d="M18,18V15.714h4.571V18h8.873l7.127-3.563V11.143a2.286,2.286,0,0,0-2.286-2.286H29.429V4.286A2.286,2.286,0,0,0,27.143,2H13.429a2.286,2.286,0,0,0-2.286,2.286V8.857H4.286A2.286,2.286,0,0,0,2,11.143v3.294L9.127,18ZM15.714,6.571h9.143V8.857H15.714ZM59.143,52.286H50v2.286H45.429V52.286H36.286a1.161,1.161,0,0,1-.512-.121l-6.345-3.17v14.72A2.286,2.286,0,0,0,31.714,66h32A2.286,2.286,0,0,0,66,63.714V48.994l-6.345,3.17a1.161,1.161,0,0,1-.512.121Z" fill="#006ce5"/>
    <path id="Path_82340" data-name="Path 82340" d="M47.865,22.773H41.092V18.258A2.258,2.258,0,0,0,38.834,16H25.288a2.258,2.258,0,0,0-2.258,2.258v4.515H16.258A2.258,2.258,0,0,0,14,25.031v3.253l7.039,3.522H29.8v-2.26h4.515V31.8h8.764l7.039-3.52V25.031A2.258,2.258,0,0,0,47.865,22.773Zm-11.288,0H27.546V20.515h9.031Z" transform="translate(15.877 18.131)" fill="#006ce5"/>
  </g>
</svg>
