<svg xmlns="http://www.w3.org/2000/svg" width="38.243" height="38.243" viewBox="0 0 38.243 38.243">
  <g id="Group_26920" data-name="Group 26920" transform="translate(-3 -3)">
    <path id="Path_82323" data-name="Path 82323" d="M17.872,3H5.125A2.125,2.125,0,0,0,3,5.125V17.872A2.125,2.125,0,0,0,5.125,20H17.872A2.125,2.125,0,0,0,20,17.872V5.125A2.125,2.125,0,0,0,17.872,3ZM39.118,3H26.371a2.125,2.125,0,0,0-2.125,2.125V17.872A2.125,2.125,0,0,0,26.371,20H39.118a2.125,2.125,0,0,0,2.125-2.125V5.125A2.125,2.125,0,0,0,39.118,3ZM17.872,24.246H5.125A2.125,2.125,0,0,0,3,26.371V39.118a2.125,2.125,0,0,0,2.125,2.125H17.872A2.125,2.125,0,0,0,20,39.118V26.371A2.125,2.125,0,0,0,17.872,24.246Zm17,2.125H30.62V30.62H26.371v4.249H30.62v4.249h4.249V34.869h4.249V30.62H34.869Z" transform="translate(0 0)" fill="#006ce5"/>
  </g>
</svg>
