<svg xmlns="http://www.w3.org/2000/svg" width="58.282" height="58.249" viewBox="0 0 58.282 58.249">
  <g id="Group_26933" data-name="Group 26933" transform="translate(-1.846 -1.865)">
    <path id="Path_82347" data-name="Path 82347" d="M58.178,54.3a18.412,18.412,0,0,1-2.166,1.867A19.781,19.781,0,0,1,45.09,60.087a19.565,19.565,0,0,1-13.54-4.5A177.362,177.362,0,0,1,6.418,30.478a19.674,19.674,0,0,1-.58-24.489A18.788,18.788,0,0,1,7.7,3.823a6.685,6.685,0,0,1,9.453,0l4.106,4.106a6.7,6.7,0,0,1,0,9.453,5.637,5.637,0,0,0-1.414,2.32A5.725,5.725,0,0,0,21,25.176,141.286,141.286,0,0,0,36.852,41a5.667,5.667,0,0,0,7.767-.263,6.663,6.663,0,0,1,9.453,0l4.106,4.106a6.7,6.7,0,0,1,0,9.453" transform="translate(0)" fill="#006ce5"/>
    <path id="Path_82348" data-name="Path 82348" d="M61.886,6.223a3.274,3.274,0,0,0-2.23-.888H36.092a3.286,3.286,0,0,0-3.272,3.29V24a3.278,3.278,0,0,0,3.272,3.281h.181A1.131,1.131,0,0,1,37.406,28.4v3.562a1.5,1.5,0,0,0,.924,1.4,1.576,1.576,0,0,0,.6.127A1.533,1.533,0,0,0,40,33.041l5.429-5.429a1.118,1.118,0,0,1,.8-.335H59.656A3.278,3.278,0,0,0,62.928,24V8.625a3.3,3.3,0,0,0-1.042-2.4M39.7,18.511a2.627,2.627,0,1,1,2.332-1.292A2.627,2.627,0,0,1,39.7,18.511m8.172,0a2.627,2.627,0,1,1,2.332-1.292,2.627,2.627,0,0,1-2.332,1.292m8.172,0a2.627,2.627,0,1,1,2.332-1.292,2.627,2.627,0,0,1-2.332,1.292" transform="translate(-2.901 -0.325)" fill="#006ce5"/>
  </g>
</svg>
