<svg xmlns="http://www.w3.org/2000/svg" width="94" height="93.998" viewBox="0 0 94 93.998">
  <g id="Group_26936" data-name="Group 26936" transform="translate(-8.995 -9)">
    <path id="Path_82354" data-name="Path 82354" d="M102.642,69.707a6.278,6.278,0,0,0-4.461-4c-2.377-.668-5.466-.453-9.181.64L72.123,71.313q-.1-.21-.221-.412a7.022,7.022,0,0,0-4.291-3.3l-12-3.207c-8.774-6.137-13.473-4.368-20.381-.984-3.8,1.863-7.68,3.7-11.633,5.572l-.31-.705a4.106,4.106,0,0,0-5.4-2.1L11.453,69A4.087,4.087,0,0,0,9.348,74.4l11.5,26.146a4.1,4.1,0,0,0,5.4,2.1l6.43-2.821a4.087,4.087,0,0,0,2.106-5.405l-1.122-2.551,5.738-2.8a6.334,6.334,0,0,1,4.728-.406L57.62,92.581a10.948,10.948,0,0,0,3.058.41c3.592,0,7.357-1.468,10.521-2.7l.819-.318L97.325,80.2c4.108-1.587,6.642-6.586,5.317-10.49ZM32.375,96.6a1.43,1.43,0,0,1-.766.792l-6.43,2.821a1.438,1.438,0,0,1-1.891-.737L11.786,73.33a1.423,1.423,0,0,1,.738-1.893l6.43-2.821a1.436,1.436,0,0,1,1.891.737L32.346,95.5A1.43,1.43,0,0,1,32.375,96.6Zm63.991-18.89L71.057,87.486l-.827.321c-3.705,1.445-8.317,3.243-11.869,2.215L44.869,86.115a9.007,9.007,0,0,0-6.635.57l-5.645,2.75-7.922-18.01c3.985-1.883,7.893-3.738,11.732-5.619,6.443-3.157,10.164-4.549,17.866.9a1.331,1.331,0,0,0,.426.2l12.233,3.268A4.408,4.408,0,0,1,64.648,78.7L48.391,74.353a1.332,1.332,0,0,0-.687,2.574L63.961,81.27a7.074,7.074,0,0,0,8.876-7.39L89.751,68.9c5.582-1.642,9.457-1.022,10.368,1.66.863,2.542-1,6.082-3.754,7.147ZM60.606,43.4l.011,4.115-2.652,2.652a4.19,4.19,0,1,0,1.884,1.884l3.044-3.044a1.332,1.332,0,0,0,.39-.945l-.012-4.538H74.354V55.3a4.186,4.186,0,1,0,2.664,0V43.522H88.1l-.012,4.538a1.333,1.333,0,0,0,.39.945l3.044,3.044a4.19,4.19,0,1,0,1.884-1.884l-2.652-2.652.011-4.115A11.366,11.366,0,0,0,89.1,20.789H85.16a13.288,13.288,0,0,0-26.456.538,11.39,11.39,0,0,0,1.9,22.071ZM56.1,55.434a1.522,1.522,0,1,1,1.522-1.522A1.524,1.524,0,0,1,56.1,55.434Zm19.585,5.352a1.522,1.522,0,1,1,1.522-1.522A1.524,1.524,0,0,1,75.686,60.786Zm19.585-8.4a1.522,1.522,0,1,1-1.522,1.522A1.524,1.524,0,0,1,95.271,52.39ZM60.316,23.63a1.332,1.332,0,0,0,1.015-1.294,10.624,10.624,0,0,1,21.248-.2,1.332,1.332,0,0,0,1.332,1.313H89.1a8.7,8.7,0,1,1,0,17.405H62.276a8.729,8.729,0,0,1-1.96-17.228Z" transform="translate(0)" fill="#006ce5"/>
  </g>
</svg>
