<svg xmlns="http://www.w3.org/2000/svg" width="95" height="94.265" viewBox="0 0 95 94.265">
  <g id="Group_26934" data-name="Group 26934" transform="translate(-1 -1.3)">
    <path id="Path_82349" data-name="Path 82349" d="M49.955,63.312A18.556,18.556,0,1,1,68.509,44.756,18.562,18.562,0,0,1,49.955,63.312Zm0-34.143A15.587,15.587,0,1,0,65.541,44.756,15.585,15.585,0,0,0,49.955,29.169Z" transform="translate(14.725 12.064)" fill="#006ce5"/>
    <path id="Path_82350" data-name="Path 82350" d="M56.988,37.8a1.514,1.514,0,0,1-1.187-.742,10.958,10.958,0,0,0-6.828-4.6,11.088,11.088,0,0,0-8.312,1.633,1.5,1.5,0,0,1-1.633-2.524,13.844,13.844,0,0,1,19.3,3.86,1.46,1.46,0,0,1-.445,2.078,2.11,2.11,0,0,1-.891.3ZM68.566,82.043a2.893,2.893,0,0,1-1.187-.148,5.849,5.849,0,0,1-3.711-2.524L52.238,59.924a1.528,1.528,0,1,1,2.672-1.484L66.34,77.886a2.955,2.955,0,0,0,1.781,1.188,3.057,3.057,0,0,0,2.227-.445,2.955,2.955,0,0,0,1.188-1.781,2.485,2.485,0,0,0-.594-2.227L56.84,57.1a1.484,1.484,0,1,1,2.375-1.781l14.1,17.517a6.381,6.381,0,0,1,1.188,4.6A5.8,5.8,0,0,1,71.98,81.3a10.13,10.13,0,0,1-3.414.742Z" transform="translate(18.082 13.523)" fill="#006ce5"/>
    <path id="Path_82351" data-name="Path 82351" d="M89,59.492H80.394a1.484,1.484,0,0,1,0-2.969h7.125V8.277a4.2,4.2,0,0,0-4.008-4.008H10.777A3.991,3.991,0,0,0,6.769,8.277v48.1H46.253a1.484,1.484,0,0,1,0,2.969H5.284A1.4,1.4,0,0,1,3.8,57.859V8.277A6.969,6.969,0,0,1,10.777,1.3H83.511a7.167,7.167,0,0,1,6.977,6.977V58.008A1.4,1.4,0,0,1,89,59.492Z" transform="translate(1.356 0)" fill="#006ce5"/>
    <path id="Path_82352" data-name="Path 82352" d="M52.953,69.124H9.016A7.983,7.983,0,0,1,1,61.108v-4.75a1.4,1.4,0,0,1,1.484-1.485H47.609a1.484,1.484,0,0,1,0,2.969H3.969v3.266a5.2,5.2,0,0,0,5.047,5.047H52.953a1.485,1.485,0,0,1,0,2.969Zm35.031,0H76.555a1.485,1.485,0,0,1,0-2.969h11.43a5.2,5.2,0,0,0,5.047-5.047V57.842H81.75a1.484,1.484,0,0,1,0-2.969H94.516A1.4,1.4,0,0,1,96,56.357v4.75A7.983,7.983,0,0,1,87.984,69.124ZM51.172,7.369H45.828a1.4,1.4,0,0,1-1.484-1.484A1.4,1.4,0,0,1,45.828,4.4h5.344a1.4,1.4,0,0,1,1.484,1.484A1.4,1.4,0,0,1,51.172,7.369ZM24.75,32.457H19.406a1.4,1.4,0,0,1-1.484-1.485V13.455a1.4,1.4,0,0,1,1.484-1.484H24.75a1.4,1.4,0,0,1,1.484,1.484V30.973A1.4,1.4,0,0,1,24.75,32.457Zm-3.859-2.969h2.375V14.94H20.891Zm27.016,2.821H42.562a1.4,1.4,0,0,1-1.484-1.484v-5.79a1.4,1.4,0,0,1,1.484-1.484h5.344a1.4,1.4,0,0,1,1.484,1.484v5.79A1.4,1.4,0,0,1,47.906,32.309ZM44.047,29.34h2.375V26.519H44.047Zm-7.719,2.969H30.984A1.4,1.4,0,0,1,29.5,30.824V19.69a1.4,1.4,0,0,1,1.484-1.484h5.344a1.4,1.4,0,0,1,1.484,1.484V30.824A1.4,1.4,0,0,1,36.328,32.309ZM32.469,29.34h2.375V21.175H32.469Zm42.008-9.946H62.75a1.484,1.484,0,0,1,0-2.969H74.477a1.484,1.484,0,0,1,0,2.969Zm5.047,5.938H58.742a1.484,1.484,0,0,1,0-2.969H79.523a1.484,1.484,0,0,1,0,2.969ZM37.07,42.7H18.961a1.484,1.484,0,0,1,0-2.969H37.07a1.484,1.484,0,0,1,0,2.969Zm0,5.938H18.961a1.484,1.484,0,0,1,0-2.969H37.07a1.484,1.484,0,0,1,0,2.969ZM79.523,30.973H58.742a1.484,1.484,0,0,1,0-2.969H79.523a1.484,1.484,0,0,1,0,2.969Z" transform="translate(0 1.502)" fill="#006ce5"/>
  </g>
</svg>
