<svg xmlns="http://www.w3.org/2000/svg" width="64" height="62.198" viewBox="0 0 64 62.198">
  <g id="Group_26930" data-name="Group 26930" transform="translate(0 -1)">
    <path id="Path_82344" data-name="Path 82344" d="M2.7,1a2.7,2.7,0,0,0,0,5.409H7.518A1.877,1.877,0,0,1,9.295,7.69l8.916,26.753a6.593,6.593,0,0,1,.143,3.683l-.733,2.94a6.99,6.99,0,0,0,6.717,8.61H56.79a2.7,2.7,0,1,0,0-5.409H24.338a1.46,1.46,0,0,1-1.474-1.885l.554-2.212A1.731,1.731,0,0,1,25.1,38.86h28.99a2.7,2.7,0,0,0,2.569-1.85l7.207-21.634A2.7,2.7,0,0,0,61.3,11.817H17.727a1.877,1.877,0,0,1-1.779-1.282L13.383,2.85A2.7,2.7,0,0,0,10.817,1Zm18.93,51.381a5.409,5.409,0,1,0,5.409,5.409A5.409,5.409,0,0,0,21.634,52.381Zm32.451,0a5.409,5.409,0,1,0,5.409,5.409A5.409,5.409,0,0,0,54.085,52.381Z" transform="translate(0 0)" fill="#006ce5"/>
  </g>
</svg>
