<svg id="Group_26921" data-name="Group 26921" xmlns="http://www.w3.org/2000/svg" width="37.047" height="37.047" viewBox="0 0 37.047 37.047">
  <path id="Path_82324" data-name="Path 82324" d="M15.267,260.609V257.28a4.341,4.341,0,0,1,0-8.683v-3.256H9.2l.516-1.45a2.124,2.124,0,0,0,.124-.721,2.171,2.171,0,0,0-4.341,0,2.124,2.124,0,0,0,.124.721l.516,1.45H0A16.519,16.519,0,0,0,15.267,260.609Z" transform="translate(0 -223.562)" fill="#006ce5"/>
  <path id="Path_82325" data-name="Path 82325" d="M7.67,72.559A4.346,4.346,0,0,1,12.011,76.9h3.256V70.833l1.45.516a2.17,2.17,0,1,0,0-4.093l-1.45.516V61.76A16.4,16.4,0,0,0,0,76.9H3.328A4.346,4.346,0,0,1,7.67,72.559Zm24.908,6.512h-3.2a4.341,4.341,0,1,1-8.683,0H17.438v6.067l-1.45-.516a2.17,2.17,0,1,0,0,4.093l1.45-.516v6.139A16.4,16.4,0,0,0,32.578,79.071Z" transform="translate(0 -57.291)" fill="#006ce5"/>
  <path id="Path_82326" data-name="Path 82326" d="M256.2,8.755V4.414h-4.341a4.342,4.342,0,1,0-8.683,0H241V7.67a4.341,4.341,0,1,1,0,8.683v3.256h6.067l-.516,1.45a2.124,2.124,0,0,0-.124.721,2.171,2.171,0,0,0,4.341,0,2.125,2.125,0,0,0-.124-.721l-.516-1.45H256.2V17.438a4.408,4.408,0,0,0,4.414-4.341A4.408,4.408,0,0,0,256.2,8.755Z" transform="translate(-223.562)" fill="#006ce5"/>
</svg>
