<svg xmlns="http://www.w3.org/2000/svg" width="64" height="61.68" viewBox="0 0 64 61.68">
  <g id="Group_26931" data-name="Group 26931" transform="translate(0 -8.125)">
    <path id="Path_82345" data-name="Path 82345" d="M50.4,10.343a8.226,8.226,0,0,0-5.684-2.218,9.062,9.062,0,0,0-6.387,2.655l-.747.747-.747-.749a9.069,9.069,0,0,0-6.387-2.652,8.226,8.226,0,0,0-5.684,2.218,8.489,8.489,0,0,0-.187,12.187L37.581,35.536,50.587,22.531A8.489,8.489,0,0,0,50.4,10.343ZM63.165,42.159c-2-1.355-4.354-.971-6.44.233S42.664,53.834,42.664,53.834l-11.788,0a1.29,1.29,0,0,1-1.142-1.163,1.167,1.167,0,0,1,1.142-1.142h7.212c2.524,0,5.35-1.645,5.35-4.569,0-3.107-2.826-4.569-5.35-4.569-4.379,0-5.231.018-5.231.018a10.613,10.613,0,0,1-4.9-.838,13.526,13.526,0,0,0-6.182-1.467A13.2,13.2,0,0,0,12.3,43.986L0,56.1,13.707,69.8l4.569-4.569H41.41a9.4,9.4,0,0,0,6.245-2.373L63.32,45.291a2,2,0,0,0-.155-3.132Z" fill="#006ce5"/>
  </g>
</svg>
