<svg xmlns="http://www.w3.org/2000/svg" width="45.093" height="38.75" viewBox="0 0 45.093 38.75">
  <g id="Group_26923" data-name="Group 26923" transform="translate(-1.739 -3.5)">
    <g id="Layer_2" data-name="Layer 2" transform="translate(1.739 3.5)">
      <path id="Path_82329" data-name="Path 82329" d="M24.2,24.453a1.582,1.582,0,0,0,0-2.246l-4.745-4.745a1.582,1.582,0,0,0-2.246,0l-4.745,4.745a1.588,1.588,0,0,0,2.246,2.246l2.04-2.056V32.82a1.582,1.582,0,1,0,3.163,0V22.4l2.04,2.056a1.582,1.582,0,0,0,2.246,0Z" transform="translate(4.226 4.349)" fill="#006ce5"/>
      <path id="Path_82330" data-name="Path 82330" d="M37.722,16.944a13.444,13.444,0,0,0-26.888,0,9.5,9.5,0,0,0,.807,18.98h7.908a4.745,4.745,0,0,1-3.353-8.1l4.745-4.745a4.745,4.745,0,0,1,6.706,0l4.745,4.745a4.745,4.745,0,0,1-3.353,8.1h7.908a9.5,9.5,0,0,0,.775-18.98Z" transform="translate(-1.739 -3.5)" fill="#006ce5"/>
    </g>
  </g>
</svg>
