<svg xmlns="http://www.w3.org/2000/svg" width="38.75" height="38.75" viewBox="0 0 38.75 38.75">
  <g id="Group_26927" data-name="Group 26927" transform="translate(-2 -2)">
    <path id="Path_82336" data-name="Path 82336" d="M37.344,17.24c-.72-1.706-1.065-2.565-1.815-4.235L37.09,9.726l-4.12-4.1L29.733,7.185C28.045,6.465,27.186,6.12,25.5,5.4L24.276,2H18.444l-1.21,3.376C15.522,6.1,14.663,6.441,13,7.161L9.75,5.63l-4.12,4.1,1.555,3.261c-.72,1.688-1.065,2.547-1.785,4.235L2,18.444v5.832l3.376,1.21c.72,1.712,1.065,2.571,1.785,4.235L5.63,32.97c2.063,2.081,2.063,2.081,4.144,4.144l3.237-1.555c1.688.72,2.547,1.065,4.235,1.815l1.21,3.376h5.832l1.21-3.376c1.706-.72,2.565-1.065,4.235-1.815L32.97,37.09c2.081-2.063,2.081-2.063,4.144-4.144l-1.555-3.237c.72-1.688,1.065-2.547,1.815-4.235l3.376-1.21v-5.82ZM21.36,31.808A10.454,10.454,0,1,1,31.814,21.36,10.454,10.454,0,0,1,21.36,31.808Z" fill="#006ce5"/>
    <path id="Path_82337" data-name="Path 82337" d="M36.356,33.105a8.325,8.325,0,0,1-13.576,0,7.127,7.127,0,0,1,3.527-4.126,5.688,5.688,0,0,0,6.516-.006,7.109,7.109,0,0,1,3.533,4.132Zm-3.594-8.337a3.188,3.188,0,1,1-.936-2.257,3.194,3.194,0,0,1,.936,2.257Z" transform="translate(-8.208 -7.734)" fill="#006ce5"/>
  </g>
</svg>
