<svg xmlns="http://www.w3.org/2000/svg" width="39.742" height="39.742" viewBox="0 0 39.742 39.742">
  <g id="Group_26616" data-name="Group 26616" transform="translate(0)">
    <path id="Path_81764" data-name="Path 81764" d="M148.137,49.871A14.269,14.269,0,0,0,133.885,35.6h-.018a14.2,14.2,0,0,0-4.474.716A10.313,10.313,0,0,1,129,45.83a10.38,10.38,0,0,1-3.036,3.319v8.3H121.46a37.731,37.731,0,0,1,2.032,12.314v2.812h14.729V67.05h7.5a3.559,3.559,0,0,0,3.556-3.712l-.206-4.808,2.592-1.309.109-.872-3.637-6.107Z" transform="translate(-112.032 -32.839)" fill="#006ce5"/>
    <path id="Path_81765" data-name="Path 81765" d="M3.843,14.813l.559.34v2.27H6.764V12.531L4.342,10.109,5.989,8.463l2,2,2-2,1.647,1.647L9.092,12.644v4.779h2.475v-2.27l.559-.34A7.985,7.985,0,1,0,0,7.985,7.935,7.935,0,0,0,3.843,14.813ZM4.4,19.752h7.164v2.661H4.4Z" transform="translate(0)" fill="#006ce5"/>
  </g>
</svg>
