<svg id="Group_26618" data-name="Group 26618" xmlns="http://www.w3.org/2000/svg" width="52.247" height="30.92" viewBox="0 0 52.247 30.92">
  <path id="Path_81766" data-name="Path 81766" d="M37.246.308c4.53,1.051,6.263,3.7,8.435,7.346H37.246ZM10.774,7.96A1.344,1.344,0,0,1,12.3,9.388a1.531,1.531,0,0,1-1.526,1.531H1.531a1.531,1.531,0,1,0,0,3.061H15.307a1.531,1.531,0,1,1,.006,3.061H1.531a1.531,1.531,0,1,0,0,3.061H4.9v4.592a1.531,1.531,0,0,0,1.531,1.531H9.506a5.869,5.869,0,0,0,11.5,0H36.548a5.869,5.869,0,0,0,11.5,0h2.669a1.531,1.531,0,0,0,1.531-1.531V15.511c0-4.491-4.737-4.789-4.742-4.8H35.716a1.531,1.531,0,0,1-1.531-1.531V0H6.429A1.531,1.531,0,0,0,4.9,1.531V4.9H3.061a1.531,1.531,0,0,0,0,3.061ZM44.282,23.068a2.806,2.806,0,1,1-4.791,1.984A2.807,2.807,0,0,1,44.282,23.068Zm-27.042,0a2.806,2.806,0,1,1-4.791,1.984A2.807,2.807,0,0,1,17.24,23.068Zm0,0" fill="#006ce5" fill-rule="evenodd"/>
</svg>
