<svg xmlns="http://www.w3.org/2000/svg" width="38.75" height="38.75" viewBox="0 0 38.75 38.75">
  <g id="Group_23838" data-name="Group 23838" transform="translate(0 4.606)">
    <g id="Group_26617" data-name="Group 26617" transform="translate(0 -4.606)">
      <g id="Group_11658" data-name="Group 11658">
        <path id="Path_65970" data-name="Path 65970" d="M1500.24,2056.775v2.271c-.121-.01-.252-.03-.373-.03h-14.178c-.121,0-.242.01-.4.02v.424c0,1.009.03,2.008-.01,3.017a1.376,1.376,0,0,0,.848,1.473H1461.5V2025.2h38.75v15.106a1.342,1.342,0,0,0-1.443-.9q-6.085.015-12.16.01c-.929,0-1.352.434-1.352,1.362v10.605h-3.219v-12.664a1.155,1.155,0,0,0-1.3-1.3h-4.238V2026.6a1.165,1.165,0,0,0-1.342-1.332h-12.271a1.169,1.169,0,0,0-1.342,1.332v15.954h14.975V2039.7h3.26v12.543c0,.989.424,1.413,1.392,1.413h4.107v3.078h14.461C1499.917,2056.745,1500.078,2056.765,1500.24,2056.775Zm-38.669-11.908v3.734a1.131,1.131,0,0,0,1.211,1.2q6.266.015,12.533,0a1.137,1.137,0,0,0,1.211-1.241v-3.4c0-.1-.01-.192-.02-.3C1471.521,2044.867,1466.576,2044.867,1461.571,2044.867Z" transform="translate(-1461.5 -2025.2)" fill="none"/>
        <path id="Path_65971" data-name="Path 65971" d="M1500.779,2057.494c-.161-.01-.323-.03-.484-.03h-14.461v-3.078h-4.107c-.969,0-1.393-.424-1.393-1.413V2040.43h-3.259v2.856H1462.1v-15.954a1.169,1.169,0,0,1,1.342-1.332h12.271a1.165,1.165,0,0,1,1.342,1.332v10.818h4.238a1.151,1.151,0,0,1,1.3,1.3v12.665h3.219V2041.51c0-.938.424-1.362,1.352-1.362,4.057,0,8.1.01,12.16-.01a1.354,1.354,0,0,1,1.443.9Q1500.784,2049.255,1500.779,2057.494Zm-7.447-12.008h-1.574a1.132,1.132,0,0,0-1.181,1.15,1.118,1.118,0,0,0,1.181,1.11q1.544.016,3.088,0a1.131,1.131,0,1,0,0-2.26C1494.341,2045.476,1493.836,2045.486,1493.332,2045.486Zm-.02,6.64c-.525,0-1.06-.01-1.584,0a1.13,1.13,0,1,0-.02,2.26c1.049.02,2.109.01,3.169,0a1.131,1.131,0,1,0-.02-2.26C1494.341,2052.116,1493.826,2052.126,1493.312,2052.126Zm-23.714-20.778c-.525,0-1.06-.01-1.584,0a1.13,1.13,0,1,0-.01,2.26c1.049.02,2.109.02,3.158,0a1.131,1.131,0,1,0-.02-2.26C1470.627,2031.338,1470.112,2031.348,1469.6,2031.348Zm.01,6.63c-.525,0-1.06-.01-1.584,0a1.131,1.131,0,1,0,.01,2.26c1.029.02,2.069.02,3.1,0a1.121,1.121,0,0,0,1.181-1.15,1.133,1.133,0,0,0-1.191-1.11C1470.617,2037.968,1470.112,2037.978,1469.608,2037.978Z" transform="translate(-1462.039 -2025.919)" fill="#006ce5"/>
        <path id="Path_65972" data-name="Path 65972" d="M1697.837,2365.235a1.4,1.4,0,0,1-.848-1.473c.04-1.009.01-2.008.01-3.017v-.424c.161-.01.283-.02.4-.02h14.178c.121,0,.252.02.373.03v4.077a1.735,1.735,0,0,1-.827.827Z" transform="translate(-1673.224 -2326.485)" fill="#006ce5"/>
        <path id="Path_65973" data-name="Path 65973" d="M1837.2,2401.827a1.736,1.736,0,0,0,.827-.828v.828Z" transform="translate(-1799.288 -2363.077)" fill="none"/>
        <path id="Path_65974" data-name="Path 65974" d="M1462.16,2220.1h14.935c.01.111.02.2.02.3v3.4a1.142,1.142,0,0,1-1.211,1.241q-6.267.015-12.533,0a1.136,1.136,0,0,1-1.211-1.2C1462.15,2222.6,1462.16,2221.371,1462.16,2220.1Z" transform="translate(-1462.089 -2200.432)" fill="#006ce5"/>
        <path id="Path_65975" data-name="Path 65975" d="M1746.964,2219.06c.5,0,1.009-.01,1.5,0a1.131,1.131,0,1,1,0,2.26q-1.544.015-3.088,0a1.131,1.131,0,1,1,0-2.26h1.584Z" transform="translate(-1715.671 -2199.493)" fill="none"/>
        <path id="Path_65976" data-name="Path 65976" d="M1747.033,2284.86c.515,0,1.029-.01,1.544,0a1.131,1.131,0,1,1,.02,2.26c-1.049.01-2.109.02-3.169,0a1.13,1.13,0,1,1,.02-2.26C1745.974,2284.85,1746.5,2284.86,1747.033,2284.86Z" transform="translate(-1715.761 -2258.653)" fill="none"/>
        <path id="Path_65977" data-name="Path 65977" d="M1512.033,2078.96c.515,0,1.029-.01,1.544,0a1.11,1.11,0,0,1,1.171,1.11,1.125,1.125,0,0,1-1.15,1.15c-1.05.02-2.109.02-3.159,0a1.131,1.131,0,0,1-1.14-1.16,1.114,1.114,0,0,1,1.15-1.1C1510.973,2078.95,1511.5,2078.96,1512.033,2078.96Z" transform="translate(-1504.475 -2073.531)" fill="none"/>
        <path id="Path_65978" data-name="Path 65978" d="M1512.045,2144.66c.5,0,1.009-.01,1.514,0a1.133,1.133,0,0,1,1.191,1.11,1.121,1.121,0,0,1-1.181,1.151c-1.029.01-2.069.01-3.1,0a1.131,1.131,0,1,1-.01-2.26C1511,2144.65,1511.52,2144.66,1512.045,2144.66Z" transform="translate(-1504.477 -2132.601)" fill="none"/>
      </g>
    </g>
  </g>
</svg>
