<svg xmlns="http://www.w3.org/2000/svg" width="62.92" height="70.72" viewBox="0 0 62.92 70.72">
  <g id="RX4UsO.tif" transform="translate(0.05 -0.03)">
    <path id="Path_64923" data-name="Path 64923" d="M1408,1135a.642.642,0,0,0-.27-.2,5.22,5.22,0,0,1-2.89-1.06,41.627,41.627,0,0,1-3.62-2.08c-1.42-1-3-1.75-4.4-2.72a5.872,5.872,0,0,1-.73-.74l5-2.23c1.12.63,2.29,1.27,3.44,1.93s2.31,1.34,3.46,2a1,1,0,0,0,1.11-.1l5.4-3.12,5.19-3,6-3.46,5.32-3c1.09-.62,2.19-1.23,3.26-1.88a6.118,6.118,0,0,0,.81-.7v-30.23l-26.59-15.28c-1,.55-2.08,1.12-3.13,1.72-1.91,1.09-3.8,2.2-5.7,3.3q-4.275,2.475-8.54,5c-1.87,1.08-3.76,2.12-5.63,3.19-1,.54-1.91,1.09-2.84,1.66a8.008,8.008,0,0,0-.9.75v30.19a13.536,13.536,0,0,0,1.14.85q2.92,1.76,5.86,3.48a6.121,6.121,0,0,0,4.13.84,2.549,2.549,0,0,0,1.24-.58c1.2-1,1.05-2.14,1.05-3.26v-27.66a3.229,3.229,0,0,1,.42-2H1400a10.787,10.787,0,0,1,.13,1.16v29.78a8.14,8.14,0,0,1-2.09,5.49,5.139,5.139,0,0,1-2,1.39,10.06,10.06,0,0,1-7.78-.18,69,69,0,0,1-8.45-4.63,5,5,0,0,1-2.66-4,.712.712,0,0,0-.2-.27v-31.21a.71.71,0,0,0,.2-.27,5,5,0,0,1,1.56-3.07,8.67,8.67,0,0,1,2.22-1.52c1.91-1.08,3.79-2.19,5.69-3.29q2.025-1.185,4.06-2.36l5.3-3,4.07-2.35c1.73-1,3.44-2,5.19-3a24.112,24.112,0,0,1,2.5-1h1.38l2.17.9c.53.23,1.36.66,1.86.94l4.56,2.61c1.76,1,3.51,2.06,5.27,3.07s3.82,2.14,5.72,3.23c2.48,1.42,4.93,2.87,7.42,4.28a6.641,6.641,0,0,1,3.58,4,.482.482,0,0,0,.17.15V1116a2.189,2.189,0,0,0-.23.38,5.7,5.7,0,0,1-2.51,3.14c-2.52,1.44-5,2.9-7.53,4.34-2.89,1.65-5.79,3.28-8.68,4.94s-5.69,3.3-8.52,5a9,9,0,0,1-2.4.91,1.34,1.34,0,0,0-1.09.25H1408Z" transform="translate(-1377 -1064.25)" fill="#fff"/>
    <path id="Path_64924" data-name="Path 64924" d="M1423.37,1095.18c-.45-1-.77-1.84-1.14-2.61a3.34,3.34,0,0,0-2.14-1.74,13.087,13.087,0,0,0-2.87-.52c-1.29-.09-2.6,0-3.9,0a7.07,7.07,0,0,0-3.27.85,2.73,2.73,0,0,0-1.64,2.74,1.7,1.7,0,0,0,1,1.6,6.671,6.671,0,0,0,1.63.66c1.83.37,3.68.66,5.52,1a48.649,48.649,0,0,1,7.66,1.59,6.5,6.5,0,0,1,4.71,5.21,7.65,7.65,0,0,1-1.93,7,11.45,11.45,0,0,1-5.94,3.07,26.779,26.779,0,0,1-7.5.38,14.212,14.212,0,0,1-7.24-2.18,8.71,8.71,0,0,1-3.77-7c0-1,.1-1.12,1-1.14s1.76,0,2.64,0a1.39,1.39,0,0,1,1.32,1.08,9.844,9.844,0,0,0,.7,2.1c.79,1.59,2.35,2,3.91,2.26a29.608,29.608,0,0,0,6.7.2,9.942,9.942,0,0,0,3.17-.75,3.41,3.41,0,0,0,1.75-4,2.259,2.259,0,0,0-1.4-1.35,25.051,25.051,0,0,0-3.14-.93,45.41,45.41,0,0,0-4.86-.72,29,29,0,0,1-4.5-.75,10.49,10.49,0,0,1-4.6-2.12,7.138,7.138,0,0,1-1.82-3.14,7.92,7.92,0,0,1,1.63-7.05,7.48,7.48,0,0,1,3.07-2.11,14.5,14.5,0,0,1,6.29-1.19h2.36a15,15,0,0,1,7.09,1.82,8.051,8.051,0,0,1,3.95,5.57,10.194,10.194,0,0,1,.23,1.26,1,1,0,0,1-1.13,1.28h-2.48a4.916,4.916,0,0,1-1.06-.37Z" transform="translate(-1377 -1064.25)" fill="#fff"/>
  </g>
</svg>
