<svg xmlns="http://www.w3.org/2000/svg" width="75.936" height="62.988" viewBox="0 0 75.936 62.988">
  <g id="Group_26881" data-name="Group 26881" transform="translate(-1 -6.4)">
    <path id="Path_82263" data-name="Path 82263" d="M47.5,63.1H41.806l-.949-5.457H26.5L25.555,63.1H19.861a1.121,1.121,0,0,0-1.186,1.186V68.2a1.189,1.189,0,0,0,1.186,1.186H47.5A1.276,1.276,0,0,0,48.686,68.2V64.288A1.276,1.276,0,0,0,47.5,63.1ZM76.444,10.2a1.133,1.133,0,0,0-1.3-1.068l-6.287.356a1.133,1.133,0,0,0-1.068,1.3,1.121,1.121,0,0,0,1.3,1.068l3.44-.237c-1.779,2.017,6.406-7.473-17.2,20.166a4.164,4.164,0,0,0-3.915.119l-9.371-9.015a4.259,4.259,0,1,0-8.066-1.9,4.145,4.145,0,0,0,.949,2.61l-5.694,8.066a5.954,5.954,0,0,0-1.423-.237,4.277,4.277,0,0,0-2.372.712l-7.355-6.287a3.961,3.961,0,0,0,.356-1.779,4.27,4.27,0,0,0-8.541,0,5.588,5.588,0,0,0,.474,2.017l-7.117,6.88V10.789a1.874,1.874,0,0,1,1.9-1.9h56.82a1.874,1.874,0,0,1,1.9,1.9v7l2.372-2.847V10.67a5.588,5.588,0,0,0-.474-2.017,4.343,4.343,0,0,0-3.8-2.254H5.27A4.253,4.253,0,0,0,1,10.67V51a4.253,4.253,0,0,0,4.27,4.27H62.09A4.253,4.253,0,0,0,66.361,51V25.973L63.988,28.7V42.58H3.372V36.056l8.778-8.422a4.1,4.1,0,0,0,2.135.593,3.65,3.65,0,0,0,2.254-.712L23.894,33.8a4.76,4.76,0,0,0-.356,1.779,4.27,4.27,0,1,0,8.541,0,4.145,4.145,0,0,0-.949-2.61l5.694-8.066a4.4,4.4,0,0,0,3.44-.356l9.371,9.015a3.9,3.9,0,0,0-.474,2.017,4.27,4.27,0,1,0,8.541,0,3.65,3.65,0,0,0-.712-2.254c1.779-2.017-6.406,7.473,17.319-20.284l.237,3.677a1.17,1.17,0,0,0,1.186,1.068h.119a1.071,1.071,0,0,0,1.068-1.3Zm-42.7,36.3a2.491,2.491,0,1,1,0,4.982,2.491,2.491,0,1,1,0-4.982Z" transform="translate(0 0)" fill="#006ce5"/>
  </g>
</svg>
