<svg xmlns="http://www.w3.org/2000/svg" width="60.932" height="62.986" viewBox="0 0 60.932 62.986">
  <g id="Group_26880" data-name="Group 26880" transform="translate(-8.348)">
    <path id="Path_82261" data-name="Path 82261" d="M87.52,178.087a6.146,6.146,0,0,0-2.054,11.945v6.54a14.387,14.387,0,0,1-12.323,14.213V196.367a25.953,25.953,0,0,1-36.97,0V213a6.169,6.169,0,0,0,6.162,6.162H66.981a6.15,6.15,0,0,0,5.81-4.194,18.5,18.5,0,0,0,16.783-18.4v-6.54a6.146,6.146,0,0,0-2.054-11.945Zm-24.647,35.6H46.443a2.054,2.054,0,0,1,0-4.108H62.874a2.054,2.054,0,1,1,0,4.108ZM87.52,186.3a2.054,2.054,0,1,1,2.054-2.054A2.056,2.056,0,0,1,87.52,186.3Z" transform="translate(-24.402 -156.179)" fill="#006ce5"/>
    <path id="Path_82262" data-name="Path 82262" d="M30.256,0A21.908,21.908,0,1,0,52.164,21.908,21.933,21.933,0,0,0,30.256,0Zm0,27.385a5.477,5.477,0,1,1,5.477-5.477A5.482,5.482,0,0,1,30.256,27.385Z" fill="#006ce5"/>
  </g>
</svg>
