<svg xmlns="http://www.w3.org/2000/svg" width="62.627" height="54.027" viewBox="0 0 62.627 54.027">
  <g id="Group_26883" data-name="Group 26883" transform="translate(0 -35.154)">
    <path id="Path_82268" data-name="Path 82268" d="M29.479,35.154a31.1,31.1,0,0,0-19,7.873l8.187,8.187a19.623,19.623,0,0,1,10.812-4.48ZM16.071,53.808,7.884,45.621A31.1,31.1,0,0,0,0,64.621H11.582A19.626,19.626,0,0,1,16.071,53.808ZM51.045,64.621H62.626a31.1,31.1,0,0,0-7.883-19l-8.187,8.187A19.626,19.626,0,0,1,51.045,64.621Zm0,3.67a19.542,19.542,0,0,1-2.018,7.074q1.117,1.722,2.219,3.453a5.511,5.511,0,0,1-2.26,7.919l1.907,1.907a1.838,1.838,0,0,0,2.6,0A31.135,31.135,0,0,0,62.627,68.29Zm-39.457,0H0A31.136,31.136,0,0,0,9.138,88.643a1.838,1.838,0,0,0,2.6,0L17.3,83.075a1.838,1.838,0,0,0,0-2.6A19.7,19.7,0,0,1,11.585,68.29ZM52.148,43.027a31.1,31.1,0,0,0-19-7.873v11.58a19.624,19.624,0,0,1,10.812,4.48ZM35.39,62.409a5.765,5.765,0,1,0-8.153,8.153c2.84,2.84,16.8,11.751,18.378,12.757a1.835,1.835,0,0,0,2.533-2.533C47.141,79.2,38.23,65.249,35.39,62.409Z" fill="#006ce5"/>
  </g>
</svg>
