<svg xmlns="http://www.w3.org/2000/svg" xmlns:xlink="http://www.w3.org/1999/xlink" width="90.711" height="90.711" viewBox="0 0 90.711 90.711">
  <defs>
    <clipPath id="clip-path">
      <path id="Path_82307" data-name="Path 82307" d="M0-682.665H90.711v90.711H0Z" transform="translate(0 682.665)" fill="#006ce5"/>
    </clipPath>
  </defs>
  <g id="Group_26891" data-name="Group 26891" transform="translate(0 -0.002)">
    <g id="Group_26890" data-name="Group 26890" transform="translate(0 0.002)" clip-path="url(#clip-path)">
      <path id="Path_82296" data-name="Path 82296" d="M-592.246-377.443h-70.128a10.3,10.3,0,0,1-10.292-10.292V-443.4a10.3,10.3,0,0,1,10.292-10.292h70.128a10.224,10.224,0,0,1,7.277,3.014,10.224,10.224,0,0,1,3.014,7.277v43.859a1.329,1.329,0,0,1-1.329,1.329,1.329,1.329,0,0,1-1.329-1.329V-443.4a7.584,7.584,0,0,0-2.236-5.4,7.584,7.584,0,0,0-5.4-2.236h-70.128a7.643,7.643,0,0,0-7.634,7.634v55.663a7.643,7.643,0,0,0,7.634,7.634h70.128a7.643,7.643,0,0,0,7.634-7.634V-393.4a1.329,1.329,0,0,1,1.329-1.329,1.329,1.329,0,0,1,1.329,1.329v5.669A10.3,10.3,0,0,1-592.246-377.443Z" transform="translate(672.665 460.922)" fill="#006ce5"/>
      <path id="Path_82297" data-name="Path 82297" d="M-52.635,53.844h-65.876a6.224,6.224,0,0,1-6.217-6.217V-3.783A6.224,6.224,0,0,1-118.511-10h4.236a1.329,1.329,0,0,1,1.329,1.329,1.329,1.329,0,0,1-1.329,1.329h-4.236a3.563,3.563,0,0,0-3.559,3.559V47.628a3.563,3.563,0,0,0,3.559,3.559h65.876a3.563,3.563,0,0,0,3.559-3.559V-3.783a3.563,3.563,0,0,0-3.559-3.559h-55.519a1.329,1.329,0,0,1-1.329-1.329A1.329,1.329,0,0,1-108.154-10h55.519a6.224,6.224,0,0,1,6.217,6.217V47.628A6.224,6.224,0,0,1-52.635,53.844Z" transform="translate(130.929 23.433)" fill="#006ce5"/>
      <path id="Path_82298" data-name="Path 82298" d="M-117.282-158.246a1.339,1.339,0,0,1-.241-.022,13.227,13.227,0,0,1-10.837-13.02,13.252,13.252,0,0,1,13.237-13.237,1.329,1.329,0,0,1,1.329,1.329v10.579h10.579a1.329,1.329,0,0,1,1.329,1.329,13.23,13.23,0,0,1-8.992,12.541,1.329,1.329,0,0,1-1.685-.833,1.329,1.329,0,0,1,.833-1.685,10.573,10.573,0,0,0,7.1-8.695h-10.5a1.329,1.329,0,0,1-1.329-1.329v-10.5a10.6,10.6,0,0,0-9.251,10.5,10.57,10.57,0,0,0,8.658,10.406,1.329,1.329,0,0,1,1.067,1.547A1.329,1.329,0,0,1-117.282-158.246Z" transform="translate(142.504 212.236)" fill="#006ce5"/>
      <path id="Path_82299" data-name="Path 82299" d="M-86.38-85.051H-98.288a1.329,1.329,0,0,1-1.329-1.329V-98.288a1.329,1.329,0,0,1,1.329-1.329A13.252,13.252,0,0,1-85.051-86.38,1.329,1.329,0,0,1-86.38-85.051Zm-10.579-2.658h9.168a10.6,10.6,0,0,0-9.168-9.168Z" transform="translate(131.913 121.084)" fill="#006ce5"/>
      <path id="Path_82300" data-name="Path 82300" d="M-8.671-29.863a1.328,1.328,0,0,1-1.119-.61,1.329,1.329,0,0,1,.4-1.837L-5.06-35.1a5.485,5.485,0,0,1,2.974-.874H8.56a1.329,1.329,0,0,1,1.329,1.329A1.329,1.329,0,0,1,8.56-33.314H-2.086a2.833,2.833,0,0,0-1.536.452l-4.331,2.788A1.323,1.323,0,0,1-8.671-29.863Z" transform="translate(51.678 58.561)" fill="#006ce5"/>
      <path id="Path_82301" data-name="Path 82301" d="M-82.087-43.183h-8.5a4.08,4.08,0,0,1-4.075-4.075,4.08,4.08,0,0,1,4.075-4.075h8.5a4.08,4.08,0,0,1,4.075,4.075A4.08,4.08,0,0,1-82.087-43.183Zm-8.5-5.492a1.419,1.419,0,0,0-1.417,1.417,1.419,1.419,0,0,0,1.417,1.417h8.5a1.419,1.419,0,0,0,1.417-1.417,1.419,1.419,0,0,0-1.417-1.417Z" transform="translate(153.575 71.088)" fill="#006ce5"/>
      <path id="Path_82302" data-name="Path 82302" d="M14.3-3.892H-2.086A5.485,5.485,0,0,1-5.06-4.767L-9.391-7.555a1.329,1.329,0,0,1-.4-1.837,1.329,1.329,0,0,1,1.837-.4L-3.622-7a2.832,2.832,0,0,0,1.536.452H14.3a1.329,1.329,0,0,1,1.329,1.329A1.329,1.329,0,0,1,14.3-3.892Z" transform="translate(45.933 56.269)" fill="#006ce5"/>
      <path id="Path_82303" data-name="Path 82303" d="M-90.591-10h8.5a4.08,4.08,0,0,1,4.075,4.075A4.08,4.08,0,0,1-82.087-1.85h-8.5a4.08,4.08,0,0,1-4.075-4.075A4.08,4.08,0,0,1-90.591-10Zm8.5,5.492A1.419,1.419,0,0,0-80.67-5.925a1.419,1.419,0,0,0-1.417-1.417h-8.5a1.419,1.419,0,0,0-1.417,1.417,1.419,1.419,0,0,0,1.417,1.417Z" transform="translate(153.575 57.062)" fill="#006ce5"/>
      <path id="Path_82304" data-name="Path 82304" d="M-40.5-23.257a1.329,1.329,0,0,1-1.329-1.329,1.111,1.111,0,0,0-1.11-1.11,1.111,1.111,0,0,0-1.11,1.11,1.329,1.329,0,0,1-1.329,1.329,1.329,1.329,0,0,1-1.329-1.329,3.772,3.772,0,0,1,3.768-3.768,3.772,3.772,0,0,1,3.768,3.768A1.329,1.329,0,0,1-40.5-23.257Z" transform="translate(77.395 89.315)" fill="#006ce5"/>
      <path id="Path_82305" data-name="Path 82305" d="M-3.794-23.257a1.329,1.329,0,0,1-1.329-1.329,1.111,1.111,0,0,0-1.11-1.11,1.111,1.111,0,0,0-1.11,1.11,1.329,1.329,0,0,1-1.329,1.329A1.329,1.329,0,0,1-10-24.586a3.772,3.772,0,0,1,3.768-3.768,3.772,3.772,0,0,1,3.768,3.768A1.329,1.329,0,0,1-3.794-23.257Z" transform="translate(62.488 89.315)" fill="#006ce5"/>
      <path id="Path_82306" data-name="Path 82306" d="M-6.084-6.164A4.759,4.759,0,0,1-9.673-7.8a1.329,1.329,0,0,1,.129-1.875,1.329,1.329,0,0,1,1.875.129,2.1,2.1,0,0,0,1.585.723A2.1,2.1,0,0,0-4.5-9.544a1.329,1.329,0,0,1,1.875-.129A1.329,1.329,0,0,1-2.5-7.8,4.76,4.76,0,0,1-6.084-6.164Z" transform="translate(51.44 76.25)" fill="#006ce5"/>
    </g>
  </g>
</svg>
