<svg id="Group_26878" data-name="Group 26878" xmlns="http://www.w3.org/2000/svg" width="62.99" height="62.99" viewBox="0 0 62.99 62.99">
  <path id="Path_82256" data-name="Path 82256" d="M52.371,8.462,51.157,1.579A1.845,1.845,0,0,0,49.02.083h0a1.845,1.845,0,0,0-1.5,2.138l.428,2.426A31.491,31.491,0,0,0,0,31.5a1.845,1.845,0,1,0,3.691,0A27.8,27.8,0,0,1,45.914,7.726l-2.564.452a1.845,1.845,0,1,0,.641,3.635L50.874,10.6a1.845,1.845,0,0,0,1.5-2.138Z" fill="#006ce5"/>
  <path id="Path_82257" data-name="Path 82257" d="M122.637,97.839l-2.883-.678a17.908,17.908,0,0,0-1.249-3.012l1.559-2.519a1.845,1.845,0,0,0-.264-2.276l-4.094-4.094a1.845,1.845,0,0,0-2.276-.264l-2.519,1.56a17.9,17.9,0,0,0-3.012-1.249l-.678-2.883a1.846,1.846,0,0,0-1.8-1.423h-5.79a1.845,1.845,0,0,0-1.8,1.423l-.678,2.883a17.908,17.908,0,0,0-3.012,1.249l-2.519-1.56a1.846,1.846,0,0,0-2.276.264l-4.094,4.094a1.845,1.845,0,0,0-.264,2.276l1.56,2.519a17.913,17.913,0,0,0-1.249,3.012l-2.883.678A1.846,1.846,0,0,0,81,99.635v5.789a1.845,1.845,0,0,0,1.423,1.8l2.883.678a17.909,17.909,0,0,0,1.249,3.012l-1.56,2.519a1.845,1.845,0,0,0,.264,2.276l4.094,4.094a1.845,1.845,0,0,0,2.276.264l2.519-1.56a17.9,17.9,0,0,0,3.012,1.249l.678,2.883a1.846,1.846,0,0,0,1.8,1.423h5.79a1.845,1.845,0,0,0,1.8-1.423l.678-2.883a17.906,17.906,0,0,0,3.012-1.249l2.519,1.56a1.846,1.846,0,0,0,2.276-.264l4.094-4.094a1.845,1.845,0,0,0,.264-2.276l-1.56-2.519a17.916,17.916,0,0,0,1.249-3.012l2.883-.678a1.845,1.845,0,0,0,1.423-1.8V99.635a1.845,1.845,0,0,0-1.423-1.8Zm-20.107,13.3a8.612,8.612,0,1,1,8.612-8.612A8.612,8.612,0,0,1,102.53,111.142Z" transform="translate(-71.035 -71.035)" fill="#006ce5"/>
  <path id="Path_82258" data-name="Path 82258" d="M86.114,265.879l1.214,6.882a1.845,1.845,0,0,0,2.138,1.5h0a1.846,1.846,0,0,0,1.5-2.138l-.428-2.426a31.491,31.491,0,0,0,47.95-26.848,1.845,1.845,0,0,0-3.691,0,27.8,27.8,0,0,1-42.224,23.769l2.564-.452a1.845,1.845,0,1,0-.641-3.635l-6.882,1.214A1.845,1.845,0,0,0,86.114,265.879Z" transform="translate(-75.495 -211.35)" fill="#006ce5"/>
</svg>
