<svg id="Group_26877" data-name="Group 26877" xmlns="http://www.w3.org/2000/svg" width="42.408" height="42.408" viewBox="0 0 42.408 42.408">
  <path id="Path_82254" data-name="Path 82254" d="M239.987,111c-3.823,0-6.738,3.059-7.948,6.046,1.21,2.987,4.125,6.046,7.948,6.046s6.738-3.059,7.948-6.046C246.725,114.059,243.811,111,239.987,111Zm0,9.939a3.893,3.893,0,1,1,3.893-3.893A3.9,3.9,0,0,1,239.987,120.939Z" transform="translate(-212.82 -101.806)" fill="#006ce5"/>
  <ellipse id="Ellipse_898" data-name="Ellipse 898" cx="1.5" cy="2" rx="1.5" ry="2" transform="translate(26 13.002)" fill="#006ce5"/>
  <path id="Path_82255" data-name="Path 82255" d="M27.168,0A15.232,15.232,0,0,0,15.554,25.1l-1.639,1.639-1.109-1.109a1.243,1.243,0,0,0-1.754,0L1.214,35.385a4.108,4.108,0,1,0,5.809,5.809l9.762-9.838a1.242,1.242,0,0,0,0-1.754l-1.109-1.109,1.639-1.639A15.237,15.237,0,1,0,27.168,0ZM37.616,15.654c-1.559,4.413-5.629,8.117-10.448,8.117s-8.887-3.7-10.448-8.117a1.242,1.242,0,0,1,0-.828,13.117,13.117,0,0,1,3.9-5.633,9.86,9.86,0,0,1,13.09,0,13.117,13.117,0,0,1,3.9,5.633A1.242,1.242,0,0,1,37.616,15.654Z" fill="#006ce5"/>
</svg>
