<svg id="Group_26882" data-name="Group 26882" xmlns="http://www.w3.org/2000/svg" width="64.807" height="60.756" viewBox="0 0 64.807 60.756">
  <path id="Path_82264" data-name="Path 82264" d="M130.871,135.567h-6.227l-1.266-3.8H100.391l-1.266,3.8H92.9a1.9,1.9,0,0,0,0,3.8h37.973a1.9,1.9,0,0,0,0-3.8Zm0-45.567a1.9,1.9,0,1,0,1.9,1.9A1.9,1.9,0,0,0,130.871,90Zm0,0" transform="translate(-79.482 -78.608)" fill="#006ce5"/>
  <path id="Path_82265" data-name="Path 82265" d="M58.984,0H5.7A5.7,5.7,0,0,0,0,5.7V37.973H11.518v-5.7a1.9,1.9,0,0,1,1.9-1.9h2.934a16.9,16.9,0,0,1,.675-1.626L14.95,26.675a1.9,1.9,0,0,1,0-2.685l5.37-5.37a1.9,1.9,0,0,1,2.685,0L25.081,20.7a16.987,16.987,0,0,1,1.626-.677V17.088a1.9,1.9,0,0,1,1.9-1.9H36.2a1.9,1.9,0,0,1,1.9,1.9v2.934a17.036,17.036,0,0,1,1.626.676L41.8,18.621a1.9,1.9,0,0,1,2.685,0l5.37,5.37a1.9,1.9,0,0,1,0,2.685l-2.075,2.077a16.947,16.947,0,0,1,.675,1.626H51.39a1.9,1.9,0,0,1,1.9,1.9v5.7H64.807V5.7A5.812,5.812,0,0,0,58.984,0ZM51.39,18.986a5.7,5.7,0,1,1,5.7-5.7A5.7,5.7,0,0,1,51.39,18.986Zm0,0" fill="#006ce5"/>
  <path id="Path_82266" data-name="Path 82266" d="M211,245.7a5.659,5.659,0,0,0,.368,1.9h10.655A5.678,5.678,0,1,0,211,245.7Zm0,0" transform="translate(-184.293 -209.622)" fill="#006ce5"/>
  <path id="Path_82267" data-name="Path 82267" d="M19.591,163.765a1.9,1.9,0,0,1-1.839,1.424H15.316v3.8H23.16a9.5,9.5,0,1,1,18.487,0h7.844v-3.8H47.055a1.9,1.9,0,0,1-1.839-1.424,13.05,13.05,0,0,0-1.406-3.384,1.9,1.9,0,0,1,.293-2.307l1.726-1.728-2.685-2.685-1.728,1.728a1.891,1.891,0,0,1-2.308.291,13.056,13.056,0,0,0-3.382-1.406,1.9,1.9,0,0,1-1.424-1.839V150H30.5v2.436a1.9,1.9,0,0,1-1.424,1.839,13.052,13.052,0,0,0-3.382,1.406,1.892,1.892,0,0,1-2.308-.291l-1.728-1.728-2.685,2.685,1.726,1.728A1.9,1.9,0,0,1,21,160.381a13.053,13.053,0,0,0-1.406,3.384ZM0,174.682a5.7,5.7,0,0,0,5.7,5.7H58.984a5.812,5.812,0,0,0,5.822-5.7v-1.9H0Zm0,0" transform="translate(0 -131.014)" fill="#006ce5"/>
</svg>
