<svg xmlns="http://www.w3.org/2000/svg" width="60.688" height="60.688" viewBox="0 0 60.688 60.688">
  <g id="Group_26879" data-name="Group 26879" transform="translate(-3 -3)">
    <path id="Path_82259" data-name="Path 82259" d="M10,49H51.9a5.78,5.78,0,0,0-5.78-5.78H15.78A5.78,5.78,0,0,0,10,49ZM25.071,36l-1.243,4.335h12.8L35.388,36Z" transform="translate(3.115 14.683)" fill="#006ce5"/>
    <ellipse id="Ellipse_899" data-name="Ellipse 899" cx="2.5" cy="2" rx="2.5" ry="2" transform="translate(17 21.688)" fill="#006ce5"/>
    <ellipse id="Ellipse_900" data-name="Ellipse 900" cx="1.5" cy="1" rx="1.5" ry="1" transform="translate(12 10.688)" fill="#006ce5"/>
    <ellipse id="Ellipse_901" data-name="Ellipse 901" cx="1" cy="1.5" rx="1" ry="1.5" transform="translate(28 15.688)" fill="#006ce5"/>
    <path id="Path_82260" data-name="Path 82260" d="M3,44.9a2.89,2.89,0,0,0,2.89,2.89H60.8a2.89,2.89,0,0,0,2.89-2.89V40.568H3ZM60.8,3H5.89A2.89,2.89,0,0,0,3,5.89V37.679H63.688V5.89A2.89,2.89,0,0,0,60.8,3ZM37.679,8.78h13a1.445,1.445,0,0,1,0,2.89h-13a1.445,1.445,0,1,1,0-2.89Zm-8.67,13a4.335,4.335,0,0,1-1.864-.433l-2.471,2.485v.116a5.057,5.057,0,1,1-9.219-2.89L13.548,16h-.433a4.335,4.335,0,1,1,3.049-1.257l1.691,4.479a5.1,5.1,0,0,1,1.763-.332,5.014,5.014,0,0,1,3.959,1.951l1.517-1.532a4.336,4.336,0,1,1,3.916,2.471Zm26.009,11.56H37.679a1.445,1.445,0,1,1,0-2.89H55.018a1.445,1.445,0,1,1,0,2.89Zm-18.784-8.67a1.445,1.445,0,0,1,1.445-1.445H53.573a1.445,1.445,0,0,1,0,2.89H37.679A1.445,1.445,0,0,1,36.234,24.674Zm20.229-5.78H37.679a1.445,1.445,0,1,1,0-2.89H56.463a1.445,1.445,0,0,1,0,2.89Z" transform="translate(0 0)" fill="#006ce5"/>
  </g>
</svg>
