<svg xmlns="http://www.w3.org/2000/svg" xmlns:xlink="http://www.w3.org/1999/xlink" width="90" height="90" viewBox="0 0 90 90">
  <defs>
    <clipPath id="clip-path">
      <path id="Path_82274" data-name="Path 82274" d="M0-682.665H90v90H0Z" transform="translate(0 682.665)" fill="#006ce5"/>
    </clipPath>
  </defs>
  <g id="Group_26886" data-name="Group 26886" transform="translate(0 -0.002)">
    <path id="Path_82269" data-name="Path 82269" d="M-487.817-160.174h-73.075a1.725,1.725,0,0,1-1.774-1.672v-44.481A1.725,1.725,0,0,1-560.892-208h73.075a1.725,1.725,0,0,1,1.774,1.672v44.481A1.725,1.725,0,0,1-487.817-160.174Zm-71.3-3.344h69.528v-41.136h-69.528Z" transform="translate(569.354 214.69)" fill="#006ce5"/>
    <path id="Path_82270" data-name="Path 82270" d="M-516.372-69.922q-.088,0-.176-.008a1.761,1.761,0,0,1-1.485-1.077L-524.354-86.9l-6.321,15.891a1.767,1.767,0,0,1-1.568,1.083,1.793,1.793,0,0,1-1.679-.922l-4.831-9.109h-22.139a1.725,1.725,0,0,1-1.774-1.672,1.725,1.725,0,0,1,1.774-1.672h23.235a1.788,1.788,0,0,1,1.586.924l3.5,6.6,6.553-16.476a1.773,1.773,0,0,1,1.661-1.085,1.773,1.773,0,0,1,1.661,1.085l6.717,16.889,4.722-7.152a1.8,1.8,0,0,1,1.506-.788h21.931a1.725,1.725,0,0,1,1.774,1.672,1.725,1.725,0,0,1-1.774,1.672h-20.946l-6.1,9.245A1.8,1.8,0,0,1-516.372-69.922Z" transform="translate(569.354 115.889)" fill="#006ce5"/>
    <g id="Group_26884" data-name="Group 26884" transform="translate(0 0.002)" clip-path="url(#clip-path)">
      <path id="Path_82271" data-name="Path 82271" d="M-51.579,5.3a1.755,1.755,0,0,1-.579-.1A1.758,1.758,0,0,1-53.238,2.96l5.273-15.117a1.758,1.758,0,0,1,2.239-1.081A1.758,1.758,0,0,1-44.645-11L-49.919,4.118A1.759,1.759,0,0,1-51.579,5.3Z" transform="translate(86.032 84.704)" fill="#006ce5"/>
      <path id="Path_82272" data-name="Path 82272" d="M-46.305-109.37a1.758,1.758,0,0,1-1.66-1.179l-5.273-15.117a1.758,1.758,0,0,1,1.081-2.239,1.758,1.758,0,0,1,2.239,1.081l5.273,15.117a1.758,1.758,0,0,1-1.081,2.239A1.756,1.756,0,0,1-46.305-109.37Z" transform="translate(101.852 199.37)" fill="#006ce5"/>
      <path id="Path_82273" data-name="Path 82273" d="M30.612-9.818H-11.576a1.758,1.758,0,0,1-1.758-1.758,1.758,1.758,0,0,1,1.758-1.758H30.612a1.758,1.758,0,0,1,1.758,1.758A1.758,1.758,0,0,1,30.612-9.818Z" transform="translate(35.482 99.818)" fill="#006ce5"/>
    </g>
    <path id="Path_82275" data-name="Path 82275" d="M-46.644-9.989h-5.017a1.672,1.672,0,0,1-1.672-1.672,1.672,1.672,0,0,1,1.672-1.672h5.017a1.672,1.672,0,0,1,1.672,1.672A1.672,1.672,0,0,1-46.644-9.989Z" transform="translate(63.366 76.037)" fill="#006ce5"/>
    <path id="Path_82276" data-name="Path 82276" d="M-46.644-9.989h-5.017a1.672,1.672,0,0,1-1.672-1.672,1.672,1.672,0,0,1,1.672-1.672h5.017a1.672,1.672,0,0,1,1.672,1.672A1.672,1.672,0,0,1-46.644-9.989Z" transform="translate(79.839 76.037)" fill="#006ce5"/>
    <path id="Path_82277" data-name="Path 82277" d="M-88.624-9.989H-99.661a1.672,1.672,0,0,1-1.672-1.672,1.672,1.672,0,0,1,1.672-1.672h11.037a1.672,1.672,0,0,1,1.672,1.672A1.672,1.672,0,0,1-88.624-9.989Z" transform="translate(166.919 76.037)" fill="#006ce5"/>
    <g id="Group_26885" data-name="Group 26885" transform="translate(0 0.002)" clip-path="url(#clip-path)">
      <path id="Path_82278" data-name="Path 82278" d="M-23.151-11.575a1.758,1.758,0,0,1-1.758,1.758,1.758,1.758,0,0,1-1.758-1.758,1.758,1.758,0,0,1,1.758-1.758,1.758,1.758,0,0,1,1.758,1.758" transform="translate(69.909 13.333)" fill="#006ce5"/>
      <path id="Path_82279" data-name="Path 82279" d="M-316.606,61.55h-79.453a5.279,5.279,0,0,1-5.273-5.273V-8.06a5.279,5.279,0,0,1,5.273-5.273h31.816a1.758,1.758,0,0,1,1.758,1.758,1.758,1.758,0,0,1-1.758,1.758h-31.816a1.76,1.76,0,0,0-1.758,1.758V56.276a1.76,1.76,0,0,0,1.758,1.758h79.453a1.76,1.76,0,0,0,1.758-1.758V-8.06a1.76,1.76,0,0,0-1.758-1.758h-31.816a1.758,1.758,0,0,1-1.758-1.758,1.758,1.758,0,0,1,1.758-1.758h31.816a5.279,5.279,0,0,1,5.273,5.273V56.276A5.279,5.279,0,0,1-316.606,61.55Z" transform="translate(401.332 13.333)" fill="#006ce5"/>
    </g>
  </g>
</svg>
