<svg xmlns="http://www.w3.org/2000/svg" xmlns:xlink="http://www.w3.org/1999/xlink" width="90" height="90" viewBox="0 0 90 90">
  <defs>
    <clipPath id="clip-path">
      <path id="Path_82295" data-name="Path 82295" d="M0-682.665H90v90H0Z" transform="translate(0 682.665)" fill="#006ce5"/>
    </clipPath>
  </defs>
  <g id="Group_26888" data-name="Group 26888" clip-path="url(#clip-path)">
    <path id="Path_82284" data-name="Path 82284" d="M24.855,42.349a1.318,1.318,0,0,1-1.318-1.318V-4.23A3.137,3.137,0,0,0,20.4-7.363H-8.682A1.318,1.318,0,0,1-10-8.682,1.318,1.318,0,0,1-8.682-10H20.4a5.776,5.776,0,0,1,5.77,5.77V41.03A1.318,1.318,0,0,1,24.855,42.349Z" transform="translate(63.775 22.661)" fill="#006ce5"/>
    <path id="Path_82285" data-name="Path 82285" d="M-8.682-334.725A1.318,1.318,0,0,1-10-336.043V-381.3a5.776,5.776,0,0,1,5.77-5.77H25.2a1.318,1.318,0,0,1,1.318,1.318,1.318,1.318,0,0,1-1.318,1.318H-4.23A3.137,3.137,0,0,0-7.363-381.3v45.26A1.318,1.318,0,0,1-8.682-334.725Z" transform="translate(10.051 399.735)" fill="#006ce5"/>
    <path id="Path_82286" data-name="Path 82286" d="M-147.238-10h17.022A1.318,1.318,0,0,1-128.9-8.7c.044,2.727.373,10.425,1.36,13.26a1.318,1.318,0,0,1-.17,1.2,1.318,1.318,0,0,1-1.075.555h-19.889a1.318,1.318,0,0,1-1.075-.555,1.318,1.318,0,0,1-.17-1.2c.987-2.834,1.317-10.533,1.36-13.26A1.318,1.318,0,0,1-147.238-10ZM-131.5-7.363h-14.452a77.441,77.441,0,0,1-1.014,11.036h16.479A77.443,77.443,0,0,1-131.5-7.363Z" transform="translate(183.727 83.688)" fill="#006ce5"/>
    <path id="Path_82287" data-name="Path 82287" d="M-2.68-7.363h-6A1.318,1.318,0,0,1-10-8.682,1.318,1.318,0,0,1-8.682-10h6A1.318,1.318,0,0,1-1.362-8.682,1.318,1.318,0,0,1-2.68-7.363Z" transform="translate(50.681 78.03)" fill="#006ce5"/>
    <path id="Path_82288" data-name="Path 82288" d="M16.213,36.3a1.318,1.318,0,0,1-1.318-1.318V-6.735a.629.629,0,0,0-.628-.628H-8.682A1.318,1.318,0,0,1-10-8.682,1.318,1.318,0,0,1-8.682-10H14.266a3.269,3.269,0,0,1,3.265,3.265V34.983A1.318,1.318,0,0,1,16.213,36.3Z" transform="translate(66.921 28.708)" fill="#006ce5"/>
    <path id="Path_82289" data-name="Path 82289" d="M-8.682-294.905A1.318,1.318,0,0,1-10-296.224v-41.718a3.269,3.269,0,0,1,3.265-3.265H16.213a1.318,1.318,0,0,1,1.318,1.318,1.318,1.318,0,0,1-1.318,1.318H-6.735a.629.629,0,0,0-.628.628v41.718A1.318,1.318,0,0,1-8.682-294.905Z" transform="translate(15.548 359.915)" fill="#006ce5"/>
    <path id="Path_82290" data-name="Path 82290" d="M22.331-7.363H-8.682A1.318,1.318,0,0,1-10-8.682,1.318,1.318,0,0,1-8.682-10H22.331a1.318,1.318,0,0,1,1.318,1.318A1.318,1.318,0,0,1,22.331-7.363Z" transform="translate(38.175 97.36)" fill="#006ce5"/>
    <path id="Path_82291" data-name="Path 82291" d="M-414.391,3.951h-78.357a5.776,5.776,0,0,1-5.77-5.77V-8.682A1.318,1.318,0,0,1-497.2-10h58.1a1.318,1.318,0,0,1,1.318,1.318A1.318,1.318,0,0,1-439.1-7.363h-56.777v5.545a3.137,3.137,0,0,0,3.133,3.133h78.357a3.137,3.137,0,0,0,3.133-3.133V-7.363H-432.8a1.318,1.318,0,0,1-1.318-1.318A1.318,1.318,0,0,1-432.8-10h22.856a1.318,1.318,0,0,1,1.318,1.318v6.863A5.776,5.776,0,0,1-414.391,3.951Z" transform="translate(498.57 72.373)" fill="#006ce5"/>
    <path id="Path_82292" data-name="Path 82292" d="M-108.478-30.548h-47.4a5.489,5.489,0,0,1-4.8-2.772,5.488,5.488,0,0,1,0-5.545l19.39-33.584a1.318,1.318,0,0,1,1.8-.483,1.318,1.318,0,0,1,.483,1.8L-158.4-37.547a2.878,2.878,0,0,0,0,2.908,2.879,2.879,0,0,0,2.519,1.454h47.4a2.879,2.879,0,0,0,2.519-1.454,2.879,2.879,0,0,0,0-2.908l-23.7-41.054a2.879,2.879,0,0,0-2.519-1.454A2.879,2.879,0,0,0-134.7-78.6l-1.278,2.213a1.318,1.318,0,0,1-1.8.483,1.318,1.318,0,0,1-.483-1.8l1.278-2.213a5.489,5.489,0,0,1,4.8-2.772,5.489,5.489,0,0,1,4.8,2.772l23.7,41.054a5.488,5.488,0,0,1,0,5.545A5.489,5.489,0,0,1-108.478-30.548Z" transform="translate(177.18 82.695)" fill="#006ce5"/>
    <path id="Path_82293" data-name="Path 82293" d="M-54.865-34.721a4.583,4.583,0,0,1,4.578,4.578,4.583,4.583,0,0,1-4.578,4.578,4.583,4.583,0,0,1-4.578-4.578A4.583,4.583,0,0,1-54.865-34.721Zm0,6.518a1.943,1.943,0,0,0,1.941-1.941,1.943,1.943,0,0,0-1.941-1.941,1.943,1.943,0,0,0-1.941,1.941A1.943,1.943,0,0,0-54.865-28.2Z" transform="translate(99.865 71.523)" fill="#006ce5"/>
    <path id="Path_82294" data-name="Path 82294" d="M-28.312-140.354a4.3,4.3,0,0,1-4.3-4.3v-14.234a4.3,4.3,0,0,1,4.3-4.3,4.3,4.3,0,0,1,4.3,4.3v14.234A4.3,4.3,0,0,1-28.312-140.354Zm0-20.2a1.665,1.665,0,0,0-1.663,1.663v14.234a1.665,1.665,0,0,0,1.663,1.663,1.665,1.665,0,0,0,1.663-1.663v-14.234A1.665,1.665,0,0,0-28.312-160.55Z" transform="translate(73.341 174.902)" fill="#006ce5"/>
  </g>
</svg>
