<svg xmlns="http://www.w3.org/2000/svg" width="44.343" height="38.246" viewBox="0 0 44.343 38.246">
  <g id="Group_26876" data-name="Group 26876" transform="translate(0 -35.199)">
    <path id="Path_82251" data-name="Path 82251" d="M124.117,162.724a5,5,0,1,0,5,5A5.007,5.007,0,0,0,124.117,162.724Z" transform="translate(-108.8 -116.48)" fill="#006ce5"/>
    <path id="Path_82252" data-name="Path 82252" d="M42.751,35.2H1.591A1.591,1.591,0,0,0,0,36.79v25.5a1.591,1.591,0,0,0,1.591,1.591h.755l7.108-7.108a.486.486,0,0,0,.034-.655,7.587,7.587,0,1,1,2.691,2.052.486.486,0,0,0-.546.1L6.019,63.877H42.751a1.593,1.593,0,0,0,1.591-1.591v-25.5A1.593,1.593,0,0,0,42.751,35.2ZM27.56,57.751a1.3,1.3,0,1,1-2.6,0V52.738a1.3,1.3,0,0,1,2.6,0Zm4.07,0a1.3,1.3,0,0,1-2.6,0V44.079a1.3,1.3,0,0,1,2.6,0Zm4.137,0a1.3,1.3,0,1,1-2.6,0V47.542a1.3,1.3,0,1,1,2.6,0V57.751Zm4.14,0a1.3,1.3,0,1,1-2.6,0V51.006a1.3,1.3,0,1,1,2.6,0Zm-7.336,13.2-.009,0a26.235,26.235,0,0,0-6.254-1.808V66.672a.486.486,0,0,0-.486-.486h-7.3a.486.486,0,0,0-.486.486V69.14a26.229,26.229,0,0,0-6.22,1.8,1.322,1.322,0,0,0-.734,1.666,1.3,1.3,0,0,0,1.728.734,23.614,23.614,0,0,1,9.364-1.928H22.2a23.652,23.652,0,0,1,9.338,1.921l.016.007a1.3,1.3,0,1,0,1.017-2.39Z" fill="#006ce5"/>
    <path id="Path_82253" data-name="Path 82253" d="M2.51,366.324.56,368.277A1.3,1.3,0,0,0,2.4,370.114l3.786-3.79Z" transform="translate(-0.164 -302.447)" fill="#006ce5"/>
  </g>
</svg>
