<svg xmlns="http://www.w3.org/2000/svg" width="90.781" height="96.795" viewBox="0 0 90.781 96.795">
  <g id="Group_26887" data-name="Group 26887" transform="translate(0.25 0.25)">
    <path id="Path_82281" data-name="Path 82281" d="M53.041,78.214H67.3a1.881,1.881,0,0,0,0-3.762H53.041a1.881,1.881,0,1,0,0,3.762Zm0,9.029H68.558a1.881,1.881,0,1,0,0-3.762H53.041a1.881,1.881,0,1,0,0,3.762Zm23.276,0a1.881,1.881,0,1,0-1.33-.551,1.886,1.886,0,0,0,1.33.551ZM93.83,75.1A16.552,16.552,0,1,0,77.278,58.552,16.57,16.57,0,0,0,93.83,75.1Zm0-29.341A12.79,12.79,0,1,1,81.041,58.552,12.8,12.8,0,0,1,93.83,45.762Zm0,0" transform="translate(-41.538 -34.101)" fill="#006ce5" stroke="#fff" stroke-width="0.5"/>
    <path id="Path_82282" data-name="Path 82282" d="M88.417,51.557l-2.274-2.274V23.695a9.416,9.416,0,0,0-9.4-9.4H74.53a24.447,24.447,0,0,0-44.475,0H9.4a9.415,9.415,0,0,0-9.4,9.4v47.4a9.415,9.415,0,0,0,9.4,9.4H33.661v4.518a9.413,9.413,0,0,0-9.221,9.4A1.881,1.881,0,0,0,26.32,96.3H59.808a1.881,1.881,0,0,0,1.881-1.881,9.413,9.413,0,0,0-9.22-9.4V80.5H76.738a9.415,9.415,0,0,0,9.4-9.4v-9.05a6.381,6.381,0,0,0,2.274-10.485Zm-11.678-33.5a5.649,5.649,0,0,1,5.643,5.642V45.521l-8.893-8.892a24.429,24.429,0,0,0,2.4-18.576ZM52.292,3.762A20.689,20.689,0,1,1,31.6,24.451,20.713,20.713,0,0,1,52.292,3.762ZM9.4,18.052H28.693a24.465,24.465,0,0,0,.134,13.272H11.5a1.881,1.881,0,1,0,0,3.762H30.277A24.437,24.437,0,0,0,64.469,45.648L79.4,60.576a6.34,6.34,0,0,0,2.984,1.685v1.684H3.762V23.695A5.649,5.649,0,0,1,9.4,18.052Zm48.2,74.481H28.524a5.652,5.652,0,0,1,5.321-3.762h18.44A5.653,5.653,0,0,1,57.606,92.534Zm-8.9-7.524H37.422V80.5H48.708Zm28.031-8.275H9.4a5.65,5.65,0,0,1-5.643-5.643V67.706h78.62v3.385A5.65,5.65,0,0,1,76.738,76.735Zm9.018-18.819a2.619,2.619,0,0,1-3.7,0L67.624,43.482a24.6,24.6,0,0,0,3.7-3.7L85.756,54.217a2.619,2.619,0,0,1,0,3.7Zm0,0" fill="#006ce5" stroke="#fff" stroke-width="0.5"/>
    <path id="Path_82283" data-name="Path 82283" d="M269.916,88.77a4.707,4.707,0,0,1,4.7,4.7,1.881,1.881,0,1,0,3.762,0,8.472,8.472,0,0,0-8.463-8.463,1.881,1.881,0,0,0,0,3.762Zm0,0" transform="translate(-217.624 -69.02)" fill="#006ce5" stroke="#fff" stroke-width="0.5"/>
  </g>
</svg>
