<svg xmlns="http://www.w3.org/2000/svg" width="83.215" height="62.5" viewBox="0 0 83.215 62.5">
  <g id="Group_25947" data-name="Group 25947" transform="translate(-2872.199 -791.47)">
    <path id="Path_80011" data-name="Path 80011" d="M2882.576,850.019v-1.155q0-24.2,0-48.41c0-3.765,1.6-6.614,5.055-8.175a9.712,9.712,0,0,1,3.839-.768c10.184-.06,20.369-.04,30.554-.031a8.495,8.495,0,0,1,8.858,8.76c.03,2.513.006,5.026.006,7.539v.973c.47,0,.884,0,1.3,0a6,6,0,0,1,6.351,6.379c.007,5.82,0,11.64.005,17.46a3.9,3.9,0,1,0,7.789.187c.037-1.745-.023-3.493.027-5.237a7.1,7.1,0,0,1,6.973-6.763,1.933,1.933,0,1,1,.216,3.86,3.307,3.307,0,0,0-3.319,3.658c-.013,1.693.037,3.389-.052,5.077a7.773,7.773,0,0,1-15.422.717,12.332,12.332,0,0,1-.134-1.815q-.015-8.412-.006-16.824c0-2.17-.607-2.776-2.779-2.773h-.9v37.338h.969q10.515,0,21.03.005a4.066,4.066,0,0,1,1.17.134,1.919,1.919,0,0,1-.173,3.688,5.692,5.692,0,0,1-1.181.092q-33.53.021-67.06.032-5.515,0-11.031-.034a4.173,4.173,0,0,1-1.174-.139,1.905,1.905,0,0,1-1.269-2.129,1.947,1.947,0,0,1,2.026-1.643c2.46-.018,4.92-.006,7.381-.007Zm44.406-.036v-.872q0-24.319,0-48.638c0-3.216-1.851-5.076-5.06-5.077q-15.194,0-30.389,0c-3.175,0-5.033,1.854-5.034,5.013q0,24.359,0,48.717v.857Z" transform="translate(0 0)" fill="#fff"/>
    <path id="Path_80012" data-name="Path 80012" d="M3012.214,871.485q-5.157,0-10.314,0c-2.751,0-4.264-1.512-4.27-4.272q-.011-5.316,0-10.632c.008-2.7,1.541-4.219,4.244-4.22q10.354,0,20.708,0c2.7,0,4.215,1.523,4.22,4.234q.009,5.355,0,10.711a3.817,3.817,0,0,1-4.194,4.178Q3017.411,871.492,3012.214,871.485Z" transform="translate(-105.487 -51.209)" fill="#fff"/>
    <path id="Path_80013" data-name="Path 80013" d="M3059.114,1023.168c2.92,2.483,5.342,5.233,5.679,9.209a9,9,0,0,1-.465,3.336,4.048,4.048,0,0,1-3.381,2.891,11.408,11.408,0,0,1-3.694,0c-2.406-.433-3.794-2.379-3.889-5.276a8.8,8.8,0,0,1,.336-2.737A15.111,15.111,0,0,1,3059.114,1023.168Z" transform="translate(-152.362 -194.866)" fill="#fff"/>
  </g>
</svg>
