<svg xmlns="http://www.w3.org/2000/svg" width="200.733" height="300.999" viewBox="0 0 200.733 300.999">
  <path id="Path_78216" data-name="Path 78216" d="M-.505,4.649c57.612,0,99.861-35.78,99.861-84.094v-.4c0-41.44-29.312-68.528-72.773-71.965v-.809c37.2-7.479,62.262-32.748,62.262-68.73v-.4c0-43.462-36.589-74.593-90.36-74.593-53.165,0-89.147,31.535-93.595,76.412l-.2,2.021h26.684l.2-2.021c3.234-30.929,29.312-52.154,66.911-52.154,38.408,0,62.464,20.821,62.464,53.569v.4c0,32.142-27.088,55.187-65.9,55.187H-38.914v23.651H-3.74c46.292,0,75,21.832,75,60.038v.4c0,34.567-29.716,59.229-71.763,59.229-42.451,0-69.943-22.641-73.986-54.176l-.2-1.819h-26.684l.2,2.224C-96.728-28.5-59.128,4.649-.505,4.649Z" transform="translate(101.377 296.35)" fill="#0377f9" opacity="0.3"/>
</svg>
