<svg xmlns="http://www.w3.org/2000/svg" width="148.703" height="36.69" viewBox="0 0 148.703 36.69">
  <g id="Group_24099" data-name="Group 24099" transform="translate(-16719.713 -1725.014)">
    <path id="Path_26" data-name="Path 26" d="M620.154,253.165c0,2.359-.123,2.483-2.5,2.509-.211,0-.422,0-.634,0-3.86,0-5.767-2.779-4.379-6.377a4.568,4.568,0,0,1,6.773-1.716,1.871,1.871,0,0,1,.515.653c.185.445.7,1.124.075,1.335-.495.167-1.4.568-1.831-.515-.495-1.234-2.427-1.182-3.316.018a4.435,4.435,0,0,0-.076,4.221,3.118,3.118,0,0,0,3.243.867c.575-.31.218-.886.268-1.336.055-.49-.368-.389-.668-.422-.427-.047-1.009.251-1-.631,0-.657.174-.905.823-.8a3.2,3.2,0,0,0,.528,0c2.186,0,2.186,0,2.186,2.184" transform="translate(16213 1485.025)" fill="#231f20"/>
    <path id="Path_27" data-name="Path 27" d="M654.13,250.09c0-.7,0-1.3,0-1.893a1.064,1.064,0,0,1,1.591-1.073c.386.16.215.478.217.72.015,2.219.009,4.437.009,6.655,0,1.061-.811,1.6-1.686,1-.334-.229-.414-.205-.706-.062a2.394,2.394,0,0,1-3.611-1.746,4.183,4.183,0,0,1,.118-2.286c.536-1.71,2.06-2.231,4.066-1.319m-2.438,2.679c.032.8.1,1.655,1.1,1.745s1.228-.759,1.374-1.539c.2-1.074-.341-2.108-1.122-2.2-.8-.1-1.362.726-1.355,2" transform="translate(16196.358 1484.897)" fill="#231f20"/>
    <path id="Path_28" data-name="Path 28" d="M612.948,276.332c0-1.126.025-2.253-.011-3.378-.017-.549.071-.833.723-.79.982.063,1.972,0,2.956.05a2.557,2.557,0,0,1-.046,5.112c-1.731.07-1.731.07-1.731,1.784a3.622,3.622,0,0,0,.006.632c.161.887-.339.907-1.032.946-.824.047-.9-.31-.876-.977.046-1.124.012-2.252.012-3.378m1.812-1.52c.183.375-.429,1.226.694,1.183,1.038-.04,1.74-.527,1.682-1.309-.074-.985-.8-1.035-1.581-1.1-1.04-.087-.752.622-.8,1.226" transform="translate(16212.67 1473.776)" fill="#231f20"/>
    <path id="Path_29" data-name="Path 29" d="M673.641,279.969a4.838,4.838,0,0,0-.844.01c-.348.063-.864-.261-1.014.223a.928.928,0,0,0,.465,1.084c.473.261,1.046.332,1.329-.142.357-.6.84-.493,1.352-.533.54-.043.608.238.474.634a1.855,1.855,0,0,1-.737,1,3.54,3.54,0,0,1-3.86-.23,3.966,3.966,0,0,1-.392-4.348,2.968,2.968,0,0,1,3.308-1.27,3.032,3.032,0,0,1,1.953,3.265c-.111.439-.414.293-.66.3-.458.021-.916.006-1.374.006m-.871-1.143c.293-.225.907.31.977-.363.059-.574-.368-.891-.93-.888a.875.875,0,0,0-.962.886c.017.609.6.19.916.366" transform="translate(16187.469 1471.949)" fill="#231f20"/>
    <path id="Path_30" data-name="Path 30" d="M657.246,279.425c0-.634-.044-1.273.018-1.9.033-.34-.331-.907.194-.99.47-.074,1.146-.4,1.488.282.206.409.309.051.428-.011,2.011-1.053,3.4-.262,3.443,1.984.019.916-.025,1.834.014,2.748.027.643-.012,1.03-.861,1.006-.761-.021-1.084-.162-1.014-.989.074-.874,0-1.761.021-2.641.013-.629-.134-1.189-.846-1.224s-1.07.5-1.105,1.158a22.315,22.315,0,0,0,0,2.747c.052.739-.176.953-.925.945-.7-.007-.918-.211-.866-.9.056-.735.013-1.479.013-2.219" transform="translate(16193.117 1471.927)" fill="#231f20"/>
    <path id="Path_31" data-name="Path 31" d="M632.6,257.847c-1.922,0-3-1.127-3-3.132,0-2.02,1.057-3.143,2.974-3.16a2.888,2.888,0,0,1,3.183,3.115,2.976,2.976,0,0,1-3.156,3.176m1.286-3.34a3.457,3.457,0,0,0-.05-.631c-.147-.631-.481-1.125-1.2-1.11-.648.013-.963.439-1.138,1.047a3.22,3.22,0,0,0,.089,2.064,1.006,1.006,0,0,0,.964.689,1.07,1.07,0,0,0,1.112-.62,3.165,3.165,0,0,0,.221-1.439" transform="translate(16205.301 1482.883)" fill="#231f20"/>
    <path id="Path_32" data-name="Path 32" d="M630.73,280.215c0,.458.021.917-.007,1.374-.018.3.211.759-.117.87-.4.136-1.024.261-1.295-.067-.314-.381-.455-.241-.743-.083a2.227,2.227,0,0,1-2.572-.1,1.7,1.7,0,0,1-.5-2.02,2.28,2.28,0,0,1,2.129-1.468c.209-.024.424-.007.633-.037.252-.037.635.153.709-.241a.815.815,0,0,0-.427-.892c-.344-.183-.784-.185-.914.195-.205.6-.613.6-1.079.551-.295-.031-.714.175-.856-.152-.164-.376.1-.743.357-1.043a3.389,3.389,0,0,1,3.26-.578,2.014,2.014,0,0,1,1.4,2.21c0,.493,0,.987,0,1.48h.018m-2.321-.464c-.545.031-1.172.107-1.256.87a.725.725,0,0,0,.757.821c.8,0,.979-.653,1.081-1.291.063-.4-.186-.473-.583-.4" transform="translate(16207.173 1471.922)" fill="#231f20"/>
    <path id="Path_33" data-name="Path 33" d="M647.518,278.623c0-.422-.02-.846.005-1.267.027-.458-.069-.759-.619-.707-.527.05-.508-.308-.527-.685-.022-.432.161-.569.554-.526s.64-.085.58-.512c-.085-.6.3-.737.748-.94.859-.39,1.222-.225,1.058.756-.092.545.128.777.692.7.417-.057.746-.022.732.574-.011.53-.227.7-.7.632-.641-.1-.774.217-.733.78a16.383,16.383,0,0,1,.006,1.689c-.018.6.083,1.085.839,1,.479-.052.506.21.493.567s.032.69-.507.72c-1.766.1-2.753.1-2.62-2.152.012-.21,0-.422,0-.633" transform="translate(16197.889 1473.055)" fill="#231f20"/>
    <path id="Path_34" data-name="Path 34" d="M645.5,251.45c0,1.2-.049,2.4.016,3.588.046.846-.49.658-.953.672-.494.015-.925.1-.9-.707q.094-3.534,0-7.071c-.02-.772.351-.749.883-.733s1.045-.113.978.768c-.087,1.155-.021,2.321-.021,3.482" transform="translate(16199.089 1484.811)" fill="#231f20"/>
    <path id="Path_35" data-name="Path 35" d="M637.969,279.489c0-.669-.033-1.339.014-2,.023-.325-.292-.912.3-.923.445-.008,1.182-.5,1.368.421.066.329.171.182.316.075.2-.143.4-.378.608-.382.34-.008.926-.542.991.191.037.415.542,1.268-.6,1.28a1.118,1.118,0,0,0-1.155,1.238c-.021.844-.05,1.69-.012,2.533.034.758-.467.629-.91.626s-.951.144-.906-.627c.047-.807.011-1.618.011-2.428h-.021" transform="translate(16201.626 1471.892)" fill="#231f20"/>
    <path id="Path_36" data-name="Path 36" d="M684.816,277.22a3.169,3.169,0,0,1,.778-.511c.311-.093.783-.372.967-.055a2.354,2.354,0,0,1,.1,1.23c-.028.463-.431.235-.663.266-.884.117-1.162.708-1.188,1.48s-.047,1.554,0,2.326-.473.6-.9.618c-.474.023-.882.078-.858-.659.049-1.444-.034-2.891.014-4.334.01-.328-.422-.868.288-1.036a1.11,1.11,0,0,1,1.463.675" transform="translate(16181.726 1471.864)" fill="#231f20"/>
    <path id="Path_37" data-name="Path 37" d="M473.29,271.335q-24.452,0-48.9.021c-.939,0-1.211-.2-1.208-1.184q.059-17.193,0-34.386c0-.968.273-1.121,1.162-1.119q48.9.035,97.808,0c.917,0,1.229.165,1.225,1.175q-.062,17.193,0,34.385c0,.98-.294,1.128-1.178,1.127q-24.452-.039-48.9-.019m37.251-21.5c.143.1.236.339.479.185l-.326-.34c.176-.34.276-.68-.213-.824-.27-.079-.455.023-.462.372-.008.387-.037.734.523.607M445.2,248.446c-1.22,0-2.208-.033-3.194.007a4.585,4.585,0,0,0-4.289,4.518,4.488,4.488,0,0,0,3.956,4.578,35.409,35.409,0,0,0,6.539.006,4.472,4.472,0,0,0,4-3.982,4.578,4.578,0,0,0-3.258-4.934c-1.318-.4-2.664-.076-3.758-.194m63.374,0c-2.132,0-4.234-.015-6.335,0a4.568,4.568,0,0,0-4.49,4.205,4.481,4.481,0,0,0,4.056,4.9c1.507.129,3.03.083,4.546.095,1.676.013,1.676,0,2.328-1.689-2.033,0-4.036.016-6.039-.006a2.657,2.657,0,0,1-2.846-2.036h5.935c1.594,0,1.729-.1,2.322-1.761h-8.379a2.912,2.912,0,0,1,2.9-2.048,30.775,30.775,0,0,1,3.6.028,2.006,2.006,0,0,0,2.407-1.692m-48.276,6.338c.431-.072.634-.109.839-.14a3.058,3.058,0,0,0,2.818-3.32,3.1,3.1,0,0,0-3.283-2.876c-2.255-.007-4.512.022-6.767-.017-.648-.011-.836.162-.825.821.04,2.5.05,5,0,7.5-.017.793.282.925.976.917.656-.008.93-.138.908-.878-.056-1.936.007-3.876-.033-5.812-.014-.663.133-.92.856-.891,1.514.058,3.031.011,4.547.02,1.2.007,1.823.488,1.841,1.407.02.968-.607,1.469-1.881,1.477-1.432.009-2.864,0-4.6,0a50.8,50.8,0,0,1,4.121,3.647c1.061,1.16,2.247,1.05,3.758.951l-3.277-2.811m8.226-.411a2.021,2.021,0,0,0,2.47,1.684c.869-.108,1.762-.006,2.644-.027.394-.009.7.078.836.474.477,1.388,1.555,1.242,2.669,1.082.018-.339-.2-.532-.344-.758q-2.38-3.735-4.767-7.467c-.86-1.341-1.9-1.362-2.758-.035q-2.494,3.851-4.947,7.729c-.1.151-.327.314-.206.464,1.464.5,2.277-.1,2.928-1.328.741-1.394,1.665-2.69,2.512-4.027.342-.541.689-1.078,1.094-1.712l2.4,3.922Zm18.794,1.588c-2.1,0-4.17.027-6.237-.009a2.979,2.979,0,0,1-3-2.921,3.018,3.018,0,0,1,3.014-2.915c1.269-.026,2.54-.006,3.81-.006,1.543,0,1.646-.075,2.209-1.656-2.234,0-4.451-.072-6.663.02a4.583,4.583,0,0,0-.2,9.089c1.545.2,3.109-.05,4.645.119,1.348.147,2.011-.446,2.421-1.721m10.16.007c-2.4,0-4.752-.031-7.1.017-.768.016-1.049-.158-1.022-.982.063-1.936-.03-3.877.042-5.811.034-.892-.48-.71-.994-.756-.619-.056-.853.1-.839.789.048,2.395.037,4.791.009,7.186-.01.873.368,1.181,1.211,1.17,2.15-.03,4.305-.1,6.447.025a1.976,1.976,0,0,0,2.245-1.638" transform="translate(16296.537 1490.347)" fill="#ed1f25"/>
    <path id="Path_38" data-name="Path 38" d="M456.707,259.35c1.094.117,2.441-.2,3.758.194a4.578,4.578,0,0,1,3.258,4.933,4.474,4.474,0,0,1-4,3.982,35.46,35.46,0,0,1-6.539-.006,4.488,4.488,0,0,1-3.955-4.579,4.585,4.585,0,0,1,4.289-4.518c.985-.04,1.973-.007,3.194-.007m-.2,1.668c-.881,0-1.762-.027-2.642.006a2.936,2.936,0,0,0-2.844,2.721,2.788,2.788,0,0,0,2.557,3.06,50.358,50.358,0,0,0,5.8,0,2.9,2.9,0,0,0,2.623-2.933,3.012,3.012,0,0,0-2.857-2.848c-.879-.035-1.761-.006-2.642-.007" transform="translate(16285.024 1479.444)" fill="#fefefe"/>
    <path id="Path_39" data-name="Path 39" d="M567.623,259.354a2.006,2.006,0,0,1-2.407,1.692,30.776,30.776,0,0,0-3.6-.028,2.913,2.913,0,0,0-2.9,2.048H567.1c-.593,1.663-.728,1.761-2.322,1.761h-5.935a2.658,2.658,0,0,0,2.846,2.036c2,.021,4.006.005,6.039.005-.652,1.692-.652,1.7-2.328,1.689-1.516-.012-3.039.034-4.546-.095a4.48,4.48,0,0,1-4.056-4.9,4.568,4.568,0,0,1,4.489-4.205c2.1-.019,4.2,0,6.336,0" transform="translate(16237.483 1479.439)" fill="#fefefe"/>
    <path id="Path_40" data-name="Path 40" d="M483.971,265.684l3.277,2.81c-1.511.1-2.7.209-3.758-.95a50.708,50.708,0,0,0-4.121-3.647c1.731,0,3.163.007,4.6,0,1.274-.008,1.9-.508,1.881-1.477-.018-.92-.636-1.4-1.841-1.407-1.516-.008-3.033.038-4.546-.02-.723-.028-.871.228-.857.892.04,1.937-.023,3.876.033,5.812.021.739-.253.87-.909.877-.694.008-.993-.123-.976-.917.053-2.5.043-5,0-7.5-.011-.66.177-.833.825-.822,2.255.039,4.512.009,6.767.017a3.1,3.1,0,0,1,3.283,2.876,3.057,3.057,0,0,1-2.818,3.32c-.2.031-.408.068-.839.141" transform="translate(16272.859 1479.447)" fill="#fefefe"/>
    <path id="Path_41" data-name="Path 41" d="M500.917,265.2h4.533l-2.4-3.921c-.405.633-.752,1.171-1.094,1.711-.847,1.338-1.771,2.633-2.512,4.027-.65,1.224-1.464,1.824-2.928,1.328-.121-.151.11-.313.206-.464q2.461-3.872,4.947-7.729c.859-1.327,1.9-1.306,2.758.035q2.39,3.73,4.767,7.467c.143.225.362.419.344.758-1.113.16-2.191.305-2.668-1.083-.136-.4-.442-.483-.836-.474-.882.021-1.776-.081-2.644.027a2.02,2.02,0,0,1-2.47-1.684" transform="translate(16264.14 1479.517)" fill="#fefefe"/>
    <path id="Path_42" data-name="Path 42" d="M529.43,266.857c-.41,1.275-1.073,1.869-2.421,1.721-1.536-.168-3.1.077-4.645-.118a4.583,4.583,0,0,1,.2-9.09c2.211-.092,4.429-.02,6.663-.02-.563,1.58-.666,1.656-2.209,1.656-1.27,0-2.54-.02-3.81.006a3.019,3.019,0,0,0-3.015,2.916,2.98,2.98,0,0,0,3,2.921c2.067.036,4.135.008,6.237.008" transform="translate(16254.42 1479.45)" fill="#fefefe"/>
    <path id="Path_43" data-name="Path 43" d="M548.467,266.862a1.976,1.976,0,0,1-2.245,1.638c-2.142-.127-4.3-.055-6.447-.025-.843.011-1.221-.3-1.211-1.17.028-2.4.039-4.791-.009-7.186-.014-.691.22-.845.839-.789.513.046,1.027-.137.994.756-.073,1.935.02,3.875-.042,5.811-.027.824.253,1,1.022.982,2.348-.048,4.7-.017,7.1-.017" transform="translate(16245.543 1479.451)" fill="#fefefe"/>
    <path id="Path_44" data-name="Path 44" d="M579.321,261.062c-.56.127-.531-.22-.523-.607.007-.349.192-.451.462-.372.489.143.39.483.213.823l-.152.156" transform="translate(16227.757 1479.125)" fill="#fefefe"/>
    <path id="Path_45" data-name="Path 45" d="M457.926,262.34c.881,0,1.762-.028,2.642.007a3.012,3.012,0,0,1,2.857,2.848,2.9,2.9,0,0,1-2.623,2.933,50.358,50.358,0,0,1-5.8,0,2.788,2.788,0,0,1-2.557-3.059,2.936,2.936,0,0,1,2.844-2.721c.879-.033,1.761-.006,2.642-.006" transform="translate(16283.605 1478.121)" fill="#ed1f25"/>
    <rect id="Rectangle_61" data-name="Rectangle 61" width="3.408" height="3.408" transform="translate(16805.846 1738.133)" fill="#ed1f25"/>
  </g>
</svg>
