<svg xmlns="http://www.w3.org/2000/svg" width="49.198" height="31.068" viewBox="0 0 49.198 31.068">
  <path id="Path_78500" data-name="Path 78500" d="M1124.812,548.16c3.1,0,6.2-.088,9.289.016a14.957,14.957,0,0,1,13.524,8.438,15.452,15.452,0,0,1-9.573,21.985,14.809,14.809,0,0,1-4.04.587c-6.174,0-12.346.017-18.52,0a15.519,15.519,0,0,1,.35-31.035c2.99.014,5.98,0,8.97,0Zm-.041,5.479q-4.261,0-8.525,0a10.84,10.84,0,0,0-1.975.158A10.037,10.037,0,0,0,1116.1,573.7c5.748-.016,11.494,0,17.242,0a9.986,9.986,0,0,0,9.1-14.373,9.639,9.639,0,0,0-9.09-5.682C1130.5,553.605,1127.633,553.638,1124.771,553.638Z" transform="translate(-1100.178 -548.125)" fill="#ee282b"/>
</svg>
