<svg xmlns="http://www.w3.org/2000/svg" xmlns:xlink="http://www.w3.org/1999/xlink" width="214.258" height="27.827" viewBox="0 0 214.258 27.827">
  <defs>
    <clipPath id="clip-path">
      <rect id="Rectangle_9027" data-name="Rectangle 9027" width="214.258" height="27.827" fill="#fff"/>
    </clipPath>
  </defs>
  <g id="Group_25963" data-name="Group 25963" clip-path="url(#clip-path)">
    <path id="Path_80030" data-name="Path 80030" d="M0,14.186c.1-.032.1-.13.115-.206a12.64,12.64,0,0,1,1.327-3.357A13.833,13.833,0,0,1,13.664,3.545q7.836.011,15.672,0a14.16,14.16,0,0,1,4.37.656,13.805,13.805,0,0,1,8.946,8.954,13.868,13.868,0,0,1,.548,2.554,12.965,12.965,0,0,1,.078,2.3A13.786,13.786,0,0,1,31.464,30.928c-.33.048-.665.061-1.013.092l.058.055H12.7c-.213-.03-.426-.059-.638-.091-.524-.077-1.05-.14-1.57-.238a8.994,8.994,0,0,1-.967-.265,13.649,13.649,0,0,1-7.279-5.218A13.231,13.231,0,0,1,.112,20.615C.094,20.542.093,20.458,0,20.43Zm22.059-5.8c-2.563,0-5.126,0-7.689,0a8.8,8.8,0,0,0-1.848.2A8.269,8.269,0,0,0,9.436,9.932,9.212,9.212,0,0,0,7.165,12.14a8.941,8.941,0,0,0,2.913,12.971,8.454,8.454,0,0,0,3.3,1.079,12.428,12.428,0,0,0,1.463.06c1.823,0,3.645,0,5.468,0q4.7,0,9.407,0a9.177,9.177,0,0,0,2.118-.221,8.931,8.931,0,0,0,6.819-10.07,8.51,8.51,0,0,0-1.786-4.142,8.732,8.732,0,0,0-7.055-3.422c-2.584-.025-5.168-.005-7.751-.006" transform="translate(0 -3.248)" fill="#fff"/>
    <path id="Path_80031" data-name="Path 80031" d="M554.5,30.86c0-.188,0-.377,0-.565V3.333c.111-.008.206-.022.3-.022q2.011,0,4.022,0h18.561a9.508,9.508,0,0,1,3.9.74,9.041,9.041,0,0,1,5.547,6.85,8.957,8.957,0,0,1-2.409,8.146,8.958,8.958,0,0,1-4.24,2.539,9.465,9.465,0,0,1-2.605.348c-.7,0-1.4,0-2.095-.005-.041,0-.081.007-.123.012-.026.1.056.126.1.166q1.041.878,2.085,1.752l5.122,4.291,3.049,2.558c.058.049.114.1.17.153h-7.627a1.144,1.144,0,0,0-.1-.106q-.433-.38-.869-.757-4.4-3.826-8.81-7.652-2.959-2.568-5.922-5.13c-.019-.017-.035-.038-.082-.091h13.267c.587,0,1.173,0,1.76,0a4.03,4.03,0,0,0,1.314-.23,4.48,4.48,0,0,0,2.505-6.37,4.261,4.261,0,0,0-2.52-2.11,5.385,5.385,0,0,0-1.692-.238q-8.213,0-16.426,0c-.252,0-.5,0-.754,0a1.473,1.473,0,0,0-.172.023v.5q0,10.989,0,21.978c0,.062.011.124.016.186Z" transform="translate(-508.024 -3.033)" fill="#fff"/>
    <path id="Path_80032" data-name="Path 80032" d="M2177.494,30.859c-.213-.029-.425-.07-.638-.085a12.035,12.035,0,0,1-2.908-.573,13.712,13.712,0,0,1-7.857-6.385,13.27,13.27,0,0,1-1.609-4.641,13.5,13.5,0,0,1-.111-3.257,13.774,13.774,0,0,1,13.243-12.585c.4-.013.8-.023,1.193-.023q8.664,0,17.328,0c.184,0,.369,0,.6.007-.065.111-.1.182-.148.251q-1.409,2.206-2.817,4.413a.334.334,0,0,1-.321.18c-.259-.006-.517,0-.775,0h-8.213c-2.053,0-4.106,0-6.16-.006a9.272,9.272,0,0,0-3.678.685,9.109,9.109,0,0,0-1.943,1.144,8.7,8.7,0,0,0-3.125,4.424c-.023.072-.042.145-.07.241a.992.992,0,0,0,.165.033c.161,0,.321,0,.482,0h24.284c.216,0,.432,0,.649,0,.053,0,.106.007.179.012-.032.06-.05.1-.075.142q-1.44,2.237-2.876,4.475a.342.342,0,0,1-.333.194c-.154-.007-.307,0-.461,0h-21.434c-.133,0-.265-.007-.4-.008-.053,0-.106.007-.186.013.026.092.043.164.065.235a8.947,8.947,0,0,0,7.308,6.2c.448.063.9.053,1.358.075.076,0,.154,0,.23,0h18.417c.095,0,.19,0,.319.007-.058.1-.094.162-.135.225l-2.932,4.563a.257.257,0,0,0-.017.038Z" transform="translate(-1982.916 -3.032)" fill="#fff"/>
    <path id="Path_80033" data-name="Path 80033" d="M946,27.827a1.874,1.874,0,0,1,.1-.2q3.791-5.928,7.584-11.854l7.281-11.377c.546-.853,1.084-1.71,1.639-2.556A3.848,3.848,0,0,1,965.132.118c.1-.021.207-.027.328-.042L965.32,0h1.131l-.042.067c.1.018.194.034.287.053a3.758,3.758,0,0,1,2.515,1.7q3.742,5.821,7.466,11.653,3,4.681,6,9.361,1.547,2.415,3.093,4.832c.033.052.058.11.087.165h-6.16c-.055-.089-.111-.177-.165-.267q-1.273-2.106-2.547-4.211c-.079-.13-.144-.3-.262-.368s-.284-.025-.43-.025H962.984c-.133,0-.266-.011-.4,0a.275.275,0,0,1-.27-.155q-1.447-2.257-2.9-4.512a1.277,1.277,0,0,1-.069-.154h13.663c.077,0,.154,0,.23,0,.052,0,.1-.017.183-.03l-7.49-12.078c-.074.1-.128.173-.175.247l-4.842,7.669-7.6,12.044q-.581.921-1.158,1.844Z" transform="translate(-866.71)" fill="#fff"/>
    <path id="Path_80034" data-name="Path 80034" d="M1398.6,31.083a5.084,5.084,0,0,0-.512-.083,11.37,11.37,0,0,1-2.943-.606,13.654,13.654,0,0,1-8.219-7.272,13.165,13.165,0,0,1-1.192-4.166,12.163,12.163,0,0,1-.108-1.984,13.7,13.7,0,0,1,4.052-9.382,13.551,13.551,0,0,1,6.836-3.724,13.727,13.727,0,0,1,2.972-.312q9.386.007,18.772,0h.514c-.039.073-.062.127-.094.175-.925,1.43-1.86,2.854-2.767,4.3a.705.705,0,0,1-.7.378q-7.71-.018-15.42-.009a8.592,8.592,0,0,0-4.254,1.082,9.581,9.581,0,0,0-1.866,1.376,8.541,8.541,0,0,0-2.518,4.29A8.679,8.679,0,0,0,1392,21.63a8.775,8.775,0,0,0,5.835,4.409,8.158,8.158,0,0,0,2.118.22c.161,0,.321,0,.482,0h18.775l-3.088,4.825Z" transform="translate(-1269.486 -3.256)" fill="#fff"/>
    <path id="Path_80035" data-name="Path 80035" d="M1818.4,30.863a1.672,1.672,0,0,0-.21-.08,2.667,2.667,0,0,1-2.007-2.269,5.839,5.839,0,0,1-.03-.627q0-12.164,0-24.327V3.335c.093-.008.167-.021.24-.021h4.777l.126,0c.1,0,.138.052.137.145,0,.056,0,.112,0,.168q0,11.043,0,22.085v.335h24.683L1843,30.863h-24.6" transform="translate(-1663.932 -3.036)" fill="#fff"/>
  </g>
</svg>
