<svg id="Artboard" xmlns="http://www.w3.org/2000/svg" width="221.751" height="27.864" viewBox="0 0 221.751 27.864">
  <g id="Oracle_logo" transform="translate(0 0)">
    <path id="path16197" d="M92.724,18.128h14.192l-7.5-12.049L85.639,27.864H79.37L96.123,1.7A3.961,3.961,0,0,1,99.412,0a3.887,3.887,0,0,1,3.222,1.652l16.819,26.212h-6.269L110.227,23H95.858ZM157.838,23V.264h-5.319V25.221a2.6,2.6,0,0,0,.772,1.85,2.721,2.721,0,0,0,1.942.793h24.258L182.624,23Zm-88-4.075a9.328,9.328,0,1,0,0-18.657H46.564v27.6h5.317V5.132h17.6a4.471,4.471,0,0,1,0,8.943l-15-.022L70.365,27.864H78.09L67.407,18.921Zm-56,8.943a13.8,13.8,0,1,1,0-27.6H29.906a13.8,13.8,0,1,1,0,27.6ZM29.548,23a8.932,8.932,0,1,0,0-17.864H14.186a8.932,8.932,0,1,0,0,17.864Zm101.008,4.868a13.8,13.8,0,1,1,0-27.6h19.093l-3.112,4.868H130.909a8.932,8.932,0,1,0,0,17.864H150.09l-3.135,4.868ZM195.6,23a8.937,8.937,0,0,1-8.609-6.5H209.73l3.133-4.868H186.995a8.963,8.963,0,0,1,8.609-6.5h15.605L214.365.264H195.251a13.8,13.8,0,1,0,0,27.6h16.4L214.785,23H195.6" transform="translate(0)" fill="#fff"/>
    <path id="path16199" d="M155.62,2.882a2.283,2.283,0,1,1,2.272,2.285A2.261,2.261,0,0,1,155.62,2.882ZM157.892,5.8A2.9,2.9,0,1,0,155,2.9,2.905,2.905,0,0,0,157.892,5.8Zm-.269-4.632a2.1,2.1,0,0,1,.847.1.908.908,0,0,1,.641.906.811.811,0,0,1-.042.268.835.835,0,0,1-.393.556c-.04.021-.061.041-.144.082l.743,1.338h-.723l-.66-1.235h-.454V4.426H156.8V1.173Zm.227,1.482c.208-.021.414-.021.538-.206a.438.438,0,0,0,.082-.288.461.461,0,0,0-.248-.391,1.5,1.5,0,0,0-.6-.062h-.185v.947h.412" transform="translate(60.945)" fill="#fff"/>
  </g>
</svg>
