<svg xmlns="http://www.w3.org/2000/svg" width="69.69" height="27.959" viewBox="0 0 69.69 27.959">
  <g id="Group_23649" data-name="Group 23649" transform="translate(0 0)">
    <g id="Group_23646" data-name="Group 23646" transform="translate(0 14.883)">
      <g id="Group_23645" data-name="Group 23645">
        <path id="Path_78049" data-name="Path 78049" d="M468.429,360.513c.021.658-14.494,1.656-32.416,2.23s-32.474.5-32.495-.153,14.491-1.655,32.418-2.229S468.408,359.856,468.429,360.513Z" transform="translate(-403.519 -359.972)" fill="#f79000"/>
      </g>
    </g>
    <g id="Group_23648" data-name="Group 23648" transform="translate(37.83 0)">
      <g id="Group_23647" data-name="Group 23647">
        <path id="Path_78050" data-name="Path 78050" d="M447.892,342.562c.286-.593,12.376,4.626,27,11.656l3.171,1.534,1.681.813-1.445,1.17c-11.547,9.347-22.505,13.209-22.659,12.7-.3-.614,10.018-5.314,21.162-14.529l.235,1.982-3.179-1.519C459.236,349.336,447.607,343.155,447.892,342.562Z" transform="translate(-447.887 -342.516)" fill="#f79000"/>
      </g>
    </g>
  </g>
</svg>
