<svg xmlns="http://www.w3.org/2000/svg" width="27.96" height="69.69" viewBox="0 0 27.96 69.69">
  <g id="Group_23669" data-name="Group 23669" transform="translate(0 0)">
    <g id="Group_23666" data-name="Group 23666" transform="translate(9.916 0)">
      <g id="Group_23665" data-name="Group 23665">
        <path id="Path_78058" data-name="Path 78058" d="M1675.817,536.7c-.658.021-1.656-14.494-2.23-32.416s-.5-32.474.152-32.495,1.656,14.491,2.23,32.419S1676.475,536.682,1675.817,536.7Z" transform="translate(-1673.199 -471.792)" fill="#f79000"/>
      </g>
    </g>
    <g id="Group_23668" data-name="Group 23668" transform="translate(0 37.83)">
      <g id="Group_23667" data-name="Group 23667">
        <path id="Path_78059" data-name="Path 78059" d="M1689.483,516.166c.593.285-4.626,12.375-11.656,27l-1.533,3.172-.813,1.68-1.17-1.445c-9.347-11.547-13.209-22.5-12.7-22.658.615-.3,5.314,10.018,14.529,21.162l-1.982.235c.487-1.021,1-2.091,1.519-3.179C1682.708,527.51,1688.889,515.88,1689.483,516.166Z" transform="translate(-1661.568 -516.161)" fill="#f79000"/>
      </g>
    </g>
  </g>
</svg>
