<svg xmlns="http://www.w3.org/2000/svg" width="34.184" height="59.458" viewBox="0 0 34.184 59.458">
  <g id="Group_23890" data-name="Group 23890" transform="translate(-55.4)">
    <g id="Group_68" data-name="Group 68" transform="translate(55.4)">
      <g id="Group_67" data-name="Group 67">
        <g id="Group_66" data-name="Group 66">
          <g id="Group_64" data-name="Group 64" transform="translate(24.586 16.355)">
            <path id="Path_92" data-name="Path 92" d="M1237.156,1358.956l1.945-6.634c.016.005.033,0,.052.006a.854.854,0,0,1,.6,1.053l.016.007-1.71,5.834Z" transform="translate(-1236.371 -1352.299)"/>
            <path id="Path_93" data-name="Path 93" d="M1236.082,1358.716l1.708-5.832a.854.854,0,0,1,1.021-.57l-1.945,6.633Z" transform="translate(-1236.082 -1352.291)" fill="#333"/>
          </g>
          <g id="Group_65" data-name="Group 65">
            <path id="Path_94" data-name="Path 94" d="M1213.5,1344.145a.971.971,0,0,1,.679,1.2l.018.007-4.365,14.9-4.648,15.86a9.321,9.321,0,0,0,17.88,5.241l5.186-17.7,3.826-13.054.015.005,2.674-9.13a7.426,7.426,0,0,0-14.244-4.177l-2.676,9.133-.017,0-4.254,14.522-.838-.234,7.16-24.443a8.021,8.021,0,0,1,9.273-4.876,8.52,8.52,0,0,1,6.811,9.355l-6.762,23.08-5.321,18.165c-3.5,8.316-11.948,6.466-11.948,6.466-10.608-3.658-7.619-13.224-7.619-13.224l4.445-15.173,4.664-15.914A.484.484,0,0,1,1213.5,1344.145Z" transform="translate(-1202.84 -1330.251)"/>
            <path id="Path_95" data-name="Path 95" d="M1213.035,1343.794l-4.665,15.914-4.445,15.174s-2.989,9.566,7.619,13.224c0,0,8.448,1.849,11.948-6.467l5.321-18.165,6.762-23.08a8.52,8.52,0,0,0-6.81-9.355,8.021,8.021,0,0,0-9.273,4.876l-7.16,24.443-1.236-.365,4.418-14.488.028.008,2.674-9.13a9.406,9.406,0,0,1,18.042,5.288l-2.676,9.13h0l-3.766,12.855-5.244,17.9a11.317,11.317,0,0,1-21.709-6.364l4.589-15.662,4.421-15.1A.971.971,0,0,1,1213.035,1343.794Z" transform="translate(-1202.433 -1329.907)" fill="#333"/>
          </g>
        </g>
      </g>
    </g>
    <path id="Path_96" data-name="Path 96" d="M1233.257,1357.769l-18.806,3.159-1.533,7.752,19.028-2.717s-.005-1.161,0-1.484,1.312-6.71,1.312-6.71" transform="translate(-1149.857 -1337.412)" fill="#00337f"/>
  </g>
</svg>
