<svg xmlns="http://www.w3.org/2000/svg" width="201.68" height="188.297" viewBox="0 0 201.68 188.297">
  <g id="Group_10479" data-name="Group 10479" transform="translate(-866 -5736)">
    <g id="Group_10466" data-name="Group 10466" transform="translate(-191.941 8027.847)" opacity="0.3">
      <path id="Path_65116" data-name="Path 65116" d="M1310.838-2150.35c5.865-5.863,15.355-5.075,19.855,2.82,3.471-3.405,7.595-4.7,12.281-3.349,4.66,1.346,7.363,4.68,8.517,9.441a12.855,12.855,0,0,1,6.653-2.8,11.865,11.865,0,0,1,13.207,11.9c.069,5.278.026,10.558.019,15.838-.012,8.343.052,16.687-.083,25.028a65.33,65.33,0,0,1-3.951,21.021c-4.01,11.219-8.074,22.418-12.035,33.654a16.549,16.549,0,0,0-.859,4.821c-.129,3.436-.042,6.881-.045,10.321,0,.377.011.756-.021,1.131a1.924,1.924,0,0,1-1.995,1.959,1.9,1.9,0,0,1-2.1-1.987c-.011-4.711.013-9.424.129-14.134a10.019,10.019,0,0,1,.763-3c4.114-11.532,8.281-23.045,12.371-34.585a66.541,66.541,0,0,0,3.667-23.053c0-.224-.041-.447-.086-.905a12.329,12.329,0,0,1-9.363,2.628,12.148,12.148,0,0,1-8.226-4.957c-.358.386-.664.713-.967,1.044a11.752,11.752,0,0,1-10,3.968c-1.537-.115-2.414-1-2.3-2.276s1.108-1.966,2.658-1.868a7.688,7.688,0,0,0,8.448-7.7q.1-16.969.013-33.937a7.745,7.745,0,0,0-7.755-7.885,7.8,7.8,0,0,0-7.838,7.957c-.052,7.117-.014,14.235-.018,21.353a8.481,8.481,0,0,1-.069,1.55,1.867,1.867,0,0,1-1.995,1.635,1.87,1.87,0,0,1-2.018-1.607,8.063,8.063,0,0,1-.086-1.547c0-7.966.021-15.933,0-23.9-.011-4.3-2.7-7.606-6.542-8.15a7.782,7.782,0,0,0-9.073,7.589c-.05,1.459,0,2.922-.024,4.383-.024,1.633-.737,2.489-2.046,2.506s-2.067-.855-2.093-2.459c-.043-2.685.089-5.383-.125-8.053a7.621,7.621,0,0,0-7.235-6.89,7.653,7.653,0,0,0-7.947,5.7,28.011,28.011,0,0,0-.358,4.771c-.082,1.331-.766,2.138-1.926,2.179a1.837,1.837,0,0,1-2.131-1.629c-.926-7.518,2.473-13.274,9.36-14.928a11.885,11.885,0,0,1,12.557,5.12C1310.283-2151.25,1310.525-2150.848,1310.838-2150.35Zm56.368,31.561h.015c0-4.242.019-8.486-.015-12.728a11.558,11.558,0,0,0-.327-2.934,7.67,7.67,0,0,0-8.534-5.6,7.733,7.733,0,0,0-6.754,7.823q-.076,13.293,0,26.586a8.9,8.9,0,0,0,.56,3.033,7.725,7.725,0,0,0,8.645,4.822,7.731,7.731,0,0,0,6.391-7.709C1367.259-2109.926,1367.206-2114.358,1367.206-2118.789Z" transform="translate(-157.786 -89.486)" fill="#031342"/>
      <path id="Path_65117" data-name="Path 65117" d="M1231.236-2035.81a35.137,35.137,0,0,1-10.993,8.973,54.683,54.683,0,0,1-5.178,2.242,2.083,2.083,0,0,1-2.93-1.1c-.45-1.227.131-2.321,1.58-2.826a31.545,31.545,0,0,0,13.655-9.234c.151-.174.275-.371.505-.685-1.878-1.461-3.671-2.982-5.6-4.312a3.841,3.841,0,0,1-1.836-3.812c.115-1.405.009-2.827.054-4.24a2,2,0,0,1,2.11-2.135,2.012,2.012,0,0,1,2,2.107,1.038,1.038,0,0,1,0,.282c-.71,3.334.913,5.324,3.569,7.129,3.579,2.432,6.862,5.3,10.311,7.921a14,14,0,0,0,17.532-.206c2.483-2.034,2.692-4.482.535-6.827q-10.435-11.343-20.9-22.659a10.946,10.946,0,0,0-15.518-.884,96.139,96.139,0,0,0-18.764,23.215,37.81,37.81,0,0,0-2.172,4.593,15.625,15.625,0,0,0,.569,13.519q11.582,23.118,23.139,46.248a15.3,15.3,0,0,1,1.712,7.2c-.048,3.488-.007,6.976-.024,10.464-.008,1.619-.745,2.492-2.038,2.49-1.314,0-2.079-.861-2.09-2.459-.023-3.441.131-6.89-.066-10.32a14.345,14.345,0,0,0-1.267-5.413q-11.372-23.064-22.96-46.02a20,20,0,0,1-.605-17.853,53.359,53.359,0,0,1,3.623-7.021,104.537,104.537,0,0,1,17.186-20.914c7.126-6.619,16.159-6.278,22.8.846q10.366,11.117,20.633,22.327a8.327,8.327,0,0,1-.78,12.4,18.3,18.3,0,0,1-22.762.847C1234.621-2033.154,1233-2034.446,1231.236-2035.81Z" transform="translate(-90.234 -149.716)" fill="#031342"/>
      <path id="Path_65118" data-name="Path 65118" d="M1398.657-1870.269a32.918,32.918,0,0,1-4.616,15.073,2.179,2.179,0,0,1-2.967,1.083,2.094,2.094,0,0,1-.7-3.058c6.189-10.574,4.469-20.542-2.259-30.141-.271-.385-.567-.753-.831-1.142a2.1,2.1,0,0,1,.325-3.115,2.143,2.143,0,0,1,3.07.687,35.928,35.928,0,0,1,6.457,12.463C1397.832-1875.754,1398.161-1872.99,1398.657-1870.269Z" transform="translate(-228.632 -279.606)" fill="#031342"/>
      <path id="Path_65119" data-name="Path 65119" d="M1395.622-2272.625c0,2.208.019,4.417-.007,6.625-.018,1.511-.756,2.362-1.992,2.4-1.31.041-2.131-.829-2.139-2.393q-.035-6.7,0-13.39c.007-1.607.761-2.462,2.065-2.465s2.056.849,2.072,2.457C1395.639-2277.135,1395.622-2274.88,1395.622-2272.625Z" transform="translate(-232.016 0)" fill="#031342"/>
      <path id="Path_65120" data-name="Path 65120" d="M1577.354-2220.763c-1.175,1.87-2.334,3.75-3.532,5.605-.82,1.27-1.9,1.6-2.964.972-1.13-.663-1.363-1.835-.537-3.164q3.534-5.687,7.122-11.339c.861-1.357,1.955-1.679,3.061-.988s1.288,1.812.446,3.182C1579.77-2224.573,1578.554-2222.672,1577.354-2220.763Z" transform="translate(-359.928 -37.161)" fill="#031342"/>
      <path id="Path_65121" data-name="Path 65121" d="M1679.16-2068.056c-1.99.958-3.972,1.932-5.973,2.866-1.37.639-2.456.343-3.027-.755-.6-1.163-.177-2.28,1.228-2.965q6.018-2.933,12.065-5.808c1.451-.691,2.548-.382,3.117.793s.126,2.22-1.316,2.931C1683.232-2070,1681.192-2069.033,1679.16-2068.056Z" transform="translate(-431.69 -148.282)" fill="#031342"/>
      <path id="Path_65122" data-name="Path 65122" d="M1190.755-2214.167c1.176,1.87,2.334,3.75,3.532,5.605.82,1.27,1.9,1.6,2.964.972,1.13-.663,1.363-1.835.538-3.164q-3.534-5.687-7.123-11.339c-.861-1.357-1.954-1.679-3.061-.988s-1.288,1.812-.446,3.182C1188.34-2217.977,1189.555-2216.076,1190.755-2214.167Z" transform="translate(-85.119 -41.892)" fill="#031342"/>
      <path id="Path_65123" data-name="Path 65123" d="M1075.593-2061.459c1.99.957,3.972,1.932,5.973,2.865,1.37.639,2.456.343,3.027-.755.6-1.163.177-2.28-1.229-2.965q-6.018-2.933-12.065-5.808c-1.451-.691-2.548-.382-3.117.792s-.126,2.22,1.316,2.932C1071.521-2063.4,1073.561-2062.437,1075.593-2061.459Z" transform="translate(0 -153.012)" fill="#031342"/>
    </g>
    <g id="Group_10471" data-name="Group 10471" transform="translate(-201.941 8017.847)">
      <path id="Path_65116-2" data-name="Path 65116" d="M1310.838-2150.35c5.865-5.863,15.355-5.075,19.855,2.82,3.471-3.405,7.595-4.7,12.281-3.349,4.66,1.346,7.363,4.68,8.517,9.441a12.855,12.855,0,0,1,6.653-2.8,11.865,11.865,0,0,1,13.207,11.9c.069,5.278.026,10.558.019,15.838-.012,8.343.052,16.687-.083,25.028a65.33,65.33,0,0,1-3.951,21.021c-4.01,11.219-8.074,22.418-12.035,33.654a16.549,16.549,0,0,0-.859,4.821c-.129,3.436-.042,6.881-.045,10.321,0,.377.011.756-.021,1.131a1.924,1.924,0,0,1-1.995,1.959,1.9,1.9,0,0,1-2.1-1.987c-.011-4.711.013-9.424.129-14.134a10.019,10.019,0,0,1,.763-3c4.114-11.532,8.281-23.045,12.371-34.585a66.541,66.541,0,0,0,3.667-23.053c0-.224-.041-.447-.086-.905a12.329,12.329,0,0,1-9.363,2.628,12.148,12.148,0,0,1-8.226-4.957c-.358.386-.664.713-.967,1.044a11.752,11.752,0,0,1-10,3.968c-1.537-.115-2.414-1-2.3-2.276s1.108-1.966,2.658-1.868a7.688,7.688,0,0,0,8.448-7.7q.1-16.969.013-33.937a7.745,7.745,0,0,0-7.755-7.885,7.8,7.8,0,0,0-7.838,7.957c-.052,7.117-.014,14.235-.018,21.353a8.481,8.481,0,0,1-.069,1.55,1.867,1.867,0,0,1-1.995,1.635,1.87,1.87,0,0,1-2.018-1.607,8.063,8.063,0,0,1-.086-1.547c0-7.966.021-15.933,0-23.9-.011-4.3-2.7-7.606-6.542-8.15a7.782,7.782,0,0,0-9.073,7.589c-.05,1.459,0,2.922-.024,4.383-.024,1.633-.737,2.489-2.046,2.506s-2.067-.855-2.093-2.459c-.043-2.685.089-5.383-.125-8.053a7.621,7.621,0,0,0-7.235-6.89,7.653,7.653,0,0,0-7.947,5.7,28.011,28.011,0,0,0-.358,4.771c-.082,1.331-.766,2.138-1.926,2.179a1.837,1.837,0,0,1-2.131-1.629c-.926-7.518,2.473-13.274,9.36-14.928a11.885,11.885,0,0,1,12.557,5.12C1310.283-2151.25,1310.525-2150.848,1310.838-2150.35Zm56.368,31.561h.015c0-4.242.019-8.486-.015-12.728a11.558,11.558,0,0,0-.327-2.934,7.67,7.67,0,0,0-8.534-5.6,7.733,7.733,0,0,0-6.754,7.823q-.076,13.293,0,26.586a8.9,8.9,0,0,0,.56,3.033,7.725,7.725,0,0,0,8.645,4.822,7.731,7.731,0,0,0,6.391-7.709C1367.259-2109.926,1367.206-2114.358,1367.206-2118.789Z" transform="translate(-157.786 -89.486)" fill="#9ac3f5"/>
      <path id="Path_65117-2" data-name="Path 65117" d="M1231.236-2035.81a35.137,35.137,0,0,1-10.993,8.973,54.683,54.683,0,0,1-5.178,2.242,2.083,2.083,0,0,1-2.93-1.1c-.45-1.227.131-2.321,1.58-2.826a31.545,31.545,0,0,0,13.655-9.234c.151-.174.275-.371.505-.685-1.878-1.461-3.671-2.982-5.6-4.312a3.841,3.841,0,0,1-1.836-3.812c.115-1.405.009-2.827.054-4.24a2,2,0,0,1,2.11-2.135,2.012,2.012,0,0,1,2,2.107,1.038,1.038,0,0,1,0,.282c-.71,3.334.913,5.324,3.569,7.129,3.579,2.432,6.862,5.3,10.311,7.921a14,14,0,0,0,17.532-.206c2.483-2.034,2.692-4.482.535-6.827q-10.435-11.343-20.9-22.659a10.946,10.946,0,0,0-15.518-.884,96.139,96.139,0,0,0-18.764,23.215,37.81,37.81,0,0,0-2.172,4.593,15.625,15.625,0,0,0,.569,13.519q11.582,23.118,23.139,46.248a15.3,15.3,0,0,1,1.712,7.2c-.048,3.488-.007,6.976-.024,10.464-.008,1.619-.745,2.492-2.038,2.49-1.314,0-2.079-.861-2.09-2.459-.023-3.441.131-6.89-.066-10.32a14.345,14.345,0,0,0-1.267-5.413q-11.372-23.064-22.96-46.02a20,20,0,0,1-.605-17.853,53.359,53.359,0,0,1,3.623-7.021,104.537,104.537,0,0,1,17.186-20.914c7.126-6.619,16.159-6.278,22.8.846q10.366,11.117,20.633,22.327a8.327,8.327,0,0,1-.78,12.4,18.3,18.3,0,0,1-22.762.847C1234.621-2033.154,1233-2034.446,1231.236-2035.81Z" transform="translate(-90.234 -149.716)" fill="#9ac3f5"/>
      <path id="Path_65118-2" data-name="Path 65118" d="M1398.657-1870.269a32.918,32.918,0,0,1-4.616,15.073,2.179,2.179,0,0,1-2.967,1.083,2.094,2.094,0,0,1-.7-3.058c6.189-10.574,4.469-20.542-2.259-30.141-.271-.385-.567-.753-.831-1.142a2.1,2.1,0,0,1,.325-3.115,2.143,2.143,0,0,1,3.07.687,35.928,35.928,0,0,1,6.457,12.463C1397.832-1875.754,1398.161-1872.99,1398.657-1870.269Z" transform="translate(-228.632 -279.606)" fill="#9ac3f5"/>
      <path id="Path_65119-2" data-name="Path 65119" d="M1395.622-2272.625c0,2.208.019,4.417-.007,6.625-.018,1.511-.756,2.362-1.992,2.4-1.31.041-2.131-.829-2.139-2.393q-.035-6.7,0-13.39c.007-1.607.761-2.462,2.065-2.465s2.056.849,2.072,2.457C1395.639-2277.135,1395.622-2274.88,1395.622-2272.625Z" transform="translate(-232.016 0)" fill="#9ac3f5"/>
      <g id="Group_10464" data-name="Group 10464" transform="translate(1209.9 -2267.19)">
        <path id="Path_65120-2" data-name="Path 65120" d="M1577.354-2220.763c-1.175,1.87-2.334,3.75-3.532,5.605-.82,1.27-1.9,1.6-2.964.972-1.13-.663-1.363-1.835-.537-3.164q3.534-5.687,7.122-11.339c.861-1.357,1.955-1.679,3.061-.988s1.288,1.812.446,3.182C1579.77-2224.573,1578.554-2222.672,1577.354-2220.763Z" transform="translate(-1569.827 2230.029)" fill="#9ac3f5"/>
        <path id="Path_65121-2" data-name="Path 65121" d="M1679.16-2068.056c-1.99.958-3.972,1.932-5.973,2.866-1.37.639-2.456.343-3.027-.755-.6-1.163-.177-2.28,1.228-2.965q6.018-2.933,12.065-5.808c1.451-.691,2.548-.382,3.117.793s.126,2.22-1.316,2.931C1683.232-2070,1681.192-2069.033,1679.16-2068.056Z" transform="translate(-1641.589 2118.908)" fill="#9ac3f5"/>
      </g>
      <g id="Group_10465" data-name="Group 10465" transform="translate(1067.941 -2265.324)">
        <path id="Path_65122-2" data-name="Path 65122" d="M1190.755-2214.167c1.176,1.87,2.334,3.75,3.532,5.605.82,1.27,1.9,1.6,2.964.972,1.13-.663,1.363-1.835.538-3.164q-3.534-5.687-7.123-11.339c-.861-1.357-1.954-1.679-3.061-.988s-1.288,1.812-.446,3.182C1188.34-2217.977,1189.555-2216.076,1190.755-2214.167Z" transform="translate(-1153.06 2223.433)" fill="#9ac3f5"/>
        <path id="Path_65123-2" data-name="Path 65123" d="M1075.593-2061.459c1.99.957,3.972,1.932,5.973,2.865,1.37.639,2.456.343,3.027-.755.6-1.163.177-2.28-1.229-2.965q-6.018-2.933-12.065-5.808c-1.451-.691-2.548-.382-3.117.792s-.126,2.22,1.316,2.932C1071.521-2063.4,1073.561-2062.437,1075.593-2061.459Z" transform="translate(-1067.942 2112.312)" fill="#9ac3f5"/>
      </g>
    </g>
  </g>
</svg>
