<svg id="Group_10436" data-name="Group 10436" xmlns="http://www.w3.org/2000/svg" width="161.143" height="61.361" viewBox="0 0 161.143 61.361">
  <path id="Path_65027" data-name="Path 65027" d="M755.995,603.012a30.4,30.4,0,1,1,30.388-30.4,30.43,30.43,0,0,1-30.388,30.4Z" transform="translate(-725.325 -541.928)" fill="#fff"/>
  <path id="Path_65028" data-name="Path 65028" d="M756.077,542.569a30.123,30.123,0,1,1-30.111,30.123,30.117,30.117,0,0,1,30.111-30.123m0-.558a30.681,30.681,0,1,0,30.668,30.681A30.71,30.71,0,0,0,756.077,542.011Z" transform="translate(-725.408 -542.011)" fill="#004883"/>
  <g id="Group_10435" data-name="Group 10435" transform="translate(2.006 2.005)">
    <g id="Group_10434" data-name="Group 10434" transform="translate(67.186 12.77)">
      <path id="Path_65029" data-name="Path 65029" d="M865.531,555.97a2.109,2.109,0,0,0,.565-1.408,2.289,2.289,0,0,0-.565-1.522,2.042,2.042,0,0,0-1.465-.622,2.152,2.152,0,0,0-1.467.622,2.051,2.051,0,0,0-.564,1.522,1.878,1.878,0,0,0,.564,1.408,2.1,2.1,0,0,0,1.467.564A2,2,0,0,0,865.531,555.97Zm.115,20.747v-18.21H862.6l.057,18.21ZM858.6,559.41l-.507-.226A9.633,9.633,0,0,0,853.13,558a8.223,8.223,0,0,0-5.188,1.522,4.605,4.605,0,0,0-1.465,1.692,3.954,3.954,0,0,0-.508,1.972,4.114,4.114,0,0,0,1.58,3.156,11.33,11.33,0,0,0,4.227,2.087,11.633,11.633,0,0,1,3.326,1.522,2.7,2.7,0,0,1,.9,1.973,2.535,2.535,0,0,1-1.242,2.086,6.759,6.759,0,0,1-3.325.734,10.9,10.9,0,0,1-4.622-1.13l-.395-.28-1.3,2.367.453.226a13,13,0,0,0,5.75,1.239,9.566,9.566,0,0,0,5.581-1.465,5.175,5.175,0,0,0,1.635-1.689,4.85,4.85,0,0,0,.564-2.313v-.058a4.574,4.574,0,0,0-1.634-3.494,11.66,11.66,0,0,0-4.285-2.029,16.11,16.11,0,0,1-3.157-1.411,2.06,2.06,0,0,1-.958-1.691,2.183,2.183,0,0,1,.9-1.8,4.859,4.859,0,0,1,2.761-.734,7.479,7.479,0,0,1,4.059.958l.395.282,1.408-2.31Zm-18.378,1.353A11.419,11.419,0,0,0,832.552,558a10.639,10.639,0,0,0-7.328,2.649,10.457,10.457,0,0,0-3.326,8.231v14.15h2.93V573.9a9.193,9.193,0,0,0,3.385,2.37,10.424,10.424,0,0,0,4.4.9,10.782,10.782,0,0,0,7.609-2.82,8.787,8.787,0,0,0,0-13.585Zm-7.668-.227a8.008,8.008,0,0,1,5.581,2.03,6.761,6.761,0,0,1,.283,9.922,8.1,8.1,0,0,1-5.807,2.142,8.2,8.2,0,0,1-5.808-2.142,6.576,6.576,0,0,1-2.084-4.847,6.5,6.5,0,0,1,2.084-4.851,7.829,7.829,0,0,1,5.751-2.254Zm-15.334,1.13c-1.972-2.482-4.791-3.666-8.569-3.666a11.208,11.208,0,0,0-7.33,2.48,8.482,8.482,0,0,0-3.38,7.047,8.916,8.916,0,0,0,1.408,4.792,9.2,9.2,0,0,0,3.89,3.551,12.685,12.685,0,0,0,5.638,1.241,12.318,12.318,0,0,0,5.469-1.241,9.193,9.193,0,0,0,3.888-3.551l.565-.958h-3.27a7.591,7.591,0,0,1-2.875,2.368,8.748,8.748,0,0,1-3.891.9,8.164,8.164,0,0,1-4.679-1.354,7.413,7.413,0,0,1-2.818-3.72,15.345,15.345,0,0,1,5.751-1.129l3.044.338,4.735.451a13.129,13.129,0,0,0,3.835-.562,1.32,1.32,0,0,0,.9-1.749,10.586,10.586,0,0,0-2.313-5.24Zm-.788,4.624.055.111-1.635.226-3.551-.338-4.962-.4h-.846a16.5,16.5,0,0,0-4.453.9,6.641,6.641,0,0,1,2.932-4.905,8.593,8.593,0,0,1,4.679-1.41,7.868,7.868,0,0,1,6.2,2.537,7.666,7.666,0,0,1,1.58,3.272ZM784.8,558a10.74,10.74,0,0,0-7.328,2.649c-2.2,1.973-3.271,4.679-3.271,8.23l-.055,14.15h3.045l-.058-9.131a9.465,9.465,0,0,0,3.328,2.368,11.61,11.61,0,0,0,12.065-1.918,8.591,8.591,0,0,0,3.156-6.766,8.736,8.736,0,0,0-3.1-6.82A11.619,11.619,0,0,0,784.8,558Zm-5.75,4.792a7.911,7.911,0,0,1,5.75-2.256,8.145,8.145,0,0,1,5.636,2.03,6.474,6.474,0,0,1,2.256,5.075,6.722,6.722,0,0,1-1.973,4.847,8.054,8.054,0,0,1-5.862,2.142,8.3,8.3,0,0,1-5.808-2.142,6.735,6.735,0,0,1-2.029-4.847,6.647,6.647,0,0,1,2.03-4.85Z" transform="translate(-774.146 -552.418)" fill="#004883"/>
    </g>
    <path id="Path_65030" data-name="Path 65030" d="M772.7,549.275a7.477,7.477,0,0,1-.735-.637,28.672,28.672,0,0,0-39.473,40.587,59.685,59.685,0,0,0,40.208-39.95Z" transform="translate(-726.821 -543.423)" fill="#e32934"/>
    <path id="Path_65031" data-name="Path 65031" d="M753.491,596.877a28.68,28.68,0,0,0,24.274-43.926,1.588,1.588,0,0,1-.2-.239,20.415,20.415,0,0,1,.877,5.937,19.974,19.974,0,0,1-2.229,9.217,20.854,20.854,0,0,1-6.011,6.962,28.458,28.458,0,0,1-7.238,3.756,73.623,73.623,0,0,1-8.815,2.5l-10.469,2.357c-4.451,1.019-8.5,2.111-12.116,3.23a28.589,28.589,0,0,0,21.921,10.2Z" transform="translate(-724.828 -539.525)" fill="#004883"/>
  </g>
</svg>
