<svg xmlns="http://www.w3.org/2000/svg" width="155.631" height="59.263" viewBox="0 0 155.631 59.263">
  <g id="Group_9935" data-name="Group 9935" transform="translate(0 0)">
    <path id="Path_64312" data-name="Path 64312" d="M754.955,600.932A29.362,29.362,0,1,1,784.3,571.571a29.389,29.389,0,0,1-29.349,29.361Z" transform="translate(-725.335 -541.938)" fill="#001c37"/>
    <path id="Path_64313" data-name="Path 64313" d="M755.028,542.55a29.093,29.093,0,1,1-29.082,29.093,29.087,29.087,0,0,1,29.082-29.093m0-.539a29.631,29.631,0,1,0,29.619,29.632A29.66,29.66,0,0,0,755.028,542.011Z" transform="translate(-725.408 -542.011)" fill="#9b9b9b"/>
    <g id="Group_9934" data-name="Group 9934" transform="translate(1.937 1.936)">
      <g id="Group_9933" data-name="Group 9933" transform="translate(64.889 12.333)">
        <path id="Path_64314" data-name="Path 64314" d="M862.405,555.848a2.036,2.036,0,0,0,.546-1.36,2.211,2.211,0,0,0-.546-1.47,1.972,1.972,0,0,0-1.415-.6,2.078,2.078,0,0,0-1.417.6,1.981,1.981,0,0,0-.544,1.47,1.814,1.814,0,0,0,.544,1.36,2.023,2.023,0,0,0,1.417.544A1.926,1.926,0,0,0,862.405,555.848Zm.111,20.038V558.3h-2.941l.055,17.587Zm-6.807-16.715-.49-.218a9.3,9.3,0,0,0-4.791-1.143,7.941,7.941,0,0,0-5.01,1.47A4.445,4.445,0,0,0,844,560.913a3.818,3.818,0,0,0-.491,1.9,3.973,3.973,0,0,0,1.526,3.048,10.944,10.944,0,0,0,4.082,2.016,11.238,11.238,0,0,1,3.213,1.47,2.607,2.607,0,0,1,.872,1.906,2.448,2.448,0,0,1-1.2,2.014,6.529,6.529,0,0,1-3.211.709,10.532,10.532,0,0,1-4.464-1.091l-.381-.27L842.7,574.9l.437.218a12.554,12.554,0,0,0,5.553,1.2,9.239,9.239,0,0,0,5.39-1.415,5,5,0,0,0,1.58-1.632,4.683,4.683,0,0,0,.544-2.234v-.056a4.417,4.417,0,0,0-1.578-3.374,11.259,11.259,0,0,0-4.138-1.959,15.558,15.558,0,0,1-3.049-1.363,1.99,1.99,0,0,1-.926-1.633,2.108,2.108,0,0,1,.872-1.741,4.693,4.693,0,0,1,2.667-.709,7.224,7.224,0,0,1,3.92.926l.381.273,1.36-2.231Zm-17.749,1.307a11.029,11.029,0,0,0-7.406-2.668,10.275,10.275,0,0,0-7.078,2.558,10.1,10.1,0,0,0-3.213,7.95v13.666h2.83v-8.821a8.875,8.875,0,0,0,3.269,2.288,10.067,10.067,0,0,0,4.248.869,10.414,10.414,0,0,0,7.349-2.723,8.486,8.486,0,0,0,0-13.12Zm-7.406-.219a7.734,7.734,0,0,1,5.39,1.961,6.53,6.53,0,0,1,.273,9.583,7.825,7.825,0,0,1-5.608,2.069A7.918,7.918,0,0,1,825,571.8a6.352,6.352,0,0,1-2.013-4.681A6.279,6.279,0,0,1,825,562.435a7.561,7.561,0,0,1,5.554-2.177Zm-14.809,1.091c-1.9-2.4-4.628-3.54-8.276-3.54a10.825,10.825,0,0,0-7.079,2.4,8.192,8.192,0,0,0-3.265,6.806,8.609,8.609,0,0,0,1.36,4.627,8.883,8.883,0,0,0,3.757,3.429,12.25,12.25,0,0,0,5.444,1.2,11.9,11.9,0,0,0,5.282-1.2,8.88,8.88,0,0,0,3.755-3.429l.546-.925h-3.158A7.334,7.334,0,0,1,811.335,573a8.45,8.45,0,0,1-3.758.871,7.886,7.886,0,0,1-4.519-1.308,7.161,7.161,0,0,1-2.722-3.592,14.823,14.823,0,0,1,5.554-1.09l2.94.326,4.573.436a12.68,12.68,0,0,0,3.7-.543,1.274,1.274,0,0,0,.872-1.689,10.223,10.223,0,0,0-2.234-5.061Zm-.761,4.466.053.107-1.58.218-3.429-.326-4.792-.382h-.817a15.935,15.935,0,0,0-4.3.872,6.414,6.414,0,0,1,2.831-4.737,8.3,8.3,0,0,1,4.519-1.362,7.6,7.6,0,0,1,5.989,2.45,7.4,7.4,0,0,1,1.526,3.16Zm-30.547-8.006a10.372,10.372,0,0,0-7.078,2.558c-2.124,1.906-3.159,4.519-3.159,7.948l-.053,13.666h2.941l-.056-8.819a9.139,9.139,0,0,0,3.214,2.287A11.212,11.212,0,0,0,791.9,573.6a8.3,8.3,0,0,0,3.048-6.535,8.438,8.438,0,0,0-2.995-6.587,11.222,11.222,0,0,0-7.514-2.667Zm-5.553,4.627a7.64,7.64,0,0,1,5.553-2.179,7.866,7.866,0,0,1,5.443,1.961,6.253,6.253,0,0,1,2.179,4.9,6.492,6.492,0,0,1-1.906,4.681,7.779,7.779,0,0,1-5.661,2.069,8.016,8.016,0,0,1-5.609-2.069,6.5,6.5,0,0,1-1.959-4.681,6.419,6.419,0,0,1,1.961-4.684Z" transform="translate(-774.146 -552.418)" fill="#fff"/>
      </g>
      <path id="Path_64315" data-name="Path 64315" d="M771.132,549.075a7.212,7.212,0,0,1-.71-.616,27.691,27.691,0,0,0-38.123,39.2,57.644,57.644,0,0,0,38.833-38.583Z" transform="translate(-726.821 -543.423)" fill="#fff"/>
      <path id="Path_64316" data-name="Path 64316" d="M752.742,595.366a27.7,27.7,0,0,0,23.443-42.424,1.554,1.554,0,0,1-.189-.23,19.717,19.717,0,0,1,.847,5.734,19.29,19.29,0,0,1-2.153,8.9,20.143,20.143,0,0,1-5.805,6.724,27.486,27.486,0,0,1-6.99,3.628,71.109,71.109,0,0,1-8.513,2.416l-10.111,2.276c-4.3.984-8.213,2.039-11.7,3.119a27.612,27.612,0,0,0,21.172,9.856Z" transform="translate(-725.059 -539.976)" fill="#fff"/>
    </g>
  </g>
</svg>
