<svg xmlns="http://www.w3.org/2000/svg" width="85.9" height="43.02" viewBox="0 0 85.9 43.02">
  <g id="Group_10388" data-name="Group 10388" transform="translate(0 0.05)">
    <path id="Path_64900" data-name="Path 64900" d="M1366.93,394.19c.17-.78.36-1.56.52-2.34q1.28-6.33,2.54-12.67l2.52-12.57,1.1-5.52a2.176,2.176,0,0,1,.13-.5h12.53a14,14,0,0,1,4.6.69,7.86,7.86,0,0,1,5.37,6.17,13.71,13.71,0,0,1,.1,4.54,17.223,17.223,0,0,1-2.42,7,15.532,15.532,0,0,1-3.94,4.29,11.21,11.21,0,0,1-5.32,2,33,33,0,0,1-4.87.29h-4.46c-.23,1.14-.46,2.22-.68,3.31l-1.06,5.26v.37h-6.66v-.32Zm9.53-14h.68c1.25,0,2.51,0,3.75-.11a18.522,18.522,0,0,0,4.27-.75,3.71,3.71,0,0,0,1.87-1.2,9.937,9.937,0,0,0,1.07-1.6,13.117,13.117,0,0,0,1.2-3.82,10.849,10.849,0,0,0,.2-3.57,2.71,2.71,0,0,0-2.28-2.56,22.31,22.31,0,0,0-6-.57h-1.95Z" transform="translate(-1366.93 -351.54)" fill="#fff"/>
    <path id="Path_64901" data-name="Path 64901" d="M1423.33,394.51c.19-1,.38-2,.58-3.05l2.52-12.56,2.43-12.14,1.11-5.57a3.551,3.551,0,0,1,.14-.62h12.54a13.909,13.909,0,0,1,4.64.7,7.88,7.88,0,0,1,5.33,6.19c.07.35.14.69.21,1v2.79c-.06.37-.14.73-.19,1.1a16.229,16.229,0,0,1-5.09,9.91,10.51,10.51,0,0,1-5,2.7,25.519,25.519,0,0,1-4.9.55h-5.89c-.06.22-.11.37-.14.52-.4,2-.8,3.92-1.18,5.89-.17.84-.31,1.69-.46,2.53h-6.66Zm12.35-28.44-2.83,14.11h.66c1.22,0,2.43,0,3.65-.1a22.423,22.423,0,0,0,3.86-.6,4.86,4.86,0,0,0,3.27-2.56,11.55,11.55,0,0,0,1.12-2.95,13.372,13.372,0,0,0,.49-4.77,2.76,2.76,0,0,0-2.32-2.65,28.137,28.137,0,0,0-7.89-.47Z" transform="translate(-1366.93 -351.54)" fill="#fff"/>
    <path id="Path_64902" data-name="Path 64902" d="M1410.34,351.54c-.12.68-.22,1.37-.36,2.05-.44,2.15-.89,4.31-1.33,6.46a1.319,1.319,0,0,1-.08.52h5.51a17.532,17.532,0,0,1,4.83.63,9.1,9.1,0,0,1,2.29,1,4.48,4.48,0,0,1,2,3.14,10.407,10.407,0,0,1-.06,3.84c-.8,4.1-1.64,8.2-2.46,12.3L1420,385a2.547,2.547,0,0,1-.13.55h-6.66c.09-.46.16-.9.25-1.33q1.41-7,2.81-13.93a5.532,5.532,0,0,0,.07-2.24,1.86,1.86,0,0,0-1.28-1.52,7,7,0,0,0-1.83-.34c-1.84-.06-3.69,0-5.53-.06h-.28l-3.87,19.31a52.745,52.745,0,0,1-6.56,0,3.329,3.329,0,0,1,0-.41l2.61-12.93,2.51-12.46,1.59-7.88v-.27h6.55Z" transform="translate(-1366.93 -351.54)" fill="#fff"/>
  </g>
</svg>
