<svg xmlns="http://www.w3.org/2000/svg" xmlns:xlink="http://www.w3.org/1999/xlink" width="836.863" height="619.051" viewBox="0 0 836.863 619.051">
  <defs>
    <clipPath id="clip-path">
      <rect id="Rectangle_8618" data-name="Rectangle 8618" width="24.756" height="21.083" transform="translate(1115.661 305.352) rotate(-57.961)" fill="none"/>
    </clipPath>
    <clipPath id="clip-path-2">
      <rect id="Rectangle_8619" data-name="Rectangle 8619" width="10.822" height="12.708" transform="translate(1686.656 426.517) rotate(-10.765)" fill="none"/>
    </clipPath>
    <clipPath id="clip-path-3">
      <rect id="Rectangle_8620" data-name="Rectangle 8620" width="24.756" height="21.083" transform="matrix(0.035, -0.999, 0.999, 0.035, 1556.559, 333.013)" fill="none"/>
    </clipPath>
    <clipPath id="clip-path-4">
      <rect id="Rectangle_8621" data-name="Rectangle 8621" width="12.708" height="10.822" transform="matrix(0.834, -0.551, 0.551, 0.834, 1379.667, 298.452)" fill="none"/>
    </clipPath>
    <clipPath id="clip-path-5">
      <rect id="Rectangle_8622" data-name="Rectangle 8622" width="12.708" height="10.822" transform="translate(1429.278 404.368) rotate(-70.156)" fill="none"/>
    </clipPath>
  </defs>
  <g id="Group_17385" data-name="Group 17385" transform="translate(-934.654 -191.644)">
    <g id="Group_17332" data-name="Group 17332">
      <path id="Path_71565" data-name="Path 71565" d="M1360.122,289.367c159.943-14.245,160.213,75.995,232.278,160.063s87.489,122.185,60.322,219.1-118.716,172.882-231.97,129.837-178.13-1.708-249.565-39.932-97.961-112.074-45.673-199.11S1162.905,306.931,1360.122,289.367Z" fill="#e1f4ff"/>
      <path id="Path_71566" data-name="Path 71566" d="M1360.122,289.367c159.943-14.245,160.213,75.995,232.278,160.063s87.489,122.185,60.322,219.1-118.716,172.882-231.97,129.837-178.13-1.708-249.565-39.932-97.961-112.074-45.673-199.11S1162.905,306.931,1360.122,289.367Z" fill="#e1f4ff" opacity="0.7"/>
    </g>
    <g id="Group_17340" data-name="Group 17340">
      <rect id="Rectangle_8570" data-name="Rectangle 8570" width="124.318" height="162.894" transform="translate(1140.087 344.879)" fill="#fff" stroke="#000" stroke-width="1"/>
      <g id="Group_17333" data-name="Group 17333">
        <rect id="Rectangle_8571" data-name="Rectangle 8571" width="20.175" height="20.174" transform="translate(1161.904 358.803)" fill="#364154" opacity="0.1"/>
        <rect id="Rectangle_8572" data-name="Rectangle 8572" width="20.175" height="20.174" transform="translate(1161.904 388.881)" fill="#364154" opacity="0.2"/>
        <rect id="Rectangle_8573" data-name="Rectangle 8573" width="20.175" height="20.174" transform="translate(1161.904 418.958)" fill="#364154" opacity="0.3"/>
        <rect id="Rectangle_8574" data-name="Rectangle 8574" width="20.175" height="20.174" transform="translate(1161.904 449.035)" fill="#364154" opacity="0.5"/>
        <rect id="Rectangle_8575" data-name="Rectangle 8575" width="20.175" height="20.174" transform="translate(1161.904 479.113)" fill="#364154" opacity="0.8"/>
      </g>
      <g id="Group_17334" data-name="Group 17334">
        <rect id="Rectangle_8576" data-name="Rectangle 8576" width="20.174" height="20.174" transform="translate(1192.294 358.803)" fill="#03a1fc" opacity="0.1"/>
        <rect id="Rectangle_8577" data-name="Rectangle 8577" width="20.174" height="20.174" transform="translate(1192.294 388.881)" fill="#03a1fc" opacity="0.2"/>
        <rect id="Rectangle_8578" data-name="Rectangle 8578" width="20.174" height="20.174" transform="translate(1192.294 418.958)" fill="#03a1fc" opacity="0.4"/>
        <rect id="Rectangle_8579" data-name="Rectangle 8579" width="20.174" height="20.174" transform="translate(1192.294 449.035)" fill="#03a1fc" opacity="0.5"/>
        <rect id="Rectangle_8580" data-name="Rectangle 8580" width="20.174" height="20.174" transform="translate(1192.294 479.113)" fill="#03a1fc" opacity="0.7"/>
      </g>
      <g id="Group_17335" data-name="Group 17335">
        <rect id="Rectangle_8581" data-name="Rectangle 8581" width="25.778" height="1.762" transform="translate(1227.632 358.803)" fill="#131f2d"/>
        <rect id="Rectangle_8582" data-name="Rectangle 8582" width="25.778" height="1.762" transform="translate(1227.632 362.874)" fill="#131f2d"/>
      </g>
      <g id="Group_17336" data-name="Group 17336">
        <rect id="Rectangle_8583" data-name="Rectangle 8583" width="25.778" height="1.762" transform="translate(1227.632 388.726)" fill="#131f2d"/>
        <rect id="Rectangle_8584" data-name="Rectangle 8584" width="25.778" height="1.762" transform="translate(1227.632 392.797)" fill="#131f2d"/>
      </g>
      <g id="Group_17337" data-name="Group 17337">
        <rect id="Rectangle_8585" data-name="Rectangle 8585" width="25.778" height="1.762" transform="translate(1227.632 418.649)" fill="#131f2d"/>
        <rect id="Rectangle_8586" data-name="Rectangle 8586" width="25.778" height="1.762" transform="translate(1227.632 422.72)" fill="#131f2d"/>
      </g>
      <g id="Group_17338" data-name="Group 17338">
        <rect id="Rectangle_8587" data-name="Rectangle 8587" width="25.778" height="1.762" transform="translate(1227.632 448.572)" fill="#131f2d"/>
        <rect id="Rectangle_8588" data-name="Rectangle 8588" width="25.778" height="1.762" transform="translate(1227.632 452.643)" fill="#131f2d"/>
      </g>
      <g id="Group_17339" data-name="Group 17339">
        <rect id="Rectangle_8589" data-name="Rectangle 8589" width="25.778" height="1.762" transform="translate(1227.632 478.495)" fill="#131f2d"/>
        <rect id="Rectangle_8590" data-name="Rectangle 8590" width="25.778" height="1.762" transform="translate(1227.632 482.566)" fill="#131f2d"/>
      </g>
    </g>
    <g id="Group_17347" data-name="Group 17347">
      <g id="Group_17341" data-name="Group 17341">
        <rect id="Rectangle_8591" data-name="Rectangle 8591" width="4.517" height="16.52" transform="translate(1258.271 764.863) rotate(180)" fill="#131f2d"/>
        <path id="Path_71567" data-name="Path 71567" d="M1261.846,767.257a5.834,5.834,0,1,0-5.834,5.834A5.834,5.834,0,0,0,1261.846,767.257Z" fill="#131f2d"/>
        <path id="Path_71568" data-name="Path 71568" d="M1259.836,767.257a3.824,3.824,0,1,0-3.824,3.824A3.823,3.823,0,0,0,1259.836,767.257Z" fill="#364154"/>
      </g>
      <g id="Group_17342" data-name="Group 17342">
        <rect id="Rectangle_8592" data-name="Rectangle 8592" width="4.517" height="16.52" transform="translate(1146.111 764.863) rotate(180)" fill="#131f2d"/>
        <path id="Path_71569" data-name="Path 71569" d="M1149.686,767.257a5.834,5.834,0,1,0-5.834,5.834A5.834,5.834,0,0,0,1149.686,767.257Z" fill="#131f2d"/>
        <path id="Path_71570" data-name="Path 71570" d="M1147.676,767.257a3.824,3.824,0,1,0-3.824,3.824A3.823,3.823,0,0,0,1147.676,767.257Z" fill="#364154"/>
      </g>
      <g id="Group_17343" data-name="Group 17343">
        <rect id="Rectangle_8593" data-name="Rectangle 8593" width="4.517" height="16.52" transform="translate(1072.244 764.863) rotate(180)" fill="#131f2d"/>
        <path id="Path_71571" data-name="Path 71571" d="M1075.82,767.257a5.834,5.834,0,1,0-5.835,5.834A5.835,5.835,0,0,0,1075.82,767.257Z" fill="#131f2d"/>
        <path id="Path_71572" data-name="Path 71572" d="M1073.809,767.257a3.823,3.823,0,1,0-3.824,3.824A3.823,3.823,0,0,0,1073.809,767.257Z" fill="#364154"/>
      </g>
      <path id="Rectangle_8594" data-name="Rectangle 8594" d="M19.061,0H75.526A19.061,19.061,0,0,1,94.588,19.061V154.525A41.884,41.884,0,0,1,52.7,196.409H19.061A19.061,19.061,0,0,1,0,177.348V19.061A19.061,19.061,0,0,1,19.061,0Z" transform="translate(1142.389 759.556) rotate(180)" fill="#b5bfc7"/>
      <path id="Rectangle_8595" data-name="Rectangle 8595" d="M18.513,0H146.429a0,0,0,0,1,0,0V196.409a0,0,0,0,1,0,0H0a0,0,0,0,1,0,0V18.513A18.513,18.513,0,0,1,18.513,0Z" transform="translate(1273.515 759.556) rotate(180)" fill="#d3d4d8"/>
      <rect id="Rectangle_8596" data-name="Rectangle 8596" width="150.185" height="9.168" transform="translate(1225.524 563.147) rotate(180)" fill="#364154"/>
      <rect id="Rectangle_8597" data-name="Rectangle 8597" width="103.336" height="70.989" transform="translate(1256.012 683.329) rotate(180)" fill="#03a1fc"/>
      <rect id="Rectangle_8598" data-name="Rectangle 8598" width="52.603" height="3.741" transform="translate(1118.155 579.983) rotate(180)" fill="#364154"/>
      <rect id="Rectangle_8599" data-name="Rectangle 8599" width="52.603" height="3.742" transform="translate(1118.155 589.128) rotate(180)" fill="#364154"/>
      <path id="Path_71573" data-name="Path 71573" d="M1095.7,553.979h164.26a17.862,17.862,0,0,0-17.862-17.862H1095.7Z" fill="#d3d4d8"/>
      <path id="Path_71574" data-name="Path 71574" d="M1056.992,553.979h85.4a17.862,17.862,0,0,0-17.862-17.862h-49.672a17.862,17.862,0,0,0-17.863,17.862Z" fill="#b5bfc7"/>
      <g id="Group_17346" data-name="Group 17346">
        <path id="Path_71575" data-name="Path 71575" d="M1270.079,563.149l13.5,25.624c2.054,3.9.559,7.056-3.338,7.056h-112.51c-3.9,0-8.721-3.159-10.775-7.056l-13.5-25.624Z" fill="#131f2d"/>
        <path id="Path_71576" data-name="Path 71576" d="M1173.6,595.829h112.511c3.9,0,5.391-3.159,3.338-7.056l-13.5-25.624H1149.324l13.5,25.624C1164.88,592.67,1169.7,595.829,1173.6,595.829Z" fill="#b5bfc7"/>
        <path id="Path_71577" data-name="Path 71577" d="M1177.085,586.178h33.58l-8.877-16.846h-33.58Z" fill="#e8e8e8"/>
        <g id="Group_17344" data-name="Group 17344">
          <path id="Path_71578" data-name="Path 71578" d="M1247.212,573.274a4.631,4.631,0,0,0,3.633,2.379c1.314,0,1.818-1.065,1.126-2.379a4.632,4.632,0,0,0-3.634-2.38C1247.024,570.894,1246.52,571.96,1247.212,573.274Z" fill="#131f2d"/>
          <path id="Path_71579" data-name="Path 71579" d="M1234.2,573.274a4.631,4.631,0,0,0,3.633,2.379c1.314,0,1.818-1.065,1.126-2.379a4.635,4.635,0,0,0-3.634-2.38C1234.016,570.894,1233.512,571.96,1234.2,573.274Z" fill="#131f2d"/>
          <path id="Path_71580" data-name="Path 71580" d="M1220.722,573.274a4.629,4.629,0,0,0,3.633,2.379c1.314,0,1.818-1.065,1.125-2.379a4.632,4.632,0,0,0-3.633-2.38C1220.533,570.894,1220.029,571.96,1220.722,573.274Z" fill="#131f2d"/>
          <path id="Path_71581" data-name="Path 71581" d="M1252.311,582.95a4.632,4.632,0,0,0,3.633,2.38c1.314,0,1.818-1.066,1.126-2.38a4.634,4.634,0,0,0-3.633-2.379C1252.122,580.571,1251.618,581.636,1252.311,582.95Z" fill="#131f2d"/>
          <path id="Path_71582" data-name="Path 71582" d="M1239.3,582.95a4.634,4.634,0,0,0,3.634,2.38c1.314,0,1.818-1.066,1.125-2.38a4.631,4.631,0,0,0-3.633-2.379C1239.115,580.571,1238.611,581.636,1239.3,582.95Z" fill="#131f2d"/>
          <path id="Path_71583" data-name="Path 71583" d="M1225.82,582.95a4.634,4.634,0,0,0,3.633,2.38c1.315,0,1.819-1.066,1.126-2.38a4.631,4.631,0,0,0-3.633-2.379C1225.632,580.571,1225.128,581.636,1225.82,582.95Z" fill="#131f2d"/>
        </g>
        <g id="Group_17345" data-name="Group 17345">
          <path id="Path_71584" data-name="Path 71584" d="M1270.677,569.726a2.2,2.2,0,0,0,1.727,1.131c.624,0,.864-.507.535-1.131a2.2,2.2,0,0,0-1.727-1.131C1270.587,568.595,1270.348,569.1,1270.677,569.726Z" fill="#131f2d"/>
          <path id="Path_71585" data-name="Path 71585" d="M1264.495,569.726a2.2,2.2,0,0,0,1.727,1.131c.624,0,.864-.507.535-1.131a2.2,2.2,0,0,0-1.727-1.131C1264.406,568.595,1264.166,569.1,1264.495,569.726Z" fill="#131f2d"/>
          <path id="Path_71586" data-name="Path 71586" d="M1258.087,569.726a2.2,2.2,0,0,0,1.727,1.131c.625,0,.864-.507.535-1.131a2.2,2.2,0,0,0-1.726-1.131C1258,568.595,1257.758,569.1,1258.087,569.726Z" fill="#131f2d"/>
          <path id="Path_71587" data-name="Path 71587" d="M1273.1,574.324a2.2,2.2,0,0,0,1.727,1.131c.625,0,.864-.506.535-1.131a2.2,2.2,0,0,0-1.727-1.13C1273.011,573.194,1272.771,573.7,1273.1,574.324Z" fill="#131f2d"/>
          <path id="Path_71588" data-name="Path 71588" d="M1266.918,574.324a2.2,2.2,0,0,0,1.727,1.131c.625,0,.864-.506.535-1.131a2.2,2.2,0,0,0-1.727-1.13C1266.829,573.194,1266.589,573.7,1266.918,574.324Z" fill="#131f2d"/>
          <path id="Path_71589" data-name="Path 71589" d="M1260.51,574.324a2.2,2.2,0,0,0,1.727,1.131c.625,0,.864-.506.535-1.131a2.2,2.2,0,0,0-1.727-1.13C1260.421,573.194,1260.181,573.7,1260.51,574.324Z" fill="#131f2d"/>
        </g>
      </g>
      <path id="Path_71590" data-name="Path 71590" d="M1247.4,632.169h-80.308a2.778,2.778,0,0,1-2.778-2.778h0a2.778,2.778,0,0,1,2.778-2.778H1247.4a2.778,2.778,0,0,1,2.778,2.778h0A2.778,2.778,0,0,1,1247.4,632.169Z" fill="#364154"/>
      <path id="Path_71591" data-name="Path 71591" d="M1247.4,644.992h-80.308a2.779,2.779,0,0,1-2.778-2.779h0a2.778,2.778,0,0,1,2.778-2.778H1247.4a2.778,2.778,0,0,1,2.778,2.778h0A2.779,2.779,0,0,1,1247.4,644.992Z" fill="#364154"/>
    </g>
    <g id="Group_17356" data-name="Group 17356">
      <g id="Group_17348" data-name="Group 17348">
        <rect id="Rectangle_8600" data-name="Rectangle 8600" width="4.786" height="17.506" transform="translate(1707.331 764.275) rotate(180)" fill="#131f2d"/>
        <path id="Path_71592" data-name="Path 71592" d="M1711.12,766.812a6.182,6.182,0,1,0-6.183,6.182A6.183,6.183,0,0,0,1711.12,766.812Z" fill="#131f2d"/>
        <path id="Path_71593" data-name="Path 71593" d="M1708.989,766.812a4.052,4.052,0,1,0-4.052,4.052A4.052,4.052,0,0,0,1708.989,766.812Z" fill="#364154"/>
      </g>
      <g id="Group_17349" data-name="Group 17349">
        <rect id="Rectangle_8601" data-name="Rectangle 8601" width="4.787" height="17.506" transform="translate(1510.207 764.275) rotate(180)" fill="#131f2d"/>
        <path id="Path_71594" data-name="Path 71594" d="M1514,766.812a6.182,6.182,0,1,0-6.182,6.182A6.181,6.181,0,0,0,1514,766.812Z" fill="#131f2d"/>
        <path id="Path_71595" data-name="Path 71595" d="M1511.866,766.812a4.052,4.052,0,1,0-4.052,4.052A4.052,4.052,0,0,0,1511.866,766.812Z" fill="#364154"/>
      </g>
      <g id="Group_17350" data-name="Group 17350">
        <rect id="Rectangle_8602" data-name="Rectangle 8602" width="4.786" height="17.506" transform="translate(1421.255 764.275) rotate(180)" fill="#131f2d"/>
        <path id="Path_71596" data-name="Path 71596" d="M1425.044,766.812a6.182,6.182,0,1,0-6.182,6.182A6.182,6.182,0,0,0,1425.044,766.812Z" fill="#131f2d"/>
        <path id="Path_71597" data-name="Path 71597" d="M1422.914,766.812a4.052,4.052,0,1,0-4.052,4.052A4.052,4.052,0,0,0,1422.914,766.812Z" fill="#364154"/>
      </g>
      <path id="Path_71598" data-name="Path 71598" d="M1719,758.343l39.512.308V584.7a34.173,34.173,0,0,0-34.172-34.173H1711.12Z" fill="#b5bfc7"/>
      <path id="Path_71599" data-name="Path 71599" d="M1702.544,758.556h44.448V588.8a22.793,22.793,0,0,0-22.794-22.793h-.9Z" fill="#d3d4d8"/>
      <path id="Rectangle_8603" data-name="Rectangle 8603" d="M28.265,0H322.138a0,0,0,0,1,0,0V208.124a0,0,0,0,1,0,0H0a0,0,0,0,1,0,0V28.265A28.265,28.265,0,0,1,28.265,0Z" transform="translate(1723.484 758.651) rotate(180)" fill="#d3d4d8"/>
      <path id="Path_71600" data-name="Path 71600" d="M1401.346,566.006H1730.5l-7.021-15.479H1401.346Z" fill="#b5bfc7"/>
      <path id="Rectangle_8604" data-name="Rectangle 8604" d="M0,0H47.4a0,0,0,0,1,0,0V208.124a0,0,0,0,1,0,0h0A47.4,47.4,0,0,1,0,160.728V0A0,0,0,0,1,0,0Z" transform="translate(1448.743 758.651) rotate(180)" fill="#b5bfc7"/>
      <g id="Group_17353" data-name="Group 17353">
        <path id="Path_71601" data-name="Path 71601" d="M1583.832,537.594l14.308,27.153c2.176,4.129.592,7.477-3.537,7.477H1475.382c-4.13,0-9.242-3.348-11.417-7.477L1452.39,542.78a3.537,3.537,0,0,1,3.129-5.186Z" fill="#131f2d"/>
        <path id="Path_71602" data-name="Path 71602" d="M1481.6,572.224h119.221c4.13,0,5.713-3.348,3.537-7.477l-12.109-22.981a7.815,7.815,0,0,0-6.914-4.172H1463.041a4.324,4.324,0,0,0-3.826,6.34l10.968,20.813C1472.359,568.876,1477.471,572.224,1481.6,572.224Z" fill="#657283"/>
        <path id="Path_71603" data-name="Path 71603" d="M1485.291,562h35.584l-9.406-17.851h-35.583Z" fill="#e8e8e8"/>
        <g id="Group_17351" data-name="Group 17351">
          <path id="Path_71604" data-name="Path 71604" d="M1559.6,548.323a4.908,4.908,0,0,0,3.85,2.521c1.393,0,1.927-1.128,1.193-2.521a4.908,4.908,0,0,0-3.85-2.521C1559.4,545.8,1558.867,546.93,1559.6,548.323Z" fill="#131f2d"/>
          <path id="Path_71605" data-name="Path 71605" d="M1545.818,548.323a4.906,4.906,0,0,0,3.85,2.521c1.392,0,1.926-1.128,1.193-2.521a4.908,4.908,0,0,0-3.85-2.521C1545.618,545.8,1545.084,546.93,1545.818,548.323Z" fill="#131f2d"/>
          <path id="Path_71606" data-name="Path 71606" d="M1531.53,548.323a4.908,4.908,0,0,0,3.85,2.521c1.393,0,1.927-1.128,1.193-2.521a4.9,4.9,0,0,0-3.85-2.521C1531.331,545.8,1530.8,546.93,1531.53,548.323Z" fill="#131f2d"/>
          <path id="Path_71607" data-name="Path 71607" d="M1565,558.576a4.909,4.909,0,0,0,3.85,2.522c1.393,0,1.926-1.129,1.193-2.522a4.91,4.91,0,0,0-3.85-2.521C1564.8,556.055,1564.27,557.184,1565,558.576Z" fill="#131f2d"/>
          <path id="Path_71608" data-name="Path 71608" d="M1551.221,558.576a4.907,4.907,0,0,0,3.85,2.522c1.393,0,1.926-1.129,1.193-2.522a4.91,4.91,0,0,0-3.85-2.521C1551.021,556.055,1550.487,557.184,1551.221,558.576Z" fill="#131f2d"/>
          <path id="Path_71609" data-name="Path 71609" d="M1536.933,558.576a4.909,4.909,0,0,0,3.851,2.522c1.392,0,1.926-1.129,1.192-2.522a4.909,4.909,0,0,0-3.85-2.521C1536.734,556.055,1536.2,557.184,1536.933,558.576Z" fill="#131f2d"/>
        </g>
        <g id="Group_17352" data-name="Group 17352">
          <path id="Path_71610" data-name="Path 71610" d="M1584.466,544.564a2.335,2.335,0,0,0,1.83,1.2c.662,0,.915-.537.566-1.2a2.331,2.331,0,0,0-1.829-1.2C1584.371,543.365,1584.117,543.9,1584.466,544.564Z" fill="#fddbba"/>
          <path id="Path_71611" data-name="Path 71611" d="M1577.916,544.564a2.335,2.335,0,0,0,1.829,1.2c.662,0,.916-.537.567-1.2a2.333,2.333,0,0,0-1.829-1.2C1577.821,543.365,1577.567,543.9,1577.916,544.564Z" fill="#fddbba"/>
          <path id="Path_71612" data-name="Path 71612" d="M1571.125,544.564a2.335,2.335,0,0,0,1.83,1.2c.662,0,.915-.537.567-1.2a2.333,2.333,0,0,0-1.83-1.2C1571.03,543.365,1570.777,543.9,1571.125,544.564Z" fill="#fddbba"/>
          <path id="Path_71613" data-name="Path 71613" d="M1587.034,549.437a2.333,2.333,0,0,0,1.829,1.2c.662,0,.916-.537.567-1.2a2.334,2.334,0,0,0-1.829-1.2C1586.939,548.238,1586.685,548.775,1587.034,549.437Z" fill="#fddbba"/>
          <path id="Path_71614" data-name="Path 71614" d="M1580.483,549.437a2.335,2.335,0,0,0,1.83,1.2c.662,0,.915-.537.567-1.2a2.334,2.334,0,0,0-1.83-1.2C1580.388,548.238,1580.135,548.775,1580.483,549.437Z" fill="#fddbba"/>
          <path id="Path_71615" data-name="Path 71615" d="M1573.693,549.437a2.333,2.333,0,0,0,1.83,1.2c.661,0,.915-.537.567-1.2a2.334,2.334,0,0,0-1.83-1.2C1573.6,548.238,1573.344,548.775,1573.693,549.437Z" fill="#fddbba"/>
        </g>
      </g>
      <path id="Path_71616" data-name="Path 71616" d="M1475.815,622.7h222.151a6.971,6.971,0,0,0,6.971-6.971h0a6.971,6.971,0,0,0-6.971-6.971H1475.815a6.971,6.971,0,0,0-6.971,6.971h0A6.971,6.971,0,0,0,1475.815,622.7Z" fill="#131f2d"/>
      <g id="Group_17354" data-name="Group 17354">
        <path id="Path_71617" data-name="Path 71617" d="M1701.5,741.38H1597.456V678.7H1701.5Zm-102.818-1.223h101.6V679.921h-101.6Z" fill="#b5bfc7"/>
      </g>
      <g id="Group_17355" data-name="Group 17355">
        <path id="Path_71618" data-name="Path 71618" d="M1572.273,741.38h-104.04V678.7h104.04Zm-102.817-1.223H1571.05V679.921H1469.456Z" fill="#b5bfc7"/>
      </g>
      <path id="Path_71619" data-name="Path 71619" d="M1764.236,747.008H1496.2a60.344,60.344,0,0,1-12.056-28.677c-5.124-39.021,10.375-84-15.3-102.6h236.091s35.272,4.925,31.856,63.58C1735.155,707.472,1749.194,730.586,1764.236,747.008Z" fill="#03a1fc"/>
    </g>
    <g id="Group_17363" data-name="Group 17363">
      <rect id="Rectangle_8605" data-name="Rectangle 8605" width="61.829" height="59.983" rx="9.534" transform="translate(1238.317 261.452)" fill="#03a1fc"/>
      <path id="Rectangle_8606" data-name="Rectangle 8606" d="M8.708,0H47.764a8.707,8.707,0,0,1,8.707,8.707V46.078a8.708,8.708,0,0,1-8.708,8.708H8.708A8.708,8.708,0,0,1,0,46.078V8.708A8.708,8.708,0,0,1,8.708,0Z" transform="translate(1240.996 264.051)" fill="#fff"/>
      <g id="Group_17359" data-name="Group 17359">
        <g id="Group_17357" data-name="Group 17357">
          <path id="Path_71620" data-name="Path 71620" d="M1267.95,269.526a1.281,1.281,0,1,1,1.281,1.28A1.281,1.281,0,0,1,1267.95,269.526Z" fill="#03a1fc"/>
          <path id="Path_71621" data-name="Path 71621" d="M1278.285,271.336a1.281,1.281,0,1,1,.5,1.741A1.281,1.281,0,0,1,1278.285,271.336Z" fill="#03a1fc"/>
          <path id="Path_71622" data-name="Path 71622" d="M1287.139,278.37a1.281,1.281,0,1,1-.382,1.77A1.279,1.279,0,0,1,1287.139,278.37Z" fill="#03a1fc"/>
          <path id="Path_71623" data-name="Path 71623" d="M1291.524,289.257a1.281,1.281,0,1,1-1.281,1.281A1.28,1.28,0,0,1,1291.524,289.257Z" fill="#03a1fc"/>
          <path id="Path_71624" data-name="Path 71624" d="M1289.285,301.892a1.281,1.281,0,1,1-1.811,0A1.281,1.281,0,0,1,1289.285,301.892Z" fill="#03a1fc"/>
          <path id="Path_71625" data-name="Path 71625" d="M1281.242,309.955a1.281,1.281,0,1,1-1.811,0A1.28,1.28,0,0,1,1281.242,309.955Z" fill="#03a1fc"/>
          <path id="Path_71626" data-name="Path 71626" d="M1267.95,314.112a1.281,1.281,0,1,1,1.281,1.28A1.281,1.281,0,0,1,1267.95,314.112Z" fill="#03a1fc"/>
        </g>
        <g id="Group_17358" data-name="Group 17358">
          <path id="Path_71627" data-name="Path 71627" d="M1260.137,271.336a1.281,1.281,0,1,0-.5,1.741A1.281,1.281,0,0,0,1260.137,271.336Z" fill="#03a1fc"/>
          <path id="Path_71628" data-name="Path 71628" d="M1251.283,278.37a1.281,1.281,0,1,0,.381,1.77A1.28,1.28,0,0,0,1251.283,278.37Z" fill="#03a1fc"/>
          <path id="Path_71629" data-name="Path 71629" d="M1246.9,289.257a1.281,1.281,0,1,0,1.281,1.281A1.281,1.281,0,0,0,1246.9,289.257Z" fill="#03a1fc"/>
          <path id="Path_71630" data-name="Path 71630" d="M1249.136,301.892a1.281,1.281,0,1,0,1.811,0A1.281,1.281,0,0,0,1249.136,301.892Z" fill="#03a1fc"/>
          <circle id="Ellipse_713" data-name="Ellipse 713" cx="1.281" cy="1.281" r="1.281" transform="translate(1256.804 309.58)" fill="#03a1fc"/>
        </g>
      </g>
      <g id="Group_17362" data-name="Group 17362">
        <path id="Path_71631" data-name="Path 71631" d="M1268.886,290.538a1.281,1.281,0,1,1,1.281,1.28A1.28,1.28,0,0,1,1268.886,290.538Z" fill="#03a1fc"/>
        <g id="Group_17360" data-name="Group 17360">
          <rect id="Rectangle_8607" data-name="Rectangle 8607" width="0.35" height="16" transform="translate(1269.992 274.538)" fill="#03a1fc"/>
        </g>
        <g id="Group_17361" data-name="Group 17361">
          <rect id="Rectangle_8608" data-name="Rectangle 8608" width="10.784" height="1.049" transform="matrix(0.787, -0.618, 0.618, 0.787, 1269.681, 290.103)" fill="#03a1fc"/>
        </g>
      </g>
    </g>
    <g id="Group_17370" data-name="Group 17370">
      <g id="Group_17364" data-name="Group 17364">
        <rect id="Rectangle_8609" data-name="Rectangle 8609" width="18.106" height="87.437" transform="translate(968.725 630.901) rotate(-12.136)" fill="#364154"/>
        <path id="Path_71632" data-name="Path 71632" d="M986.437,627.095c.247,1.145-3.516,2.926-8.4,3.977s-9.051.975-9.3-.171,3.517-2.926,8.4-3.977S986.191,625.949,986.437,627.095Z" fill="#131f2d"/>
      </g>
      <g id="Group_17365" data-name="Group 17365">
        <rect id="Rectangle_8610" data-name="Rectangle 8610" width="18.106" height="87.437" transform="translate(996.894 633.258) rotate(-17.661)" fill="#e8e8e8"/>
        <path id="Path_71633" data-name="Path 71633" d="M1014.163,627.779c.415,1.3-3.111,3.588-7.875,5.1s-8.963,1.69-9.378.388,3.112-3.589,7.876-5.106S1013.748,626.476,1014.163,627.779Z" fill="#e8e8e8"/>
      </g>
      <g id="Group_17366" data-name="Group 17366">
        <rect id="Rectangle_8611" data-name="Rectangle 8611" width="87.437" height="11.839" transform="translate(1064.657 744.059) rotate(-73.778)" fill="#d3d4d8"/>
        <path id="Path_71634" data-name="Path 71634" d="M1100.453,663.429c-.382,1.313-3.236,1.637-6.375.724s-5.374-2.718-4.992-4.031,3.236-1.637,6.375-.723S1100.835,662.117,1100.453,663.429Z" fill="#d3d4d8"/>
      </g>
      <g id="Group_17367" data-name="Group 17367">
        <rect id="Rectangle_8612" data-name="Rectangle 8612" width="90.946" height="11.95" transform="translate(996.878 735.692) rotate(-88.954)" fill="#131f2d"/>
        <path id="Path_71635" data-name="Path 71635" d="M1010.528,645.079c-.022,1.185-2.714,2.1-6.014,2.037s-5.956-1.07-5.934-2.255,2.713-2.1,6.013-2.038S1010.55,643.894,1010.528,645.079Z" fill="#364154"/>
      </g>
      <g id="Group_17368" data-name="Group 17368">
        <rect id="Rectangle_8613" data-name="Rectangle 8613" width="72.408" height="11.489" transform="translate(1058.545 744.63) rotate(-83.703)" fill="#131f2d"/>
        <path id="Path_71636" data-name="Path 71636" d="M1077.939,674c-.1.938-2.744,1.417-5.9,1.069s-5.626-1.391-5.523-2.329,2.744-1.417,5.9-1.069S1078.043,673.064,1077.939,674Z" fill="#364154"/>
      </g>
      <g id="Group_17369" data-name="Group 17369">
        <rect id="Rectangle_8614" data-name="Rectangle 8614" width="90.47" height="74.598" transform="translate(1013.916 698.603)" fill="#026eb7"/>
        <rect id="Rectangle_8615" data-name="Rectangle 8615" width="90.47" height="74.598" transform="translate(968.681 698.603)" fill="#03a1fc"/>
        <path id="Path_71637" data-name="Path 71637" d="M1104.334,754.283H1090l1.263-4.034L1090,747.366h14.336Z" fill="#131f2d"/>
        <path id="Path_71638" data-name="Path 71638" d="M1059.151,721.689h-14.336l1.263-4.034-1.263-2.883h14.336Z" fill="#364154"/>
        <path id="Path_71639" data-name="Path 71639" d="M1059.151,714.772h14.336l-1.263,4.034,1.263,2.883h-14.336Z" fill="#131f2d"/>
        <path id="Path_71640" data-name="Path 71640" d="M968.679,755.083h14.336l-1.263,4.034L983.015,762H968.679Z" fill="#364154"/>
        <rect id="Rectangle_8616" data-name="Rectangle 8616" width="26.034" height="10.128" transform="translate(1000.639 713.789) rotate(180)" fill="#fff"/>
      </g>
    </g>
    <g id="Group_17372" data-name="Group 17372">
      <path id="Path_71641" data-name="Path 71641" d="M1333.7,434.859c-6.853-2.276-11.6.6-11.6.6-19.731.811-21.784,24.3-20.283,32.03s3.717,15.937-3.324,27.412c-20.339,33.147,32.194,26.1,32.194,26.1-3.269-23.373,26.019-19.32,25.171-16.764C1393.04,507.119,1349.286,440.034,1333.7,434.859Z" fill="#131f2d"/>
      <path id="Path_71642" data-name="Path 71642" d="M1313.236,535.767a51.752,51.752,0,0,1-5.275,7.979c-4.1,5.133-25.612-7.052-23.759-7.979s12.664-32.069,15.237-35.983,11.347-5.945,11.347-5.945Z" fill="#657283"/>
      <path id="Path_71643" data-name="Path 71643" d="M1385.833,745.813s5.937,5.419,4.778,9.269-6.516,6.416-7.24,11.122-3.621,7.273-6.228,7.273h-12.427s-1.919-3.312,2.715-4.31,6.382-6.528,6.092-11.661a90.372,90.372,0,0,1,.435-11.978l9.847-2.282Z" fill="#364154"/>
      <path id="Path_71644" data-name="Path 71644" d="M1335.577,748.113s2.137,22.955-.47,24.239l-33.361-.068s0-3.85,5.358-4.706,14.772-3.993,16.365-10.98S1335.577,748.113,1335.577,748.113Z" fill="#364154"/>
      <path id="Path_71645" data-name="Path 71645" d="M1359.35,583.428c-6.865-15.4-11.065-19.814-10.264-24.593.6-3.556-1.817-66.311-1.817-66.311-.815-.252-2.447-.478-3.34-.676a8.372,8.372,0,0,1-6.116-5.32,42.663,42.663,0,0,1-2.076-14.159l-.88.173-14.786,2.928s.337,4.654.347,9.037v.109a8.5,8.5,0,0,1-6.137,8.224c-1.868.539-3.493,1-3.493,1s-5.429,15.5-6.467,31.426,9.874,22.842-.081,54.664C1294.076,612.43,1363.142,591.935,1359.35,583.428Z" fill="#e8e8e8"/>
      <path id="Path_71646" data-name="Path 71646" d="M1320.071,475.47s.337,4.654.347,9.037c8.274-.233,12.647-7.781,14.439-11.965Z" fill="#657283"/>
      <path id="Path_71647" data-name="Path 71647" d="M1319.179,481.653s19.384-2.761,17.478-14.806-.686-20.512-13.142-19.259-14.128,6.229-14.471,10.4S1314.088,482.06,1319.179,481.653Z" fill="#e8e8e8"/>
      <path id="Path_71648" data-name="Path 71648" d="M1314.663,448.7s7.543,13.286,16,14.08,11.634-1.942,11.634-1.942a23.3,23.3,0,0,1-9.69-12.393S1317.584,441.335,1314.663,448.7Z" fill="#131f2d"/>
      <path id="Path_71649" data-name="Path 71649" d="M1316.157,449.634s-3.692,2.092-4.851,5.212a19.708,19.708,0,0,0-.852,11.472s-5.518-8.967-1.9-15.114C1312.387,444.687,1316.157,449.634,1316.157,449.634Z" fill="#131f2d"/>
      <path id="Path_71650" data-name="Path 71650" d="M1361.24,520.284a132.9,132.9,0,0,1,0,15.42c-.331,5.575-5.97,13.042-6.77,14.889-2.008,4.633-4.272,5.387-4.272,5.387l-17.516,4.293-6.159,1.507-19.421-5.8s-8.846-24.691-5.294-38.59a106.854,106.854,0,0,1,8.978-23.551s15.849,15.517,36.484-1.316Z" fill="#657283"/>
      <path id="Path_71651" data-name="Path 71651" d="M1362.908,535.9c-.33,5.575-7.638,12.847-8.438,14.694-2.008,4.633-4.272,5.387-4.272,5.387l-17.516,4.293-4.672-6.589s28.355-7.887,22.985-32.886Z" fill="#364154"/>
      <path id="Path_71652" data-name="Path 71652" d="M1308.337,559.728s-9.618,29.937-10.235,40.129,18.385,144.795,19.149,149.492c.721,4.427,6.218,7.249,6.218,7.249a8.321,8.321,0,0,0,6.137.472c5.006-1.413,6.589-3.106,6.589-3.106s7.486-96,2.853-130.289a543.3,543.3,0,0,1-4.687-63.947Z" fill="#026eb7"/>
      <path id="Path_71653" data-name="Path 71653" d="M1349.086,558.835s14.672,19.685,16.039,32.992,2.146,60.049,5.06,73.021,13.62,37.937,13.62,78.4a8.074,8.074,0,0,1-4.549,3.555,37.5,37.5,0,0,1-4,1.106,6.289,6.289,0,0,1-7.034-3.339c-7.238-14.574-30.294-61.576-31.477-71.333-.836-6.9-8.116-52.6-23.995-79.416-3.813-6.438,2.339-32.039,2.339-32.039Z" fill="#03a1fc"/>
      <path id="Path_71654" data-name="Path 71654" d="M1321.817,473.9s-.108,1.473-3.674,1.816c0,0-2.993.289-3.151-1.285A9.663,9.663,0,0,1,1321.817,473.9Z" fill="#131f2d"/>
      <path id="Path_71655" data-name="Path 71655" d="M1306.8,555.106s3.862,3.054,11.532,3.209c9.162.184,31.865-2.336,31.865-2.336a18.772,18.772,0,0,1,.968,5.795s-27.728,6.993-43.793,1.021C1307.372,562.795,1305.3,558.9,1306.8,555.106Z" fill="#131f2d"/>
      <g id="Group_17371" data-name="Group 17371">
        <path id="Path_71656" data-name="Path 71656" d="M1316.134,566.21a4.768,4.768,0,1,1,4.181-4.732A4.487,4.487,0,0,1,1316.134,566.21Zm0-8.078a3.4,3.4,0,1,0,2.795,3.346A3.112,3.112,0,0,0,1316.134,558.132Z" fill="#fff"/>
      </g>
      <path id="Path_71657" data-name="Path 71657" d="M1336.165,574.817l-41.674.39-20.507-48.193,41.674-.39Z" fill="#d3d4d8"/>
      <path id="Path_71658" data-name="Path 71658" d="M1330.715,553.039l-3.054-3.754a10.74,10.74,0,0,0-3.568-2.157c-1.5-.313-4.667-2.14-4.975-1.626s2.434,4.187,2.434,4.187l.139.02c-3.146,2.367-11.09.277-12.07,1.243-1.189,1.17,1.636,3.7,3.151,5.119s5.848,3.789,9.226,2.738c2.47-.769,6.357-1.551,6.357-1.551Z" fill="#e8e8e8"/>
      <path id="Path_71659" data-name="Path 71659" d="M1277.119,535.491s2.619-2.976,4.285-1.547-.436,8.452-2.023,7.738S1276.206,536.365,1277.119,535.491Z" fill="#e8e8e8"/>
      <path id="Path_71660" data-name="Path 71660" d="M1347.27,492.523s13.9.974,19.223,13.923,15.207,40.56,15.207,44.217-10.906,17.114-53.578,6.712c0,0-1.455-4.1,1.4-6.166,0,0,29.748-9.552,29.7-11.451-.1-3.594-4.02-6.7-20.637-23.322C1334.062,511.917,1347.27,492.523,1347.27,492.523Z" fill="#657283"/>
    </g>
    <g id="Group_17374" data-name="Group 17374">
      <g id="Group_17373" data-name="Group 17373">
        <path id="Path_71661" data-name="Path 71661" d="M1560.089,546.079s-6.478-4.094-9.973-3.782c-4.16.372-7.572.526-7.574,1.633-.007,4.087,4.368,2.579,6.008,4.834,2.149,2.953,7.033,2.213,7.964,2.316a16.142,16.142,0,0,1,3.068,1.068Z" fill="#e8e8e8"/>
        <path id="Path_71662" data-name="Path 71662" d="M1642.143,483.537s29.9,49.466,25.248,58.86-16.019,11.687-16.019,11.687Z" fill="#026eb7"/>
        <path id="Path_71663" data-name="Path 71663" d="M1626.782,758.957s-.7,11.25-2.787,13.9h-32.148c.2-1.122,1.112-3.891,5.133-4.593,5.079-.884,13.582-4.453,16.657-11.167C1616.874,750.03,1626.782,758.957,1626.782,758.957Z" fill="#131f2d"/>
        <path id="Path_71664" data-name="Path 71664" d="M1683.832,757.388s2.77,14.89.018,15.143c-.366.034-13.479.163-16.98.687-5.717.856-16.112-.687-16.112-.687-1.2.05-1.533-1.484-.925-2.514a6.1,6.1,0,0,1,4.367-2.8c5.063-.974,13.5-4.693,16.458-11.459C1673.77,748.638,1683.832,757.388,1683.832,757.388Z" fill="#131f2d"/>
        <path id="Path_71665" data-name="Path 71665" d="M1611.666,609.23s8.083,28.286,31.251,77.405,22.684,74.572,22.684,74.572h19.467s-2.736-62.284-13.68-87.072-13.173-92.619-13.173-92.619Z" fill="#131f2d"/>
        <path id="Path_71666" data-name="Path 71666" d="M1598.688,584.892a705.4,705.4,0,0,0,6.934,97.578c7.579,53.777,3.692,78.737,3.692,78.737h19.5s10.813-55.326,7.7-82.243,14.854-92.365,14.854-92.365Z" fill="#364154"/>
        <path id="Path_71667" data-name="Path 71667" d="M1636.106,480.375l-5.661,9.025-12.47,2.084c-.252-1.113-1.195-5.765-2.047-9.98-.049-.249-.1-.5-.148-.741-.72-3.588-1.336-6.671-1.336-6.671l8.661-9.575,3.229-3.57c.017.075,1.146,3.846,1.314,4.4A36.987,36.987,0,0,0,1636.106,480.375Z" fill="#e8e8e8"/>
        <path id="Path_71668" data-name="Path 71668" d="M1659.024,590.3c.207-11.533-6.662-75-8.786-84.083-3.768-16.069-7.148-25.242-14.312-27.351-2.647-.773-12.394,1.758-19.446,3.8a12.729,12.729,0,0,0-1.451.507,14.934,14.934,0,0,0-8.754,9.591c-1.089,3.655-2.34,8.344-3.353,13.51a97.9,97.9,0,0,0-1.993,17.788c-.064,6.254-.909,15.5-1.866,25.218q-.16,1.62-.323,3.253c-.076.753-1.275,25.549-1.626,32.2,0,.091-.008.179-.012.263a.061.061,0,0,1,0,.027c0,.1-.008.192-.016.28-.032.594-.052.956-.06,1.04C1596.245,594.153,1658.784,603.4,1659.024,590.3Z" fill="#03a1fc"/>
        <path id="Path_71669" data-name="Path 71669" d="M1626.905,465.826c-.592,5.447-7.867,12.8-10.977,15.678-.049-.249-.1-.5-.148-.741-.72-3.588-1.336-6.671-1.336-6.671l8.661-9.575C1625.468,463.549,1627.152,463.584,1626.905,465.826Z" fill="#657283"/>
        <path id="Path_71670" data-name="Path 71670" d="M1608.968,475.509s21.783-1.543,20.613-15.094.855-22.876-13.1-22.463-16.209,5.815-16.919,10.433S1603.272,475.561,1608.968,475.509Z" fill="#e8e8e8"/>
        <path id="Path_71671" data-name="Path 71671" d="M1599.863,446.917s6.771,13.65,9.454,11.893,5.156-3.251,6.4,1.178,1.682,10.762,10.987,7.99,10.59-30.9,6.394-34.334C1620.984,423.746,1583.481,435.473,1599.863,446.917Z" fill="#131f2d"/>
        <path id="Path_71672" data-name="Path 71672" d="M1597.082,585.3c46.422-2.416,36.931-53.921,36.931-53.921l-34.95,17.9q-.16,1.62-.323,3.253c-.076.753-1.275,25.549-1.626,32.2a.951.951,0,0,1-.012.263.061.061,0,0,1,0,.027C1597.094,585.115,1597.09,585.211,1597.082,585.3Z" fill="#026eb7"/>
        <path id="Path_71673" data-name="Path 71673" d="M1520.855,521.653a.352.352,0,1,1-.355.348A.351.351,0,0,1,1520.855,521.653Z" fill="#131f2d"/>
        <path id="Path_71674" data-name="Path 71674" d="M1560.309,544.967s44.1-3.677,47.207-5.191c4.965-2.418,1.6-40.408,1.6-40.408s-3.82-5.7,5.608-7.6c8.193-1.654,16.1,4.483,16.1,4.483s7.19,6.433,6.271,13.568c-2.036,15.816-5.2,47.984-15.782,52.915-13.644,6.359-63.383-9.914-63.383-9.914a12.742,12.742,0,0,1,.671-5.1A12.328,12.328,0,0,1,1560.309,544.967Z" fill="#03a1fc"/>
        <path id="Path_71675" data-name="Path 71675" d="M1614.435,479.2c.271-.114,16.83-5,18.628-4.406s2.865,4.074,2.865,4.074l-25.565,7.282S1610.975,480.654,1614.435,479.2Z" fill="#026eb7"/>
        <path id="Path_71676" data-name="Path 71676" d="M1557.321,544.582s-2.863-3-3.6-3.941-.828.067-.716.626.962,1.97.6,2.283S1556.694,545.769,1557.321,544.582Z" fill="#e8e8e8"/>
      </g>
    </g>
    <rect id="Rectangle_8617" data-name="Rectangle 8617" width="836.863" height="4.66" rx="2.33" transform="translate(934.654 772.394)" fill="#364154"/>
    <g id="wave">
      <g id="Ellipse_3" data-name="Ellipse 3">
        <ellipse id="Ellipse_714" data-name="Ellipse 714" cx="31.5" cy="13" rx="31.5" ry="13" transform="translate(1329.085 324.466)" fill="none"/>
        <ellipse id="Ellipse_715" data-name="Ellipse 715" cx="31" cy="12.5" rx="31" ry="12.5" transform="translate(1329.585 324.966)" fill="none" stroke="#1a9bfc" stroke-width="1"/>
      </g>
      <g id="Ellipse_4" data-name="Ellipse 4" opacity="0.49">
        <ellipse id="Ellipse_716" data-name="Ellipse 716" cx="58.5" cy="24" rx="58.5" ry="24" transform="translate(1302.085 313.466)" fill="none"/>
        <ellipse id="Ellipse_717" data-name="Ellipse 717" cx="58.25" cy="23.75" rx="58.25" ry="23.75" transform="translate(1302.335 313.716)" fill="none" stroke="#1a9bfc" stroke-width="0.5"/>
      </g>
    </g>
    <g id="house1-4">
      <g id="Group_74-4" data-name="Group 74-4">
        <path id="Path_2252-4" data-name="Path 2252-4" d="M1354.522,316.632l16.969,9.808-.038,12.555-9.148,5.17-12.8-7.313.033-12.735Z" fill="#fff"/>
        <path id="Path_2140-4" data-name="Path 2140-4" d="M1354.271,316.038l4.761,2.692,12.815,7.449.023,12.565-.878.5-.024-12.156-3.884-2.225-3.859,6.707.022,12.159-.846.5-5.453-3.094,0-4.951-2.161-1.251,0,4.95-5.264-3.036.01-12.632Zm6.6,17.418-2.162-1.255v2.348l2.161,1.256Zm-.034,4.952-2.13-1.252,0,2.348,2.13,1.252Zm-3.85-7.178-2.162-1.252v2.348l2.161,1.252Zm-3.885-2.222-2.13-1.248,0,2.348,2.13,1.252Zm0,4.919-2.161-1.265,0,2.349,2.162,1.264Z" fill="#1a9bfc"/>
        <path id="Path_2235-4" data-name="Path 2235-4" d="M1366.045,332.231l0,2.511,2.165-1.256v-2.512Z" fill="#1a9bfc"/>
        <path id="Path_2236-4" data-name="Path 2236-4" d="M1366.073,337.165l0,2.406,2.136-1.169v-2.476Z" fill="#1a9bfc"/>
      </g>
    </g>
    <g id="house1-6">
      <g id="Group_74-6" data-name="Group 74-6">
        <path id="Path_2252-6" data-name="Path 2252-6" d="M1124.067,323.6l.033,12.734-12.8,7.314-9.149-5.17-.037-12.555,16.968-9.808Z" fill="#fff"/>
        <path id="Path_2140-6" data-name="Path 2140-6" d="M1124.075,323.706l.009,12.632-5.263,3.036,0-4.95-2.162,1.251,0,4.951-5.452,3.093-.846-.5.022-12.159-3.86-6.708-3.883,2.226-.024,12.155-.878-.5.023-12.566,12.814-7.448,4.762-2.692Zm-11.338,11.585,2.162-1.256,0-2.348-2.162,1.255Zm.034,4.951,2.13-1.252v-2.348l-2.13,1.252Zm3.851-7.178,2.161-1.252,0-2.348-2.161,1.252Zm3.884-2.218,2.13-1.252v-2.348l-2.13,1.248Zm0,4.915,2.161-1.264,0-2.349-2.161,1.265Z" fill="#1a9bfc"/>
        <path id="Path_2235-6" data-name="Path 2235-6" d="M1105.4,330.46v2.511l2.165,1.257,0-2.511Z" fill="#1a9bfc"/>
        <path id="Path_2236-6" data-name="Path 2236-6" d="M1105.4,335.412v2.476l2.135,1.169,0-2.406Z" fill="#1a9bfc"/>
      </g>
    </g>
    <g id="house1-6-2" data-name="house1-6">
      <g id="Group_74-6-2" data-name="Group 74-6">
        <path id="Path_2252-6-2" data-name="Path 2252-6" d="M1434.062,423.9l.033,12.735-12.8,7.313-9.149-5.17-.038-12.555,16.969-9.807Z" fill="#fff"/>
        <path id="Path_2140-6-2" data-name="Path 2140-6" d="M1434.07,424.007l.01,12.633-5.264,3.036,0-4.951-2.162,1.252,0,4.95-5.453,3.094-.846-.5.022-12.158-3.859-6.708-3.884,2.225-.023,12.156-.879-.5.023-12.566,12.815-7.448,4.762-2.692Zm-11.337,11.585,2.162-1.255,0-2.349-2.162,1.256Zm.034,4.951,2.13-1.251,0-2.349-2.13,1.252Zm3.85-7.177,2.161-1.253v-2.348l-2.162,1.252Zm3.885-2.218,2.13-1.252,0-2.349-2.13,1.248Zm0,4.915,2.162-1.265,0-2.348-2.161,1.264Z" fill="#1a9bfc"/>
        <path id="Path_2235-6-2" data-name="Path 2235-6" d="M1415.4,430.762v2.511l2.165,1.256,0-2.511Z" fill="#1a9bfc"/>
        <path id="Path_2236-6-2" data-name="Path 2236-6" d="M1415.4,435.714v2.475l2.136,1.169,0-2.406Z" fill="#1a9bfc"/>
      </g>
    </g>
    <g id="cloud-2">
      <path id="Path_2241-2" data-name="Path 2241-2" d="M1585.749,275.681a9.936,9.936,0,0,0-2.481.312,11.931,11.931,0,0,0-22.23-.643,8.24,8.24,0,0,0-3.052-.582,8.384,8.384,0,0,0-8.335,7.483,6.807,6.807,0,0,0,1.059,13.533h35.039a10.052,10.052,0,0,0,0-20.1Z" fill="#1a9bfc"/>
    </g>
    <g id="cloud-2-2" data-name="cloud-2">
      <path id="Path_2241-2-2" data-name="Path 2241-2" d="M1538.082,231.576a4.186,4.186,0,0,0,4.181,4.191h14.592a2.835,2.835,0,0,0,.441-5.636,3.491,3.491,0,0,0-3.471-3.116,3.414,3.414,0,0,0-1.271.242,4.969,4.969,0,0,0-9.258.268,4.1,4.1,0,0,0-1.033-.13A4.185,4.185,0,0,0,1538.082,231.576Z" fill="#1a9bfc"/>
    </g>
    <g id="wave-5">
      <g id="Ellipse_3-5" data-name="Ellipse 3-5">
        <ellipse id="Ellipse_718" data-name="Ellipse 718" cx="31.5" cy="13" rx="31.5" ry="13" transform="translate(1668.162 459.434)" fill="none"/>
        <ellipse id="Ellipse_719" data-name="Ellipse 719" cx="31" cy="12.5" rx="31" ry="12.5" transform="translate(1668.662 459.934)" fill="none" stroke="#1a9bfc" stroke-width="1"/>
      </g>
      <g id="Ellipse_4-5" data-name="Ellipse 4-5" opacity="0.49">
        <ellipse id="Ellipse_720" data-name="Ellipse 720" cx="58.5" cy="24" rx="58.5" ry="24" transform="translate(1641.162 448.434)" fill="none"/>
        <ellipse id="Ellipse_721" data-name="Ellipse 721" cx="58.25" cy="23.75" rx="58.25" ry="23.75" transform="translate(1641.412 448.684)" fill="none" stroke="#1a9bfc" stroke-width="0.5"/>
      </g>
    </g>
    <g id="house1-11">
      <g id="Group_74-11" data-name="Group 74-11">
        <path id="Path_2252-11" data-name="Path 2252-11" d="M1694.8,448.373l16.76,9.944-.111,12.85-9.1,5.349-12.645-7.408.113-13.042Z" fill="#fff"/>
        <path id="Path_2140-11" data-name="Path 2140-11" d="M1694.258,448.3,1699.02,451l12.819,7.45.02,12.56-.879.5-.023-12.154-3.885-2.221-3.859,6.708.022,12.157-.846.5-5.453-3.094,0-4.951-2.162-1.251,0,4.951-5.264-3.037.01-12.632Zm6.6,17.418-2.166-1.257,0,2.349,2.162,1.255Zm-.034,4.951-2.13-1.252,0,2.348,2.13,1.252Zm-3.85-7.178-2.162-1.252,0,2.348,2.162,1.253Zm-3.886-2.222-2.13-1.252v2.348l2.13,1.252Zm0,4.919-2.161-1.264,0,2.348,2.161,1.264Z" fill="#1a9bfc"/>
        <path id="Path_2235-11" data-name="Path 2235-11" d="M1706.033,464.5l0,2.511,2.163-1.257,0-2.51Z" fill="#1a9bfc"/>
        <path id="Path_2236-11" data-name="Path 2236-11" d="M1706.06,469.432l-.005,2.406,2.135-1.169,0-2.476Z" fill="#1a9bfc"/>
      </g>
    </g>
    <g id="message-16">
      <g id="Group_65-16" data-name="Group 65-16">
        <g id="Group_17376" data-name="Group 17376">
          <g id="Group_17375" data-name="Group 17375" clip-path="url(#clip-path)">
            <g id="Group_64-16" data-name="Group 64-16">
              <path id="Path_2116-16" data-name="Path 2116-16" d="M1135.645,303.181l11.019-7.627-6.652-4.163-3.01,3.562-8.284,9.489,4.922-11.593,1.8-4.317-6.652-4.163-2.043,13.245-2.109,13.354Z" fill="#1a9bfc" fill-rule="evenodd"/>
            </g>
          </g>
        </g>
      </g>
    </g>
    <g id="message-16-2" data-name="message-16">
      <g id="Group_65-16-2" data-name="Group 65-16">
        <g id="Group_17378" data-name="Group 17378">
          <g id="Group_17377" data-name="Group 17377" clip-path="url(#clip-path-2)">
            <g id="Group_64-16-2" data-name="Group 64-16">
              <path id="Path_2116-16-2" data-name="Path 2116-16" d="M1694.321,437.993l1.478-6.78,1.489-6.716-3.957.752.059,2.4.195,6.462-2.195-6.082-.776-2.264-3.958.752,3.851,5.7Z" fill="#1a9bfc" fill-rule="evenodd"/>
            </g>
          </g>
        </g>
      </g>
    </g>
    <g id="message-16-3" data-name="message-16">
      <g id="Group_65-16-3" data-name="Group 65-16">
        <g id="Group_17380" data-name="Group 17380">
          <g id="Group_17379" data-name="Group 17379" clip-path="url(#clip-path-3)">
            <g id="Group_64-16-3" data-name="Group 64-16">
              <path id="Path_2116-16-3" data-name="Path 2116-16" d="M1568.005,308.644l-5.726,12.247-5.719,12.119,7.842.273.921-4.586,2.409-12.363,1.555,12.5.5,4.636,7.842.273-4.863-12.488Z" fill="#1a9bfc" fill-rule="evenodd"/>
            </g>
          </g>
        </g>
      </g>
    </g>
    <path id="Path_71677" data-name="Path 71677" d="M1540.931,221.728s-223.1-99.388-403.04,67.765" fill="none" stroke="#1a9bfc" stroke-linecap="round" stroke-width="1.5" stroke-dasharray="0.1 5"/>
    <path id="Path_71678" data-name="Path 71678" d="M1565.926,337.466s-2.973,138.309-186.785,201.486" fill="none" stroke="#1a9bfc" stroke-linecap="round" stroke-width="1.5" stroke-dasharray="0.1 5"/>
    <path id="Path_71679" data-name="Path 71679" d="M1603.6,296.112s68.493,27.433,87.01,127.743" fill="none" stroke="#1a9bfc" stroke-linecap="round" stroke-width="1.5" stroke-dasharray="0.1 5"/>
    <g id="message-16-4" data-name="message-16">
      <g id="Group_65-16-4" data-name="Group 65-16">
        <g id="Group_17382" data-name="Group 17382">
          <g id="Group_17381" data-name="Group 17381" clip-path="url(#clip-path-4)">
            <g id="Group_64-16-4" data-name="Group 64-16">
              <path id="Path_2116-16-4" data-name="Path 2116-16" d="M1389.465,301.691l6.77-1.218-2.221-3.36-2.164,1.023-5.89,2.67,4.767-4.368,1.761-1.633-2.221-3.36-3.773,5.752-3.827,5.789Z" fill="#1a9bfc" fill-rule="evenodd"/>
            </g>
          </g>
        </g>
      </g>
    </g>
    <path id="Path_71680" data-name="Path 71680" d="M1547.612,269.015s-67.436-29.938-152.226,26.769" fill="none" stroke="#1a9bfc" stroke-linecap="round" stroke-width="1.5" stroke-dasharray="0.1 5"/>
    <g id="message-16-5" data-name="message-16">
      <g id="Group_65-16-5" data-name="Group 65-16">
        <g id="Group_17384" data-name="Group 17384">
          <g id="Group_17383" data-name="Group 17383" clip-path="url(#clip-path-5)">
            <g id="Group_64-16-5" data-name="Group 64-16">
              <path id="Path_2116-16-5" data-name="Path 2116-16" d="M1439.069,401.112l4.7-5.021-3.789-1.368-1.124,2.114-3.128,5.659,1.213-6.35.437-2.362-3.789-1.367.411,6.867.389,6.928Z" fill="#1a9bfc" fill-rule="evenodd"/>
            </g>
          </g>
        </g>
      </g>
    </g>
    <path id="Path_71681" data-name="Path 71681" d="M1546.367,280.425s-71.965,16.282-106.079,112.413" fill="none" stroke="#1a9bfc" stroke-linecap="round" stroke-width="1.5" stroke-dasharray="0.1 5"/>
  </g>
</svg>
