<svg xmlns="http://www.w3.org/2000/svg" width="116" height="43.925" viewBox="0 0 116 43.925">
  <g id="Group_10367" data-name="Group 10367" transform="translate(-47.676 -5783)">
    <path id="Path_2102" data-name="Path 2102" d="M457.693-639.338v20.415h-4.978v-20.409Z" transform="translate(-329.017 6422.484)" fill="#f6f9fc"/>
    <path id="Path_2103" data-name="Path 2103" d="M691.1-383.334a4.934,4.934,0,0,1-4.064,3.76c-.653.14-1.312.252-1.968.377h-2.436c-.559-.125-1.122-.231-1.676-.377a6.475,6.475,0,0,1-3.77-2.654l2.917-1.887a4.6,4.6,0,0,0,2.26,1.7,5.592,5.592,0,0,0,3.079.079,2.067,2.067,0,0,0,.668-.33.76.76,0,0,0-.123-1.388,20.579,20.579,0,0,0-2.448-.642c-.974-.227-1.969-.375-2.927-.652a3.888,3.888,0,0,1-2.921-3.208,4.432,4.432,0,0,1,1.623-4.408,6.394,6.394,0,0,1,4.195-1.4,7.987,7.987,0,0,1,5.4,1.482,11.831,11.831,0,0,1,1.161,1.262l-2.942,1.74a4.1,4.1,0,0,0-3.917-1.346,1.3,1.3,0,0,0-.742.263,1.4,1.4,0,0,0-.405.877.881.881,0,0,0,.553.618c.856.216,1.741.313,2.6.5a23.715,23.715,0,0,1,2.622.677,4.433,4.433,0,0,1,3.228,3.182" transform="translate(-527.428 6206.122)" fill="#f6f9fc"/>
    <path id="Path_2104" data-name="Path 2104" d="M168.243-414.669c-.5-.121-1.006-.222-1.5-.366a2.754,2.754,0,0,1-2.193-2.784c-.062-2.522-.06-5.046-.084-7.569,0-.249,0-.5,0-.808h-2.051v-3.256c.542,0,1.1-.032,1.644.009s.726-.111.746-.693c.05-1.45.193-2.9.3-4.384h4.37v5.052h2.386v3.234h-2.339c-.011.252-.028.457-.028.662,0,1.942.043,3.885-.017,5.825-.049,1.586.9,1.693,1.92,1.582.186-.02.368-.071.631-.123,0,1.07.01,2.074-.015,3.077,0,.1-.205.246-.338.279-.443.11-.9.178-1.346.262Z" transform="translate(-72.427 6241.593)" fill="#f6f9fc"/>
    <path id="Path_2105" data-name="Path 2105" d="M-194.865-437.036v14.295h-1.927c-.677,0-1.353-.011-2.029,0-.318.007-.475-.106-.452-.435.007-.1,0-.194,0-.291q0-9.494,0-18.988c0-.752,0-.752.763-.753,2.358,0,4.716.012,7.074-.011a.675.675,0,0,1,.763.572c.938,2.9,1.9,5.8,2.857,8.7.053.161.123.317.237.61.4-1.223.759-2.315,1.107-3.41.631-1.988,1.253-3.979,1.882-5.967.08-.251.125-.5.512-.5,2.57.02,5.141.016,7.711.022a.665.665,0,0,1,.149.049v20.367h-5.7v-14.336l-.151-.025c-.243.76-.489,1.519-.728,2.28-1.2,3.832-2.415,7.661-3.593,11.5a.738.738,0,0,1-.895.628,19.926,19.926,0,0,0-2.144,0,.656.656,0,0,1-.776-.55c-1.436-4.448-2.9-8.886-4.361-13.327-.052-.157-.117-.309-.176-.463Z" transform="translate(247.265 6249.273)" fill="#f6f9fc"/>
    <path id="Path_2106" data-name="Path 2106" d="M264.978-422.316h-4.927V-442.7h4.9v8.087c.37-.312.608-.51.842-.712a6,6,0,0,1,3.644-1.719,3.93,3.93,0,0,1,4.338,4.126c.008,3.36,0,6.72,0,10.079,0,.154,0,.308,0,.509h-4.935c-.013-.224-.036-.448-.037-.672,0-2.563,0-5.127-.006-7.69a13.808,13.808,0,0,0-.086-1.45,1.439,1.439,0,0,0-2.136-1.251,6.38,6.38,0,0,0-1.435,1.064,1.067,1.067,0,0,0-.161.7c-.01,2.855-.006,5.71-.006,8.565Z" transform="translate(-158.727 6248.818)" fill="#f6f9fc"/>
    <path id="Path_2107" data-name="Path 2107" d="M110.114-587.877l-2.933,1.726a4.242,4.242,0,0,0-4.253-1.273,1,1,0,0,0-.885,1c0,.521.415.7.857.788,1.266.238,2.562.368,3.792.727a10.573,10.573,0,0,1,2.973,1.339c2.2,1.5,1.815,5.562-.624,6.945a8.17,8.17,0,0,1-3.348,1.01,12.091,12.091,0,0,1-5.263-.4,6.513,6.513,0,0,1-3.213-2.484l2.926-1.889a4,4,0,0,0,2.428,1.732,6.529,6.529,0,0,0,2.8.09,2.054,2.054,0,0,0,.774-.362.765.765,0,0,0-.128-1.387c-.905-.306-1.854-.484-2.787-.7-.841-.2-1.7-.345-2.529-.578a3.934,3.934,0,0,1-3.012-3.391,4.409,4.409,0,0,1,1.744-4.311,7.328,7.328,0,0,1,5.488-1.3,6.989,6.989,0,0,1,4.016,1.449A14.308,14.308,0,0,1,110.114-587.877Z" transform="translate(-14.8 6379.49)" fill="#f6f9fc"/>
    <path id="Path_2108" data-name="Path 2108" d="M229.7-630.336h4.34c.016.219.044.423.045.627,0,1.126,0,2.252,0,3.378.008,1.2-.1.984,1.031,1.006.422.009.844,0,1.311,0v3.277h-2.3c-.017.314-.04.56-.041.806q0,2.737,0,5.474c0,1.545.449,1.939,1.961,1.734.152-.021.307-.025.547-.043,0,1.028.01,2.045-.017,3.061,0,.1-.23.251-.369.271a12.06,12.06,0,0,1-4.825-.1,3.035,3.035,0,0,1-2.288-3.231c-.015-2.388,0-4.775-.005-7.163v-.783h-2.057v-3.3h1.6c.739,0,.75-.016.8-.777C229.514-627.489,229.6-628.88,229.7-630.336Z" transform="translate(-129.54 6414.534)" fill="#f6f9fc"/>
    <path id="Path_2109" data-name="Path 2109" d="M-188.754-640.034c-.581-.178-1.189-.266-1.836-.407l-11.393-.152v20.618h5.8v-7.944c.352,0,.621.01.89,0a52.2,52.2,0,0,0,5.254-.266c3.015-.438,5.391-2.192,5.482-5.826A5.767,5.767,0,0,0-188.754-640.034Zm-3.5,8.063a25.4,25.4,0,0,1-3.616.212c-.107,0-.31-.262-.318-.411-.035-.676-.015-1.356-.015-2.034,0-.64.014-1.279-.006-1.918-.01-.337.091-.513.449-.5,1.04.032,2.084.008,3.119.1a2.154,2.154,0,0,1,2.015,2.217A2.059,2.059,0,0,1-192.252-631.972Z" transform="translate(249.66 6423.594)" fill="#f6f9fc"/>
    <path id="Path_2110" data-name="Path 2110" d="M545.794-442.813v7.587c-.189-.163-.276-.234-.359-.31a4.958,4.958,0,0,0-8.068,1.423,10.394,10.394,0,0,0-.313,8.664,5.257,5.257,0,0,0,2.464,2.9,12.586,12.586,0,0,0,1.5.558h1.276a10.467,10.467,0,0,0,3.547-1.737c.021-.015.07.011.15.025.02.42.041.851.062,1.287h4.763v-20.395Zm.026,15.471c0,.247-.01.494-.021.741a1.211,1.211,0,0,1-.368.781c-1.489,1.287-3.147.819-3.63-1.08a10.616,10.616,0,0,1,.127-5.618,1.858,1.858,0,0,1,1.6-1.547,2.4,2.4,0,0,1,2.168,1.1.949.949,0,0,1,.115.545c.011.951,0,1.9.005,2.852C545.816-428.827,545.83-428.084,545.82-427.342Z" transform="translate(-402.862 6248.917)" fill="#f6f9fc"/>
    <path id="Path_2111" data-name="Path 2111" d="M28.611-382.829a2.946,2.946,0,0,1-1.76-3.083h9.774c.049-.106.08-.141.078-.176-.02-.484-.021-.971-.071-1.452-.251-2.422-1.106-4.51-3.294-5.824a7.758,7.758,0,0,0-3.983-1.03,7.247,7.247,0,0,0-6.557,3.105,8.321,8.321,0,0,0-1.216,5.444,6.8,6.8,0,0,0,5.106,6.251c.5.129,1,.241,1.5.361h1.972a5.058,5.058,0,0,1,.548-.136,8.21,8.21,0,0,0,5.963-3.768l-3.217-1.46C31.924-382.3,29.986-382.233,28.611-382.829Zm-.548-8.329a2.11,2.11,0,0,1,2.307-.051,2.6,2.6,0,0,1,1.093,2.535H26.991A2.532,2.532,0,0,1,28.063-391.158Z" transform="translate(52.083 6206.156)" fill="#f6f9fc"/>
    <path id="Path_2112" data-name="Path 2112" d="M409.6-390.065c-1.241-3-3.754-4.232-6.889-4.271a7.062,7.062,0,0,0-6.641,3.458,8.393,8.393,0,0,0-.988,5.155,6.8,6.8,0,0,0,5.163,6.2c.48.123.964.23,1.446.345h1.856c.182-.046.362-.106.547-.137a6.8,6.8,0,0,0,4.4-2.332A7.874,7.874,0,0,0,409.6-390.065Zm-4.9,6.075a2,2,0,0,1-2.06,1.541,1.984,1.984,0,0,1-2.025-1.5,3.618,3.618,0,0,1-.21-.779c-.08-.69-.127-1.383-.212-2.364a19.712,19.712,0,0,1,.438-2.511,2.052,2.052,0,0,1,2.845-1.375,1.949,1.949,0,0,1,1.235,1.432A10.282,10.282,0,0,1,404.7-383.99Z" transform="translate(-278.035 6206.104)" fill="#f6f9fc"/>
    <path id="Path_2113" data-name="Path 2113" d="M-29.246-587.447c-2.181-3.314-6.917-3.961-10.219-2.3-4.31,2.17-4.631,8.061-2.555,11.181,1.516,2.28,3.781,3.05,6.386,3.07a7.95,7.95,0,0,0,4.013-.922C-27.662-578.5-27.057-584.122-29.246-587.447Zm-4.257,6.969a2.006,2.006,0,0,1-1.948,1.743,1.948,1.948,0,0,1-2.25-1.629,10.047,10.047,0,0,1,.019-5.44,2,2,0,0,1,2.026-1.584,2.018,2.018,0,0,1,2.09,1.575,3.92,3.92,0,0,1,.192.783c.005.048.011.1.017.158.027.252.051.508.075.777.055.607.1,1.212.1,1.212s-.064.684-.16,1.391c-.032.253-.07.51-.118.767C-33.47-580.639-33.486-580.555-33.5-580.478Z" transform="translate(109.368 6379.465)" fill="#f6f9fc"/>
    <path id="Path_2114" data-name="Path 2114" d="M330.557-579.4c-.049-2.386-.011-4.775-.016-7.163a3.456,3.456,0,0,0-2.746-3.724,11.98,11.98,0,0,0-5.44-.309,5.534,5.534,0,0,0-3.494,1.76,3.544,3.544,0,0,0-.943,2.067l4.047.858c.678-1.9,1.725-1.9,2.8-1.626.948.246,1.106.843.888,2.554-.739.057-1.487.087-2.228.179a9.35,9.35,0,0,0-4.491,1.522,4.215,4.215,0,0,0-1.652,4.476,3.617,3.617,0,0,0,3.072,3.071,6.046,6.046,0,0,0,4.82-1.095c.181-.126.364-.249.574-.393l.243,1.231h4.887C330.761-577.145,330.58-578.271,330.557-579.4Zm-4.853-.348a.425.425,0,0,1-.112.306,2.7,2.7,0,0,1-2.462.65,1.466,1.466,0,0,1-1.065-1.188,1.61,1.61,0,0,1,.629-1.642,5.776,5.776,0,0,1,3.015-.938C325.71-581.56,325.713-580.654,325.7-579.748Z" transform="translate(-209.22 6379.592)" fill="#f6f9fc"/>
  </g>
</svg>
