<svg id="Group_10446" data-name="Group 10446" xmlns="http://www.w3.org/2000/svg" width="126.047" height="47.727" viewBox="0 0 126.047 47.727">
  <path id="Path_2102" data-name="Path 2102" d="M1238.271,135.82V158h-5.409V135.827Z" transform="translate(-1150.251 -135.661)" fill="#009bff"/>
  <path id="Path_2103" data-name="Path 2103" d="M1267.925,169.71a5.359,5.359,0,0,1-4.415,4.084c-.71.148-1.424.275-2.138.41h-2.643c-.606-.135-1.219-.251-1.82-.41a7.034,7.034,0,0,1-4.1-2.883l3.17-2.056a5,5,0,0,0,2.455,1.853,6.081,6.081,0,0,0,3.346.085,2.256,2.256,0,0,0,.727-.358.827.827,0,0,0,.331-1.12.836.836,0,0,0-.466-.389,22.256,22.256,0,0,0-2.659-.7c-1.058-.247-2.139-.406-3.18-.707a4.225,4.225,0,0,1-3.173-3.485,4.814,4.814,0,0,1,1.762-4.79,6.945,6.945,0,0,1,4.552-1.516,8.68,8.68,0,0,1,5.875,1.614,12.817,12.817,0,0,1,1.261,1.371l-3.2,1.891a4.449,4.449,0,0,0-4.258-1.469,1.407,1.407,0,0,0-.806.287,1.517,1.517,0,0,0-.44.953.956.956,0,0,0,.6.672c.929.234,1.891.339,2.83.545a25.648,25.648,0,0,1,2.849.734,4.818,4.818,0,0,1,3.507,3.458" transform="translate(-1141.878 -126.48)" fill="#009bff"/>
  <path id="Path_2104" data-name="Path 2104" d="M1213.393,175.7c-.542-.131-1.092-.241-1.63-.4a3,3,0,0,1-2.382-3.025c-.067-2.74-.064-5.483-.091-8.224v-.88h-2.229v-3.538c.588,0,1.191-.035,1.786.01s.788-.121.811-.752c.054-1.576.21-3.149.328-4.764h4.749v5.49h2.592v3.514h-2.541c-.011.273-.03.5-.031.72,0,2.11.047,4.221-.018,6.329-.056,1.723.974,1.839,2.087,1.719.2-.023.4-.078.686-.133,0,1.163.01,2.254-.017,3.343,0,.108-.223.267-.366.3-.483.119-.974.194-1.469.285Z" transform="translate(-1161.079 -127.977)" fill="#009bff"/>
  <path id="Path_2105" data-name="Path 2105" d="M1179.71,160.072V175.6h-2.094c-.734,0-1.469-.011-2.2,0-.345.007-.515-.115-.49-.473V154.184c0-.816,0-.818.829-.818,2.563,0,5.125.013,7.686-.013a.735.735,0,0,1,.828.622c1.019,3.155,2.066,6.3,3.1,9.449.057.175.134.345.257.663.432-1.33.825-2.516,1.2-3.705.686-2.161,1.361-4.323,2.044-6.484.087-.273.136-.547.557-.542,2.79.023,5.581.018,8.379.024a.745.745,0,0,1,.162.053v22.13h-6.19V159.989l-.165-.027c-.264.825-.531,1.651-.791,2.477-1.307,4.163-2.625,8.325-3.9,12.5a.8.8,0,0,1-.895.7.666.666,0,0,1-.077-.014,22.022,22.022,0,0,0-2.331,0,.715.715,0,0,1-.838-.564l-.006-.034c-1.56-4.833-3.155-9.655-4.739-14.479-.055-.17-.128-.335-.19-.5Z" transform="translate(-1174.568 -128.306)" fill="#009bff"/>
  <path id="Path_2106" data-name="Path 2106" d="M1221.1,175.547h-5.354V153.4h5.325v8.786c.4-.339.662-.554.916-.774a6.518,6.518,0,0,1,3.964-1.867,4.277,4.277,0,0,1,4.715,4.483c.008,3.65,0,7.3,0,10.951v.552H1225.3c-.013-.244-.04-.487-.04-.734v-8.356a14.979,14.979,0,0,0-.092-1.576,1.564,1.564,0,0,0-2.32-1.36,6.928,6.928,0,0,0-1.56,1.157,1.165,1.165,0,0,0-.175.76c-.011,3.1,0,6.2,0,9.306Z" transform="translate(-1157.436 -128.283)" fill="#009bff"/>
  <path id="Path_2107" data-name="Path 2107" d="M1215.28,143.206l-3.187,1.875a4.609,4.609,0,0,0-4.621-1.383,1.091,1.091,0,0,0-.963,1.089c0,.566.451.765.931.856,1.376.258,2.79.4,4.121.791a11.449,11.449,0,0,1,3.229,1.454c2.388,1.627,1.972,6.042-.678,7.546a8.869,8.869,0,0,1-3.637,1.1,13.124,13.124,0,0,1-5.719-.44,7.085,7.085,0,0,1-3.49-2.7l3.179-2.056a4.359,4.359,0,0,0,2.644,1.883,7.113,7.113,0,0,0,3.041.1,2.235,2.235,0,0,0,.842-.393.831.831,0,0,0-.148-1.508c-.984-.331-2.014-.525-3.027-.765-.916-.216-1.846-.373-2.749-.628a4.275,4.275,0,0,1-3.273-3.684,4.79,4.79,0,0,1,1.9-4.684,7.959,7.959,0,0,1,5.963-1.414,7.6,7.6,0,0,1,4.363,1.574A15.767,15.767,0,0,1,1215.28,143.206Z" transform="translate(-1163.51 -133.849)" fill="#009bff"/>
  <path id="Path_2108" data-name="Path 2108" d="M1215.694,136.625h4.715c.017.237.047.46.048.681v3.671c.009,1.3-.114,1.069,1.12,1.093.459.009.917,0,1.425,0v3.561h-2.5c-.017.341-.044.608-.044.88v5.948c0,1.679.488,2.107,2.131,1.884.166-.021.334-.026.595-.047,0,1.116.011,2.222-.019,3.326,0,.106-.248.274-.4.294a13.1,13.1,0,0,1-5.243-.114,3.3,3.3,0,0,1-2.486-3.511c-.016-2.594,0-5.188,0-7.783v-.85H1212.8v-3.582h1.739c.8,0,.815-.018.865-.845C1215.5,139.717,1215.6,138.207,1215.694,136.625Z" transform="translate(-1158.668 -135.323)" fill="#009bff"/>
  <path id="Path_2109" data-name="Path 2109" d="M1189.048,136.316c-.632-.195-1.292-.294-2-.442l-12.38-.166v22.4h6.315V149.48c.382,0,.676.01.967,0q2.86,0,5.707-.294c3.277-.476,5.858-2.382,5.957-6.329A6.265,6.265,0,0,0,1189.048,136.316Zm-3.8,8.761a27.769,27.769,0,0,1-3.93.23c-.116,0-.337-.285-.345-.44-.038-.735-.017-1.469-.017-2.21,0-.694.016-1.391,0-2.084-.011-.366.1-.558.488-.547,1.129.036,2.264.01,3.389.105a2.34,2.34,0,0,1,2.189,2.409,2.237,2.237,0,0,1-1.767,2.537Z" transform="translate(-1174.672 -135.708)" fill="#009bff"/>
  <path id="Path_2110" data-name="Path 2110" d="M1250.645,153.39v8.244c-.206-.179-.294-.254-.389-.338a5.386,5.386,0,0,0-8.766,1.546,11.293,11.293,0,0,0-.341,9.412,5.714,5.714,0,0,0,2.678,3.15,13.756,13.756,0,0,0,1.628.606h1.385a11.375,11.375,0,0,0,3.853-1.887c.023-.017.077.011.163.027l.068,1.4h5.174V153.391Zm.029,16.809c0,.268-.012.537-.023.806a1.319,1.319,0,0,1-.4.849,2.237,2.237,0,0,1-3.944-1.176,11.527,11.527,0,0,1,.138-6.1,2.018,2.018,0,0,1,1.739-1.681,2.612,2.612,0,0,1,2.348,1.194,1.021,1.021,0,0,1,.125.588c.013,1.028,0,2.066,0,3.1C1250.669,168.586,1250.685,169.393,1250.673,170.2Z" transform="translate(-1147.136 -128.287)" fill="#009bff"/>
  <path id="Path_2111" data-name="Path 2111" d="M1202.226,170.294a3.2,3.2,0,0,1-1.909-3.35h10.612c.052-.115.086-.146.084-.19-.021-.527-.021-1.055-.075-1.579a7.722,7.722,0,0,0-3.579-6.328,8.427,8.427,0,0,0-4.327-1.12,7.881,7.881,0,0,0-7.126,3.377,9.05,9.05,0,0,0-1.322,5.916,7.4,7.4,0,0,0,5.548,6.793c.542.146,1.087.263,1.631.392h2.142a5.41,5.41,0,0,1,.595-.146,8.924,8.924,0,0,0,6.48-4.094l-3.5-1.587A4.089,4.089,0,0,1,1202.226,170.294Zm-.595-9.049a2.292,2.292,0,0,1,2.507-.057,2.828,2.828,0,0,1,1.187,2.756h-4.858A2.747,2.747,0,0,1,1201.631,161.245Z" transform="translate(-1166.343 -126.478)" fill="#009bff"/>
  <path id="Path_2112" data-name="Path 2112" d="M1243.566,162.372a7.487,7.487,0,0,0-7.489-4.64,7.672,7.672,0,0,0-7.215,3.758,9.123,9.123,0,0,0-1.073,5.6,7.381,7.381,0,0,0,5.611,6.734c.521.133,1.048.25,1.572.375h2.016c.2-.05.393-.116.588-.148a7.389,7.389,0,0,0,4.781-2.534A8.558,8.558,0,0,0,1243.566,162.372Zm-5.319,6.609a2.319,2.319,0,0,1-4.441.048,3.893,3.893,0,0,1-.229-.848c-.087-.748-.138-1.5-.23-2.568a21.406,21.406,0,0,1,.475-2.729,2.231,2.231,0,0,1,2.7-1.627,2.265,2.265,0,0,1,.383.133,2.12,2.12,0,0,1,1.343,1.556,11.185,11.185,0,0,1,0,6.027Z" transform="translate(-1152.411 -126.475)" fill="#009bff"/>
  <path id="Path_2113" data-name="Path 2113" d="M1204.009,143.631c-2.37-3.6-7.515-4.3-11.1-2.5-4.684,2.357-5.031,8.758-2.777,12.148a7.756,7.756,0,0,0,6.938,3.336,8.633,8.633,0,0,0,4.361-1C1205.731,153.355,1206.389,147.242,1204.009,143.631Zm-4.625,7.571a2.178,2.178,0,0,1-2.115,1.894,2.117,2.117,0,0,1-2.44-1.733l-.006-.035a10.921,10.921,0,0,1,.021-5.913,2.317,2.317,0,0,1,4.475-.01,4.254,4.254,0,0,1,.207.852,1.679,1.679,0,0,0,.02.172c.03.274.055.552.081.845.058.659.111,1.322.111,1.322s-.07.743-.173,1.511c-.034.274-.075.554-.128.833-.016.089-.033.18-.051.264Z" transform="translate(-1168.75 -133.833)" fill="#009bff"/>
  <path id="Path_2114" data-name="Path 2114" d="M1235.363,152.518c-.052-2.592-.011-5.188-.017-7.783a3.756,3.756,0,0,0-2.984-4.046,13.006,13.006,0,0,0-5.91-.336,6,6,0,0,0-3.8,1.908,3.849,3.849,0,0,0-1.028,2.246l4.4.933c.734-2.063,1.874-2.07,3.037-1.762,1.028.267,1.2.916.964,2.773-.8.062-1.615.1-2.42.194a10.16,10.16,0,0,0-4.881,1.654,4.58,4.58,0,0,0-1.795,4.862,3.933,3.933,0,0,0,3.338,3.339,6.572,6.572,0,0,0,5.239-1.19c.2-.136.395-.271.625-.426l.264,1.337h5.31C1235.584,154.969,1235.388,153.745,1235.363,152.518Zm-5.271-.378a.464.464,0,0,1-.122.331,2.938,2.938,0,0,1-2.676.707,1.6,1.6,0,0,1-1.157-1.29,1.75,1.75,0,0,1,.683-1.782,6.276,6.276,0,0,1,3.277-1.019c0,1.083,0,2.07-.006,3.054Z" transform="translate(-1155.318 -133.84)" fill="#009bff"/>
</svg>
