<svg id="Page-1" xmlns="http://www.w3.org/2000/svg" width="163.277" height="83.592" viewBox="0 0 163.277 83.592">
  <g id="private-clouds" transform="translate(0 0)">
    <path id="Fill-1" d="M142.431,41.9a20.78,20.78,0,0,0-6.625,1.1A30.378,30.378,0,0,0,93.864,19a26.571,26.571,0,0,0-52,6.056A30.391,30.391,0,1,0,30.394,83.592H142.431a20.843,20.843,0,1,0,0-41.687" transform="translate(0 0)" fill="#fff"/>
    <g id="Private-Cloud_s_" data-name="Private-Cloud(s)" transform="translate(45.578 31.417)">
      <g id="Private" transform="translate(5.238 0)">
        <path id="Path_82142" data-name="Path 82142" d="M6.789,14.668V11.591H9.037a6.288,6.288,0,0,0,2.575-.486,3.758,3.758,0,0,0,1.682-1.4,3.875,3.875,0,0,0,.59-2.144,3.865,3.865,0,0,0-.59-2.152A3.826,3.826,0,0,0,11.612,4a6.2,6.2,0,0,0-2.575-.494H4.206V14.668Zm2.1-5.182h-2.1V5.611h2.1a2.713,2.713,0,0,1,1.77.5,1.768,1.768,0,0,1,.606,1.443,1.749,1.749,0,0,1-.606,1.427,2.713,2.713,0,0,1-1.77.5Zm9.136,5.182v-4.05a2.417,2.417,0,0,1,.606-1.794,2.28,2.28,0,0,1,1.674-.6q.143,0,.558.032h0v-2.3a4.468,4.468,0,0,0-1.746.319,2.766,2.766,0,0,0-1.2.941h0V6.09H15.542v8.578Zm5.565-9.774a1.56,1.56,0,0,0,1.116-.407,1.354,1.354,0,0,0,.43-1.028,1.227,1.227,0,0,0-.43-.957,1.617,1.617,0,0,0-1.116-.383,1.577,1.577,0,0,0-1.116.4,1.293,1.293,0,0,0-.43.989,1.293,1.293,0,0,0,.43.989A1.577,1.577,0,0,0,23.594,4.894Zm1.244,9.774V6.09H22.35v8.578Zm7.207,0L35.663,6.09H33.272l-2.455,5.836L28.441,6.09H25.874l3.6,8.578Zm7,.127a2.772,2.772,0,0,0,2.615-1.2h0v1.068h2.328V9.773a3.63,3.63,0,0,0-1.068-2.862,4.464,4.464,0,0,0-3.061-.949,7.535,7.535,0,0,0-2.017.271A5.388,5.388,0,0,0,36.158,7h0l.893,1.738a3.566,3.566,0,0,1,1.124-.582,4.33,4.33,0,0,1,1.347-.215A2.177,2.177,0,0,1,41,8.378,1.585,1.585,0,0,1,41.5,9.629H39.522a4.59,4.59,0,0,0-2.782.686,2.235,2.235,0,0,0-.9,1.881,2.407,2.407,0,0,0,.383,1.339,2.556,2.556,0,0,0,1.108.925A4.058,4.058,0,0,0,39.044,14.8Zm.622-1.674a1.688,1.688,0,0,1-1.028-.279.894.894,0,0,1-.375-.757q0-1,1.531-1H41.5v.877a1.614,1.614,0,0,1-.7.869A2.166,2.166,0,0,1,39.665,13.121ZM49.742,14.8a4.552,4.552,0,0,0,1.124-.136,2.556,2.556,0,0,0,.9-.407h0L51.1,12.5a1.6,1.6,0,0,1-1,.319,1.034,1.034,0,0,1-.789-.295,1.171,1.171,0,0,1-.279-.837h0V8.194h2.136V6.281H49.025V4.192H46.537V6.281H45.214V8.194h1.323v3.524a2.989,2.989,0,0,0,.837,2.3A3.339,3.339,0,0,0,49.742,14.8Zm7.414,0a4.448,4.448,0,0,0,3.54-1.387h0l-1.323-1.435a2.876,2.876,0,0,1-.965.63,3.294,3.294,0,0,1-1.188.2,2.746,2.746,0,0,1-1.626-.462,2.021,2.021,0,0,1-.829-1.26h6.489q.048-.622.048-.67a4.635,4.635,0,0,0-.582-2.352,3.957,3.957,0,0,0-1.6-1.555,5.084,5.084,0,0,0-4.616.024,4.188,4.188,0,0,0-1.642,1.578,4.384,4.384,0,0,0-.6,2.272,4.328,4.328,0,0,0,.606,2.28,4.149,4.149,0,0,0,1.722,1.57A5.6,5.6,0,0,0,57.156,14.8Zm1.8-5.166H54.733a2.036,2.036,0,0,1,.7-1.307,2.142,2.142,0,0,1,1.419-.478,2.1,2.1,0,0,1,1.4.486,2.057,2.057,0,0,1,.7,1.3Z" transform="translate(-4.206 -2.12)"/>
        <path id="Path_82143" data-name="Path 82143" d="M6.789,14.668V11.591H9.037a6.288,6.288,0,0,0,2.575-.486,3.758,3.758,0,0,0,1.682-1.4,3.875,3.875,0,0,0,.59-2.144,3.865,3.865,0,0,0-.59-2.152A3.826,3.826,0,0,0,11.612,4a6.2,6.2,0,0,0-2.575-.494H4.206V14.668Zm2.1-5.182h-2.1V5.611h2.1a2.713,2.713,0,0,1,1.77.5,1.768,1.768,0,0,1,.606,1.443,1.749,1.749,0,0,1-.606,1.427,2.713,2.713,0,0,1-1.77.5Zm9.136,5.182v-4.05a2.417,2.417,0,0,1,.606-1.794,2.28,2.28,0,0,1,1.674-.6q.143,0,.558.032h0v-2.3a4.468,4.468,0,0,0-1.746.319,2.766,2.766,0,0,0-1.2.941h0V6.09H15.542v8.578Zm5.565-9.774a1.56,1.56,0,0,0,1.116-.407,1.354,1.354,0,0,0,.43-1.028,1.227,1.227,0,0,0-.43-.957,1.617,1.617,0,0,0-1.116-.383,1.577,1.577,0,0,0-1.116.4,1.293,1.293,0,0,0-.43.989,1.293,1.293,0,0,0,.43.989A1.577,1.577,0,0,0,23.594,4.894Zm1.244,9.774V6.09H22.35v8.578Zm7.207,0L35.663,6.09H33.272l-2.455,5.836L28.441,6.09H25.874l3.6,8.578Zm7,.127a2.772,2.772,0,0,0,2.615-1.2h0v1.068h2.328V9.773a3.63,3.63,0,0,0-1.068-2.862,4.464,4.464,0,0,0-3.061-.949,7.535,7.535,0,0,0-2.017.271A5.388,5.388,0,0,0,36.158,7h0l.893,1.738a3.566,3.566,0,0,1,1.124-.582,4.33,4.33,0,0,1,1.347-.215A2.177,2.177,0,0,1,41,8.378,1.585,1.585,0,0,1,41.5,9.629H39.522a4.59,4.59,0,0,0-2.782.686,2.235,2.235,0,0,0-.9,1.881,2.407,2.407,0,0,0,.383,1.339,2.556,2.556,0,0,0,1.108.925A4.058,4.058,0,0,0,39.044,14.8Zm.622-1.674a1.688,1.688,0,0,1-1.028-.279.894.894,0,0,1-.375-.757q0-1,1.531-1H41.5v.877a1.614,1.614,0,0,1-.7.869A2.166,2.166,0,0,1,39.665,13.121ZM49.742,14.8a4.552,4.552,0,0,0,1.124-.136,2.556,2.556,0,0,0,.9-.407h0L51.1,12.5a1.6,1.6,0,0,1-1,.319,1.034,1.034,0,0,1-.789-.295,1.171,1.171,0,0,1-.279-.837h0V8.194h2.136V6.281H49.025V4.192H46.537V6.281H45.214V8.194h1.323v3.524a2.989,2.989,0,0,0,.837,2.3A3.339,3.339,0,0,0,49.742,14.8Zm7.414,0a4.448,4.448,0,0,0,3.54-1.387h0l-1.323-1.435a2.876,2.876,0,0,1-.965.63,3.294,3.294,0,0,1-1.188.2,2.746,2.746,0,0,1-1.626-.462,2.021,2.021,0,0,1-.829-1.26h6.489q.048-.622.048-.67a4.635,4.635,0,0,0-.582-2.352,3.957,3.957,0,0,0-1.6-1.555,5.084,5.084,0,0,0-4.616.024,4.188,4.188,0,0,0-1.642,1.578,4.384,4.384,0,0,0-.6,2.272,4.328,4.328,0,0,0,.606,2.28,4.149,4.149,0,0,0,1.722,1.57A5.6,5.6,0,0,0,57.156,14.8Zm1.8-5.166H54.733a2.036,2.036,0,0,1,.7-1.307,2.142,2.142,0,0,1,1.419-.478,2.1,2.1,0,0,1,1.4.486,2.057,2.057,0,0,1,.7,1.3Z" transform="translate(-4.206 -2.12)" fill="#003483"/>
      </g>
      <g id="Cloud_s_" data-name="Cloud(s)" transform="translate(0 21.644)">
        <path id="Path_82144" data-name="Path 82144" d="M6.489,29.677a6.563,6.563,0,0,0,2.631-.51A5.17,5.17,0,0,0,11.1,27.684h0L9.439,26.154a3.548,3.548,0,0,1-2.806,1.323,3.727,3.727,0,0,1-1.85-.454,3.23,3.23,0,0,1-1.268-1.268,3.991,3.991,0,0,1,0-3.7,3.23,3.23,0,0,1,1.268-1.268,3.727,3.727,0,0,1,1.85-.454,3.565,3.565,0,0,1,2.806,1.308h0L11.1,20.111a5.254,5.254,0,0,0-1.969-1.467,6.506,6.506,0,0,0-2.623-.51,6.444,6.444,0,0,0-3.1.741,5.534,5.534,0,0,0-2.168,2.057,6,6,0,0,0,0,5.947A5.534,5.534,0,0,0,3.4,28.936,6.41,6.41,0,0,0,6.489,29.677Zm8.658-.191V17.655H12.659v11.83Zm6.394.128a5.1,5.1,0,0,0,2.423-.566,4.22,4.22,0,0,0,1.674-1.57,4.593,4.593,0,0,0,0-4.56,4.221,4.221,0,0,0-1.674-1.571,5.489,5.489,0,0,0-4.855,0,4.207,4.207,0,0,0-1.682,1.571,4.593,4.593,0,0,0,0,4.56,4.207,4.207,0,0,0,1.682,1.57A5.143,5.143,0,0,0,21.54,29.613Zm0-2.041a2.1,2.1,0,0,1-1.578-.646,2.717,2.717,0,0,1,0-3.46,2.1,2.1,0,0,1,1.578-.646,2.072,2.072,0,0,1,1.57.646,2.745,2.745,0,0,1,0,3.46A2.072,2.072,0,0,1,21.54,27.572Zm9.981,2.041A3.713,3.713,0,0,0,33,29.318a3.3,3.3,0,0,0,1.18-.853h0v1.02h2.36V20.908H34.056v4.241a2.455,2.455,0,0,1-.542,1.73,1.868,1.868,0,0,1-1.435.582q-1.738,0-1.738-2.073h0v-4.48H27.854v4.847a3.877,3.877,0,0,0,.988,2.886A3.653,3.653,0,0,0,31.521,29.613Zm11.017,0A3.28,3.28,0,0,0,45.217,28.5h0v.988h2.376V17.655H45.106v4.161a3.263,3.263,0,0,0-2.567-1.036,4.454,4.454,0,0,0-2.192.542,3.881,3.881,0,0,0-1.539,1.547,5.134,5.134,0,0,0,0,4.656,3.881,3.881,0,0,0,1.539,1.547A4.454,4.454,0,0,0,42.539,29.613Zm.43-2.041a2.1,2.1,0,0,1-1.578-.646,2.717,2.717,0,0,1,0-3.46,2.233,2.233,0,0,1,3.141,0,2.717,2.717,0,0,1,0,3.46A2.079,2.079,0,0,1,42.969,27.572Zm11.3,5.006a14.475,14.475,0,0,1-1.467-3.6,16.4,16.4,0,0,1,0-7.733,14.475,14.475,0,0,1,1.467-3.6H51.9a11.32,11.32,0,0,0-1.475,3.356,16.494,16.494,0,0,0,0,8.2A11.554,11.554,0,0,0,51.9,32.579h2.376Zm4.193-2.966a6.213,6.213,0,0,0,2.176-.343,3.054,3.054,0,0,0,1.4-.965,2.265,2.265,0,0,0,.478-1.419,2.058,2.058,0,0,0-.494-1.467,2.587,2.587,0,0,0-1.164-.726,14.687,14.687,0,0,0-1.722-.375,7.627,7.627,0,0,1-1.371-.3.57.57,0,0,1-.431-.558.656.656,0,0,1,.4-.574,2.515,2.515,0,0,1,1.2-.223A4.95,4.95,0,0,1,61.4,23.3h0l.829-1.77a5.058,5.058,0,0,0-1.491-.55,8.361,8.361,0,0,0-1.81-.2,5.855,5.855,0,0,0-2.129.351,3.027,3.027,0,0,0-1.371.981,2.348,2.348,0,0,0-.47,1.443,2.085,2.085,0,0,0,.5,1.5,2.7,2.7,0,0,0,1.188.734,12.767,12.767,0,0,0,1.738.367,6.376,6.376,0,0,1,1.323.271.553.553,0,0,1,.43.526q0,.781-1.578.781a5.81,5.81,0,0,1-1.594-.231,5.219,5.219,0,0,1-1.387-.6h0l-.829,1.786a5.457,5.457,0,0,0,1.626.662A8.338,8.338,0,0,0,58.467,29.613Zm6.968,2.966a10.932,10.932,0,0,0,1.5-3.356A16.711,16.711,0,0,0,66.925,21a10.856,10.856,0,0,0-1.491-3.34H63.059a14.711,14.711,0,0,1,1.475,3.6,16.127,16.127,0,0,1,0,7.733,14.711,14.711,0,0,1-1.475,3.6h2.376Z" transform="translate(-0.446 -17.655)"/>
        <path id="Path_82145" data-name="Path 82145" d="M6.489,29.677a6.563,6.563,0,0,0,2.631-.51A5.17,5.17,0,0,0,11.1,27.684h0L9.439,26.154a3.548,3.548,0,0,1-2.806,1.323,3.727,3.727,0,0,1-1.85-.454,3.23,3.23,0,0,1-1.268-1.268,3.991,3.991,0,0,1,0-3.7,3.23,3.23,0,0,1,1.268-1.268,3.727,3.727,0,0,1,1.85-.454,3.565,3.565,0,0,1,2.806,1.308h0L11.1,20.111a5.254,5.254,0,0,0-1.969-1.467,6.506,6.506,0,0,0-2.623-.51,6.444,6.444,0,0,0-3.1.741,5.534,5.534,0,0,0-2.168,2.057,6,6,0,0,0,0,5.947A5.534,5.534,0,0,0,3.4,28.936,6.41,6.41,0,0,0,6.489,29.677Zm8.658-.191V17.655H12.659v11.83Zm6.394.128a5.1,5.1,0,0,0,2.423-.566,4.22,4.22,0,0,0,1.674-1.57,4.593,4.593,0,0,0,0-4.56,4.221,4.221,0,0,0-1.674-1.571,5.489,5.489,0,0,0-4.855,0,4.207,4.207,0,0,0-1.682,1.571,4.593,4.593,0,0,0,0,4.56,4.207,4.207,0,0,0,1.682,1.57A5.143,5.143,0,0,0,21.54,29.613Zm0-2.041a2.1,2.1,0,0,1-1.578-.646,2.717,2.717,0,0,1,0-3.46,2.1,2.1,0,0,1,1.578-.646,2.072,2.072,0,0,1,1.57.646,2.745,2.745,0,0,1,0,3.46A2.072,2.072,0,0,1,21.54,27.572Zm9.981,2.041A3.713,3.713,0,0,0,33,29.318a3.3,3.3,0,0,0,1.18-.853h0v1.02h2.36V20.908H34.056v4.241a2.455,2.455,0,0,1-.542,1.73,1.868,1.868,0,0,1-1.435.582q-1.738,0-1.738-2.073h0v-4.48H27.854v4.847a3.877,3.877,0,0,0,.988,2.886A3.653,3.653,0,0,0,31.521,29.613Zm11.017,0A3.28,3.28,0,0,0,45.217,28.5h0v.988h2.376V17.655H45.106v4.161a3.263,3.263,0,0,0-2.567-1.036,4.454,4.454,0,0,0-2.192.542,3.881,3.881,0,0,0-1.539,1.547,5.134,5.134,0,0,0,0,4.656,3.881,3.881,0,0,0,1.539,1.547A4.454,4.454,0,0,0,42.539,29.613Zm.43-2.041a2.1,2.1,0,0,1-1.578-.646,2.717,2.717,0,0,1,0-3.46,2.233,2.233,0,0,1,3.141,0,2.717,2.717,0,0,1,0,3.46A2.079,2.079,0,0,1,42.969,27.572Zm11.3,5.006a14.475,14.475,0,0,1-1.467-3.6,16.4,16.4,0,0,1,0-7.733,14.475,14.475,0,0,1,1.467-3.6H51.9a11.32,11.32,0,0,0-1.475,3.356,16.494,16.494,0,0,0,0,8.2A11.554,11.554,0,0,0,51.9,32.579h2.376Zm4.193-2.966a6.213,6.213,0,0,0,2.176-.343,3.054,3.054,0,0,0,1.4-.965,2.265,2.265,0,0,0,.478-1.419,2.058,2.058,0,0,0-.494-1.467,2.587,2.587,0,0,0-1.164-.726,14.687,14.687,0,0,0-1.722-.375,7.627,7.627,0,0,1-1.371-.3.57.57,0,0,1-.431-.558.656.656,0,0,1,.4-.574,2.515,2.515,0,0,1,1.2-.223A4.95,4.95,0,0,1,61.4,23.3h0l.829-1.77a5.058,5.058,0,0,0-1.491-.55,8.361,8.361,0,0,0-1.81-.2,5.855,5.855,0,0,0-2.129.351,3.027,3.027,0,0,0-1.371.981,2.348,2.348,0,0,0-.47,1.443,2.085,2.085,0,0,0,.5,1.5,2.7,2.7,0,0,0,1.188.734,12.767,12.767,0,0,0,1.738.367,6.376,6.376,0,0,1,1.323.271.553.553,0,0,1,.43.526q0,.781-1.578.781a5.81,5.81,0,0,1-1.594-.231,5.219,5.219,0,0,1-1.387-.6h0l-.829,1.786a5.457,5.457,0,0,0,1.626.662A8.338,8.338,0,0,0,58.467,29.613Zm6.968,2.966a10.932,10.932,0,0,0,1.5-3.356A16.711,16.711,0,0,0,66.925,21a10.856,10.856,0,0,0-1.491-3.34H63.059a14.711,14.711,0,0,1,1.475,3.6,16.127,16.127,0,0,1,0,7.733,14.711,14.711,0,0,1-1.475,3.6h2.376Z" transform="translate(-0.446 -17.655)" fill="#003483"/>
      </g>
    </g>
  </g>
</svg>
