<svg xmlns="http://www.w3.org/2000/svg" width="1958.172" height="953.807" viewBox="0 0 1958.172 953.807">
  <g id="Group_23889" data-name="Group 23889" transform="translate(38.033 -217.159)">
    <rect id="Rectangle_43" data-name="Rectangle 43" width="1920.139" height="428.124" transform="translate(0 265.938)" fill="#9aacbc"/>
    <g id="Group_61" data-name="Group 61" transform="translate(-924 -934.997)" opacity="0.18">
      <path id="Path_62" data-name="Path 62" d="M1299.195,1391.173l-103.014,59.737v118.723l103.014,60.113,103.695-60.113V1450.911Z" fill="none" stroke="#fff" stroke-miterlimit="10" stroke-width="1"/>
      <path id="Path_63" data-name="Path 63" d="M1505.9,1391.173l-103.014,59.737v118.723l103.014,60.113,103.695-60.113V1450.911Z" fill="none" stroke="#fff" stroke-miterlimit="10" stroke-width="1"/>
      <path id="Path_64" data-name="Path 64" d="M1712.612,1391.173,1609.6,1450.911v118.723l103.014,60.113,103.695-60.113V1450.911Z" fill="none" stroke="#fff" stroke-miterlimit="10" stroke-width="1"/>
      <path id="Path_65" data-name="Path 65" d="M1299.885,1748.089l-103.014,59.737v118.723l103.014,60.113,103.695-60.113V1807.826Z" fill="none" stroke="#fff" stroke-miterlimit="10" stroke-width="1"/>
      <path id="Path_66" data-name="Path 66" d="M1505.9,1748.464,1402.889,1808.2v118.723l103.014,60.113,103.695-60.113V1808.2Z" fill="none" stroke="#fff" stroke-miterlimit="10" stroke-width="1"/>
      <path id="Path_67" data-name="Path 67" d="M1712.612,1748.464,1609.6,1808.2v118.723l103.014,60.113,103.695-60.113V1808.2Z" fill="none" stroke="#fff" stroke-miterlimit="10" stroke-width="1"/>
      <path id="Path_68" data-name="Path 68" d="M1196.186,1569.628l-103.014,59.737v118.723l103.014,60.113,103.695-60.113V1629.366Z" fill="none" stroke="#fff" stroke-miterlimit="10" stroke-width="1"/>
      <path id="Path_69" data-name="Path 69" d="M989.481,1688.345l-103.014,59.737v118.723l103.014,60.113,103.695-60.113V1748.082Z" fill="none" stroke="#fff" stroke-miterlimit="10" stroke-width="1"/>
      <path id="Path_70" data-name="Path 70" d="M1093.173,1628.759,990.159,1688.5v118.723l103.014,60.113,103.695-60.113V1688.5Z" fill="none" stroke="#fff" stroke-miterlimit="10" stroke-width="1"/>
      <path id="Path_71" data-name="Path 71" d="M1299.885,1510.046l-103.014,59.737v118.723l103.014,60.113,103.695-60.113V1569.783Z" fill="none" stroke="#fff" stroke-miterlimit="10" stroke-width="1"/>
      <path id="Path_72" data-name="Path 72" d="M1196.186,1331.591l-103.014,59.737v118.723l103.014,60.113,103.695-60.113V1391.328Z" fill="none" stroke="#fff" stroke-miterlimit="10" stroke-width="1"/>
      <path id="Path_73" data-name="Path 73" d="M1402.895,1331.591l-103.014,59.737v118.723l103.014,60.113,103.695-60.113V1391.328Z" fill="none" stroke="#fff" stroke-miterlimit="10" stroke-width="1"/>
      <path id="Path_74" data-name="Path 74" d="M1506.249,1152.733l-103.014,59.737v118.723l103.014,60.113,103.695-60.113V1212.471Z" fill="none" stroke="#fff" stroke-miterlimit="10" stroke-width="1"/>
      <path id="Path_75" data-name="Path 75" d="M1712.958,1152.733l-103.014,59.737v118.723l103.014,60.113,103.695-60.113V1212.471Z" fill="none" stroke="#fff" stroke-miterlimit="10" stroke-width="1"/>
      <path id="Path_76" data-name="Path 76" d="M1712.958,1391.173l-103.014,59.737v118.723l103.014,60.113,103.695-60.113V1450.911Z" fill="none" stroke="#fff" stroke-miterlimit="10" stroke-width="1"/>
      <path id="Path_77" data-name="Path 77" d="M1609.258,1450.342l-103.014,59.737V1628.8l103.014,60.113,103.695-60.113V1510.079Z" fill="none" stroke="#fff" stroke-miterlimit="10" stroke-width="1"/>
      <path id="Path_78" data-name="Path 78" d="M1815.967,1450.342l-103.014,59.737V1628.8l103.014,60.113,103.695-60.113V1510.079Z" fill="none" stroke="#fff" stroke-miterlimit="10" stroke-width="1"/>
      <path id="Path_79" data-name="Path 79" d="M1609.6,1688.353,1506.59,1748.09v118.723l103.014,60.113,103.695-60.113V1748.09Z" fill="none" stroke="#fff" stroke-miterlimit="10" stroke-width="1"/>
      <path id="Path_80" data-name="Path 80" d="M1609.606,1807.078l-103.014,59.737v118.723l103.014,60.113,103.695-60.113V1866.816Z" fill="none" stroke="#fff" stroke-miterlimit="10" stroke-width="1"/>
      <path id="Path_81" data-name="Path 81" d="M1713.295,1866.811l-103.014,59.737v118.723l103.014,60.113,103.695-60.113V1926.548Z" fill="none" stroke="#fff" stroke-miterlimit="10" stroke-width="1"/>
      <path id="Path_82" data-name="Path 82" d="M1816.305,1808.2l-103.014,59.737v118.723l103.014,60.113L1920,1986.662V1867.939Z" fill="none" stroke="#fff" stroke-miterlimit="10" stroke-width="1"/>
      <path id="Path_83" data-name="Path 83" d="M1712.612,1748.461,1609.6,1808.2v118.723l103.014,60.113,103.695-60.113V1808.2Z" fill="none" stroke="#fff" stroke-miterlimit="10" stroke-width="1"/>
      <path id="Path_84" data-name="Path 84" d="M1402.9,1688.351l-103.014,59.737v118.723l103.014,60.113,103.695-60.113V1748.089Z" fill="none" stroke="#fff" stroke-miterlimit="10" stroke-width="1"/>
      <path id="Path_85" data-name="Path 85" d="M1402.895,1569.628l-103.014,59.737v118.723l103.014,60.113,103.695-60.113V1629.366Z" fill="none" stroke="#fff" stroke-miterlimit="10" stroke-width="1"/>
      <path id="Path_86" data-name="Path 86" d="M1609.6,1569.628l-103.014,59.737v118.723L1609.6,1808.2l103.695-60.113V1629.366Z" fill="none" stroke="#fff" stroke-miterlimit="10" stroke-width="1"/>
      <path id="Path_87" data-name="Path 87" d="M1196.186,1212.3l-103.014,59.737v118.723l103.014,60.113,103.695-60.113V1272.042Z" fill="none" stroke="#fff" stroke-miterlimit="10" stroke-width="1"/>
      <path id="Path_88" data-name="Path 88" d="M1402.895,1212.3l-103.014,59.737v118.723l103.014,60.113,103.695-60.113V1272.042Z" fill="none" stroke="#fff" stroke-miterlimit="10" stroke-width="1"/>
      <path id="Path_89" data-name="Path 89" d="M1609.6,1212.3l-103.014,59.737v118.723l103.014,60.113,103.695-60.113V1272.042Z" fill="none" stroke="#fff" stroke-miterlimit="10" stroke-width="1"/>
      <line id="Line_6" data-name="Line 6" y2="119.287" transform="translate(1609.598 1688.915)" fill="none" stroke="#fff" stroke-miterlimit="10" stroke-width="1"/>
      <line id="Line_7" data-name="Line 7" y2="118.848" transform="translate(1609.598 1926.926)" fill="none" stroke="#fff" stroke-miterlimit="10" stroke-width="1"/>
    </g>
  </g>
</svg>
