<svg xmlns="http://www.w3.org/2000/svg" width="62.801" height="62.851" viewBox="0 0 62.801 62.851">
  <g id="Group_23894" data-name="Group 23894" transform="translate(-3894.364 -113.938)">
    <path id="Path_78243" data-name="Path 78243" d="M4053.663,256.619c0,.532.011,1.064,0,1.6a1.628,1.628,0,0,1-1.434,1.681q-1.221.213-2.45.375a.9.9,0,0,0-.693.525,2.134,2.134,0,0,0,.347,3.01,6.363,6.363,0,0,1,.837,1.14,1.443,1.443,0,0,1-.124,1.947q-1.214,1.291-2.5,2.511a1.652,1.652,0,0,1-2.17.114c-.7-.482-1.357-1.014-2.064-1.478a1.064,1.064,0,0,0-.729-.092,2.115,2.115,0,0,0-1.933,2.382,5.549,5.549,0,0,1-.191,1.222,1.622,1.622,0,0,1-1.667,1.449q-1.654.025-3.309,0a1.616,1.616,0,0,1-1.642-1.407c-.138-.775-.264-1.553-.359-2.333a1.073,1.073,0,0,0-.63-.875,2.065,2.065,0,0,0-2.858.341,7.164,7.164,0,0,1-1.189.871,1.459,1.459,0,0,1-1.994-.132q-1.263-1.2-2.468-2.462a1.649,1.649,0,0,1-.144-2.168c.48-.7,1.016-1.357,1.475-2.066a1.157,1.157,0,0,0,.1-.782,2.077,2.077,0,0,0-2.349-1.9,5.721,5.721,0,0,1-1.281-.2,1.62,1.62,0,0,1-1.414-1.638c-.019-1.122-.021-2.246,0-3.368a1.6,1.6,0,0,1,1.381-1.6q1.191-.214,2.392-.367a1.036,1.036,0,0,0,.831-.6,2.082,2.082,0,0,0-.349-2.909,6.756,6.756,0,0,1-.87-1.189,1.438,1.438,0,0,1,.134-1.945q1.217-1.288,2.5-2.511a1.654,1.654,0,0,1,2.17-.1c.7.481,1.358,1.013,2.066,1.475a1.079,1.079,0,0,0,.732.091,2.119,2.119,0,0,0,1.924-2.393,5.713,5.713,0,0,1,.2-1.281,1.615,1.615,0,0,1,1.607-1.379q1.683-.032,3.368,0a1.606,1.606,0,0,1,1.635,1.414q.21,1.191.367,2.392a.989.989,0,0,0,.575.785,2.128,2.128,0,0,0,2.959-.351,6.975,6.975,0,0,1,1.138-.84,1.44,1.44,0,0,1,1.947.1q1.313,1.233,2.551,2.545a1.637,1.637,0,0,1,.1,2.123c-.49.714-1.024,1.4-1.519,2.108a.7.7,0,0,0-.135.518,11.437,11.437,0,0,0,.687,1.628.893.893,0,0,0,.583.3c.793.145,1.593.253,2.39.379a1.589,1.589,0,0,1,1.467,1.635C4053.678,255.476,4053.663,256.047,4053.663,256.619Zm-24.1-.066a7.679,7.679,0,1,0,7.7-7.645A7.7,7.7,0,0,0,4029.564,256.553Z" transform="translate(-111.503 -111.301)" fill="#006ce5"/>
    <path id="Path_78244" data-name="Path 78244" d="M4133.266,463.893c.552.539,1,.955,1.419,1.389a1.636,1.636,0,0,1,.092,2.37,1.593,1.593,0,0,1-2.319-.111q-2.024-2.028-4.017-4.087a1.592,1.592,0,0,1,.017-2.37q2.028-2.066,4.094-4.094a1.6,1.6,0,0,1,2.325-.046,1.615,1.615,0,0,1-.079,2.284c-.406.425-.841.821-1.263,1.23l.058.164c.778-.1,1.566-.159,2.334-.313a23.76,23.76,0,0,0,18.082-14.675c.055-.126.1-.257.161-.38a1.529,1.529,0,0,1,1.9-.872,1.6,1.6,0,0,1,1.061,1.927,11.471,11.471,0,0,1-.781,1.968,26.855,26.855,0,0,1-20.75,15.364C4134.887,463.761,4134.159,463.8,4133.266,463.893Z" transform="translate(-205.951 -291.313)" fill="#006ce5"/>
    <path id="Path_78245" data-name="Path 78245" d="M3967.909,118.087c-.519-.507-.963-.922-1.385-1.359a1.629,1.629,0,0,1-.076-2.373,1.65,1.65,0,0,1,2.33.139q1.981,1.986,3.939,4a1.623,1.623,0,0,1-.016,2.5q-1.951,1.975-3.927,3.925a1.6,1.6,0,0,1-2.321.136,1.627,1.627,0,0,1,.067-2.373c.4-.409.823-.788,1.236-1.18l-.065-.181c-.891.126-1.794.2-2.673.386a23.706,23.706,0,0,0-17.776,14.706,1.608,1.608,0,0,1-1.632,1.184,1.642,1.642,0,0,1-1.48-1.32,1.885,1.885,0,0,1,.09-1.029c3.859-9.09,10.6-14.689,20.3-16.678C3965.587,118.353,3966.684,118.259,3967.909,118.087Z" transform="translate(-43.855)" fill="#006ce5"/>
    <path id="Path_78246" data-name="Path 78246" d="M3901.734,352.916a23.169,23.169,0,0,0,1.84,7.522,23.728,23.728,0,0,0,13,12.8,2.108,2.108,0,0,1,1.344,1.067,1.567,1.567,0,0,1-.317,1.756,1.519,1.519,0,0,1-1.8.315,27.145,27.145,0,0,1-17.245-23.482,2.625,2.625,0,0,0-.055-.26c-.524.515-.989,1.009-1.492,1.459a1.544,1.544,0,0,1-2.634-.841,1.94,1.94,0,0,1,.426-1.387c1.325-1.429,2.722-2.791,4.117-4.154a1.56,1.56,0,0,1,2.281-.008q2.138,2.081,4.218,4.221a1.577,1.577,0,0,1-.01,2.239,1.542,1.542,0,0,1-2.225-.009c-.452-.427-.854-.908-1.278-1.366Z" transform="translate(0 -205.7)" fill="#006ce5"/>
    <path id="Path_78247" data-name="Path 78247" d="M4241.289,186.9c-.191-1.15-.308-2.319-.585-3.448a23.7,23.7,0,0,0-14.3-16.891c-.145-.063-.291-.12-.434-.185a1.534,1.534,0,0,1-.918-2.068,1.567,1.567,0,0,1,2.146-.861A27.115,27.115,0,0,1,4244.4,186.81a.6.6,0,0,0,.171.372c.464-.5.9-1.031,1.4-1.483a1.57,1.57,0,0,1,2.64.8,1.486,1.486,0,0,1-.438,1.405c-1.372,1.385-2.741,2.772-4.138,4.132a1.542,1.542,0,0,1-2.275-.013q-2.083-2.009-4.129-4.057a1.6,1.6,0,0,1-.08-2.325,1.613,1.613,0,0,1,2.325.083c.42.4.818.83,1.227,1.246Z" transform="translate(-291.485 -43.528)" fill="#006ce5"/>
    <path id="Path_78248" data-name="Path 78248" d="M4122.792,356.28c.92-.92,1.762-1.8,2.65-2.63a2.411,2.411,0,0,1,1.054-.581,1.451,1.451,0,0,1,1.6.753,1.655,1.655,0,0,1-.271,1.916c-.692.728-1.415,1.427-2.125,2.137-.571.571-1.131,1.154-1.717,1.709a1.58,1.58,0,0,1-2.322.005c-.714-.678-1.409-1.377-2.09-2.089a1.606,1.606,0,0,1-.07-2.285,1.622,1.622,0,0,1,2.328.057C4122.149,355.583,4122.447,355.92,4122.792,356.28Z" transform="translate(-198.131 -210.835)" fill="#006ce5"/>
  </g>
</svg>
