<svg xmlns="http://www.w3.org/2000/svg" width="66.44" height="66.29" viewBox="0 0 66.44 66.29">
  <g id="Group_10384" data-name="Group 10384" transform="translate(0 0.04)">
    <path id="Path_64884" data-name="Path 64884" d="M251.41,372.89v-3.31a2.2,2.2,0,0,0,.05-.25c.07-.8.11-1.6.21-2.39a18.53,18.53,0,0,1,1.61-5.81,10.07,10.07,0,0,1,4.37-4.76,9.94,9.94,0,0,1,4.82-1h22.34V353H268.67v-7.47a4.85,4.85,0,0,1,1.16-3.31,9,9,0,0,1,3.89-2.59,25.25,25.25,0,0,1,7.19-1.43l1.74-.13h3.99c1.39.14,2.78.22,4.16.42a17.24,17.24,0,0,1,5.93,1.87,8.31,8.31,0,0,1,3.41,3.23,6.83,6.83,0,0,1,.76,3.47V361.2a14.3,14.3,0,0,1-.13,2,7.34,7.34,0,0,1-3,5.12,10,10,0,0,1-6,1.87h-15.7a15.392,15.392,0,0,0-2.52.2,7.68,7.68,0,0,0-5.12,3.07,10.27,10.27,0,0,0-1.91,6.15v7.96h-5.49a7.24,7.24,0,0,1-4.14-1.29,10.36,10.36,0,0,1-3.71-4.72,22.7,22.7,0,0,1-1.63-7.17C251.5,374,251.46,373.43,251.41,372.89ZM275.6,349a2.9,2.9,0,1,0-2.9-2.91,2.9,2.9,0,0,0,2.9,2.91Z" transform="translate(-251.41 -338.11)" fill="#fff"/>
    <path id="Path_64885" data-name="Path 64885" d="M317.85,366.73v9l-.27,1.39a15.47,15.47,0,0,1-2.2,5.77,8.94,8.94,0,0,1-7.72,4.31H284.71v2.31h16.13v7.52a4.83,4.83,0,0,1-1.33,3.44,9.72,9.72,0,0,1-4.19,2.55,27.51,27.51,0,0,1-8.47,1.34c-1.85,0-3.7,0-5.54-.12a23,23,0,0,1-5.57-1,12.131,12.131,0,0,1-4.83-2.55,6.26,6.26,0,0,1-2.24-4.71q0-7.14,0-14.27a20.006,20.006,0,0,1,.13-2.42,7.29,7.29,0,0,1,2-4.33,9,9,0,0,1,6.46-2.66c5.16-.08,10.32,0,15.47,0a24.306,24.306,0,0,0,2.65-.13,8.08,8.08,0,0,0,4.17-1.63,9.05,9.05,0,0,0,3.4-7.07c.12-2.7,0-5.41,0-8.11v-.42h5.83a6.839,6.839,0,0,1,1.93.36,8.52,8.52,0,0,1,4.56,3.76,17,17,0,0,1,2.22,6.14A9.411,9.411,0,0,1,317.85,366.73Zm-23.93,26.78a2.93,2.93,0,1,0,2.92,2.94,2.93,2.93,0,0,0-2.92-2.94Z" transform="translate(-251.41 -338.11)" fill="#fff"/>
  </g>
</svg>
