<svg id="Group_10433" data-name="Group 10433" xmlns="http://www.w3.org/2000/svg" width="53.272" height="61.361" viewBox="0 0 53.272 61.361">
  <path id="Path_65023" data-name="Path 65023" d="M402.053,184.718a3.665,3.665,0,0,1-2.472,3.845,60.6,60.6,0,0,1-41.732,0,3.666,3.666,0,0,1-2.47-3.845V130.906h46.673v53.812" transform="translate(-355.38 -130.906)" fill="#0059b3"/>
  <path id="Path_65024" data-name="Path 65024" d="M367.1,163.066c-6.452-3.981-8.649-5.765-8.786-8.511a10.574,10.574,0,0,1,.275-2.06l-.549-.412a4.95,4.95,0,0,0-.823,2.746,6.468,6.468,0,0,0,1.1,3.569,15.133,15.133,0,0,0,4.256,3.981,16.238,16.238,0,0,1,5.216,6.452h.412v-2.608c3.433,1.922,6.452,3.707,7.963,7h.412c-.687-3.294-2.609-5.9-9.472-10.158m18.944-8.785a9.068,9.068,0,0,0-3.3,2.744l2.883-.136A14.275,14.275,0,0,1,386.045,154.281Zm10.432,10.3a6.449,6.449,0,0,0,.549-2.2l-4.255-.275a10.855,10.855,0,0,1-.825,3.02l4.53-.548Zm-4.53-10.571a21.028,21.028,0,0,1,.687,2.334l2.47-.138A8.7,8.7,0,0,0,391.947,154.005Zm-1.1,2.472a14.04,14.04,0,0,0-1.235-3.021h-1.373a21.2,21.2,0,0,0-.961,3.157l3.569-.136Zm2.059,1.373a23.185,23.185,0,0,1,.138,3.02l4.119-.275a8.3,8.3,0,0,0-.823-2.608Zm-1.373,3.02a12.417,12.417,0,0,0-.412-3.157L387,157.574c-.274,1.235-.412,2.472-.548,3.569l5.078-.274Zm.549-8.786.549-.686-.687-.961.138-.274,2.06,1.1-.413,1.373a12.439,12.439,0,0,1,1.1.687l1.373-2.2-3.431-1.785h-7.963l-6.315,3.705a14.31,14.31,0,0,1,3.021,2.608,9.31,9.31,0,0,1,7.55-3.981,11.453,11.453,0,0,1,3.02.412Zm-15.511-.136,3.431-2.06a4.512,4.512,0,0,0-2.334-.548,32.1,32.1,0,0,0-4.118.686c.412.274,2.06,1.235,3.021,1.922Zm.823-7.825a2.427,2.427,0,0,0-2.608.549,3.993,3.993,0,0,0,1.235.274,2.605,2.605,0,0,0,1.373-.823Zm19.492,29.24h-.412c0-2.47-2.2-3.02-4.53-3.02h-7.274a11.754,11.754,0,0,1,.136,3.843H384.4c-.686-5.354-3.707-8.1-7.962-10.981v2.47h-.412c-1.1-2.608-3.569-4.942-6.041-6.589l-1.921-1.373v2.608h-.275c-.961-2.608-2.882-4.668-5.354-7-2.746-2.472-3.981-3.981-4.53-5.767a7.45,7.45,0,0,1-.686-3.02c0-2.059.961-3.981,2.334-4.666v.96a6.529,6.529,0,0,0-.961,3.157,8.715,8.715,0,0,0,.686,3.157c1.647,3.021,6.864,6.726,10.3,8.924,10.571,7,12.629,8.236,14.276,12.08a11.288,11.288,0,0,1,.549,1.647c1.51-.274,7-1.1,8.1-1.235.138,0,.549-.138.823-.138a7.562,7.562,0,0,0,2.334-2.334l-3.981-.412a8.221,8.221,0,0,1-.549,1.1h-.274c.138-.412.138-.823.274-1.237l-1.1-.136v-.275l1.1-.136a12.791,12.791,0,0,0,.275-3.157l-5.08-.275v1.511h-.274c-.138-.549-.138-.961-.275-1.511h-1.1v-.274h1.1a33.7,33.7,0,0,1-.136-3.707l-3.021-.138.412.825a8.479,8.479,0,0,1,.275,4.8h-.412a8.3,8.3,0,0,0-.825-3.3c-.823-1.921-2.608-3.705-5.765-5.628v2.47h-.412c-.961-3.294-3.569-5.078-7.412-7-3.157-1.647-4.118-3.569-3.981-6.589l1.1.686a4.741,4.741,0,0,0,4.668,4.392,17.305,17.305,0,0,0,3.843-.412c1.785-.412,3.3-.686,4.668-.138v-1.647h-.823a3.739,3.739,0,0,1-2.2.687,3.337,3.337,0,0,1-3.569-3.3c0-2.334,1.922-2.608,3.433-2.608h2.746a1.47,1.47,0,0,0,.823-.275c0-.274.138-.412.138-.686v-2.746h-7.276v2.883l-2.746-1.1v-.686h1.373v-1.1h-4.806v-2.334h-1.647a1.846,1.846,0,0,0-1.922,1.785c-.136,1.235.275,2.2,1.511,2.2h.274V140h-.274A3.691,3.691,0,0,1,360.1,136.3a3.905,3.905,0,0,1,4.118-3.844h3.569v2.334h13.728v3.569a9.036,9.036,0,0,1-.138,1.922,1.874,1.874,0,0,1-.823,1.509,3.852,3.852,0,0,1-2.06.412,15.02,15.02,0,0,1-2.47-.136c-1.511-.138-2.06.548-2.06,1.1v.412a3,3,0,0,1,2.883-.548c2.059.686,2.608.686,3.707-.138l.136.274a3.074,3.074,0,0,1-.686.687h.961v5.491l3.157-1.922h8.923l4.256,2.2a1.6,1.6,0,0,1,.823,1.1,1.843,1.843,0,0,1-.275,1.237c-.136.274-1.1,1.921-1.647,2.746a9.164,9.164,0,0,1,2.47,6.315,9.305,9.305,0,0,1-3.569,7.412,4.539,4.539,0,0,1,2.609,1.922l-.825,3.02" transform="translate(-354.609 -130.257)" fill="#ffdf01"/>
  <path id="Path_65025" data-name="Path 65025" d="M377.611,172.515h-1.647v-4.8h1.647c2.2,0,3.02.687,3.02,2.334C380.495,171.829,379.4,172.652,377.611,172.515Zm-.138-9.334c1.373,0,2.2.275,2.2,1.648,0,1.509-1.235,1.921-2.608,1.921h-1.1V163.18Zm2.608,3.981a2.53,2.53,0,0,0,2.334-2.47c0-1.235-.548-2.608-4.255-2.608h-6.177v.136a1.85,1.85,0,0,1,.686.412,2.33,2.33,0,0,1,.549,1.785v9.336H378.3c2.883,0,4.806-1.1,4.806-3.569.136-2.06-1.373-2.883-3.021-3.021m-17.434-3.981h1.785c1.511,0,2.334.412,2.334,2.06a2.316,2.316,0,0,1-2.608,2.333h-1.373V163.18Zm4.806,10.433h3.294l-4.255-5.491c1.647-.412,3.02-1.373,3.02-3.157,0-2.059-1.235-3.02-4.256-3.02h-6.589v.138a2.949,2.949,0,0,1,.687.412,2.848,2.848,0,0,1,.548,2.059v9.06h2.746V168.4h.961l3.844,5.216m26.63-10.022a2.634,2.634,0,0,1,.961.961h.138l.549-1.922a7.225,7.225,0,0,0-3.569-.686c-3.844,0-6.59,1.922-6.59,6.039,0,4.668,3.433,5.9,6.315,5.9a6.793,6.793,0,0,0,3.845-.823v-1.373a4.387,4.387,0,0,1-3.021.961c-1.785,0-4.255-.823-4.255-4.668,0-3.569,1.511-4.667,3.569-4.667a3.832,3.832,0,0,1,2.059.274" transform="translate(-354 -117.879)" fill="#fff"/>
  <path id="Path_65026" data-name="Path 65026" d="M391.444,172h.274c.275,0,.413,0,.549-.138a.425.425,0,0,0,.138-.274c0-.138-.138-.275-.274-.413h-.687Zm.549-1.373a.938.938,0,0,1,.961.961c0,.548-.275.96-.687.96l.138.138c.138.274.823,1.235.823,1.235h-.823l-.274-.548a2.644,2.644,0,0,0-.549-.825h-.138v1.373h-.686v-3.294Zm-.275-.687a2.338,2.338,0,1,0,2.2,2.334A2.288,2.288,0,0,0,391.718,169.939Zm0,5.217a2.815,2.815,0,0,1-2.882-2.883,2.9,2.9,0,0,1,2.882-2.883,2.883,2.883,0,1,1,0,5.767" transform="translate(-341.339 -114.755)" fill="#0059b3"/>
</svg>
