<svg xmlns="http://www.w3.org/2000/svg" width="55.749" height="64.215" viewBox="0 0 55.749 64.215">
  <g id="Group_9932" data-name="Group 9932" transform="translate(0 0)">
    <path id="Path_64308" data-name="Path 64308" d="M404.224,187.22a3.836,3.836,0,0,1-2.587,4.023,63.421,63.421,0,0,1-43.673,0,3.836,3.836,0,0,1-2.585-4.023V130.906h48.844V187.22" transform="translate(-355.38 -130.906)" fill="#fff"/>
    <path id="Path_64309" data-name="Path 64309" d="M367.56,164.489c-6.753-4.166-9.051-6.033-9.2-8.907a11.061,11.061,0,0,1,.288-2.156l-.575-.431a5.18,5.18,0,0,0-.862,2.873,6.769,6.769,0,0,0,1.148,3.735,15.836,15.836,0,0,0,4.454,4.166,16.993,16.993,0,0,1,5.458,6.753h.431v-2.729c3.592,2.012,6.753,3.879,8.333,7.326h.431c-.719-3.447-2.731-6.176-9.913-10.63m19.825-9.194a9.49,9.49,0,0,0-3.448,2.872l3.017-.143A14.941,14.941,0,0,1,387.386,155.3ZM398.3,166.07a6.75,6.75,0,0,0,.575-2.3l-4.453-.288a11.363,11.363,0,0,1-.863,3.16l4.741-.573Zm-4.741-11.063a22.018,22.018,0,0,1,.719,2.443l2.585-.144A9.1,9.1,0,0,0,393.562,155.008Zm-1.148,2.587a14.7,14.7,0,0,0-1.293-3.162h-1.437a22.191,22.191,0,0,0-1.006,3.3l3.735-.143Zm2.154,1.437a24.253,24.253,0,0,1,.144,3.16l4.31-.288a8.69,8.69,0,0,0-.862-2.729Zm-1.437,3.16a12.993,12.993,0,0,0-.431-3.3l-4.31-.144c-.287,1.293-.431,2.587-.573,3.735l5.314-.287Zm.575-9.2.575-.718-.719-1.006.144-.287,2.156,1.148-.432,1.437a13.027,13.027,0,0,1,1.15.719l1.437-2.3-3.591-1.868h-8.333L379.483,154a14.976,14.976,0,0,1,3.162,2.729,9.743,9.743,0,0,1,7.9-4.166,11.988,11.988,0,0,1,3.16.431Zm-16.233-.143,3.591-2.156a4.722,4.722,0,0,0-2.443-.574,33.6,33.6,0,0,0-4.31.718c.431.287,2.156,1.293,3.162,2.012Zm.862-8.189a2.54,2.54,0,0,0-2.729.575,4.178,4.178,0,0,0,1.293.287,2.727,2.727,0,0,0,1.437-.862Zm20.4,30.6H398.3c0-2.585-2.3-3.16-4.741-3.16h-7.613a12.3,12.3,0,0,1,.143,4.022h-.431c-.718-5.6-3.879-8.476-8.332-11.492v2.585H376.9c-1.15-2.729-3.735-5.172-6.322-6.9l-2.01-1.437v2.729h-.288c-1.006-2.729-3.016-4.885-5.6-7.326-2.873-2.587-4.166-4.166-4.741-6.035a7.8,7.8,0,0,1-.718-3.16c0-2.154,1.006-4.166,2.443-4.884v1a6.833,6.833,0,0,0-1.006,3.3,9.121,9.121,0,0,0,.718,3.3c1.723,3.162,7.183,7.039,10.774,9.339,11.063,7.326,13.217,8.619,14.94,12.642a11.817,11.817,0,0,1,.575,1.723c1.581-.287,7.328-1.15,8.476-1.293.144,0,.575-.144.862-.144a7.914,7.914,0,0,0,2.443-2.443l-4.166-.431a8.594,8.594,0,0,1-.575,1.15h-.287c.144-.431.144-.862.287-1.294l-1.148-.143v-.288l1.148-.143a13.384,13.384,0,0,0,.288-3.3l-5.316-.288v1.581h-.287c-.144-.575-.144-1.006-.288-1.581h-1.148v-.287H387.1a35.264,35.264,0,0,1-.143-3.879l-3.162-.144.431.863a8.873,8.873,0,0,1,.288,5.028h-.431a8.687,8.687,0,0,0-.863-3.448c-.862-2.01-2.729-3.878-6.033-5.889v2.585h-.431c-1.006-3.447-3.735-5.314-7.757-7.326-3.3-1.723-4.31-3.735-4.166-6.9l1.148.718a4.961,4.961,0,0,0,4.885,4.6,18.111,18.111,0,0,0,4.022-.431c1.868-.431,3.448-.718,4.885-.144v-1.723h-.862a3.913,3.913,0,0,1-2.3.719,3.493,3.493,0,0,1-3.735-3.448c0-2.443,2.012-2.729,3.592-2.729h2.873a1.539,1.539,0,0,0,.862-.288c0-.287.144-.431.144-.718v-2.873h-7.614v3.017l-2.873-1.15v-.718H371.3v-1.15h-5.029v-2.443h-1.723a1.932,1.932,0,0,0-2.012,1.868c-.143,1.293.288,2.3,1.581,2.3h.287v1.437h-.287a3.863,3.863,0,0,1-3.879-3.878,4.087,4.087,0,0,1,4.31-4.023h3.735V134.9h14.367v3.735a9.456,9.456,0,0,1-.144,2.012,1.961,1.961,0,0,1-.862,1.579,4.031,4.031,0,0,1-2.156.431,15.721,15.721,0,0,1-2.585-.143c-1.581-.144-2.156.573-2.156,1.148v.431a3.135,3.135,0,0,1,3.018-.573c2.154.718,2.729.718,3.879-.144l.143.287a3.215,3.215,0,0,1-.718.719h1.006v5.747l3.3-2.012h9.338l4.454,2.3a1.671,1.671,0,0,1,.862,1.148,1.929,1.929,0,0,1-.288,1.294c-.143.287-1.148,2.01-1.723,2.873a9.59,9.59,0,0,1,2.585,6.608,9.738,9.738,0,0,1-3.735,7.757A4.75,4.75,0,0,1,399.6,172.1l-.863,3.16" transform="translate(-354.488 -130.155)" fill="#001c37"/>
    <path id="Path_64310" data-name="Path 64310" d="M378.492,173.006h-1.723v-5.028h1.723c2.3,0,3.16.719,3.16,2.443C381.51,172.288,380.36,173.15,378.492,173.006Zm-.144-9.769c1.437,0,2.3.288,2.3,1.725,0,1.579-1.293,2.01-2.729,2.01h-1.148v-3.735Zm2.729,4.166a2.648,2.648,0,0,0,2.443-2.585c0-1.293-.573-2.729-4.453-2.729H372.6v.143a1.936,1.936,0,0,1,.718.431,2.438,2.438,0,0,1,.575,1.868v9.77h5.314c3.018,0,5.029-1.15,5.029-3.735.143-2.156-1.437-3.017-3.162-3.162m-18.245-4.166H364.7c1.581,0,2.443.431,2.443,2.156a2.424,2.424,0,0,1-2.729,2.441h-1.437v-4.6Zm5.029,10.919h3.447l-4.453-5.747c1.723-.431,3.16-1.437,3.16-3.3,0-2.154-1.293-3.16-4.454-3.16h-6.9v.144a3.087,3.087,0,0,1,.719.431,2.981,2.981,0,0,1,.573,2.154v9.482h2.873V168.7h1.006l4.023,5.458m27.869-10.488a2.756,2.756,0,0,1,1.006,1.006h.144l.575-2.012a7.56,7.56,0,0,0-3.735-.718c-4.023,0-6.9,2.012-6.9,6.32,0,4.885,3.592,6.178,6.608,6.178,2.873,0,4.023-.862,4.023-.862v-1.437a4.591,4.591,0,0,1-3.162,1.006c-1.868,0-4.453-.862-4.453-4.885,0-3.735,1.581-4.884,3.735-4.884a4.009,4.009,0,0,1,2.154.287" transform="translate(-353.783 -115.83)" fill="#001c37"/>
    <path id="Path_64311" data-name="Path 64311" d="M391.565,172.121h.287c.288,0,.432,0,.575-.144a.444.444,0,0,0,.144-.287c0-.144-.144-.288-.287-.432h-.719Zm.575-1.437a.982.982,0,0,1,1.006,1.006c0,.574-.288,1-.719,1l.144.144c.144.287.862,1.293.862,1.293h-.862l-.287-.573a2.767,2.767,0,0,0-.575-.863h-.144v1.437h-.718v-3.447Zm-.288-.719a2.447,2.447,0,1,0,2.3,2.443A2.395,2.395,0,0,0,391.852,169.965Zm0,5.46a2.946,2.946,0,0,1-3.016-3.017,3.035,3.035,0,0,1,3.016-3.017,3.017,3.017,0,1,1,0,6.035" transform="translate(-339.13 -112.214)" fill="#001c37"/>
  </g>
</svg>
