<svg xmlns="http://www.w3.org/2000/svg" width="48.53" height="74.429" viewBox="0 0 48.53 74.429">
  <g id="Group_10392" data-name="Group 10392" transform="translate(0.01 -0.257)">
    <rect id="Rectangle_8009" data-name="Rectangle 8009" width="47.53" height="73.429" rx="5.63" transform="translate(0.49 0.757)" fill="none" stroke="#fff" stroke-width="1"/>
    <path id="Path_64921" data-name="Path 64921" d="M1201.46,1100a.162.162,0,0,0-.07,0,4.48,4.48,0,0,1-2.34,2.84,15.182,15.182,0,0,1-4.45,1.79,3.32,3.32,0,0,0-.56.24c.15.46.29.9.43,1.34a13.688,13.688,0,0,1,.74,4.09,4.859,4.859,0,0,1-1,3.24,6.6,6.6,0,0,1-1,.53,4,4,0,0,1-2.71-.09,13.625,13.625,0,0,1-3.41-1.82,21.873,21.873,0,0,1-3.35-2.88c-.5.43-1,.84-1.48,1.29a18.573,18.573,0,0,1-3.93,2.79,6.44,6.44,0,0,1-3.87.85l-.65-.3a2.89,2.89,0,0,1-1.55-2.26q-.09-.465-.15-.93a1.348,1.348,0,0,1,0-.4,19.424,19.424,0,0,1,.62-3.48c.23-.64.4-1.3.61-2-.7-.23-1.43-.49-2.17-.72a11.25,11.25,0,0,1-3.82-2,3.14,3.14,0,0,1-1.35-2.73v-.47a5.461,5.461,0,0,1,2.88-3,17.272,17.272,0,0,1,4.12-1.55,4.15,4.15,0,0,0,.53-.21c-.22-.71-.41-1.41-.65-2.09a9.719,9.719,0,0,1-.62-3.07,5.932,5.932,0,0,1-.13-.69,7.542,7.542,0,0,1,.44-2.38,2.68,2.68,0,0,1,2.56-1.67,7.41,7.41,0,0,1,3.93,1.28,18.335,18.335,0,0,1,3.23,2.41c.47.43,1,.83,1.51,1.29a9.453,9.453,0,0,1,1-1,20.46,20.46,0,0,1,4.15-3,6.459,6.459,0,0,1,4.13-.87,3.4,3.4,0,0,0,.47.23,2.34,2.34,0,0,1,1.36,1.55,6.94,6.94,0,0,1,.19,3.59,19.512,19.512,0,0,1-1.14,4.16,1.161,1.161,0,0,0,0,.32c.33.12.69.27,1.06.37a14.082,14.082,0,0,1,5.21,2.55,3.61,3.61,0,0,1,1.1,1.71,1,1,0,0,0,.16.23v1Zm-24.1-.8a1.073,1.073,0,0,0,0,.23,44.15,44.15,0,0,0,3.53,5.16,1,1,0,0,0,.84.38h3.93a.84.84,0,0,0,.72-.39c.69-1,1.45-1.89,2.13-2.86.56-.79,1-1.64,1.55-2.45a45.1,45.1,0,0,0-3.45-5h-6a45.424,45.424,0,0,0-3.24,4.95Zm2.73-6,2.78-3.2-.28-.31a18.513,18.513,0,0,0-3.29-2.75,8.569,8.569,0,0,0-3-1.48l-1.12-.24a.892.892,0,0,1-.32.13,1.46,1.46,0,0,0-1.19.79,2.66,2.66,0,0,0-.43,1.49,11.25,11.25,0,0,0,.11,1.81,26.365,26.365,0,0,0,1.26,4.46,15.424,15.424,0,0,0,1.68-.21,31.726,31.726,0,0,1,3.81-.45Zm12-8a1.267,1.267,0,0,1-.34.16,6.829,6.829,0,0,0-3,1.16,27.45,27.45,0,0,0-4.28,3.42l2.76,3.22,5.53.74c.17-.41.35-.79.48-1.19a13.826,13.826,0,0,0,.87-5.26,1.94,1.94,0,0,0-1.71-2.11,2.253,2.253,0,0,1-.34-.12Zm-11.44,20.8a54.685,54.685,0,0,1-6.25-.85c-.22.7-.44,1.31-.62,1.94a11.452,11.452,0,0,0-.57,3.81,2.36,2.36,0,0,0,1.51,2.33,7.042,7.042,0,0,0,1.47-.09,9.467,9.467,0,0,0,2.5-1.14,26.98,26.98,0,0,0,2.92-2.18,5.73,5.73,0,0,0,1.24-1.29Zm3.78,2.65a9.308,9.308,0,0,1,1,.86,17.736,17.736,0,0,0,3.12,2.44,7.287,7.287,0,0,0,2.58,1.16c.55.09,1.1.1,1.51.13a1.86,1.86,0,0,0,1.3-1.46,8,8,0,0,0,0-3,30.4,30.4,0,0,0-.89-3.17,1.7,1.7,0,0,0-.2-.38l-6.22.82Zm15.91-9.4a3.87,3.87,0,0,0-1.53-1.81,16.926,16.926,0,0,0-5.37-2.16l-2.05,4,2.29,4.63c.82-.27,1.6-.54,2.4-.78a12.091,12.091,0,0,0,2.28-1.06,3.94,3.94,0,0,0,2-2.09v-.75Zm-26.39-4c-.4.1-.78.19-1.15.3a16,16,0,0,0-3.63,1.47,3.9,3.9,0,0,0-1.72,1.48c-.18.37-.36.75-.51,1.07a3.46,3.46,0,0,0,1.6,2.16,14.594,14.594,0,0,0,5.19,2.14l2.26-4.56Zm5.74,9.58-3-4.42-1.86,3.72a42.679,42.679,0,0,0,4.86.68Zm11-4.33-3,4.4,4.79-.7a15.908,15.908,0,0,0-1.78-3.72Zm1.6-5.38a14.492,14.492,0,0,0-4.09-.64l2.53,3.74Zm-13.06-.75-4,.58a9.353,9.353,0,0,0,1.51,3.16Zm6.57-1.24a18.609,18.609,0,0,0-2.23-2.29c-.5.86-1.36,1.38-1.82,2.29h4Zm-2.14,14.65a7.347,7.347,0,0,0,1.55-1.79h-2.86a.68.68,0,0,0-.2.14c.48.55,1.05,1.01,1.52,1.63Z" transform="translate(-1160.47 -1061.65)" fill="#fff"/>
    <path id="Path_64922" data-name="Path 64922" d="M1181.21,1100a3.07,3.07,0,0,0,1,1.42,2.57,2.57,0,1,0-1-1.42Z" transform="translate(-1160.47 -1061.65)" fill="#fff"/>
  </g>
</svg>
