<svg xmlns="http://www.w3.org/2000/svg" width="79.939" height="67.667" viewBox="0 0 79.939 67.667">
  <g id="Group_10389" data-name="Group 10389" transform="translate(-0.091 0.044)">
    <path id="Path_64903" data-name="Path 64903" d="M1674.92,376.39a.361.361,0,0,0-.16.06c-.69,3-2.78,4.94-5.28,6.41a34.2,34.2,0,0,1-10,4,7.467,7.467,0,0,0-1.25.55c.33,1,.66,2,1,3a30.835,30.835,0,0,1,1.66,9.22,10.94,10.94,0,0,1-2.28,7.3,14.877,14.877,0,0,1-2.19,1.18,8.94,8.94,0,0,1-6.11-.2,30.691,30.691,0,0,1-7.68-4.09,49.278,49.278,0,0,1-7.56-6.48c-1.13,1-2.27,1.9-3.34,2.9a41.842,41.842,0,0,1-8.86,6.28,14.509,14.509,0,0,1-8.72,1.92l-1.47-.68c-2.16-1-3-2.9-3.5-5.08-.14-.69-.24-1.4-.33-2.1a3,3,0,0,1,0-.9c.45-2.61.46-5.3,1.39-7.83.52-1.43.9-2.92,1.37-4.48-1.58-.52-3.22-1.1-4.89-1.61a25.36,25.36,0,0,1-8.61-4.54c-1.87-1.53-3.25-3.5-3-6.16V374c1.15-3.43,3.68-5.3,6.5-6.84a38.9,38.9,0,0,1,9.27-3.48,9.377,9.377,0,0,0,1.18-.48c-.49-1.6-.93-3.17-1.46-4.72a21.9,21.9,0,0,1-1.4-6.92,13.36,13.36,0,0,1-.29-1.55c.22-1.81.2-3.66,1-5.37a6,6,0,0,1,5.77-3.75c3.32-.09,6.11,1.31,8.85,2.88a41.315,41.315,0,0,1,7.29,5.44c1.06,1,2.18,1.86,3.4,2.9.7-.74,1.4-1.58,2.2-2.3a46.1,46.1,0,0,1,9.35-6.82,14.56,14.56,0,0,1,9.31-1.95,7.658,7.658,0,0,0,1.05.53,5.27,5.27,0,0,1,3.06,3.49,15.629,15.629,0,0,1,.42,8.08,43.991,43.991,0,0,1-2.56,9.37,2.624,2.624,0,0,0,0,.71c.75.26,1.56.6,2.39.83a31.731,31.731,0,0,1,11.74,5.74,8.12,8.12,0,0,1,2.48,3.86,2.328,2.328,0,0,0,.36.53v2.17Zm-54.29-1.8a2.433,2.433,0,0,0,.11.52,99.463,99.463,0,0,0,7.95,11.62,2.27,2.27,0,0,0,1.89.87h8.85a1.89,1.89,0,0,0,1.62-.88c1.56-2.18,3.26-4.25,4.8-6.44,1.25-1.79,2.34-3.69,3.49-5.51a101.668,101.668,0,0,0-7.78-11.33h-13.41a102.382,102.382,0,0,0-7.52,11.15Zm6.16-13.49,6.26-7.21-.62-.69A41.7,41.7,0,0,0,1625,347a19.31,19.31,0,0,0-6.83-3.34l-2.52-.53a2,2,0,0,1-.73.29,3.29,3.29,0,0,0-2.68,1.79,6,6,0,0,0-1,3.37,25.311,25.311,0,0,0,.25,4.09,59.411,59.411,0,0,0,2.83,10,34.8,34.8,0,0,0,3.79-.48,71.476,71.476,0,0,1,8.68-1.08Zm27-18.06a2.871,2.871,0,0,1-.76.37,15.391,15.391,0,0,0-6.72,2.62,61.818,61.818,0,0,0-9.64,7.7l6.21,7.25,12.45,1.67c.38-.92.78-1.78,1.08-2.67a31.151,31.151,0,0,0,2-11.86c-.17-2.79-1.1-4.05-3.85-4.75a5.1,5.1,0,0,1-.82-.37ZM1628,389.8a123.261,123.261,0,0,1-14.08-1.9c-.5,1.57-1,3-1.39,4.37a25.79,25.79,0,0,0-1.28,8.57c.14,2.35.92,4.29,3.41,5.26a15.886,15.886,0,0,0,3.31-.2,21.3,21.3,0,0,0,5.64-2.56,60.9,60.9,0,0,0,6.57-4.9,12.92,12.92,0,0,0,2.8-2.9Zm8.52,6c.88.72,1.66,1.28,2.34,1.94a39.937,39.937,0,0,0,7,5.49,16.441,16.441,0,0,0,5.81,2.62c1.23.2,2.49.22,3.4.29a4.19,4.19,0,0,0,2.94-3.28,18,18,0,0,0,0-6.78,68.5,68.5,0,0,0-2-7.14,3.832,3.832,0,0,0-.45-.85l-14,1.84Zm35.84-21.19a8.721,8.721,0,0,0-3.46-4.09,38.14,38.14,0,0,0-12.11-4.87l-4.62,9.07,5.17,10.44c1.84-.6,3.61-1.21,5.41-1.77a27.252,27.252,0,0,0,5.14-2.38,8.869,8.869,0,0,0,4.47-4.71v-1.69Zm-59.45-9c-.9.23-1.75.42-2.59.68a36.149,36.149,0,0,0-8.19,3.32c-1.44.87-3.06,1.67-3.87,3.32-.41.84-.8,1.69-1.15,2.42a7.8,7.8,0,0,0,3.6,4.87c3.56,2.57,7.64,3.81,11.69,4.81l5.09-10.28Zm12.93,21.59-6.87-10-4.19,8.37a96.116,96.116,0,0,0,11.08,1.61Zm24.79-9.77-6.81,9.92,10.8-1.58c-.2-1.41-2.55-6.29-3.96-8.36Zm3.61-12.11c-1.39-.72-7.12-1.52-9.22-1.45l5.7,8.43Zm-29.43-1.7-9.08,1.31c0,1.16,2.15,5.66,3.4,7.13Zm14.79-2.79c-1.85-1.74-3-3.79-5-5.17-1.12,1.93-3.07,3.1-4.1,5.17h9.12Zm-4.81,33a16.566,16.566,0,0,0,3.5-4h-6.45a1.52,1.52,0,0,0-.44.31c1.08,1.25,2.38,2.29,3.43,3.68Z" transform="translate(-1594.99 -340.93)" fill="#fff"/>
    <path id="Path_64904" data-name="Path 64904" d="M1629.3,376.42a6.909,6.909,0,0,0,2.33,3.19,5.6,5.6,0,0,0,8.72-4c.17-2.26-.6-4.91-4.25-6.16C1631.56,368.88,1628.69,371.76,1629.3,376.42Z" transform="translate(-1594.99 -340.93)" fill="#fff"/>
  </g>
</svg>
