<svg xmlns="http://www.w3.org/2000/svg" width="66.305" height="62.5" viewBox="0 0 66.305 62.5">
  <g id="Group_25951" data-name="Group 25951" transform="translate(-4307.465 -745.933)">
    <path id="Path_80015" data-name="Path 80015" d="M4375.988,745.933V803.57h-26.234V745.933Zm-19.13,23.3.007.086c.728-.077,1.464-.112,2.183-.243a1.3,1.3,0,0,0,1.155-1.245c.036-1.265-.009-2.534-.074-3.8a1.2,1.2,0,0,0-1.22-1.224c-1.214-.066-2.433-.121-3.647-.088a1.5,1.5,0,0,0-1.5,1.379,22.611,22.611,0,0,0,.059,3.714c.113,1.034.673,1.39,1.741,1.418C4355.994,769.245,4356.425,769.235,4356.857,769.235Zm.064-18.158v-.043h-1.447c-.05,0-.1,0-.151.006a1.5,1.5,0,0,0-1.539,1.32,30.191,30.191,0,0,0,.067,3.937,1.2,1.2,0,0,0,1.125,1.171,36.013,36.013,0,0,0,3.868-.019,1.354,1.354,0,0,0,1.36-1.312,31.247,31.247,0,0,0-.07-3.722c-.074-.9-.488-1.245-1.386-1.328C4358.144,751.032,4357.531,751.078,4356.922,751.078Zm3.322,26.714h.026c-.031-.633-.02-1.272-.1-1.9-.136-1.017-.526-1.4-1.531-1.449-1.114-.055-2.233-.057-3.348-.027a1.423,1.423,0,0,0-1.49,1.268,30.08,30.08,0,0,0,.082,4.083,1.161,1.161,0,0,0,1.128,1.075,32.264,32.264,0,0,0,3.792-.027c.992-.083,1.418-.7,1.441-1.73C4360.251,778.655,4360.244,778.223,4360.244,777.791Zm11.659-11.778h-.049c0-.609.04-1.221-.01-1.825-.074-.892-.435-1.311-1.325-1.382a32.679,32.679,0,0,0-3.57-.085,1.5,1.5,0,0,0-1.5,1.373,33.856,33.856,0,0,0,.012,3.644,1.339,1.339,0,0,0,1.168,1.408,29.277,29.277,0,0,0,4.086-.081,1.324,1.324,0,0,0,1.182-1.454C4371.909,767.08,4371.9,766.547,4371.9,766.014Zm0-11.647h-.023c0-.482,0-.964,0-1.446a3.022,3.022,0,0,0-.02-.3c-.095-1-.478-1.468-1.454-1.527-1.164-.07-2.334-.064-3.5-.031a1.484,1.484,0,0,0-1.451,1.325,32.153,32.153,0,0,0,.018,3.72,1.318,1.318,0,0,0,1.2,1.369,29.5,29.5,0,0,0,3.867-.03c.911-.076,1.308-.638,1.356-1.553C4371.928,755.383,4371.905,754.875,4371.905,754.367Zm0,23.284h-.028c0-.482,0-.964,0-1.446a2.879,2.879,0,0,0-.021-.3c-.107-.943-.5-1.4-1.45-1.448-1.164-.065-2.335-.065-3.5-.029a1.477,1.477,0,0,0-1.449,1.324,33.277,33.277,0,0,0,.018,3.719,1.3,1.3,0,0,0,1.129,1.352,28.12,28.12,0,0,0,4.017-.032c.864-.075,1.236-.646,1.281-1.537C4371.928,778.718,4371.905,778.184,4371.905,777.651Z" transform="translate(-35.821 0)" fill="#fff"/>
    <path id="Path_80016" data-name="Path 80016" d="M4618.315,849.194h-6.954v-.963q0-16.449,0-32.9c0-1.866-.48-2.346-2.345-2.346h-5.224V799.769h14.522Z" transform="translate(-251.002 -45.601)" fill="#fff"/>
    <path id="Path_80017" data-name="Path 80017" d="M4557.562,941.472h-13.2V908.715h13.2Z" transform="translate(-200.66 -137.883)" fill="#fff"/>
    <path id="Path_80018" data-name="Path 80018" d="M4307.465,1147.042v-1.354h66.3v1.354Z" transform="translate(0 -338.608)" fill="#fff"/>
  </g>
</svg>
