<svg xmlns="http://www.w3.org/2000/svg" width="30.326" height="38.244" viewBox="0 0 30.326 38.244">
  <g id="Group_26939" data-name="Group 26939" transform="translate(-53)">
    <path id="Path_82356" data-name="Path 82356" d="M79.965,28.055H78.472a8.269,8.269,0,0,1,1.008,3.967,3.368,3.368,0,0,1-3.361,3.368H60.208a3.368,3.368,0,0,1-3.361-3.368,8.269,8.269,0,0,1,1.008-3.967H56.361A3.368,3.368,0,0,0,53,31.423V60.836A3.368,3.368,0,0,0,56.361,64.2h23.6a3.368,3.368,0,0,0,3.361-3.368V31.423A3.368,3.368,0,0,0,79.965,28.055ZM64.225,57.788l-2.44,2.445a1.119,1.119,0,0,1-1.585,0l-1.2-1.2a1.122,1.122,0,0,1,1.585-1.588l.4.4L62.64,56.2a1.121,1.121,0,1,1,1.584,1.588Zm0-6.436L61.785,53.8a1.119,1.119,0,0,1-1.585,0l-1.2-1.2a1.122,1.122,0,1,1,1.585-1.588l.4.4,1.648-1.651a1.121,1.121,0,1,1,1.584,1.588Zm-2.141-4.54A1.122,1.122,0,0,1,60.5,45.223l4.034-4.041a1.119,1.119,0,0,1,1.585,0l3.391,3.4L72.181,41.9h-.133a1.123,1.123,0,0,1,0-2.245c3.085,0,3.348-.132,3.77.5.257.385.189.516.189,3.467a1.12,1.12,0,1,1-2.241,0v-.134L70.3,46.96a1.119,1.119,0,0,1-1.585,0l-3.391-3.4-3.241,3.248ZM76.454,59.339H67.416a1.123,1.123,0,0,1,0-2.245h9.038a1.123,1.123,0,0,1,0,2.245Zm0-6.436H67.416a1.123,1.123,0,0,1,0-2.245h9.038a1.123,1.123,0,0,1,0,2.245Z" transform="translate(0 -25.959)" fill="#006ce5"/>
    <path id="Path_82357" data-name="Path 82357" d="M146.6,0h-6.05a6.063,6.063,0,0,0-6.05,6.062,1.122,1.122,0,0,0,1.12,1.123h15.91a1.122,1.122,0,0,0,1.12-1.123A6.063,6.063,0,0,0,146.6,0Z" transform="translate(-75.412)" fill="#006ce5"/>
  </g>
</svg>
