<svg xmlns="http://www.w3.org/2000/svg" width="48.285" height="48.284" viewBox="0 0 48.285 48.284">
  <g id="Group_11644" data-name="Group 11644" transform="translate(-1616.7 -938.5)">
    <g id="Group_11643" data-name="Group 11643" transform="translate(1616.7 938.5)">
      <path id="Path_65909" data-name="Path 65909" d="M1664.972,959.1v27.668h-22.866c.7-.113,1.421-.189,2.125-.339a17.047,17.047,0,1,0-19.862-12.571c1.722,6.587,6.059,10.735,12.659,12.445.855.226,1.747.314,2.627.465H1616.7V938.5h48.272v18.806c-.025-.1-.063-.2-.088-.314a9.417,9.417,0,0,0-9.818-8.133.678.678,0,0,1-.628-.289,11.721,11.721,0,0,0-11.49-4.375c-.7.113-1.4.314-2.1.478-.063-.151-.126-.3-.176-.44A9.172,9.172,0,0,0,1630.6,938.7a9.269,9.269,0,0,0-7.63,10.3.419.419,0,0,1-.314.515,9.359,9.359,0,0,0-4.664,13.313,9.165,9.165,0,0,0,3.294,3.394,19.773,19.773,0,0,1,6.323-11.314,19.388,19.388,0,0,1,11.942-5.041,19.154,19.154,0,0,1,11.552,2.8,19.876,19.876,0,0,1,9.365,13.564,9.392,9.392,0,0,0,4.2-5.732C1664.808,960.059,1664.871,959.581,1664.972,959.1Z" transform="translate(-1616.7 -938.5)" fill="none"/>
      <path id="Path_65910" data-name="Path 65910" d="M1689.135,1085.406c-.88-.151-1.773-.239-2.627-.465-6.6-1.722-10.937-5.871-12.659-12.445a16.871,16.871,0,0,1,8.862-19.372,17.045,17.045,0,1,1,11,31.942c-.7.151-1.42.226-2.124.339Zm-2.979-21.886c.1-.076.163-.138.239-.189a8.557,8.557,0,0,1,5.971-1.32,8.347,8.347,0,0,1,4.8,2.363,1.429,1.429,0,0,0,1.27.465,1.329,1.329,0,0,0,1.144-.98,1.415,1.415,0,0,0-.465-1.521,11.528,11.528,0,0,0-14.683-1.106c-.163.113-.314.226-.528.377-.012-.251-.025-.427-.038-.591a1.409,1.409,0,1,0-2.816.025c.025,1.282.075,2.564.151,3.859a1.331,1.331,0,0,0,1.307,1.345c1.345.075,2.69.113,4.035.126a1.349,1.349,0,0,0,1.295-1.207,1.376,1.376,0,0,0-.93-1.508A7.48,7.48,0,0,0,1686.156,1063.52Zm8.435,9.654c-.214.151-.352.251-.5.339a8.648,8.648,0,0,1-10.547-1.194,1.456,1.456,0,0,0-2.1-.063,1.408,1.408,0,0,0,.138,2.087,11.5,11.5,0,0,0,14.72,1.081c.138-.1.289-.2.49-.339.013.264.025.427.038.591a1.424,1.424,0,0,0,1.433,1.433,1.407,1.407,0,0,0,1.37-1.446c-.025-1.32-.075-2.64-.151-3.947a1.349,1.349,0,0,0-1.37-1.282c-.453-.025-.905-.05-1.358-.063-.842-.025-1.7-.075-2.539-.063a1.376,1.376,0,0,0-1.383,1.37,1.422,1.422,0,0,0,1.245,1.421C1694.226,1073.111,1694.365,1073.137,1694.591,1073.174Z" transform="translate(-1666.181 -1037.121)" fill="#006ce5"/>
      <path id="Path_65911" data-name="Path 65911" d="M1665.57,959.584c-.1.478-.163.955-.289,1.421a9.391,9.391,0,0,1-4.2,5.732,19.875,19.875,0,0,0-9.365-13.564,19.134,19.134,0,0,0-11.552-2.8,19.419,19.419,0,0,0-11.942,5.041,19.774,19.774,0,0,0-6.323,11.314,9.164,9.164,0,0,1-3.293-3.394,9.359,9.359,0,0,1,4.664-13.312.413.413,0,0,0,.314-.515,9.25,9.25,0,0,1,17.7-4.764c.063.138.113.289.176.44.717-.163,1.4-.377,2.1-.478a11.68,11.68,0,0,1,11.49,4.375.679.679,0,0,0,.628.289,9.425,9.425,0,0,1,9.818,8.133,1.459,1.459,0,0,0,.088.314C1665.57,958.4,1665.57,958.993,1665.57,959.584Z" transform="translate(-1617.298 -938.981)" fill="#006ce5"/>
      <path id="Path_65912" data-name="Path 65912" d="M1740.277,1117.837a5.719,5.719,0,0,1,.779.151,1.376,1.376,0,0,1,.93,1.508,1.349,1.349,0,0,1-1.295,1.207c-1.345-.013-2.69-.05-4.035-.126a1.339,1.339,0,0,1-1.307-1.345c-.076-1.282-.126-2.564-.151-3.859a1.408,1.408,0,1,1,2.816-.025c.013.164.025.339.038.591.214-.151.377-.264.528-.377a11.512,11.512,0,0,1,14.683,1.106,1.414,1.414,0,0,1,.465,1.521,1.343,1.343,0,0,1-1.144.981,1.43,1.43,0,0,1-1.27-.465,8.384,8.384,0,0,0-4.8-2.363,8.555,8.555,0,0,0-5.971,1.32A1.075,1.075,0,0,0,1740.277,1117.837Z" transform="translate(-1720.302 -1091.438)" fill="none"/>
      <path id="Path_65913" data-name="Path 65913" d="M1748.553,1205.352c-.226-.038-.365-.063-.5-.075a1.411,1.411,0,0,1-1.245-1.421,1.368,1.368,0,0,1,1.383-1.37c.842-.012,1.7.038,2.539.063.453.013.905.038,1.358.063a1.358,1.358,0,0,1,1.37,1.282c.075,1.32.126,2.627.151,3.947a1.4,1.4,0,1,1-2.8.013c-.013-.163-.025-.339-.038-.591-.2.138-.352.239-.49.339a11.5,11.5,0,0,1-14.72-1.081,1.408,1.408,0,0,1-.138-2.087,1.435,1.435,0,0,1,2.1.063,8.664,8.664,0,0,0,10.547,1.194C1748.2,1205.6,1748.339,1205.5,1748.553,1205.352Z" transform="translate(-1720.143 -1169.299)" fill="none"/>
    </g>
  </g>
</svg>
