<svg xmlns="http://www.w3.org/2000/svg" width="55.348" height="69.483" viewBox="0 0 55.348 69.483">
  <g id="Group_25930" data-name="Group 25930" transform="translate(-6059.022 -55.057)">
    <path id="Path_79966" data-name="Path 79966" d="M6073.419,55.057a3.159,3.159,0,0,1,.677.678c.405.785-.241,1.576-1.229,1.522a10.607,10.607,0,0,0-6.172,1.474,10.836,10.836,0,0,0-5.52,9.138c-.043.74-.346,1.133-.905,1.214a1.066,1.066,0,0,1-1.248-1.173,12.058,12.058,0,0,1,1.512-5.815,13.107,13.107,0,0,1,10.061-6.929,2.111,2.111,0,0,0,.343-.11Z" fill="#fff"/>
    <path id="Path_79967" data-name="Path 79967" d="M6385.984,55.057c.761.167,1.531.3,2.28.505a13.173,13.173,0,0,1,9.634,12.1c0,.1.007.207,0,.31a1.077,1.077,0,1,1-2.152.079,20.879,20.879,0,0,0-.419-2.747,11.019,11.019,0,0,0-11.155-8.054c-1.022.049-1.666-.534-1.4-1.342.109-.329.476-.572.725-.854Z" transform="translate(-283.532)" fill="#fff"/>
    <path id="Path_79968" data-name="Path 79968" d="M6177.532,103.564h-2.713c0,.8,0,1.58,0,2.358,0,1.066-.339,1.4-1.414,1.4-.578,0-1.155,0-1.839,0,0,.827,0,1.623,0,2.419,0,1.109-.207,1.354-1.316,1.554-1.605.29-3.21.587-4.818.859-.957.162-1.45-.273-1.45-1.255q-.005-8.995,0-17.99c0-1.016.482-1.425,1.5-1.253,1.689.286,3.377.588,5.063.893a1.1,1.1,0,0,1,1.02,1.251c.007.865,0,1.73,0,2.638h1.1v-.718q0-6.452,0-12.9c0-.186-.011-.374.007-.558a1.091,1.091,0,0,1,1.083-.989,1.072,1.072,0,0,1,1.046.956,5.866,5.866,0,0,1,.018.681q0,8.809,0,17.618v.781h7.618V98.615c0-2.08.052-2.133,2.107-2.133h1.148c0-.876,0-1.714,0-2.552,0-.938.266-1.241,1.2-1.405,1.647-.291,3.292-.6,4.941-.877.936-.16,1.444.261,1.444,1.192q.007,9.057,0,18.114c0,.934-.506,1.36-1.437,1.2-1.71-.289-3.418-.594-5.125-.9a1.1,1.1,0,0,1-1.02-1.251c-.007-.865,0-1.73,0-2.681-.683,0-1.316,0-1.949,0-.943-.008-1.3-.366-1.3-1.322-.006-.8,0-1.6,0-2.432h-2.706q0,1.285,0,2.575c0,.039.007.1.033.115,1.092.639.877,1.813,1.061,2.774q3.261,17.069,6.447,34.152c.133.706.267,1.413.408,2.154.941,0,1.828-.007,2.715,0,.783.008,1.251.413,1.258,1.063s-.492,1.1-1.3,1.1q-11.724,0-23.448,0c-.083,0-.166,0-.248,0a1.092,1.092,0,0,1-1.06-1.081,1.038,1.038,0,0,1,1.057-1.067c.949-.027,1.9-.007,2.914-.007.21-1.1.417-2.168.619-3.238q2.643-14.033,5.285-28.067.631-3.349,1.269-6.7c.042-.218.076-.53.224-.621.734-.451.554-1.149.562-1.8C6177.536,104.488,6177.532,104.057,6177.532,103.564Zm1.1,33.441c1.336-1.329,2.639-2.624,3.941-3.921.595-.593.612-.918.069-1.576q-1.422-1.721-2.855-3.435c-.4-.487-.812-.974-1.262-1.514-1.358,1.535-2.681,3.008-3.975,4.507a1.967,1.967,0,0,0-.141,1.738C6175.8,134.193,6177.193,135.574,6178.633,137.005Zm-.05-13.79c.614-.688,1.164-1.361,1.775-1.97a1.249,1.249,0,0,0,.348-1.27c-.545-2.794-1.062-5.593-1.59-8.39-.138-.728-.285-1.455-.429-2.182-.82,3.656-1.506,7.3-2.174,10.946a.777.777,0,0,0,.159.551C6177.274,121.66,6177.9,122.4,6178.583,123.215Zm5.027,22.075-4.977-4.941-5.007,4.941Zm-6.7-6.611-3.259-3.225-1.491,7.94Zm8.172,4.636c-.5-2.648-1-5.333-1.485-7.884l-3.222,3.191Zm-.454-44.645v6.463h1.025V98.671Zm-12,6.463V98.671H6171.6v6.462Zm7.364,19.78,1.955,2.352.107-.068c-.235-1.229-.47-2.458-.726-3.795Zm-2.866-.05-1.208-1.436c-.225,1.2-.426,2.276-.628,3.353l.1.043Z" transform="translate(-91.933 -22.961)" fill="#fff"/>
    <path id="Path_79969" data-name="Path 79969" d="M6386.478,93.578a7.769,7.769,0,0,1,7.73,7.842,3,3,0,0,1-.049.554,1.085,1.085,0,0,1-2.158-.2,10.183,10.183,0,0,0-.2-1.961,5.508,5.508,0,0,0-6.458-3.9,1.95,1.95,0,0,1-.905,0,.945.945,0,0,1-.669-1.007.967.967,0,0,1,.764-1.006C6385.169,93.752,6385.828,93.682,6386.478,93.578Z" transform="translate(-284.45 -33.741)" fill="#fff"/>
    <path id="Path_79970" data-name="Path 79970" d="M6104.228,93.676c.569.085,1.146.14,1.707.263a1.065,1.065,0,0,1,.939,1.338,1.083,1.083,0,0,1-1.4.771,5.8,5.8,0,0,0-3.173.177,5.428,5.428,0,0,0-3.656,5.281,2.475,2.475,0,0,1-.072.79.968.968,0,0,1-1.111.689.991.991,0,0,1-.964-1.031,11.346,11.346,0,0,1,.281-2.629A7.68,7.68,0,0,1,6104.228,93.676Z" transform="translate(-32.822 -33.827)" fill="#fff"/>
    <path id="Path_79971" data-name="Path 79971" d="M6391.182,127.186a4.16,4.16,0,0,1,4.114,3.91,1.08,1.08,0,0,1-.95,1.113,1.114,1.114,0,0,1-1.176-.883c-.028-.12-.034-.246-.062-.366a1.955,1.955,0,0,0-1.944-1.586c-.924-.018-1.4-.405-1.376-1.122C6389.81,127.567,6390.313,127.183,6391.182,127.186Z" transform="translate(-289.725 -63.179)" fill="#fff"/>
    <path id="Path_79972" data-name="Path 79972" d="M6134.185,127.181a2.937,2.937,0,0,1,.475.073,1.038,1.038,0,0,1,.782,1.173,1.085,1.085,0,0,1-1.114.952c-1.433.065-1.958.5-2.251,1.873a1.128,1.128,0,0,1-1.183.954,1.094,1.094,0,0,1-.949-1.234A4.2,4.2,0,0,1,6134.185,127.181Z" transform="translate(-62.121 -63.175)" fill="#fff"/>
  </g>
</svg>
