<svg xmlns="http://www.w3.org/2000/svg" width="50.396" height="53.633" viewBox="0 0 50.396 53.633">
  <g id="Group_23895" data-name="Group 23895" transform="translate(-4709.462 -130.693)">
    <path id="Path_78249" data-name="Path 78249" d="M4744.609,338.92v-.789q0-8.1,0-16.191c0-1.348-.323-1.667-1.683-1.668q-5.958,0-11.917,0c-1.262,0-1.609.347-1.609,1.613q0,8.128,0,16.256v.8h-5.115V310.631a6.5,6.5,0,0,0,7.419-2.321,6.6,6.6,0,0,0,10.609,0,6.514,6.514,0,0,0,10.52.01,6.6,6.6,0,0,0,10.6,0,6.494,6.494,0,0,0,7.417,2.3v28.3Zm14.229-13.036q3.721,0,7.442,0c1.115,0,1.617-.5,1.62-1.624q.009-2.686,0-5.371c0-1.2-.489-1.691-1.687-1.691q-7.442,0-14.884,0c-1.14,0-1.652.509-1.658,1.66q-.012,2.686,0,5.371c.006,1.162.5,1.653,1.659,1.655Q4755.085,325.888,4758.838,325.884Z" transform="translate(-12.904 -154.61)" fill="#006ce5"/>
    <path id="Path_78250" data-name="Path 78250" d="M4763.707,143.243h-49.051c.081-.237.133-.435.213-.621,1.611-3.785,3.233-7.566,4.83-11.358a.774.774,0,0,1,.842-.571q18.642.021,37.284.006c.368,0,.621.029.8.445,1.626,3.873,3.279,7.734,4.923,11.6C4763.6,142.876,4763.634,143.019,4763.707,143.243Z" transform="translate(-4.521)" fill="#006ce5"/>
    <path id="Path_78251" data-name="Path 78251" d="M4790.962,246.323h8.1a3.387,3.387,0,0,1,.059.438c0,1.273.019,2.547,0,3.82a4.075,4.075,0,0,1-8.15-.006C4790.948,249.177,4790.962,247.779,4790.962,246.323Z" transform="translate(-70.939 -100.652)" fill="#006ce5"/>
    <path id="Path_78252" data-name="Path 78252" d="M4962.072,246.589c0,1.55.069,3.063-.017,4.568a4.067,4.067,0,0,1-8.1-.048c-.077-1.484-.015-2.975-.015-4.519Z" transform="translate(-212.786 -100.884)" fill="#006ce5"/>
    <path id="Path_78253" data-name="Path 78253" d="M5035.616,246.45h8.048a.677.677,0,0,1,.082.223c0,1.446.052,2.9-.033,4.336a3.969,3.969,0,0,1-3.809,3.712,4.029,4.029,0,0,1-4.193-3.209,11.546,11.546,0,0,1-.091-2C5035.606,248.5,5035.616,247.495,5035.616,246.45Z" transform="translate(-283.904 -100.763)" fill="#006ce5"/>
    <path id="Path_78254" data-name="Path 78254" d="M4709.467,246.43h8.062a1.245,1.245,0,0,1,.074.3c0,1.381.038,2.764-.019,4.144a4.05,4.05,0,0,1-7.98.744,10.346,10.346,0,0,1-.131-2.06C4709.453,248.524,4709.467,247.494,4709.467,246.43Z" transform="translate(0 -100.745)" fill="#006ce5"/>
    <path id="Path_78255" data-name="Path 78255" d="M4880.6,246.472a42.022,42.022,0,0,1-.042,5.065,3.9,3.9,0,0,1-4.17,3.2,3.978,3.978,0,0,1-3.805-3.714c-.076-1.4-.029-2.8-.033-4.206a2.258,2.258,0,0,1,.057-.348Z" transform="translate(-141.95 -100.782)" fill="#006ce5"/>
  </g>
</svg>
