<svg xmlns="http://www.w3.org/2000/svg" width="87.18" height="53.44" viewBox="0 0 87.18 53.44">
  <g id="Group_10390" data-name="Group 10390" transform="translate(0 -0.01)">
    <path id="Path_64905" data-name="Path 64905" d="M328.18,1098.26c-.47.37-.84.69-1.25,1a.56.56,0,0,1-.46-.09c-1.64-1.09-3.24-2.24-4.91-3.28a45.94,45.94,0,0,0-11.9-5.33,33.606,33.606,0,0,0-6.92-1.17,27.7,27.7,0,0,0-13.86,2.81,25.82,25.82,0,0,0-13.54,15.38,35.52,35.52,0,0,0-1.68,7.08,48.392,48.392,0,0,0,.32,15,2.781,2.781,0,0,1,0,.33H243.69c.06-.46.1-.91.19-1.36a69.27,69.27,0,0,1,10.78-26.17,57.26,57.26,0,0,1,16-15.91,39.182,39.182,0,0,1,10-4.87,26.635,26.635,0,0,1,6.23-1.17,37.993,37.993,0,0,1,6.65.11,47.8,47.8,0,0,1,13.87,3.81,69.777,69.777,0,0,1,14.94,8.9c1.9,1.47,3.69,3.08,5.53,4.63Z" transform="translate(-241 -1076.54)" fill="#fff"/>
    <path id="Path_64906" data-name="Path 64906" d="M245.4,1116.1l-4.4-1.61,1.91-4.59,4.41,1.61Z" transform="translate(-241 -1076.54)" fill="#fff"/>
    <path id="Path_64907" data-name="Path 64907" d="M280.19,1128.79l-4.34-1.56a.37.37,0,0,1-.2-.25c-.17-1.52-.34-3-.51-4.65l4,1.46a.38.38,0,0,1,.19.26C279.64,1125.62,279.91,1127.18,280.19,1128.79Z" transform="translate(-241 -1076.54)" fill="#fff"/>
    <path id="Path_64908" data-name="Path 64908" d="M256.31,1097.35l-2.91-2.49,2.93-2.78,2.58,2.25Z" transform="translate(-241 -1076.54)" fill="#fff"/>
    <path id="Path_64909" data-name="Path 64909" d="M276.88,1108.34c.95.75,1.8,1.41,2.63,2.09a.53.53,0,0,1,.1.43c-.25,1.35-.52,2.7-.79,4.07a1.388,1.388,0,0,1-.2-.12c-.87-.68-1.74-1.36-2.59-2.06a.49.49,0,0,1-.18-.38C276.17,1111.06,276.51,1109.75,276.88,1108.34Z" transform="translate(-241 -1076.54)" fill="#fff"/>
    <path id="Path_64910" data-name="Path 64910" d="M281.33,1100.19l2.36-2.56,1.33,2c.42.63.41.62-.1,1.21s-1.15,1.37-1.76,2.09Z" transform="translate(-241 -1076.54)" fill="#fff"/>
    <path id="Path_64911" data-name="Path 64911" d="M271.73,1080.3l1.71,2.62-2.94,1.68-1.75-2.66Z" transform="translate(-241 -1076.54)" fill="#fff"/>
    <path id="Path_64912" data-name="Path 64912" d="M306.91,1082.71l-3.7-1.37.16-2.57c1.23.46,2.38.89,3.52,1.33a.38.38,0,0,1,.16.3C307,1081.17,307,1081.93,306.91,1082.71Z" transform="translate(-241 -1076.54)" fill="#fff"/>
    <path id="Path_64913" data-name="Path 64913" d="M291.79,1095.64l-.88-2.63,3.36-1.22.84,2.51Z" transform="translate(-241 -1076.54)" fill="#fff"/>
    <path id="Path_64914" data-name="Path 64914" d="M303.29,1090.85c1.24.18,2.41.34,3.59.52a.3.3,0,0,1,.17.24c0,.71-.09,1.41-.14,2.09l-3.77-.46Z" transform="translate(-241 -1076.54)" fill="#fff"/>
    <path id="Path_64915" data-name="Path 64915" d="M285,1076.78l3.66-.23.77,2.37h-.95c-.81,0-1.62.07-2.44.12a.34.34,0,0,1-.42-.27C285.44,1078.13,285.23,1077.51,285,1076.78Z" transform="translate(-241 -1076.54)" fill="#fff"/>
  </g>
</svg>
