<svg xmlns="http://www.w3.org/2000/svg" width="48.45" height="39.743" viewBox="0 0 48.45 39.743">
  <g id="Group_27054" data-name="Group 27054" transform="translate(0 -46.007)">
    <path id="Path_82473" data-name="Path 82473" d="M39.839,75.814H34.072a18.57,18.57,0,0,1-5.736,5.679h11.5V85.75l8.611-7.1-8.611-7.1ZM18.655,81.487a15.608,15.608,0,0,0,1.312-31.151v-4.33L11.45,53.1l8.517,7.1V56.086a9.914,9.914,0,0,1-1.419,19.729H0v5.678H18.661Z" transform="translate(0 0)" fill="#006ce5"/>
    <path id="Path_82474" data-name="Path 82474" d="M39.682,150.857a9.872,9.872,0,0,1,1.112-15.112l-4.461-3.717a15.45,15.45,0,0,0-3.579,18.829Z" transform="translate(-28.067 -77.881)" fill="#006ce5"/>
  </g>
</svg>
