<svg xmlns="http://www.w3.org/2000/svg" width="46.749" height="62.989" viewBox="0 0 46.749 62.989">
  <g id="Group_27061" data-name="Group 27061" transform="translate(-66)">
    <path id="Path_82485" data-name="Path 82485" d="M108.075,5.019A5.025,5.025,0,0,0,103.055,0H75.694a5.025,5.025,0,0,0-5.019,5.019V6.883h37.4Zm-37.4,5.555h37.4v3.7h-37.4Zm0,47.4a5.025,5.025,0,0,0,5.019,5.019h27.361a5.025,5.025,0,0,0,5.019-5.019V51.178h-37.4Zm15.563-3.592h6.274a1.845,1.845,0,0,1,0,3.691H86.238a1.845,1.845,0,0,1,0-3.691ZM110.9,17.962H67.845A1.846,1.846,0,0,0,66,19.807V45.642a1.846,1.846,0,0,0,1.845,1.845H110.9a1.846,1.846,0,0,0,1.845-1.845V19.807A1.846,1.846,0,0,0,110.9,17.962ZM82.683,35.3a1.846,1.846,0,0,1-2.611,2.609L76.2,34.03a1.847,1.847,0,0,1,0-2.609l3.875-3.875a1.846,1.846,0,0,1,2.611,2.609l-2.571,2.57ZM92.89,26.418,89.436,39.944a1.845,1.845,0,0,1-3.576-.913l3.453-13.525a1.845,1.845,0,0,1,3.576.913Zm9.662,7.612-3.875,3.875a1.846,1.846,0,0,1-2.611-2.611l2.571-2.57-2.571-2.57a1.846,1.846,0,0,1,2.611-2.611l3.875,3.875a1.848,1.848,0,0,1,0,2.611Z" fill="#006ce5"/>
  </g>
</svg>
