<svg xmlns="http://www.w3.org/2000/svg" width="37.33" height="37.331" viewBox="0 0 37.33 37.331">
  <g id="Group_27057" data-name="Group 27057" transform="translate(-0.001 0.001)">
    <path id="Path_82478" data-name="Path 82478" d="M37.215,16.592a1.216,1.216,0,0,0-1.2-.919A4.121,4.121,0,0,1,33.193,8.5a1.037,1.037,0,0,0,.114-1.408A18.478,18.478,0,0,0,30.35,4.106a1.04,1.04,0,0,0-1.419.115,4.3,4.3,0,0,1-4.655,1.046,4.146,4.146,0,0,1-2.521-4.052A1.036,1.036,0,0,0,20.839.123a18.627,18.627,0,0,0-4.2-.011,1.039,1.039,0,0,0-.924,1.068A4.153,4.153,0,0,1,13.16,5.163,4.314,4.314,0,0,1,8.539,4.111,1.04,1.04,0,0,0,7.13,3.993,18.555,18.555,0,0,0,4.111,6.978,1.038,1.038,0,0,0,4.222,8.4a4.136,4.136,0,0,1,1.044,4.657A4.314,4.314,0,0,1,1.2,15.577a1.016,1.016,0,0,0-1.078.917,18.711,18.711,0,0,0-.008,4.244,1.235,1.235,0,0,0,1.224.918,4.094,4.094,0,0,1,3.841,2.557,4.153,4.153,0,0,1-1.044,4.616,1.036,1.036,0,0,0-.113,1.406,18.544,18.544,0,0,0,2.952,2.988A1.038,1.038,0,0,0,8.4,33.11a4.3,4.3,0,0,1,4.653-1.046,4.14,4.14,0,0,1,2.526,4.051,1.036,1.036,0,0,0,.916,1.091,18.585,18.585,0,0,0,4.2.011,1.039,1.039,0,0,0,.924-1.069,4.149,4.149,0,0,1,2.554-3.98,4.308,4.308,0,0,1,4.623,1.051,1.042,1.042,0,0,0,1.409.118,18.58,18.58,0,0,0,3.019-2.986,1.037,1.037,0,0,0-.111-1.419,4.135,4.135,0,0,1-1.046-4.656,4.178,4.178,0,0,1,3.818-2.53l.231.006a1.039,1.039,0,0,0,1.093-.916,18.629,18.629,0,0,0,.008-4.244ZM18.667,29.426a10.76,10.76,0,1,1,9.239-5.243L23.194,19.47a6.6,6.6,0,0,0-7.815-8.94.747.747,0,0,0-.517.52.729.729,0,0,0,.207.713s2.326,2.344,3.1,3.122a.483.483,0,0,1,.07.346l-.007.051a14.877,14.877,0,0,1-.355,2.277l-.05.048-.052.053a14.664,14.664,0,0,1-2.312.359v0l-.039.01-.037,0a.5.5,0,0,1-.358-.152c-.81-.81-3.045-3.029-3.045-3.029a.76.76,0,0,0-.543-.242.739.739,0,0,0-.7.562,6.6,6.6,0,0,0,8.944,7.8l4.763,4.763a10.706,10.706,0,0,1-5.79,1.693Z" transform="translate(0 0)" fill="#006ce5"/>
  </g>
</svg>
