<svg xmlns="http://www.w3.org/2000/svg" width="39.964" height="34.388" viewBox="0 0 39.964 34.388">
  <g id="Group_27055" data-name="Group 27055" transform="translate(-1.25 -2.75)">
    <path id="Path_82475" data-name="Path 82475" d="M23.342,8.326a2.327,2.327,0,0,1-1.907-.994L19.767,4.94a5.112,5.112,0,0,0-4.193-2.19H6.362A5.112,5.112,0,0,0,1.25,7.862V32.026a5.109,5.109,0,0,0,5.112,5.112H36.1a5.109,5.109,0,0,0,5.112-5.112V13.438A5.109,5.109,0,0,0,36.1,8.326ZM18.557,25.056l.407-.409a1.393,1.393,0,0,0-1.97-1.97l-2.788,2.788a1.372,1.372,0,0,0-.348.578l0,0a1.426,1.426,0,0,0-.059.37v.067a1.426,1.426,0,0,0,.059.37l0,0a1.372,1.372,0,0,0,.348.578l2.788,2.788a1.393,1.393,0,0,0,1.97-1.97l-.407-.409h5.928a1.394,1.394,0,1,0,0-2.788Zm10.049-6.448a1.372,1.372,0,0,0-.348-.578L25.47,15.241a1.393,1.393,0,1,0-1.97,1.97l.407.409H17.979a1.394,1.394,0,0,0,0,2.788h5.928l-.407.409a1.393,1.393,0,0,0,1.97,1.97L28.258,20a1.372,1.372,0,0,0,.348-.578l0,0a1.426,1.426,0,0,0,.059-.37v-.067a1.426,1.426,0,0,0-.059-.37Z" transform="translate(0 0)" fill="#006ce5" fill-rule="evenodd"/>
  </g>
</svg>
