<svg xmlns="http://www.w3.org/2000/svg" width="38.278" height="38.243" viewBox="0 0 38.278 38.243">
  <g id="Group_27052" data-name="Group 27052" transform="translate(0 -0.238)">
    <path id="Path_82469" data-name="Path 82469" d="M118.381,110.866a12.08,12.08,0,1,0-12.076,11.771A11.94,11.94,0,0,0,118.381,110.866Zm-13.2,6.916v-1.135a4.042,4.042,0,0,1-2.565-.734,1.124,1.124,0,0,1,1.283-1.847,1.773,1.773,0,0,0,.979.332H107.6a1.2,1.2,0,0,0,0-2.408h-2.587a3.454,3.454,0,1,1,.169-6.905v-1.134a1.124,1.124,0,1,1,2.248,0v1.134a4.019,4.019,0,0,1,2.977,1.285,1.124,1.124,0,1,1-1.642,1.536,1.762,1.762,0,0,0-1.257-.572h-2.5a1.2,1.2,0,0,0,0,2.408H107.6a3.454,3.454,0,1,1-.169,6.905v1.135a1.124,1.124,0,1,1-2.248,0Z" transform="translate(-87.166 -91.448)" fill="#006ce5"/>
    <path id="Path_82470" data-name="Path 82470" d="M8.748,33.028l-.611-4.319a1.124,1.124,0,1,0-2.226.315l.137.967A16.862,16.862,0,0,1,22.589,2.866a1.124,1.124,0,1,0,.469-2.2A19.11,19.11,0,0,0,4.294,31.4L3.207,31.19A1.124,1.124,0,1,0,2.783,33.4l4.544.873A1.128,1.128,0,0,0,8.748,33.028ZM37.083,12.789a19.156,19.156,0,0,0-3.1-5.47l1.086.209A1.124,1.124,0,0,0,35.5,5.32l-4.545-.873A1.128,1.128,0,0,0,29.53,5.69l.611,4.319a1.124,1.124,0,0,0,2.226-.315l-.137-.967A16.861,16.861,0,0,1,15.69,35.852a1.124,1.124,0,0,0-.469,2.2A19.11,19.11,0,0,0,37.083,12.789Z" transform="translate(0 0)" fill="#006ce5"/>
  </g>
</svg>
