<svg xmlns="http://www.w3.org/2000/svg" width="58.775" height="60.754" viewBox="0 0 58.775 60.754">
  <g id="Group_27062" data-name="Group 27062" transform="translate(-6.913 0)">
    <circle id="Ellipse_911" data-name="Ellipse 911" cx="7.182" cy="7.182" r="7.182" transform="translate(23.109 46.389)" fill="#006ce5"/>
    <path id="Path_82486" data-name="Path 82486" d="M51.251,46.389a7.182,7.182,0,1,0,7.182,7.182A7.182,7.182,0,0,0,51.251,46.389Zm12.239-7.329H26.04l-.733-4.251h30.78a2.2,2.2,0,0,0,2.052-1.392L65.468,14.95a2.2,2.2,0,0,0-2.052-3H21.5L19.738,1.832A2.2,2.2,0,0,0,17.539,0H9.112a2.2,2.2,0,1,0,0,4.4h6.6l6.3,37.229a2.2,2.2,0,0,0,2.2,1.832H63.489a2.2,2.2,0,0,0,0-4.4Z" transform="translate(0 0)" fill="#006ce5"/>
  </g>
</svg>
