<svg xmlns="http://www.w3.org/2000/svg" width="63.067" height="63.065" viewBox="0 0 63.067 63.065">
  <g id="Group_27058" data-name="Group 27058" transform="translate(-2 -2)">
    <path id="Path_82479" data-name="Path 82479" d="M42.542,56.022a23.934,23.934,0,0,1-3.55,1.126L38.5,63.6a1.583,1.583,0,0,1-1.579,1.462H30.145a1.581,1.581,0,0,1-1.577-1.46l-.5-6.455A24.033,24.033,0,0,1,20.7,54.09l-4.921,4.219a1.581,1.581,0,0,1-2.149-.083L8.84,53.437a1.583,1.583,0,0,1-.083-2.149l4.219-4.921a24.145,24.145,0,0,1-3.061-7.374L3.46,38.5A1.583,1.583,0,0,1,2,36.918V30.145a1.582,1.582,0,0,1,1.46-1.577l6.455-.5A24.033,24.033,0,0,1,12.976,20.7L8.759,15.778a1.581,1.581,0,0,1,.081-2.146l4.788-4.788a1.586,1.586,0,0,1,2.149-.083L20.7,12.978a24.145,24.145,0,0,1,7.374-3.061l.5-6.455A1.583,1.583,0,0,1,30.147,2H36.92A1.582,1.582,0,0,1,38.5,3.46l.029.376a16.87,16.87,0,0,0-.932,16.807,13.518,13.518,0,1,0,4.948,22.942Z" transform="translate(0 0)" fill="#006ce5"/>
    <path id="Path_82480" data-name="Path 82480" d="M37.018,23.949V59.335a5.631,5.631,0,1,1-11.262,0V23.949a12.374,12.374,0,0,1-.4-21.839.274.274,0,0,1,.4.239V15.415l5.631,2.252,5.631-2.252V2.349a.272.272,0,0,1,.4-.236,12.37,12.37,0,0,1-.4,21.836Z" transform="translate(21.291 0.099)" fill="#006ce5"/>
  </g>
</svg>
