<svg xmlns="http://www.w3.org/2000/svg" width="61.065" height="61.065" viewBox="0 0 61.065 61.065">
  <g id="Group_27059" data-name="Group 27059" transform="translate(-3 -3)">
    <path id="Path_82481" data-name="Path 82481" d="M26.748,3H6.393A3.393,3.393,0,0,0,3,6.393V26.748A3.393,3.393,0,0,0,6.393,30.14H26.748a3.393,3.393,0,0,0,3.393-3.393V6.393A3.393,3.393,0,0,0,26.748,3ZM60.673,3H40.318a3.393,3.393,0,0,0-3.393,3.393V26.748a3.393,3.393,0,0,0,3.393,3.393H60.673a3.393,3.393,0,0,0,3.393-3.393V6.393A3.393,3.393,0,0,0,60.673,3ZM26.748,36.925H6.393A3.393,3.393,0,0,0,3,40.318V60.673a3.393,3.393,0,0,0,3.393,3.393H26.748a3.393,3.393,0,0,0,3.393-3.393V40.318A3.393,3.393,0,0,0,26.748,36.925Zm27.14,3.393H47.1V47.1H40.318v6.785H47.1v6.785h6.785V53.888h6.785V47.1H53.888Z" transform="translate(0 0)" fill="#006ce5"/>
  </g>
</svg>
