<svg xmlns="http://www.w3.org/2000/svg" width="37.336" height="37.331" viewBox="0 0 37.336 37.331">
  <g id="Group_27056" data-name="Group 27056" transform="translate(-0.998 -1)">
    <path id="Path_82476" data-name="Path 82476" d="M2.244,8.466A1.244,1.244,0,0,0,3.489,7.222V3.489H7.222A1.244,1.244,0,1,0,7.222,1H2.244A1.244,1.244,0,0,0,1,2.244V7.222A1.244,1.244,0,0,0,2.244,8.466ZM32.109,3.489h3.733V7.222a1.244,1.244,0,1,0,2.489,0V2.244A1.244,1.244,0,0,0,37.087,1H32.109a1.244,1.244,0,0,0,0,2.489ZM7.222,35.842H3.489V32.109a1.244,1.244,0,0,0-2.489,0v4.977a1.244,1.244,0,0,0,1.244,1.244H7.222a1.244,1.244,0,1,0,0-2.489Zm29.865-4.977a1.244,1.244,0,0,0-1.244,1.244v3.733H32.109a1.244,1.244,0,1,0,0,2.489h4.977a1.244,1.244,0,0,0,1.244-1.244V32.109A1.244,1.244,0,0,0,37.087,30.865Z" transform="translate(0.001 0)" fill="#006ce5"/>
    <circle id="Ellipse_910" data-name="Ellipse 910" cx="4.977" cy="4.977" r="4.977" transform="translate(14.689 14.688)" fill="#006ce5"/>
    <path id="Path_82477" data-name="Path 82477" d="M38.195,19.016a1.244,1.244,0,0,0,0-1.145A21.154,21.154,0,0,0,19.666,6,21.154,21.154,0,0,0,1.137,17.871a1.244,1.244,0,0,0,0,1.145A21.154,21.154,0,0,0,19.666,30.887,21.154,21.154,0,0,0,38.195,19.016ZM19.666,25.91a7.466,7.466,0,1,1,7.466-7.466A7.466,7.466,0,0,1,19.666,25.91Z" transform="translate(0 1.222)" fill="#006ce5"/>
  </g>
</svg>
