<svg xmlns="http://www.w3.org/2000/svg" width="58.909" height="58.851" viewBox="0 0 58.909 58.851">
  <g id="Group_23893" data-name="Group 23893" transform="translate(-3175.923 -100.893)">
    <path id="Path_78226" data-name="Path 78226" d="M3406.4,107.205a7.171,7.171,0,0,1-.321-1.339c-.037-1.256-.02-2.514-.011-3.772,0-.832.37-1.2,1.209-1.2q6.145-.006,12.291,0c.84,0,1.2.365,1.215,1.195,0,.262,0,.524,0,.887h-.669q-4.793,0-9.585,0c-.772,0-1.212.312-1.292.9-.1.715.38,1.212,1.19,1.213q4.764.006,9.529,0h.806c0,.719.212,1.415-.474,1.96.421.372.822.729,1.226,1.082q2.015,1.761,4.033,3.52a4.246,4.246,0,0,1,1.555,3.355q-.007,9.121,0,18.242c0,.721-.276,1.132-.81,1.241a1.018,1.018,0,0,1-1.265-.943c-.025-.348,0-.7-.047-1.073-2.485,4.621-6.268,7.273-11.554,7.273s-9.051-2.641-11.589-7.263c0,.187,0,.374,0,.562,0,1.008-.337,1.472-1.057,1.464s-1.029-.468-1.029-1.49V117.873q0-1.464,0-2.928a4.144,4.144,0,0,1,1.516-3.256C3403.022,110.161,3404.773,108.627,3406.4,107.205Zm-4.551,14.786c2.521-4.761,6.289-7.4,11.564-7.407s9.073,2.643,11.54,7.321a1.08,1.08,0,0,0,.058-.2c0-2.251.008-4.5,0-6.753a2.156,2.156,0,0,0-.8-1.67c-2.223-1.935-4.436-3.881-6.664-5.81a1.085,1.085,0,0,0-.642-.256q-3.466-.027-6.931,0a1,1,0,0,0-.6.208c-2.271,1.964-4.548,3.924-6.773,5.94a2.221,2.221,0,0,0-.712,1.4C3401.811,117.112,3401.85,119.47,3401.85,121.991ZM3414.5,126.2v-6.151a2.673,2.673,0,0,1,.4.141,3.081,3.081,0,0,1,1.672,2.631c.028.468.141.9.595,1.051a1.558,1.558,0,0,0,1.005-.039,1.007,1.007,0,0,0,.517-1.1,5.268,5.268,0,0,0-3.781-4.811.585.585,0,0,1-.492-.5.923.923,0,0,0-.986-.756,1.034,1.034,0,0,0-1.036.788.769.769,0,0,1-.392.433,5.306,5.306,0,0,0-3.856,5.048,5.245,5.245,0,0,0,3.821,5.061.5.5,0,0,1,.419.591c-.012,1.764,0,3.528-.008,5.292a3.458,3.458,0,0,1-.04.37,2.987,2.987,0,0,1-2.071-2.761c-.048-.761-.5-1.222-1.144-1.167a1.1,1.1,0,0,0-.965,1.288,5.263,5.263,0,0,0,3.743,4.783c.288.089.466.173.536.527a.919.919,0,0,0,1,.74.9.9,0,0,0,.966-.706c.081-.4.3-.48.62-.582a5.274,5.274,0,0,0-.518-10.174Z" transform="translate(-198.582)" fill="#006ce5"/>
    <path id="Path_78227" data-name="Path 78227" d="M3390.238,567.011h29.447c.018.164.046.308.046.451,0,1.519.007,3.039,0,4.558,0,.9-.375,1.265-1.273,1.265q-13.469,0-26.937,0c-.9,0-1.276-.366-1.28-1.257C3390.233,570.379,3390.238,568.73,3390.238,567.011Z" transform="translate(-190.141 -413.543)" fill="#006ce5"/>
    <path id="Path_78228" data-name="Path 78228" d="M3222.6,385.994a5.458,5.458,0,0,0,4.158.01v20.34H3222.6Z" transform="translate(-41.41 -252.944)" fill="#006ce5"/>
    <path id="Path_78229" data-name="Path 78229" d="M3236.909,165.143a5.074,5.074,0,0,0,4.064,1.083l-3.937,14.816a5.306,5.306,0,0,0-4.086-1.006Z" transform="translate(-50.595 -57.003)" fill="#006ce5"/>
    <path id="Path_78230" data-name="Path 78230" d="M3190.616,589.594h-14.662a20.721,20.721,0,0,1,.023-2.581,1.946,1.946,0,0,1,1.936-1.582q5.349-.023,10.7,0a2.021,2.021,0,0,1,2,1.969C3190.64,588.11,3190.616,588.82,3190.616,589.594Z" transform="translate(0 -429.874)" fill="#006ce5"/>
    <path id="Path_78231" data-name="Path 78231" d="M3351.15,110.469v4.12h-10.873a5.735,5.735,0,0,0-.017-4.12Z" transform="translate(-145.801 -8.496)" fill="#006ce5"/>
    <path id="Path_78232" data-name="Path 78232" d="M3269.012,104.031a3.157,3.157,0,0,1,6.313.093,3.157,3.157,0,1,1-6.313-.093Z" transform="translate(-82.59 -0.039)" fill="#006ce5"/>
    <path id="Path_78233" data-name="Path 78233" d="M3216.154,321.433a3.141,3.141,0,0,1-3.141-3.156,3.157,3.157,0,1,1,3.141,3.156Z" transform="translate(-32.907 -190.076)" fill="#006ce5"/>
    <path id="Path_78234" data-name="Path 78234" d="M3502.782,511.136c-.585,2.266-.585,2.266.019,4.14h-5.225a4.363,4.363,0,0,0-.01-4.14Z" transform="translate(-285.365 -363.971)" fill="#006ce5"/>
    <path id="Path_78235" data-name="Path 78235" d="M3394.72,511.1h4.251a4.33,4.33,0,0,0,0,4.136h-4.229A4.219,4.219,0,0,0,3394.72,511.1Z" transform="translate(-194.119 -363.939)" fill="#006ce5"/>
    <path id="Path_78236" data-name="Path 78236" d="M3609.425,511.1h4.248a4.256,4.256,0,0,0,.014,4.145h-4.233A4.318,4.318,0,0,0,3609.425,511.1Z" transform="translate(-384.607 -363.942)" fill="#006ce5"/>
    <path id="Path_78237" data-name="Path 78237" d="M3343.789,512.938a2.1,2.1,0,0,1,2.123-2.09,2.108,2.108,0,0,1-.034,4.215A2.1,2.1,0,0,1,3343.789,512.938Z" transform="translate(-148.932 -363.715)" fill="#006ce5"/>
    <path id="Path_78238" data-name="Path 78238" d="M3450.513,512.958a2.109,2.109,0,1,1-2.129-2.1A2.133,2.133,0,0,1,3450.513,512.958Z" transform="translate(-239.876 -363.723)" fill="#006ce5"/>
    <path id="Path_78239" data-name="Path 78239" d="M3562.506,513.04a2.108,2.108,0,1,1-2.041-2.185A2.127,2.127,0,0,1,3562.506,513.04Z" transform="translate(-339.238 -363.72)" fill="#006ce5"/>
    <path id="Path_78240" data-name="Path 78240" d="M3665.211,512.986a2.1,2.1,0,0,1-2.133,2.081,2.108,2.108,0,0,1,.052-4.215A2.1,2.1,0,0,1,3665.211,512.986Z" transform="translate(-430.379 -363.719)" fill="#006ce5"/>
    <path id="Path_78241" data-name="Path 78241" d="M3530.529,351.569V345.8a2.861,2.861,0,0,1,2.074,2.559A3.083,3.083,0,0,1,3530.529,351.569Z" transform="translate(-314.609 -217.288)" fill="#006ce5"/>
    <path id="Path_78242" data-name="Path 78242" d="M3495.084,271.151v5.71a2.876,2.876,0,0,1-2.08-2.719A2.947,2.947,0,0,1,3495.084,271.151Z" transform="translate(-281.316 -151.054)" fill="#006ce5"/>
  </g>
</svg>
