<svg xmlns="http://www.w3.org/2000/svg" width="37.192" height="37.047" viewBox="0 0 37.192 37.047">
  <g id="Group_27053" data-name="Group 27053" transform="translate(0 -1)">
    <path id="Path_82471" data-name="Path 82471" d="M168.306,36.509a2.91,2.91,0,0,0-2.693,1.816h-2.537V40.5h2.537a2.905,2.905,0,1,0,2.693-4Zm5.085-6.174a2.887,2.887,0,0,0-1.326.322l-2.7-2.248a1.09,1.09,0,0,0-.7-.252h-5.593v2.179h5.2l2.366,1.971a2.905,2.905,0,1,0,2.751-1.971Zm0-9.08a2.91,2.91,0,0,0-2.693,1.816h-7.622V25.25H170.7a2.905,2.905,0,1,0,2.693-4Zm-4.024-1.342,2.7-2.248a2.907,2.907,0,1,0-1.424-1.65l-2.366,1.971h-5.2v2.179h5.593A1.09,1.09,0,0,0,169.366,19.912Zm-1.061-8.1a2.906,2.906,0,1,0-2.693-4h-2.537V10h2.537A2.91,2.91,0,0,0,168.306,11.811ZM150,24.16a7.626,7.626,0,0,0,10.9,6.89V17.27A7.626,7.626,0,0,0,150,24.16Z" transform="translate(-139.104 -4.637)" fill="#006ce5"/>
    <path id="Path_82472" data-name="Path 82472" d="M20.7,1H16.344a1.09,1.09,0,0,0-1.09,1.09V3.508A16.349,16.349,0,0,0,9.51,5.888l-1-1a1.09,1.09,0,0,0-1.541,0L3.884,7.966a1.09,1.09,0,0,0,0,1.541l1,1a16.349,16.349,0,0,0-2.38,5.744H1.09A1.09,1.09,0,0,0,0,17.344V21.7a1.09,1.09,0,0,0,1.09,1.09H2.508a16.35,16.35,0,0,0,2.38,5.744l-1,1a1.09,1.09,0,0,0,0,1.541l3.082,3.082a1.09,1.09,0,0,0,1.541,0l1-1a16.35,16.35,0,0,0,5.744,2.38v1.418a1.09,1.09,0,0,0,1.09,1.09H20.7a1.09,1.09,0,0,0,1.09-1.09V28.769a9.807,9.807,0,1,1,0-18.491V2.09A1.09,1.09,0,0,0,20.7,1Z" fill="#006ce5"/>
  </g>
</svg>
