<svg id="salesforce" xmlns="http://www.w3.org/2000/svg" width="47.808" height="33.477" viewBox="0 0 47.808 33.477">
  <path id="Path_65441" data-name="Path 65441" d="M42.9,7.762A8.386,8.386,0,0,1,56.347,9.529a10.173,10.173,0,0,1,4.175-.883A10.392,10.392,0,1,1,58.5,29.228a7.551,7.551,0,0,1-9.879,3.109,8.6,8.6,0,0,1-15.985-.388A8.105,8.105,0,0,1,31,32.115a8.091,8.091,0,0,1-3.992-15.065,9.111,9.111,0,0,1-.772-3.7A9.281,9.281,0,0,1,42.9,7.762" transform="translate(-23.015 -4.102)" fill="#00a1e0"/>
  <path id="Path_65442" data-name="Path 65442" d="M33.708,27.876l.2-.533c.037-.092.092-.055.129-.037l.165.11a2.281,2.281,0,0,0,1.269.368c.423,0,.7-.221.7-.533v-.018c0-.331-.4-.459-.883-.608l-.11-.037c-.644-.184-1.343-.459-1.343-1.269V25.3a1.377,1.377,0,0,1,1.527-1.325h.092a2.6,2.6,0,0,1,1.4.387.088.088,0,0,1,.055.11l-.2.533c-.037.092-.129.037-.129.037a2.79,2.79,0,0,0-1.251-.313c-.387,0-.626.2-.626.478v.018c0,.313.423.459.9.608l.092.018c.644.2,1.325.478,1.325,1.269v.018c0,.847-.608,1.361-1.582,1.361A2.976,2.976,0,0,1,34,28.169,2.148,2.148,0,0,1,33.725,28c-.018-.037-.055-.055-.018-.129Zm14.349,0,.2-.533a.077.077,0,0,1,.129-.037l.165.11a2.281,2.281,0,0,0,1.269.368c.423,0,.7-.221.7-.533v-.018c0-.331-.4-.459-.883-.608l-.11-.037c-.644-.184-1.343-.459-1.343-1.269V25.3a1.377,1.377,0,0,1,1.527-1.325H49.8a2.6,2.6,0,0,1,1.4.387.088.088,0,0,1,.055.11l-.2.533c-.037.092-.129.037-.129.037a2.79,2.79,0,0,0-1.251-.313c-.387,0-.626.2-.626.478v.018c0,.313.423.459.9.608l.092.018c.644.2,1.325.478,1.325,1.269v.018c0,.847-.608,1.361-1.582,1.361a2.976,2.976,0,0,1-1.435-.331A2.148,2.148,0,0,1,48.074,28c0-.037-.037-.055-.018-.129Zm10.632-2.521a3.405,3.405,0,0,1,.129.883,2.757,2.757,0,0,1-.129.883,1.818,1.818,0,0,1-.368.711,1.777,1.777,0,0,1-.626.478,2.438,2.438,0,0,1-1.766,0,1.64,1.64,0,0,1-.626-.478,1.912,1.912,0,0,1-.368-.711,3.338,3.338,0,0,1-.129-.883,2.757,2.757,0,0,1,.129-.883,1.818,1.818,0,0,1,.368-.711,1.777,1.777,0,0,1,.626-.478,2.223,2.223,0,0,1,.883-.184,1.939,1.939,0,0,1,.883.184,1.634,1.634,0,0,1,.626.478A1.912,1.912,0,0,1,58.689,25.355Zm-.827.865a2.039,2.039,0,0,0-.257-1.1.885.885,0,0,0-.791-.387.865.865,0,0,0-.791.387,2.04,2.04,0,0,0-.257,1.1,2.154,2.154,0,0,0,.257,1.122,1,1,0,0,0,1.582,0A1.949,1.949,0,0,0,57.862,26.22Zm7.56,1.379.2.552c.018.074-.037.092-.037.092a3.17,3.17,0,0,1-1.159.2,2.075,2.075,0,0,1-1.618-.608,2.353,2.353,0,0,1-.552-1.637,2.756,2.756,0,0,1,.129-.883,1.924,1.924,0,0,1,1.067-1.189,2.34,2.34,0,0,1,.92-.184,5.364,5.364,0,0,1,.607.037,2.916,2.916,0,0,1,.552.147.073.073,0,0,1,.055.092l-.2.552c-.037.092-.092.055-.092.055a2.59,2.59,0,0,0-.865-.129,1.021,1.021,0,0,0-.9.4,1.7,1.7,0,0,0-.313,1.086,1.608,1.608,0,0,0,.349,1.122,1.205,1.205,0,0,0,.937.349,3,3,0,0,0,.441-.037,1.56,1.56,0,0,0,.387-.11c-.018.037.055.018.092.092ZM69.6,25.19a2.52,2.52,0,0,1,.074,1.2.072.072,0,0,1-.074.074H66.82a1.246,1.246,0,0,0,.331.92,1.3,1.3,0,0,0,.957.331,2.739,2.739,0,0,0,1.141-.2.1.1,0,0,1,.11.055l.184.515c.037.092,0,.11-.018.129a2.871,2.871,0,0,1-1.4.276,2.771,2.771,0,0,1-1.012-.165,1.85,1.85,0,0,1-.7-.459,2.059,2.059,0,0,1-.4-.7,3.08,3.08,0,0,1,0-1.766,1.818,1.818,0,0,1,.368-.711,1.76,1.76,0,0,1,.644-.478,2.046,2.046,0,0,1,.92-.184,1.788,1.788,0,0,1,.791.165,1.639,1.639,0,0,1,.533.4,1.508,1.508,0,0,1,.331.608Zm-2.76.588h1.968a1.468,1.468,0,0,0-.184-.662.846.846,0,0,0-.772-.4.878.878,0,0,0-.791.4,1.88,1.88,0,0,0-.221.662ZM47.394,25.19a3,3,0,0,1,.092,1.2.072.072,0,0,1-.074.074H44.635a1.246,1.246,0,0,0,.331.92,1.3,1.3,0,0,0,.957.331,2.739,2.739,0,0,0,1.141-.2.1.1,0,0,1,.11.055l.184.515c.037.092,0,.11-.018.129a2.871,2.871,0,0,1-1.4.276,2.771,2.771,0,0,1-1.012-.165,1.85,1.85,0,0,1-.7-.459,2.059,2.059,0,0,1-.4-.7,3.08,3.08,0,0,1,0-1.766,1.818,1.818,0,0,1,.368-.711,1.761,1.761,0,0,1,.644-.478,2.046,2.046,0,0,1,.92-.184,1.788,1.788,0,0,1,.791.165,1.639,1.639,0,0,1,.533.4,1.52,1.52,0,0,1,.313.608Zm-2.76.588h1.987a1.468,1.468,0,0,0-.184-.662.846.846,0,0,0-.772-.4.878.878,0,0,0-.791.4,1.549,1.549,0,0,0-.239.662Zm-4.875-.147.459.055v-.11c0-.368-.074-.552-.221-.662a1.154,1.154,0,0,0-.681-.184A3.039,3.039,0,0,0,38.1,25a.057.057,0,0,1-.037.018s-.074.018-.092-.037l-.2-.533a.081.081,0,0,1,.018-.11,2.54,2.54,0,0,1,.847-.313,4.975,4.975,0,0,1,.736-.074,1.873,1.873,0,0,1,1.269.387,1.547,1.547,0,0,1,.441,1.233v2.538s0,.074-.055.092a1.925,1.925,0,0,1-.2.055l-.7.129a4.282,4.282,0,0,1-.847.074,3,3,0,0,1-.736-.074,1.8,1.8,0,0,1-.57-.239,1.243,1.243,0,0,1-.368-.441,1.313,1.313,0,0,1-.129-.626,1.44,1.44,0,0,1,.147-.644,1.368,1.368,0,0,1,.4-.459,2.081,2.081,0,0,1,.57-.276,2.775,2.775,0,0,1,.681-.092l.478.018Zm-1.1,1.95a1.231,1.231,0,0,0,.809.165,5.245,5.245,0,0,0,.754-.092V26.385a5.443,5.443,0,0,0-.754-.055,1.305,1.305,0,0,0-.809.2.6.6,0,0,0-.239.533.724.724,0,0,0,.092.368c.018.037.037.074.147.147Zm23.453-3.366c-.018.074-.165.459-.2.588a.1.1,0,0,1-.11.074,1.69,1.69,0,0,0-.313-.037,1.487,1.487,0,0,0-.368.055.949.949,0,0,0-.349.2.885.885,0,0,0-.239.4,2.575,2.575,0,0,0-.092.736V28.3a.087.087,0,0,1-.092.092h-.736a.087.087,0,0,1-.092-.092V24.161a.084.084,0,0,1,.074-.092H60.3c.055,0,.074.037.074.092v.331a1.216,1.216,0,0,1,.459-.349,1.438,1.438,0,0,1,.711-.11,2.813,2.813,0,0,1,.459.074c.074.018.11.037.092.11ZM55.283,22.3a.073.073,0,0,1,.055.092l-.221.588c-.018.037-.037.074-.129.037-.018,0-.055-.018-.147-.037a.839.839,0,0,0-.221-.018,1.406,1.406,0,0,0-.294.037.477.477,0,0,0-.239.147.916.916,0,0,0-.2.294,2.793,2.793,0,0,0-.147.626h.883c.074,0,.092.037.092.092l-.11.57c-.018.092-.092.074-.092.074h-.92L53,28.353a6.866,6.866,0,0,1-.239.937,1.761,1.761,0,0,1-.368.626,1.078,1.078,0,0,1-.515.349,1.885,1.885,0,0,1-.681.11,1.574,1.574,0,0,1-.4-.037,1.054,1.054,0,0,1-.257-.074.082.082,0,0,1-.037-.11l.2-.57c.037-.074.092-.037.092-.037l.147.055a.912.912,0,0,0,.221.018.887.887,0,0,0,.331-.055.549.549,0,0,0,.257-.2,1.856,1.856,0,0,0,.2-.387,6.192,6.192,0,0,0,.165-.681l.626-3.477h-.608c-.074,0-.092-.037-.092-.092l.11-.57c.018-.092.092-.074.092-.074h.626l.037-.184a2.257,2.257,0,0,1,.552-1.251,1.615,1.615,0,0,1,1.176-.423,2.262,2.262,0,0,1,.387.037.442.442,0,0,1,.257.037Zm-12.4,5.979a.084.084,0,0,1-.074.092h-.736c-.055,0-.074-.037-.074-.092v-5.9c0-.037.037-.092.074-.092h.736c.055,0,.074.037.074.092Z" transform="translate(-26.791 -10.511)" fill="#fff"/>
</svg>
