<svg id="Group_27060" data-name="Group 27060" xmlns="http://www.w3.org/2000/svg" width="62.921" height="62.921" viewBox="0 0 62.921 62.921">
  <path id="Path_82482" data-name="Path 82482" d="M7.865,29.6a5.9,5.9,0,0,1,11.8,0H23.6v-6.43a2,2,0,0,1,2.959-1.7,1.982,1.982,0,0,0,2.94-1.7,2.006,2.006,0,0,0-2.94-1.7,1.989,1.989,0,0,1-2.959-1.7V6H5.9A5.906,5.906,0,0,0,0,11.9V29.6Z" transform="translate(0 5.798)" fill="#006ce5"/>
  <path id="Path_82483" data-name="Path 82483" d="M23.6,38.629a5.9,5.9,0,1,1,0-11.8V22.9h-6.43a1.987,1.987,0,0,1-1.7-2.961A1.983,1.983,0,0,0,13.764,17a2.01,2.01,0,0,0-1.7,2.938,1.986,1.986,0,0,1-1.7,2.961H0V40.6a5.906,5.906,0,0,0,5.9,5.9H23.6Z" transform="translate(0 16.427)" fill="#006ce5"/>
  <path id="Path_82484" data-name="Path 82484" d="M32.629,39.326a5.9,5.9,0,0,1-11.8,0H16.9v6.43a2,2,0,0,1-2.959,1.7,1.964,1.964,0,1,0,0,3.41,2,2,0,0,1,2.959,1.7V62.921H34.6a5.906,5.906,0,0,0,5.9-5.9v-17.7ZM46.393,0H26.73a1.966,1.966,0,0,0-1.966,1.966v8.4a1.988,1.988,0,0,0,2.961,1.7,1.963,1.963,0,1,1,0,3.41,2,2,0,0,0-2.961,1.7v8.4a1.966,1.966,0,0,0,1.966,1.966h5.9a5.9,5.9,0,0,0,11.8,0h5.9a1.966,1.966,0,0,0,1.966-1.966V5.9A5.906,5.906,0,0,0,46.393,0Z" transform="translate(10.629)" fill="#006ce5"/>
</svg>
