<svg xmlns="http://www.w3.org/2000/svg" width="48.191" height="48.179" viewBox="0 0 48.191 48.179">
  <g id="Group_11650" data-name="Group 11650" transform="translate(-1717.6 -1930.7)">
    <g id="Group_11649" data-name="Group 11649" transform="translate(1717.6 1930.7)">
      <path id="Path_65943" data-name="Path 65943" d="M1717.7,1954.366V1930.7h48.179v48.179h-3.846a.627.627,0,0,1,.118-.071,4.2,4.2,0,0,0,3.223-2.447,4.243,4.243,0,0,0-3.152-5.975,4.478,4.478,0,0,0-2.776.518,25.247,25.247,0,0,1-1.717-2.059,2.878,2.878,0,0,0-2.905-1.353c-1.082.094-2.176.023-3.282.023v2.823c1.129,0,2.211.012,3.305-.012a.771.771,0,0,1,.682.306c.576.718,1.176,1.424,1.788,2.117a.751.751,0,0,1,.176.788,4.176,4.176,0,0,0,1.271,4.223,4.683,4.683,0,0,0,2.329,1.117H1717.7v-6.669a1.1,1.1,0,0,1,.071.176,4.175,4.175,0,0,0,4.234,3.576q11.186.018,22.384,0a4.185,4.185,0,0,0,4.293-4.317q.035-8.363,0-16.714a4.2,4.2,0,0,0-4.293-4.317q-11.186-.036-22.384,0a4.16,4.16,0,0,0-3.352,1.588A5.119,5.119,0,0,0,1717.7,1954.366Zm9.869-6.587v-.565c0-1.788-.024-3.564.012-5.352a5.625,5.625,0,0,1,11.245.117c.023,1.764.012,3.541.012,5.3v.482h5.634v-.482c0-1.67.023-3.352-.012-5.022a14.494,14.494,0,0,0-.212-2.376,11.257,11.257,0,0,0-22.29,1.6c-.094,2.058-.023,4.129-.023,6.2,0,.023.023.047.047.094Zm23.972,11.28c1.411,0,2.788-.012,4.152,0a1.812,1.812,0,0,0,1.388-.565c.812-.8,1.659-1.576,2.47-2.376a.52.52,0,0,1,.647-.153,3.439,3.439,0,0,0,1.976.2,4.051,4.051,0,0,0,3.388-2.87,3.99,3.99,0,0,0-1.094-4.34,4.2,4.2,0,0,0-6.775,4.658.4.4,0,0,1-.118.517c-.635.588-1.259,1.176-1.859,1.788a1.008,1.008,0,0,1-.823.318c-1.106-.024-2.211-.012-3.341-.012C1751.541,1957.189,1751.541,1958.1,1751.541,1959.06Zm6.022,5.634a4.226,4.226,0,1,0,0-2.811h-6.011v2.8C1753.576,1964.694,1755.575,1964.694,1757.563,1964.694Z" transform="translate(-1717.688 -1930.7)" fill="none"/>
      <path id="Path_65944" data-name="Path 65944" d="M1717.612,2103.686a5.093,5.093,0,0,1,.941-2.164,4.16,4.16,0,0,1,3.352-1.588q11.186-.018,22.384,0a4.185,4.185,0,0,1,4.293,4.317q.035,8.364,0,16.715a4.2,4.2,0,0,1-4.293,4.317q-11.186.035-22.384,0a4.184,4.184,0,0,1-4.234-3.576,1.131,1.131,0,0,0-.071-.177Q1717.618,2112.619,1717.612,2103.686Zm14.091,10.081v4.328a1.414,1.414,0,1,0,2.811-.011c0-1.317.012-2.635,0-3.941a.483.483,0,0,1,.341-.518,4.152,4.152,0,0,0,1.917-5.893,4.213,4.213,0,0,0-7.6,3.587A4.357,4.357,0,0,0,1731.7,2113.767Z" transform="translate(-1717.6 -2080.02)" fill="#006ce5"/>
      <path id="Path_65945" data-name="Path 65945" d="M2014.951,2254.74a4.834,4.834,0,0,1-2.329-1.117,4.168,4.168,0,0,1-1.27-4.223.751.751,0,0,0-.177-.788c-.611-.694-1.2-1.4-1.788-2.117a.77.77,0,0,0-.682-.306c-1.094.012-2.188.012-3.305.012v-2.823c1.094,0,2.2.082,3.282-.023a2.877,2.877,0,0,1,2.905,1.353,25.268,25.268,0,0,0,1.717,2.058,4.562,4.562,0,0,1,2.776-.518,4.268,4.268,0,0,1-.071,8.422.4.4,0,0,0-.117.07Z" transform="translate(-1971.548 -2206.561)" fill="#006ce5"/>
      <path id="Path_65946" data-name="Path 65946" d="M1759.232,1948.474h-5.575c-.024-.047-.047-.071-.047-.094,0-2.07-.071-4.141.024-6.2a11.257,11.257,0,0,1,22.29-1.6,14.637,14.637,0,0,1,.212,2.376c.035,1.67.012,3.352.012,5.022v.482h-5.634v-.482c0-1.764.024-3.541-.012-5.3a5.625,5.625,0,0,0-11.245-.118c-.047,1.788-.012,3.564-.012,5.352C1759.232,1948.086,1759.232,1948.25,1759.232,1948.474Z" transform="translate(-1749.352 -1931.395)" fill="#006ce5"/>
      <path id="Path_65947" data-name="Path 65947" d="M2005.4,2087.327v-2.811c1.129,0,2.235-.012,3.34.012a1.017,1.017,0,0,0,.823-.318c.6-.612,1.235-1.2,1.858-1.788a.388.388,0,0,0,.118-.518,4.2,4.2,0,0,1,6.775-4.658,3.969,3.969,0,0,1,1.094,4.34,4.05,4.05,0,0,1-3.387,2.87,3.436,3.436,0,0,1-1.976-.2.528.528,0,0,0-.647.153c-.812.8-1.647,1.576-2.47,2.376a1.854,1.854,0,0,1-1.388.565C2008.176,2087.315,2006.8,2087.327,2005.4,2087.327Z" transform="translate(-1971.548 -2058.968)" fill="#006ce5"/>
      <path id="Path_65948" data-name="Path 65948" d="M2011.422,2177.5H2005.4v-2.8h6.011a4.233,4.233,0,1,1,.011,2.8Z" transform="translate(-1971.548 -2143.509)" fill="#006ce5"/>
      <path id="Path_65949" data-name="Path 65949" d="M1816.364,2156.169a4.342,4.342,0,0,1-2.529-2.458,4.213,4.213,0,0,1,7.6-3.587,4.161,4.161,0,0,1-1.917,5.893.5.5,0,0,0-.341.517c.012,1.317.012,2.635,0,3.94a1.414,1.414,0,1,1-2.811.012Zm2.811-3.976a1.406,1.406,0,1,0-1.4,1.411A1.421,1.421,0,0,0,1819.176,2152.194Z" transform="translate(-1802.261 -2122.423)" fill="none"/>
      <path id="Path_65950" data-name="Path 65950" d="M1840.311,2173.3a1.406,1.406,0,1,1-1.411-1.4A1.421,1.421,0,0,1,1840.311,2173.3Z" transform="translate(-1823.397 -2143.529)" fill="#006ce5"/>
    </g>
  </g>
</svg>
