<svg xmlns="http://www.w3.org/2000/svg" width="39.998" height="48.137" viewBox="0 0 39.998 48.137">
  <g id="Group_23825" data-name="Group 23825" transform="translate(-130.251 170.881)">
    <path id="Path_78146" data-name="Path 78146" d="M170.249-154.232c-.306,3.72-.173,7.541-1,11.141-2.223,9.66-7.922,16.539-17.4,20.023a4.748,4.748,0,0,1-3.471-.009c-9.88-3.716-15.52-10.98-17.635-21.143a27.247,27.247,0,0,1-.427-5.074c-.067-4.016-.021-8.034-.062-12.051a1.277,1.277,0,0,1,.889-1.382c6.038-2.65,12.054-5.352,18.1-7.982a2.525,2.525,0,0,1,1.811-.008c6.016,2.616,12,5.306,18,7.947a1.355,1.355,0,0,1,.938,1.469c-.047,2.348-.017,4.7-.017,7.047Zm-36.561,1.641h0c0,1.463-.028,2.928,0,4.39a22.686,22.686,0,0,0,14.891,21.06,4.44,4.44,0,0,0,3.073,0c8.016-2.786,14.3-10.858,14.791-19.326.238-4.14.153-8.3.147-12.45a1.522,1.522,0,0,0-.777-1.1q-7.424-3.376-14.9-6.631a2.123,2.123,0,0,0-1.525-.011c-4.984,2.173-9.94,4.409-14.916,6.6a1.157,1.157,0,0,0-.8,1.235C133.706-156.743,133.688-154.667,133.688-152.591Z" transform="translate(0 0)" fill="#006ce5"/>
    <path id="Path_78147" data-name="Path 78147" d="M227.515-118.339V-135.05c.426.161.743.263,1.046.4,3.881,1.723,7.753,3.47,11.648,5.161a1.387,1.387,0,0,1,1.015,1.5c-.053,3.159-.021,6.32-.021,9.623H227.487Z" transform="translate(-77.37 -28.51)" fill="#006ce5"/>
    <path id="Path_78148" data-name="Path 78148" d="M174.571-53.392v16.615c-6.779-1.13-13.116-8.646-13.586-16.588H174.6Z" transform="translate(-24.455 -93.486)" fill="#006ce5"/>
  </g>
</svg>
