<svg id="Group_11664" data-name="Group 11664" xmlns="http://www.w3.org/2000/svg" width="45.596" height="45.596" viewBox="0 0 45.596 45.596">
  <path id="Path_65994" data-name="Path 65994" d="M2245.8,2230.034V2201.5h45.5v.321q0,13.822-.012,27.643a4.048,4.048,0,0,1-4.215,4.037H2257.52c-2.576,0-5.153.012-7.73,0a4.009,4.009,0,0,1-3.812-2.743C2245.931,2230.521,2245.871,2230.283,2245.8,2230.034Zm18.821-3.194a1.447,1.447,0,0,0,1.27-1.033c2.007-4.714,4.037-9.428,6.056-14.142.606-1.413,1.223-2.826,1.817-4.239a1.339,1.339,0,0,0-.962-1.887,1.394,1.394,0,0,0-1.543.985q-3.206,7.5-6.424,15c-.487,1.14-.986,2.28-1.461,3.42A1.326,1.326,0,0,0,2264.621,2226.839Zm-8.585-10.663c.178-.143.309-.261.451-.368,1.591-1.27,3.194-2.553,4.785-3.823a1.339,1.339,0,1,0-1.65-2.09l-6.412,5.129a1.346,1.346,0,0,0,0,2.3q3.188,2.565,6.376,5.106a1.34,1.34,0,1,0,1.675-2.066c-1.033-.831-2.078-1.662-3.123-2.494C2257.448,2217.316,2256.76,2216.758,2256.035,2216.177Zm25.042,0c-.178.154-.308.261-.439.356-1.591,1.282-3.194,2.553-4.785,3.824a1.344,1.344,0,1,0,1.662,2.089q3.188-2.547,6.376-5.106a1.356,1.356,0,0,0,.012-2.315l-6.412-5.129a1.335,1.335,0,1,0-1.651,2.078c1.33,1.068,2.66,2.125,3.99,3.194C2280.235,2215.488,2280.626,2215.808,2281.077,2216.177Z" transform="translate(-2245.8 -2188.094)" fill="#006ce5"/>
  <path id="Path_65995" data-name="Path 65995" d="M2245.8,2099.963v-7.2c.024-.059.048-.107.071-.166a3.99,3.99,0,0,1,4.215-3.3h37.059a4,4,0,0,1,4.168,4.167v6.044c0,.143-.012.284-.024.451Zm34.755-2.66h3.812a1.365,1.365,0,0,0,1.52-1.318,1.349,1.349,0,0,0-1.5-1.342h-7.671a1.338,1.338,0,1,0-.023,2.66C2277.979,2097.3,2279.273,2097.291,2280.555,2097.3Zm-28-.012a1.336,1.336,0,1,0-1.318-1.33A1.325,1.325,0,0,0,2252.556,2097.291Zm6.661-1.341a1.33,1.33,0,1,0-1.306,1.341A1.332,1.332,0,0,0,2259.218,2095.95Zm5.331.036a1.336,1.336,0,1,0-1.342,1.318A1.35,1.35,0,0,0,2264.549,2095.985Z" transform="translate(-2245.8 -2089.217)" fill="#006ce5"/>
  <path id="Path_65996" data-name="Path 65996" d="M2245.8,2099.346h45.489c.012-.166.024-.309.024-.451v-6.044a4,4,0,0,0-4.168-4.168h-37.059a3.99,3.99,0,0,0-4.216,3.3.992.992,0,0,1-.071.166V2088.6h45.6v45.6h-45.6v-3.645c.071.238.131.487.2.725a4.009,4.009,0,0,0,3.812,2.742c2.576.012,5.153,0,7.73,0H2287.1a4,4,0,0,0,4.073-2.98,4.547,4.547,0,0,0,.142-1.056q.018-13.821.012-27.643v-.32h-45.5C2245.8,2101.127,2245.8,2100.237,2245.8,2099.346Z" transform="translate(-2245.8 -2088.6)" fill="none"/>
  <path id="Path_65997" data-name="Path 65997" d="M2394.076,2256.639a1.34,1.34,0,0,1-1.259-1.9c.475-1.152.974-2.28,1.46-3.42q3.205-7.5,6.424-15a1.407,1.407,0,0,1,1.544-.986,1.332,1.332,0,0,1,.962,1.888c-.594,1.413-1.211,2.826-1.817,4.239l-6.056,14.142A1.436,1.436,0,0,1,2394.076,2256.639Z" transform="translate(-2375.256 -2217.894)" fill="none"/>
  <path id="Path_65998" data-name="Path 65998" d="M2306.168,2275.57c.724.582,1.413,1.14,2.1,1.686,1.045.831,2.078,1.663,3.123,2.493a1.34,1.34,0,1,1-1.674,2.066q-3.188-2.547-6.376-5.106a1.34,1.34,0,0,1,0-2.3l6.412-5.13a1.335,1.335,0,0,1,1.971.107,1.349,1.349,0,0,1-.321,1.983c-1.591,1.282-3.194,2.553-4.785,3.823C2306.477,2275.309,2306.346,2275.427,2306.168,2275.57Z" transform="translate(-2295.933 -2247.488)" fill="none"/>
  <path id="Path_65999" data-name="Path 65999" d="M2499.346,2275.583c-.451-.356-.843-.677-1.247-1.009-1.33-1.069-2.66-2.125-3.99-3.194a1.349,1.349,0,0,1-.321-1.983,1.327,1.327,0,0,1,1.971-.095l6.412,5.129a1.356,1.356,0,0,1-.012,2.316c-2.126,1.7-4.251,3.408-6.376,5.106a1.345,1.345,0,1,1-1.663-2.09c1.591-1.282,3.194-2.553,4.785-3.823C2499.038,2275.833,2499.157,2275.726,2499.346,2275.583Z" transform="translate(-2464.069 -2247.502)" fill="none"/>
  <path id="Path_66000" data-name="Path 66000" d="M2498.93,2136.86h-3.859a1.338,1.338,0,1,1,.024-2.66h7.671a1.34,1.34,0,1,1-.024,2.66Q2500.836,2136.878,2498.93,2136.86Z" transform="translate(-2464.175 -2128.786)" fill="none"/>
  <path id="Path_66001" data-name="Path 66001" d="M2292.83,2136.771a1.336,1.336,0,1,1,1.33-1.318A1.351,1.351,0,0,1,2292.83,2136.771Z" transform="translate(-2286.074 -2128.696)" fill="none"/>
  <path id="Path_66002" data-name="Path 66002" d="M2338.971,2135.518a1.336,1.336,0,1,1-1.341-1.318A1.351,1.351,0,0,1,2338.971,2135.518Z" transform="translate(-2325.554 -2128.786)" fill="none"/>
  <path id="Path_66003" data-name="Path 66003" d="M2383.87,2135.553a1.336,1.336,0,1,1-1.306-1.353A1.352,1.352,0,0,1,2383.87,2135.553Z" transform="translate(-2365.121 -2128.785)" fill="none"/>
</svg>
