<svg xmlns="http://www.w3.org/2000/svg" width="276.172" height="405.508" viewBox="0 0 276.172 405.508"><path d="M142.461-130.43a143.734,143.734,0,0,1-10.117,54.141A132.163,132.163,0,0,1,104.18-32.676,130.31,130.31,0,0,1,61.25-3.691Q36.367,6.836,6.836,6.836q-33.086,0-59.2-12.3a119.493,119.493,0,0,1-44.16-35.684q-18.047-23.379-27.617-57.285t-9.57-76.836q0-50.586,12.441-91.738t35.547-70.41A159.666,159.666,0,0,1-29.8-382.676q32.813-16,73.828-16,45.391,0,70.547,10.664v72.188a129.368,129.368,0,0,0-65.078-16.953q-21.875,0-39.648,8.477a87.639,87.639,0,0,0-30.488,24.063q-12.715,15.586-19.961,37.6T-48.4-213.555h1.641q27.891-38.555,82.3-38.555,24.336,0,44.023,8.75A95.506,95.506,0,0,1,113.2-218.613q13.945,16,21.6,38.418T142.461-130.43Zm-84.492,5.469q0-63.164-51.68-63.164a50.708,50.708,0,0,0-21.328,4.375,47.453,47.453,0,0,0-16.406,12.3,56.14,56.14,0,0,0-10.527,18.73,73.618,73.618,0,0,0-3.691,23.926,92.538,92.538,0,0,0,3.828,27.07,71.894,71.894,0,0,0,10.8,22.012A53.486,53.486,0,0,0-14.492-64.8,42.22,42.22,0,0,0,6.836-59.336a46.174,46.174,0,0,0,21.191-4.785A47.45,47.45,0,0,0,44.16-77.52,61.582,61.582,0,0,0,54.414-98.3,94.793,94.793,0,0,0,57.969-124.961Z" transform="translate(133.711 398.672)" fill="#0377f9"/></svg>