<svg xmlns="http://www.w3.org/2000/svg" width="265.607" height="405.079" viewBox="0 0 265.607 405.079"><path d="M-44.453-72.792H124.469V0H-140.583V-30.006q0-30.562,10.28-54.872a182.089,182.089,0,0,1,25.838-43.62A224.124,224.124,0,0,1-70.43-162.671q18.476-14.864,35.146-26.811,17.5-12.5,30.7-23.894a174.943,174.943,0,0,0,22.227-22.643A86.086,86.086,0,0,0,31.117-258.8a67.755,67.755,0,0,0,4.445-24.588q0-25.561-14.447-38.619T-23.06-335.065q-51.4,0-98.353,40.841v-77.237q51.955-33.618,117.245-33.618,30.284,0,54.316,7.918t40.7,22.643a96.574,96.574,0,0,1,25.422,35.7q8.752,20.976,8.752,46.815,0,27.505-8.474,48.9a150.256,150.256,0,0,1-22.5,38.9,204.136,204.136,0,0,1-32.367,32.09q-18.337,14.586-38.063,28.2-13.336,9.446-25.7,18.754a243.638,243.638,0,0,0-21.81,18.337,99.541,99.541,0,0,0-15,17.642Q-44.453-80.571-44.453-72.792Z" transform="translate(140.583 405.079)" fill="#0377f9"/></svg>