<svg xmlns="http://www.w3.org/2000/svg" width="249.476" height="404.784" viewBox="0 0 249.476 404.784"><path d="M-128.832-12.829V-87.89q39.3,28.66,91.711,28.66,33.027,0,51.451-14.193T32.754-113q0-26.2-22.791-40.4t-62.642-14.193h-36.3v-66.054h33.573q76.426,0,76.426-50.769,0-47.766-58.684-47.766-39.3,0-76.426,25.384v-70.421q41.215-20.744,96.078-20.744,60.049,0,93.485,27.022t33.436,70.148q0,76.7-77.791,96.078v1.365q41.488,5.186,65.508,30.161t24.02,61.277q0,54.863-40.124,86.8T-30.3,6.824Q-90.892,6.824-128.832-12.829Z" transform="translate(128.832 397.96)" fill="#0377f9"/></svg>