<svg id="Group_26915" data-name="Group 26915" xmlns="http://www.w3.org/2000/svg" width="40.001" height="40.001" viewBox="0 0 40.001 40.001">
  <path id="Path_82314" data-name="Path 82314" d="M5,21a3.75,3.75,0,1,1,7.5,0H15V16.913a1.272,1.272,0,0,1,1.881-1.079A1.26,1.26,0,0,0,18.75,14.75a1.276,1.276,0,0,0-1.869-1.084A1.265,1.265,0,0,1,15,12.588V6H3.75A3.755,3.755,0,0,0,0,9.75V21Z" transform="translate(0 1.5)" fill="#006ce5"/>
  <path id="Path_82315" data-name="Path 82315" d="M15,30.75a3.75,3.75,0,0,1,0-7.5v-2.5H10.913a1.263,1.263,0,0,1-1.079-1.883A1.261,1.261,0,0,0,8.75,17a1.278,1.278,0,0,0-1.084,1.868A1.263,1.263,0,0,1,6.588,20.75H0V32a3.755,3.755,0,0,0,3.75,3.75H15Z" transform="translate(0 4.251)" fill="#006ce5"/>
  <path id="Path_82316" data-name="Path 82316" d="M24.75,25a3.75,3.75,0,0,1-7.5,0h-2.5v4.088a1.27,1.27,0,0,1-1.881,1.079,1.249,1.249,0,1,0,0,2.168,1.27,1.27,0,0,1,1.881,1.079V40H26a3.755,3.755,0,0,0,3.75-3.75V25ZM33.5,0H21a1.25,1.25,0,0,0-1.25,1.25V6.588a1.264,1.264,0,0,0,1.883,1.079,1.248,1.248,0,1,1,0,2.168,1.269,1.269,0,0,0-1.883,1.079V16.25A1.25,1.25,0,0,0,21,17.5h3.75a3.75,3.75,0,0,0,7.5,0H36a1.25,1.25,0,0,0,1.25-1.25V3.75A3.755,3.755,0,0,0,33.5,0Z" transform="translate(2.75)" fill="#006ce5"/>
</svg>
