<svg id="Group_26913" data-name="Group 26913" xmlns="http://www.w3.org/2000/svg" width="38.246" height="38.246" viewBox="0 0 38.246 38.246">
  <path id="Path_82312" data-name="Path 82312" d="M28.087,36.005H23.605V31.523H14.641v4.482H10.159a1.12,1.12,0,0,0,0,2.241H28.087a1.12,1.12,0,1,0,0-2.241ZM37.126,0H1.12A1.121,1.121,0,0,0,0,1.12V28.087a1.121,1.121,0,0,0,1.12,1.12H37.126a1.121,1.121,0,0,0,1.12-1.12V1.12A1.121,1.121,0,0,0,37.126,0Zm-6.8,13.521h2.241a1.12,1.12,0,0,1,0,2.241H30.324a1.12,1.12,0,0,1,0-2.241Zm-7.5-7.056A1.12,1.12,0,1,1,24.4,4.88l2.237,2.237a1.12,1.12,0,0,1,0,1.585l-2.247,2.247A1.12,1.12,0,0,1,22.81,9.364l1.455-1.455ZM17,9.659l2.237-4.482a1.12,1.12,0,0,1,2.005,1L19.009,10.66a1.12,1.12,0,1,1-2.005-1ZM11.577,7.127,13.824,4.88a1.12,1.12,0,1,1,1.585,1.585L13.953,7.92,15.4,9.364a1.12,1.12,0,1,1-1.585,1.585L11.577,8.712a1.121,1.121,0,0,1,0-1.585Zm-1.414,6.393H25.85a1.12,1.12,0,0,1,0,2.241H10.163a1.12,1.12,0,0,1,0-2.241Zm-4.482,11.2a1.12,1.12,0,1,1,1.12-1.12A1.121,1.121,0,0,1,5.681,24.726Zm0-4.482a1.12,1.12,0,1,1,1.12-1.12A1.121,1.121,0,0,1,5.681,20.244Zm0-4.482a1.12,1.12,0,1,1,1.12-1.12A1.121,1.121,0,0,1,5.681,15.762ZM12.4,24.726H10.155a1.12,1.12,0,0,1,0-2.241H12.4a1.12,1.12,0,0,1,0,2.241Zm20.165,0H16.886a1.12,1.12,0,0,1,0-2.241H32.565a1.12,1.12,0,0,1,0,2.241Zm0-4.482H10.159a1.12,1.12,0,0,1,0-2.241h22.41a1.12,1.12,0,0,1,0,2.241Z" fill="#006ce5"/>
</svg>
