<svg xmlns="http://www.w3.org/2000/svg" width="46.295" height="38.244" viewBox="0 0 46.295 38.244">
  <g id="Group_26916" data-name="Group 26916" transform="translate(-8.001 -51.138)">
    <path id="Path_82317" data-name="Path 82317" d="M54.274,72a6.668,6.668,0,0,1-6.368,6.94q-.155.007-.309.007A6.539,6.539,0,0,1,46.2,78.8a17.959,17.959,0,0,1-12.14,7.955,3.882,3.882,0,1,1-.124-2.82,15.125,15.125,0,1,0-16-7.5.918.918,0,0,1,.094.235,1.4,1.4,0,0,1-.777,1.762,6.594,6.594,0,0,1-2.559.516q-.155,0-.311-.007A6.667,6.667,0,0,1,8.023,72c.03-.7.013-1.331,0-1.938-.015-.571-.031-1.162,0-1.779a6.674,6.674,0,0,1,6.7-6.374,17.923,17.923,0,0,1,32.867,0,6.668,6.668,0,0,1,6.7,6.373c.026.617.01,1.208,0,1.779-.016.607-.033,1.235,0,1.938ZM42.89,69.063a11.747,11.747,0,0,1-14.758,11.35l-4.753,2.745a1.4,1.4,0,0,1-2.052-1.575l1.215-4.531A11.743,11.743,0,1,1,42.89,69.063Zm-15.007,0a1.4,1.4,0,0,0-1.4-1.4h0a1.4,1.4,0,1,0,1.4,1.4Zm4.665,0a1.324,1.324,0,0,0-.007-.137,1.305,1.305,0,0,0-.02-.136,1.059,1.059,0,0,0-.034-.133c-.013-.044-.029-.087-.046-.13a1.148,1.148,0,0,0-.059-.123,1.347,1.347,0,0,0-.07-.118,1.365,1.365,0,0,0-.082-.111,1.178,1.178,0,0,0-.092-.1c-.032-.033-.066-.063-.1-.093s-.073-.056-.111-.081a1.346,1.346,0,0,0-.118-.07c-.04-.021-.082-.041-.124-.059a1.442,1.442,0,0,0-.4-.1,1.435,1.435,0,0,0-.411.02,1.326,1.326,0,0,0-.133.035,1.226,1.226,0,0,0-.129.046c-.042.018-.084.037-.124.059s-.079.045-.118.07a1.362,1.362,0,0,0-.213.175,1.2,1.2,0,0,0-.092.1,1.353,1.353,0,0,0-.081.111,1.332,1.332,0,0,0-.071.118,1.255,1.255,0,0,0-.058.123,1.371,1.371,0,0,0-.047.13c-.013.043-.024.088-.034.133a1.333,1.333,0,0,0-.021.136c0,.046-.007.091-.007.137s0,.092.007.138a1.354,1.354,0,0,0,.021.135c.009.045.021.09.034.133a1.355,1.355,0,0,0,.047.129,1.269,1.269,0,0,0,.058.124c.021.04.046.079.071.118a1.338,1.338,0,0,0,.081.11,1.368,1.368,0,0,0,.093.1c.033.032.066.063.1.092a1.194,1.194,0,0,0,.11.081c.038.025.077.049.118.071a1.546,1.546,0,0,0,.253.1c.044.013.089.024.133.034a1.334,1.334,0,0,0,.273.027,1.408,1.408,0,0,0,.989-.41,1.515,1.515,0,0,0,.175-.213q.038-.057.07-.118c.021-.04.041-.082.059-.124a1.3,1.3,0,0,0,.046-.129,1.117,1.117,0,0,0,.034-.133,1.326,1.326,0,0,0,.02-.135,1.342,1.342,0,0,0,.007-.138Zm4.667,0a1.4,1.4,0,0,0-1.4-1.4h0a1.4,1.4,0,1,0,1.4,1.4Z" transform="translate(0)" fill="#006ce5"/>
  </g>
</svg>
