<svg xmlns="http://www.w3.org/2000/svg" width="38.247" height="38.247" viewBox="0 0 38.247 38.247">
  <g id="Group_26914" data-name="Group 26914" transform="translate(-2.25 -2.25)">
    <path id="Path_82313" data-name="Path 82313" d="M22.416,6.075c0,3.018-6.342,3.825-10.083,3.825S2.25,9.093,2.25,6.075,8.592,2.25,12.333,2.25,22.416,3.057,22.416,6.075Zm-19.638,7.3c2.809,1.933,8.025,2.086,9.555,2.086s6.745-.153,9.485-2.044c.195-.111.4-.236.6-.362V9.76c-2.921,2.017-8.08,2.225-10.083,2.225S5.171,11.763,2.25,9.76v3.3C2.431,13.168,2.612,13.279,2.778,13.376Zm9.555,4.172c-2.031,0-6.884-.236-10.083-2.072V17.2c0,3.018,6.342,3.825,10.083,3.825s10.083-.807,10.083-3.825V15.476C19.273,17.312,14.378,17.549,12.333,17.549Zm18.08,4.172c-3.741,0-10.083.807-10.083,3.825s6.342,3.825,10.083,3.825S40.5,28.564,40.5,25.546,34.155,21.721,30.413,21.721ZM20.859,32.847c2.809,1.933,8.025,2.086,9.555,2.086s6.745-.153,9.485-2.044c.195-.111.4-.236.6-.362v-3.3c-2.921,2.017-8.08,2.225-10.083,2.225s-7.163-.223-10.083-2.225v3.3C20.511,32.639,20.692,32.75,20.859,32.847Zm9.555,4.172c-2.031,0-6.884-.236-10.083-2.072v1.725c0,3.018,6.342,3.825,10.083,3.825S40.5,39.69,40.5,36.672V34.947C37.353,36.783,32.458,37.02,30.413,37.02ZM31.8,18.592v-8A3.822,3.822,0,0,0,27.98,6.77H25.546a1.043,1.043,0,0,0,0,2.086H27.98a1.739,1.739,0,0,1,1.738,1.738v8a1.043,1.043,0,0,0,2.086,0ZM18.244,34.933A1.051,1.051,0,0,0,17.2,33.89H14.767a1.739,1.739,0,0,1-1.738-1.738v-8a1.043,1.043,0,0,0-2.086,0v8a3.822,3.822,0,0,0,3.825,3.825H17.2A1.051,1.051,0,0,0,18.244,34.933Z" transform="translate(0 0)" fill="#006ce5"/>
  </g>
</svg>
