<svg id="shopify" xmlns="http://www.w3.org/2000/svg" width="87.466" height="30.91" viewBox="0 0 87.466 30.91">
  <path id="Path_65443" data-name="Path 65443" d="M33.51,18.261a.3.3,0,0,0-.272-.255c-.109-.017-2.5-.183-2.5-.183L28.921,16c-.164-.183-.527-.129-.664-.09-.017,0-.364.109-.928.292-.55-1.588-1.522-3.046-3.234-3.046h-.146a2.121,2.121,0,0,0-1.6-.928c-3.987.017-5.888,4.991-6.488,7.532l-2.787.855c-.855.272-.887.292-1,1.107L9.724,39.845l17.611,3.3,9.545-2.058c0-.017-3.351-22.649-3.369-22.821Zm-7.158-1.75c-.444.146-.957.292-1.493.457V16.64a7.229,7.229,0,0,0-.364-2.414c.892.137,1.493,1.139,1.856,2.286Zm-2.931-2.075a7.391,7.391,0,0,1,.4,2.67v.164l-3.079.957c.6-2.25,1.713-3.362,2.679-3.781Zm-1.183-1.107a.943.943,0,0,1,.51.164c-1.285.6-2.642,2.108-3.225,5.132l-2.435.746c.687-2.294,2.29-6.047,5.149-6.047Z" transform="translate(-9.724 -12.231)" fill="#95bf47"/>
  <path id="Path_65444" data-name="Path 65444" d="M35.876,18.554c-.109-.017-2.5-.183-2.5-.183l-1.82-1.82a.356.356,0,0,0-.255-.109L29.976,43.686l9.545-2.058-3.371-22.8a.329.329,0,0,0-.272-.272Z" transform="translate(-12.362 -12.779)" fill="#5e8e3e"/>
  <path id="Path_65445" data-name="Path 65445" d="M24.716,24.87l-1.185,3.5a5.482,5.482,0,0,0-2.294-.548c-1.859,0-1.948,1.165-1.948,1.458,0,1.592,4.171,2.2,4.171,5.956,0,2.95-1.876,4.845-4.39,4.845A6.119,6.119,0,0,1,14.5,38.2l.8-2.679a5.755,5.755,0,0,0,2.933,1.366,1.192,1.192,0,0,0,1.239-1.2c0-2.1-3.424-2.187-3.424-5.61,0-2.879,2.075-5.684,6.247-5.684a5.353,5.353,0,0,1,2.423.478Z" transform="translate(-10.346 -13.815)" fill="#fff"/>
  <path id="Path_65446" data-name="Path 65446" d="M49.742,29.7c-.681-.365-1.033-.681-1.033-1.113,0-.548.478-.9,1.255-.9a4.453,4.453,0,0,1,1.674.366l.628-1.908A3.976,3.976,0,0,0,50,25.7c-2.354,0-3.989,1.348-3.989,3.242a3,3,0,0,0,1.778,2.484c.824.478,1.113.795,1.113,1.294s-.405.916-1.177.916a5.256,5.256,0,0,1-2.209-.588l-.666,1.908a5.086,5.086,0,0,0,2.655.666c2.418,0,4.157-1.19,4.157-3.34a3.142,3.142,0,0,0-1.913-2.589Zm9.649-4.014a3.621,3.621,0,0,0-2.851,1.432L56.5,27.1,57.533,21.7H54.841L52.226,35.467H54.92l.9-4.707c.353-1.778,1.272-2.877,2.131-2.877.6,0,.837.405.837.994a6.139,6.139,0,0,1-.117,1.19l-1.019,5.387h2.694l1.059-5.566a10.028,10.028,0,0,0,.2-1.748c-.013-1.517-.811-2.432-2.209-2.432Zm8.289,0c-3.242,0-5.387,2.929-5.387,6.175a3.518,3.518,0,0,0,3.714,3.766c3.181,0,5.335-2.851,5.335-6.175a3.5,3.5,0,0,0-3.657-3.766Zm-1.322,7.884c-.916,0-1.307-.783-1.307-1.748,0-1.543.795-4.066,2.263-4.066.954,0,1.272.824,1.272,1.622,0,1.657-.8,4.192-2.227,4.192ZM78.23,25.686a3.673,3.673,0,0,0-2.851,1.59h-.04l.159-1.432H73.112l-.548,3.57-1.87,9.86h2.681l.746-3.989h.052a3.107,3.107,0,0,0,1.583.353c3.164,0,5.23-3.242,5.23-6.52.013-1.8-.795-3.425-2.759-3.425ZM75.654,33.61a1.679,1.679,0,0,1-1.113-.393l.445-2.524c.318-1.674,1.19-2.8,2.131-2.8.824,0,1.072.758,1.072,1.479,0,1.754-1.026,4.238-2.531,4.238Zm9.193-11.794a1.531,1.531,0,0,0-1.1.454,1.491,1.491,0,0,0-.435,1.1,1.248,1.248,0,0,0,1.272,1.348h.04a1.522,1.522,0,0,0,1.582-1.557,1.279,1.279,0,0,0-1.348-1.348ZM81.085,35.441h2.694l1.83-9.541h-2.7m9.567-.013H90.591l.092-.445c.159-.916.706-1.74,1.59-1.74a2.931,2.931,0,0,1,.864.13l.52-2.107a3.606,3.606,0,0,0-1.465-.235,4.027,4.027,0,0,0-2.641.9,5.137,5.137,0,0,0-1.566,3.047l-.087.445H86.643L86.25,27.91h1.255l-1.432,7.532h2.7l1.432-7.532h1.858l.365-2.027Zm6.487.013-2.446,6.564h-.04L95.807,25.9H92.968l1.622,8.76a.618.618,0,0,1-.052.445,4.641,4.641,0,0,1-1.465,1.622,6.115,6.115,0,0,1-1.517.758l.746,2.287A6.175,6.175,0,0,0,94.939,38.3a18.1,18.1,0,0,0,3.531-5.349l3.295-7.061H98.958Z" transform="translate(-14.299 -13.437)"/>
</svg>
