<svg xmlns="http://www.w3.org/2000/svg" width="33.895" height="58.988" viewBox="0 0 33.895 58.988">
  <g id="Group_10666" data-name="Group 10666" transform="translate(429.375 84.902)">
    <path id="Path_65210" data-name="Path 65210" d="M-429.375-25.914v-3.03h2.342v-53.89a54.372,54.372,0,0,1,11.913-2.059l5.365-.009a58.164,58.164,0,0,1,11.122,1.816c.622.161.834.389.833,1.066q-.035,26.1-.019,52.2v.909h2.338v2.995Zm22.157-7.528h-10.424v3.217l-6.427,1.08.021.156h23.238l.02-.157-6.428-1.08Zm4.189-27.788h-18.8V-58.6h18.8Zm0,24v-2.619h-18.787v2.619Zm-18.8-35.626h18.787v-2.585h-18.787Zm0,7.136h18.792v-2.6H-421.83Zm0,14.219h18.788v-2.59h-18.788Zm0,7.137h18.8v-2.6h-18.8Z" transform="translate(0 0)" fill="#006ce5"/>
  </g>
</svg>
