<svg xmlns="http://www.w3.org/2000/svg" width="74.046" height="62.851" viewBox="0 0 74.046 62.851">
  <g id="Group_23891" data-name="Group 23891" transform="translate(-1866.645 -104.566)">
    <path id="Path_78213" data-name="Path 78213" d="M2143.059,241.622l3.969,4.336c1.319-.7,1.544-.665,2.521.283q3.349,3.249,6.7,6.5c1,.969,1.007,1.508.043,2.507-.726.752-1.445,1.509-2.18,2.251a1.29,1.29,0,0,1-2.11.026q-3.557-3.435-7.1-6.884c-.784-.762-.819-1.2-.327-1.937l-3.952-4.3a13.783,13.783,0,1,1,2.435-2.775Zm-1.563-7.632a9.837,9.837,0,1,0-9.9,9.812A9.806,9.806,0,0,0,2141.5,233.99Z" transform="translate(-216.318 -99.579)" fill="#006ce5"/>
    <path id="Path_78214" data-name="Path 78214" d="M1879.408,328.145c1.893,0,3.721-.032,5.544.035.264.01.548.465.749.764.1.146.032.407.032.615q0,7.937,0,15.874c0,1.409-.373,1.786-1.757,1.787h-15.6c-1.323,0-1.735-.416-1.736-1.758q0-7.972,0-15.943c0-1.125.264-1.384,1.4-1.385,1.623,0,3.245,0,4.97,0,0,.63,0,1.223,0,1.816,0,1-.007,2,0,2.994s.451,1.436,1.456,1.444q1.741.015,3.481,0a1.287,1.287,0,0,0,1.452-1.463c.013-1.346,0-2.692,0-4.038Z" transform="translate(0 -192.419)" fill="#006ce5"/>
    <path id="Path_78215" data-name="Path 78215" d="M1947.02,180.125c0,1.631,0,3.16,0,4.689,0,1.134.422,1.555,1.553,1.56,1.114.005,2.228.008,3.342,0,1.025-.008,1.489-.466,1.5-1.492.011-1.553,0-3.106,0-4.763h2.093c1.044,0,2.089-.008,3.133,0,.787.008,1.1.306,1.1,1.1q.011,8.285,0,16.57a1.262,1.262,0,0,1-1.43,1.411q-8.111.011-16.221,0a1.288,1.288,0,0,1-1.426-1.432q-.018-8.285,0-16.569c0-.576.24-1.049.862-1.062C1943.324,180.1,1945.13,180.125,1947.02,180.125Z" transform="translate(-63.697 -65.024)" fill="#006ce5"/>
    <path id="Path_78216" data-name="Path 78216" d="M2027.413,332.363a18.278,18.278,0,0,0,4.09,6.034c.587.557,1.257,1.027,1.852,1.577a1.159,1.159,0,0,1,.369.73c.031,1.693.026,3.388.011,5.081a1.264,1.264,0,0,1-1.415,1.425q-8.11.011-16.22,0a1.286,1.286,0,0,1-1.441-1.416q-.019-8.284,0-16.568c0-.609.252-1.076.915-1.086,1.784-.027,3.568-.009,5.449-.009,0,.979,0,1.921,0,2.863,0,.7-.012,1.393.005,2.088a1.2,1.2,0,0,0,1.25,1.294c1.276.032,2.553.03,3.828,0a1.251,1.251,0,0,0,1.309-1.327C2027.424,332.825,2027.413,332.594,2027.413,332.363Z" transform="translate(-127.386 -192.415)" fill="#006ce5"/>
    <path id="Path_78217" data-name="Path 78217" d="M1907.145,498.42c.1,1.5.2,2.871.3,4.345h-.56q-17.136,0-34.271,0c-1.566,0-2.536-.819-2.553-2.132a2.14,2.14,0,0,1,1.864-2.169,5.37,5.37,0,0,1,.833-.042q16.857,0,33.714,0Z" transform="translate(-2.943 -338.982)" fill="#006ce5"/>
    <path id="Path_78218" data-name="Path 78218" d="M2160.643,463.784a6.4,6.4,0,1,1-6.368,6.443A6.416,6.416,0,0,1,2160.643,463.784Zm3,6.406a2.977,2.977,0,0,0-2.933-3,2.989,2.989,0,1,0-.016,5.977A2.974,2.974,0,0,0,2163.644,470.19Z" transform="translate(-247.557 -309.172)" fill="#006ce5"/>
    <path id="Path_78219" data-name="Path 78219" d="M2189.446,118.673l-4.2.56s-.05-.032-.05-.065c0-2.665-.094-5.335.03-8a6.544,6.544,0,0,1,6.6-5.99c0,1.321.009,2.654-.016,3.985,0,.107-.225.259-.372.3a2.409,2.409,0,0,0-1.934,2.6c-.007,2.156-.007,4.312-.012,6.467A.474.474,0,0,1,2189.446,118.673Z" transform="translate(-274.14 -0.519)" fill="#006ce5"/>
    <path id="Path_78220" data-name="Path 78220" d="M2250.791,108.907v-4.336h.957c1.321,0,2.643-.016,3.964.006a2.168,2.168,0,1,1-.034,4.326C2254.061,108.92,2252.444,108.907,2250.791,108.907Z" transform="translate(-330.627 0)" fill="#006ce5"/>
    <path id="Path_78221" data-name="Path 78221" d="M2185.507,433.381v-2.2l4.244.564v1.637Z" transform="translate(-274.438 -281.11)" fill="#006ce5"/>
  </g>
</svg>
