<svg xmlns="http://www.w3.org/2000/svg" width="30.958" height="62.987" viewBox="0 0 30.958 62.987">
  <g id="Group_10665" data-name="Group 10665" transform="translate(-130.175 -25.998)">
    <path id="Path_65204" data-name="Path 65204" d="M159.078,33.035a14.377,14.377,0,0,0-4.782.824A51.67,51.67,0,0,1,159.078,26a51.735,51.735,0,0,1,4.781,7.861A14.415,14.415,0,0,0,159.078,33.035Z" transform="translate(-13.413)" fill="#006ce5"/>
    <g id="Group_10664" data-name="Group 10664" transform="translate(130.175 72.173)">
      <path id="Path_65205" data-name="Path 65205" d="M135.821,138.284c-.457-2.649-.868-5.357-1.219-8.032l-4.427,4v6.9h8.214v0C137.162,141.11,136.1,139.937,135.821,138.284Z" transform="translate(-130.175 -130.146)" fill="#006ce5"/>
      <path id="Path_65206" data-name="Path 65206" d="M185.077,130.013c-.353,2.71-.769,5.455-1.232,8.139a3.144,3.144,0,0,1-2.438,2.858v.012h8.214v-6.9Z" transform="translate(-158.664 -130.013)" fill="#006ce5"/>
    </g>
    <path id="Subtraction_1" data-name="Subtraction 1" d="M15.731,48.52H5.118l-.041,0H5.053c-1.23-.041-2.286-1.219-2.569-2.866-.46-2.667-.869-5.37-1.218-8.032A132.269,132.269,0,0,1,0,21.162,43.663,43.663,0,0,1,1.416,10.357,54.644,54.644,0,0,1,4.632,1.314a13.427,13.427,0,0,1,11.585,0,54.63,54.63,0,0,1,3.216,9.043,43.66,43.66,0,0,1,1.416,10.805A132.077,132.077,0,0,1,19.6,37.512c-.348,2.677-.763,5.415-1.231,8.138-.275,1.594-1.255,2.743-2.438,2.859C15.869,48.514,15.8,48.52,15.731,48.52ZM10.425,10A5.108,5.108,0,1,0,15.532,15.1,5.114,5.114,0,0,0,10.425,10Z" transform="translate(135.229 34.661)" fill="#006ce5" stroke="rgba(0,0,0,0)" stroke-miterlimit="10" stroke-width="1"/>
    <path id="Rectangle_8090" data-name="Rectangle 8090" d="M.889,0H17.471a.888.888,0,0,1,.888.888v0a.888.888,0,0,1-.888.888H.889A.889.889,0,0,1,0,.889v0A.889.889,0,0,1,.889,0Z" transform="translate(136.482 84.818)" fill="#006ce5"/>
    <path id="Path_65208" data-name="Path 65208" d="M163.241,165.121a.49.49,0,0,1-.422.538H149.263a.49.49,0,0,1-.422-.538v-.7a.49.49,0,0,1,.422-.538h13.557a.49.49,0,0,1,.422.538Z" transform="translate(-10.38 -76.674)" fill="#006ce5"/>
  </g>
</svg>
