<svg id="Group_22421" data-name="Group 22421" xmlns="http://www.w3.org/2000/svg" width="48.208" height="50.801" viewBox="0 0 48.208 50.801">
  <path id="Path_77512" data-name="Path 77512" d="M1264.146,404.891c-1.411-1.417-2.882-2.879-4.331-4.363a1.318,1.318,0,0,0-1.041-.437q-10.539.022-21.079,0a1.192,1.192,0,0,0-.938.388c-1.48,1.51-2.98,3-4.441,4.468l-2-2.055,2.7-2.614-.049-.169h-.535q-3.324,0-6.647,0c-1.134,0-1.653-.511-1.653-1.638q0-16.767,0-33.534c0-1.189.523-1.71,1.723-1.71q22.367,0,44.732,0c1.234,0,1.75.516,1.75,1.743q0,16.707,0,33.414c0,1.2-.511,1.711-1.707,1.712-2.353,0-4.706,0-7.044,0l2.686,2.659Zm-37.161-7.671h42.488v-31.1h-42.488Z" transform="translate(-1224.133 -354.149)"/>
  <path id="Path_77513" data-name="Path 77513" d="M1265.235,358.735V361.5h-33.973v-2.761Z" transform="translate(-1224.133 -354.149)"/>
  <path id="Path_77514" data-name="Path 77514" d="M1251.614,354.149v2.765h-6.728v-2.765Z" transform="translate(-1224.133 -354.149)"/>
  <path id="Path_77515" data-name="Path 77515" d="M1256.456,380.2l2.766-2.757a4.629,4.629,0,1,1,8.27-1.824,4.533,4.533,0,0,1-5.117,3.642,1.321,1.321,0,0,0-1.334.46c-.8.859-1.643,1.687-2.494,2.5a.984.984,0,0,0-.333.993,4.608,4.608,0,1,1-9.122,1.3.7.7,0,0,0-.567-.7c-1.1-.355-2.185-.756-3.288-1.1a.786.786,0,0,0-.651.144,4.684,4.684,0,0,1-4.965,1.168.643.643,0,0,0-.555.076c-.662.77-1.286,1.573-1.93,2.376a4.69,4.69,0,1,1-2.9-1.642.713.713,0,0,0,.811-.295q.854-1.119,1.769-2.188a.762.762,0,0,0,.143-.9,4.388,4.388,0,0,1,.953-4.976,4.328,4.328,0,0,1,4.89-1.115,4.438,4.438,0,0,1,3.017,4.078.6.6,0,0,0,.47.629c1.081.347,2.148.736,3.229,1.085a.614.614,0,0,0,.509-.07C1252.21,379.013,1253.879,378.779,1256.456,380.2Zm-21.147,9.214a1.755,1.755,0,0,0-1.774-1.781,1.787,1.787,0,0,0-1.8,1.776,1.825,1.825,0,0,0,1.79,1.8A1.788,1.788,0,0,0,1235.309,389.414Zm25.857-14.748a1.787,1.787,0,0,0,1.758,1.821,1.787,1.787,0,1,0,0-3.574A1.768,1.768,0,0,0,1261.166,374.666Zm-5.734,9.263a1.787,1.787,0,0,0-1.793-1.786,1.788,1.788,0,0,0,.01,3.576A1.774,1.774,0,0,0,1255.432,383.929Zm-12.444-4.257a1.737,1.737,0,0,0-1.714-1.771,1.772,1.772,0,0,0-1.828,1.8,1.771,1.771,0,0,0,3.542-.024Z" transform="translate(-1224.133 -354.149)" fill="#186adf"/>
</svg>
