<svg xmlns="http://www.w3.org/2000/svg" width="73.375" height="62.989" viewBox="0 0 73.375 62.989">
  <path id="Path_82322" data-name="Path 82322" d="M23.147,58.136h7.186V75.365H23.147ZM37.494,75.365H44.68V50.985H37.494Zm14.348,0h7.186V44.013H51.842Zm14.347,0h7.186V37.22H66.189ZM56.1,87.385,53.673,81.3a.591.591,0,0,1,.04-.52q.171-.291.334-.587H46.672A19.639,19.639,0,1,1,31.031,48.1L38.5,42.932q-.264-.075-.525-.143a.591.591,0,0,1-.395-.339L35,36.434a31.575,31.575,0,0,0-7.012,0L25.4,42.45a.591.591,0,0,1-.395.339,25.72,25.72,0,0,0-6.565,2.724.592.592,0,0,1-.519.039l-6.084-2.429a31.681,31.681,0,0,0-4.958,4.958l2.429,6.083a.592.592,0,0,1-.039.519A25.7,25.7,0,0,0,6.551,61.25a.591.591,0,0,1-.339.4L.195,64.227a31.654,31.654,0,0,0,0,7.012l6.016,2.583a.592.592,0,0,1,.339.4,25.7,25.7,0,0,0,2.723,6.565.592.592,0,0,1,.039.519L6.883,87.385a31.662,31.662,0,0,0,4.958,4.958l6.084-2.429a.592.592,0,0,1,.519.039,25.621,25.621,0,0,0,6.564,2.722.591.591,0,0,1,.4.339l2.583,6.018a31.576,31.576,0,0,0,7.012,0l2.583-6.018a.591.591,0,0,1,.4-.339,25.639,25.639,0,0,0,6.564-2.722.592.592,0,0,1,.519-.039l6.083,2.429A31.633,31.633,0,0,0,56.1,87.385Z" transform="translate(0 -36.239)" fill="#006ce5"/>
</svg>
