<svg xmlns="http://www.w3.org/2000/svg" width="17.036" height="16.548" viewBox="0 0 17.036 16.548">
  <path id="Path_65840" data-name="Path 65840" d="M-914.584-258.891a.942.942,0,0,1-.869-1.219c.377-1.228.764-2.452,1.147-3.678.21-.673.422-1.345.627-2.019a.214.214,0,0,1,.218-.178c1.5-.14,3.008-.288,4.511-.433.708-.068,1.417-.137,2.125-.2.386-.035.618-.226.632-.535a.538.538,0,0,0-.515-.578c-.938-.094-1.877-.18-2.815-.271l-3.3-.322c-.211-.021-.423-.043-.634-.054a.213.213,0,0,1-.224-.173q-.88-2.831-1.767-5.66a.88.88,0,0,1,.267-1,.887.887,0,0,1,1.031-.108l11.518,5.578c1.2.579,2.39,1.161,3.587,1.736a.88.88,0,0,1,.577.839.883.883,0,0,1-.577.821q-7.52,3.638-15.039,7.279A4.724,4.724,0,0,1-914.584-258.891Z" transform="translate(915.5 275.44)" fill="#186adf"/>
</svg>
