<svg id="Group_10432" data-name="Group 10432" xmlns="http://www.w3.org/2000/svg" width="142.258" height="40.908" viewBox="0 0 142.258 40.908">
  <path id="Path_65017" data-name="Path 65017" d="M237.826,167.48a3.126,3.126,0,1,1,0,6.251h.041l-1.2.041h-1.678l-20.49.04a.482.482,0,0,1-.48-.6l.838-3.326h-.8l-2.036,3.768a.527.527,0,0,1-.4.24l-30.236.04a.443.443,0,0,1-.439-.521l.278-2.8c-3.075,2.643-7.31,3.245-9.826,3.245H159.019a.448.448,0,0,1-.439-.642l.439-1.322a13.638,13.638,0,0,1-8.427,2.645c-4.313,0-6.87-1.6-7.947-4.087a16.286,16.286,0,0,1-14.34,3.646l-1.478,4.569a.439.439,0,0,1-.839.081l-8.508-13.785a.466.466,0,0,1,.24-.681l12.343-5.091c-.041-.079-.081-.2-.121-.28a12.408,12.408,0,0,1-.359-6.171c.639-2.724,4.033-9.5,13.1-9.1a14.9,14.9,0,0,1,5.832,1.723l.478-1.161a.594.594,0,0,1,.48-.321l28.919-.081a10.307,10.307,0,0,1,5.67,1.523l.121-1a.435.435,0,0,1,.439-.4h51.486a.512.512,0,0,1,.48.442l.639,5.088a19.545,19.545,0,0,1,5.751-4.608,12.221,12.221,0,0,1,5.033-1.042h.68l1.716-5.33a.438.438,0,0,1,.839-.079l8.348,13.545a.46.46,0,0,1-.24.681l-14.5,5.851c-.439.2-.758-.121-.639-.561l.44-1.363a36.118,36.118,0,0,0-3.076,3.566,33.575,33.575,0,0,0-3.634,6.932l-.119.361" transform="translate(-117.407 -138.11)" fill="#005543"/>
  <path id="Path_65018" data-name="Path 65018" d="M216.373,150.224l-.958,3.125,8.828-3.566-5.033-8.176-1,3.126s-4.114-.4-6.35.721a18.472,18.472,0,0,0-5.473,4.489,46.9,46.9,0,0,0-3,4.008l-1.2-9.218h-6.431l2.2,14.387-3.835,10.98h7.59s1.678-4.809,1.837-5.288a34.814,34.814,0,0,1,3.954-7.575c2.757-3.606,6.112-7.093,8.867-7.012" transform="translate(-85.21 -136.642)" fill="#fff200"/>
  <path id="Path_65019" data-name="Path 65019" d="M152.987,143.978l-5.312,15.95a12.427,12.427,0,0,1-.919,2.2,2.192,2.192,0,0,1-2,1.2c-.919,0-1.158-.521-1.158-1.242a9.1,9.1,0,0,1,.6-2.2l5.312-15.909h-6.83l-5.551,16.551c-1,3.045-2.4,9.177,5.511,9.177s10.623-6.13,11.664-9.177l5.511-16.551h-6.83" transform="translate(-109.457 -135.647)" fill="#fff"/>
  <path id="Path_65020" data-name="Path 65020" d="M181.78,169.164l13.5-25.327h-6.631l-7.389,15.71c.319-1.844,2.716-15.71,2.716-15.71H178.1s-6.79,13.946-7.59,15.829l3-15.829h-6.751l-2.8,25.327h6.63l7.31-15.828c-.359,1.722-2.756,15.828-2.756,15.828h6.631m14.061-9.256h3.434l1.518-9.258-4.952,9.258m2.355-16.071H207.5l-3,25.367h-7.191l.92-4.087h-5.074l-2.2,4.008h-6.35Z" transform="translate(-97.868 -135.706)" fill="#fff200"/>
  <path id="Path_65021" data-name="Path 65021" d="M124.874,171.724l-5.193-8.456,9.147-3.766-1,3.166a6.014,6.014,0,0,0,3.676.84,3.258,3.258,0,0,0,2.756-1.482,3.211,3.211,0,0,0-.958-2.845,10.779,10.779,0,0,1-2.117-3.446,10.222,10.222,0,0,1-.278-4.81c.518-2.083,3.194-7.614,10.7-7.253a12.356,12.356,0,0,1,5.233,1.644l-2.8,5.329c-3.155-1.884-5.071-1.2-5.791.521s.48,3.366,1.6,4.689c1.4,1.6,2.517,3.326,2.517,5.369,0,4.769-5.114,8.616-11.384,8.616a14.029,14.029,0,0,1-5.152-.963l-.958,2.845m35.787-2.4h9.786c3.436,0,9.026-1.163,10.746-6.372a5.862,5.862,0,0,0-2.636-6.813,8.585,8.585,0,0,0,4.434-5.09c1.557-5.49-1.718-7.053-5.552-7.053H169.09l-8.429,25.327m10.466-10.1c2.4-.119,3.835.8,3.434,2.445a2.844,2.844,0,0,1-3.115,2.164h-1.878l1.559-4.608Zm1.278-5.329,1.518-4.408h1.157c.958,0,2.717.16,1.878,2.324a3.762,3.762,0,0,1-3.595,2.084Z" transform="translate(-116.453 -135.782)" fill="#fff"/>
  <path id="Path_65022" data-name="Path 65022" d="M202.326,161.259v-.441h.28c.16,0,.319.041.319.2,0,.241-.16.241-.319.241h-.28m0,.2h.24l.4.6h.24l-.4-.6a.394.394,0,0,0,.359-.4c0-.321-.159-.441-.518-.441h-.52v1.442h.2v-.6Zm.28,1.163a1.257,1.257,0,0,0,1.239-1.283,1.259,1.259,0,0,0-2.517,0A1.264,1.264,0,0,0,202.606,162.622Zm-1.038-1.283a1.019,1.019,0,1,1,2.037,0,1.021,1.021,0,1,1-2.037,0Z" transform="translate(-82.187 -128.883)" fill="#fff200"/>
</svg>
