<svg xmlns="http://www.w3.org/2000/svg" width="148.875" height="42.811" viewBox="0 0 148.875 42.811">
  <g id="Group_9931" data-name="Group 9931" transform="translate(0 0)">
    <path id="Path_64302" data-name="Path 64302" d="M243.426,168.846a3.271,3.271,0,1,1,0,6.542h.043l-1.254.043h-1.756l-21.443.042a.5.5,0,0,1-.5-.63l.877-3.481h-.836l-2.131,3.943a.552.552,0,0,1-.417.251l-31.643.042a.463.463,0,0,1-.459-.545l.291-2.934c-3.218,2.766-7.65,3.4-10.283,3.4H160.955a.469.469,0,0,1-.459-.672l.459-1.383a14.273,14.273,0,0,1-8.819,2.768c-4.514,0-7.189-1.677-8.317-4.277a17.043,17.043,0,0,1-15.007,3.815l-1.547,4.781a.459.459,0,0,1-.878.085l-8.9-14.426a.488.488,0,0,1,.251-.713l12.917-5.328c-.043-.083-.085-.208-.126-.293a12.985,12.985,0,0,1-.376-6.458c.669-2.851,4.221-9.939,13.71-9.52a15.591,15.591,0,0,1,6.1,1.8l.5-1.215a.621.621,0,0,1,.5-.336l30.264-.085a10.786,10.786,0,0,1,5.934,1.594l.126-1.049a.455.455,0,0,1,.459-.419h53.881a.536.536,0,0,1,.5.462l.669,5.325a20.454,20.454,0,0,1,6.019-4.823,12.789,12.789,0,0,1,5.267-1.09h.712l1.8-5.577a.458.458,0,0,1,.878-.083l8.736,14.175a.481.481,0,0,1-.251.713l-15.174,6.123c-.459.209-.793-.126-.669-.587l.461-1.426a37.793,37.793,0,0,0-3.22,3.732,35.138,35.138,0,0,0-3.8,7.255l-.125.377" transform="translate(-117.407 -138.11)" fill="#001c37"/>
    <path id="Path_64303" data-name="Path 64303" d="M217.408,150.625l-1,3.27,9.238-3.732-5.267-8.556-1.044,3.272s-4.306-.419-6.646.755a19.332,19.332,0,0,0-5.727,4.7,49.079,49.079,0,0,0-3.135,4.194l-1.254-9.647h-6.73l2.3,15.056-4.013,11.49h7.943s1.756-5.032,1.923-5.534a36.434,36.434,0,0,1,4.138-7.928c2.885-3.774,6.4-7.423,9.28-7.338" transform="translate(-80.145 -136.411)" fill="#fff"/>
    <path id="Path_64304" data-name="Path 64304" d="M153.761,143.978,148.2,160.67a13.005,13.005,0,0,1-.961,2.306,2.294,2.294,0,0,1-2.09,1.258c-.961,0-1.212-.545-1.212-1.3a9.528,9.528,0,0,1,.627-2.307l5.56-16.649h-7.148l-5.809,17.32c-1.046,3.187-2.508,9.6,5.768,9.6s11.118-6.415,12.207-9.6l5.768-17.32h-7.148" transform="translate(-108.207 -135.26)" fill="#fff"/>
    <path id="Path_64305" data-name="Path 64305" d="M182.608,170.342l14.129-26.505H189.8l-7.733,16.441c.334-1.93,2.842-16.441,2.842-16.441h-6.145s-7.106,14.594-7.943,16.566l3.136-16.566h-7.065l-2.927,26.505H170.9l7.65-16.564c-.376,1.8-2.884,16.564-2.884,16.564h6.94m14.714-9.687h3.594l1.588-9.688-5.182,9.688m2.465-16.818h9.74l-3.135,26.547h-7.525l.963-4.277h-5.31l-2.3,4.194h-6.646Z" transform="translate(-94.794 -135.328)" fill="#fff"/>
    <path id="Path_64306" data-name="Path 64306" d="M125.116,173.03l-5.435-8.849,9.572-3.942-1.046,3.313a6.294,6.294,0,0,0,3.846.88,3.41,3.41,0,0,0,2.884-1.551,3.36,3.36,0,0,0-1-2.977,11.28,11.28,0,0,1-2.215-3.606,10.7,10.7,0,0,1-.291-5.034c.542-2.18,3.343-7.968,11.2-7.59a12.93,12.93,0,0,1,5.476,1.72l-2.927,5.577c-3.3-1.972-5.307-1.258-6.06.545s.5,3.523,1.671,4.907c1.463,1.676,2.634,3.481,2.634,5.619,0,4.991-5.352,9.017-11.914,9.017a14.682,14.682,0,0,1-5.392-1.007l-1,2.977m37.452-2.515h10.241c3.6,0,9.446-1.217,11.245-6.668a6.135,6.135,0,0,0-2.759-7.13,8.984,8.984,0,0,0,4.64-5.326c1.63-5.745-1.8-7.381-5.811-7.381h-8.736l-8.821,26.505m10.953-10.569c2.508-.125,4.013.839,3.594,2.558-.376,1.677-1.755,2.264-3.26,2.264h-1.966l1.631-4.823Zm1.337-5.577,1.588-4.613h1.211c1,0,2.844.168,1.966,2.432a3.937,3.937,0,0,1-3.762,2.181Z" transform="translate(-116.303 -135.416)" fill="#fff"/>
    <path id="Path_64307" data-name="Path 64307" d="M202.372,161.313v-.462h.293c.168,0,.334.043.334.209,0,.253-.168.253-.334.253h-.293m0,.209h.251l.417.63h.251l-.417-.63a.412.412,0,0,0,.376-.419c0-.336-.166-.462-.542-.462h-.544v1.509h.209v-.628Zm.293,1.217a1.315,1.315,0,0,0,1.3-1.343,1.317,1.317,0,0,0-2.634,0A1.323,1.323,0,0,0,202.665,162.739Zm-1.086-1.343a1.066,1.066,0,1,1,2.132,0,1.068,1.068,0,1,1-2.132,0Z" transform="translate(-76.646 -127.431)" fill="#001c37"/>
  </g>
</svg>
