<svg xmlns="http://www.w3.org/2000/svg" width="48.118" height="48.118" viewBox="0 0 48.118 48.118">
  <g id="Group_11656" data-name="Group 11656" transform="translate(-2017 -2515.4)">
    <g id="Group_11655" data-name="Group 11655" transform="translate(2017 2515.4)">
      <path id="Path_65960" data-name="Path 65960" d="M2017,2563.518V2515.4h48.118v48.118Zm24.021-13.37c.5-.038,1-.063,1.491-.125a11.556,11.556,0,1,0-5.05-22.455,11.6,11.6,0,0,0-5.137,18.684.669.669,0,0,1,.188.7c-.226.89-.414,1.792-.6,2.694a1.077,1.077,0,0,0,.351,1.228c.413.288.8.1,1.178-.113.865-.476,1.717-.965,2.581-1.429a.8.8,0,0,1,.589-.05A12.185,12.185,0,0,0,2041.021,2550.147Zm3.947,4.687c.163-.05.263-.088.364-.126a16.624,16.624,0,0,0,9.4-6.591.5.5,0,0,1,.614-.238,8.715,8.715,0,0,0,2.1.363,3.762,3.762,0,0,0,2.958-1.767,9.446,9.446,0,0,0,.927-9.812,4.258,4.258,0,0,0-3.872-2.744c-.338-.012-.438-.175-.526-.451a16.5,16.5,0,0,0-14.849-11.553A16.317,16.317,0,0,0,2027,2529.5a16.04,16.04,0,0,0-2.018,4.361,6.846,6.846,0,0,0-.764.075,4.918,4.918,0,0,0-3.6,2.957,9.515,9.515,0,0,0,.764,9.26,4.364,4.364,0,0,0,2.707,2.03,5.1,5.1,0,0,0,2.669-.276,1.568,1.568,0,0,0,1.291-2.042c-.288-1.942-.6-3.885-.877-5.839a12.273,12.273,0,0,1-.25-3.258,14.191,14.191,0,0,1,27.242-3.509,10.156,10.156,0,0,1,.915,5.338c-.125.9-.25,1.792-.414,2.682a15.894,15.894,0,0,1-.589,2.781,12.892,12.892,0,0,1-3.909,5.363,13.556,13.556,0,0,1-8.9,3.308c-.827,0-1.654-.012-2.481,0a1.641,1.641,0,0,0-1.729,1.742c0,.3-.013.589,0,.89a1.627,1.627,0,0,0,1.591,1.591c1.566.025,3.133.013,4.687,0a1.628,1.628,0,0,0,1.6-1.579A2.5,2.5,0,0,0,2044.969,2554.834Z" transform="translate(-2017 -2515.4)" fill="none"/>
      <path id="Path_65961" data-name="Path 65961" d="M2129.623,2634.213a13.937,13.937,0,0,1-4.976-.964.911.911,0,0,0-.667.057c-.992.51-1.956,1.077-2.92,1.616-.425.241-.879.453-1.333.128a1.212,1.212,0,0,1-.4-1.39c.212-1.021.426-2.041.68-3.047a.778.778,0,0,0-.212-.794c-5.869-6.634-3.658-18.1,5.812-21.136a13.073,13.073,0,1,1,5.713,25.4C2130.757,2634.142,2130.19,2634.17,2129.623,2634.213Zm6.663-10.632a2.46,2.46,0,1,0-2.5-2.424A2.457,2.457,0,0,0,2136.286,2623.581Zm-13.3,0a2.46,2.46,0,1,0-2.481-2.438A2.456,2.456,0,0,0,2122.989,2623.581Zm9.087-2.438a2.46,2.46,0,1,0-2.481,2.438A2.436,2.436,0,0,0,2132.076,2621.143Z" transform="translate(-2105.605 -2598.059)" fill="#006ce5"/>
      <path id="Path_65962" data-name="Path 65962" d="M2067.755,2604.453c0,.227.014.411,0,.61a1.85,1.85,0,0,1-1.814,1.786c-1.771.014-3.543.029-5.3,0a1.841,1.841,0,0,1-1.8-1.8c-.014-.34-.014-.666,0-1.007a1.857,1.857,0,0,1,1.957-1.971c.935-.014,1.871,0,2.807,0a15.306,15.306,0,0,0,10.065-3.742,14.581,14.581,0,0,0,4.422-6.067,16.484,16.484,0,0,0,.667-3.147c.184-1.006.312-2.027.468-3.033a11.629,11.629,0,0,0-1.035-6.039,16.054,16.054,0,0,0-30.818,3.969,13.917,13.917,0,0,0,.283,3.686c.312,2.211.666,4.409.992,6.606a1.774,1.774,0,0,1-1.46,2.311,5.778,5.778,0,0,1-3.02.312,4.9,4.9,0,0,1-3.062-2.3,10.767,10.767,0,0,1-.865-10.476,5.564,5.564,0,0,1,4.068-3.345,7.789,7.789,0,0,1,.865-.085,18.138,18.138,0,0,1,2.282-4.933c4.1-6,9.81-8.945,17.068-8.576a18.671,18.671,0,0,1,16.8,13.07c.1.326.227.5.6.511a4.817,4.817,0,0,1,4.38,3.1,10.684,10.684,0,0,1-1.05,11.1,4.185,4.185,0,0,1-3.345,2,9.872,9.872,0,0,1-2.381-.411.551.551,0,0,0-.695.269,18.761,18.761,0,0,1-10.631,7.457C2068.053,2604.354,2067.94,2604.4,2067.755,2604.453Z" transform="translate(-2039.272 -2562.998)" fill="#006ce5"/>
      <path id="Path_65963" data-name="Path 65963" d="M2240.3,2687.347a2.174,2.174,0,1,1,2.168-2.18A2.179,2.179,0,0,1,2240.3,2687.347Z" transform="translate(-2210.391 -2661.998)" fill="none"/>
      <path id="Path_65964" data-name="Path 65964" d="M2146.592,2687.347a2.174,2.174,0,1,1,2.18-2.168A2.187,2.187,0,0,1,2146.592,2687.347Z" transform="translate(-2128.435 -2661.997)" fill="none"/>
      <path id="Path_65965" data-name="Path 65965" d="M2195.732,2685.1a2.168,2.168,0,1,1-2.13-2.205A2.143,2.143,0,0,1,2195.732,2685.1Z" transform="translate(-2169.543 -2661.91)" fill="none"/>
    </g>
  </g>
</svg>
