<svg xmlns="http://www.w3.org/2000/svg" width="58.105" height="48" viewBox="0 0 58.105 48">
  <path id="Path_79951" data-name="Path 79951" d="M66.078,77.321a8.369,8.369,0,0,1-7.993,8.711q-.194.009-.388.009a8.208,8.208,0,0,1-1.75-.19,22.541,22.541,0,0,1-15.237,9.984,4.873,4.873,0,1,1-.156-3.539,18.984,18.984,0,1,0-20.081-9.41,1.152,1.152,0,0,1,.118.3,1.753,1.753,0,0,1-.975,2.211,8.275,8.275,0,0,1-3.211.648q-.195,0-.39-.009A8.368,8.368,0,0,1,8.028,77.32c.037-.883.017-1.67,0-2.432-.019-.717-.039-1.459-.006-2.232a8.376,8.376,0,0,1,8.409-8,22.495,22.495,0,0,1,41.252,0,8.369,8.369,0,0,1,8.409,8c.033.775.013,1.516-.006,2.233C66.062,75.649,66.041,76.437,66.078,77.321ZM51.791,73.636A14.743,14.743,0,0,1,33.268,87.881L27.3,91.326a1.757,1.757,0,0,1-2.576-1.977l1.525-5.687a14.739,14.739,0,1,1,25.54-10.026Zm-18.835,0A1.757,1.757,0,0,0,31.2,71.879h0a1.757,1.757,0,1,0,1.76,1.757Zm5.855,0a1.664,1.664,0,0,0-.009-.172,1.639,1.639,0,0,0-.026-.171,1.328,1.328,0,0,0-.042-.166c-.016-.055-.036-.109-.057-.163a1.442,1.442,0,0,0-.074-.155,1.691,1.691,0,0,0-.088-.148,1.715,1.715,0,0,0-.1-.139,1.478,1.478,0,0,0-.116-.128c-.04-.041-.083-.08-.128-.117s-.091-.07-.14-.1a1.685,1.685,0,0,0-.147-.088c-.05-.027-.1-.052-.156-.074a1.556,1.556,0,0,0-.162-.057,1.539,1.539,0,0,0-.337-.068,1.8,1.8,0,0,0-.515.025,1.664,1.664,0,0,0-.167.043,1.538,1.538,0,0,0-.162.057c-.053.022-.105.047-.156.074s-.1.056-.148.088a1.71,1.71,0,0,0-.267.219,1.5,1.5,0,0,0-.116.128,1.7,1.7,0,0,0-.1.139,1.672,1.672,0,0,0-.089.148,1.575,1.575,0,0,0-.073.155,1.722,1.722,0,0,0-.059.163c-.016.054-.03.11-.042.166a1.673,1.673,0,0,0-.026.171c-.006.057-.008.115-.008.172s0,.116.008.173a1.7,1.7,0,0,0,.026.17c.012.056.026.112.042.168a1.7,1.7,0,0,0,.059.162,1.593,1.593,0,0,0,.073.156c.027.05.057.1.089.148a1.679,1.679,0,0,0,.1.138,1.725,1.725,0,0,0,.116.129c.041.04.083.08.129.116a1.5,1.5,0,0,0,.138.1c.048.032.1.062.148.089a1.94,1.94,0,0,0,.317.131c.055.016.111.03.167.042a1.674,1.674,0,0,0,.343.034,1.768,1.768,0,0,0,1.242-.514,1.9,1.9,0,0,0,.219-.267q.047-.072.088-.148c.027-.05.052-.1.074-.156a1.632,1.632,0,0,0,.057-.162,1.4,1.4,0,0,0,.042-.168,1.666,1.666,0,0,0,.026-.17,1.686,1.686,0,0,0,.009-.174Zm5.857,0a1.757,1.757,0,0,0-1.757-1.757h0a1.757,1.757,0,1,0,1.761,1.757Z" transform="translate(-8.001 -51.138)" fill="#fff"/>
</svg>
