<svg xmlns="http://www.w3.org/2000/svg" width="50.112" height="50.431" viewBox="0 0 50.112 50.431">
  <g id="Group_23890" data-name="Group 23890" transform="translate(-1124.461 -85.344)">
    <g id="Group_23889" data-name="Group 23889" transform="translate(1124.461 85.344)">
      <path id="Path_78193" data-name="Path 78193" d="M1290.283,252.767h6.138v19.054h-20.8V252.769h6.124v.515c0,1.745,0,3.49,0,5.235,0,.425.057.814.491,1.007a.96.96,0,0,0,1.05-.268c.9-.725,1.8-1.437,2.735-2.178.906.719,1.812,1.428,2.706,2.152.327.265.654.483,1.088.289.467-.208.493-.625.472-1.058,0-.1,0-.192,0-.288v-5.409Zm.9,14.178c-.72,0-1.441-.009-2.161,0a.795.795,0,1,0-.026,1.587q2.137.026,4.274,0a.8.8,0,1,0-.022-1.59C1292.564,266.938,1291.875,266.945,1291.187,266.945Z" transform="translate(-1261.08 -236.661)" fill="#006ce5"/>
      <path id="Path_78194" data-name="Path 78194" d="M1211.15,98.428c-.157-.1-.3-.193-.443-.292a.761.761,0,0,1-.273-1.082.747.747,0,0,1,1.075-.3c.722.412,1.438.839,2.13,1.3.532.355.6.679.251,1.223-.393.621-.831,1.215-1.259,1.813-.394.551-.767.672-1.205.412s-.5-.648-.176-1.335c-.23.073-.4.119-.572.182a21.952,21.952,0,0,0-8.152,5.371c-.588.611-1.007.7-1.423.3-.392-.38-.322-.8.247-1.4a23.425,23.425,0,0,1,9.278-5.976c.136-.047.27-.1.4-.15A1.016,1.016,0,0,0,1211.15,98.428Z" transform="translate(-1193.508 -95.551)" fill="#006ce5"/>
      <path id="Path_78195" data-name="Path 78195" d="M1434.825,506.282c.982-.444,1.983-.85,2.941-1.34a21.2,21.2,0,0,0,5.925-4.523,3.411,3.411,0,0,1,.336-.343.783.783,0,0,1,1.05.043.738.738,0,0,1,.114,1.036,7.428,7.428,0,0,1-.611.676,23.427,23.427,0,0,1-8.844,5.785c-.1.039-.208.082-.311.125-.011,0-.017.022-.049.064.13.083.263.157.385.247a.746.746,0,0,1,.211,1.023.694.694,0,0,1-.929.371c-.817-.363-1.624-.753-2.421-1.159a.69.69,0,0,1-.326-1.016c.414-.793.844-1.579,1.3-2.346a.732.732,0,0,1,1.022-.2.749.749,0,0,1,.348.981c-.062.158-.142.309-.214.463Z" transform="translate(-1402.586 -460.016)" fill="#006ce5"/>
      <path id="Path_78196" data-name="Path 78196" d="M1201.932,504.439c0,.143.01.28,0,.416a.7.7,0,0,1-.724.69c-.412.03-.777-.142-.824-.565-.1-.936-.161-1.88-.179-2.822a.684.684,0,0,1,.723-.7c.88-.027,1.762-.035,2.641,0a.763.763,0,0,1,.732.846.776.776,0,0,1-.79.746c-.142.009-.285,0-.55,0,.213.195.344.321.482.44a21.684,21.684,0,0,0,8.838,4.652c.433.112.85.234.9.782a.748.748,0,0,1-.837.866,5.844,5.844,0,0,1-1.216-.26,24.916,24.916,0,0,1-8.8-4.866c-.085-.073-.172-.143-.262-.209C1202.042,504.441,1202,504.448,1201.932,504.439Z" transform="translate(-1192.917 -461.411)" fill="#006ce5"/>
      <path id="Path_78197" data-name="Path 78197" d="M1442.707,115.947c.031-.277.045-.5.081-.71a.748.748,0,0,1,.838-.677.712.712,0,0,1,.74.769q-.019,1.271-.1,2.54a.774.774,0,0,1-.939.778c-.717-.068-1.432-.153-2.149-.224-.66-.065-.958-.283-1-.75s.19-.716.921-.929c-.139-.121-.246-.222-.36-.314a21.8,21.8,0,0,0-8.454-4.268c-.44-.111-.845-.252-.88-.8a.8.8,0,0,1,1.147-.8c1.4.452,2.8.893,4.153,1.466a21.36,21.36,0,0,1,5.63,3.618C1442.441,115.744,1442.553,115.825,1442.707,115.947Z" transform="translate(-1401.877 -108.088)" fill="#006ce5"/>
      <path id="Path_78198" data-name="Path 78198" d="M1126.006,281.165c-.136.075-.257.149-.383.21a.736.736,0,0,1-.979-.241.724.724,0,0,1,.073-1.038c.741-.557,1.5-1.085,2.277-1.6a.629.629,0,0,1,.932.185c.512.772,1.013,1.552,1.477,2.353a.729.729,0,0,1-.35.98.751.751,0,0,1-1.025-.2c-.1-.123-.178-.258-.345-.5-.1.79-.211,1.458-.265,2.13a22.19,22.19,0,0,0,.6,7.234,1.189,1.189,0,0,1-.067.857,1.08,1.08,0,0,1-.769.353c-.37.016-.576-.275-.673-.638a21.826,21.826,0,0,1-.758-6.407C1125.79,283.633,1125.915,282.425,1126.006,281.165Z" transform="translate(-1124.461 -259.801)" fill="#006ce5"/>
      <path id="Path_78199" data-name="Path 78199" d="M1597.44,287.351c.258-.149.419-.247.586-.336a.781.781,0,0,1,1.125.262.764.764,0,0,1-.295,1.111c-.716.422-1.44.832-2.175,1.219a.781.781,0,0,1-1.159-.394c-.354-.7-.681-1.409-1.025-2.112a.782.782,0,0,1,.2-1.07c.356-.278.688-.227,1.109.147.033.029.074.05.259.173.023-1.582.15-3.067.036-4.532a42.9,42.9,0,0,0-.729-4.434c-.116-.625.03-1.019.526-1.144.517-.13.872.111,1.037.718a23.271,23.271,0,0,1,.559,9.972C1597.475,287.039,1597.465,287.147,1597.44,287.351Z" transform="translate(-1549.167 -257.847)" fill="#006ce5"/>
      <path id="Path_78200" data-name="Path 78200" d="M1356.221,257.278v-4.333h5.25v4.3c-.667-.529-1.286-1.021-1.908-1.51-.572-.451-.828-.452-1.4,0C1357.538,256.229,1356.919,256.724,1356.221,257.278Z" transform="translate(-1333.926 -236.822)" fill="#006ce5"/>
      <path id="Path_78201" data-name="Path 78201" d="M1156.454,443.649a2.147,2.147,0,0,1-2.194,2.124,2.156,2.156,0,1,1,2.194-2.124Z" transform="translate(-1149.474 -407.203)" fill="#006ce5"/>
      <path id="Path_78202" data-name="Path 78202" d="M1156.524,213.536a2.157,2.157,0,1,1-2.111-2.172A2.151,2.151,0,0,1,1156.524,213.536Z" transform="translate(-1149.541 -199.241)" fill="#006ce5"/>
      <path id="Path_78203" data-name="Path 78203" d="M1365.58,87.5a2.132,2.132,0,0,1-2.175,2.146,2.15,2.15,0,1,1,2.175-2.146Z" transform="translate(-1338.486 -85.344)" fill="#006ce5"/>
      <path id="Path_78204" data-name="Path 78204" d="M1365.585,567.049a2.145,2.145,0,0,1-2.142,2.138,2.15,2.15,0,1,1-.017-4.3A2.129,2.129,0,0,1,1365.585,567.049Z" transform="translate(-1338.49 -518.756)" fill="#006ce5"/>
      <path id="Path_78205" data-name="Path 78205" d="M1574.577,441.141a2.132,2.132,0,0,1-2.2,2.111,2.149,2.149,0,1,1,.076-4.3A2.132,2.132,0,0,1,1574.577,441.141Z" transform="translate(-1527.376 -404.937)" fill="#006ce5"/>
      <path id="Path_78206" data-name="Path 78206" d="M1574.567,210.778a2.073,2.073,0,0,1-1.316,1.939,2.13,2.13,0,0,1-2.342-.477,1.4,1.4,0,0,1-.214-.452c-.057-.146-.054-.345-.154-.441a1.126,1.126,0,0,1-.16-1.293,2.146,2.146,0,0,1,4.186.724Z" transform="translate(-1527.369 -196.715)" fill="#006ce5"/>
      <path id="Path_78207" data-name="Path 78207" d="M1377.21,155.15h-1.553V146.6h1.553Z" transform="translate(-1351.492 -140.705)" fill="#006ce5"/>
      <path id="Path_78208" data-name="Path 78208" d="M1375.695,468.243h1.537v7.7h-1.537Z" transform="translate(-1351.526 -431.409)" fill="#006ce5"/>
      <path id="Path_78209" data-name="Path 78209" d="M1203.135,248.791l.855-1.347c.1.048.229.1.35.166,1.266.685,2.536,1.363,3.79,2.07a.74.74,0,0,1,.314.5c.044.457.015.921.015,1.493Z" transform="translate(-1195.567 -231.85)" fill="#006ce5"/>
      <path id="Path_78210" data-name="Path 78210" d="M1508.977,244.055c0-.615-.009-1.137.008-1.659a.418.418,0,0,1,.164-.3c1.379-.828,2.766-1.644,4.15-2.463l.677,1.475Z" transform="translate(-1471.985 -224.791)" fill="#006ce5"/>
      <path id="Path_78211" data-name="Path 78211" d="M1208.334,416.057l-.595-1.513,4.878-2.886c0,.635.008,1.187-.009,1.737a.387.387,0,0,1-.189.247C1211.063,414.451,1209.7,415.25,1208.334,416.057Z" transform="translate(-1199.728 -380.268)" fill="#006ce5"/>
      <path id="Path_78212" data-name="Path 78212" d="M1513.97,410.963l-.705,1.452-1.1-.6c-.971-.526-1.938-1.059-2.915-1.573a.523.523,0,0,1-.335-.556c.026-.459.007-.92.007-1.462Z" transform="translate(-1471.926 -377.167)" fill="#006ce5"/>
    </g>
  </g>
</svg>
