<svg xmlns="http://www.w3.org/2000/svg" width="65.19" height="60.754" viewBox="0 0 65.19 60.754">
  <g id="Group_26918" data-name="Group 26918" transform="translate(0 -13.875)">
    <path id="Path_82320" data-name="Path 82320" d="M17.712,55.714a2.728,2.728,0,0,0-3.523-.273l-.027-.018-2.34,2.34a2.692,2.692,0,0,0-.794,1.92A2.727,2.727,0,0,0,13.743,62.4,2.853,2.853,0,0,0,15.9,61.363l1.808-1.808a2.714,2.714,0,0,0,0-3.841ZM11.2,47.759a2.719,2.719,0,0,0-3.841,0c-.246.248-1.766,1.767-2.048,2.049a2.715,2.715,0,0,0,3.839,3.841L11.2,51.6A2.717,2.717,0,0,0,11.2,47.759ZM23.265,61.908a2.7,2.7,0,0,0-1.921.8l-2.049,2.049c-.01.01-.019.019-.029.03a2.716,2.716,0,0,0,3.87,3.811l2.051-2.051a2.723,2.723,0,0,0-1.921-4.635ZM41.489,31.764a10.872,10.872,0,0,1-13.463-1.507l-4.75-4.749L29.2,19.579A16.7,16.7,0,1,0,5.615,43.126,7.523,7.523,0,0,1,16.773,50.19a7.546,7.546,0,0,1,6.507,6.927,7.555,7.555,0,0,1,7.233,5.546,7.539,7.539,0,0,1,7.552,2.3l.054-.064A2.718,2.718,0,0,0,41.6,60.813l0-.006c-.042-.04-10.794-10.792-10.794-10.792l3.39-3.39L44.876,57.3a2.715,2.715,0,0,0,3.839-3.841L38.046,42.783l3.39-3.39L52.107,50.064a2.716,2.716,0,0,0,3.841-3.841Z" transform="translate(0 -0.057)" fill="#006ce5"/>
    <path id="Path_82321" data-name="Path 82321" d="M205.738,18.747a16.686,16.686,0,0,0-23.567,0l-6.7,6.7,1.359,1.359a6.062,6.062,0,0,0,8.566,0l1.7-1.7c.9.912,17.453,17.434,17.918,17.932a16.759,16.759,0,0,0,.73-24.3Zm-25.982,49.2a2.719,2.719,0,0,0-3.841,0L173.866,70a2.716,2.716,0,0,0,3.841,3.841l2.049-2.049A2.731,2.731,0,0,0,179.756,67.95Z" transform="translate(-145.412)" fill="#006ce5"/>
  </g>
</svg>
