<svg xmlns="http://www.w3.org/2000/svg" width="75.98" height="64.576" viewBox="0 0 75.98 64.576">
  <g id="qAIv8x.tif" transform="translate(-0.02 -0.05)">
    <path id="Path_64919" data-name="Path 64919" d="M769,1127.61a3.23,3.23,0,0,1-.09.93c-.09.53-.19,1.06-.31,1.58a1.421,1.421,0,0,1-.26.49.213.213,0,0,1-.38,0,1.993,1.993,0,0,1-.15-.26,13,13,0,0,0-2.76-3.68,9.58,9.58,0,0,0-5-2.39,14.232,14.232,0,0,0-5.58.33,23.744,23.744,0,0,0-4,1.35c-.57.25-1.11.58-1.67.87a30.259,30.259,0,0,1-6.56,2.39,34.078,34.078,0,0,1-4.23.74,36.4,36.4,0,0,1-4.72.22,40.81,40.81,0,0,1-5-.41,46.761,46.761,0,0,1-12.24-3.57,52.749,52.749,0,0,1-22.93-19.68l-.1-.16v-.06h.07a38.863,38.863,0,0,0,7.57,4.7,51.061,51.061,0,0,0,6.87,2.79,43.612,43.612,0,0,0,6.14,1.49,40.268,40.268,0,0,0,4.33.48,35.511,35.511,0,0,0,4.47,0,30.531,30.531,0,0,0,11.11-2.8c.88-.42,1.73-.92,2.59-1.38l.13-.09-.14-.13a137.582,137.582,0,0,1-14.22-12.73c-3.42-3.48-6.68-7.1-9.83-10.82-2.61-3.07-5.12-6.22-7.6-9.39-.42-.53-.93-1-1.33-1.54-1-1.31-1.89-2.66-2.81-4,4.8,4.27,9.8,8.3,14.92,12.17A187.562,187.562,0,0,0,731,1096c-3.94-4.23-7.68-8.63-11.27-13.15s-7-9.13-10.28-13.91c1.19,1.17,2.38,2.35,3.58,3.51q4.75,4.59,9.76,8.88,7.815,6.69,16.21,12.67c2,1.43,4.11,2.79,6.17,4.18.46.31.94.57,1.43.86a1.1,1.1,0,0,0,.07-.13,29.573,29.573,0,0,0,1.48-5.23,31.9,31.9,0,0,0,.51-4.65,33.526,33.526,0,0,0-.08-3.78,41.18,41.18,0,0,0-3.88-14.32,49.49,49.49,0,0,0-2.44-4.59l-.1-.19h2.59a.419.419,0,0,1,.23.11c.76.63,1.53,1.24,2.28,1.89a53,53,0,0,1,9.87,11.49,45.617,45.617,0,0,1,5.15,11.15,34.629,34.629,0,0,1,1.22,5.38c.15,1.08.28,2.17.34,3.26a31.377,31.377,0,0,1,0,3.63,29,29,0,0,1-1.21,7.13.5.5,0,0,0,.1.52,28.66,28.66,0,0,1,5.53,11,22.651,22.651,0,0,1,.68,4.55,2.186,2.186,0,0,0,0,.24v1.15Z" transform="translate(-693 -1066.1)" fill="#fff"/>
  </g>
</svg>
