<svg xmlns="http://www.w3.org/2000/svg" width="54.112" height="62.989" viewBox="0 0 54.112 62.989">
  <g id="Group_26917" data-name="Group 26917" transform="translate(-8.569 -4.722)">
    <path id="Path_82318" data-name="Path 82318" d="M17.736,32.52l15.31,9.611.544.342a3.948,3.948,0,0,0,4.069,0l.544-.342,15.309-9.609,4.344-2.727,3.309-2.077a6.1,6.1,0,0,0,1.514-3.981,6.29,6.29,0,0,0-3.044-5.308L39.572,5.833a7.568,7.568,0,0,0-7.894,0L11.613,18.427a6.292,6.292,0,0,0-3.044,5.308,6.1,6.1,0,0,0,1.513,3.979l3.312,2.078ZM36.79,33.5a2.3,2.3,0,0,1-2.331,0l-5.824-3.625-6.659-4.144c-2.521-1.569-.2-5.563,2.331-3.988l11.318,7.044,11.318-7.044c2.533-1.576,4.85,2.421,2.331,3.988l-6.449,4.014Zm3.326,25.7a8.831,8.831,0,0,1-8.98,0L13.364,48.044,9.45,45.587A6.03,6.03,0,0,0,8.569,48.7a6.3,6.3,0,0,0,3.044,5.31L31.677,66.606a7.606,7.606,0,0,0,7.894,0l20.065-12.6A6.294,6.294,0,0,0,62.679,48.7a6.025,6.025,0,0,0-.881-3.114l-3.914,2.457Z" fill="#006ce5"/>
    <path id="Path_82319" data-name="Path 82319" d="M17.474,41.4,33.591,51.515a3.951,3.951,0,0,0,4.068,0L53.777,41.4l4.345-2.727,1.95-1.224a6.235,6.235,0,0,0,2.608-5,6.036,6.036,0,0,0-1.036-3.35l-3.913,2.456-10.839,6.8-6.778,4.255a8.611,8.611,0,0,1-8.98,0l-6.778-4.255-10.84-6.8L9.6,29.1a6.048,6.048,0,0,0-1.033,3.349,6.235,6.235,0,0,0,2.6,4.994l1.957,1.229Z" transform="translate(0 3.771)" fill="#006ce5"/>
  </g>
</svg>
