<svg xmlns="http://www.w3.org/2000/svg" width="241.327" height="250.497" viewBox="0 0 241.327 250.497">
  <g id="talen2" transform="translate(601.398 -88.594)">
    <path id="Path_65094" data-name="Path 65094" d="M-360.822,373.8c.054-2.937-1.125-3.98-4.037-3.933-8.018.128-16.04.052-24.061.03-1.175,0-2.35-.154-3.445-.23a3.692,3.692,0,0,1-.124-.976,2.467,2.467,0,0,1,.388-.826c6.633-8.714,6.864-18.39,4.176-28.446-4.5-16.851-9.167-33.659-13.605-50.527-1.8-6.824-4.146-13.317-8.5-18.966-8.209-10.639-19.232-17.215-31.666-21.542a120.413,120.413,0,0,0-55.81-5.644c-12.246,1.587-24,4.6-34.836,10.6-12.754,7.059-21.822,16.982-25.449,31.648-4.726,19.111-10.237,38.027-15.051,57.117a33.773,33.773,0,0,0-.628,13.044c.739,4.831,2.882,9.447,4.555,14.584-.867.048-2.063.168-3.259.171-8.123.018-16.246-.011-24.369.022-3.633.014-4.067.474-4.082,4.144q-.035,9.254,0,18.508c.016,3.6.486,4.075,4.148,4.075q115.679.012,231.36,0c3.6,0,4.222-.559,4.25-4.033C-360.819,386.348-360.936,380.073-360.822,373.8Zm-206.416-33.37c4.94-17.786,9.857-35.589,14.174-53.533,3.256-13.53,11.4-22.7,23.21-29.143,12.206-6.661,25.426-9.457,39.194-10.588a115.343,115.343,0,0,1,44.65,5.116c12.662,4,24.135,10.129,32.135,21.164a37.588,37.588,0,0,1,5.815,11.446c5.47,19.245,10.64,38.578,15.7,57.937,2.029,7.766,1.356,15.314-3.791,21.942-2.658,3.424-5.913,5.474-10.552,5.2-4.714-.281-9.457-.046-14.187-.069-3.893-.018-4.17-.278-4.172-4.25q-.021-33.164-.008-66.328c0-1.131.014-2.263-.007-3.394-.071-3.737-.6-4.281-4.326-4.284q-25.3-.016-50.6,0-24.99,0-49.978,0c-4.379,0-5.167.783-5.168,5.236-.009,23.035-.068,46.07.07,69.1.019,3.216-1.044,4.1-4.051,3.973-4.517-.188-9.047-.043-13.572-.049-8.647-.012-14.183-4.834-15.718-13.4A35.4,35.4,0,0,1-567.239,340.433Zm37.222-39.932c-.01-2.87.834-3.941,3.874-3.914q5.782.052,11.564.068c11.565.038,23.13,0,34.7,0q11.488,0,22.976.02,11.488,0,22.976-.085c3.024-.028,3.776.939,3.761,3.857q-.169,32.844.009,65.689c.017,2.955-1.018,3.678-3.707,3.673q-46.106-.08-92.212.01c-2.921.007-3.954-.979-3.943-3.932Q-529.891,333.192-530.017,300.5Zm164.322,78.379c-.163,3.18-.074,6.376-.044,9.563.02,2.209-.668,3.607-3.221,3.2a7.978,7.978,0,0,0-1.233-.007q-110.462,0-220.925,0c-4.485,0-4.486-.006-4.49-4.543,0-2.88.162-5.772-.046-8.636-.2-2.674.645-3.554,3.424-3.512,10.489.159,20.981.064,31.472.064h79.915q13.885,0,27.77,0,41.655.009,83.31-.083C-366.6,374.921-365.539,375.849-365.695,378.88Z" transform="translate(0 -58.313)" fill="#fff" stroke="#6685b2" stroke-width="1.5"/>
    <path id="Path_65095" data-name="Path 65095" d="M-396.022,108.134c-7.994-11.3-18.523-18.51-34.873-18.789a75.418,75.418,0,0,0-9.86,2.009c-28.784,9.192-36.263,45.065-18.795,66.461,10.273,12.583,23.124,19.1,39.579,15.355C-389.657,166.26-380.052,130.709-396.022,108.134Zm-58.109,48.324a46.4,46.4,0,0,1-3.241-4.18,34.245,34.245,0,0,1-6.306-21.125c.011-12.834,5.3-23.473,14.46-30a35.345,35.345,0,0,1,7.322-4,40.331,40.331,0,0,1,8.1-2.3c10.171-1.793,19.019,1.641,26.713,8.323a38.4,38.4,0,0,1,8.9,47.857C-408.308,169.8-435.6,177.807-454.132,156.458Z" transform="translate(-50.439)" fill="#fff" stroke="#6685b2" stroke-width="1.5"/>
    <path id="Path_65096" data-name="Path 65096" d="M-433.29,435.63q-20.2,0-40.406,0c-4.508,0-4.847-.369-4.859-4.984,0-1.234-.006-2.468,0-3.7.02-4.092.459-4.565,4.67-4.567q40.561-.021,81.12,0c4.033,0,4.513.468,4.519,4.388.015,10.039.775,8.83-8.649,8.859C-409.026,435.659-421.158,435.63-433.29,435.63Zm.146-5.061q17.575,0,35.152,0a16.551,16.551,0,0,0,3.376-.123,1.865,1.865,0,0,0,1.1-1.423,1.978,1.978,0,0,0-1.112-1.406,5.923,5.923,0,0,0-2.134-.1q-36.54,0-73.079,0a8.879,8.879,0,0,0-2.445.135c-.448.131-1.07.837-1.025,1.213a2.1,2.1,0,0,0,1.038,1.54,9.036,9.036,0,0,0,2.747.162Q-451.337,430.575-433.144,430.569Z" transform="translate(-46.737 -127.482)" fill="#fff" stroke="#6685b2" stroke-width="1.5"/>
  </g>
</svg>
