<svg id="Group_24122" data-name="Group 24122" xmlns="http://www.w3.org/2000/svg" width="62.871" height="61.04" viewBox="0 0 62.871 61.04">
  <g id="Group_24118" data-name="Group 24118">
    <path id="Path_78502" data-name="Path 78502" d="M49.991,215.958c1.169-1.2,2.334-2.406,3.509-3.6.933-.95,1.877-1.887,2.908-2.922.634.657,1.222,1.306,1.851,1.913a7.626,7.626,0,0,0,10.386.228,8,8,0,0,0,2.237-3.4,1.074,1.074,0,0,1,.568-.588,7.774,7.774,0,0,0,5.023-5.025,1.073,1.073,0,0,1,.579-.583A7.588,7.588,0,0,0,82.027,197a.866.866,0,0,1,.627-.642,7.637,7.637,0,0,0,3.192-12.6c-.591-.621-1.241-1.187-2.019-1.925.56-.49,1.049-.886,1.5-1.321.739-.71,1.441-1.459,2.182-2.165a5.331,5.331,0,0,1,8.861,5.271c-.041.155-.08.311-.118.46a5.486,5.486,0,0,1,2.956,6.947,5.537,5.537,0,0,1,2.871,2.857,5.392,5.392,0,0,1,.1,3.967,15.742,15.742,0,0,1,1.725,1.3,5.289,5.289,0,0,1-.084,7.6c-2.344,2.38-4.72,4.73-7.082,7.092-1.71,1.71-3.431,3.41-5.129,5.134a11.5,11.5,0,0,1-8.6,3.563,7.812,7.812,0,0,0-2.854.118c-.807.33-1.378,1.244-2.043,1.909q-4.5,4.5-9,9a1.931,1.931,0,0,1-3.172,0q-7.61-7.608-15.218-15.22c-.256-.257-.491-.535-.736-.8Q49.992,216.758,49.991,215.958Z" transform="translate(-49.99 -173.37)" fill="#006ce5"/>
    <path id="Path_78503" data-name="Path 78503" d="M117.568,187.251a4.3,4.3,0,0,1-1.492-2.838,3.948,3.948,0,0,1,2.238-3.907,3.864,3.864,0,0,1,4.392.7c1.475,1.422,2.908,2.889,4.357,4.337,1.2,1.2,2.42,2.392,3.6,3.613a3.762,3.762,0,0,1,.915,4.19,3.634,3.634,0,0,1-3.448,2.528,11.574,11.574,0,0,1-2.462-.437,3.856,3.856,0,0,1-.737,5.03c-1.457,1.343-3.13,1.336-4.947.352,1.072,2.109.936,3.986-.893,5.45-1.452,1.163-3.062,1.064-4.777.087a4.388,4.388,0,0,1,.707,2.844,3.791,3.791,0,0,1-2.448,3.2,3.623,3.623,0,0,1-3.971-.631,45.646,45.646,0,0,1-3.478-3.474,3.843,3.843,0,0,1-.225-4.734,3.947,3.947,0,0,1,4.562-1.491,2.72,2.72,0,0,0,.738.2c-.466-.483-.952-.949-1.394-1.453a3.947,3.947,0,0,1,1.867-6.389c.9-.266,1.374-.223,3.192.32-.523-.539-.966-.968-1.378-1.425a3.948,3.948,0,0,1,2.057-6.532A5.13,5.13,0,0,1,117.568,187.251Z" transform="translate(-97.528 -176.265)" fill="#006ce5"/>
    <path id="Path_78504" data-name="Path 78504" d="M343.88,459.146c1.172-.4,2.312-.728,3.394-1.187a14.42,14.42,0,0,0,4.562-3.174q5.864-5.872,11.736-11.738c.156-.156.321-.3.5-.477.145.129.269.23.381.342q2.7,2.694,5.39,5.391a1.884,1.884,0,0,1,.012,3q-7.714,7.719-15.432,15.432a1.88,1.88,0,0,1-2.994-.006q-3.589-3.584-7.172-7.172C344.132,459.423,344.012,459.286,343.88,459.146Z" transform="translate(-307.725 -406.432)" fill="#006ce5"/>
    <path id="Path_78505" data-name="Path 78505" d="M278.24,151.257c1.516-.753,3.042-1.532,4.587-2.27a1.6,1.6,0,0,1,1.788.247,12.751,12.751,0,0,1,1.076,1.129l-4.047,4.293Z" transform="translate(-250.16 -148.818)" fill="#006ce5"/>
  </g>
</svg>
