<svg xmlns="http://www.w3.org/2000/svg" width="218.628" height="212.109" viewBox="0 0 218.628 212.109">
  <g id="Group_10480" data-name="Group 10480" transform="translate(-315.931 -5730.19)">
    <g id="Group_10459" data-name="Group 10459" transform="translate(559.674 7001.035)" opacity="0.3">
      <path id="Path_65105" data-name="Path 65105" d="M-231.674-917.463l5.532-26.652a20.249,20.249,0,0,1,16.777-15.9l24.485-3.729" transform="translate(0 -147.986)" fill="none" stroke="#031342" stroke-miterlimit="10" stroke-width="3.5"/>
      <path id="Path_65106" data-name="Path 65106" d="M50.368-950.241H5.053l-12.7-17.55,9.577-.005,45.415-.01a20.254,20.254,0,0,1,18.99,13.183L79.7-919.408" transform="translate(-112.453 -145.949)" fill="none" stroke="#031342" stroke-miterlimit="10" stroke-width="3.5"/>
      <path id="Path_65107" data-name="Path 65107" d="M-132.987-1004.058l17.545-1.27,15.768-8.521,14.378-22.76,5.458-8.646-2.54-16.022-9.089,9.851-21.176,22.954-25.439,3.929a14.4,14.4,0,0,0-11.664,10.314l-13.506,47.805" transform="translate(-34.346 -99.03)" fill="none" stroke="#031342" stroke-miterlimit="10" stroke-width="3.5"/>
      <line id="Line_249" data-name="Line 249" y1="38.91" x2="6.103" transform="translate(-155.889 -1104.359)" fill="none" stroke="#031342" stroke-miterlimit="10" stroke-width="3.5"/>
      <line id="Line_250" data-name="Line 250" x1="10.342" y1="30.738" transform="translate(-75.329 -1096.188)" fill="none" stroke="#031342" stroke-miterlimit="10" stroke-width="3.5"/>
      <path id="Path_65108" data-name="Path 65108" d="M-109.492-1258.556l5.593,13.427,17.057,40.968,22.361,53.707" transform="translate(-61.332 0)" fill="none" stroke="#031342" stroke-miterlimit="10" stroke-width="3.5"/>
      <line id="Line_251" data-name="Line 251" x1="12.799" y1="30.738" transform="translate(-103.217 -1096.19)" fill="none" stroke="#031342" stroke-miterlimit="10" stroke-width="3.5"/>
      <line id="Line_252" data-name="Line 252" x1="9.114" y1="21.893" transform="translate(-119.642 -1135.638)" fill="none" stroke="#031342" stroke-miterlimit="10" stroke-width="3.5"/>
      <path id="Path_65109" data-name="Path 65109" d="M-142.336-1190.626l-59.584,26.668,1.7-25.063-19.827-15.427,60.649-27.144" transform="translate(-5.839 -13.535)" fill="none" stroke="#031342" stroke-miterlimit="10" stroke-width="3.5"/>
      <circle id="Ellipse_631" data-name="Ellipse 631" cx="15.525" cy="15.525" r="15.525" transform="translate(-225.881 -1151.382)" fill="none" stroke="#031342" stroke-miterlimit="10" stroke-width="3.5"/>
      <circle id="Ellipse_632" data-name="Ellipse 632" cx="15.525" cy="15.525" r="15.525" transform="translate(-181.879 -1170.146)" fill="none" stroke="#031342" stroke-miterlimit="10" stroke-width="3.5"/>
      <circle id="Ellipse_633" data-name="Ellipse 633" cx="15.525" cy="15.525" r="15.525" transform="translate(-90.855 -1154.62)" fill="none" stroke="#031342" stroke-miterlimit="10" stroke-width="3.5"/>
    </g>
    <g id="Group_10470" data-name="Group 10470" transform="translate(549.674 6991.035)">
      <path id="Path_65105-2" data-name="Path 65105" d="M-231.674-917.463l5.532-26.652a20.249,20.249,0,0,1,16.777-15.9l24.485-3.729" transform="translate(0 -147.986)" fill="none" stroke="#00cb82" stroke-linecap="round" stroke-linejoin="round" stroke-miterlimit="10" stroke-width="3.5"/>
      <path id="Path_65106-2" data-name="Path 65106" d="M50.368-950.241H5.053l-12.7-17.55,9.577-.005,45.415-.01a20.254,20.254,0,0,1,18.99,13.183L79.7-919.408" transform="translate(-112.453 -145.949)" fill="none" stroke="#00cb82" stroke-linecap="round" stroke-linejoin="round" stroke-miterlimit="10" stroke-width="3.5"/>
      <path id="Path_65107-2" data-name="Path 65107" d="M-132.987-1004.058l17.545-1.27,15.768-8.521,14.378-22.76,5.458-8.646-2.54-16.022-9.089,9.851-21.176,22.954-25.439,3.929a14.4,14.4,0,0,0-11.664,10.314l-13.506,47.805" transform="translate(-34.346 -99.03)" fill="none" stroke="#00cb82" stroke-linecap="round" stroke-linejoin="round" stroke-miterlimit="10" stroke-width="3.5"/>
      <line id="Line_249-2" data-name="Line 249" y1="38.91" x2="6.103" transform="translate(-155.889 -1104.359)" fill="none" stroke="#00cb82" stroke-linecap="round" stroke-miterlimit="10" stroke-width="3.5"/>
      <line id="Line_250-2" data-name="Line 250" x1="10.342" y1="30.738" transform="translate(-75.329 -1096.188)" fill="none" stroke="#00cb82" stroke-linecap="round" stroke-miterlimit="10" stroke-width="3.5"/>
      <path id="Path_65108-2" data-name="Path 65108" d="M-109.492-1258.556l5.593,13.427,17.057,40.968,22.361,53.707" transform="translate(-61.332 0)" fill="none" stroke="#00cb82" stroke-linecap="round" stroke-linejoin="round" stroke-miterlimit="10" stroke-width="3.5"/>
      <line id="Line_251-2" data-name="Line 251" x1="12.799" y1="30.738" transform="translate(-103.217 -1096.19)" fill="none" stroke="#00cb82" stroke-linecap="round" stroke-miterlimit="10" stroke-width="3.5"/>
      <line id="Line_252-2" data-name="Line 252" x1="9.114" y1="21.893" transform="translate(-119.642 -1135.638)" fill="none" stroke="#00cb82" stroke-linecap="round" stroke-miterlimit="10" stroke-width="3.5"/>
      <path id="Path_65109-2" data-name="Path 65109" d="M-142.336-1190.626l-59.584,26.668,1.7-25.063-19.827-15.427,60.649-27.144" transform="translate(-5.839 -13.535)" fill="none" stroke="#00cb82" stroke-linecap="round" stroke-linejoin="round" stroke-miterlimit="10" stroke-width="3.5"/>
      <circle id="Ellipse_631-2" data-name="Ellipse 631" cx="15.525" cy="15.525" r="15.525" transform="translate(-225.881 -1151.382)" fill="none" stroke="#00cb82" stroke-linecap="round" stroke-linejoin="round" stroke-miterlimit="10" stroke-width="3.5"/>
      <circle id="Ellipse_632-2" data-name="Ellipse 632" cx="15.525" cy="15.525" r="15.525" transform="translate(-181.879 -1170.146)" fill="none" stroke="#00cb82" stroke-linecap="round" stroke-linejoin="round" stroke-miterlimit="10" stroke-width="3.5"/>
      <circle id="Ellipse_633-2" data-name="Ellipse 633" cx="15.525" cy="15.525" r="15.525" transform="translate(-90.855 -1154.62)" fill="none" stroke="#00cb82" stroke-linecap="round" stroke-linejoin="round" stroke-miterlimit="10" stroke-width="3.5"/>
    </g>
  </g>
</svg>
