<svg xmlns="http://www.w3.org/2000/svg" width="148.466" height="24.586" viewBox="0 0 148.466 24.586">
  <g id="Group_10349" data-name="Group 10349" transform="translate(-60 -25.477)">
    <g id="Group_9878" data-name="Group 9878" transform="translate(60 25.477)">
      <g id="Group_9876" data-name="Group 9876" transform="translate(30.163 1.786)">
        <path id="Path_64239" data-name="Path 64239" d="M324.658,83.806h-1.974a3.256,3.256,0,0,1-1.485-.324,2.689,2.689,0,0,1-1.063-.977l-3.759-5.074-3.764,5.074a2.689,2.689,0,0,1-1.063.977,3.284,3.284,0,0,1-1.492.324h-1.967l5.671-7.688a.715.715,0,0,0,.145-.462.932.932,0,0,0-.1-.409l-5.243-7.122h1.974a3.236,3.236,0,0,1,1.485.324,2.755,2.755,0,0,1,1.07.977l3.282,4.455,3.292-4.455a2.75,2.75,0,0,1,1.069-.977,3.239,3.239,0,0,1,1.486-.324H324.2l-5.253,7.122a.951.951,0,0,0-.106.409.754.754,0,0,0,.146.462Z" transform="translate(-206.356 -62.792)" fill="#00337f"/>
        <path id="Path_64240" data-name="Path 64240" d="M246.366,68.125,239.529,83.8h-2.607L230.09,68.125h1.65a2.272,2.272,0,0,1,1.248.363,1.879,1.879,0,0,1,.812.97l4.426,10.171,4.431-10.164a2.12,2.12,0,0,1,.825-.977,2.267,2.267,0,0,1,1.235-.363Z" transform="translate(-170.925 -62.792)" fill="#00337f"/>
        <path id="Path_64241" data-name="Path 64241" d="M121.686,58.355v2.867h6.469V79.366h2.868V61.222h6.453V58.355Z" transform="translate(-121.686 -58.354)" fill="#00337f"/>
        <path id="Path_64242" data-name="Path 64242" d="M163.356,74.36a1.408,1.408,0,0,0-.042-.332,7.6,7.6,0,0,0-1.035-2.334,7.967,7.967,0,0,0-3.955-3.089,7.467,7.467,0,0,0-2.582-.449,7.557,7.557,0,0,0-3.036.618,7.745,7.745,0,0,0-2.493,1.679,7.925,7.925,0,0,0-1.684,2.5,7.827,7.827,0,0,0,0,6.072,7.858,7.858,0,0,0,1.684,2.5A7.747,7.747,0,0,0,152.7,83.2a7.791,7.791,0,0,0,6.215-.058,8.1,8.1,0,0,0,2.556-1.832l-.554-.549a2.481,2.481,0,0,0-.708-.507,1.933,1.933,0,0,0-.845-.175,2.166,2.166,0,0,0-.607.074,2.428,2.428,0,0,0-.57.233,5.234,5.234,0,0,1-1.167.464,4.7,4.7,0,0,1-1.283.169,4.931,4.931,0,0,1-1.753-.317,4.994,4.994,0,0,1-1.505-.882,5.152,5.152,0,0,1-1.124-1.309,4.441,4.441,0,0,1-.57-1.642H161.37a1.774,1.774,0,0,0,.671-.148,2.112,2.112,0,0,0,.649-.438,2.41,2.41,0,0,0,.486-.681,2,2,0,0,0,.2-.908A2.284,2.284,0,0,1,163.356,74.36Zm-12.261-.29a5,5,0,0,1,3.02-2.852,5.029,5.029,0,0,1,1.626-.264,4.837,4.837,0,0,1,1.511.232,4.785,4.785,0,0,1,1.325.649,4.718,4.718,0,0,1,1.066.982,5.049,5.049,0,0,1,.755,1.251Z" transform="translate(-133.6 -62.806)" fill="#00337f"/>
        <path id="Path_64243" data-name="Path 64243" d="M190.981,80.248a2.076,2.076,0,0,0-.839-.174,2.341,2.341,0,0,0-1.161.306,4.447,4.447,0,0,1-1.183.48,5.252,5.252,0,0,1-1.283.159,4.861,4.861,0,0,1-1.959-.4,5.129,5.129,0,0,1-2.678-2.677,5.048,5.048,0,0,1,0-3.918,5.231,5.231,0,0,1,1.083-1.595,5.121,5.121,0,0,1,1.595-1.077,4.783,4.783,0,0,1,1.959-.4,7.456,7.456,0,0,1,1.283.174,4.252,4.252,0,0,1,1.183.464,2.018,2.018,0,0,0,1.072.306,2.268,2.268,0,0,0,.9-.169,2.394,2.394,0,0,0,.74-.512l.555-.555a8.2,8.2,0,0,0-2.556-1.832,7.781,7.781,0,0,0-6.21-.058,8,8,0,0,0-2.5,1.679,7.919,7.919,0,0,0-1.679,2.5,7.769,7.769,0,0,0,0,6.072,7.907,7.907,0,0,0,1.679,2.5,8.013,8.013,0,0,0,2.5,1.679,7.778,7.778,0,0,0,6.21-.058,8.187,8.187,0,0,0,2.556-1.832l-.555-.549A2.431,2.431,0,0,0,190.981,80.248Z" transform="translate(-147.575 -62.806)" fill="#00337f"/>
        <path id="Path_64244" data-name="Path 64244" d="M219.406,70.195v9.171h-2.872V70.195a2.608,2.608,0,0,0-.02-.324,3.614,3.614,0,0,0-7.215.324v9.171h-2.871V58.354H209.3v6.454h.007a6.41,6.41,0,0,1,3.611-1.1A6.488,6.488,0,0,1,219.406,70.195Z" transform="translate(-160.178 -58.354)" fill="#00337f"/>
        <path id="Path_64245" data-name="Path 64245" d="M273.9,74.36a1.173,1.173,0,0,0-.043-.332,7.253,7.253,0,0,0-1.04-2.334,7.871,7.871,0,0,0-1.716-1.859,8.127,8.127,0,0,0-2.228-1.23,7.48,7.48,0,0,0-2.588-.449,7.555,7.555,0,0,0-3.036.618,7.884,7.884,0,0,0-2.5,1.679,8.1,8.1,0,0,0-1.679,2.5,7.769,7.769,0,0,0,0,6.072,8.029,8.029,0,0,0,1.679,2.5,7.885,7.885,0,0,0,2.5,1.679,7.789,7.789,0,0,0,6.215-.058,8.08,8.08,0,0,0,2.551-1.832l-.55-.549a2.359,2.359,0,0,0-.713-.507,1.879,1.879,0,0,0-.839-.175,2.169,2.169,0,0,0-.607.074,2.4,2.4,0,0,0-.565.233,5.456,5.456,0,0,1-1.167.464,4.712,4.712,0,0,1-1.289.169,4.9,4.9,0,0,1-1.748-.317,4.986,4.986,0,0,1-1.516-.882,5.111,5.111,0,0,1-1.114-1.309,4.456,4.456,0,0,1-.581-1.642h10.587a1.842,1.842,0,0,0,.676-.148,2.021,2.021,0,0,0,.644-.438,2.293,2.293,0,0,0,.481-.681,2,2,0,0,0,.2-.908C273.911,74.587,273.9,74.482,273.9,74.36Zm-12.262-.29a4.747,4.747,0,0,1,.523-.961,5.077,5.077,0,0,1,1.088-1.141,5.206,5.206,0,0,1,1.4-.75,5.109,5.109,0,0,1,1.632-.264,4.788,4.788,0,0,1,1.51.232,4.935,4.935,0,0,1,1.326.649,4.605,4.605,0,0,1,1.066.982,5.381,5.381,0,0,1,.755,1.251Z" transform="translate(-183.81 -62.806)" fill="#00337f"/>
        <path id="Path_64246" data-name="Path 64246" d="M299.171,68.578l-.047.285-.169.945a1.593,1.593,0,0,1-.523.951,1.5,1.5,0,0,1-1,.343c-.053,0-1.066-.074-1.257-.074a3.6,3.6,0,0,0-3.036,1.653l-.005.005a3.715,3.715,0,0,0-.3.576,2.77,2.77,0,0,0-.094.269.633.633,0,0,0-.027.074,3.021,3.021,0,0,0-.079.311,2.684,2.684,0,0,0-.053.359,2.838,2.838,0,0,0-.021.37v9.172h-2.873V68.156h2.873v1.1h0a6.429,6.429,0,0,1,3.612-1.1A9.29,9.29,0,0,1,299.171,68.578Z" transform="translate(-197.996 -62.806)" fill="#00337f"/>
      </g>
      <g id="Group_9877" data-name="Group 9877" transform="translate(0 0)">
        <rect id="Rectangle_7779" data-name="Rectangle 7779" width="17.417" height="4.403" rx="1.501" transform="translate(0 12.316) rotate(-45)" fill="#00337f"/>
        <rect id="Rectangle_7780" data-name="Rectangle 7780" width="4.403" height="4.403" rx="1.501" transform="translate(4.601 16.917) rotate(-45)" fill="#00337f"/>
        <rect id="Rectangle_7781" data-name="Rectangle 7781" width="4.403" height="4.403" rx="1.501" transform="translate(9.248 21.472) rotate(-45)" fill="#00337f"/>
        <rect id="Rectangle_7782" data-name="Rectangle 7782" width="4.403" height="4.403" rx="1.501" transform="translate(18.405 12.316) rotate(-45)" fill="#00337f"/>
        <rect id="Rectangle_7783" data-name="Rectangle 7783" width="4.403" height="4.403" rx="1.501" transform="translate(13.804 7.714) rotate(-45)" fill="#00337f"/>
        <rect id="Rectangle_7784" data-name="Rectangle 7784" width="4.403" height="10.91" rx="1.501" transform="translate(9.202 12.316) rotate(-45)" fill="#00337f"/>
      </g>
    </g>
  </g>
</svg>
