<svg xmlns="http://www.w3.org/2000/svg" width="199.278" height="33" viewBox="0 0 199.278 33">
  <g id="Group_9875" data-name="Group 9875" transform="translate(-60 -25.477)">
    <g id="Group_9878" data-name="Group 9878" transform="translate(60 25.477)">
      <g id="Group_9876" data-name="Group 9876" transform="translate(40.487 2.397)">
        <path id="Path_64239" data-name="Path 64239" d="M330.328,89.173h-2.65a4.37,4.37,0,0,1-1.993-.434,3.61,3.61,0,0,1-1.426-1.311l-5.045-6.811-5.052,6.811a3.61,3.61,0,0,1-1.426,1.311,4.409,4.409,0,0,1-2,.434h-2.64l7.612-10.32a.959.959,0,0,0,.195-.62,1.251,1.251,0,0,0-.133-.549l-7.037-9.559h2.649a4.344,4.344,0,0,1,1.993.434,3.7,3.7,0,0,1,1.436,1.311l4.406,5.979,4.419-5.979a3.691,3.691,0,0,1,1.435-1.311,4.347,4.347,0,0,1,1.994-.434h2.649l-7.051,9.559a1.277,1.277,0,0,0-.142.549,1.012,1.012,0,0,0,.2.62Z" transform="translate(-171.537 -60.967)" fill="#fff"/>
        <path id="Path_64240" data-name="Path 64240" d="M251.936,68.125,242.76,89.17h-3.5L230.09,68.125h2.215a3.049,3.049,0,0,1,1.675.488,2.522,2.522,0,0,1,1.089,1.3l5.941,13.651,5.947-13.643a2.846,2.846,0,0,1,1.107-1.311,3.043,3.043,0,0,1,1.657-.488Z" transform="translate(-150.676 -60.967)" fill="#fff"/>
        <path id="Path_64241" data-name="Path 64241" d="M121.686,58.355V62.2h8.682V86.557h3.849V62.2h8.661V58.355Z" transform="translate(-121.686 -58.354)" fill="#fff"/>
        <path id="Path_64242" data-name="Path 64242" d="M168.64,76.484a1.89,1.89,0,0,0-.056-.446,10.2,10.2,0,0,0-1.39-3.133,10.694,10.694,0,0,0-5.309-4.146,10.023,10.023,0,0,0-3.466-.6,10.144,10.144,0,0,0-4.075.829A10.4,10.4,0,0,0,151,71.239a10.638,10.638,0,0,0-2.261,3.353,10.505,10.505,0,0,0,0,8.151A10.547,10.547,0,0,0,151,86.1a10.4,10.4,0,0,0,3.346,2.254,10.457,10.457,0,0,0,8.343-.078,10.873,10.873,0,0,0,3.431-2.459l-.744-.737a3.331,3.331,0,0,0-.95-.681,2.6,2.6,0,0,0-1.134-.234,2.907,2.907,0,0,0-.815.1,3.26,3.26,0,0,0-.766.312,7.024,7.024,0,0,1-1.567.623,6.3,6.3,0,0,1-1.722.227A6.619,6.619,0,0,1,156.066,85a6.7,6.7,0,0,1-2.02-1.184,6.914,6.914,0,0,1-1.509-1.757,5.961,5.961,0,0,1-.766-2.2h14.2a2.382,2.382,0,0,0,.9-.2,2.835,2.835,0,0,0,.872-.588,3.234,3.234,0,0,0,.652-.914,2.683,2.683,0,0,0,.269-1.219A3.067,3.067,0,0,1,168.64,76.484Zm-16.458-.39a6.715,6.715,0,0,1,4.054-3.828,6.751,6.751,0,0,1,2.183-.354,6.493,6.493,0,0,1,2.028.311,6.423,6.423,0,0,1,1.779.872,6.332,6.332,0,0,1,1.431,1.319,6.778,6.778,0,0,1,1.014,1.68Z" transform="translate(-128.7 -60.975)" fill="#fff"/>
        <path id="Path_64243" data-name="Path 64243" d="M195.19,84.387a2.786,2.786,0,0,0-1.127-.234,3.142,3.142,0,0,0-1.559.411,5.969,5.969,0,0,1-1.588.645,7.05,7.05,0,0,1-1.722.213,6.525,6.525,0,0,1-2.629-.532,6.884,6.884,0,0,1-3.594-3.593,6.775,6.775,0,0,1,0-5.259,7.022,7.022,0,0,1,1.453-2.141,6.874,6.874,0,0,1,2.141-1.446,6.42,6.42,0,0,1,2.629-.538,10.011,10.011,0,0,1,1.722.234,5.708,5.708,0,0,1,1.588.623,2.709,2.709,0,0,0,1.439.411,3.044,3.044,0,0,0,1.2-.226,3.214,3.214,0,0,0,.993-.688l.744-.744a11,11,0,0,0-3.431-2.459,10.443,10.443,0,0,0-8.335-.078,10.741,10.741,0,0,0-3.353,2.253,10.63,10.63,0,0,0-2.253,3.353,10.428,10.428,0,0,0,0,8.151,10.613,10.613,0,0,0,2.253,3.353,10.756,10.756,0,0,0,3.353,2.254,10.44,10.44,0,0,0,8.335-.078,10.989,10.989,0,0,0,3.431-2.459l-.744-.737A3.263,3.263,0,0,0,195.19,84.387Z" transform="translate(-136.929 -60.975)" fill="#fff"/>
        <path id="Path_64244" data-name="Path 64244" d="M223.847,74.247v12.31h-3.855V74.247a3.5,3.5,0,0,0-.026-.434,4.851,4.851,0,0,0-9.684.434v12.31h-3.854v-28.2h3.854v8.663h.009a8.6,8.6,0,0,1,4.847-1.48A8.709,8.709,0,0,1,223.847,74.247Z" transform="translate(-144.349 -58.354)" fill="#fff"/>
        <path id="Path_64245" data-name="Path 64245" d="M279.187,76.484a1.575,1.575,0,0,0-.057-.446,9.736,9.736,0,0,0-1.4-3.133,10.565,10.565,0,0,0-2.3-2.5,10.908,10.908,0,0,0-2.991-1.651,10.04,10.04,0,0,0-3.473-.6,10.141,10.141,0,0,0-4.075.829,10.582,10.582,0,0,0-3.353,2.253,10.871,10.871,0,0,0-2.254,3.353,10.428,10.428,0,0,0,0,8.151,10.776,10.776,0,0,0,2.254,3.353,10.584,10.584,0,0,0,3.353,2.254,10.455,10.455,0,0,0,8.342-.078,10.845,10.845,0,0,0,3.424-2.459l-.738-.737a3.166,3.166,0,0,0-.957-.681,2.522,2.522,0,0,0-1.127-.234,2.912,2.912,0,0,0-.815.1,3.224,3.224,0,0,0-.758.312,7.324,7.324,0,0,1-1.566.623,6.326,6.326,0,0,1-1.73.227A6.583,6.583,0,0,1,266.62,85a6.693,6.693,0,0,1-2.034-1.184,6.861,6.861,0,0,1-1.5-1.757,5.982,5.982,0,0,1-.779-2.2h14.21a2.472,2.472,0,0,0,.908-.2,2.713,2.713,0,0,0,.864-.588,3.079,3.079,0,0,0,.645-.914,2.683,2.683,0,0,0,.269-1.219C279.2,76.789,279.187,76.647,279.187,76.484Zm-16.459-.39a6.371,6.371,0,0,1,.7-1.29,6.815,6.815,0,0,1,1.461-1.531,6.987,6.987,0,0,1,1.885-1.007,6.858,6.858,0,0,1,2.19-.354,6.426,6.426,0,0,1,2.027.311,6.623,6.623,0,0,1,1.779.872,6.181,6.181,0,0,1,1.431,1.319,7.223,7.223,0,0,1,1.013,1.68Z" transform="translate(-158.262 -60.975)" fill="#fff"/>
        <path id="Path_64246" data-name="Path 64246" d="M302.417,68.723l-.064.382-.227,1.269a2.138,2.138,0,0,1-.7,1.276,2.008,2.008,0,0,1-1.339.461c-.071,0-1.431-.1-1.687-.1a4.835,4.835,0,0,0-4.075,2.218l-.007.007a4.991,4.991,0,0,0-.4.773,3.714,3.714,0,0,0-.127.361.846.846,0,0,0-.036.1,4.048,4.048,0,0,0-.106.418,3.605,3.605,0,0,0-.071.482,3.814,3.814,0,0,0-.028.5V89.179h-3.856V68.156h3.856v1.481h.007a8.63,8.63,0,0,1,4.848-1.481A12.47,12.47,0,0,1,302.417,68.723Z" transform="translate(-166.614 -60.975)" fill="#fff"/>
      </g>
      <g id="Group_9877" data-name="Group 9877" transform="translate(0 0)">
        <rect id="Rectangle_7779" data-name="Rectangle 7779" width="23.378" height="5.91" rx="1.501" transform="translate(0 16.531) rotate(-45)" fill="#fff"/>
        <rect id="Rectangle_7780" data-name="Rectangle 7780" width="5.91" height="5.91" rx="1.501" transform="translate(6.176 22.707) rotate(-45)" fill="#fff"/>
        <rect id="Rectangle_7781" data-name="Rectangle 7781" width="5.91" height="5.91" rx="1.501" transform="translate(12.413 28.821) rotate(-45)" fill="#fff"/>
        <rect id="Rectangle_7782" data-name="Rectangle 7782" width="5.91" height="5.91" rx="1.501" transform="translate(24.704 16.531) rotate(-45)" fill="#fff"/>
        <rect id="Rectangle_7783" data-name="Rectangle 7783" width="5.91" height="5.91" rx="1.501" transform="translate(18.528 10.355) rotate(-45)" fill="#fff"/>
        <rect id="Rectangle_7784" data-name="Rectangle 7784" width="5.91" height="14.644" rx="1.501" transform="translate(12.352 16.531) rotate(-45)" fill="#fff"/>
      </g>
    </g>
  </g>
</svg>
