<svg id="terraform" xmlns="http://www.w3.org/2000/svg" width="247.84" height="59.475" viewBox="0 0 247.84 59.475">
  <path id="Path_81806" data-name="Path 81806" d="M177.59,34.833c7.395,0,9.05,4.312,9.05,9.288v4.956H173.754v1.189c.049,2.756,1.041,3.846,4.55,3.846a24.173,24.173,0,0,0,7.058-1.09l.9,4.361a24.761,24.761,0,0,1-8.485,1.467c-7.246,0-9.764-3.36-9.764-8.921v-6.1C168.014,38.957,170.195,34.833,177.59,34.833Zm48.59-.01c7.246,0,9.387,2.557,9.387,8.336l-.02,15.216h-4.738l-.426-1.566a12.615,12.615,0,0,1-6.869,2.042c-4.213,0-6.017-2.894-6.017-6.869,0-4.689,2.042-6.493,6.73-6.493h5.541V43.07c0-2.557-.714-3.459-4.411-3.459a32.228,32.228,0,0,0-6.393.714l-.714-4.411A30.2,30.2,0,0,1,226.18,34.823Zm38.411,0c7.91,0,10.041,4.361,10.041,9.1v5.828c.01,4.738-2.131,9.1-10.041,9.1-7.93,0-10.041-4.361-10.041-9.1V43.923C254.55,39.185,256.681,34.823,264.591,34.823Zm-91.729-8.009v5.264h-8.822v26.3h-5.947l-.02-26.3H149.26V26.814Zm76.1-1.893a18.362,18.362,0,0,1,4.956.664l-.6,4.451a16.92,16.92,0,0,0-3.321-.377c-2.27,0-2.607.991-2.607,2.746V35.3h5.878l-.327,4.6h-5.541V58.375h-5.779V39.9h-3.7V35.3h3.7V32.078C241.614,27.29,243.844,24.921,248.959,24.921Zm61.388,12.371a22.659,22.659,0,0,1,9.288-2.468c3.836,0,5.214,2.7,5.214,6.82V58.375h-5.779V42.268c0-1.229-.525-1.844-1.844-1.844a15.3,15.3,0,0,0-6.016,1.982V58.375H305.39V42.268c0-1.229-.525-1.844-1.843-1.844a15.947,15.947,0,0,0-6.017,1.982V58.375h-5.779V35.3h4.411l.565,1.982a23.107,23.107,0,0,1,9.258-2.458A4.38,4.38,0,0,1,310.347,37.291ZM201.5,34.823l.595,5.313a45.411,45.411,0,0,0-6.136,3.36V58.365h-5.779V35.3h4.877l.377,2.557A25.9,25.9,0,0,1,201.5,34.823Zm14.135,0,.575,5.313a45.346,45.346,0,0,0-6.116,3.36V58.365h-5.779V35.3h4.877l.377,2.557A25.885,25.885,0,0,1,215.633,34.823Zm73.3,0,.575,5.313a45.369,45.369,0,0,0-6.116,3.36V58.365h-5.779V35.3h4.876l.377,2.557A25.857,25.857,0,0,1,288.936,34.823ZM229.769,49.652h-4.262c-1.894,0-2.419.525-2.419,2.27s.525,2.319,2.32,2.319a9.1,9.1,0,0,0,4.361-1.189Zm34.822-9.9c-3.083,0-4.262,1.378-4.262,3.965V49.92c0,2.607,1.189,3.965,4.262,3.965s4.262-1.378,4.262-3.965V43.735C268.853,41.128,267.674,39.75,264.591,39.75Zm-86.952-.188c-2.845,0-3.836,1.517-3.836,3.7v1.17h7.345v-1.17C181.148,41.078,180.484,39.561,177.639,39.561Z" transform="translate(-77.008 -12.857)" fill="#fff"/>
  <g id="Group_26651" data-name="Group 26651">
    <path id="Path_81807" data-name="Path 81807" d="M74.538,49.806l16.256-9.377V21.645l-16.256,9.4Z" transform="translate(-38.457 -11.167)" fill="#fff"/>
    <path id="Path_81808" data-name="Path 81808" d="M18.041,10.477l16.256,9.4V38.639L18.041,29.251M0,18.774l16.256,9.387V9.387L0,0M18.041,50.088,34.3,59.475V40.7L18.041,31.313" fill="#fff"/>
  </g>
</svg>
