<svg xmlns="http://www.w3.org/2000/svg" width="61.453" height="58.199" viewBox="0 0 61.453 58.199">
  <g id="Group_25954" data-name="Group 25954" transform="translate(-5342.887 -838.771)">
    <path id="Path_80020" data-name="Path 80020" d="M5389.791,987.6l6.9.762c.793-1.646,1.5-3.272,2.344-4.822s1.816-3,2.761-4.538l2.144,1.608a32.946,32.946,0,0,0-4.468,7.942l7.953.285V979.3h2.594v9.455l8.018-.238a34.988,34.988,0,0,0-4.415-7.974l2.061-1.548c.144.191.274.355.395.525a37.391,37.391,0,0,1,4.436,8.171.709.709,0,0,0,.894.529c1.761-.228,3.526-.432,5.29-.644.188-.022.376-.037.618-.06.13.846.255,1.66.4,2.577l-6.094.736a41.571,41.571,0,0,1,1.552,9.65h8.074v2.581H5423.2c-.1,1.114-.177,2.186-.294,3.254-.083.747-.206,1.491-.345,2.23-.026.138-.211.346-.329.351-.766.032-1.533.016-2.3.016.239-1.958.469-3.847.706-5.794h-10.578v5.762h-2.6v-5.773h-10.609c.236,1.934.469,3.835.709,5.8-.769,0-1.557.026-2.341-.025-.129-.008-.32-.344-.343-.544-.18-1.571-.328-3.147-.484-4.721-.013-.131-.012-.264-.021-.471h-8.071v-2.593h8.078a38.582,38.582,0,0,1,1.562-9.585l-6.55-.79C5389.536,989.271,5389.662,988.44,5389.791,987.6Zm20.288,12.855h10.477a34.983,34.983,0,0,0-1.61-9.409l-8.867.331Zm-2.652-9.039c-.067-.034-.1-.064-.135-.065-2.8-.113-5.591-.218-8.387-.341-.348-.015-.419.171-.479.435-.37,1.654-.8,3.3-1.1,4.962-.231,1.3-.295,2.627-.437,3.97h10.538Z" transform="translate(-34.672 -111.968)" fill="#fff"/>
    <path id="Path_80021" data-name="Path 80021" d="M5520.041,864.449v-.668c0-2.511-.02-5.023.016-7.534.008-.542-.169-.738-.672-.826-.721-.126-1.436-.3-2.142-.493a.851.851,0,0,0-.961.261c-1.125,1.169-2.292,2.3-3.427,3.456a.556.556,0,0,1-.749.153c-.57-.278-1.379-.363-1.683-.807s-.117-1.221-.118-1.853c-.006-3.535,0-7.07-.013-10.605,0-.428.094-.674.522-.809.583-.184,1.194-.667,1.708-.571.49.091.875.758,1.3,1.18.85.844,1.7,1.685,2.536,2.545a.682.682,0,0,0,.759.215c.8-.211,1.609-.411,2.424-.558.421-.076.511-.263.508-.659-.017-2.453-.009-4.906-.009-7.36v-.7c.234-.014.436-.036.638-.037,1.178,0,2.357.016,3.535-.011a.76.76,0,0,1,.831.513c1.09,2.344,2.233,4.662,3.31,7.011a.99.99,0,0,0,1.085.667,40.959,40.959,0,0,1,4.686.091,4.5,4.5,0,0,1-.113,8.917c-1.534.133-3.087.081-4.631.074a.77.77,0,0,0-.825.52c-1.159,2.481-2.358,4.944-3.521,7.424a.729.729,0,0,1-.782.5c-1.2-.027-2.4-.008-3.593-.011C5520.474,864.482,5520.287,864.463,5520.041,864.449Z" transform="translate(-133.637)" fill="#fff"/>
    <path id="Path_80022" data-name="Path 80022" d="M5366.172,991.219c-.815,0-1.585.024-2.351-.023-.129-.008-.3-.3-.352-.495a25.067,25.067,0,0,1-.825-7.573,26.812,26.812,0,0,1,8.675-18.983,26.211,26.211,0,0,1,15.9-7.181,27.087,27.087,0,0,1,27.7,16.31,26.758,26.758,0,0,1,1.48,17.232c-.136.583-.38.789-.975.732-.626-.059-1.262-.013-1.835-.013,2.53-11.472-.363-21.049-10.205-27.659-8.52-5.722-17.6-5.64-26.47-.471a23.288,23.288,0,0,0-10.133,12.2A24.815,24.815,0,0,0,5366.172,991.219Z" transform="translate(-15.756 -94.278)" fill="#fff"/>
    <path id="Path_80023" data-name="Path 80023" d="M5380.67,922.792l1.379,2.235-5.024,3.752-1.75-1.949Z" transform="translate(-25.862 -67.089)" fill="#fff"/>
    <path id="Path_80024" data-name="Path 80024" d="M5422.878,902.785c.272.935.5,1.72.727,2.5l-5.787,2.339-1.174-2.348Z" transform="translate(-58.894 -51.114)" fill="#fff"/>
    <path id="Path_80025" data-name="Path 80025" d="M5346.98,954.669l1.9,1.774-3.773,4.946-2.222-1.371Z" transform="translate(0 -92.542)" fill="#fff"/>
    <path id="Path_80026" data-name="Path 80026" d="M5470.831,897.578l-6.242.709-.521-2.5L5470.7,895C5470.747,895.968,5470.791,896.8,5470.831,897.578Z" transform="translate(-96.761 -44.896)" fill="#fff"/>
  </g>
</svg>
