<svg xmlns="http://www.w3.org/2000/svg" width="47.202" height="47.202" viewBox="0 0 47.202 47.202">
  <g id="Group_11659" data-name="Group 11659" transform="translate(-1461.5 -2025.2)">
    <g id="Group_11658" data-name="Group 11658" transform="translate(1461.5 2025.2)">
      <path id="Path_65970" data-name="Path 65970" d="M1508.69,2063.662v2.766c-.147-.012-.307-.037-.455-.037h-17.271c-.147,0-.3.012-.492.025v.516c0,1.229.037,2.446-.012,3.676a1.676,1.676,0,0,0,1.032,1.795H1461.5v-47.2h47.2v18.4a1.635,1.635,0,0,0-1.758-1.094c-4.942.012-9.871.012-14.812.012-1.131,0-1.647.529-1.647,1.659V2057.1h-3.921v-15.426a1.407,1.407,0,0,0-1.586-1.586h-5.163v-13.177a1.419,1.419,0,0,0-1.635-1.623h-14.947a1.424,1.424,0,0,0-1.635,1.623v19.434h18.242v-3.479h3.971v15.279c0,1.2.516,1.721,1.7,1.721h5v3.749h17.615C1508.3,2063.625,1508.493,2063.65,1508.69,2063.662Zm-47.1-14.5v4.548a1.378,1.378,0,0,0,1.475,1.463q7.633.018,15.267,0a1.385,1.385,0,0,0,1.475-1.512v-4.142c0-.123-.012-.234-.025-.369C1473.706,2049.157,1467.683,2049.157,1461.586,2049.157Z" transform="translate(-1461.5 -2025.2)" fill="none"/>
      <path id="Path_65971" data-name="Path 65971" d="M1509.216,2064.364c-.2-.012-.393-.037-.59-.037h-17.615v-3.749h-5c-1.18,0-1.7-.516-1.7-1.721v-15.279h-3.97v3.479H1462.1v-19.434a1.424,1.424,0,0,1,1.635-1.623h14.947a1.419,1.419,0,0,1,1.635,1.623V2040.8h5.163a1.4,1.4,0,0,1,1.586,1.586v15.427h3.921v-12.919c0-1.143.516-1.659,1.647-1.659,4.942,0,9.871.012,14.812-.012a1.649,1.649,0,0,1,1.758,1.094Q1509.222,2054.327,1509.216,2064.364Zm-9.072-14.628h-1.918a1.379,1.379,0,0,0-1.438,1.4,1.362,1.362,0,0,0,1.438,1.352q1.881.019,3.761,0a1.378,1.378,0,1,0,0-2.753C1501.373,2049.724,1500.759,2049.736,1500.144,2049.736Zm-.025,8.088c-.639,0-1.291-.012-1.93,0a1.377,1.377,0,1,0-.025,2.753c1.278.025,2.569.013,3.86,0a1.377,1.377,0,1,0-.025-2.753C1501.373,2057.812,1500.746,2057.824,1500.12,2057.824Zm-28.887-25.309c-.639,0-1.291-.012-1.93,0a1.377,1.377,0,1,0-.012,2.753c1.278.024,2.569.024,3.847,0a1.377,1.377,0,1,0-.025-2.753C1472.487,2032.5,1471.86,2032.515,1471.233,2032.515Zm.012,8.076c-.639,0-1.291-.012-1.93,0a1.377,1.377,0,1,0,.012,2.753c1.254.024,2.52.024,3.774,0a1.366,1.366,0,0,0,1.438-1.4,1.38,1.38,0,0,0-1.45-1.352C1472.474,2040.579,1471.86,2040.591,1471.245,2040.591Z" transform="translate(-1462.026 -2025.902)" fill="#006ce5"/>
      <path id="Path_65972" data-name="Path 65972" d="M1698.022,2366.311a1.7,1.7,0,0,1-1.033-1.795c.049-1.229.012-2.446.012-3.675v-.516c.2-.012.344-.025.492-.025h17.271c.147,0,.307.025.455.037v4.966a2.114,2.114,0,0,1-1.008,1.008Z" transform="translate(-1668.041 -2319.109)" fill="#006ce5"/>
      <path id="Path_65973" data-name="Path 65973" d="M1837.2,2402.008a2.114,2.114,0,0,0,1.008-1.008v1.008Z" transform="translate(-1791.018 -2354.806)" fill="none"/>
      <path id="Path_65974" data-name="Path 65974" d="M1462.161,2220.1h18.193c.012.135.025.246.025.369v4.142a1.391,1.391,0,0,1-1.475,1.512q-7.634.019-15.267,0a1.384,1.384,0,0,1-1.475-1.463C1462.149,2223.148,1462.161,2221.649,1462.161,2220.1Z" transform="translate(-1462.075 -2196.142)" fill="#006ce5"/>
      <path id="Path_65975" data-name="Path 65975" d="M1747.567,2219.061c.615,0,1.229-.012,1.832,0a1.378,1.378,0,1,1,0,2.754q-1.88.019-3.761,0a1.378,1.378,0,1,1,0-2.754h1.93Z" transform="translate(-1709.448 -2195.226)" fill="none"/>
      <path id="Path_65976" data-name="Path 65976" d="M1747.63,2284.861c.627,0,1.254-.012,1.881,0a1.377,1.377,0,1,1,.025,2.753c-1.278.013-2.569.025-3.86,0a1.377,1.377,0,1,1,.025-2.753C1746.339,2284.848,1746.978,2284.861,1747.63,2284.861Z" transform="translate(-1709.536 -2252.938)" fill="none"/>
      <path id="Path_65977" data-name="Path 65977" d="M1512.63,2078.961c.627,0,1.254-.012,1.881,0a1.352,1.352,0,0,1,1.426,1.352,1.37,1.37,0,0,1-1.4,1.4c-1.278.025-2.569.025-3.847,0a1.378,1.378,0,0,1-1.389-1.414,1.358,1.358,0,0,1,1.4-1.34C1511.339,2078.948,1511.978,2078.961,1512.63,2078.961Z" transform="translate(-1503.423 -2072.347)" fill="none"/>
      <path id="Path_65978" data-name="Path 65978" d="M1512.644,2144.661c.615,0,1.229-.013,1.844,0a1.38,1.38,0,0,1,1.451,1.352,1.366,1.366,0,0,1-1.438,1.4c-1.254.012-2.52.012-3.774,0a1.377,1.377,0,1,1-.012-2.753C1511.365,2144.649,1512,2144.661,1512.644,2144.661Z" transform="translate(-1503.425 -2129.972)" fill="none"/>
    </g>
  </g>
</svg>
