<svg xmlns="http://www.w3.org/2000/svg" width="38.887" height="37.091" viewBox="0 0 38.887 37.091">
  <g id="Group_25873" data-name="Group 25873" transform="translate(0.001 -11.826)">
    <path id="Path_79890" data-name="Path 79890" d="M344.05,242.6h-.75v2.824h.75A1.412,1.412,0,0,0,344.05,242.6Z" transform="translate(-317.346 -213.358)" fill="#006ce5"/>
    <path id="Path_79891" data-name="Path 79891" d="M38.831,25.908a1.139,1.139,0,0,0-.687-.716L27.427,21.218l-7.09-8.964a1.147,1.147,0,0,0-1.787,0l-7.09,8.964L.743,25.192a1.139,1.139,0,0,0-.552,1.7l6.334,9.514.467,11.42a1.139,1.139,0,0,0,1.446,1.05L19.443,45.79l11.005,3.085a1.139,1.139,0,0,0,1.446-1.05l.467-11.42L38.7,26.891a1.139,1.139,0,0,0,.135-.984ZM13.342,29.354H12.65v6.182a1.139,1.139,0,0,1-2.279,0V29.354H9.681a1.139,1.139,0,0,1,0-2.279h3.661a1.139,1.139,0,0,1,0,2.279ZM22.413,33.1a3.58,3.58,0,0,1-7.16,0V30.656a3.58,3.58,0,0,1,7.16,0Zm4.352,1.139h-.691v1.3a1.139,1.139,0,0,1-2.279,0V28.215a1.139,1.139,0,0,1,1.139-1.139h1.83A3.58,3.58,0,0,1,26.765,34.235Z" transform="translate(0 0)" fill="#006ce5"/>
    <path id="Path_79892" data-name="Path 79892" d="M232.245,242.6a1.411,1.411,0,0,0-1.412,1.412v2.648a1.412,1.412,0,0,0,2.824,0v-2.648A1.411,1.411,0,0,0,232.245,242.6Z" transform="translate(-213.408 -213.48)" fill="#006ce5"/>
  </g>
</svg>
