<svg id="top-developers" xmlns="http://www.w3.org/2000/svg" width="152.98" height="26.498" viewBox="0 0 152.98 26.498">
  <path id="Path_64988" data-name="Path 64988" d="M56.2,19.2h8.947v1.5H61.39v11H59.82v-11H56.2Z" transform="translate(-17.818 -12.644)" fill="#fff"/>
  <path id="Path_64989" data-name="Path 64989" d="M71.4,24.1c3.142,0,4.1,1.161,4.1,4.781,0,3.346-.956,4.507-4.1,4.507s-4.1-1.229-4.1-4.507C67.3,25.124,68.324,24.1,71.4,24.1Zm0,7.786c1.707,0,2.527-.2,2.527-3.073,0-3.073-.615-3.278-2.527-3.278-1.776,0-2.527.273-2.527,3.278C68.871,31.681,69.69,31.886,71.4,31.886Z" transform="translate(-21.338 -14.197)" fill="#fff"/>
  <path id="Path_64990" data-name="Path 64990" d="M82.068,24.137H83.3l.341.956A7.371,7.371,0,0,1,86.849,24c2.459,0,3,2.322,3,4.576,0,2.39-.41,4.712-3,4.712a9.37,9.37,0,0,1-3.278-.683v5.122H82V24.137Zm4.644,7.786c1.024,0,1.571-.615,1.571-3.278,0-2.185-.546-3.142-1.571-3.142a6.8,6.8,0,0,0-3.073.751v5.259A10.8,10.8,0,0,0,86.712,31.922Z" transform="translate(-25.998 -14.166)" fill="#fff"/>
  <path id="Path_64991" data-name="Path 64991" d="M96.9,19.2h4.917c3.825,0,4.507,3.62,4.507,6.283,0,3.073-1.229,6.215-4.507,6.215H96.9Zm4.849,10.927c2.117,0,2.937-2.117,2.937-4.712,0-3.551-1.093-4.781-2.937-4.781H98.471v9.493Z" transform="translate(-30.723 -12.644)" fill="#fff"/>
  <path id="Path_64992" data-name="Path 64992" d="M116.66,24.1c2.322,0,3.62.2,3.62,3.21,0,1.366-.751,2.117-2.459,2.117h-3.551c0,1.981.478,2.39,1.776,2.39a25.688,25.688,0,0,0,4.1-.2v1.161a16.1,16.1,0,0,1-4.439.478c-2.322,0-3-1.161-3-4.644C112.63,24.646,113.791,24.1,116.66,24.1Zm1.024,4.029q1.024,0,1.024-.82c0-1.639-.273-1.776-1.981-1.776-1.776,0-2.459,0-2.459,2.6Z" transform="translate(-35.731 -14.197)" fill="#fff"/>
  <path id="Path_64993" data-name="Path 64993" d="M127.007,24.2l2.663,6.966,2.664-6.966h1.707l-3.62,9.083h-1.639L125.3,24.2Z" transform="translate(-39.727 -14.229)" fill="#fff"/>
  <path id="Path_64994" data-name="Path 64994" d="M143.529,24.1c2.322,0,3.62.2,3.62,3.21,0,1.366-.751,2.117-2.459,2.117h-3.62c0,1.981.478,2.39,1.776,2.39a25.688,25.688,0,0,0,4.1-.2v1.161a16.1,16.1,0,0,1-4.439.478c-2.322,0-3-1.161-3-4.644C139.5,24.646,140.661,24.1,143.529,24.1Zm1.024,4.029q1.024,0,1.024-.82c0-1.639-.273-1.776-1.981-1.776-1.776,0-2.459,0-2.459,2.6Z" transform="translate(-44.229 -14.197)" fill="#fff"/>
  <path id="Path_64995" data-name="Path 64995" d="M153.3,17.9h1.571V27.939c0,1.434.41,1.776.956,1.912,0,0,1.3.341,1.434.341v1.093h-1.639c-1.366,0-2.322-.82-2.322-3.21V17.9Z" transform="translate(-48.604 -12.232)" fill="#fff"/>
  <path id="Path_64996" data-name="Path 64996" d="M164.1,24.1c3.142,0,4.1,1.161,4.1,4.781,0,3.346-.956,4.507-4.1,4.507s-4.1-1.229-4.1-4.507C160,25.124,161.093,24.1,164.1,24.1Zm0,7.786c1.707,0,2.527-.2,2.527-3.073,0-3.073-.615-3.278-2.527-3.278-1.776,0-2.527.273-2.527,3.278C161.639,31.681,162.459,31.886,164.1,31.886Z" transform="translate(-50.729 -14.197)" fill="#fff"/>
  <path id="Path_64997" data-name="Path 64997" d="M174.868,24.137H176.1l.341.956A7.371,7.371,0,0,1,179.649,24c2.459,0,3,2.322,3,4.576,0,2.39-.41,4.712-3,4.712a9.371,9.371,0,0,1-3.278-.683v5.122H174.8V24.137Zm4.576,7.786c1.024,0,1.571-.615,1.571-3.278,0-2.185-.546-3.142-1.571-3.142a6.8,6.8,0,0,0-3.073.751v5.259A11.5,11.5,0,0,0,179.444,31.922Z" transform="translate(-55.421 -14.166)" fill="#fff"/>
  <path id="Path_64998" data-name="Path 64998" d="M192.729,24.1c2.322,0,3.62.2,3.62,3.21,0,1.366-.751,2.117-2.459,2.117h-3.62c0,1.981.478,2.39,1.776,2.39a25.688,25.688,0,0,0,4.1-.2v1.161a16.1,16.1,0,0,1-4.439.478c-2.322,0-3-1.161-3-4.644C188.7,24.646,189.861,24.1,192.729,24.1Zm1.024,4.029q1.024,0,1.024-.82c0-1.639-.273-1.776-1.981-1.776-1.776,0-2.459,0-2.459,2.6Z" transform="translate(-59.828 -14.197)" fill="#fff"/>
  <path id="Path_64999" data-name="Path 64999" d="M202.5,24.168h1.229l.41,1.161a5.594,5.594,0,0,1,3.21-1.229,3.032,3.032,0,0,1,1.229.137v1.571a6.669,6.669,0,0,0-1.3-.068,4.95,4.95,0,0,0-3.142,1.024v6.625h-1.571v-9.22Z" transform="translate(-64.204 -14.197)" fill="#fff"/>
  <path id="Path_65000" data-name="Path 65000" d="M213,26.422c0-1.434.615-2.322,2.39-2.322a32.2,32.2,0,0,1,4.644.341v1.093H215.6c-.956,0-1.024.341-1.024.888V27.1c0,.82.41.888,1.024.888h2.6a2.1,2.1,0,0,1,2.322,2.254v.888a2,2,0,0,1-2.254,2.254,46.167,46.167,0,0,1-4.849-.341V31.954h4.644a.774.774,0,0,0,.888-.82v-.751c0-.546-.2-.82-.888-.82h-2.6c-1.639,0-2.459-.546-2.459-2.322Z" transform="translate(-67.533 -14.197)" fill="#fff"/>
  <path id="Path_65001" data-name="Path 65001" d="M24.586,9.6H2.254A2.086,2.086,0,0,0,0,11.444v22.81A2.086,2.086,0,0,0,2.254,36.1H24.586a2.086,2.086,0,0,0,2.254-1.844V11.444C26.908,10.42,25.884,9.6,24.586,9.6Z" transform="translate(0 -9.6)" fill="#fff" fill-rule="evenodd"/>
  <path id="Path_65002" data-name="Path 65002" d="M21.361,19.585A6.787,6.787,0,0,0,16.786,17.4H6.2v3.415H8.932L8.863,32.083h3.893V20.746h4.029a3.159,3.159,0,0,1,2.254,1.434,5.817,5.817,0,0,1,0,5.054,2.64,2.64,0,0,1-1.912,1.3l-3.21.068v3.415h2.8a7.744,7.744,0,0,0,2.663-.546A4.956,4.956,0,0,0,21.5,29.83a8.085,8.085,0,0,0-.137-10.244Z" transform="translate(-1.966 -12.073)" fill="#00449e" fill-rule="evenodd"/>
</svg>
