<svg id="Group_23836" data-name="Group 23836" xmlns="http://www.w3.org/2000/svg" width="15.166" height="34.858" viewBox="0 0 15.166 34.858">
  <path id="Path_78158" data-name="Path 78158" d="M294,196h10.11v2.988H294Z" transform="translate(-291.472 -186.041)" fill="#006ce5"/>
  <path id="Path_78159" data-name="Path 78159" d="M279.9,388.89V386.4H267.264v2.49L266,390.384v3.984h15.166v-3.984Z" transform="translate(-266 -359.51)" fill="#006ce5"/>
  <path id="Path_78160" data-name="Path 78160" d="M298.858,235.2a53.126,53.126,0,0,1-.566,7.559,49.753,49.753,0,0,1-1.1,5.388h9.6a49.835,49.835,0,0,1-1.1-5.388,52.427,52.427,0,0,1-.591-7.559Z" transform="translate(-294.374 -221.755)" fill="#006ce5"/>
  <path id="Path_78161" data-name="Path 78161" d="M328.038,86.242h1.537v-1h-1.79V84h-1.011v1.245h-1.749v1h1.5v.747h1.516Z" transform="translate(-319.697 -84.001)" fill="#006ce5"/>
  <path id="Path_78162" data-name="Path 78162" d="M293.9,123.2H283.149a.733.733,0,0,0-.738.727v.09l.061.209q.688,2.49,1.39,4.95h9.317l1.4-4.95.061-.209a.536.536,0,0,0,0-.09.722.722,0,0,0-.218-.516.743.743,0,0,0-.525-.211Z" transform="translate(-280.929 -119.714)" fill="#006ce5"/>
</svg>
