<svg xmlns="http://www.w3.org/2000/svg" width="84.282" height="84.288" viewBox="0 0 84.282 84.288">
  <g id="Group_24066" data-name="Group 24066" transform="translate(6427.414 -2284.785)">
    <path id="Path_78492" data-name="Path 78492" d="M-6382.32,2362.42c0,.77.013,1.635,0,2.5a2.945,2.945,0,0,1-2.976,3.151,2.944,2.944,0,0,1-2.895-3.146c-.015-.866,0-1.732,0-2.7a35.133,35.133,0,0,1-22.061-10.218,35.15,35.15,0,0,1-10.287-22.167c-1.112,0-2.2.061-3.273-.016a2.671,2.671,0,0,1-2.376-1.855,2.785,2.785,0,0,1,.5-2.911,2.856,2.856,0,0,1,2.369-1.044c.973.01,1.946,0,2.908,0a35.531,35.531,0,0,1,32.229-32.376c0-.976-.043-1.972.009-2.963a2.9,2.9,0,0,1,4.13-2.591,2.852,2.852,0,0,1,1.724,2.746c.015.973,0,1.947,0,2.788,18.66,3.013,29.43,13.728,32.53,32.4.73,0,1.618-.008,2.506,0a2.929,2.929,0,0,1,3.153,2.878,2.937,2.937,0,0,1-3.061,2.984c-.893.034-1.788.006-2.594.006C-6352.8,2348.568-6363.568,2359.356-6382.32,2362.42Zm-5.875-64.669c-15.528,1.4-25.759,14.628-26.31,26.271.951,0,1.9-.013,2.848,0a2.79,2.79,0,0,1,2.533,1.517,2.88,2.88,0,0,1-2.2,4.283,29.794,29.794,0,0,1-3.082.018c.964,14.008,13.077,25.545,26.245,26.373,0-1.063-.063-2.124.016-3.174a2.842,2.842,0,0,1,2.563-2.581,2.86,2.86,0,0,1,3.07,1.955,7.481,7.481,0,0,1,.187,1.821c.029.681.006,1.365.006,2.058,15.85-1.53,25.773-14.9,26.312-26.406-.894,0-1.786.026-2.676-.006a2.936,2.936,0,0,1-3.072-2.971,2.925,2.925,0,0,1,3.138-2.891c.888-.01,1.775,0,2.669,0-1.1-14.6-13.751-25.677-26.373-26.334,0,.893.018,1.783,0,2.673a2.933,2.933,0,0,1-2.955,3.085,2.941,2.941,0,0,1-2.913-3.128C-6388.208,2299.485-6388.2,2298.653-6388.2,2297.752Z" fill="#fff" stroke="#003e95" stroke-width="2"/>
    <path id="Path_78493" data-name="Path 78493" d="M-6252.007,2442.477a17.634,17.634,0,0,1,17.574,17.657,17.64,17.64,0,0,1-17.639,17.595,17.632,17.632,0,0,1-17.613-17.7A17.628,17.628,0,0,1-6252.007,2442.477Zm11.7,17.607a11.757,11.757,0,0,0-11.748-11.732,11.753,11.753,0,0,0-11.752,11.725,11.757,11.757,0,0,0,11.788,11.776A11.762,11.762,0,0,0-6240.31,2460.084Z" transform="translate(-133.199 -133.156)" fill="#fff" stroke="#003e95" stroke-width="2"/>
    <path id="Path_78494" data-name="Path 78494" d="M-6168.81,2540.454a2.9,2.9,0,0,1,2.917,2.933,2.905,2.905,0,0,1-2.939,2.913,2.907,2.907,0,0,1-2.917-2.935A2.9,2.9,0,0,1-6168.81,2540.454Z" transform="translate(-216.439 -216.431)" fill="#fff"/>
  </g>
</svg>
