<svg xmlns="http://www.w3.org/2000/svg" width="164.084" height="183.679" viewBox="0 0 164.084 183.679">
  <g id="Group_10478" data-name="Group 10478" transform="translate(-1429 -5740)">
    <g id="Group_10460" data-name="Group 10460" transform="translate(562.167 6685.915)" opacity="0.3">
      <path id="Path_65111" data-name="Path 65111" d="M950.821-768.238q-16.807,0-33.614-.006c-2.526,0-3.125-.729-2.783-3.223a16.116,16.116,0,0,1,15.844-14.392c1.642-.064,2.091-.717,2.052-2.233-.076-2.918.013-5.84-.031-8.759-.026-1.731.783-2.487,2.468-2.467,1.833.022,3.669-.049,5.5.019,1.271.046,1.844-.355,1.838-1.722-.037-8.76-.054-17.52.01-26.28.013-1.851-1.326-1.805-2.428-2.086a45.52,45.52,0,0,1-21.748-12.567,43.679,43.679,0,0,1-9.829-15.312,2.6,2.6,0,0,0-2.826-1.959c-13.424-.2-25.9-11.052-27.995-24.309a33.205,33.205,0,0,1-.419-5.052q-.056-17.927-.021-35.854c0-2.677.25-2.939,2.894-2.944,7.538-.016,15.075,0,22.613-.013,2.531,0,2.62-.118,2.635-2.657.007-1.222.04-2.446,0-3.667-.055-1.575.717-2.23,2.229-2.19.814.022,1.63,0,2.444,0q41.762,0,83.524,0c3.529,0,3.535.045,3.58,3.494.071,5.479-.91,5.011,4.949,5.025,6.791.016,13.581-.007,20.372.011,2.52.007,2.813.307,2.815,2.822.005,12.155.072,24.311-.029,36.465-.118,14.294-11.107,26.817-25.276,28.44-3.86.442-5.707,1.806-7.39,5.4-6.07,12.964-16.341,21.232-30.239,24.837-1.735.45-2.381,1.155-2.357,3.019q.161,12.322,0,24.648c-.026,2.016.649,2.639,2.568,2.466,1.549-.14,3.121,0,4.683-.035,1.777-.043,2.625.72,2.589,2.557-.057,2.919.032,5.841-.031,8.759-.03,1.415.379,2.061,1.933,2.14,8.628.439,14.43,5.622,15.907,14.081.49,2.806-.123,3.541-3.022,3.543Q967.526-768.23,950.821-768.238Zm.02-164.674q-19.761,0-39.521,0c-3.289,0-3.3,0-3.3,3.266,0,18-.039,35.99.033,53.984a55.067,55.067,0,0,0,.784,9.508c4.475,24.819,29.956,40.377,54.172,33.165,18.552-5.525,30.576-22,30.681-42.311.094-18.2.024-36.4.018-54.6,0-2.964-.068-3.016-3.141-3.016Q970.7-932.915,950.841-932.912Zm-44.807,70.4c-.37-3.476-.974-6.623-.994-9.773-.1-16.42-.053-32.841-.061-49.261,0-2.768-.04-2.812-2.65-2.815-6.718-.008-13.436.043-20.152-.032-1.776-.019-2.378.608-2.37,2.364.052,11.06-.154,22.124.086,33.179.214,9.847,4.637,17.555,13.091,22.752A23.026,23.026,0,0,0,906.034-862.514Zm89.581.146c1.79-.193,3.391-.26,4.949-.55,10.676-1.989,20.379-11.829,20.859-22.207.575-12.454.342-24.945.469-37.42.013-1.271-.532-1.832-1.834-1.827-7.124.026-14.248.043-21.371-.011-1.767-.013-1.95.949-1.945,2.339.027,7.531.143,15.065-.018,22.592C996.462-887.277,997.68-875.058,995.615-862.368ZM950.844-771.24q15.174,0,30.349,0c2.97,0,3.234-.357,2.082-3.172-2.363-5.773-6.924-8.379-12.942-8.422q-19.451-.14-38.9,0c-6.51.055-11.3,3.415-13.132,8.758-.86,2.5-.644,2.83,1.991,2.831Q935.568-771.232,950.844-771.24Zm5.51-42.532c0-4.273-.016-8.546.011-12.818.007-1.035-.19-1.666-1.441-1.636-2.711.063-5.424.048-8.136,0-1.06-.017-1.426.411-1.423,1.443q.033,13.022,0,26.043c0,1.053.4,1.443,1.438,1.427,2.577-.039,5.157-.077,7.73.018,1.432.053,1.873-.459,1.849-1.867C956.307-805.361,956.355-809.567,956.354-813.772Zm-5.5,17.747c-4.472,0-8.945.042-13.416-.024-1.409-.02-1.928.449-1.867,1.871.093,2.165.061,4.337.01,6.5-.027,1.15.3,1.777,1.579,1.774q13.722-.032,27.444,0c1.116,0,1.572-.467,1.548-1.593-.046-2.235-.084-4.475.014-6.707.064-1.458-.518-1.862-1.9-1.843C959.8-795.986,955.324-796.024,950.852-796.024Z" transform="translate(0 0)" fill="#031342"/>
      <path id="Path_65112" data-name="Path 65112" d="M1012.91-840.363c1.969,0,3.94-.052,5.907.015a2.052,2.052,0,0,0,2.34-1.7c1.147-3.759,2.363-7.5,3.689-11.2.275-.766,1.14-1.321,1.733-1.974.612.634,1.512,1.163,1.785,1.919,1.264,3.505,2.445,7.047,3.47,10.629.526,1.839,1.469,2.436,3.35,2.355,3.457-.149,6.928-.128,10.385.011a10.174,10.174,0,0,1,2.964,1.11,11.1,11.1,0,0,1-1.844,2.595c-2.832,2.214-5.754,4.318-8.713,6.362a2.387,2.387,0,0,0-1.016,3.247q1.845,5.168,3.351,10.455a9.589,9.589,0,0,1-.141,3.025,8.782,8.782,0,0,1-2.867-.72c-3.144-2.131-6.206-4.389-9.234-6.685a2.024,2.024,0,0,0-2.872-.013c-3.14,2.373-6.326,4.69-9.576,6.908a7.023,7.023,0,0,1-2.531.531,7.151,7.151,0,0,1-.3-2.626q1.605-5.568,3.527-11.042a2.267,2.267,0,0,0-1.03-3.058c-3.122-2.167-6.2-4.4-9.213-6.716a7.711,7.711,0,0,1-1.394-2.222,8.517,8.517,0,0,1,2.529-1.149C1009.1-840.484,1011.008-840.361,1012.91-840.363Zm-.7,3.062-.177.754c2.048,1.51,4.027,3.127,6.163,4.5,1.917,1.231,2.458,2.564,1.546,4.751-.973,2.331-1.577,4.817-2.343,7.234l.54.405c1.952-1.39,3.911-2.769,5.853-4.171,2.81-2.029,2.8-2.033,5.636,0,1.95,1.4,3.909,2.781,5.864,4.17l.513-.385c-.785-2.484-1.437-5.02-2.393-7.436-.8-2.024-.308-3.289,1.454-4.44,2.186-1.428,4.245-3.052,6.448-4.656-.41-.337-.557-.563-.712-.57-1.692-.071-3.385-.137-5.079-.15-6.341-.046-4.978.478-6.809-4.886-.592-1.734-1.194-3.463-1.816-5.265-.473.287-.652.331-.685.426-.5,1.4-.963,2.82-1.468,4.221-2.238,6.211-.389,5.432-7.6,5.5C1015.5-837.289,1013.852-837.3,1012.207-837.3Z" transform="translate(-75.75 -47.81)" fill="#031342"/>
    </g>
    <g id="Group_10472" data-name="Group 10472" transform="translate(552.167 6675.915)">
      <path id="Path_65111-2" data-name="Path 65111" d="M950.821-768.238q-16.807,0-33.614-.006c-2.526,0-3.125-.729-2.783-3.223a16.116,16.116,0,0,1,15.844-14.392c1.642-.064,2.091-.717,2.052-2.233-.076-2.918.013-5.84-.031-8.759-.026-1.731.783-2.487,2.468-2.467,1.833.022,3.669-.049,5.5.019,1.271.046,1.844-.355,1.838-1.722-.037-8.76-.054-17.52.01-26.28.013-1.851-1.326-1.805-2.428-2.086a45.52,45.52,0,0,1-21.748-12.567,43.679,43.679,0,0,1-9.829-15.312,2.6,2.6,0,0,0-2.826-1.959c-13.424-.2-25.9-11.052-27.995-24.309a33.205,33.205,0,0,1-.419-5.052q-.056-17.927-.021-35.854c0-2.677.25-2.939,2.894-2.944,7.538-.016,15.075,0,22.613-.013,2.531,0,2.62-.118,2.635-2.657.007-1.222.04-2.446,0-3.667-.055-1.575.717-2.23,2.229-2.19.814.022,1.63,0,2.444,0q41.762,0,83.524,0c3.529,0,3.535.045,3.58,3.494.071,5.479-.91,5.011,4.949,5.025,6.791.016,13.581-.007,20.372.011,2.52.007,2.813.307,2.815,2.822.005,12.155.072,24.311-.029,36.465-.118,14.294-11.107,26.817-25.276,28.44-3.86.442-5.707,1.806-7.39,5.4-6.07,12.964-16.341,21.232-30.239,24.837-1.735.45-2.381,1.155-2.357,3.019q.161,12.322,0,24.648c-.026,2.016.649,2.639,2.568,2.466,1.549-.14,3.121,0,4.683-.035,1.777-.043,2.625.72,2.589,2.557-.057,2.919.032,5.841-.031,8.759-.03,1.415.379,2.061,1.933,2.14,8.628.439,14.43,5.622,15.907,14.081.49,2.806-.123,3.541-3.022,3.543Q967.526-768.23,950.821-768.238Zm.02-164.674q-19.761,0-39.521,0c-3.289,0-3.3,0-3.3,3.266,0,18-.039,35.99.033,53.984a55.067,55.067,0,0,0,.784,9.508c4.475,24.819,29.956,40.377,54.172,33.165,18.552-5.525,30.576-22,30.681-42.311.094-18.2.024-36.4.018-54.6,0-2.964-.068-3.016-3.141-3.016Q970.7-932.915,950.841-932.912Zm-44.807,70.4c-.37-3.476-.974-6.623-.994-9.773-.1-16.42-.053-32.841-.061-49.261,0-2.768-.04-2.812-2.65-2.815-6.718-.008-13.436.043-20.152-.032-1.776-.019-2.378.608-2.37,2.364.052,11.06-.154,22.124.086,33.179.214,9.847,4.637,17.555,13.091,22.752A23.026,23.026,0,0,0,906.034-862.514Zm89.581.146c1.79-.193,3.391-.26,4.949-.55,10.676-1.989,20.379-11.829,20.859-22.207.575-12.454.342-24.945.469-37.42.013-1.271-.532-1.832-1.834-1.827-7.124.026-14.248.043-21.371-.011-1.767-.013-1.95.949-1.945,2.339.027,7.531.143,15.065-.018,22.592C996.462-887.277,997.68-875.058,995.615-862.368ZM950.844-771.24q15.174,0,30.349,0c2.97,0,3.234-.357,2.082-3.172-2.363-5.773-6.924-8.379-12.942-8.422q-19.451-.14-38.9,0c-6.51.055-11.3,3.415-13.132,8.758-.86,2.5-.644,2.83,1.991,2.831Q935.568-771.232,950.844-771.24Zm5.51-42.532c0-4.273-.016-8.546.011-12.818.007-1.035-.19-1.666-1.441-1.636-2.711.063-5.424.048-8.136,0-1.06-.017-1.426.411-1.423,1.443q.033,13.022,0,26.043c0,1.053.4,1.443,1.438,1.427,2.577-.039,5.157-.077,7.73.018,1.432.053,1.873-.459,1.849-1.867C956.307-805.361,956.355-809.567,956.354-813.772Zm-5.5,17.747c-4.472,0-8.945.042-13.416-.024-1.409-.02-1.928.449-1.867,1.871.093,2.165.061,4.337.01,6.5-.027,1.15.3,1.777,1.579,1.774q13.722-.032,27.444,0c1.116,0,1.572-.467,1.548-1.593-.046-2.235-.084-4.475.014-6.707.064-1.458-.518-1.862-1.9-1.843C959.8-795.986,955.324-796.024,950.852-796.024Z" transform="translate(0 0)" fill="#ffd300"/>
      <path id="Path_65112-2" data-name="Path 65112" d="M1012.91-840.363c1.969,0,3.94-.052,5.907.015a2.052,2.052,0,0,0,2.34-1.7c1.147-3.759,2.363-7.5,3.689-11.2.275-.766,1.14-1.321,1.733-1.974.612.634,1.512,1.163,1.785,1.919,1.264,3.505,2.445,7.047,3.47,10.629.526,1.839,1.469,2.436,3.35,2.355,3.457-.149,6.928-.128,10.385.011a10.174,10.174,0,0,1,2.964,1.11,11.1,11.1,0,0,1-1.844,2.595c-2.832,2.214-5.754,4.318-8.713,6.362a2.387,2.387,0,0,0-1.016,3.247q1.845,5.168,3.351,10.455a9.589,9.589,0,0,1-.141,3.025,8.782,8.782,0,0,1-2.867-.72c-3.144-2.131-6.206-4.389-9.234-6.685a2.024,2.024,0,0,0-2.872-.013c-3.14,2.373-6.326,4.69-9.576,6.908a7.023,7.023,0,0,1-2.531.531,7.151,7.151,0,0,1-.3-2.626q1.605-5.568,3.527-11.042a2.267,2.267,0,0,0-1.03-3.058c-3.122-2.167-6.2-4.4-9.213-6.716a7.711,7.711,0,0,1-1.394-2.222,8.517,8.517,0,0,1,2.529-1.149C1009.1-840.484,1011.008-840.361,1012.91-840.363Zm-.7,3.062-.177.754c2.048,1.51,4.027,3.127,6.163,4.5,1.917,1.231,2.458,2.564,1.546,4.751-.973,2.331-1.577,4.817-2.343,7.234l.54.405c1.952-1.39,3.911-2.769,5.853-4.171,2.81-2.029,2.8-2.033,5.636,0,1.95,1.4,3.909,2.781,5.864,4.17l.513-.385c-.785-2.484-1.437-5.02-2.393-7.436-.8-2.024-.308-3.289,1.454-4.44,2.186-1.428,4.245-3.052,6.448-4.656-.41-.337-.557-.563-.712-.57-1.692-.071-3.385-.137-5.079-.15-6.341-.046-4.978.478-6.809-4.886-.592-1.734-1.194-3.463-1.816-5.265-.473.287-.652.331-.685.426-.5,1.4-.963,2.82-1.468,4.221-2.238,6.211-.389,5.432-7.6,5.5C1015.5-837.289,1013.852-837.3,1012.207-837.3Z" transform="translate(-75.75 -47.81)" fill="#ffd300"/>
    </g>
  </g>
</svg>
