<svg xmlns="http://www.w3.org/2000/svg" width="37.074" height="41.564" viewBox="0 0 37.074 41.564">
  <g id="Group_23872" data-name="Group 23872" transform="translate(-1239.715 9.761)">
    <path id="Path_78196" data-name="Path 78196" d="M1257.752,42.71a18.05,18.05,0,1,1-18.037,18.066A18.1,18.1,0,0,1,1257.752,42.71Zm.076,18.026h13.58a13.55,13.55,0,0,0-13.58-13.526Z" transform="translate(0 -47.006)" fill="#fff"/>
    <path id="Path_78197" data-name="Path 78197" d="M1367.077-9.761h9.554v2.307l-.993.07v1.3a19.061,19.061,0,0,0-7.484,0c-.036-.493-.067-.917-.1-1.383h-.975Z" transform="translate(-114.098)" fill="#fff"/>
    <path id="Path_78198" data-name="Path 78198" d="M1531.152,39.276a19.712,19.712,0,0,0-5.15-5.114l2.207-2.2,5.052,5.207Z" transform="translate(-256.472 -37.381)" fill="#fff"/>
  </g>
</svg>
