<svg xmlns="http://www.w3.org/2000/svg" width="17.732" height="14.41" viewBox="0 0 17.732 14.41">
  <path id="twitter" d="M239.025,244.87a10.347,10.347,0,0,0,15.917-9.188,7.37,7.37,0,0,0,1.815-1.883,7.289,7.289,0,0,1-2.089.573,3.645,3.645,0,0,0,1.6-2.013,7.289,7.289,0,0,1-2.31.884,3.64,3.64,0,0,0-6.2,3.318,10.322,10.322,0,0,1-7.5-3.8,3.643,3.643,0,0,0,1.126,4.858,3.635,3.635,0,0,1-1.649-.456,3.643,3.643,0,0,0,2.919,3.614,3.66,3.66,0,0,1-1.642.062,3.64,3.64,0,0,0,3.4,2.526A7.31,7.31,0,0,1,239.025,244.87Z" transform="translate(-239.025 -232.094)" fill="#00337f"/>
</svg>
