<svg xmlns="http://www.w3.org/2000/svg" width="76.505" height="50.699" viewBox="0 0 76.505 50.699">
  <g id="Group_10393" data-name="Group 10393" transform="translate(0.09 0.026)">
    <path id="Path_64925" data-name="Path 64925" d="M1655,1072c5.81-.3,10.25,2,13.56,6.77.71,1,.75,1.63-.34,2.32-1.88,1.19-3.74,2.41-5.55,3.7-1,.74-1.7.51-2.34-.5a6,6,0,0,0-6-2.92,3.89,3.89,0,0,0-3.69,2.42,4,4,0,0,0,1.15,4.76,29.187,29.187,0,0,0,4.21,2.4c3.2,1.65,6.53,3.09,9.63,4.9,8,4.7,8.33,15.41,4.08,20.8a15.78,15.78,0,0,1-11.06,5.77,23.308,23.308,0,0,1-14.34-2.46,18.669,18.669,0,0,1-6.91-6.71c-.58-.94-.48-1.49.47-2,2-1.14,4.11-2.27,6.08-3.53,1.09-.69,1.65-.43,2.31.55a10.21,10.21,0,0,0,10.4,4.71c2.64-.31,4.46-1.65,4.93-3.76s-.45-3.84-3-5.18c-2.18-1.15-4.49-2-6.68-3.16a46,46,0,0,1-6.41-3.64c-5.11-3.77-6.67-9.06-5.29-15,1.29-5.61,5.33-8.67,10.8-9.9A25.765,25.765,0,0,1,1655,1072Z" transform="translate(-1596 -1072)" fill="#fff"/>
    <path id="Path_64926" data-name="Path 64926" d="M1620.54,1102.15c0,6-.07,11.91,0,17.86,0,1.74-.62,2.2-2.19,2.13-2-.08-4-.1-6,0-1.74.09-2.39-.42-2.37-2.32.09-11.85,0-23.7.08-35.55,0-1.75-.49-2.29-2.23-2.23-3.36.12-6.74,0-10.1.05-1.44,0-1.88-.58-1.81-2a49.22,49.22,0,0,0,0-5.59c-.1-1.61.54-2.06,2.08-2.05h32.3c4.92,0,4.14-.55,4.22,4.21a31.765,31.765,0,0,0,0,3.24c.21,1.76-.61,2.16-2.18,2.12-3.37-.08-6.74,0-10.1,0-1.41,0-1.87.43-1.86,1.86C1620.58,1090,1620.54,1096.08,1620.54,1102.15Z" transform="translate(-1596 -1072)" fill="#fff"/>
  </g>
</svg>
