<svg xmlns="http://www.w3.org/2000/svg" width="48" height="48" viewBox="0 0 48 48">
  <path id="Path_79950" data-name="Path 79950" d="M44.779,19.977a20.486,20.486,0,0,1,6,2.486l3.9-1.731,4.593,4.593-1.73,3.9a20.484,20.484,0,0,1,2.487,6L64,36.752v6.5l-3.977,1.531a20.485,20.485,0,0,1-2.486,6l1.731,3.9-4.593,4.593-3.9-1.73a20.484,20.484,0,0,1-6,2.487L43.248,64h-6.5l-1.531-3.977a20.485,20.485,0,0,1-6-2.486l-3.9,1.731-4.593-4.593,1.73-3.9a20.486,20.486,0,0,1-2.487-6L16,43.248v-6.5l3.977-1.531a20.479,20.479,0,0,1,2.487-6l-1.731-3.9,4.593-4.594,3.9,1.731a20.486,20.486,0,0,1,6-2.487L36.752,16h6.5ZM37.414,49.07h5.172a.8.8,0,0,0,0-1.6H37.414a.8.8,0,0,0,0,1.6Zm5.172-3.8V37.182h2.155L40,31.73l-4.741,5.452h2.155V45.27ZM40,27.681A12.319,12.319,0,1,0,52.319,40,12.318,12.318,0,0,0,40,27.681Z" transform="translate(-16 -16)" fill="#fff" fill-rule="evenodd"/>
</svg>
