<svg xmlns="http://www.w3.org/2000/svg" width="59.274" height="112.286" viewBox="0 0 59.274 112.286">
  <g id="usa-office" transform="translate(0.65 0.65)">
    <g id="Group_22421" data-name="Group 22421">
      <g id="Group_10304" data-name="Group 10304" transform="translate(35.597)">
        <rect id="Rectangle_7985" data-name="Rectangle 7985" width="14.522" height="5.29" fill="#fff" stroke="#006ce5" stroke-linecap="round" stroke-linejoin="round" stroke-width="1.3"/>
      </g>
      <g id="Group_10305" data-name="Group 10305" transform="translate(11.058)">
        <rect id="Rectangle_7986" data-name="Rectangle 7986" width="14.521" height="5.29" fill="#fff" stroke="#006ce5" stroke-linecap="round" stroke-linejoin="round" stroke-width="1.3"/>
      </g>
      <rect id="Rectangle_7987" data-name="Rectangle 7987" width="55.381" height="6.079" transform="translate(1.602 4.276)" fill="#fff" stroke="#006ce5" stroke-linecap="round" stroke-linejoin="round" stroke-width="1.3"/>
      <path id="Path_64846" data-name="Path 64846" d="M569.646,208.8V300.6h30.122V208.8Z" transform="translate(-542.896 -196.414)" fill="#fff" stroke="#006ce5" stroke-linecap="round" stroke-linejoin="round" stroke-width="1.3"/>
      <g id="Group_10306" data-name="Group 10306" transform="translate(25.215 87.086)">
        <path id="Path_64847" data-name="Path 64847" d="M566.3,347.262l32.759-.042v1.5a1.682,1.682,0,0,1-1.681,1.681l-29.4.039a1.678,1.678,0,0,1-1.681-1.679Z" transform="translate(-566.303 -347.22)" fill="#fff" stroke="#006ce5" stroke-linecap="round" stroke-linejoin="round" stroke-width="1.3"/>
      </g>
      <g id="Group_10310" data-name="Group 10310" transform="translate(25.215 55.455)">
        <path id="Path_64851" data-name="Path 64851" d="M566.3,281.827l32.759-.042v1.5a1.683,1.683,0,0,1-1.681,1.682l-29.4.039a1.678,1.678,0,0,1-1.681-1.678Z" transform="translate(-566.303 -281.785)" fill="#fff" stroke="#006ce5" stroke-linecap="round" stroke-linejoin="round" stroke-width="1.3"/>
      </g>
      <g id="Group_10313" data-name="Group 10313" transform="translate(25.215 75.113)">
        <path id="Path_64854" data-name="Path 64854" d="M566.3,324.611l32.759-.043v1.5a1.681,1.681,0,0,1-1.681,1.682l-29.4.038a1.676,1.676,0,0,1-1.681-1.677Z" transform="translate(-566.303 -324.568)" fill="#fff" stroke="#006ce5" stroke-linecap="round" stroke-linejoin="round" stroke-width="1.3"/>
      </g>
      <g id="Group_10315" data-name="Group 10315" transform="translate(25.215 9.29)">
        <path id="Path_64856" data-name="Path 64856" d="M566.3,202.1l32.759-.043v1.5a1.682,1.682,0,0,1-1.681,1.682l-29.4.039A1.678,1.678,0,0,1,566.3,203.6Z" transform="translate(-566.303 -202.056)" fill="#fff" stroke="#006ce5" stroke-linecap="round" stroke-linejoin="round" stroke-width="1.3"/>
      </g>
      <g id="Group_10316" data-name="Group 10316" transform="translate(25.215 26.979)">
        <path id="Path_64857" data-name="Path 64857" d="M566.3,230.969l32.759-.043v1.5a1.683,1.683,0,0,1-1.681,1.684l-29.4.037a1.678,1.678,0,0,1-1.681-1.679Z" transform="translate(-566.303 -230.926)" fill="#fff" stroke="#006ce5" stroke-linecap="round" stroke-linejoin="round" stroke-width="1.3"/>
      </g>
      <g id="Group_10318" data-name="Group 10318" transform="translate(25.215 47.713)">
        <path id="Path_64859" data-name="Path 64859" d="M566.3,259.49l32.759-.042v1.5a1.682,1.682,0,0,1-1.681,1.682l-29.4.04a1.678,1.678,0,0,1-1.681-1.68Z" transform="translate(-566.303 -259.448)" fill="#fff" stroke="#006ce5" stroke-linecap="round" stroke-linejoin="round" stroke-width="1.3"/>
      </g>
      <path id="Path_64860" data-name="Path 64860" d="M514.771,208.8V300.6h30.122V208.8Z" transform="translate(-513.235 -196.414)" fill="#fff" stroke="#006ce5" stroke-linecap="round" stroke-linejoin="round" stroke-width="1.3"/>
      <g id="Group_10319" data-name="Group 10319" transform="translate(0 87.086)">
        <path id="Path_64861" data-name="Path 64861" d="M511.429,347.262l32.76-.042v1.5a1.683,1.683,0,0,1-1.682,1.681l-29.4.039a1.678,1.678,0,0,1-1.681-1.679Z" transform="translate(-511.429 -347.22)" fill="#fff" stroke="#006ce5" stroke-linecap="round" stroke-linejoin="round" stroke-width="1.3"/>
      </g>
      <g id="Group_10323" data-name="Group 10323" transform="translate(0 55.455)">
        <path id="Path_64865" data-name="Path 64865" d="M511.429,281.827l32.76-.042v1.5a1.684,1.684,0,0,1-1.682,1.682l-29.4.039a1.678,1.678,0,0,1-1.681-1.678Z" transform="translate(-511.429 -281.785)" fill="#fff" stroke="#006ce5" stroke-linecap="round" stroke-linejoin="round" stroke-width="1.3"/>
      </g>
      <g id="Group_10326" data-name="Group 10326" transform="translate(0 75.113)">
        <path id="Path_64868" data-name="Path 64868" d="M511.429,324.611l32.76-.043v1.5a1.683,1.683,0,0,1-1.682,1.682l-29.4.038a1.676,1.676,0,0,1-1.681-1.677Z" transform="translate(-511.429 -324.568)" fill="#fff" stroke="#006ce5" stroke-linecap="round" stroke-linejoin="round" stroke-width="1.3"/>
      </g>
      <g id="Group_10328" data-name="Group 10328" transform="translate(0 9.29)">
        <path id="Path_64870" data-name="Path 64870" d="M511.429,202.1l32.76-.043v1.5a1.683,1.683,0,0,1-1.682,1.682l-29.4.039a1.678,1.678,0,0,1-1.681-1.678Z" transform="translate(-511.429 -202.056)" fill="#fff" stroke="#006ce5" stroke-linecap="round" stroke-linejoin="round" stroke-width="1.3"/>
      </g>
      <g id="Group_10329" data-name="Group 10329" transform="translate(0 26.979)">
        <path id="Path_64871" data-name="Path 64871" d="M511.429,230.969l32.76-.043v1.5a1.685,1.685,0,0,1-1.682,1.684l-29.4.037a1.678,1.678,0,0,1-1.681-1.679Z" transform="translate(-511.429 -230.926)" fill="#fff" stroke="#006ce5" stroke-linecap="round" stroke-linejoin="round" stroke-width="1.3"/>
      </g>
      <g id="Group_10331" data-name="Group 10331" transform="translate(0 47.713)">
        <path id="Path_64873" data-name="Path 64873" d="M511.429,259.49l32.76-.042v1.5a1.683,1.683,0,0,1-1.682,1.682l-29.4.04a1.679,1.679,0,0,1-1.681-1.68Z" transform="translate(-511.429 -259.448)" fill="#fff" stroke="#006ce5" stroke-linecap="round" stroke-linejoin="round" stroke-width="1.3"/>
      </g>
      <rect id="Rectangle_7990" data-name="Rectangle 7990" width="55.381" height="13.367" transform="translate(1.602 97.62)" fill="#fff" stroke="#006ce5" stroke-linecap="round" stroke-linejoin="round" stroke-width="1.3"/>
      <g id="Group_10332" data-name="Group 10332" transform="translate(13.535 101.925)">
        <rect id="Rectangle_7991" data-name="Rectangle 7991" width="5.427" height="9.061" transform="translate(0 0)" fill="#fff" stroke="#006ce5" stroke-linecap="round" stroke-linejoin="round" stroke-width="1.3"/>
      </g>
      <g id="Group_10333" data-name="Group 10333" transform="translate(39.156 101.925)">
        <rect id="Rectangle_7992" data-name="Rectangle 7992" width="4.427" height="9.061" transform="translate(2 0)" fill="#fff" stroke="#006ce5" stroke-linecap="round" stroke-linejoin="round" stroke-width="1.3"/>
      </g>
      <rect id="Rectangle_7993" data-name="Rectangle 7993" width="4.116" height="2.66" transform="translate(22.634 102.973)" fill="#fff" stroke="#006ce5" stroke-linecap="round" stroke-linejoin="round" stroke-width="1.3"/>
      <rect id="Rectangle_8139" data-name="Rectangle 8139" width="5.518" height="2.66" transform="translate(4.526 102.973)" fill="#fff" stroke="#006ce5" stroke-linecap="round" stroke-linejoin="round" stroke-width="1.3"/>
      <rect id="Rectangle_8140" data-name="Rectangle 8140" width="5.518" height="2.66" transform="translate(48.255 102.973)" fill="#fff" stroke="#006ce5" stroke-linecap="round" stroke-linejoin="round" stroke-width="1.3"/>
      <rect id="Rectangle_8141" data-name="Rectangle 8141" width="3.612" height="2.66" transform="translate(34.595 102.973)" fill="#fff" stroke="#006ce5" stroke-linecap="round" stroke-linejoin="round" stroke-width="1.3"/>
      <line id="Line_282" data-name="Line 282" y2="13" transform="translate(31.469 97.5)" fill="none" stroke="#006ce5" stroke-width="1"/>
    </g>
  </g>
</svg>
