<svg xmlns="http://www.w3.org/2000/svg" xmlns:xlink="http://www.w3.org/1999/xlink" width="378.793" height="99.729" viewBox="0 0 378.793 99.729">
  <defs>
    <clipPath id="clip-path">
      <circle id="Ellipse_745" data-name="Ellipse 745" cx="37.458" cy="37.458" r="37.458" fill="none"/>
    </clipPath>
  </defs>
  <g id="Group_23434" data-name="Group 23434" transform="translate(-119.208 -209.256)">
    <g id="Group_23438" data-name="Group 23438" transform="translate(119.208 209.256)">
      <path id="Path_77832" data-name="Path 77832" d="M212.735,276.33a42.8,42.8,0,0,0,2.4-14.236,43.435,43.435,0,1,0-32.878,42.173,48.609,48.609,0,1,1,34.129-46.412A47.96,47.96,0,0,1,212.735,276.33Z" transform="translate(-119.208 -209.256)" fill="#b5242d"/>
      <path id="Path_77833" data-name="Path 77833" d="M167.166,248.995l28.63,29.621a37.853,37.853,0,0,1-8.105,6.648,37.533,37.533,0,0,1-38.874,0,37.743,37.743,0,0,1-8.652-7.254Z" transform="translate(-114.537 -200.398)" fill="#02617d"/>
      <path id="Path_77834" data-name="Path 77834" d="M207.414,259.291a37.308,37.308,0,0,1-1.421,10.237l-37.119-38.4-35.137,37.755a37.462,37.462,0,1,1,73.677-9.592Z" transform="translate(-116.245 -206.453)" fill="#02617d"/>
      <g id="Group_23436" data-name="Group 23436" transform="translate(16.256 15.378)">
        <g id="Group_23435" data-name="Group 23435" clip-path="url(#clip-path)">
          <g id="Group_23434-2" data-name="Group 23434" transform="translate(-19.636 30.259)">
            <path id="Path_77835" data-name="Path 77835" d="M203.458,285.264H134.644l6.75-7.254L168.4,249l28.63,29.622Z" transform="translate(-112.387 -246.035)" fill="#fffeff"/>
            <path id="Path_77836" data-name="Path 77836" d="M230.638,306.765H116.444L138.7,282.843l6.75-7.254,27-29.015,28.63,29.622,6.432,6.647Z" transform="translate(-116.444 -246.574)" fill="#25346b"/>
          </g>
        </g>
      </g>
      <path id="Path_77837" data-name="Path 77837" d="M163.39,246.577l-6.275,6.734,44.935,47.355h13.627Z" transform="translate(-110.758 -200.937)" fill="#25346b"/>
      <g id="Group_23437" data-name="Group 23437" transform="translate(45.523 60.352)">
        <path id="Path_77838" data-name="Path 77838" d="M162.991,269.135h-6.558v-3.109a7.452,7.452,0,0,1,6.558-7.4Z" transform="translate(-156.433 -258.603)" fill="#fff"/>
        <rect id="Rectangle_8698" data-name="Rectangle 8698" width="6.558" height="8.231" transform="translate(0 11.946)" fill="#fff"/>
        <path id="Path_77839" data-name="Path 77839" d="M169.868,266.03v3.109h-6.832V258.607A7.445,7.445,0,0,1,169.868,266.03Z" transform="translate(-154.961 -258.607)" fill="#fff"/>
        <rect id="Rectangle_8699" data-name="Rectangle 8699" width="6.832" height="8.231" transform="translate(8.075 11.946)" fill="#fff"/>
      </g>
    </g>
    <path id="Path_77840" data-name="Path 77840" d="M226.671,280.073q-1.416-4.1-5.893-15.84l-16.029-39.647q-2.546-6.318-3.159-7.308a2.432,2.432,0,0,0-1.179-.9,19.936,19.936,0,0,0-5.185-.755v-3.017q8.532.378,12.587.378,3.817,0,12.964-.378v3.347q-5.753.1-6.671.236a2.1,2.1,0,0,0-1.273.542,1.355,1.355,0,0,0-.353.92,10.894,10.894,0,0,0,.66,2.452q2.027,6.27,3.535,10.088l14.756,37.242,12.3-30.878q2.687-6.646,5.139-14.472a21.238,21.238,0,0,0,1.037-4.149,1.5,1.5,0,0,0-1.225-1.508,51.409,51.409,0,0,0-7.26-.8v-3.017q7.119.283,10.7.282,3.678,0,10.137-.282v3.017a16.622,16.622,0,0,0-4.291.472,3.3,3.3,0,0,0-1.32,1.32q-.424.708-3.488,7.637l-14.709,36.205-3.63,9.288q-1.132,2.781-1.839,4.808t-1.556,4.714Z" transform="translate(16.945 0.748)" fill="#233366"/>
    <path id="Path_77841" data-name="Path 77841" d="M296.869,274.547a4.113,4.113,0,0,1-1.669-1.841q-1.368-2.5-5.54-12.3l-17.153-40.292h-2.616q-5.393,12.9-7.037,16.636l-10.046,22.658c-2.994,6.538-4.731,10.288-5.213,11.286a12.631,12.631,0,0,1-1.91,3.235,3.68,3.68,0,0,1-1.444.843,21.272,21.272,0,0,1-3.957.258v1.256h18.684v-1.256a28.366,28.366,0,0,1-5.23-.361,2.4,2.4,0,0,1-1.359-.723,1.3,1.3,0,0,1-.326-.929,12.373,12.373,0,0,1,1.169-4.06l4.371-10.323h23.26l4.955,12.3a6.759,6.759,0,0,1,.55,2.288,1.314,1.314,0,0,1-.344.947,2.381,2.381,0,0,1-1.307.585,43.4,43.4,0,0,1-5.454.275v1.256h21.694v-1.256A11.658,11.658,0,0,1,296.869,274.547Zm-37.9-19.321L269.2,231l10.047,24.223Z" transform="translate(26.989 2.42)" fill="#233366"/>
    <path id="Path_77842" data-name="Path 77842" d="M347.269,220.732q-4.852,0-9.6-.155v2.529a17.039,17.039,0,0,1,5.505.6,1.658,1.658,0,0,1,.843.757,15.936,15.936,0,0,1,.533,4.147c.19,3.527.275,6.606.275,9.239v29.367q-1.523-1.523-3.768-4.18-3.535-4.026-9.376-11.011L319.553,237.4l-8.31-10.237c-1.066-1.428-2.753-3.612-5.024-6.589q-2.891.154-5.832.155c-1.153,0-3.957-.053-8.431-.155v2.529a29.485,29.485,0,0,1,4.2.224,3.4,3.4,0,0,1,1.668.825,5.342,5.342,0,0,1,1.445,1.721,5.927,5.927,0,0,1,.155,1.721v32.74c0,2.58-.07,5.625-.241,9.169a14.58,14.58,0,0,1-.55,4.215,1.512,1.512,0,0,1-.81.757c-.877.413-2.734.62-5.54.654v1.049h17.911v-1.049a17.576,17.576,0,0,1-5.506-.6,1.671,1.671,0,0,1-.844-.808,14.843,14.843,0,0,1-.516-4.094c-.19-3.561-.275-6.658-.275-9.29V229.524l28.473,34.03,5.179,6.555q1.574,1.935,4.9,5.7c.12.137.223.258.326.378h6.709c-.12-9.135-.154-15.466-.154-19.011v-19.32c0-2.546.068-5.592.241-9.119a14.1,14.1,0,0,1,.55-4.214,1.494,1.494,0,0,1,.808-.81,17.04,17.04,0,0,1,5.506-.6v-2.529C353.1,220.68,350.331,220.732,347.269,220.732Z" transform="translate(38.508 2.524)" fill="#233366"/>
    <path id="Path_77843" data-name="Path 77843" d="M379.132,276.182v-1.1a28.981,28.981,0,0,1-5.8-.413,2.688,2.688,0,0,1-1.5-1.066c-.309-.482-.5-2-.585-4.542-.07-3.458-.121-7-.121-10.65v-18.6q.128-10.606.172-11.406a9.821,9.821,0,0,1,.6-3.888,2.518,2.518,0,0,1,1.428-.947,27.028,27.028,0,0,1,5.8-.43v-2.563q-7.794.284-11.8.275-4.181,0-11.854-.275v2.563a27.171,27.171,0,0,1,5.8.43,2.729,2.729,0,0,1,1.5,1.032c.292.482.5,1.979.567,4.525.086,3.475.121,7.054.121,10.683v18.6q-.1,10.581-.155,11.424a10.237,10.237,0,0,1-.6,3.888,2.729,2.729,0,0,1-1.445.947,29.346,29.346,0,0,1-5.781.413v1.1Z" transform="translate(52.667 2.524)" fill="#233366"/>
    <path id="Path_77844" data-name="Path 77844" d="M438.57,276.2v-1.1a10.663,10.663,0,0,1-2.649-.19,2.573,2.573,0,0,1-.723-.413c-.482-.412-2.168-2.495-5.058-6.227l-10.134-13.333c-2.478-3.235-4.06-5.334-4.731-6.263a27.281,27.281,0,0,0,8.93-3.424,14.949,14.949,0,0,0,5.248-5.54,13.941,13.941,0,0,0,1.806-6.71,12.36,12.36,0,0,0-1.927-6.692,10.931,10.931,0,0,0-5.436-4.439c-2.341-.894-6.073-1.359-11.2-1.359-.653,0-3.079.086-7.26.241-3.216.1-5.591.154-7.105.154l-7.725-.19c-2.133-.051-3.732-.1-4.783-.12v2.563a27.234,27.234,0,0,1,5.815.43,2.746,2.746,0,0,1,1.48,1.032c.311.482.5,1.979.586,4.525.086,3.475.12,7.054.12,10.683v18.6q-.128,10.581-.154,11.424a10.626,10.626,0,0,1-.6,3.888,2.723,2.723,0,0,1-1.445.947,29.408,29.408,0,0,1-5.8.413v1.1h23.468v-1.1a29.027,29.027,0,0,1-5.781-.413,2.673,2.673,0,0,1-1.514-1.066c-.311-.482-.482-2-.533-4.542-.121-3.458-.172-7-.172-10.65V240.6c.172-7.433.258-11.32.292-11.7.051-1.256.121-2.615.241-4.06a27.092,27.092,0,0,1,8.1-1.239c4.4,0,7.674.964,9.841,2.908a9.979,9.979,0,0,1,3.269,7.862,11.809,11.809,0,0,1-3.785,9.118q-3.768,3.458-11.08,3.458c-.723,0-1.789-.051-3.182-.121l-.4,1.2c2.546,2.908,5.213,6.16,8.035,9.755q2.607,3.251,6.022,8.12c3.269,4.646,5.781,8.086,7.553,10.288Z" transform="translate(59.431 2.508)" fill="#233366"/>
    <line id="Line_436" data-name="Line 436" x1="23.656" transform="translate(408.142 278.705)" fill="none"/>
    <line id="Line_437" data-name="Line 437" x1="23.467" transform="translate(445.252 278.705)" fill="none"/>
    <line id="Line_438" data-name="Line 438" x1="12.37" transform="translate(485.631 278.705)" fill="none"/>
    <g id="Group_23439" data-name="Group 23439" transform="translate(239.312 292.723)">
      <path id="Path_77845" data-name="Path 77845" d="M217.42,292.494V277.716h1.955v14.778Z" transform="translate(-217.42 -277.463)" fill="#233366"/>
      <path id="Path_77846" data-name="Path 77846" d="M222.324,291.8V281.09h1.633v1.521a3.85,3.85,0,0,1,3.407-1.763,4.479,4.479,0,0,1,1.779.347,2.809,2.809,0,0,1,1.216.912,3.525,3.525,0,0,1,.564,1.342,10.347,10.347,0,0,1,.1,1.763V291.8h-1.815v-6.512a4.9,4.9,0,0,0-.212-1.658,1.742,1.742,0,0,0-.751-.877,2.385,2.385,0,0,0-1.266-.328,2.935,2.935,0,0,0-2,.736,3.628,3.628,0,0,0-.843,2.792V291.8Z" transform="translate(-216.327 -276.765)" fill="#233366"/>
      <path id="Path_77847" data-name="Path 77847" d="M231.794,288.6l1.8-.283a2.507,2.507,0,0,0,.841,1.653,2.936,2.936,0,0,0,1.931.575,2.836,2.836,0,0,0,1.854-.509,1.524,1.524,0,0,0,.605-1.195,1.105,1.105,0,0,0-.534-.969,7.914,7.914,0,0,0-1.855-.614,16.993,16.993,0,0,1-2.766-.872,2.639,2.639,0,0,1-1.568-2.456,2.754,2.754,0,0,1,.328-1.326,2.931,2.931,0,0,1,.892-1.013,3.754,3.754,0,0,1,1.154-.53,5.494,5.494,0,0,1,1.568-.216,6.188,6.188,0,0,1,2.212.363,3,3,0,0,1,1.406.982,3.839,3.839,0,0,1,.625,1.658l-1.774.242a1.943,1.943,0,0,0-.7-1.29,2.557,2.557,0,0,0-1.637-.463,2.969,2.969,0,0,0-1.784.413,1.2,1.2,0,0,0-.534.967,1,1,0,0,0,.221.636,1.6,1.6,0,0,0,.7.483c.182.067.715.223,1.6.463a22.42,22.42,0,0,1,2.687.843,2.713,2.713,0,0,1,1.194.953,2.651,2.651,0,0,1,.434,1.552,3.038,3.038,0,0,1-.53,1.708,3.417,3.417,0,0,1-1.527,1.24,5.557,5.557,0,0,1-2.257.439,5.027,5.027,0,0,1-3.181-.867A4.035,4.035,0,0,1,231.794,288.6Z" transform="translate(-214.216 -276.765)" fill="#233366"/>
      <path id="Path_77848" data-name="Path 77848" d="M245.648,290.81l.262,1.6a6.8,6.8,0,0,1-1.371.16,3.112,3.112,0,0,1-1.532-.312,1.743,1.743,0,0,1-.766-.822,6.484,6.484,0,0,1-.223-2.143v-6.159h-1.331v-1.411h1.331v-2.651l1.805-1.088v3.74h1.825v1.411h-1.825v6.26a3.175,3.175,0,0,0,.1,1,.746.746,0,0,0,.313.352,1.2,1.2,0,0,0,.62.132A6.016,6.016,0,0,0,245.648,290.81Z" transform="translate(-212.233 -277.402)" fill="#233366"/>
      <path id="Path_77849" data-name="Path 77849" d="M253.967,290.475a6.743,6.743,0,0,1-1.94,1.209,5.6,5.6,0,0,1-2,.353,3.89,3.89,0,0,1-2.711-.862,2.843,2.843,0,0,1-.948-2.2,2.987,2.987,0,0,1,1.3-2.48,4.42,4.42,0,0,1,1.306-.594,13.048,13.048,0,0,1,1.613-.273,16.583,16.583,0,0,0,3.236-.625c.006-.248.01-.406.01-.473a2,2,0,0,0-.514-1.563,3.041,3.041,0,0,0-2.067-.615,3.2,3.2,0,0,0-1.891.449,2.749,2.749,0,0,0-.9,1.587l-1.773-.242a4.384,4.384,0,0,1,.8-1.839,3.488,3.488,0,0,1,1.6-1.079,7.155,7.155,0,0,1,2.43-.378,6.428,6.428,0,0,1,2.228.323,2.943,2.943,0,0,1,1.26.811,2.855,2.855,0,0,1,.565,1.235,10.288,10.288,0,0,1,.091,1.673v2.42a25.7,25.7,0,0,0,.116,3.2,4.029,4.029,0,0,0,.459,1.285h-1.9A3.849,3.849,0,0,1,253.967,290.475Zm-.15-4.053a13.32,13.32,0,0,1-2.964.686,6.851,6.851,0,0,0-1.582.363,1.57,1.57,0,0,0-.715.589,1.6,1.6,0,0,0,.3,2.072,2.362,2.362,0,0,0,1.608.484,3.744,3.744,0,0,0,1.865-.459,2.835,2.835,0,0,0,1.2-1.256,4.391,4.391,0,0,0,.292-1.815Z" transform="translate(-210.967 -276.765)" fill="#233366"/>
      <path id="Path_77850" data-name="Path 77850" d="M256.9,292.494V277.716h1.815v14.778Z" transform="translate(-208.619 -277.463)" fill="#233366"/>
      <path id="Path_77851" data-name="Path 77851" d="M261.327,292.494V277.716h1.815v14.778Z" transform="translate(-207.633 -277.463)" fill="#233366"/>
      <path id="Path_77852" data-name="Path 77852" d="M273.225,288.348l1.875.231a4.579,4.579,0,0,1-1.644,2.551,5.565,5.565,0,0,1-6.788-.539,5.65,5.65,0,0,1-1.377-4.058,5.916,5.916,0,0,1,1.392-4.193,4.71,4.71,0,0,1,3.609-1.492,4.576,4.576,0,0,1,3.508,1.461,5.807,5.807,0,0,1,1.36,4.113c0,.108,0,.269-.01.484h-7.983a4.113,4.113,0,0,0,1,2.7,2.971,2.971,0,0,0,2.238.938,2.776,2.776,0,0,0,1.7-.525A3.494,3.494,0,0,0,273.225,288.348Zm-5.958-2.934h5.978a3.635,3.635,0,0,0-.685-2.026,2.785,2.785,0,0,0-2.249-1.048,2.881,2.881,0,0,0-2.1.836A3.305,3.305,0,0,0,267.267,285.414Z" transform="translate(-206.749 -276.765)" fill="#233366"/>
      <path id="Path_77853" data-name="Path 77853" d="M282.916,292.494v-1.351a3.328,3.328,0,0,1-2.994,1.593,4.2,4.2,0,0,1-2.354-.706,4.632,4.632,0,0,1-1.663-1.971,6.8,6.8,0,0,1-.591-2.908,7.617,7.617,0,0,1,.534-2.908,4.212,4.212,0,0,1,1.6-2,4.287,4.287,0,0,1,2.39-.7,3.575,3.575,0,0,1,2.953,1.471v-5.3h1.8v14.778Zm-5.737-5.343a4.653,4.653,0,0,0,.867,3.074,2.617,2.617,0,0,0,2.047,1.019,2.563,2.563,0,0,0,2.02-.973,4.478,4.478,0,0,0,.833-2.968,5.033,5.033,0,0,0-.847-3.226,2.6,2.6,0,0,0-2.086-1.028,2.512,2.512,0,0,0-2.021.988A4.88,4.88,0,0,0,277.179,287.151Z" transform="translate(-204.515 -277.463)" fill="#233366"/>
      <path id="Path_77854" data-name="Path 77854" d="M290.926,287.791l1.844-.16a4.089,4.089,0,0,0,.61,1.82,3.328,3.328,0,0,0,1.487,1.148,5.63,5.63,0,0,0,2.267.439,5.445,5.445,0,0,0,1.976-.333,2.747,2.747,0,0,0,1.276-.912,2.117,2.117,0,0,0,.418-1.266,1.921,1.921,0,0,0-.4-1.214,2.982,2.982,0,0,0-1.331-.872,25.966,25.966,0,0,0-2.63-.72,13.419,13.419,0,0,1-2.853-.923,4,4,0,0,1-1.578-1.376,3.372,3.372,0,0,1-.52-1.839,3.753,3.753,0,0,1,.636-2.092,3.924,3.924,0,0,1,1.854-1.476,7.033,7.033,0,0,1,2.712-.505,7.418,7.418,0,0,1,2.9.529,4.179,4.179,0,0,1,1.93,1.558,4.479,4.479,0,0,1,.726,2.328l-1.875.141a3.029,3.029,0,0,0-1.024-2.117,3.984,3.984,0,0,0-2.575-.715,4.133,4.133,0,0,0-2.586.651,1.949,1.949,0,0,0-.811,1.568,1.676,1.676,0,0,0,.575,1.31,7.776,7.776,0,0,0,2.948,1.054,19.542,19.542,0,0,1,3.271.942,4.492,4.492,0,0,1,1.905,1.508,3.67,3.67,0,0,1,.614,2.1,4.024,4.024,0,0,1-.675,2.223,4.442,4.442,0,0,1-1.941,1.623,6.757,6.757,0,0,1-2.847.58,8.5,8.5,0,0,1-3.362-.585,4.712,4.712,0,0,1-2.128-1.759A5,5,0,0,1,290.926,287.791Z" transform="translate(-201.035 -277.509)" fill="#233366"/>
      <path id="Path_77855" data-name="Path 77855" d="M310.313,290.475a6.731,6.731,0,0,1-1.941,1.209,5.585,5.585,0,0,1-2,.353,3.888,3.888,0,0,1-2.711-.862,2.843,2.843,0,0,1-.948-2.2,2.932,2.932,0,0,1,.357-1.437,2.964,2.964,0,0,1,.938-1.043,4.42,4.42,0,0,1,1.306-.594,13.023,13.023,0,0,1,1.612-.273,16.581,16.581,0,0,0,3.236-.625q.011-.372.011-.473a2,2,0,0,0-.515-1.563,3.037,3.037,0,0,0-2.067-.615,3.2,3.2,0,0,0-1.889.449,2.736,2.736,0,0,0-.9,1.587l-1.774-.242a4.385,4.385,0,0,1,.8-1.839,3.488,3.488,0,0,1,1.6-1.079,7.156,7.156,0,0,1,2.43-.378,6.433,6.433,0,0,1,2.228.323,2.943,2.943,0,0,1,1.26.811,2.855,2.855,0,0,1,.565,1.235A10.288,10.288,0,0,1,312,284.89v2.42a25.463,25.463,0,0,0,.116,3.2,4.031,4.031,0,0,0,.459,1.285h-1.9A3.848,3.848,0,0,1,310.313,290.475Zm-.152-4.053a13.288,13.288,0,0,1-2.963.686,6.851,6.851,0,0,0-1.582.363,1.57,1.57,0,0,0-.715.589,1.6,1.6,0,0,0,.3,2.072,2.359,2.359,0,0,0,1.607.484,3.741,3.741,0,0,0,1.865-.459,2.822,2.822,0,0,0,1.2-1.256,4.371,4.371,0,0,0,.292-1.815Z" transform="translate(-198.407 -276.765)" fill="#233366"/>
      <path id="Path_77856" data-name="Path 77856" d="M313.247,292.494V277.716h1.815v14.778Z" transform="translate(-196.059 -277.463)" fill="#233366"/>
      <path id="Path_77857" data-name="Path 77857" d="M325.145,288.348l1.875.231a4.571,4.571,0,0,1-1.642,2.551,5.567,5.567,0,0,1-6.79-.539,5.655,5.655,0,0,1-1.376-4.058,5.916,5.916,0,0,1,1.39-4.193,4.711,4.711,0,0,1,3.609-1.492,4.576,4.576,0,0,1,3.509,1.461,5.807,5.807,0,0,1,1.361,4.113c0,.108,0,.269-.01.484h-7.984a4.113,4.113,0,0,0,1,2.7,2.971,2.971,0,0,0,2.238.938,2.773,2.773,0,0,0,1.7-.525A3.477,3.477,0,0,0,325.145,288.348Zm-5.957-2.934h5.978a3.626,3.626,0,0,0-.686-2.026,2.781,2.781,0,0,0-2.248-1.048,2.886,2.886,0,0,0-2.1.836A3.31,3.31,0,0,0,319.188,285.414Z" transform="translate(-195.175 -276.765)" fill="#233366"/>
      <path id="Path_77858" data-name="Path 77858" d="M327.177,288.6l1.794-.283a2.508,2.508,0,0,0,.843,1.653,2.932,2.932,0,0,0,1.93.575,2.84,2.84,0,0,0,1.855-.509,1.525,1.525,0,0,0,.605-1.195,1.105,1.105,0,0,0-.534-.969,7.935,7.935,0,0,0-1.855-.614,17.063,17.063,0,0,1-2.767-.872,2.641,2.641,0,0,1-1.567-2.456,2.768,2.768,0,0,1,.327-1.326,2.948,2.948,0,0,1,.893-1.013,3.741,3.741,0,0,1,1.154-.53,5.489,5.489,0,0,1,1.568-.216,6.188,6.188,0,0,1,2.212.363,3.01,3.01,0,0,1,1.406.982,3.839,3.839,0,0,1,.625,1.658l-1.774.242a1.943,1.943,0,0,0-.7-1.29,2.559,2.559,0,0,0-1.637-.463,2.967,2.967,0,0,0-1.784.413,1.2,1.2,0,0,0-.534.967,1,1,0,0,0,.221.636,1.6,1.6,0,0,0,.7.483q.271.1,1.6.463a22.305,22.305,0,0,1,2.685.843,2.716,2.716,0,0,1,1.195.953,2.651,2.651,0,0,1,.434,1.552,3.047,3.047,0,0,1-.53,1.708,3.424,3.424,0,0,1-1.527,1.24,5.557,5.557,0,0,1-2.257.439,5.027,5.027,0,0,1-3.181-.867A4.035,4.035,0,0,1,327.177,288.6Z" transform="translate(-192.954 -276.765)" fill="#233366"/>
    </g>
  </g>
</svg>
