<svg xmlns="http://www.w3.org/2000/svg" width="133" height="133" viewBox="0 0 133 133">
  <g id="Group_23890" data-name="Group 23890" transform="translate(-57.396 -44)">
    <circle id="Ellipse_641" data-name="Ellipse 641" cx="66.5" cy="66.5" r="66.5" transform="translate(57.396 44)" fill="#006ce5"/>
    <g id="Group_10669" data-name="Group 10669" transform="translate(1021.098 -490.586)">
      <path id="Path_65216" data-name="Path 65216" d="M-847.7,631.789c-.1.288-.212.573-.3.865a7.042,7.042,0,0,1-6.636,5.148c-4.123.07-8.248.034-12.372.026-1.019,0-1.636-.579-1.613-1.422.022-.825.657-1.374,1.682-1.377,3.781-.013,7.565-.105,11.341.024a4.736,4.736,0,0,0,5.122-5.074c-.074-15.122-.036-30.244-.036-45.366v-1.1h-90.362v1.008q0,4.452,0,8.9c0,1.264-.479,1.938-1.381,1.957-.931.02-1.43-.674-1.43-2,0-6.874.14-13.751-.049-20.62a7.7,7.7,0,0,1,8.126-8.18c17.4.135,34.805.053,52.208.053h16.309a7.287,7.287,0,0,1,.936.024,1.28,1.28,0,0,1,1.2,1.229,1.244,1.244,0,0,1-.938,1.434,4.754,4.754,0,0,1-1.295.12q-34.259.008-68.518.009a8.455,8.455,0,0,0-1.771.109,4.083,4.083,0,0,0-3.318,3.627c-.136,3.109-.038,6.229-.038,9.392h90.267c.018-.262.05-.531.051-.8,0-2.562.01-5.124,0-7.686a4.375,4.375,0,0,0-4.632-4.644c-1.406-.011-2.812,0-4.218,0-1.206-.007-1.83-.484-1.847-1.39-.018-.922.593-1.413,1.79-1.419,1.468-.007,2.937-.016,4.405,0a7.149,7.149,0,0,1,7.136,5.617,2.711,2.711,0,0,0,.18.412Z" fill="#fff"/>
      <path id="Path_65217" data-name="Path 65217" d="M-911.532,737.747c-.156-.446-.281-.82-.418-1.19q-2.756-7.408-5.513-14.817c-.582-1.571-.049-2.951,1.367-3.336a3.011,3.011,0,0,1,1.719.088q12.16,4.47,24.293,9.014c1.9.71,2.244,2.451.8,3.91-1.47,1.483-2.955,2.949-4.421,4.41a3.987,3.987,0,0,0,3.735,2.015c5.151-.143,10.308-.053,15.462-.047a4.152,4.152,0,0,1,1.11.1,1.252,1.252,0,0,1,.961,1.419,1.258,1.258,0,0,1-1.169,1.252,7.255,7.255,0,0,1-1.029.033c-4.714,0-9.428,0-14.241,0,.121.262.2.449.292.63a2.206,2.206,0,0,1-.329,2.764c-.982,1.048-2,2.07-3.045,3.051a2.3,2.3,0,0,1-3.424-.15c-1.557-1.529-3.081-3.093-4.683-4.706-1.513,1.516-2.959,2.971-4.412,4.419-1.59,1.584-3.25,1.23-4.041-.858-.542-1.429-1.121-2.846-1.591-4.3-.228-.7-.587-.868-1.281-.866q-12.277.035-24.554.01a7.141,7.141,0,0,1-7.277-5.179,7.908,7.908,0,0,1-.3-2.12q-.029-14.9-.012-29.8c0-1.178.507-1.812,1.415-1.8s1.394.637,1.394,1.827q0,14.666,0,29.333c0,3.191,1.725,4.933,4.908,4.935q11.667.009,23.335,0C-912.2,737.788-911.927,737.765-911.532,737.747Zm-3.064-16.361,8.513,22.869c1.582-1.585,3.034-3.042,4.488-4.5,1.273-1.274,1.768-1.278,3.024-.022,1.651,1.651,3.3,3.306,4.812,4.821l2.392-2.274c-1.627-1.624-3.285-3.274-4.938-4.928-1.154-1.156-1.154-1.732,0-2.886,1.495-1.494,2.994-2.985,4.58-4.565Z" transform="translate(-0.152 -102.767)" fill="#fff"/>
      <path id="Path_65218" data-name="Path 65218" d="M-892.591,708.859c.366-.992.646-1.734.913-2.48.818-2.289,1.646-4.576,2.439-6.874.258-.748.635-1.3,1.5-1.281.815.02,1.174.555,1.414,1.269.952,2.837,1.932,5.664,2.9,8.495.07.2.153.4.3.777.189-.491.333-.837.456-1.19q1.424-4.059,2.84-8.121c.239-.687.686-1.232,1.417-1.1a2.393,2.393,0,0,1,1.267.9c.171.217.087.732-.026,1.062q-2.27,6.586-4.587,13.157a1.394,1.394,0,0,1-1.369,1.076,1.416,1.416,0,0,1-1.416-1.133q-1.461-4.294-2.94-8.581c-.08-.234-.168-.465-.317-.877-.246.646-.446,1.139-.624,1.639q-1.349,3.788-2.687,7.58c-.263.749-.6,1.393-1.538,1.37-.882-.022-1.2-.634-1.444-1.358-1.429-4.19-2.882-8.371-4.3-12.565a2.1,2.1,0,0,1-.085-1.427,1.9,1.9,0,0,1,1.21-.824c.695-.14,1.162.336,1.389.994.672,1.944,1.335,3.892,2.007,5.837C-893.478,706.341-893.077,707.472-892.591,708.859Z" transform="translate(-33.855 -100.168)" fill="#fff"/>
      <path id="Path_65219" data-name="Path 65219" d="M-784.015,703.945c-.425,1.169-.788,2.154-1.142,3.142-.747,2.083-1.5,4.164-2.228,6.253-.249.713-.635,1.222-1.457,1.209s-1.179-.552-1.421-1.259c-1.449-4.247-2.917-8.488-4.37-12.733-.37-1.08-.116-1.84.679-2.136.889-.331,1.6.116,2,1.281,1.025,2.975,2.043,5.952,3.136,9.141.193-.472.325-.763.433-1.063.987-2.758,1.982-5.513,2.946-8.279.261-.748.64-1.3,1.5-1.277.814.021,1.17.558,1.409,1.273.918,2.749,1.864,5.488,2.8,8.23.1.287.217.567.407,1.063.584-1.644,1.1-3.086,1.608-4.53.549-1.558,1.084-3.12,1.641-4.675.38-1.062,1.033-1.466,1.877-1.2.825.262,1.144,1.056.789,2.075q-2.245,6.445-4.51,12.883c-.246.7-.634,1.219-1.464,1.205s-1.186-.558-1.423-1.257q-1.425-4.206-2.867-8.406C-783.752,704.636-783.85,704.389-784.015,703.945Z" transform="translate(-111.638 -100.167)" fill="#fff"/>
      <path id="Path_65220" data-name="Path 65220" d="M-676.883,708.8c.25-.692.442-1.208.625-1.727q1.317-3.75,2.626-7.5c.258-.745.673-1.281,1.536-1.241,1.037.049,1.527.98,1.117,2.161q-2.023,5.831-4.072,11.653c-.155.441-.313.881-.467,1.323a1.4,1.4,0,0,1-1.354,1.092,1.409,1.409,0,0,1-1.434-1.115q-1.423-4.158-2.836-8.32c-.109-.319-.227-.635-.412-1.15-.164.406-.266.636-.351.872-1,2.788-2,5.575-2.982,8.368-.254.72-.576,1.33-1.459,1.344s-1.244-.564-1.494-1.3c-1.46-4.278-2.949-8.545-4.361-12.839a2.119,2.119,0,0,1,.24-1.612,1.4,1.4,0,0,1,1.3-.367,2.108,2.108,0,0,1,1.067,1.14c.988,2.692,1.893,5.414,2.828,8.125.109.318.234.63.429,1.155.833-2.323,1.594-4.442,2.352-6.562.357-1,.72-1.994,1.061-3a1.382,1.382,0,0,1,1.364-1.073,1.408,1.408,0,0,1,1.42,1.124c.958,2.835,1.935,5.663,2.906,8.493C-677.143,708.1-677.047,708.349-676.883,708.8Z" transform="translate(-188.488 -100.17)" fill="#fff"/>
      <path id="Path_65221" data-name="Path 65221" d="M-839.775,597.149a2.65,2.65,0,0,1-2.587-2.649,2.639,2.639,0,0,1,2.579-2.559,2.63,2.63,0,0,1,2.628,2.6A2.636,2.636,0,0,1-839.775,597.149Z" transform="translate(-75.987 -20.504)" fill="#fff"/>
      <path id="Path_65222" data-name="Path 65222" d="M-869.117,594.5a2.6,2.6,0,0,1-2.587,2.647,2.628,2.628,0,0,1-2.583-2.568,2.611,2.611,0,0,1,2.6-2.642A2.6,2.6,0,0,1-869.117,594.5Z" transform="translate(-52.057 -20.501)" fill="#fff"/>
      <path id="Path_65223" data-name="Path 65223" d="M-901.065,594.493a2.6,2.6,0,0,1-2.58,2.654,2.607,2.607,0,0,1-2.575-2.563,2.589,2.589,0,0,1,2.577-2.649A2.587,2.587,0,0,1-901.065,594.493Z" transform="translate(-28.123 -20.5)" fill="#fff"/>
    </g>
  </g>
</svg>
