<svg id="icon-wireframe" xmlns="http://www.w3.org/2000/svg" width="43.52" height="43.522" viewBox="0 0 43.52 43.522">
  <path id="Path_65628" data-name="Path 65628" d="M2270.79,246.876q-8.506,0-17.012,0a4.623,4.623,0,0,1-4.681-3.857,5.36,5.36,0,0,1-.064-.993q-.005-16.907,0-33.814a4.632,4.632,0,0,1,4.85-4.852q16.907,0,33.814,0a4.633,4.633,0,0,1,4.853,4.85q0,16.907,0,33.814a4.635,4.635,0,0,1-4.851,4.853Q2279.244,246.882,2270.79,246.876Zm-18.621-31.062c-.01.21-.026.4-.026.586q0,12.732,0,25.464c0,1.348.56,1.9,1.925,1.9h33.444c1.361,0,1.925-.557,1.925-1.9q0-12.732,0-25.464c0-.188-.016-.375-.026-.583Zm18.626-3.136q9.029,0,18.058.009c.446,0,.61-.093.6-.575-.035-1.276-.008-2.554-.014-3.832a1.592,1.592,0,0,0-1.8-1.813q-16.851,0-33.7,0a1.591,1.591,0,0,0-1.791,1.822c0,1.242.025,2.486-.013,3.727-.016.521.113.677.659.675C2258.792,212.671,2264.793,212.679,2270.8,212.679Z" transform="translate(-2249.031 -203.356)" fill="#006ce5"/>
  <path id="Path_65629" data-name="Path 65629" d="M2449.882,351.358q3.358,0,6.717,0a1.583,1.583,0,0,1,1.794,1.806q0,5.982,0,11.964a1.6,1.6,0,0,1-1.777,1.785q-6.77,0-13.538,0a1.613,1.613,0,0,1-1.8-1.822q0-5.956,0-11.912a1.6,1.6,0,0,1,1.837-1.823Q2446.5,351.356,2449.882,351.358Zm5.354,12.4V354.5h-10.789v9.251Z" transform="translate(-2421.084 -335.814)" fill="#006ce5"/>
  <path id="Path_65630" data-name="Path 65630" d="M2308.34,532.221v-3.059h31.044v3.059Z" transform="translate(-2302.111 -494.945)" fill="#006ce5"/>
  <path id="Path_65631" data-name="Path 65631" d="M2319.378,470.046V473.1h-10.827v-3.056Z" transform="translate(-2302.299 -442.038)" fill="#006ce5"/>
  <path id="Path_65632" data-name="Path 65632" d="M2308.345,413.925v-3.1h10.878c0,.954.011,1.91-.019,2.865,0,.082-.275.219-.424.222-1.172.019-2.344.01-3.517.01h-6.919Z" transform="translate(-2302.116 -389.039)" fill="#006ce5"/>
  <path id="Path_65633" data-name="Path 65633" d="M2319.34,354.708h-10.834v-3.055h10.834Z" transform="translate(-2302.26 -336.078)" fill="#006ce5"/>
  <path id="Path_65634" data-name="Path 65634" d="M2296.745,248.083v3.054h-3.073v-3.054Z" transform="translate(-2288.984 -243.386)" fill="#006ce5"/>
  <path id="Path_65635" data-name="Path 65635" d="M2385.511,247.972v3.073h-3.067v-3.073Z" transform="translate(-2368.432 -243.286)" fill="#006ce5"/>
  <path id="Path_65636" data-name="Path 65636" d="M2338.094,247.791h3.033v3.087h-3.033Z" transform="translate(-2328.741 -243.124)" fill="#006ce5"/>
</svg>
