<svg xmlns="http://www.w3.org/2000/svg" width="58.196" height="49.467" viewBox="0 0 58.196 49.467">
  <g id="Group_26947" data-name="Group 26947" transform="translate(0 -0.5)">
    <path id="Path_82373" data-name="Path 82373" d="M4.85,2.416l4.063-1.1h18.73l1.993,1.1,2.392.8,1.892,2.192,1,2.192v3.188H50.657l2.093,1.1,1.694,1.4,1.793,2.292.6,3.786v7.174l.9,3.288-.9,2.989L54.444,36.59l-1.694.9-5.38,1.1s.2,11.059,0,10.76S36.709,37.487,36.709,37.487H29.636l-2.89-.9L24.753,34.3l-.8-1.495V28.021H18.875l-8.17,8.568V28.719H7.617l-2.768-.7L2.236,25.531l-.7-1.395V22.144l-.9-5.978.9-2.889s.3-3.188,0-3.687,0-3.288,0-3.288L3.332,4.21Z" fill="#006ce5"/>
    <path id="Path_82371" data-name="Path 82371" d="M49.467,10.2H35.888v-.97A8.74,8.74,0,0,0,27.158.5H8.729A8.74,8.74,0,0,0,0,9.229V20.869A8.74,8.74,0,0,0,8.729,29.6H9.7v7.759a.97.97,0,0,0,1.656.686L19.8,29.6h2.508v.97A8.74,8.74,0,0,0,31.038,39.3h5.418L46.841,49.683A.97.97,0,0,0,48.5,49V39.3h.97A8.74,8.74,0,0,0,58.2,30.568V18.929A8.74,8.74,0,0,0,49.467,10.2ZM19.4,27.658a.97.97,0,0,0-.686.284l-7.074,7.074V28.628a.97.97,0,0,0-.97-.97H8.729a6.8,6.8,0,0,1-6.79-6.79V9.229a6.8,6.8,0,0,1,6.79-6.79H27.158a6.8,6.8,0,0,1,6.79,6.79v.97h-2.91a8.74,8.74,0,0,0-8.729,8.729v8.729Zm36.858,2.91a6.8,6.8,0,0,1-6.79,6.79h-1.94a.97.97,0,0,0-.97.97v8.328l-9.014-9.014a.97.97,0,0,0-.686-.284h-5.82a6.8,6.8,0,0,1-6.79-6.79V18.929a6.8,6.8,0,0,1,6.79-6.79H49.467a6.8,6.8,0,0,1,6.79,6.79Zm0,0" transform="translate(0 0)" fill="#fff"/>
    <path id="Path_82372" data-name="Path 82372" d="M86.557,74.2H64.248a.97.97,0,0,0,0,1.94H86.557a.97.97,0,0,0,0-1.94Zm0,5.82H64.248a.97.97,0,0,0,0,1.94H86.557a.97.97,0,0,0,0-1.94Zm0,5.82H64.248a.97.97,0,1,0,0,1.94H86.557a.97.97,0,0,0,0-1.94ZM40.97,66.44H61.339a.97.97,0,1,0,0-1.94H40.97a.97.97,0,0,0,0,1.94Zm14.549,3.88H40.97a.97.97,0,0,0,0,1.94H55.519a.97.97,0,1,0,0-1.94Zm-.97,5.82H40.97a.97.97,0,0,0,0,1.94H54.549a.97.97,0,0,0,0-1.94Zm0,0" transform="translate(-35.15 -56.241)" fill="#fff"/>
  </g>
</svg>
