<svg xmlns="http://www.w3.org/2000/svg" width="50.88" height="43.523" viewBox="0 0 50.88 43.523">
  <g id="Group_26948" data-name="Group 26948" transform="translate(-2 -4.05)">
    <g id="Layer_11" data-name="Layer 11" transform="translate(2 4.05)">
      <path id="Path_82367" data-name="Path 82367" d="M20.9,30.805a3.634,3.634,0,0,0,3.634-3.634V23.537A3.634,3.634,0,0,0,20.9,19.9H13.634V16.268H22.72a1.817,1.817,0,0,0,0-3.634H19.086V10.817a1.817,1.817,0,0,0-3.634,0v1.817H13.634A3.634,3.634,0,0,0,10,16.268V19.9a3.634,3.634,0,0,0,3.634,3.634H20.9v3.634H11.817a1.817,1.817,0,1,0,0,3.634h3.634v1.817a1.817,1.817,0,1,0,3.634,0V30.805Zm23.622,9.086H42.708V32.622a1.817,1.817,0,0,0-3.634,0v7.268H35.44v-10.9a1.817,1.817,0,0,0-3.634,0v10.9H28.171V34.44a1.817,1.817,0,1,0-3.634,0v5.451H22.72a1.817,1.817,0,0,0,0,3.634H44.525a1.817,1.817,0,0,0,0-3.634Z" transform="translate(4.537 -0.004)" fill="#006ce5"/>
      <path id="Path_82368" data-name="Path 82368" d="M22.152,43.936A18.171,18.171,0,1,1,41.977,25.765q.041.826,0,1.654a1.824,1.824,0,1,0,3.634.327V25.765A21.805,21.805,0,1,0,21.825,47.57h.164a1.819,1.819,0,0,0,.164-3.634Z" transform="translate(-2 -4.05)" fill="#006ce5"/>
    </g>
  </g>
</svg>
