<svg id="workday" xmlns="http://www.w3.org/2000/svg" width="90.934" height="36.396" viewBox="0 0 90.934 36.396">
  <path id="Path_65447" data-name="Path 65447" d="M57.473.023a25.934,25.934,0,0,1,24.659,15.4,1.657,1.657,0,0,1,.191,1.057,1.453,1.453,0,0,1-2.78.269A22.988,22.988,0,0,0,63.654,3.424,23.035,23.035,0,0,0,40.53,11.3a22.9,22.9,0,0,0-3.3,5.454,1.449,1.449,0,0,1-2.706-1.04A25.911,25.911,0,0,1,57.473.022Z" transform="translate(-10.949 -0.007)" fill="#f49813"/>
  <g id="Group_10804" data-name="Group 10804" transform="translate(0 16.244)">
    <path id="Path_65448" data-name="Path 65448" d="M42.227,24.4a.507.507,0,0,1,.514-.5c.345-.01.692-.007,1.037,0,.241.008.521.168.52.439.012,3.171-.008,6.343.01,9.516,1.285-1.429,2.581-2.849,3.87-4.274.254-.25.454-.63.85-.662.532-.022,1.065-.009,1.6-.008.205-.018.434.17.363.389a1.91,1.91,0,0,1-.365.419c-1.395,1.393-2.794,2.781-4.181,4.181,1.339,1.53,2.661,3.075,3.995,4.61a6.4,6.4,0,0,1,.531.645.306.306,0,0,1-.271.426c-.443.025-.887,0-1.331.01a1.417,1.417,0,0,1-.69-.091,2.111,2.111,0,0,1-.514-.544c-1.286-1.62-2.564-3.246-3.855-4.863-.014,1.595,0,3.189-.005,4.783,0,.184.033.406-.128.539-.255.246-.634.16-.953.176-.282-.01-.612.053-.842-.156a.5.5,0,0,1-.157-.42q.006-7.306,0-14.61Zm-5.861,4.479a2.875,2.875,0,0,1,2,.027c.222.1.479.326.379.6-.1.344-.188.691-.308,1.028a.522.522,0,0,1-.607.284,8.021,8.021,0,0,0-1.6-.249,1.391,1.391,0,0,0-.993.46,2.814,2.814,0,0,0-.735,1.556,7.138,7.138,0,0,0-.059,1.249v5.249c.025.288-.273.484-.533.493-.357,0-.713.01-1.069,0-.257-.014-.547-.2-.514-.491q0-4.859,0-9.718c-.021-.322.336-.5.615-.467.351.023.831-.109,1.059.245.174.409.256.853.419,1.266a4.062,4.062,0,0,1,1.941-1.529ZM0,29.125A.487.487,0,0,1,.38,28.9c.484,0,.969-.015,1.453.007a.5.5,0,0,1,.45.451c.476,1.934.943,3.872,1.417,5.806.139.6.308,1.189.4,1.8.093.546.112,1.1.2,1.647a20.862,20.862,0,0,1,.442-2.329Q5.67,32.815,6.6,29.352a.569.569,0,0,1,.559-.45c.539-.014,1.078,0,1.616,0a.642.642,0,0,1,.668.451q.694,2.526,1.38,5.055a30.6,30.6,0,0,1,.8,3.283c.044.308.086.618.15.924a46.032,46.032,0,0,1,1-5.193c.307-1.371.607-2.742.919-4.113a.555.555,0,0,1,.593-.406c.435,0,.872-.015,1.307.007a.378.378,0,0,1,.315.524Q14.6,34.265,13.29,39.1a.565.565,0,0,1-.536.464c-.675.023-1.351.006-2.026.01a.489.489,0,0,1-.541-.37c-.6-2.217-1.2-4.439-1.8-6.657A15.157,15.157,0,0,1,8,30.184a19.422,19.422,0,0,1-.355,2.12Q6.723,35.732,5.8,39.16c-.069.37-.492.443-.807.419-.627-.011-1.255.015-1.882-.011a.456.456,0,0,1-.436-.385Q1.354,34.367.034,29.55A2.473,2.473,0,0,1,0,29.125Zm79.154-.219q.688-.013,1.377,0a.687.687,0,0,1,.629.461q1.187,3.1,2.367,6.21a6.37,6.37,0,0,1,.355,1.3c.327-1.228.762-2.422,1.144-3.633q.637-1.964,1.277-3.93a.578.578,0,0,1,.511-.4c.374-.028.75,0,1.125-.014a.849.849,0,0,1,.648.153.316.316,0,0,1,.04.363q-1.9,5.411-3.789,10.824a8.417,8.417,0,0,1-.741,1.771,4.284,4.284,0,0,1-2.232,1.736c-.316.1-.641.314-.981.193-.241-.061-.333-.312-.462-.5-.092-.167-.263-.321-.227-.529a.51.51,0,0,1,.376-.429,3.147,3.147,0,0,0,1.076-.545,4.343,4.343,0,0,0,1.39-2.526c-.12-.424-.341-.814-.5-1.224q-1.809-4.2-3.621-8.409a2.166,2.166,0,0,1-.2-.557c0-.218.254-.314.439-.321ZM22.926,30.262a2.341,2.341,0,0,0-1.592,1.115,5.89,5.89,0,0,0-.6,3.16,4.748,4.748,0,0,0,.816,2.792,2.443,2.443,0,0,0,1.959.876,2.488,2.488,0,0,0,1.936-.758,4.2,4.2,0,0,0,.9-2.485,8.608,8.608,0,0,0-.17-2.588,2.843,2.843,0,0,0-1.206-1.81A3.029,3.029,0,0,0,22.926,30.262Zm.278-1.538a5.306,5.306,0,0,1,3.42.879,4.706,4.706,0,0,1,1.755,2.622,7.686,7.686,0,0,1,.029,3.789,4.772,4.772,0,0,1-1.944,2.87,5.462,5.462,0,0,1-3.662.741,4.723,4.723,0,0,1-2.851-1.387,5.515,5.515,0,0,1-1.4-3.422,6.445,6.445,0,0,1,.87-4.025,4.456,4.456,0,0,1,2.481-1.838,6.023,6.023,0,0,1,1.3-.23ZM58.316,30.2a1.893,1.893,0,0,0-1.574,1.013,7.382,7.382,0,0,0-.552,3.594,5.728,5.728,0,0,0,.5,2.324,1.875,1.875,0,0,0,1.238.978,2.438,2.438,0,0,0,2.367-.617,4.1,4.1,0,0,0,.832-2.33,9.092,9.092,0,0,0-.17-2.811A3.231,3.231,0,0,0,60.04,30.7a2.231,2.231,0,0,0-1.724-.5Zm2.808-5.942c-.015-.248.239-.407.46-.426.354-.02.708-.01,1.063-.007.27,0,.572.2.533.5q0,7.34,0,14.677a.479.479,0,0,1-.464.464,6.7,6.7,0,0,1-.844,0,.52.52,0,0,1-.457-.329c-.106-.318-.162-.648-.242-.971a3.441,3.441,0,0,1-1.52,1.232,4.848,4.848,0,0,1-2.8.11,3.392,3.392,0,0,1-2.17-1.689,8.124,8.124,0,0,1-.737-4.19,5.55,5.55,0,0,1,1.046-3.456,3.722,3.722,0,0,1,2.56-1.406,3.653,3.653,0,0,1,2.673.576,3.967,3.967,0,0,1,.905.947Q61.114,27.276,61.124,24.263Zm9.88,6a2.2,2.2,0,0,0-.909.4,2.885,2.885,0,0,0-.933,1.7,10.188,10.188,0,0,0-.1,3.07,3.57,3.57,0,0,0,.836,2.1,2.683,2.683,0,0,0,3.579-.151,4.286,4.286,0,0,0,.782-2.373A8.855,8.855,0,0,0,74.04,32.1a2.6,2.6,0,0,0-1.025-1.514A2.868,2.868,0,0,0,71,30.266ZM70.1,28.927a5.958,5.958,0,0,1,2.9-.059A3.9,3.9,0,0,1,75.254,30.3a5.456,5.456,0,0,1,.986,2.62,14.952,14.952,0,0,1,.075,2.169q0,1.959,0,3.917a.429.429,0,0,1-.216.383,1.527,1.527,0,0,1-.735.09c-.274,0-.634.023-.784-.263a7.334,7.334,0,0,1-.269-1.062,4.058,4.058,0,0,1-1.281,1.166,4.459,4.459,0,0,1-5.265-1.534,6.326,6.326,0,0,1-.964-3.61,6.325,6.325,0,0,1,.912-3.527A4.167,4.167,0,0,1,70.1,28.927Zm18.982,8.022a1.193,1.193,0,0,0,.805,2.245,1.19,1.19,0,0,0,.779-1.445A1.2,1.2,0,0,0,89.077,36.949Zm.075-.282a1.6,1.6,0,0,1,.963.094,1.373,1.373,0,0,1,.814,1.335,1.4,1.4,0,0,1-1.17,1.383,1.44,1.44,0,0,1-.607-2.813Z" transform="translate(0 -23.824)" fill="#3069b5"/>
    <path id="Path_65449" data-name="Path 65449" d="M130.75,43.738c0,.153,0,.306,0,.459a1.918,1.918,0,0,0,.4-.037c.124-.051.112-.209.078-.315C131.1,43.72,130.913,43.752,130.75,43.738Zm-.4-.249a2.374,2.374,0,0,1,1.168.129.452.452,0,0,1-.172.767,7.322,7.322,0,0,0,.334.7l-.434.008q-.156-.32-.306-.644l-.186,0c0,.215,0,.43,0,.644l-.405,0C130.345,44.55,130.344,44.019,130.346,43.489Z" transform="translate(-41.448 -30.075)" fill="#3069b5"/>
  </g>
</svg>
