<svg xmlns="http://www.w3.org/2000/svg" width="18.933" height="13.339" viewBox="0 0 18.933 13.339">
  <path id="youtube" d="M98.61,310.458a2.379,2.379,0,0,0-1.673-1.685,56.208,56.208,0,0,0-7.4-.4,56.2,56.2,0,0,0-7.4.4,2.382,2.382,0,0,0-1.674,1.685,26.8,26.8,0,0,0,0,9.173,2.381,2.381,0,0,0,1.674,1.684,56.2,56.2,0,0,0,7.4.4,56.208,56.208,0,0,0,7.4-.4,2.378,2.378,0,0,0,1.673-1.684,26.754,26.754,0,0,0,0-9.173ZM87.6,317.86v-5.63l4.949,2.814Z" transform="translate(-80.073 -308.375)" fill="#00337f"/>
</svg>
